<svg width="24" height="24" viewBox="0 0 24 24" fill="none" xmlns="http://www.w3.org/2000/svg">
<path d="M15.03 6.71997C14.37 6.71997 13.77 6.83997 13.17 7.04997C14.55 8.24997 15.45 10.02 15.45 12C15.45 13.98 14.58 15.75 13.17 16.95C13.74 17.16 14.37 17.28 15.03 17.28C17.94 17.28 20.31 14.91 20.31 12C20.31 9.05997 17.94 6.71997 15.03 6.71997Z" fill="#B9964B"/>
<path d="M14.22 11.9699C14.22 9.05994 11.85 6.68994 8.94003 6.68994C6.03003 6.68994 3.66003 9.05994 3.66003 11.9699C3.66003 14.8799 6.03003 17.2499 8.94003 17.2499C11.88 17.2499 14.22 14.8799 14.22 11.9699ZM8.46003 15.3599C8.46003 15.2399 8.46003 15.1199 8.46003 15.0299C8.46003 14.7899 8.46003 14.7599 8.22003 14.7299C7.92003 14.6699 7.62003 14.6099 7.32003 14.4599C7.11003 14.3399 7.08003 14.3099 7.14003 14.0699C7.20003 13.8899 7.23003 13.7099 7.29003 13.5599C7.35003 13.3499 7.41003 13.3499 7.59003 13.4399C7.89003 13.5899 8.22003 13.6799 8.58003 13.7399C8.79003 13.7699 9.03003 13.7399 9.24003 13.6499C9.63003 13.4699 9.69003 13.0199 9.36003 12.7499C9.24003 12.6599 9.12003 12.5999 9.00003 12.5399C8.67003 12.3899 8.31003 12.2699 7.98003 12.0899C7.47003 11.7899 7.14003 11.3399 7.17003 10.7099C7.20003 9.98994 7.62003 9.53994 8.28003 9.29994C8.55003 9.20994 8.55003 9.20994 8.55003 8.90994V8.60994C8.55003 8.39994 8.58003 8.36994 8.79003 8.33994C8.85003 8.33994 8.91003 8.33994 9.00003 8.33994C9.45003 8.33994 9.45003 8.33994 9.45003 8.78994C9.45003 9.11994 9.45003 9.11994 9.78003 9.14994C10.02 9.17994 10.26 9.26994 10.47 9.35994C10.59 9.41994 10.65 9.50994 10.59 9.62994C10.53 9.83994 10.47 10.0199 10.41 10.2299C10.35 10.4099 10.29 10.4399 10.11 10.3499C9.75003 10.1699 9.39003 10.1099 9.00003 10.1399C8.91003 10.1399 8.79003 10.1699 8.70003 10.1999C8.37003 10.3499 8.31003 10.7099 8.58003 10.9499C8.73003 11.0699 8.88003 11.1599 9.06003 11.2199C9.36003 11.3399 9.66003 11.4599 9.93003 11.6099C10.83 12.1199 11.07 13.2299 10.44 14.0099C10.2 14.2799 9.90003 14.4899 9.57003 14.5799C9.42003 14.6099 9.36003 14.6999 9.36003 14.8499C9.36003 14.9999 9.36003 15.1499 9.36003 15.3299C9.36003 15.4799 9.30003 15.5399 9.15003 15.5399C8.97003 15.5399 8.82003 15.5399 8.64003 15.5399C8.52003 15.5999 8.46003 15.5099 8.46003 15.3599Z" fill="#B9964B"/>
<path d="M16.26 17.97L16.2 18C14.25 19.8 11.07 20.1 8.73001 18.72C8.85001 18.69 8.94001 18.63 9.03001 18.54C9.09001 18.45 9.12001 18.33 9.12001 18.24C9.09001 18 8.85001 17.82 8.58001 17.85L7.41001 17.97C7.29001 17.97 7.17001 18.03 7.08001 18.12C6.99001 18.21 6.96001 18.33 6.99001 18.45L7.14001 19.47C7.17001 19.71 7.41001 19.8899 7.68001 19.8599C7.83001 19.8599 7.95001 19.77 8.04001 19.68C8.10001 19.59 8.13001 19.47 8.13001 19.38C9.30001 20.1 10.68 20.4599 12.03 20.4599C13.68 20.4599 15.3 19.95 16.59 18.9L16.74 18.78C16.77 18.75 16.77 18.75 16.8 18.72C16.83 18.69 16.86 18.66 16.89 18.66L16.92 18.63C17.01 18.54 17.07 18.45 17.07 18.33C17.07 18.21 17.01 18.09 16.92 18C16.74 17.88 16.47 17.85 16.26 17.97Z" fill="#B9964B"/>
<path d="M7.34998 6.03005L7.40998 6.00005C9.35998 4.20005 12.54 3.90005 14.88 5.28005C14.76 5.31005 14.67 5.37005 14.58 5.46005C14.52 5.55005 14.49 5.67005 14.49 5.76005C14.52 5.97005 14.73 6.15005 14.97 6.15005C15 6.15005 15 6.15005 15.03 6.15005L16.2 6.03005C16.32 6.03005 16.44 5.97005 16.53 5.88005C16.62 5.79005 16.65 5.67005 16.62 5.55005L16.53 4.50005C16.5 4.26005 16.26 4.08005 15.99 4.11005C15.84 4.11005 15.72 4.20005 15.63 4.29005C15.57 4.38005 15.54 4.50005 15.54 4.59005C12.96 2.97005 9.41998 3.18005 7.07998 5.07005L6.92998 5.19005C6.89998 5.22005 6.89998 5.22005 6.86998 5.25005C6.83998 5.28005 6.80998 5.31005 6.77998 5.31005L6.74998 5.34005C6.65998 5.43005 6.59998 5.52005 6.59998 5.64005C6.59998 5.76005 6.65998 5.88005 6.74998 5.97005C6.89998 6.12005 7.16998 6.15005 7.34998 6.03005Z" fill="#B9964B"/>
</svg>
