<svg width="32" height="33" viewBox="0 0 32 33" fill="none" xmlns="http://www.w3.org/2000/svg">
<path d="M14.0476 4.67951L14.7976 4.67951L14.0476 4.67951ZM11.2244 19.2863L11.7983 19.7691L11.2244 19.2863ZM10.2679 18.8035L4.14884 11.5299L3.001 12.4956L9.12007 19.7691L10.2679 18.8035ZM16.7696 11.5299L10.6505 18.8035L11.7983 19.7691L17.9174 12.4956L16.7696 11.5299ZM15.0476 11.119L16.5783 11.119L16.5783 9.61901L15.0476 9.61901L15.0476 11.119ZM13.2976 4.67951L13.2976 9.36901L14.7976 9.36901L14.7976 4.67951L13.2976 4.67951ZM7.87045 4.42951L13.0476 4.42951L13.0476 2.92951L7.87045 2.92951L7.87045 4.42951ZM7.62045 9.36901L7.62045 4.67951L6.12045 4.67951L6.12045 9.36901L7.62045 9.36901ZM4.34014 11.119L5.87044 11.119L5.87044 9.61901L4.34014 9.61901L4.34014 11.119ZM6.12045 9.36901C6.12045 9.50708 6.00852 9.61901 5.87044 9.61901L5.87044 11.119C6.83694 11.119 7.62045 10.3355 7.62045 9.36901L6.12045 9.36901ZM7.87045 2.92951C6.90395 2.92951 6.12045 3.71301 6.12045 4.67951L7.62045 4.67951C7.62045 4.54144 7.73237 4.42951 7.87045 4.42951L7.87045 2.92951ZM14.7976 4.67951C14.7976 3.71301 14.0141 2.92951 13.0476 2.92951L13.0476 4.42951C13.1856 4.42951 13.2976 4.54144 13.2976 4.67951L14.7976 4.67951ZM15.0476 9.61901C14.9095 9.61901 14.7976 9.50708 14.7976 9.36901L13.2976 9.36901C13.2976 10.3355 14.0811 11.119 15.0476 11.119L15.0476 9.61901ZM17.9174 12.4956C18.8751 11.3573 18.0658 9.61901 16.5783 9.61901L16.5783 11.119C16.7908 11.119 16.9064 11.3673 16.7696 11.5299L17.9174 12.4956ZM4.14884 11.5299C4.01203 11.3673 4.12763 11.119 4.34014 11.119L4.34014 9.61901C2.8526 9.61901 2.04337 11.3573 3.001 12.4956L4.14884 11.5299ZM9.12007 19.7691C9.81936 20.6003 11.0991 20.6003 11.7983 19.7691L10.6505 18.8035C10.5506 18.9222 10.3678 18.9222 10.2679 18.8035L9.12007 19.7691Z" fill="#F69234"/>
<path d="M14.1041 8.14188L17.9059 6.62232C18.3904 6.42865 18.9315 6.43202 19.4135 6.63171L24.9673 8.93216C25.4574 9.13515 25.8467 9.52449 26.0497 10.0146L28.3446 15.5549C28.5476 16.0449 28.5476 16.5956 28.3446 17.0856L26.0497 22.626C25.8467 23.116 25.4574 23.5054 24.9673 23.7083L19.427 26.0032C18.9369 26.2062 18.3863 26.2062 17.8963 26.0032L12.3559 23.7083C11.8659 23.5054 11.4765 23.116 11.2735 22.626L10.1261 19.8558" stroke="#F69234" stroke-width="1.5" stroke-linecap="round" stroke-linejoin="round"/>
<path d="M18.6613 26.3203L24.6613 23.8203V28.3203C24.6613 28.8725 24.2135 29.3203 23.6613 29.3203H18.6613V26.3203Z" stroke="#F69234" stroke-width="1.5" stroke-linecap="round"/>
<path d="M18.6613 26.3203L12.6613 23.8203V28.3203C12.6613 28.8725 13.109 29.3203 13.6613 29.3203H18.6613V26.3203Z" stroke="#F69234" stroke-width="1.5" stroke-linecap="round"/>
<path d="M18.6609 10.3583C21.9535 10.3583 24.6228 13.0276 24.6228 16.3203C24.6228 19.6129 21.9535 22.2822 18.6609 22.2822C15.8144 22.2822 13.4339 20.2874 12.8409 17.6195M18.6609 10.3583C18.3453 10.3583 18.0354 10.3829 17.7331 10.4301L18.6609 10.3583Z" stroke="#F69234" stroke-width="1.5" stroke-linecap="round" stroke-linejoin="round"/>
</svg>
