<svg width="24" height="24" viewBox="0 0 24 24" fill="none" xmlns="http://www.w3.org/2000/svg">
<path d="M4 7.2C4 5.43269 5.43269 4 7.2 4H13V16.8C13 18.5673 11.5673 20 9.8 20H4V7.2Z" stroke="#217DC1" stroke-linecap="round" stroke-linejoin="round"/>
<path d="M16 6C16 4.89543 16.8954 4 18 4V4C19.1046 4 20 4.89543 20 6V16.6745C20 17.5232 19.6629 18.3371 19.0627 18.9373L18.7071 19.2929C18.3166 19.6834 17.6834 19.6834 17.2929 19.2929L16.9373 18.9373C16.3371 18.3371 16 17.5232 16 16.6745V6Z" stroke="#217DC1" stroke-linecap="round" stroke-linejoin="round"/>
<path d="M9.5 8H12.5" stroke="#217DC1" stroke-linecap="round" stroke-linejoin="round"/>
<path d="M7 12L12.5 12" stroke="#217DC1" stroke-linecap="round" stroke-linejoin="round"/>
<path d="M9.5 16H12.5" stroke="#217DC1" stroke-linecap="round" stroke-linejoin="round"/>
</svg>
