<svg width="24" height="24" viewBox="0 0 24 24" fill="none" xmlns="http://www.w3.org/2000/svg">
<path d="M16.4999 3.90002H7.4999C6.3299 3.90002 5.3999 4.83002 5.3999 6.00002V12.75C5.3999 13.89 6.3299 14.85 7.4999 14.85H9.5099C9.7499 14.85 9.9299 14.67 9.9299 14.43C9.9299 14.19 9.7499 14.01 9.5099 14.01H7.4999C6.8099 14.01 6.2399 13.44 6.2399 12.75V6.00002C6.2399 5.31002 6.8099 4.74002 7.4999 4.74002H16.4999C17.1899 4.74002 17.7599 5.31002 17.7599 6.00002V12.75C17.7599 13.44 17.1899 14.01 16.4999 14.01H15.1499C14.9099 14.01 14.7299 14.19 14.7299 14.43C14.7299 14.67 14.9099 14.85 15.1499 14.85H16.4999C17.6399 14.85 18.5999 13.92 18.5999 12.75V6.00002C18.5999 4.83002 17.6699 3.90002 16.4999 3.90002Z" fill="#217DC1"/>
<path d="M8.89979 16.8601C8.80979 16.9501 8.77979 17.0401 8.77979 17.1601C8.77979 17.2801 8.80979 17.3701 8.89979 17.4601L11.7198 20.2801C11.8698 20.4301 12.1398 20.4301 12.2898 20.2801L15.1098 17.4601C15.2598 17.3101 15.2598 17.0401 15.1098 16.8901C14.9598 16.7401 14.6898 16.7401 14.5398 16.8901L12.4098 19.0201V11.2501C12.4098 11.0101 12.2298 10.8301 11.9898 10.8301C11.7498 10.8301 11.5698 11.0101 11.5698 11.2501V18.9901L9.43979 16.8601C9.31979 16.7101 9.04979 16.7101 8.89979 16.8601Z" fill="#217DC1"/>
</svg>
