<svg width="24" height="24" viewBox="0 0 24 24" fill="none" xmlns="http://www.w3.org/2000/svg">
<path d="M4 8.38281C4 6.72596 5.34315 5.38281 7 5.38281H21.25V16.4965C21.25 18.1533 19.9069 19.4964 18.25 19.4964H4V8.38281Z" stroke="#217DC1" stroke-linecap="round" stroke-linejoin="round"/>
<path d="M4 10.0898L21 10.0898" stroke="#217DC1" stroke-linecap="round" stroke-linejoin="round"/>
<path d="M8.45508 3.81641V6.95277" stroke="#217DC1" stroke-linecap="round" stroke-linejoin="round"/>
<path d="M16.2949 3.81641V6.95277" stroke="#217DC1" stroke-linecap="round" stroke-linejoin="round"/>
<path d="M11.8785 12.4005C12.1328 11.8665 12.8672 11.8665 13.1215 12.4005L13.3571 12.8955C13.4581 13.1075 13.6532 13.2545 13.8789 13.2885L14.4059 13.3679C14.9743 13.4535 15.2013 14.1776 14.79 14.5933L14.4086 14.9786C14.2453 15.1436 14.1708 15.3814 14.2093 15.6145L14.2994 16.1585C14.3965 16.7454 13.8022 17.193 13.2938 16.9159L12.8225 16.659C12.6206 16.549 12.3794 16.549 12.1775 16.659L11.7062 16.9159C11.1978 17.193 10.6035 16.7454 10.7006 16.1585L10.7907 15.6145C10.8292 15.3814 10.7547 15.1436 10.5914 14.9786L10.21 14.5933C9.79872 14.1776 10.0257 13.4535 10.5941 13.3679L11.1211 13.2885C11.3468 13.2545 11.5419 13.1075 11.6429 12.8955L11.8785 12.4005Z" stroke="#217DC1" stroke-linecap="round" stroke-linejoin="round"/>
</svg>
