<svg width="80" height="80" viewBox="0 0 80 80" fill="none" xmlns="http://www.w3.org/2000/svg">
<path d="M50.4001 29.1L53.4001 26.1C54.1001 25.4 54.1001 24.2 53.4001 23.5C52.7001 22.8 51.5001 22.8 50.8001 23.5L47.8001 26.5L35.5001 14.3C34.8001 13.6 33.6001 13.6 32.9001 14.3C27.3001 19.9 25.4001 28.6 28.1001 36.2C26.4001 37.8 25.3001 40.2 25.3001 42.7C25.3001 44.3 25.7001 45.8 26.5001 47.1L21.5001 59.4H17.9001C14.7001 59.4 12.1001 62 12.1001 65.2C12.1001 68.4 14.7001 71 17.9001 71H50.7001C53.9001 71 56.5001 68.4 56.5001 65.2C56.5001 62 53.9001 59.4 50.7001 59.4H47.1001L43.1001 49.3C44.6001 49.6 46.1001 49.8 47.7001 49.8C49.0001 49.8 50.3001 49.7 51.6001 49.4C55.8001 48.6 59.5001 46.7 62.5001 43.7C62.8001 43.4 63.0001 42.9 63.0001 42.4C63.0001 41.9 62.8001 41.5 62.5001 41.1L50.4001 29.1ZM34.3001 37.4C37.2001 37.4 39.6001 39.8 39.6001 42.7C39.6001 43.8 39.2001 44.9 38.6001 45.8C38.6001 45.8 38.6001 45.8 38.6001 45.9C37.6001 47.2 36.1001 48.1 34.3001 48.1C31.4001 48.1 29.0001 45.7 29.0001 42.8C29.0001 39.8 31.4001 37.4 34.3001 37.4ZM50.7001 63C51.9001 63 52.9001 64 52.9001 65.2C52.9001 66.4 51.9001 67.4 50.7001 67.4H17.9001C16.7001 67.4 15.7001 66.4 15.7001 65.2C15.7001 64 16.7001 63 17.9001 63H50.7001ZM43.2001 59.4H25.5001L29.3001 50.1C30.7001 51.1 32.5001 51.7 34.4001 51.7C36.3001 51.7 38.1001 51.1 39.6001 50.1L43.2001 59.4ZM50.9001 45.9C48.2001 46.4 45.4001 46.3 42.8001 45.5C43.1001 44.6 43.2001 43.7 43.2001 42.7C43.2001 37.8 39.2001 33.7 34.2001 33.7C33.2001 33.7 32.2001 33.9 31.2001 34.2C29.5001 28.7 30.6001 22.6 34.2001 18.2L58.4001 42.4C56.3001 44.1 53.7001 45.3 50.9001 45.9Z" fill="#217DC1"/>
<path d="M52.5001 19.2C55.3001 19.2 57.6001 21.5 57.6001 24.3C57.6001 25.3 58.4001 26.1 59.4001 26.1C60.4001 26.1 61.2001 25.3 61.2001 24.3C61.2001 19.5 57.3001 15.5 52.4001 15.5C51.4001 15.5 50.6001 16.3 50.6001 17.3C50.7001 18.4 51.5001 19.2 52.5001 19.2Z" fill="#217DC1"/>
<path d="M52.5001 9C51.5001 9 50.7001 9.8 50.7001 10.8C50.7001 11.8 51.5001 12.6 52.5001 12.6C59.0001 12.6 64.3001 17.9 64.3001 24.4C64.3001 25.4 65.1001 26.2 66.1001 26.2C67.1001 26.2 67.9001 25.4 67.9001 24.4C67.9001 15.9 61.0001 9 52.5001 9Z" fill="#217DC1"/>
</svg>
