<svg width="24" height="24" viewBox="0 0 24 24" fill="none" xmlns="http://www.w3.org/2000/svg">
<path d="M6.76203 17.7C6.67118 17.6995 6.58247 17.6723 6.50702 17.6217C6.43157 17.5711 6.37271 17.4993 6.33781 17.4155C6.30291 17.3316 6.29352 17.2393 6.31081 17.1501C6.32811 17.0609 6.37131 16.9788 6.43503 16.914L16.914 6.435C16.9568 6.39225 17.0075 6.35834 17.0634 6.33521C17.1192 6.31208 17.1791 6.30017 17.2395 6.30017C17.3 6.30017 17.3598 6.31208 17.4157 6.33521C17.4715 6.35834 17.5223 6.39225 17.565 6.435C17.6078 6.47774 17.6417 6.52849 17.6648 6.58434C17.6879 6.64019 17.6999 6.70005 17.6999 6.7605C17.6999 6.82095 17.6879 6.88081 17.6648 6.93666C17.6417 6.99251 17.6078 7.04325 17.565 7.086L7.08603 17.565C7.04362 17.6078 6.99315 17.6417 6.93754 17.6649C6.88193 17.6881 6.82228 17.7 6.76203 17.7Z" fill="white" stroke="white" stroke-width="0.456" stroke-miterlimit="10"/>
<path d="M17.2411 17.7C17.1804 17.7002 17.1202 17.6884 17.0641 17.6653C17.008 17.6421 16.957 17.608 16.9141 17.565L6.43512 7.086C6.34879 6.99967 6.30029 6.88258 6.30029 6.7605C6.30029 6.63841 6.34879 6.52133 6.43512 6.435C6.52145 6.34867 6.63853 6.30017 6.76062 6.30017C6.88271 6.30017 6.99979 6.34867 7.08612 6.435L17.5651 16.914C17.6287 16.9786 17.6718 17.0604 17.6892 17.1493C17.7066 17.2383 17.6975 17.3303 17.6629 17.4141C17.6284 17.4979 17.57 17.5696 17.495 17.6205C17.42 17.6713 17.3317 17.699 17.2411 17.7Z" fill="white" stroke="white" stroke-width="0.456" stroke-miterlimit="10"/>
</svg>
