<svg width="24" height="24" viewBox="0 0 24 24" fill="none" xmlns="http://www.w3.org/2000/svg">
<path d="M3.07061 10.7425L6.26419 8.82227L6.31577 4.8345C6.97398 4.29193 7.70958 3.84161 8.50325 3.50306L11.9937 5.47885L15.4896 3.5C16.2809 3.83672 17.0146 4.28451 17.6715 4.82404L17.7232 8.82227L20.9304 10.7507C20.9763 11.1231 21 11.5025 21 11.8875C21 12.4866 20.9427 13.0722 20.8333 13.639L17.7232 15.5091L17.6788 18.9449C16.8609 19.6181 15.9237 20.1489 14.9042 20.5L11.9937 18.8525L9.088 20.4973C8.06626 20.1444 7.12734 19.6109 6.30849 18.9345L6.26419 15.5091L3.16835 13.6476C3.05789 13.0781 3 12.4896 3 11.8875C3 11.4997 3.02401 11.1176 3.07061 10.7425Z" stroke="#217DC1"/>
<circle cx="12" cy="12" r="3" stroke="#217DC1"/>
</svg>
