<svg width="17" height="16" viewBox="0 0 17 16" fill="none" xmlns="http://www.w3.org/2000/svg">
<path fill-rule="evenodd" clip-rule="evenodd" d="M8.49884 1.24463C7.5535 1.24463 6.83268 1.53173 6.30376 1.97527C5.78107 2.41357 5.47244 2.98183 5.30324 3.50827C5.23188 3.73027 5.35401 3.96808 5.57601 4.03943C5.798 4.11079 6.03581 3.98866 6.10717 3.76666C6.24084 3.35079 6.47496 2.93375 6.84634 2.62232C7.21148 2.31612 7.73606 2.08907 8.49884 2.08907C9.54346 2.08907 10.1556 2.51486 10.5206 3.02187C10.9012 3.5504 11.0322 4.19733 11.0322 4.62235V6.31145H4.69864C3.7659 6.31145 3.00977 7.06758 3.00977 8.00032V13.0669C3.00977 13.9996 3.7659 14.7557 4.69864 14.7557H12.2987C13.2314 14.7557 13.9875 13.9996 13.9875 13.0669V8.00032C13.9875 7.06758 13.2314 6.31145 12.2987 6.31145H11.8766V4.62235C11.8766 4.0622 11.712 3.23137 11.2059 2.52845C10.6843 1.804 9.81867 1.24463 8.49884 1.24463ZM9.76598 9.6895C9.76598 10.2412 9.41331 10.7105 8.92112 10.8842V12.2228C8.92112 12.4559 8.73209 12.645 8.4989 12.645C8.26571 12.645 8.07668 12.4559 8.07668 12.2228V10.8839C7.58492 10.7099 7.23264 10.2409 7.23264 9.6895C7.23264 8.98996 7.79975 8.42286 8.49931 8.42286C9.19887 8.42286 9.76598 8.98996 9.76598 9.6895ZM8.49934 10.3226C8.84912 10.3226 9.13268 10.0391 9.13268 9.68929C9.13268 9.33952 8.84912 9.05597 8.49934 9.05597C8.14956 9.05597 7.86601 9.33952 7.86601 9.68929C7.86601 10.0391 8.14956 10.3226 8.49934 10.3226Z" fill="#C5C5C4"/>
</svg>
