<svg width="39" height="38" viewBox="0 0 39 38" fill="none" xmlns="http://www.w3.org/2000/svg">
<path fill-rule="evenodd" clip-rule="evenodd" d="M25.4023 5.55469C25.9546 5.55469 26.4023 6.0024 26.4023 6.55469L26.4023 9.60156C26.4023 10.1538 25.9546 10.6016 25.4023 10.6016C24.8501 10.6016 24.4023 10.1538 24.4023 9.60156L24.4023 6.55469C24.4023 6.0024 24.8501 5.55469 25.4023 5.55469Z" fill="url(#paint0_linear_18362_34739)"/>
<path fill-rule="evenodd" clip-rule="evenodd" d="M12.3779 9.69141V7.75391H11.5859C8.27223 7.75391 5.58594 10.4402 5.58594 13.7539V15.168H11.5896C11.3636 14.5514 11.2374 13.9002 11.2181 13.2409C13.018 12.2685 15.2654 12.225 17.167 13.3229C17.9882 13.797 18.6572 14.4333 19.1571 15.168H20.6818C21.1819 14.4316 21.8519 13.7938 22.6745 13.3189C24.5754 12.2214 26.8218 12.2644 28.6213 13.2357C28.6032 13.8967 28.4775 14.5497 28.2517 15.168H34.1934V13.7539C34.1934 10.4402 31.5071 7.75391 28.1934 7.75391H27.4014V9.69141C27.4014 10.796 26.5059 11.6914 25.4014 11.6914C24.2968 11.6914 23.4014 10.796 23.4014 9.69141V7.75391H16.3779V9.69141C16.3779 10.796 15.4825 11.6914 14.3779 11.6914C13.2734 11.6914 12.3779 10.796 12.3779 9.69141Z" fill="url(#paint1_linear_18362_34739)"/>
<path fill-rule="evenodd" clip-rule="evenodd" d="M14.3789 5.55469C14.9312 5.55469 15.3789 6.0024 15.3789 6.55469L15.3789 9.60156C15.3789 10.1538 14.9312 10.6016 14.3789 10.6016C13.8266 10.6016 13.3789 10.1538 13.3789 9.60156L13.3789 6.55469C13.3789 6.0024 13.8266 5.55469 14.3789 5.55469Z" fill="url(#paint2_linear_18362_34739)"/>
<path fill-rule="evenodd" clip-rule="evenodd" d="M19.9155 18.5786L19.8999 18.5859H19.931L19.9155 18.5786ZM14.2654 18.3456C15.897 19.2876 17.7831 19.3893 19.4227 18.7851V21.3867C19.0101 21.7287 18.5244 22.5086 18.1031 23.8028C17.8071 24.6907 17.5957 25.7053 17.3843 26.8045H22.3731C22.204 25.7053 21.9503 24.6907 21.6544 23.8028C21.2318 22.505 20.7231 21.7243 20.3128 21.3839L20.3128 18.7499C21.977 19.399 23.9103 19.3139 25.5777 18.3512C26.56 17.7841 27.3247 16.9847 27.8425 16.0625H34.1816V26.2617C34.1816 28.9393 32.4278 31.2072 30.0062 31.9793C30.019 31.7648 30.0254 31.5487 30.0254 31.3305C30.0254 30.3581 29.8985 29.428 29.6449 28.4979L24.2756 28.4979C24.3602 29.428 24.4025 30.4004 24.4025 31.3305C24.4025 31.6373 24.3979 31.9487 24.3887 32.2617H22.5921C22.6607 31.0236 22.5923 29.7797 22.3868 28.5529L22.3777 28.4985H17.3888C17.2406 29.7481 17.1908 31.0063 17.2394 32.2617H15.3955C15.3863 31.9487 15.3817 31.6373 15.3817 31.3305C15.3817 30.4004 15.424 29.428 15.5085 28.4979H10.1393C9.88562 29.428 9.75879 30.3581 9.75879 31.3305C9.75879 31.5518 9.76536 31.7709 9.7785 31.9884C7.34203 31.2251 5.57422 28.9499 5.57422 26.2617V16.0625H12.0038C12.5215 16.9823 13.2851 17.7796 14.2654 18.3456ZM20.1808 16.0625C20.0815 16.2803 19.9951 16.5034 19.9221 16.7308C19.8489 16.5034 19.7624 16.2802 19.6629 16.0625H20.1808ZM17.2152 21.5199C14.3827 22.2809 12.0574 24.2256 10.7891 26.8045L15.6933 26.8045C15.9892 24.7329 16.4965 22.8727 17.2152 21.5199ZM22.5417 21.5199C25.3743 22.2809 27.6995 24.2256 28.9678 26.8045H24.1059C23.7677 24.7329 23.2604 22.8305 22.5417 21.5199Z" fill="url(#paint3_linear_18362_34739)"/>
<defs>
<linearGradient id="paint0_linear_18362_34739" x1="25.4021" y1="5.55469" x2="25.4021" y2="10.6005" gradientUnits="userSpaceOnUse">
<stop stop-color="#B59A5B"/>
<stop offset="0.2339" stop-color="#B39759"/>
<stop offset="0.4867" stop-color="#A4834C"/>
<stop offset="0.7688" stop-color="#987342"/>
<stop offset="0.9934" stop-color="#946E3F"/>
</linearGradient>
<linearGradient id="paint1_linear_18362_34739" x1="5.58594" y1="11.4617" x2="34.1875" y2="11.4617" gradientUnits="userSpaceOnUse">
<stop stop-color="#B59A5B"/>
<stop offset="0.2339" stop-color="#B39759"/>
<stop offset="0.4867" stop-color="#A4834C"/>
<stop offset="0.7688" stop-color="#987342"/>
<stop offset="0.9934" stop-color="#946E3F"/>
</linearGradient>
<linearGradient id="paint2_linear_18362_34739" x1="14.3787" y1="5.55469" x2="14.3787" y2="10.6005" gradientUnits="userSpaceOnUse">
<stop stop-color="#B59A5B"/>
<stop offset="0.2339" stop-color="#B39759"/>
<stop offset="0.4867" stop-color="#A4834C"/>
<stop offset="0.7688" stop-color="#987342"/>
<stop offset="0.9934" stop-color="#946E3F"/>
</linearGradient>
<linearGradient id="paint3_linear_18362_34739" x1="5.57422" y1="24.1639" x2="34.1757" y2="24.1639" gradientUnits="userSpaceOnUse">
<stop stop-color="#B59A5B"/>
<stop offset="0.2339" stop-color="#B39759"/>
<stop offset="0.4867" stop-color="#A4834C"/>
<stop offset="0.7688" stop-color="#987342"/>
<stop offset="0.9934" stop-color="#946E3F"/>
</linearGradient>
</defs>
</svg>
