<svg width="24" height="24" viewBox="0 0 24 24" fill="none" xmlns="http://www.w3.org/2000/svg">
<path d="M18.66 4.35C17.76 3.96 16.59 3.75 15.36 3.75C12.84 3.75 10.53 4.68 10.53 6.18C10.53 6.54 10.53 9.45 10.53 9.81C10.05 9.66 9.57 9.6 9.06 9.6C7.65 9.6 6.3 10.17 5.31 11.19C4.32 12.21 3.75 13.53 3.75 14.97C3.75 17.91 6.15 20.28 9.06 20.28C10.05 20.28 10.98 20.01 11.79 19.53C12.69 20.01 13.98 20.28 15.36 20.28C16.59 20.28 17.76 20.07 18.66 19.68C19.68 19.23 20.25 18.6 20.25 17.88C20.25 17.58 20.25 6.51 20.25 6.21C20.25 5.46 19.68 4.8 18.66 4.35ZM11.88 15.81L9.42 18.27C9.33 18.36 9.21 18.42 9.09 18.42C8.97 18.42 8.85 18.36 8.76 18.27L6.3 15.81C6.12 15.63 6.12 15.33 6.3 15.15C6.48 14.97 6.78 14.97 6.96 15.15L8.64 16.83V11.88C8.64 11.61 8.85 11.43 9.09 11.43C9.36 11.43 9.54 11.64 9.54 11.88V16.83L11.22 15.15C11.4 14.97 11.7 14.97 11.88 15.15C12.06 15.33 12.06 15.63 11.88 15.81ZM19.29 17.82C19.29 18.42 17.76 19.26 15.39 19.26C14.37 19.26 13.41 19.11 12.69 18.81C12.75 18.75 12.78 18.72 12.84 18.66C13.29 18.24 13.62 17.73 13.89 17.22C14.37 17.28 14.88 17.34 15.39 17.34C16.65 17.34 18.24 17.1 19.29 16.41V17.82ZM19.29 14.94C19.29 15.54 17.76 16.38 15.39 16.38C15 16.38 14.61 16.35 14.25 16.32C14.37 15.87 14.43 15.42 14.43 14.94C14.43 14.76 14.43 14.55 14.4 14.37C14.73 14.4 15.06 14.43 15.39 14.43C16.65 14.43 18.24 14.19 19.29 13.5V14.94ZM19.29 12C19.29 12.6 17.76 13.44 15.39 13.44C14.97 13.44 14.58 13.41 14.19 13.35C13.95 12.54 13.5 11.79 12.87 11.16C13.62 11.37 14.49 11.49 15.39 11.49C16.65 11.49 18.24 11.25 19.29 10.56V12ZM19.29 9.09C19.29 9.69 17.76 10.53 15.39 10.53C14.28 10.53 13.26 10.35 12.51 10.02C11.91 9.75 11.52 9.39 11.52 9.09V7.65C12.57 8.34 14.13 8.58 15.39 8.58C16.65 8.58 18.24 8.34 19.29 7.65V9.09ZM15.39 7.62C13.02 7.62 11.52 6.78 11.52 6.18C11.52 5.58 13.02 4.74 15.39 4.74C17.76 4.74 19.29 5.61 19.29 6.18C19.29 6.75 17.76 7.62 15.39 7.62Z" fill="#B9964B"/>
</svg>
