<svg width="20" height="20" viewBox="0 0 20 20" fill="none" xmlns="http://www.w3.org/2000/svg">
<path d="M15.75 3.425H12.75V2.875C12.725 1.975 12 1.25 11.1 1.25H8.925C8.025 1.25 7.275 1.975 7.275 2.9V3.45H4.25C3.5 3.45 2.875 4.075 2.875 4.825V6.75C2.875 7.05 3.125 7.3 3.425 7.3H3.725L4.2 17.225C4.25 18.1 4.95 18.8 5.85 18.8H14.15C15.025 18.8 15.75 18.125 15.8 17.225L16.275 7.3H16.575C16.875 7.3 17.125 7.05 17.125 6.75V4.825C17.1 4.05 16.5 3.425 15.75 3.425ZM8.35 2.9C8.35 2.6 8.6 2.35 8.9 2.35H11.075C11.375 2.35 11.625 2.6 11.625 2.9V3.45H8.35V2.9ZM3.975 4.8C3.975 4.65 4.1 4.525 4.25 4.525H15.75C15.9 4.525 16.025 4.65 16.025 4.8V6.175C15.85 6.175 4.7 6.175 4 6.175V4.8H3.975ZM14.7 17.125C14.675 17.425 14.45 17.65 14.15 17.65H5.85C5.55 17.65 5.325 17.425 5.3 17.125L4.825 7.25H15.15L14.7 17.125Z" fill="white"/>
<path d="M9.99995 16.55C10.3 16.55 10.55 16.3 10.55 16V8.90001C10.55 8.60001 10.3 8.35001 9.99995 8.35001C9.69995 8.35001 9.44995 8.60001 9.44995 8.90001V16C9.44995 16.325 9.69995 16.55 9.99995 16.55Z" fill="white"/>
<path d="M12.725 16.55C13.025 16.55 13.275 16.3 13.275 16V8.90001C13.275 8.60001 13.025 8.35001 12.725 8.35001C12.425 8.35001 12.175 8.60001 12.175 8.90001V16C12.175 16.325 12.425 16.55 12.725 16.55Z" fill="white"/>
<path d="M7.2751 16.55C7.5751 16.55 7.8251 16.3 7.8251 16V8.90001C7.8251 8.60001 7.5751 8.35001 7.2751 8.35001C6.9751 8.35001 6.7251 8.60001 6.7251 8.90001V16C6.7251 16.325 6.9751 16.55 7.2751 16.55Z" fill="white"/>
</svg>
