<svg width="80" height="80" viewBox="0 0 80 80" fill="none" xmlns="http://www.w3.org/2000/svg">
<path d="M67.7 34L66.4 32.5999L61.8 20.2C61 18.1 59 16.7 56.8 16.7H24C21.8 16.7 19.8 18.1 19 20.2L14.5 32.4L12.6 34.0999C11 35.4999 10 37.5 10 39.7V57.7C10 60.6 12.4 63 15.4 63H18.8C21.7 63 24.1 60.6 24.2 57.7V55.0999H56V57.7C56 60.6 58.4 63 61.4 63H64.8C67.7 63 70.1 60.6 70.2 57.7V39.4C70 37.4 69.2 35.4 67.7 34ZM21.4 21.2C21.8 20.1 22.8 19.4 24 19.4H56.8C58 19.4 59 20.1 59.4 21.2L63.4 32H60.4C59.7 27.2 55.2 23.9 50.4 24.6C46.6 25.2 43.6 28.2 43 32H17.4L21.4 21.2ZM57.8 31.9H45.6C46.3 28.4999 49.6 26.4 53 27.1C55.4 27.6 57.3 29.4999 57.8 31.9ZM21.5 57.9C21.5 59.4 20.2 60.7 18.7 60.7H15.3C13.8 60.7 12.5 59.5 12.5 57.9V54.5C13.3 55 14.3 55.2 15.3 55.2H21.5V57.9ZM67.4 57.9C67.4 59.4 66.1 60.7 64.6 60.7H61.2C59.7 60.7 58.4 59.5 58.4 57.9V55.2999H64.6C65.6 55.2999 66.6 55.0999 67.4 54.5999V57.9ZM64.6 52.7H15.4C13.9 52.7 12.6 51.5 12.6 50V39.7999C12.6 38.3999 13.2 36.9999 14.3 36.0999C14.3 36.0999 14.3 36.1 14.4 36L16.1 34.4H64.7L65.9 35.7C65.9 35.7 66 35.6999 66 35.7999C67 36.6999 67.5 37.9999 67.5 39.2999V49.9C67.4 51.5 66.2 52.7 64.6 52.7Z" fill="#02509F"/>
<path d="M21.5 37.4999C18.1 37.4999 15.3 40.2999 15.3 43.6999C15.3 47.0999 18.1 49.8999 21.5 49.8999C24.9 49.8999 27.7001 47.0999 27.7001 43.6999C27.7001 40.2999 24.9 37.4999 21.5 37.4999ZM21.5 47.3999C19.5 47.3999 17.8 45.6999 17.8 43.6999C17.8 41.6999 19.5 39.9999 21.5 39.9999C23.5 39.9999 25.2 41.6999 25.2 43.6999C25.2 45.6999 23.6 47.3999 21.5 47.3999Z" fill="#02509F"/>
<path d="M58.5 37.4999C55.1 37.4999 52.3 40.2999 52.3 43.6999C52.3 47.0999 55.1 49.8999 58.5 49.8999C61.9 49.8999 64.7 47.0999 64.7 43.6999C64.6 40.2999 61.9 37.4999 58.5 37.4999ZM58.5 47.3999C56.5 47.3999 54.8 45.6999 54.8 43.6999C54.8 41.6999 56.5 39.9999 58.5 39.9999C60.5 39.9999 62.2001 41.6999 62.2001 43.6999C62.2001 45.6999 60.5 47.3999 58.5 47.3999Z" fill="#02509F"/>
<path d="M48.5999 44.9H31.4C30.7 44.9 30.2 45.5 30.2 46.1C30.2 46.8 30.8 47.3 31.4 47.3H48.5999C49.2999 47.3 49.7999 46.7 49.7999 46.1C49.7999 45.5 49.2999 44.9 48.5999 44.9Z" fill="#02509F"/>
<path d="M48.5999 39.9999H31.4C30.7 39.9999 30.2 40.5999 30.2 41.1999C30.2 41.8999 30.8 42.3999 31.4 42.3999H48.5999C49.2999 42.3999 49.7999 41.7999 49.7999 41.1999C49.7999 40.5999 49.2999 39.9999 48.5999 39.9999Z" fill="#02509F"/>
</svg>
