<svg width="128" height="128" viewBox="0 0 128 128" fill="none" xmlns="http://www.w3.org/2000/svg">
<path fill-rule="evenodd" clip-rule="evenodd" d="M29 21.5146H65C68.3137 21.5146 71 24.2009 71 27.5146V75.2605C72.2733 74.524 73.6101 73.8848 75 73.3532V27.5146C75 21.9918 70.5229 17.5146 65 17.5146H29C23.4772 17.5146 19 21.9918 19 27.5146V95.5146C19 101.037 23.4772 105.515 29 105.515H57.6444C57.3601 104.213 57.1665 102.877 57.0703 101.515H29C25.6863 101.515 23 98.8284 23 95.5146V27.5146C23 24.2009 25.6863 21.5146 29 21.5146Z" fill="#988B68"/>
<rect x="39" y="23.5146" width="16" height="4" rx="2" fill="#988B68"/>
<rect x="31" y="79.5146" width="8" height="2.4" rx="1.2" fill="#E3D5B7"/>
<rect x="43" y="79.5146" width="8" height="2.4" rx="1.2" fill="#E3D5B7"/>
<rect x="55" y="79.5146" width="8" height="2.4" rx="1.2" fill="#E3D5B7"/>
<path fill-rule="evenodd" clip-rule="evenodd" d="M54.4049 52.815V47.9447C54.4049 43.885 51.0922 40.6048 47.065 40.6048H46.9675C42.9078 40.6048 39.6276 43.9175 39.6276 47.9447V52.8163C39.6705 52.7817 39.7136 52.7473 39.757 52.7131C39.7135 52.7577 39.6703 52.8028 39.6275 52.8483C37.7763 54.6995 36.6396 57.2328 36.6396 60.0583C36.6396 65.7744 41.2839 70.4187 46.9999 70.4187C52.716 70.4187 57.3603 65.7744 57.3603 60.0583C57.3603 57.2652 56.2235 54.6995 54.4373 52.8483C54.4265 52.8372 54.4157 52.8261 54.4049 52.815ZM43.2976 50.3999C44.4577 49.953 45.7132 49.698 47.0324 49.698C48.364 49.698 49.6306 49.9578 50.7998 50.4125C50.7998 50.4125 50.7998 50.4125 50.7999 50.4125V47.9447C50.7999 45.8986 49.1435 44.2422 47.0974 44.2422H47C44.9539 44.2422 43.2976 45.8986 43.2976 47.9447V50.3999ZM46.935 55.3816C45.5384 55.414 44.3692 56.5832 44.3368 57.9798C44.3368 58.1421 44.3368 58.3045 44.3692 58.4994C44.4991 59.2464 44.9538 59.8959 45.5709 60.2857C45.8307 60.448 45.9606 60.7728 45.8957 61.0651L45.1162 64.8325C45.0837 65.0599 45.2461 65.2872 45.4735 65.2872H48.5264C48.7537 65.2872 48.9161 65.0599 48.8836 64.8325L48.1042 61.0651C48.0392 60.7403 48.1691 60.448 48.4289 60.2857C49.046 59.8959 49.5007 59.2464 49.6306 58.4994C49.6631 58.3695 49.6631 58.2071 49.6631 58.0447V58.0447C49.6631 56.5507 48.4289 55.3491 46.935 55.3816Z" fill="#E3D5B7"/>
<path fill-rule="evenodd" clip-rule="evenodd" d="M105.269 112.743C105.272 112.749 105.273 112.756 105.273 112.763C105.258 112.767 105.241 112.767 105.226 112.763C102.415 117.063 98.3116 120.332 93.5231 122.086C88.7347 123.839 83.5161 123.983 78.6406 122.496C73.765 121.009 69.492 117.971 66.4546 113.832C63.4171 109.693 61.7769 104.672 61.7769 99.5147C61.7769 94.357 63.4171 89.3366 66.4546 85.1972C69.492 81.0579 73.765 78.0198 78.6406 76.5332C83.5161 75.0466 88.7347 75.1905 93.5231 76.9437C98.3116 78.6969 102.415 81.966 105.226 86.2666C105.226 86.2794 105.221 86.2916 105.212 86.3006C105.203 86.3096 105.191 86.3146 105.178 86.3146C102.526 83.2413 99.0121 81.0606 95.1045 80.0639C91.1969 79.0671 87.0821 79.3017 83.3096 80.7364C79.5372 82.171 76.2866 84.7374 73.992 88.0928C71.6974 91.4482 70.468 95.4328 70.468 99.5147C70.468 103.596 71.6974 107.581 73.992 110.937C76.2866 114.292 79.5372 116.858 83.3096 118.293C87.0821 119.728 91.1969 119.962 95.1045 118.965C99.0121 117.969 102.526 115.788 105.178 112.715C105.185 112.712 105.192 112.71 105.199 112.71C105.206 112.71 105.213 112.712 105.22 112.715C105.226 112.714 105.233 112.714 105.24 112.716C105.244 112.718 105.248 112.72 105.251 112.722C105.253 112.723 105.255 112.725 105.257 112.726C105.262 112.731 105.266 112.737 105.269 112.743ZM105.219 110.873C103.04 112.919 100.319 114.277 97.3903 114.78C94.4611 115.283 91.4507 114.91 88.7278 113.706C86.005 112.502 83.688 110.519 82.0608 108.001C80.4336 105.483 79.5669 102.539 79.5669 99.5296C79.5669 96.5201 80.4336 93.576 82.0608 91.058C83.688 88.54 86.005 86.5575 88.7278 85.3535C91.4507 84.1494 94.4611 83.7762 97.3903 84.2794C100.319 84.7826 103.04 86.1405 105.219 88.1866C105.224 88.1893 105.23 88.1907 105.236 88.1907C105.243 88.1907 105.249 88.1893 105.254 88.1866C105.267 88.1866 105.279 88.1816 105.288 88.1726C105.297 88.1636 105.302 88.1514 105.302 88.1386C105.304 88.1268 105.304 88.1145 105.302 88.1026C102.968 85.1412 99.7844 82.9875 96.1899 81.9396C92.5954 80.8916 88.7682 81.0013 85.2379 82.2533C81.7076 83.5053 78.6487 85.8379 76.4845 88.9282C74.3203 92.0184 73.1578 95.7137 73.1578 99.5026C73.1578 103.292 74.3203 106.987 76.4845 110.077C78.6487 113.167 81.7076 115.5 85.2379 116.752C88.7682 118.004 92.5954 118.114 96.1899 117.066C99.7844 116.018 102.968 113.864 105.302 110.903C105.299 110.894 105.295 110.886 105.289 110.88C105.284 110.873 105.276 110.868 105.268 110.865C105.26 110.862 105.251 110.862 105.242 110.863C105.234 110.864 105.226 110.867 105.219 110.873ZM99.2092 111.424C101.369 111.261 103.443 110.497 105.202 109.216C105.208 109.2 105.219 109.187 105.234 109.18C105.249 109.173 105.267 109.172 105.282 109.177C105.298 109.183 105.311 109.195 105.318 109.21C105.325 109.225 105.326 109.242 105.321 109.258C105.322 109.261 105.323 109.264 105.323 109.266C105.324 109.271 105.325 109.275 105.325 109.279C105.325 109.287 105.324 109.294 105.321 109.3C103.412 111.259 100.971 112.599 98.3087 113.148C95.6463 113.698 92.8826 113.434 90.369 112.389C87.8553 111.344 85.7052 109.565 84.192 107.279C82.6788 104.993 81.8708 102.303 81.8708 99.5503C81.8708 96.7979 82.6788 94.1077 84.192 91.8216C85.7052 89.5355 87.8553 87.7569 90.369 86.7117C92.8826 85.6666 95.6463 85.4022 98.3087 85.9522C100.971 86.5022 103.412 87.8416 105.321 89.8003C105.325 89.812 105.325 89.8247 105.321 89.8363C105.321 89.8507 105.315 89.8644 105.305 89.8745C105.295 89.8846 105.282 89.8903 105.268 89.8903H105.238C103.484 88.603 101.413 87.8314 99.2529 87.6605C97.0933 87.4896 94.929 87.9261 92.9987 88.9218C91.0684 89.9176 89.447 91.4339 88.3132 93.3036C87.1795 95.1733 86.5774 97.3239 86.5733 99.5182C86.5693 101.712 87.1635 103.865 88.2904 105.739C89.4172 107.613 91.0331 109.136 92.9597 110.139C94.8864 111.142 97.049 111.586 99.2092 111.424ZM100.52 102.513C101.218 102.04 101.725 101.33 101.949 100.511H108.198C107.934 103.007 106.734 105.306 104.847 106.934C102.959 108.561 100.527 109.394 98.0518 109.26C95.5764 109.125 93.2461 108.035 91.5408 106.212C89.8355 104.39 88.8849 101.975 88.8849 99.4636C88.8849 96.9526 89.8355 94.5372 91.5408 92.7148C93.2461 90.8924 95.5764 89.8018 98.0518 89.6676C100.527 89.5334 102.959 90.3658 104.847 91.9935C106.734 93.6211 107.934 95.9199 108.198 98.4166H101.89C101.62 97.6116 101.073 96.9317 100.35 96.5002C99.6268 96.0687 98.7747 95.9143 97.9486 96.0651C97.1226 96.2159 96.3773 96.6619 95.8483 97.322C95.3192 97.9822 95.0415 98.8126 95.0655 99.6625C95.0895 100.512 95.4138 101.325 95.9793 101.954C96.5448 102.582 97.314 102.984 98.1473 103.087C98.9805 103.189 99.8225 102.986 100.52 102.513Z" fill="#B9964B"/>
<path d="M63.6958 4L63.6958 10.741" stroke="#E3D5B7" stroke-width="3.46784"/>
<path d="M90.5002 25.9055L84.1055 25.9055" stroke="#E3D5B7" stroke-width="3.46784"/>
<path d="M75.7838 16.0512L82.3922 8.63241" stroke="#E3D5B7" stroke-width="3.46784"/>
</svg>
