<svg width="33" height="32" viewBox="0 0 33 32" fill="none" xmlns="http://www.w3.org/2000/svg">
<circle cx="16.6243" cy="13.1017" r="8.07678" stroke="#00AB1B" stroke-width="1.5" stroke-linecap="round" stroke-linejoin="round"/>
<path d="M15.5257 10.5987L15.5257 10.5986C15.8273 10.3724 16.2755 10.2122 16.7988 10.2122C17.65 10.2122 18.2417 10.6206 18.4241 11.0099L18.4242 11.0101C18.4623 11.091 18.516 11.1636 18.5822 11.2237C18.6483 11.2839 18.7257 11.3304 18.8098 11.3606C18.894 11.3909 18.9833 11.4042 19.0726 11.4C19.1619 11.3957 19.2495 11.3739 19.3304 11.3358C19.4113 11.2977 19.4839 11.244 19.544 11.1778C19.6042 11.1116 19.6507 11.0343 19.6809 10.9501C19.7112 10.866 19.7245 10.7767 19.7203 10.6874C19.716 10.5981 19.6942 10.5105 19.6561 10.4296L19.6561 10.4295C19.2402 9.54767 18.2744 8.98914 17.2118 8.87336V8.52023C17.2118 8.34424 17.1391 8.17627 17.0111 8.05304C16.8832 7.92994 16.7105 7.86143 16.5312 7.86143C16.3519 7.86143 16.1792 7.92994 16.0512 8.05304C15.9232 8.17627 15.8505 8.34424 15.8505 8.52023V8.97018C15.4255 9.08032 15.036 9.26391 14.7089 9.50902L14.7089 9.50906C14.1502 9.9284 13.7399 10.5595 13.7399 11.3147C13.7399 12.0694 14.1502 12.7005 14.7089 13.1198C15.2678 13.5393 16.0088 13.7785 16.7983 13.7785C16.8359 13.7785 16.8732 13.7754 16.9099 13.7693C17.2362 13.8291 17.5158 13.9496 17.7244 14.1005L17.7246 14.1006C18.026 14.3176 18.1476 14.5673 18.1476 14.7861C18.1476 15.0044 18.026 15.2535 17.7251 15.4706L17.7251 15.4706C17.4234 15.6884 16.9752 15.8429 16.451 15.8429C15.598 15.8429 15.0066 15.4488 14.8239 15.0753L14.8239 15.0752C14.7462 14.9167 14.607 14.7955 14.4378 14.7371C14.2687 14.6786 14.0826 14.6872 13.9199 14.761C13.7571 14.8349 13.6303 14.9685 13.5687 15.1337C13.507 15.299 13.5162 15.4812 13.5939 15.6398C14.006 16.4825 14.958 17.0172 16.0073 17.1356V17.6603C16.0073 17.8408 16.079 18.014 16.2066 18.1416C16.3343 18.2692 16.5074 18.341 16.6879 18.341C16.8684 18.341 17.0416 18.2692 17.1692 18.1416C17.2969 18.014 17.3686 17.8408 17.3686 17.6603V17.0797C17.3686 17.0708 17.3684 17.0619 17.368 17.0531C17.8041 16.948 18.2036 16.7686 18.5383 16.5269C19.0975 16.124 19.5088 15.5149 19.5088 14.7856C19.5088 14.0562 19.0975 13.4477 18.5389 13.0443C18.1129 12.7366 17.5814 12.5298 17.0035 12.4489C16.9377 12.4281 16.8685 12.4172 16.7983 12.4172C16.275 12.4172 15.8274 12.257 15.5258 12.0308C15.2249 11.8048 15.1012 11.5446 15.1012 11.3141C15.1012 11.0842 15.2248 10.8241 15.5257 10.5987Z" fill="#00AB1B" stroke="#00AB1B" stroke-width="0.2"/>
<path d="M16.625 21.6504V26.9755H23.625C25.8341 26.9755 27.625 25.1846 27.625 22.9755V17.3555H23.7539" stroke="#00AB1B" stroke-width="1.5" stroke-linecap="round" stroke-linejoin="round"/>
<path d="M9.63143 17.3555H5.62495V22.9755C5.62495 25.1846 7.41582 26.9755 9.62495 26.9755H16.625V22.1655" stroke="#00AB1B" stroke-width="1.5" stroke-linecap="round" stroke-linejoin="round"/>
<path d="M16.6249 26.6157L16.6249 22.0344" stroke="#00AB1B" stroke-width="1.5" stroke-linecap="round" stroke-linejoin="round"/>
</svg>
