<svg width="32" height="32" viewBox="0 0 32 32" fill="none" xmlns="http://www.w3.org/2000/svg">
<path d="M12.0825 21.0768L8.86629 24.2929C8.47578 24.6835 7.84264 24.6835 7.45211 24.293L4.05245 20.8936C3.6619 20.5031 3.66189 19.8699 4.05244 19.4793L10.3054 13.2267C10.6959 12.8362 11.329 12.8362 11.7196 13.2267L13.0244 14.5316C13.415 14.9222 14.0481 14.9222 14.4387 14.5316L16.4195 12.5508C16.8101 12.1602 16.81 11.5271 16.4195 11.1365L14.2796 8.99675C13.6659 8.38312 14.0716 7.33265 14.9384 7.29079L25.8578 6.76342C26.4624 6.73422 26.9541 7.24454 26.9024 7.84759L25.9993 18.3914C25.9268 19.2386 24.8971 19.6144 24.2958 19.0131L22.7139 17.431C22.3256 17.0426 21.6968 17.0401 21.3054 17.4252L16.2359 22.4132C15.8445 22.7984 15.2157 22.7958 14.8274 22.4075L13.4967 21.0768C13.1062 20.6862 12.473 20.6862 12.0825 21.0768Z" stroke="#F69234" stroke-width="1.5" stroke-linecap="round" stroke-linejoin="round"/>
</svg>
