<svg width="39" height="38" viewBox="0 0 39 38" fill="none" xmlns="http://www.w3.org/2000/svg">
<path fill-rule="evenodd" clip-rule="evenodd" d="M25.2656 5.55469C25.8179 5.55469 26.2656 6.0024 26.2656 6.55469L26.2656 9.60156C26.2656 10.1538 25.8179 10.6016 25.2656 10.6016C24.7133 10.6016 24.2656 10.1538 24.2656 9.60156L24.2656 6.55469C24.2656 6.0024 24.7133 5.55469 25.2656 5.55469Z" fill="#36405C"/>
<path fill-rule="evenodd" clip-rule="evenodd" d="M12.2412 9.69141V7.75391H11.4492C8.13551 7.75391 5.44922 10.4402 5.44922 13.7539V15.168H11.4529C11.2269 14.5514 11.1007 13.9002 11.0814 13.2409C12.8813 12.2685 15.1287 12.225 17.0303 13.3229C17.8514 13.797 18.5205 14.4333 19.0204 15.168H20.545C21.0452 14.4316 21.7152 13.7938 22.5378 13.3189C24.4387 12.2214 26.6851 12.2644 28.4846 13.2357C28.4664 13.8967 28.3408 14.5497 28.1149 15.168H34.0566V13.7539C34.0566 10.4402 31.3703 7.75391 28.0566 7.75391H27.2646V9.69141C27.2646 10.796 26.3692 11.6914 25.2646 11.6914C24.1601 11.6914 23.2646 10.796 23.2646 9.69141V7.75391H16.2412V9.69141C16.2412 10.796 15.3458 11.6914 14.2412 11.6914C13.1366 11.6914 12.2412 10.796 12.2412 9.69141Z" fill="#36405C"/>
<path fill-rule="evenodd" clip-rule="evenodd" d="M14.2422 5.55469C14.7945 5.55469 15.2422 6.0024 15.2422 6.55469L15.2422 9.60156C15.2422 10.1538 14.7945 10.6016 14.2422 10.6016C13.6899 10.6016 13.2422 10.1538 13.2422 9.60156L13.2422 6.55469C13.2422 6.0024 13.6899 5.55469 14.2422 5.55469Z" fill="#36405C"/>
<path fill-rule="evenodd" clip-rule="evenodd" d="M19.7788 18.5786L19.7632 18.5859H19.7943L19.7788 18.5786ZM14.1287 18.3456C15.7603 19.2876 17.6464 19.3893 19.286 18.7851V21.3867C18.8733 21.7287 18.3877 22.5086 17.9663 23.8028C17.6704 24.6907 17.459 25.7053 17.2476 26.8045H22.2364C22.0672 25.7053 21.8136 24.6907 21.5176 23.8028C21.0951 22.505 20.5864 21.7243 20.176 21.3839L20.176 18.7499C21.8403 19.399 23.7736 19.3139 25.4409 18.3512C26.4233 17.7841 27.188 16.9847 27.7057 16.0625H34.0449V26.2617C34.0449 28.9393 32.291 31.2072 29.8695 31.9793C29.8822 31.7648 29.8886 31.5487 29.8886 31.3305C29.8886 30.3581 29.7618 29.428 29.5081 28.4979L24.1389 28.4979C24.2235 29.428 24.2657 30.4004 24.2657 31.3305C24.2657 31.6373 24.2611 31.9487 24.2519 32.2617H22.4554C22.524 31.0236 22.4556 29.7797 22.2501 28.5529L22.241 28.4985H17.252C17.1038 29.7481 17.0541 31.0063 17.1027 32.2617H15.2588C15.2496 31.9487 15.245 31.6373 15.245 31.3305C15.245 30.4004 15.2872 29.428 15.3718 28.4979H10.0026C9.7489 29.428 9.62207 30.3581 9.62207 31.3305C9.62207 31.5518 9.62864 31.7709 9.64178 31.9884C7.20531 31.2251 5.4375 28.9499 5.4375 26.2617V16.0625H11.8671C12.3848 16.9823 13.1483 17.7796 14.1287 18.3456ZM20.0441 16.0625C19.9447 16.2803 19.8584 16.5034 19.7854 16.7308C19.7122 16.5034 19.6256 16.2802 19.5261 16.0625H20.0441ZM17.0785 21.5199C14.2459 22.2809 11.9207 24.2256 10.6524 26.8045L15.5565 26.8045C15.8525 24.7329 16.3598 22.8727 17.0785 21.5199ZM22.405 21.5199C25.2375 22.2809 27.5628 24.2256 28.8311 26.8045H23.9692C23.631 24.7329 23.1237 22.8305 22.405 21.5199Z" fill="#36405C"/>
</svg>
