<svg width="38" height="38" viewBox="0 0 38 38" fill="none" xmlns="http://www.w3.org/2000/svg">
<path fill-rule="evenodd" clip-rule="evenodd" d="M24.5117 5.55469C25.064 5.55469 25.5117 6.0024 25.5117 6.55469L25.5117 9.60156C25.5117 10.1538 25.064 10.6016 24.5117 10.6016C23.9594 10.6016 23.5117 10.1538 23.5117 9.60156L23.5117 6.55469C23.5117 6.0024 23.9594 5.55469 24.5117 5.55469Z" fill="url(#paint0_linear_18362_34602)"/>
<path fill-rule="evenodd" clip-rule="evenodd" d="M11.4873 9.69141V7.75391H10.6953C7.3816 7.75391 4.69531 10.4402 4.69531 13.7539V15.168H10.6989C10.473 14.5514 10.3468 13.9002 10.3275 13.2409C12.1274 12.2685 14.3748 12.225 16.2764 13.3229C17.0975 13.797 17.7666 14.4333 18.2664 15.168H19.7911C20.2913 14.4316 20.9613 13.7938 21.7839 13.3189C23.6848 12.2214 25.9312 12.2644 27.7307 13.2357C27.7125 13.8967 27.5869 14.5497 27.361 15.168H33.3027V13.7539C33.3027 10.4402 30.6164 7.75391 27.3027 7.75391H26.5107V9.69141C26.5107 10.796 25.6153 11.6914 24.5107 11.6914C23.4062 11.6914 22.5107 10.796 22.5107 9.69141V7.75391H15.4873V9.69141C15.4873 10.796 14.5919 11.6914 13.4873 11.6914C12.3827 11.6914 11.4873 10.796 11.4873 9.69141Z" fill="url(#paint1_linear_18362_34602)"/>
<path fill-rule="evenodd" clip-rule="evenodd" d="M13.4883 5.55469C14.0406 5.55469 14.4883 6.0024 14.4883 6.55469L14.4883 9.60156C14.4883 10.1538 14.0406 10.6016 13.4883 10.6016C12.936 10.6016 12.4883 10.1538 12.4883 9.60156L12.4883 6.55469C12.4883 6.0024 12.936 5.55469 13.4883 5.55469Z" fill="url(#paint2_linear_18362_34602)"/>
<path fill-rule="evenodd" clip-rule="evenodd" d="M19.0249 18.5786L19.0093 18.5859H19.0404L19.0249 18.5786ZM13.3748 18.3456C15.0064 19.2876 16.8925 19.3893 18.5321 18.7851V21.3867C18.1194 21.7287 17.6338 22.5086 17.2124 23.8028C16.9165 24.6907 16.7051 25.7053 16.4937 26.8045H21.4824C21.3133 25.7053 21.0597 24.6907 20.7637 23.8028C20.3412 22.505 19.8325 21.7243 19.4221 21.3839L19.4221 18.7499C21.0864 19.399 23.0196 19.3139 24.687 18.3512C25.6694 17.7841 26.4341 16.9847 26.9518 16.0625H33.291V26.2617C33.291 28.9393 31.5371 31.2072 29.1156 31.9793C29.1283 31.7648 29.1347 31.5487 29.1347 31.3305C29.1347 30.3581 29.0079 29.428 28.7542 28.4979L23.385 28.4979C23.4696 29.428 23.5118 30.4004 23.5118 31.3305C23.5118 31.6373 23.5072 31.9487 23.498 32.2617H21.7015C21.7701 31.0236 21.7017 29.7797 21.4962 28.5529L21.487 28.4985H16.4981C16.3499 29.7481 16.3002 31.0063 16.3488 32.2617H14.5049C14.4957 31.9487 14.4911 31.6373 14.4911 31.3305C14.4911 30.4004 14.5333 29.428 14.6179 28.4979H9.24866C8.995 29.428 8.86816 30.3581 8.86816 31.3305C8.86816 31.5518 8.87474 31.7709 8.88788 31.9884C6.4514 31.2251 4.68359 28.9499 4.68359 26.2617V16.0625H11.1132C11.6309 16.9823 12.3944 17.7796 13.3748 18.3456ZM19.2902 16.0625C19.1908 16.2803 19.1045 16.5034 19.0315 16.7308C18.9583 16.5034 18.8717 16.2802 18.7722 16.0625H19.2902ZM16.3246 21.5199C13.492 22.2809 11.1668 24.2256 9.89845 26.8045L14.8026 26.8045C15.0986 24.7329 15.6059 22.8727 16.3246 21.5199ZM21.6511 21.5199C24.4836 22.2809 26.8089 24.2256 28.0772 26.8045H23.2153C22.8771 24.7329 22.3698 22.8305 21.6511 21.5199Z" fill="url(#paint3_linear_18362_34602)"/>
<defs>
<linearGradient id="paint0_linear_18362_34602" x1="24.5115" y1="5.55469" x2="24.5115" y2="10.6005" gradientUnits="userSpaceOnUse">
<stop stop-color="#70C6FC"/>
<stop offset="0.0627815" stop-color="#6CC2FB"/>
<stop offset="0.6801" stop-color="#439CF2"/>
<stop offset="1" stop-color="#348DEF"/>
</linearGradient>
<linearGradient id="paint1_linear_18362_34602" x1="4.69531" y1="11.4617" x2="33.2968" y2="11.4617" gradientUnits="userSpaceOnUse">
<stop stop-color="#70C6FC"/>
<stop offset="0.0627815" stop-color="#6CC2FB"/>
<stop offset="0.6801" stop-color="#439CF2"/>
<stop offset="1" stop-color="#348DEF"/>
</linearGradient>
<linearGradient id="paint2_linear_18362_34602" x1="13.4881" y1="5.55469" x2="13.4881" y2="10.6005" gradientUnits="userSpaceOnUse">
<stop stop-color="#70C6FC"/>
<stop offset="0.0627815" stop-color="#6CC2FB"/>
<stop offset="0.6801" stop-color="#439CF2"/>
<stop offset="1" stop-color="#348DEF"/>
</linearGradient>
<linearGradient id="paint3_linear_18362_34602" x1="4.68359" y1="24.1639" x2="33.2851" y2="24.1639" gradientUnits="userSpaceOnUse">
<stop stop-color="#70C6FC"/>
<stop offset="0.0627815" stop-color="#6CC2FB"/>
<stop offset="0.6801" stop-color="#439CF2"/>
<stop offset="1" stop-color="#348DEF"/>
</linearGradient>
</defs>
</svg>
