<svg width="32" height="32" viewBox="0 0 32 32" fill="none" xmlns="http://www.w3.org/2000/svg">
<path d="M7 9V26C7 26.5523 7.44772 27 8 27H13.4627H23C24.1046 27 25 26.1046 25 25V13.189V6C25 5.44772 24.5523 5 24 5H21.5H11C8.79086 5 7 6.79086 7 9Z" stroke="#FF337C" stroke-width="1.5" stroke-linecap="round" stroke-linejoin="round"/>
<path d="M18.2949 11.2041H19.8457V9.7041H18.2949V11.2041ZM18.0449 11.6221V11.4541H16.5449V11.6221H18.0449ZM16.2949 11.8721H14.7441V13.3721H16.2949V11.8721ZM12.9941 13.6221V13.9043H14.4941V13.6221H12.9941ZM12.7441 14.1543H11.1934V15.6543H12.7441V14.1543ZM9.44336 15.9043V19.1172H10.9434V15.9043H9.44336ZM11.1934 20.8672H13.7441V19.3672H11.1934V20.8672ZM13.7441 20.8672H17.2949V19.3672H13.7441V20.8672ZM19.8457 19.3672H17.2949V20.8672H19.8457V19.3672ZM20.0957 11.4541V19.1172H21.5957V11.4541H20.0957ZM19.8457 20.8672C20.8122 20.8672 21.5957 20.0837 21.5957 19.1172H20.0957C20.0957 19.2553 19.9838 19.3672 19.8457 19.3672V20.8672ZM9.44336 19.1172C9.44336 20.0837 10.2269 20.8672 11.1934 20.8672V19.3672C11.0553 19.3672 10.9434 19.2553 10.9434 19.1172H9.44336ZM11.1934 14.1543C10.2269 14.1543 9.44336 14.9378 9.44336 15.9043H10.9434C10.9434 15.7662 11.0553 15.6543 11.1934 15.6543V14.1543ZM12.9941 13.9043C12.9941 14.0424 12.8822 14.1543 12.7441 14.1543V15.6543C13.7106 15.6543 14.4941 14.8708 14.4941 13.9043H12.9941ZM14.7441 11.8721C13.7776 11.8721 12.9941 12.6556 12.9941 13.6221H14.4941C14.4941 13.484 14.6061 13.3721 14.7441 13.3721V11.8721ZM16.5449 11.6221C16.5449 11.7601 16.433 11.8721 16.2949 11.8721V13.3721C17.2614 13.3721 18.0449 12.5886 18.0449 11.6221H16.5449ZM19.8457 11.2041C19.9838 11.2041 20.0957 11.316 20.0957 11.4541H21.5957C21.5957 10.4876 20.8122 9.7041 19.8457 9.7041V11.2041ZM18.2949 9.7041C17.3284 9.7041 16.5449 10.4876 16.5449 11.4541H18.0449C18.0449 11.316 18.1569 11.2041 18.2949 11.2041V9.7041Z" fill="#FF337C"/>
<path d="M13.7266 14.2656L13.7266 20.1172" stroke="#FF337C" stroke-width="1.5" stroke-linecap="round" stroke-linejoin="round"/>
<path d="M17.3047 11.3486L17.1119 19.7656" stroke="#FF337C" stroke-width="1.5" stroke-linecap="round" stroke-linejoin="round"/>
</svg>
