<svg width="80" height="80" viewBox="0 0 80 80" fill="none" xmlns="http://www.w3.org/2000/svg">
<path d="M50.3996 29.1L53.3996 26.1C54.0996 25.4 54.0996 24.2 53.3996 23.5C52.6996 22.8 51.4996 22.8 50.7996 23.5L47.7996 26.5L35.4996 14.3C34.7996 13.6 33.5996 13.6 32.8996 14.3C27.2996 19.9 25.3996 28.6 28.0996 36.2C26.3996 37.8 25.2996 40.2 25.2996 42.7C25.2996 44.3 25.6996 45.8 26.4996 47.1L21.4996 59.4H17.8996C14.6996 59.4 12.0996 62 12.0996 65.2C12.0996 68.4 14.6996 71 17.8996 71H50.6996C53.8996 71 56.4996 68.4 56.4996 65.2C56.4996 62 53.8996 59.4 50.6996 59.4H47.0996L43.0996 49.3C44.5996 49.6 46.0996 49.8 47.6996 49.8C48.9996 49.8 50.2996 49.7 51.5996 49.4C55.7996 48.6 59.4996 46.7 62.4996 43.7C62.7996 43.4 62.9996 42.9 62.9996 42.4C62.9996 41.9 62.7996 41.5 62.4996 41.1L50.3996 29.1ZM34.2996 37.4C37.1996 37.4 39.5996 39.8 39.5996 42.7C39.5996 43.8 39.1996 44.9 38.5996 45.8C38.5996 45.8 38.5996 45.8 38.5996 45.9C37.5996 47.2 36.0996 48.1 34.2996 48.1C31.3996 48.1 28.9996 45.7 28.9996 42.8C28.9996 39.8 31.3996 37.4 34.2996 37.4ZM50.6996 63C51.8996 63 52.8996 64 52.8996 65.2C52.8996 66.4 51.8996 67.4 50.6996 67.4H17.8996C16.6996 67.4 15.6996 66.4 15.6996 65.2C15.6996 64 16.6996 63 17.8996 63H50.6996ZM43.1996 59.4H25.4996L29.2996 50.1C30.6996 51.1 32.4996 51.7 34.3996 51.7C36.2996 51.7 38.0996 51.1 39.5996 50.1L43.1996 59.4ZM50.8996 45.9C48.1996 46.4 45.3996 46.3 42.7996 45.5C43.0996 44.6 43.1996 43.7 43.1996 42.7C43.1996 37.8 39.1996 33.7 34.1996 33.7C33.1996 33.7 32.1996 33.9 31.1996 34.2C29.4996 28.7 30.5996 22.6 34.1996 18.2L58.3996 42.4C56.2996 44.1 53.6996 45.3 50.8996 45.9Z" fill="#A07A4B"/>
<path d="M52.4996 19.2C55.2996 19.2 57.5996 21.5 57.5996 24.3C57.5996 25.3 58.3996 26.1 59.3996 26.1C60.3996 26.1 61.1996 25.3 61.1996 24.3C61.1996 19.5 57.2996 15.5 52.3996 15.5C51.3996 15.5 50.5996 16.3 50.5996 17.3C50.6996 18.4 51.4996 19.2 52.4996 19.2Z" fill="#A07A4B"/>
<path d="M52.4996 9C51.4996 9 50.6996 9.8 50.6996 10.8C50.6996 11.8 51.4996 12.6 52.4996 12.6C58.9996 12.6 64.2996 17.9 64.2996 24.4C64.2996 25.4 65.0996 26.2 66.0996 26.2C67.0996 26.2 67.8996 25.4 67.8996 24.4C67.8996 15.9 60.9996 9 52.4996 9Z" fill="#A07A4B"/>
</svg>
