<svg width="20" height="20" viewBox="0 0 20 20" fill="none" xmlns="http://www.w3.org/2000/svg">
<circle cx="10" cy="10" r="10" fill="#D42911"/>
<path d="M6.11891 4.35077L7.09324 7.36235H10.2598L7.71327 9.2003L8.68761 12.2119L6.14105 10.3518L3.59449 12.2119L4.54668 9.2003L2.00012 7.34021H5.16671L6.11891 4.35077Z" fill="#F5CD00"/>
<path d="M13.9578 3L13.8914 3.95219L14.7993 4.3065L13.8692 4.55008L13.8028 5.52442L13.2935 4.70509L12.3413 4.94867L12.9613 4.19578L12.452 3.37645L13.3378 3.73075L13.9578 3Z" fill="#F5CD00"/>
<path d="M15.8401 6.0116L16.5044 6.69806L17.3681 6.25518L16.9252 7.1188L17.6116 7.80526L16.6595 7.65025L16.2166 8.51387L16.0616 7.53953L15.1094 7.38452L15.973 6.96379L15.8401 6.0116Z" fill="#F5CD00"/>
<path d="M16.4158 10.1968L16.7259 11.1268L17.7002 11.0825L16.9252 11.6804L17.2573 12.5883L16.4601 12.0347L15.6851 12.6326L15.973 11.7026L15.1758 11.149L16.128 11.1268L16.4158 10.1968Z" fill="#F5CD00"/>
<path d="M14.0022 13.3412L13.9579 14.3156L14.8658 14.6477L13.9357 14.9135L13.8914 15.8657L13.36 15.0685L12.4299 15.3342L13.0278 14.5813L12.4964 13.762L13.4043 14.0941L14.0022 13.3412Z" fill="#F5CD00"/>
</svg>
