<svg width="35" height="12" viewBox="0 0 35 12" fill="none" xmlns="http://www.w3.org/2000/svg">
<rect x="0.5" y="0.5" width="34" height="11" rx="5.5" fill="#83BD3F"/>
<rect x="0.5" y="0.5" width="34" height="11" rx="5.5" stroke="white"/>
<path d="M4.48047 8V7.24121H5.66699C5.88965 7.24121 6.05957 7.19434 6.17676 7.10059C6.2959 7.00488 6.35547 6.86816 6.35547 6.69043V6.68457C6.35547 6.56738 6.32812 6.46973 6.27344 6.3916C6.2207 6.31152 6.14258 6.25098 6.03906 6.20996C5.93555 6.16895 5.80957 6.14844 5.66113 6.14844H4.48047V5.49512H5.58496C5.78027 5.49512 5.93262 5.45312 6.04199 5.36914C6.15137 5.2832 6.20605 5.16602 6.20605 5.01758V5.01172C6.20605 4.86328 6.15527 4.74609 6.05371 4.66016C5.95215 4.57422 5.81055 4.53125 5.62891 4.53125H4.48047V3.77246H5.91309C6.19629 3.77246 6.4375 3.81445 6.63672 3.89844C6.83594 3.98242 6.98828 4.10352 7.09375 4.26172C7.20117 4.41797 7.25488 4.60547 7.25488 4.82422V4.83008C7.25488 4.98047 7.21973 5.12012 7.14941 5.24902C7.08105 5.37793 6.98828 5.48438 6.87109 5.56836C6.75391 5.65234 6.62012 5.70508 6.46973 5.72656V5.78223C6.65332 5.79199 6.81934 5.84277 6.96777 5.93457C7.11621 6.02441 7.2334 6.14258 7.31934 6.28906C7.40723 6.43555 7.45117 6.59863 7.45117 6.77832V6.78418C7.45117 7.03027 7.39062 7.24512 7.26953 7.42871C7.14844 7.61035 6.97754 7.75098 6.75684 7.85059C6.53613 7.9502 6.27539 8 5.97461 8H4.48047ZM3.94141 8V3.77246H5.0166V8H3.94141ZM9.61035 8.07617C9.26855 8.07617 8.97461 8.00781 8.72852 7.87109C8.48438 7.73242 8.2959 7.53613 8.16309 7.28223C8.03027 7.02832 7.96387 6.72461 7.96387 6.37109V6.36816C7.96387 6.0166 8.0293 5.71387 8.16016 5.45996C8.29297 5.2041 8.47949 5.00781 8.71973 4.87109C8.95996 4.73242 9.24414 4.66309 9.57227 4.66309C9.90039 4.66309 10.1846 4.73047 10.4248 4.86523C10.665 5 10.8506 5.19043 10.9814 5.43652C11.1123 5.68262 11.1777 5.97168 11.1777 6.30371V6.60254H8.47949V5.99902H10.6855L10.2051 6.57617V6.16309C10.2051 5.99707 10.1797 5.8584 10.1289 5.74707C10.0781 5.63379 10.0068 5.54785 9.91504 5.48926C9.8252 5.43066 9.71973 5.40137 9.59863 5.40137C9.47754 5.40137 9.37109 5.43164 9.2793 5.49219C9.1875 5.55078 9.11523 5.63672 9.0625 5.75C9.01172 5.86328 8.98633 6.00098 8.98633 6.16309V6.58203C8.98633 6.74023 9.01172 6.87598 9.0625 6.98926C9.11328 7.10254 9.18652 7.18945 9.28223 7.25C9.37988 7.30859 9.49609 7.33789 9.63086 7.33789C9.74609 7.33789 9.84277 7.32031 9.9209 7.28516C10.001 7.24805 10.0635 7.20703 10.1084 7.16211C10.1553 7.11719 10.1855 7.08105 10.1992 7.05371L10.208 7.04199L11.1572 7.03906L11.1484 7.07422C11.127 7.16992 11.083 7.27637 11.0166 7.39355C10.9521 7.50879 10.8594 7.61816 10.7383 7.72168C10.6191 7.8252 10.4668 7.91016 10.2812 7.97656C10.0957 8.04297 9.87207 8.07617 9.61035 8.07617ZM13.3135 9.14551C12.9932 9.14551 12.7207 9.10547 12.4961 9.02539C12.2715 8.94531 12.0967 8.83301 11.9717 8.68848C11.8467 8.54395 11.7725 8.37793 11.749 8.19043V8.16992H12.7627L12.7686 8.1875C12.79 8.26562 12.8477 8.3291 12.9414 8.37793C13.0371 8.42676 13.1709 8.45117 13.3428 8.45117C13.542 8.45117 13.6963 8.40625 13.8057 8.31641C13.915 8.22852 13.9697 8.10254 13.9697 7.93848V7.3584H13.9141C13.8594 7.46973 13.7861 7.56445 13.6943 7.64258C13.6025 7.71875 13.4951 7.77637 13.3721 7.81543C13.249 7.85254 13.1113 7.87109 12.959 7.87109C12.6914 7.87109 12.46 7.80664 12.2646 7.67773C12.0693 7.54688 11.9189 7.36523 11.8135 7.13281C11.708 6.89844 11.6553 6.625 11.6553 6.3125V6.30664C11.6553 5.98047 11.708 5.69629 11.8135 5.4541C11.9189 5.21191 12.0703 5.02441 12.2676 4.8916C12.4648 4.75684 12.7012 4.68945 12.9766 4.68945C13.125 4.68945 13.2607 4.71289 13.3838 4.75977C13.5068 4.80469 13.6143 4.87012 13.7061 4.95605C13.7979 5.04199 13.8711 5.14648 13.9258 5.26953H13.9668V4.73926H15.0068V7.87109C15.0068 8.13281 14.9375 8.3584 14.7988 8.54785C14.6621 8.73926 14.4668 8.88672 14.2129 8.99023C13.9609 9.09375 13.6611 9.14551 13.3135 9.14551ZM13.3428 7.10645C13.4756 7.10645 13.5889 7.07324 13.6826 7.00684C13.7783 6.94043 13.8506 6.84766 13.8994 6.72852C13.9502 6.60938 13.9756 6.4707 13.9756 6.3125V6.30664C13.9756 6.14648 13.9502 6.00684 13.8994 5.8877C13.8506 5.76855 13.7783 5.67676 13.6826 5.6123C13.5889 5.5459 13.4756 5.5127 13.3428 5.5127C13.2119 5.5127 13.0996 5.5459 13.0059 5.6123C12.9141 5.67676 12.8428 5.76855 12.792 5.8877C12.7432 6.00488 12.7188 6.14355 12.7188 6.30371V6.30957C12.7188 6.46973 12.7432 6.60938 12.792 6.72852C12.8428 6.84766 12.9141 6.94043 13.0059 7.00684C13.0996 7.07324 13.2119 7.10645 13.3428 7.10645ZM15.8184 8V4.73926H16.8584V8H15.8184ZM16.3398 4.30566C16.1895 4.30566 16.0596 4.25293 15.9502 4.14746C15.8428 4.04199 15.7891 3.91406 15.7891 3.76367C15.7891 3.61328 15.8428 3.48535 15.9502 3.37988C16.0596 3.27441 16.1895 3.22168 16.3398 3.22168C16.4922 3.22168 16.6221 3.27441 16.7295 3.37988C16.8369 3.48535 16.8906 3.61328 16.8906 3.76367C16.8906 3.91406 16.8369 4.04199 16.7295 4.14746C16.6221 4.25293 16.4922 4.30566 16.3398 4.30566ZM17.667 8V4.73926H18.707V5.24902H18.7627C18.835 5.07129 18.9502 4.92969 19.1084 4.82422C19.2686 4.7168 19.4639 4.66309 19.6943 4.66309C20.0557 4.66309 20.3291 4.77051 20.5146 4.98535C20.7021 5.19824 20.7959 5.50098 20.7959 5.89355V8H19.7559V6.125C19.7559 5.92773 19.7139 5.77637 19.6299 5.6709C19.5479 5.56348 19.4189 5.50977 19.2432 5.50977C19.1318 5.50977 19.0361 5.53613 18.9561 5.58887C18.876 5.6416 18.8145 5.71484 18.7715 5.80859C18.7285 5.90234 18.707 6.01172 18.707 6.13672V8H17.667ZM21.5693 8V4.73926H22.6094V5.24902H22.665C22.7373 5.07129 22.8525 4.92969 23.0107 4.82422C23.1709 4.7168 23.3662 4.66309 23.5967 4.66309C23.958 4.66309 24.2314 4.77051 24.417 4.98535C24.6045 5.19824 24.6982 5.50098 24.6982 5.89355V8H23.6582V6.125C23.6582 5.92773 23.6162 5.77637 23.5322 5.6709C23.4502 5.56348 23.3213 5.50977 23.1455 5.50977C23.0342 5.50977 22.9385 5.53613 22.8584 5.58887C22.7783 5.6416 22.7168 5.71484 22.6738 5.80859C22.6309 5.90234 22.6094 6.01172 22.6094 6.13672V8H21.5693ZM26.96 8.07617C26.6182 8.07617 26.3242 8.00781 26.0781 7.87109C25.834 7.73242 25.6455 7.53613 25.5127 7.28223C25.3799 7.02832 25.3135 6.72461 25.3135 6.37109V6.36816C25.3135 6.0166 25.3789 5.71387 25.5098 5.45996C25.6426 5.2041 25.8291 5.00781 26.0693 4.87109C26.3096 4.73242 26.5938 4.66309 26.9219 4.66309C27.25 4.66309 27.5342 4.73047 27.7744 4.86523C28.0146 5 28.2002 5.19043 28.3311 5.43652C28.4619 5.68262 28.5273 5.97168 28.5273 6.30371V6.60254H25.8291V5.99902H28.0352L27.5547 6.57617V6.16309C27.5547 5.99707 27.5293 5.8584 27.4785 5.74707C27.4277 5.63379 27.3564 5.54785 27.2646 5.48926C27.1748 5.43066 27.0693 5.40137 26.9482 5.40137C26.8271 5.40137 26.7207 5.43164 26.6289 5.49219C26.5371 5.55078 26.4648 5.63672 26.4121 5.75C26.3613 5.86328 26.3359 6.00098 26.3359 6.16309V6.58203C26.3359 6.74023 26.3613 6.87598 26.4121 6.98926C26.4629 7.10254 26.5361 7.18945 26.6318 7.25C26.7295 7.30859 26.8457 7.33789 26.9805 7.33789C27.0957 7.33789 27.1924 7.32031 27.2705 7.28516C27.3506 7.24805 27.4131 7.20703 27.458 7.16211C27.5049 7.11719 27.5352 7.08105 27.5488 7.05371L27.5576 7.04199L28.5068 7.03906L28.498 7.07422C28.4766 7.16992 28.4326 7.27637 28.3662 7.39355C28.3018 7.50879 28.209 7.61816 28.0879 7.72168C27.9688 7.8252 27.8164 7.91016 27.6309 7.97656C27.4453 8.04297 27.2217 8.07617 26.96 8.07617ZM29.1748 8V4.73926H30.2148V5.25781H30.2705C30.3193 5.07812 30.4121 4.93848 30.5488 4.83887C30.6875 4.73926 30.8604 4.68945 31.0674 4.68945C31.1318 4.68945 31.1943 4.69434 31.2549 4.7041C31.3154 4.71191 31.3711 4.72461 31.4219 4.74219V5.62109C31.3535 5.60156 31.2822 5.58691 31.208 5.57715C31.1338 5.56738 31.0605 5.5625 30.9883 5.5625C30.8262 5.5625 30.6875 5.59082 30.5723 5.64746C30.457 5.70215 30.3682 5.7832 30.3057 5.89062C30.2451 5.99609 30.2148 6.125 30.2148 6.27734V8H29.1748Z" fill="white"/>
</svg>
