<svg width="80" height="80" viewBox="0 0 80 80" fill="none" xmlns="http://www.w3.org/2000/svg">
<path d="M65.1999 34.2C65.1999 31.9 64.1999 29.6 62.5999 28.2C63.2999 26.1 62.9999 23.7 61.7999 21.7C60.5999 19.7 58.5999 18.2 56.4999 17.8C55.9999 15.7 54.5999 13.7 52.5999 12.5C50.5999 11.3 48.0999 11.1 46.0999 11.7C44.5999 10 42.2999 9 39.9999 9C37.6999 9 35.3999 10 33.9999 11.6C31.8999 10.9 29.4999 11.2 27.4999 12.4C25.4999 13.6 23.9999 15.6 23.5999 17.7C21.4999 18.2 19.4999 19.6 18.2999 21.6C17.0999 23.6 16.8999 26.1 17.4999 28.1C15.8999 29.6 14.8999 31.8 14.8999 34.1C14.8999 36.4 15.8999 38.7 17.4999 40.1C16.7999 42.2 17.0999 44.6 18.2999 46.6C19.4999 48.6 21.4999 50.1 23.5999 50.5C24.0999 52.6 25.4999 54.6 27.4999 55.8C29.4999 57 31.9999 57.2 33.9999 56.6C35.0999 57.8 36.5999 58.6 38.1999 59V69.1C38.1999 70.1 38.9999 70.9 39.9999 70.9C40.9999 70.9 41.7999 70.1 41.7999 69.1V59.1C43.3999 58.7 44.9999 57.9 45.9999 56.7C48.0999 57.4 50.4999 57.1 52.4999 55.9C54.4999 54.7 55.9999 52.7 56.3999 50.6C58.4999 50.1 60.4999 48.7 61.6999 46.7C62.8999 44.7 63.0999 42.2 62.4999 40.2C64.1999 38.7 65.1999 36.5 65.1999 34.2ZM59.4999 38C58.9999 38.2 58.6999 38.6 58.5999 39.1C58.4999 39.6 58.4999 40.1 58.7999 40.6C59.3999 41.5 59.5999 43.3 58.6999 44.9C57.7999 46.5 56.0999 47.2 54.9999 47.2C54.4999 47.2 53.9999 47.4 53.5999 47.7C53.1999 48.1 52.9999 48.6 53.0999 49.1C53.1999 50.2 52.4999 51.9 50.7999 52.8C49.0999 53.7 47.3999 53.5 46.3999 52.9C45.9999 52.6 45.3999 52.5 44.9999 52.7C44.4999 52.8 44.0999 53.2 43.8999 53.6C43.5999 54.2 42.8999 54.9 41.8999 55.3V34.9L49.5999 27.2C50.2999 26.5 50.2999 25.3 49.5999 24.6C48.8999 23.9 47.6999 23.9 46.9999 24.6L41.8999 29.8V22.5C41.8999 21.5 41.0999 20.7 40.0999 20.7C39.0999 20.7 38.2999 21.5 38.2999 22.5V41.5L29.6999 32.9C28.9999 32.2 27.7999 32.2 27.0999 32.9C26.3999 33.6 26.3999 34.8 27.0999 35.5L38.1999 46.6V55.3C37.1999 54.9 36.4999 54.2 36.1999 53.6C35.9999 53.1 35.5999 52.8 35.0999 52.7C34.9999 52.7 34.2999 52.5 33.6999 52.9C32.6999 53.5 30.9999 53.7 29.2999 52.8C27.6999 51.9 26.9999 50.2 26.9999 49.1C26.9999 48.6 26.7999 48.1 26.4999 47.7C26.0999 47.3 25.5999 47.1 25.0999 47.2C23.9999 47.2 22.2999 46.6 21.3999 44.9C20.4999 43.3 20.6999 41.5 21.2999 40.6C21.5999 40.2 21.6999 39.6 21.4999 39.1C21.3999 38.6 20.9999 38.2 20.5999 38C19.5999 37.5 18.4999 36.1 18.4999 34.2C18.4999 32.3 19.5999 30.9 20.5999 30.4C21.0999 30.2 21.3999 29.8 21.4999 29.3C21.5999 28.8 21.5999 28.3 21.2999 27.9C20.6999 27 20.4999 25.2 21.3999 23.6C22.2999 22 23.9999 21.3 25.0999 21.3C25.5999 21.3 26.0999 21.1 26.4999 20.8C26.8999 20.5 27.0999 19.9 26.9999 19.4C26.8999 18.3 27.5999 16.6 29.2999 15.7C30.9999 14.8 32.6999 15 33.6999 15.6C34.0999 15.9 34.6999 16 35.0999 15.8C35.4999 15.6 35.9999 15.3 36.1999 14.9C36.6999 13.9 38.0999 12.8 39.9999 12.8C41.8999 12.8 43.2999 13.9 43.7999 14.9C43.9999 15.4 44.3999 15.7 44.8999 15.8C45.3999 15.9 45.8999 15.9 46.2999 15.6C47.2999 15 48.9999 14.8 50.6999 15.7C52.2999 16.6 52.9999 18.3 52.9999 19.4C52.9999 19.9 53.1999 20.4 53.4999 20.8C53.8999 21.2 54.3999 21.4 54.8999 21.3C55.9999 21.3 57.6999 21.9 58.5999 23.6C59.4999 25.2 59.2999 27 58.6999 27.9C58.3999 28.3 58.2999 28.9 58.4999 29.4C58.5999 29.9 58.9999 30.3 59.3999 30.5C60.3999 31 61.4999 32.4 61.4999 34.3C61.4999 36.1 60.4999 37.5 59.4999 38Z" fill="#217DC1"/>
</svg>
