<svg width="14" height="14" viewBox="0 0 14 14" fill="none" xmlns="http://www.w3.org/2000/svg">
<path d="M5.67 8.96H11.55V9.65H5.67V8.96ZM8.77 5.8H11.36V6.48H8.77V5.8ZM8.45 3.6H9.18V9.28H8.45V3.6ZM6.49 5.22H7.2V9.36H6.49V5.22ZM10.71 2.64L11.26 3.24C9.93 3.66 7.87 3.95 6.14 4.1C6.12 3.93 6.01 3.66 5.93 3.49C7.62 3.32 9.61 3.02 10.71 2.64ZM2.4 3.24H4.73V3.91H2.4V3.24ZM4.53 3.24H4.64L4.76 3.2L5.29 3.38C4.77 4.43 3.93 6.01 3.23 7.21L2.55 7.01C3.25 5.82 4.12 4.18 4.53 3.33V3.24ZM3.35 6.11H5.19V6.78H3.25L3.35 6.11ZM4.91 6.11H5.05L5.19 6.09L5.64 6.21C5.29 9.14 4.31 10.93 2.9 11.85C2.78 11.69 2.5 11.43 2.33 11.33C3.71 10.49 4.62 8.87 4.91 6.26V6.11ZM3.39 7.56C4.23 10.35 6.17 10.83 8.71 10.83C9.13 10.83 11.15 10.83 11.68 10.82C11.56 10.99 11.42 11.34 11.38 11.55H8.69C5.8 11.55 3.79 10.95 2.8 7.78L3.39 7.56Z" fill="#B9964B"/>
<rect x="0.25" y="0.25" width="13.5" height="13.5" rx="1.75" stroke="#B9964B" stroke-width="0.5"/>
</svg>
