<svg width="85" height="14" viewBox="0 0 85 14" fill="none" xmlns="http://www.w3.org/2000/svg">
<path fill-rule="evenodd" clip-rule="evenodd" d="M12.0505 7.29053C11.985 7.5295 11.8371 7.73675 11.6336 7.87463C11.4301 8.01251 11.1845 8.07187 10.9415 8.04193C10.6985 8.01199 10.4741 7.89474 10.3092 7.71147C10.1442 7.5282 10.0497 7.29108 10.0427 7.04318C10.0357 6.79529 10.1167 6.55307 10.271 6.36053C10.4253 6.168 10.6426 6.03792 10.8836 5.99393C11.1245 5.94995 11.373 5.99497 11.584 6.12082C11.795 6.24667 11.9543 6.445 12.0332 6.67978H13.8731C13.7959 5.95158 13.446 5.28108 12.8955 4.80636C12.3449 4.33165 11.6356 4.08885 10.9137 4.12799C10.1917 4.16713 9.51202 4.48522 9.01463 5.01675C8.51724 5.54828 8.23999 6.25278 8.23999 6.98516C8.23999 7.71754 8.51724 8.42203 9.01463 8.95356C9.51202 9.48509 10.1917 9.80318 10.9137 9.84232C11.6356 9.88145 12.3449 9.63866 12.8955 9.16395C13.446 8.68923 13.7959 8.01873 13.8731 7.29053H12.0505Z" fill="#B9964B"/>
<path fill-rule="evenodd" clip-rule="evenodd" d="M12.9989 9.82977C12.4858 10.2033 11.8809 10.4261 11.2509 10.4735C10.6208 10.521 9.99004 10.3913 9.42811 10.0988C8.86617 9.80623 8.39488 9.36219 8.06621 8.81561C7.73754 8.26903 7.56424 7.64113 7.56541 7.00113C7.56659 6.36114 7.7422 5.73389 8.07288 5.18856C8.40356 4.64322 8.87647 4.20096 9.43948 3.91054C10.0025 3.62012 10.6337 3.49282 11.2636 3.54266C11.8935 3.59251 12.4976 3.81756 13.0092 4.19302H13.0179C13.022 4.19302 13.026 4.19136 13.0289 4.18841C13.0318 4.18545 13.0334 4.18145 13.0334 4.17727C13.0346 4.17387 13.0346 4.17017 13.0334 4.16677C12.4766 3.59548 11.7647 3.2048 10.9882 3.0444C10.2117 2.88399 9.40562 2.9611 8.67247 3.26593C7.93932 3.57076 7.3122 4.08954 6.87085 4.75631C6.4295 5.42308 6.19385 6.20774 6.19385 7.01052C6.19385 7.8133 6.4295 8.59796 6.87085 9.26473C7.3122 9.9315 7.93932 10.4503 8.67247 10.7551C9.40562 11.0599 10.2117 11.137 10.9882 10.9766C11.7647 10.8162 12.4766 10.4256 13.0334 9.85427C13.0342 9.85233 13.0346 9.85025 13.0346 9.84815C13.0346 9.84604 13.0342 9.84396 13.0334 9.84202C13.035 9.83738 13.0347 9.83228 13.0326 9.82785C13.0305 9.82342 13.0268 9.82002 13.0222 9.81839C13.0176 9.81677 13.0126 9.81706 13.0082 9.81919C13.0038 9.82132 13.0005 9.82513 12.9989 9.82977Z" fill="#B9964B"/>
<path fill-rule="evenodd" clip-rule="evenodd" d="M13.0042 10.3128C12.3687 10.9096 11.5752 11.3056 10.7209 11.4524C9.86654 11.5991 8.98849 11.4903 8.19433 11.1391C7.40016 10.7879 6.72438 10.2097 6.24978 9.47529C5.77519 8.74087 5.5224 7.88217 5.5224 7.00439C5.5224 6.12662 5.77519 5.26791 6.24978 4.53349C6.72438 3.79907 7.40016 3.22085 8.19433 2.86968C8.98849 2.5185 9.86654 2.40963 10.7209 2.55641C11.5752 2.70319 12.3687 3.09923 13.0042 3.69602C13.0058 3.69679 13.0076 3.6972 13.0094 3.6972C13.0111 3.6972 13.0129 3.69679 13.0145 3.69602C13.0182 3.69602 13.0217 3.69454 13.0243 3.69192C13.0269 3.68929 13.0284 3.68573 13.0284 3.68202C13.0291 3.67856 13.0291 3.67497 13.0284 3.67152C12.3479 2.80776 11.4192 2.1796 10.3708 1.87395C9.32236 1.5683 8.2061 1.60028 7.17643 1.96546C6.14676 2.33064 5.25459 3.01096 4.62337 3.9123C3.99214 4.81363 3.65308 5.89141 3.65308 6.99651C3.65308 8.10162 3.99214 9.1794 4.62337 10.0807C5.25459 10.9821 6.14676 11.6624 7.17643 12.0276C8.2061 12.3928 9.32236 12.4247 10.3708 12.1191C11.4192 11.8134 12.3479 11.1853 13.0284 10.3215C13.0277 10.319 13.0265 10.3168 13.0248 10.3149C13.0231 10.313 13.0209 10.3115 13.0185 10.3107C13.0162 10.3098 13.0136 10.3096 13.0111 10.3099C13.0086 10.3103 13.0062 10.3113 13.0042 10.3128Z" fill="#B9964B"/>
<path fill-rule="evenodd" clip-rule="evenodd" d="M13.0196 10.864C13.0196 10.862 13.0192 10.86 13.0184 10.8582C13.0176 10.8564 13.0165 10.8548 13.015 10.8534C13.0135 10.8521 13.0118 10.8511 13.0099 10.8505C13.008 10.8499 13.006 10.8498 13.0041 10.85C13.0022 10.8492 13.0001 10.8488 12.998 10.8488C12.996 10.8488 12.9939 10.8492 12.992 10.85C12.2185 11.7464 11.1935 12.3824 10.0538 12.6731C8.9141 12.9639 7.71396 12.8954 6.61365 12.477C5.51335 12.0586 4.56525 11.31 3.89599 10.3314C3.22673 9.35273 2.86816 8.19053 2.86816 7C2.86816 5.80947 3.22673 4.64727 3.89599 3.66862C4.56525 2.68996 5.51335 1.94144 6.61365 1.523C7.71396 1.10457 8.9141 1.03614 10.0538 1.32686C11.1935 1.61758 12.2185 2.2536 12.992 3.15C12.9957 3.15 12.9992 3.14853 13.0018 3.1459C13.0044 3.14327 13.0058 3.13971 13.0058 3.136C12.1861 1.88164 10.9892 0.928149 9.59258 0.416809C8.19596 -0.0945304 6.67386 -0.136514 5.25184 0.297077C3.82981 0.730669 2.5835 1.61677 1.69758 2.82408C0.811659 4.03139 0.333252 5.49569 0.333252 7C0.333252 8.50431 0.811659 9.96861 1.69758 11.1759C2.5835 12.3832 3.82981 13.2693 5.25184 13.7029C6.67386 14.1365 8.19596 14.0945 9.59258 13.5832C10.9892 13.0719 12.1861 12.1184 13.0058 10.864C13.0103 10.8654 13.0151 10.8654 13.0196 10.864Z" fill="#B9964B"/>
<path d="M37.2837 8.05164H29.5752C29.4556 8.05164 29.3409 8.09976 29.2563 8.18542C29.1718 8.27107 29.1243 8.38725 29.1243 8.50839V11.3714C29.1247 11.4922 29.1724 11.6079 29.2569 11.6932C29.3414 11.7785 29.4559 11.8264 29.5752 11.8264H37.2837C37.4027 11.8259 37.5167 11.7778 37.6008 11.6926C37.6849 11.6074 37.7324 11.4919 37.7329 11.3714V8.50839C37.7329 8.38755 37.6856 8.27164 37.6014 8.18603C37.5172 8.10043 37.403 8.0521 37.2837 8.05164ZM36.6376 10.4141V10.8639C36.6307 10.8991 36.612 10.9308 36.5845 10.9535C36.5571 10.9761 36.5227 10.9884 36.4873 10.9881H33.9857V10.4071L36.6376 10.4141ZM36.6376 9.08589V9.53039H33.9857V8.95989H36.4976C36.5322 8.95967 36.5656 8.97242 36.5915 8.99569C36.6173 9.01896 36.6337 9.05108 36.6376 9.08589ZM32.8939 10.4141V10.9951H30.3491C30.3358 10.996 30.3224 10.9939 30.3099 10.9889C30.2974 10.9839 30.2862 10.9763 30.2769 10.9664C30.2677 10.9566 30.2607 10.9448 30.2565 10.9319C30.2522 10.919 30.2508 10.9054 30.2524 10.8919V10.4141H32.8939ZM32.8939 8.95989V9.53039H30.2524V9.04214C30.2524 8.99489 30.3267 8.95989 30.3491 8.95989H32.8939Z" fill="#02509F"/>
<path d="M30 5.82913V7.27813C30 7.37374 30.0375 7.46544 30.1042 7.53304C30.171 7.60065 30.2615 7.63863 30.3559 7.63863H36.4543C36.5487 7.63863 36.6392 7.60065 36.7059 7.53304C36.7727 7.46544 36.8102 7.37374 36.8102 7.27813V5.82913C36.8102 5.73352 36.7727 5.64182 36.7059 5.57422C36.6392 5.50661 36.5487 5.46863 36.4543 5.46863H30.3559C30.2616 5.46909 30.1714 5.50722 30.1047 5.57473C30.0381 5.64223 30.0005 5.73366 30 5.82913ZM35.7339 6.38388V6.73388C35.7339 6.75122 35.7272 6.76787 35.7153 6.78029C35.7033 6.79271 35.6871 6.79992 35.67 6.80038H31.154C31.1369 6.79992 31.1207 6.79271 31.1087 6.78029C31.0968 6.76787 31.0901 6.75122 31.0901 6.73388V6.38388C31.0905 6.36684 31.0974 6.35063 31.1093 6.33858C31.1212 6.32654 31.1372 6.31957 31.154 6.31913H35.67C35.6868 6.31957 35.7028 6.32654 35.7147 6.33858C35.7266 6.35063 35.7335 6.36684 35.7339 6.38388Z" fill="#02509F"/>
<path d="M36.1297 4.18945H30.7448C30.6007 4.18945 30.4839 4.30776 30.4839 4.4537V4.78095C30.4839 4.92689 30.6007 5.0452 30.7448 5.0452H36.1297C36.2737 5.0452 36.3905 4.92689 36.3905 4.78095V4.4537C36.3905 4.30776 36.2737 4.18945 36.1297 4.18945Z" fill="#02509F"/>
<path d="M37.7174 2.83843H34.1378C33.9771 2.58993 33.7404 2.10693 33.7404 2.10693H32.3376C32.3376 2.10693 32.6521 2.70193 32.735 2.83843H29.1589C29.0645 2.83843 28.974 2.87642 28.9072 2.94402C28.8405 3.01163 28.803 3.10332 28.803 3.19893V4.79668C28.8034 4.86663 28.8311 4.93357 28.8799 4.98303C28.9287 5.03249 28.9948 5.06048 29.0638 5.06093H29.6633C29.7324 5.06048 29.7985 5.03249 29.8473 4.98303C29.8961 4.93357 29.9237 4.86663 29.9242 4.79668V3.83943C29.9242 3.79568 29.9967 3.76418 30.0209 3.76418H36.8138C36.8482 3.76401 36.8814 3.77682 36.907 3.80012C36.9326 3.82342 36.9486 3.85553 36.9521 3.89018V4.79668C36.9525 4.86663 36.9801 4.93357 37.029 4.98303C37.0778 5.03249 37.1439 5.06048 37.2129 5.06093H37.8124C37.8814 5.06048 37.9475 5.03249 37.9963 4.98303C38.0452 4.93357 38.0728 4.86663 38.0733 4.79668V3.19893C38.0733 3.10332 38.0358 3.01163 37.969 2.94402C37.9023 2.87642 37.8118 2.83843 37.7174 2.83843Z" fill="#02509F"/>
<path d="M26.9527 11.6777C26.1679 10.8942 25.4941 10.0043 24.9504 9.03349C25.6314 7.81288 26.0582 6.4639 26.2046 5.06974H26.7799C26.8176 5.06951 26.8549 5.06177 26.8896 5.04696C26.9243 5.03215 26.9558 5.01056 26.9822 4.98342C27.0087 4.95628 27.0296 4.92413 27.0438 4.88879C27.058 4.85346 27.0652 4.81564 27.065 4.77749V4.42749C27.0655 4.35028 27.0357 4.27602 26.9823 4.22094C26.9289 4.16585 26.8562 4.13441 26.7799 4.13349H23.9864C24.0883 3.73799 24.1592 3.35474 24.2404 3.01699L24.3043 2.71074C24.3371 2.56024 24.4028 2.26974 24.4028 2.26974V2.23474H23.2937L23.2781 2.31874C23.0594 3.64301 22.6343 4.92365 22.0187 6.11274L22.0014 6.14424C21.7992 5.60465 21.6364 5.05074 21.5142 4.48699L21.497 4.40649H20.4604L20.4777 4.52199C20.5931 5.12431 20.7495 5.71782 20.9459 6.29824L20.97 6.37874H18.5514L19.9715 3.62424H22.0101C22.0837 3.622 22.1537 3.59113 22.2055 3.53801C22.2573 3.4849 22.2869 3.41363 22.2882 3.33899V2.98899C22.2887 2.91178 22.2589 2.83752 22.2055 2.78244C22.1521 2.72735 22.0794 2.69591 22.0031 2.69499H17.5649C17.5271 2.69522 17.4896 2.70301 17.4547 2.71791C17.4197 2.7328 17.3881 2.75452 17.3614 2.78182C17.3348 2.80913 17.3138 2.84147 17.2995 2.87702C17.2852 2.91256 17.2779 2.95061 17.2782 2.98899V3.33899C17.2777 3.37729 17.2847 3.4153 17.2988 3.45083C17.3129 3.48637 17.3338 3.51873 17.3603 3.54605C17.3868 3.57338 17.4184 3.59512 17.4532 3.61004C17.488 3.62496 17.5254 3.63276 17.5632 3.63299H18.738L17.3559 6.25799C17.2996 6.36961 17.2703 6.49316 17.2703 6.61849C17.2703 6.74382 17.2996 6.86737 17.3559 6.97899C17.4139 7.09 17.5011 7.18259 17.6078 7.24652C17.7145 7.31045 17.8366 7.34323 17.9606 7.34124H19.1561V8.36499H17.9001C17.8623 8.36499 17.8249 8.37256 17.79 8.38727C17.755 8.40198 17.7234 8.42353 17.6967 8.45069C17.67 8.47785 17.649 8.51009 17.6346 8.54553C17.6203 8.58098 17.6131 8.61894 17.6133 8.65724V9.00724C17.6131 9.04554 17.6203 9.0835 17.6346 9.11895C17.649 9.15439 17.67 9.18663 17.6967 9.21379C17.7234 9.24095 17.755 9.2625 17.79 9.27721C17.8249 9.29192 17.8623 9.29949 17.9001 9.29949H19.1561V10.5612C18.6274 10.6452 17.5822 10.7362 17.1365 10.7782H17.0432V11.8597L17.3041 11.823C18.8002 11.6182 20.6642 11.3645 22.0912 11.011L22.1673 10.9917V10.0345L22.0429 10.0642C21.535 10.1885 20.9078 10.2795 20.4483 10.346L20.2876 10.3687V9.28899H21.4728C21.592 9.28899 21.6801 9.16299 21.6801 8.99674V8.64674C21.6801 8.47174 21.592 8.35449 21.4728 8.35449H20.2876V7.33074H20.9787L21.1514 6.91424C21.2154 7.07874 21.3086 7.31324 21.3086 7.31324L21.3173 7.33074H22.5041L22.4851 7.29049C22.4851 7.29049 22.1776 6.60624 22.0429 6.26324H22.8877C23.061 7.19331 23.3568 8.09561 23.767 8.94599C23.2833 9.73874 22.4195 10.9217 21.5626 11.6672L21.357 11.8422H22.9481L22.9775 11.8142C23.4116 11.3787 23.7995 10.8983 24.135 10.381L24.3475 10.0782C24.7109 10.6809 25.115 11.2574 25.5568 11.8037L25.5862 11.8422H27.141L26.9527 11.6777ZM25.1456 5.06974C25.0387 5.99419 24.7892 6.89591 24.4062 7.74199C24.1294 7.05714 23.9278 6.34351 23.805 5.61399L23.7912 5.52824H23.4681L23.5096 5.44774C23.5701 5.33049 23.6582 5.15549 23.6962 5.06274L25.1456 5.06974Z" fill="#02509F"/>
<path d="M58.7646 6.1844C58.7646 6.23731 58.7438 6.28806 58.7069 6.32547C58.6699 6.36289 58.6199 6.3839 58.5676 6.3839H54.1778C54.1256 6.3839 54.0755 6.36289 54.0385 6.32547C54.0016 6.28806 53.9808 6.23731 53.9808 6.1844V3.11315C53.9804 3.06055 53.9594 3.01025 53.9226 2.97322C53.8857 2.93618 53.8358 2.9154 53.7839 2.91541H52.2394C52.1875 2.9154 52.1377 2.93618 52.1008 2.97322C52.0639 3.01025 52.0429 3.06055 52.0425 3.11315V11.6199C52.0429 11.6727 52.0638 11.7232 52.1007 11.7605C52.1375 11.7978 52.1873 11.8189 52.2394 11.8194H53.7839C53.836 11.8189 53.8858 11.7978 53.9227 11.7605C53.9595 11.7232 53.9804 11.6727 53.9808 11.6199V8.23891C53.9808 8.18599 54.0016 8.13525 54.0385 8.09784C54.0755 8.06042 54.1256 8.03941 54.1778 8.03941H58.5676C58.6199 8.03941 58.6699 8.06042 58.7069 8.09784C58.7438 8.13525 58.7646 8.18599 58.7646 8.23891V11.6164C58.765 11.6692 58.7859 11.7197 58.8228 11.757C58.8596 11.7943 58.9094 11.8154 58.9615 11.8159H60.506C60.5581 11.8154 60.6079 11.7943 60.6447 11.757C60.6816 11.7197 60.7025 11.6692 60.7029 11.6164V3.11315C60.7025 3.06055 60.6815 3.01025 60.6446 2.97322C60.6077 2.93618 60.5579 2.9154 60.506 2.91541H58.9615C58.9096 2.9154 58.8597 2.93618 58.8229 2.97322C58.786 3.01025 58.765 3.06055 58.7646 3.11315V6.1844Z" fill="#02509F"/>
<path d="M64.9426 2.91541H63.3981C63.2894 2.91541 63.2012 3.00472 63.2012 3.11491V11.6199C63.2012 11.7301 63.2894 11.8194 63.3981 11.8194H64.9426C65.0514 11.8194 65.1395 11.7301 65.1395 11.6199V3.11491C65.1395 3.00472 65.0514 2.91541 64.9426 2.91541Z" fill="#02509F"/>
<path d="M67.6116 11.62C67.6116 11.6726 67.6321 11.7231 67.6686 11.7604C67.7052 11.7978 67.7549 11.819 67.8068 11.8195H74.8761C74.9282 11.819 74.9781 11.7979 75.0149 11.7606C75.0517 11.7232 75.0726 11.6728 75.0731 11.62V10.3582C75.0717 10.3062 75.0504 10.2568 75.0136 10.2206C74.9768 10.1843 74.9275 10.164 74.8761 10.164H69.7452C69.6932 10.1635 69.6436 10.1423 69.607 10.1049C69.5704 10.0676 69.5499 10.0171 69.5499 9.96449V8.23899C69.5499 8.18638 69.5704 8.1359 69.607 8.09854C69.6436 8.06117 69.6932 8.03995 69.7452 8.03949H73.9035C73.9556 8.03903 74.0054 8.01786 74.0423 7.98055C74.0791 7.94323 74.1 7.89276 74.1004 7.83999V6.57999C74.1004 6.52708 74.0797 6.47633 74.0428 6.43892C74.0058 6.40151 73.9557 6.38049 73.9035 6.38049H69.7452C69.6932 6.38003 69.6436 6.3588 69.607 6.32144C69.5704 6.28408 69.5499 6.2336 69.5499 6.18099V4.76874C69.5499 4.71613 69.5704 4.66565 69.607 4.62829C69.6436 4.59092 69.6932 4.5697 69.7452 4.56924H74.8761C74.9281 4.56924 74.9779 4.54846 75.0148 4.51143C75.0517 4.47439 75.0726 4.42409 75.0731 4.37149V3.10974C75.0726 3.05713 75.0517 3.00684 75.0148 2.9698C74.9779 2.93276 74.9281 2.91199 74.8761 2.91199H67.8068C67.7552 2.91244 67.7058 2.93343 67.6693 2.97041C67.6327 3.0074 67.612 3.05743 67.6116 3.10974V11.62Z" fill="#02509F"/>
<path d="M84.803 4.57266C84.855 4.57266 84.9048 4.55188 84.9417 4.51484C84.9786 4.47781 84.9995 4.42751 85 4.3749V3.11315C84.9995 3.06055 84.9786 3.01025 84.9417 2.97322C84.9048 2.93618 84.855 2.9154 84.803 2.91541H77.7441C77.6921 2.9154 77.6423 2.93618 77.6054 2.97322C77.5685 3.01025 77.5476 3.06055 77.5471 3.11315V11.6199C77.5476 11.6727 77.5685 11.7232 77.6053 11.7605C77.6421 11.7978 77.692 11.8189 77.7441 11.8194H79.2885C79.3406 11.8189 79.3905 11.7978 79.4273 11.7605C79.4641 11.7232 79.485 11.6727 79.4855 11.6199V8.23891C79.4855 8.1863 79.506 8.13582 79.5426 8.09845C79.5791 8.06109 79.6288 8.03987 79.6807 8.03941H83.839C83.8911 8.03895 83.9409 8.01778 83.9778 7.98047C84.0146 7.94315 84.0355 7.89267 84.036 7.83991V6.57991C84.036 6.527 84.0152 6.47625 83.9783 6.43884C83.9414 6.40142 83.8913 6.38041 83.839 6.38041H79.6721C79.6201 6.37994 79.5705 6.35872 79.5339 6.32136C79.4974 6.28399 79.4768 6.23352 79.4769 6.18091V4.76865C79.4768 4.71605 79.4974 4.66557 79.5339 4.6282C79.5705 4.59084 79.6201 4.56962 79.6721 4.56915L84.803 4.57266Z" fill="#02509F"/>
<path d="M47.8133 8.93893C47.765 8.93825 47.7171 8.94823 47.6729 8.96818C47.6288 8.98812 47.5895 9.01755 47.5577 9.05443C47.2549 9.39765 46.8833 9.67138 46.4677 9.85729C46.052 10.0432 45.602 10.137 45.1477 10.1324C43.446 10.1324 42.0673 8.85493 42.0673 7.27818C42.0673 5.70143 43.4494 4.42393 45.1477 4.42393C45.665 4.41634 46.1762 4.53804 46.636 4.77826C47.0958 5.01848 47.4901 5.36982 47.784 5.80118C47.8119 5.85262 47.8525 5.8958 47.9019 5.92649C47.9512 5.95718 48.0077 5.9743 48.0656 5.97618H50.0506L50.0247 5.88868C49.6943 4.89031 49.0552 4.0263 48.202 3.42468C47.3039 2.78394 46.2306 2.44317 45.1321 2.44993C42.3196 2.44993 40.0305 4.61818 40.0305 7.28518C40.0305 9.95218 42.3196 12.1204 45.1321 12.1204C47.2501 12.1204 49.1159 10.9094 49.8847 9.03693L49.9296 8.93893H47.8133Z" fill="#02509F"/>
</svg>
