<svg width="33" height="32" viewBox="0 0 33 32" fill="none" xmlns="http://www.w3.org/2000/svg">
<path d="M15.4862 8.25099C15.7272 8.00997 17.087 7.87598 17.7368 7.83911C18.1688 7.83911 18.5941 7.86804 19.0108 7.92407C19.5931 6.84818 20.7317 6.11743 22.041 6.11743V6.11743C22.9919 6.11743 23.7627 6.88825 23.7627 7.83911V10.0035C25.2254 11.2116 26.3192 12.8504 26.8496 14.7258H27.2061C28.1569 14.7258 28.9277 15.4967 28.9277 16.4475V19.03C28.9277 19.9809 28.1569 20.7517 27.2061 20.7517H26.5605C26.2818 21.4654 25.9191 22.1369 25.4844 22.7542V25.9167C25.4844 26.8676 24.7136 27.6384 23.7627 27.6384H21.1802C20.4701 27.6384 19.8604 27.2086 19.5972 26.5949C18.9957 26.7147 18.3736 26.7776 17.7368 26.7776H14.2935C13.9355 26.7776 13.5822 26.7577 13.2346 26.7191C12.9462 27.2658 12.3721 27.6384 11.7109 27.6384H9.12842C8.17756 27.6384 7.40674 26.8676 7.40674 25.9167V23.8076C5.80571 22.1117 4.82422 19.8247 4.82422 17.3084C4.82422 16.5207 4.92038 15.7556 5.10159 15.024C5.20579 14.6071 5.55515 13.6279 6.11905 13.0464" stroke="#8B3BFF" stroke-width="1.5" stroke-linejoin="round"/>
<path d="M15.4873 10.0681C15.4873 12.8055 13.2681 15.0246 10.5307 15.0246V16.5246C14.0966 16.5246 16.9873 13.6339 16.9873 10.0681H15.4873ZM10.5307 15.0246C7.79333 15.0246 5.57422 12.8055 5.57422 10.0681H4.07422C4.07422 13.6339 6.9649 16.5246 10.5307 16.5246V15.0246ZM5.57422 10.0681C5.57422 7.33068 7.79333 5.11157 10.5307 5.11157V3.61157C6.9649 3.61157 4.07422 6.50225 4.07422 10.0681H5.57422ZM10.5307 5.11157C13.2681 5.11157 15.4873 7.33068 15.4873 10.0681H16.9873C16.9873 6.50225 14.0966 3.61157 10.5307 3.61157V5.11157Z" fill="#8B3BFF"/>
<path d="M23.4733 12.9286V13.7617" stroke="#8B3BFF" stroke-width="1.5" stroke-linecap="round"/>
<path fill-rule="evenodd" clip-rule="evenodd" d="M9.7113 8.24329C9.48526 8.41272 9.38311 8.61579 9.38311 8.80532C9.38311 8.99526 9.48526 9.19834 9.7113 9.36818C9.93776 9.53802 10.2692 9.65535 10.6528 9.65535C10.7616 9.65535 10.866 9.69857 10.9429 9.7755C11.0198 9.85244 11.0631 9.95679 11.0631 10.0656C11.0631 10.1744 11.0198 10.2787 10.9429 10.3557C10.866 10.4326 10.7616 10.4758 10.6528 10.4758C10.1088 10.4758 9.60054 10.3109 9.21901 10.0246C8.83748 9.73822 8.56262 9.31156 8.56262 8.80573C8.56262 8.29949 8.83748 7.87284 9.21901 7.58649C9.60054 7.30054 10.1092 7.13563 10.6528 7.13563C11.495 7.13563 12.2913 7.5389 12.608 8.21047C12.631 8.25922 12.6442 8.31203 12.6467 8.36586C12.6493 8.4197 12.6412 8.47352 12.623 8.52424C12.6048 8.57497 12.5768 8.6216 12.5405 8.66149C12.5042 8.70137 12.4605 8.73373 12.4117 8.75671C12.363 8.77968 12.3102 8.79283 12.2563 8.7954C12.2025 8.79797 12.1487 8.78991 12.098 8.77169C12.0472 8.75346 12.0006 8.72542 11.9607 8.68917C11.9208 8.65291 11.8885 8.60916 11.8655 8.56041C11.7219 8.25395 11.2739 7.95612 10.6532 7.95612C10.2696 7.95612 9.93776 8.07344 9.7113 8.24329Z" fill="#8B3BFF"/>
<path fill-rule="evenodd" clip-rule="evenodd" d="M11.349 11.7993C11.575 11.6362 11.6768 11.4408 11.6768 11.2584C11.6768 11.0756 11.575 10.8798 11.3486 10.7167C11.1225 10.5533 10.7907 10.4404 10.4075 10.4404C10.2987 10.4404 10.1943 10.3988 10.1174 10.3247C10.0405 10.2507 9.99725 10.1502 9.99725 10.0455C9.99725 9.94082 10.0405 9.8404 10.1174 9.76636C10.1943 9.69232 10.2987 9.65072 10.4075 9.65072C10.9515 9.65072 11.4598 9.80943 11.8413 10.085C12.2228 10.3606 12.4973 10.7712 12.4973 11.258C12.4973 11.7448 12.2228 12.1558 11.8409 12.431C11.4594 12.7066 10.9515 12.8653 10.4075 12.8653C9.56526 12.8653 8.76857 12.4772 8.45227 11.8305C8.40586 11.7358 8.40045 11.6272 8.43723 11.5287C8.47401 11.4301 8.54995 11.3497 8.64837 11.305C8.74678 11.2603 8.8596 11.2551 8.962 11.2905C9.0644 11.3259 9.148 11.399 9.1944 11.4937C9.33881 11.789 9.78679 12.0757 10.4075 12.0757C10.7911 12.0757 11.1225 11.9628 11.349 11.7993ZM10.4641 6.43652C10.5729 6.43652 10.6773 6.47812 10.7542 6.55216C10.8311 6.6262 10.8744 6.72663 10.8744 6.83134V7.22616C10.8744 7.33087 10.8311 7.43129 10.7542 7.50533C10.6773 7.57937 10.5729 7.62097 10.4641 7.62097C10.3553 7.62097 10.251 7.57937 10.174 7.50533C10.0971 7.43129 10.0539 7.33087 10.0539 7.22616V6.83134C10.0539 6.72663 10.0971 6.6262 10.174 6.55216C10.251 6.47812 10.3553 6.43652 10.4641 6.43652Z" fill="#8B3BFF"/>
<path fill-rule="evenodd" clip-rule="evenodd" d="M10.5749 12.4686C10.6837 12.4686 10.788 12.5118 10.8649 12.5888C10.9419 12.6657 10.9851 12.7701 10.9851 12.8789V13.2891C10.9851 13.3979 10.9419 13.5023 10.8649 13.5792C10.788 13.6561 10.6837 13.6994 10.5749 13.6994C10.4661 13.6994 10.3617 13.6561 10.2848 13.5792C10.2078 13.5023 10.1646 13.3979 10.1646 13.2891V12.8789C10.1646 12.7701 10.2078 12.6657 10.2848 12.5888C10.3617 12.5118 10.4661 12.4686 10.5749 12.4686Z" fill="#8B3BFF"/>
<path fill-rule="evenodd" clip-rule="evenodd" d="M9.7113 8.24329C9.48526 8.41272 9.38311 8.61579 9.38311 8.80532C9.38311 8.99526 9.48526 9.19834 9.7113 9.36818C9.93776 9.53802 10.2692 9.65535 10.6528 9.65535C10.7616 9.65535 10.866 9.69857 10.9429 9.7755C11.0198 9.85244 11.0631 9.95679 11.0631 10.0656C11.0631 10.1744 11.0198 10.2787 10.9429 10.3557C10.866 10.4326 10.7616 10.4758 10.6528 10.4758C10.1088 10.4758 9.60054 10.3109 9.21901 10.0246C8.83748 9.73822 8.56262 9.31156 8.56262 8.80573C8.56262 8.29949 8.83748 7.87284 9.21901 7.58649C9.60054 7.30054 10.1092 7.13563 10.6528 7.13563C11.495 7.13563 12.2913 7.5389 12.608 8.21047C12.631 8.25922 12.6442 8.31203 12.6467 8.36586C12.6493 8.4197 12.6412 8.47352 12.623 8.52424C12.6048 8.57497 12.5768 8.6216 12.5405 8.66149C12.5042 8.70137 12.4605 8.73373 12.4117 8.75671C12.363 8.77968 12.3102 8.79283 12.2563 8.7954C12.2025 8.79797 12.1487 8.78991 12.098 8.77169C12.0472 8.75346 12.0006 8.72542 11.9607 8.68917C11.9208 8.65291 11.8885 8.60916 11.8655 8.56041C11.7219 8.25395 11.2739 7.95612 10.6532 7.95612C10.2696 7.95612 9.93776 8.07344 9.7113 8.24329Z" stroke="#8B3BFF" stroke-width="0.5"/>
<path fill-rule="evenodd" clip-rule="evenodd" d="M11.349 11.7993C11.575 11.6362 11.6768 11.4408 11.6768 11.2584C11.6768 11.0756 11.575 10.8798 11.3486 10.7167C11.1225 10.5533 10.7907 10.4404 10.4075 10.4404C10.2987 10.4404 10.1943 10.3988 10.1174 10.3247C10.0405 10.2507 9.99725 10.1502 9.99725 10.0455C9.99725 9.94082 10.0405 9.8404 10.1174 9.76636C10.1943 9.69232 10.2987 9.65072 10.4075 9.65072C10.9515 9.65072 11.4598 9.80943 11.8413 10.085C12.2228 10.3606 12.4973 10.7712 12.4973 11.258C12.4973 11.7448 12.2228 12.1558 11.8409 12.431C11.4594 12.7066 10.9515 12.8653 10.4075 12.8653C9.56526 12.8653 8.76857 12.4772 8.45227 11.8305C8.40586 11.7358 8.40045 11.6272 8.43723 11.5287C8.47401 11.4301 8.54995 11.3497 8.64837 11.305C8.74678 11.2603 8.8596 11.2551 8.962 11.2905C9.0644 11.3259 9.148 11.399 9.1944 11.4937C9.33881 11.789 9.78679 12.0757 10.4075 12.0757C10.7911 12.0757 11.1225 11.9628 11.349 11.7993ZM10.4641 6.43652C10.5729 6.43652 10.6773 6.47812 10.7542 6.55216C10.8311 6.6262 10.8744 6.72663 10.8744 6.83134V7.22616C10.8744 7.33087 10.8311 7.43129 10.7542 7.50533C10.6773 7.57937 10.5729 7.62097 10.4641 7.62097C10.3553 7.62097 10.251 7.57937 10.174 7.50533C10.0971 7.43129 10.0539 7.33087 10.0539 7.22616V6.83134C10.0539 6.72663 10.0971 6.6262 10.174 6.55216C10.251 6.47812 10.3553 6.43652 10.4641 6.43652Z" stroke="#8B3BFF" stroke-width="0.5"/>
<path fill-rule="evenodd" clip-rule="evenodd" d="M10.5749 12.4686C10.6837 12.4686 10.788 12.5118 10.8649 12.5888C10.9419 12.6657 10.9851 12.7701 10.9851 12.8789V13.2891C10.9851 13.3979 10.9419 13.5023 10.8649 13.5792C10.788 13.6561 10.6837 13.6994 10.5749 13.6994C10.4661 13.6994 10.3617 13.6561 10.2848 13.5792C10.2078 13.5023 10.1646 13.3979 10.1646 13.2891V12.8789C10.1646 12.7701 10.2078 12.6657 10.2848 12.5888C10.3617 12.5118 10.4661 12.4686 10.5749 12.4686Z" stroke="#8B3BFF" stroke-width="0.5"/>
</svg>
