<svg width="32" height="33" viewBox="0 0 32 33" fill="none" xmlns="http://www.w3.org/2000/svg">
<path d="M14.6112 8.75099C14.8522 8.50997 16.212 8.37598 16.8618 8.33911C17.2938 8.33911 17.7191 8.36804 18.1358 8.42407C18.7181 7.34818 19.8567 6.61743 21.166 6.61743V6.61743C22.1169 6.61743 22.8877 7.38825 22.8877 8.33911V10.5035C24.3504 11.7116 25.4442 13.3504 25.9746 15.2258H26.3311C27.2819 15.2258 28.0527 15.9967 28.0527 16.9475V19.53C28.0527 20.4809 27.2819 21.2517 26.3311 21.2517H25.6855C25.4068 21.9654 25.0441 22.6369 24.6094 23.2542V26.4167C24.6094 27.3676 23.8386 28.1384 22.8877 28.1384H20.3052C19.5951 28.1384 18.9854 27.7086 18.7222 27.0949C18.1207 27.2147 17.4986 27.2776 16.8618 27.2776H13.4185C13.0605 27.2776 12.7072 27.2577 12.3596 27.2191C12.0712 27.7658 11.4971 28.1384 10.8359 28.1384H8.25342C7.30256 28.1384 6.53174 27.3676 6.53174 26.4167V24.3076C4.93071 22.6117 3.94922 20.3247 3.94922 17.8084C3.94922 17.0207 4.04538 16.2556 4.22659 15.524C4.33079 15.1071 4.68015 14.1279 5.24405 13.5464" stroke="#6200EE" stroke-width="1.5" stroke-linejoin="round"/>
<path d="M14.6123 10.5681C14.6123 13.3055 12.3931 15.5246 9.65574 15.5246V17.0246C13.2216 17.0246 16.1123 14.1339 16.1123 10.5681H14.6123ZM9.65574 15.5246C6.91833 15.5246 4.69922 13.3055 4.69922 10.5681H3.19922C3.19922 14.1339 6.0899 17.0246 9.65574 17.0246V15.5246ZM4.69922 10.5681C4.69922 7.83068 6.91833 5.61157 9.65574 5.61157V4.11157C6.0899 4.11157 3.19922 7.00225 3.19922 10.5681H4.69922ZM9.65574 5.61157C12.3931 5.61157 14.6123 7.83068 14.6123 10.5681H16.1123C16.1123 7.00225 13.2216 4.11157 9.65574 4.11157V5.61157Z" fill="#6200EE"/>
<path d="M22.5983 13.4286V14.2617" stroke="#6200EE" stroke-width="1.5" stroke-linecap="round"/>
<path fill-rule="evenodd" clip-rule="evenodd" d="M8.8363 8.74329C8.61026 8.91272 8.50811 9.11579 8.50811 9.30532C8.50811 9.49526 8.61026 9.69834 8.8363 9.86818C9.06276 10.038 9.39424 10.1553 9.77782 10.1553C9.88662 10.1553 9.99097 10.1986 10.0679 10.2755C10.1448 10.3524 10.1881 10.4568 10.1881 10.5656C10.1881 10.6744 10.1448 10.7787 10.0679 10.8557C9.99097 10.9326 9.88662 10.9758 9.77782 10.9758C9.23383 10.9758 8.72554 10.8109 8.34401 10.5246C7.96248 10.2382 7.68762 9.81156 7.68762 9.30573C7.68762 8.79949 7.96248 8.37284 8.34401 8.08649C8.72554 7.80054 9.23424 7.63563 9.77782 7.63563C10.62 7.63563 11.4163 8.0389 11.733 8.71047C11.756 8.75922 11.7692 8.81203 11.7717 8.86586C11.7743 8.9197 11.7662 8.97352 11.748 9.02424C11.7298 9.07497 11.7018 9.1216 11.6655 9.16149C11.6292 9.20137 11.5855 9.23373 11.5367 9.25671C11.488 9.27968 11.4352 9.29283 11.3813 9.2954C11.3275 9.29797 11.2737 9.28991 11.223 9.27169C11.1722 9.25346 11.1256 9.22542 11.0857 9.18917C11.0458 9.15291 11.0135 9.10916 10.9905 9.06041C10.8469 8.75395 10.3989 8.45612 9.77823 8.45612C9.39465 8.45612 9.06276 8.57344 8.8363 8.74329Z" fill="#6200EE"/>
<path fill-rule="evenodd" clip-rule="evenodd" d="M10.474 12.2993C10.7 12.1362 10.8018 11.9408 10.8018 11.7584C10.8018 11.5756 10.7 11.3798 10.4736 11.2167C10.2475 11.0533 9.91566 10.9404 9.53249 10.9404C9.42369 10.9404 9.31934 10.8988 9.24241 10.8247C9.16547 10.7507 9.12225 10.6502 9.12225 10.5455C9.12225 10.4408 9.16547 10.3404 9.24241 10.2664C9.31934 10.1923 9.42369 10.1507 9.53249 10.1507C10.0765 10.1507 10.5848 10.3094 10.9663 10.585C11.3478 10.8606 11.6223 11.2712 11.6223 11.758C11.6223 12.2448 11.3478 12.6558 10.9659 12.931C10.5844 13.2066 10.0765 13.3653 9.53249 13.3653C8.69026 13.3653 7.89357 12.9772 7.57727 12.3305C7.53086 12.2358 7.52545 12.1272 7.56223 12.0287C7.59901 11.9301 7.67495 11.8497 7.77337 11.805C7.87178 11.7603 7.98459 11.7551 8.087 11.7905C8.1894 11.8259 8.273 11.899 8.3194 11.9937C8.46381 12.289 8.91179 12.5757 9.53249 12.5757C9.91607 12.5757 10.2475 12.4628 10.474 12.2993ZM9.58911 6.93652C9.69791 6.93652 9.80226 6.97812 9.87919 7.05216C9.95613 7.1262 9.99935 7.22663 9.99935 7.33134V7.72616C9.99935 7.83087 9.95613 7.93129 9.87919 8.00533C9.80226 8.07937 9.69791 8.12097 9.58911 8.12097C9.4803 8.12097 9.37596 8.07937 9.29902 8.00533C9.22209 7.93129 9.17886 7.83087 9.17886 7.72616V7.33134C9.17886 7.22663 9.22209 7.1262 9.29902 7.05216C9.37596 6.97812 9.4803 6.93652 9.58911 6.93652Z" fill="#6200EE"/>
<path fill-rule="evenodd" clip-rule="evenodd" d="M9.69986 12.9686C9.80866 12.9686 9.91301 13.0118 9.98994 13.0888C10.0669 13.1657 10.1101 13.2701 10.1101 13.3789V13.7891C10.1101 13.8979 10.0669 14.0023 9.98994 14.0792C9.91301 14.1561 9.80866 14.1994 9.69986 14.1994C9.59105 14.1994 9.48671 14.1561 9.40977 14.0792C9.33284 14.0023 9.28961 13.8979 9.28961 13.7891V13.3789C9.28961 13.2701 9.33284 13.1657 9.40977 13.0888C9.48671 13.0118 9.59105 12.9686 9.69986 12.9686Z" fill="#6200EE"/>
<path fill-rule="evenodd" clip-rule="evenodd" d="M8.8363 8.74329C8.61026 8.91272 8.50811 9.11579 8.50811 9.30532C8.50811 9.49526 8.61026 9.69834 8.8363 9.86818C9.06276 10.038 9.39424 10.1553 9.77782 10.1553C9.88662 10.1553 9.99097 10.1986 10.0679 10.2755C10.1448 10.3524 10.1881 10.4568 10.1881 10.5656C10.1881 10.6744 10.1448 10.7787 10.0679 10.8557C9.99097 10.9326 9.88662 10.9758 9.77782 10.9758C9.23383 10.9758 8.72554 10.8109 8.34401 10.5246C7.96248 10.2382 7.68762 9.81156 7.68762 9.30573C7.68762 8.79949 7.96248 8.37284 8.34401 8.08649C8.72554 7.80054 9.23424 7.63563 9.77782 7.63563C10.62 7.63563 11.4163 8.0389 11.733 8.71047C11.756 8.75922 11.7692 8.81203 11.7717 8.86586C11.7743 8.9197 11.7662 8.97352 11.748 9.02424C11.7298 9.07497 11.7018 9.1216 11.6655 9.16149C11.6292 9.20137 11.5855 9.23373 11.5367 9.25671C11.488 9.27968 11.4352 9.29283 11.3813 9.2954C11.3275 9.29797 11.2737 9.28991 11.223 9.27169C11.1722 9.25346 11.1256 9.22542 11.0857 9.18917C11.0458 9.15291 11.0135 9.10916 10.9905 9.06041C10.8469 8.75395 10.3989 8.45612 9.77823 8.45612C9.39465 8.45612 9.06276 8.57344 8.8363 8.74329Z" stroke="#6200EE" stroke-width="0.5"/>
<path fill-rule="evenodd" clip-rule="evenodd" d="M10.474 12.2993C10.7 12.1362 10.8018 11.9408 10.8018 11.7584C10.8018 11.5756 10.7 11.3798 10.4736 11.2167C10.2475 11.0533 9.91566 10.9404 9.53249 10.9404C9.42369 10.9404 9.31934 10.8988 9.24241 10.8247C9.16547 10.7507 9.12225 10.6502 9.12225 10.5455C9.12225 10.4408 9.16547 10.3404 9.24241 10.2664C9.31934 10.1923 9.42369 10.1507 9.53249 10.1507C10.0765 10.1507 10.5848 10.3094 10.9663 10.585C11.3478 10.8606 11.6223 11.2712 11.6223 11.758C11.6223 12.2448 11.3478 12.6558 10.9659 12.931C10.5844 13.2066 10.0765 13.3653 9.53249 13.3653C8.69026 13.3653 7.89357 12.9772 7.57727 12.3305C7.53086 12.2358 7.52545 12.1272 7.56223 12.0287C7.59901 11.9301 7.67495 11.8497 7.77337 11.805C7.87178 11.7603 7.98459 11.7551 8.087 11.7905C8.1894 11.8259 8.273 11.899 8.3194 11.9937C8.46381 12.289 8.91179 12.5757 9.53249 12.5757C9.91607 12.5757 10.2475 12.4628 10.474 12.2993ZM9.58911 6.93652C9.69791 6.93652 9.80226 6.97812 9.87919 7.05216C9.95613 7.1262 9.99935 7.22663 9.99935 7.33134V7.72616C9.99935 7.83087 9.95613 7.93129 9.87919 8.00533C9.80226 8.07937 9.69791 8.12097 9.58911 8.12097C9.4803 8.12097 9.37596 8.07937 9.29902 8.00533C9.22209 7.93129 9.17886 7.83087 9.17886 7.72616V7.33134C9.17886 7.22663 9.22209 7.1262 9.29902 7.05216C9.37596 6.97812 9.4803 6.93652 9.58911 6.93652Z" stroke="#6200EE" stroke-width="0.5"/>
<path fill-rule="evenodd" clip-rule="evenodd" d="M9.69986 12.9686C9.80866 12.9686 9.91301 13.0118 9.98994 13.0888C10.0669 13.1657 10.1101 13.2701 10.1101 13.3789V13.7891C10.1101 13.8979 10.0669 14.0023 9.98994 14.0792C9.91301 14.1561 9.80866 14.1994 9.69986 14.1994C9.59105 14.1994 9.48671 14.1561 9.40977 14.0792C9.33284 14.0023 9.28961 13.8979 9.28961 13.7891V13.3789C9.28961 13.2701 9.33284 13.1657 9.40977 13.0888C9.48671 13.0118 9.59105 12.9686 9.69986 12.9686Z" stroke="#6200EE" stroke-width="0.5"/>
</svg>
