<svg width="16" height="16" viewBox="0 0 16 16" fill="none" xmlns="http://www.w3.org/2000/svg">
<path d="M14.36 7.52001V4.37001C14.36 3.62001 13.76 3.02001 13.01 3.02001H12.08L11.15 1.31002C11 1.04002 10.73 0.890015 10.43 0.890015C10.28 0.890015 10.16 0.920015 10.04 0.980015L6.40998 2.99001H2.32998C1.57998 2.99001 0.97998 3.59001 0.97998 4.34001V13.7C0.97998 14.45 1.57998 15.05 2.32998 15.05H12.98C13.73 15.05 14.33 14.45 14.33 13.7V11H15.02V7.52001H14.36ZM12.98 3.56001C13.4 3.56001 13.73 3.89001 13.79 4.28001H12.77L12.38 3.56001H12.98ZM5.20998 4.28001L10.25 1.46002C10.37 1.40002 10.55 1.43001 10.61 1.58001L12.11 4.28001H12.08L12.11 4.34001H5.20998L5.32998 4.28001H5.20998ZM14.48 10.43H11.81C11.18 10.43 10.67 9.92001 10.67 9.29001V9.20001C10.67 8.57001 11.18 8.06001 11.81 8.06001H14.48V10.43Z" fill="#217DC1"/>
</svg>
