<svg width="411" height="67" viewBox="0 0 411 67" fill="none" xmlns="http://www.w3.org/2000/svg">
<path d="M178.987 38.5522H141.659C140.428 38.5522 139.471 39.5094 139.471 40.7399V54.4129C139.471 55.6435 140.428 56.6006 141.659 56.6006H178.987C180.218 56.6006 181.175 55.6435 181.175 54.4129V40.7399C181.175 39.5094 180.218 38.5522 178.987 38.5522ZM175.842 49.9008V52.0885C175.842 52.362 175.569 52.6354 175.159 52.6354H162.989V49.9008H175.842ZM175.842 43.4745V45.6622H162.989V42.9276H175.159C175.569 42.9276 175.842 43.2011 175.842 43.4745ZM157.793 49.9008V52.6354H145.487C145.214 52.6354 145.077 52.4987 145.077 52.0885V49.7641H157.793V49.9008ZM157.793 42.9276V45.6622H144.94V43.3378C144.94 43.0643 145.351 42.9276 145.351 42.9276H157.793Z" fill="#005AAA"/>
<path d="M143.705 28.0363V35.0095C143.705 35.9666 144.525 36.787 145.482 36.787H175.017C175.974 36.787 176.795 35.9666 176.795 35.0095V28.0363C176.795 27.0792 175.974 26.2588 175.017 26.2588H145.482C144.525 26.2588 143.705 27.0792 143.705 28.0363ZM171.462 30.6341V32.4116C171.462 32.5484 171.325 32.6851 171.188 32.6851H149.311C149.174 32.6851 149.037 32.5484 149.037 32.4116V30.6341C149.037 30.4974 149.174 30.3607 149.311 30.3607H171.188C171.325 30.3607 171.462 30.4974 171.462 30.6341Z" fill="#005AAA"/>
<path d="M173.425 24.1922C174.108 24.1922 174.655 23.6453 174.655 22.9617V21.4576C174.655 20.774 174.108 20.2271 173.425 20.2271H147.308C146.625 20.2271 146.078 20.774 146.078 21.4576V22.9617C146.078 23.6453 146.625 24.1922 147.308 24.1922H173.425Z" fill="#005AAA"/>
<path d="M181.158 13.6546H163.793C162.972 12.424 161.878 10.0996 161.878 10.0996H155.042C155.042 10.0996 156.546 12.9709 156.956 13.6546H139.591C138.633 13.6546 137.813 14.475 137.813 15.4321V23.089C137.813 23.7726 138.36 24.3195 139.044 24.3195H141.915C142.599 24.3195 143.146 23.7726 143.146 23.089V18.5769C143.146 18.4402 143.556 18.1667 143.556 18.1667H176.509C176.782 18.1667 177.193 18.4401 177.193 18.7136V23.089C177.193 23.7726 177.74 24.3195 178.423 24.3195H181.295C181.978 24.3195 182.525 23.7726 182.525 23.089V15.4321C182.799 14.475 182.115 13.6546 181.158 13.6546Z" fill="#005AAA"/>
<path d="M128.955 55.9129C125.399 52.4946 121.434 47.2989 119.246 43.3337C122.801 36.6339 124.579 31.3015 125.263 24.3283H127.997C128.818 24.3283 129.365 23.6446 129.365 22.961V21.3202C129.365 20.4998 128.681 19.9529 127.997 19.9529H114.461C115.008 18.0387 115.281 16.2612 115.691 14.6204C115.828 14.0735 115.965 13.6633 115.965 13.1164C116.101 12.4327 116.375 11.0654 116.375 11.0654V10.9287H111.042L110.905 11.3389C109.675 18.3121 107.624 24.465 104.752 29.524L104.616 29.6607C103.522 26.9261 102.701 24.1915 102.291 21.7304L102.154 21.3202H97.0952L97.232 21.8671C97.6422 24.3282 98.7361 27.8832 99.5565 30.3444L99.6932 30.7546H87.934L94.7708 17.6285H104.616C105.436 17.6285 105.983 16.9448 105.983 16.2612V14.6204C105.983 13.8 105.299 13.2531 104.616 13.2531H83.1483C82.3279 13.2531 81.7809 13.9368 81.7809 14.6204V16.2612C81.7809 17.0816 82.4646 17.6285 83.1483 17.6285H88.8911L82.1911 30.2076C81.6442 31.3015 81.6442 32.6688 82.1911 33.6259C82.7381 34.7197 83.8319 35.4034 85.0626 35.4034H90.8054V40.3257H84.6523C83.8319 40.3257 83.285 41.0093 83.285 41.693V43.3337C83.285 44.1541 83.9687 44.701 84.6523 44.701H90.8054V50.7171C88.2075 51.1273 83.1483 51.5375 80.9605 51.811H80.5503V57.0067L81.7809 56.87C89.0279 55.9129 98.0524 54.6823 105.026 53.0416L105.436 52.9048V48.256L104.889 48.3927C102.428 48.9396 99.4197 49.4866 97.232 49.76L96.4116 49.8968V44.701H102.154C102.701 44.701 103.112 44.1541 103.112 43.3337V41.693C103.112 40.8726 102.701 40.3257 102.154 40.3257H96.685V35.4034H99.9667L100.787 33.3524C101.061 34.1728 101.608 35.2667 101.608 35.2667V35.4034H107.35L107.214 35.2667C107.214 35.2667 105.71 31.9851 105.026 30.3444H109.128C109.948 34.8565 111.452 39.0951 113.367 43.197C111.042 47.0254 106.803 52.6314 102.701 56.1863L101.744 57.0067H109.401L109.538 56.87C111.589 54.9558 113.367 52.4946 115.144 50.0335C115.554 49.4866 115.828 49.0764 116.238 48.5295C117.742 51.1273 119.93 54.2721 122.118 56.7333L122.255 56.87H129.775L128.955 55.9129ZM120.203 24.3283C119.657 29.524 118.289 33.079 116.648 37.0441C115.418 33.7626 114.324 30.7546 113.777 26.9261L113.64 26.5159H112.136C112.136 26.3792 112.273 26.2425 112.273 26.1057C112.546 25.5588 112.957 24.7384 113.23 24.3283H120.203Z" fill="#005AAA"/>
<path d="M283.182 29.6546C283.182 30.2015 282.772 30.6117 282.225 30.6117H260.894C260.347 30.6117 259.937 30.2015 259.937 29.6546V15.0245C259.937 14.4776 259.527 14.0674 258.98 14.0674H251.459C250.912 14.0674 250.502 14.4776 250.502 15.0245V55.77C250.502 56.317 250.912 56.7271 251.459 56.7271H258.98C259.527 56.7271 259.937 56.317 259.937 55.77V39.6359C259.937 39.089 260.347 38.6788 260.894 38.6788H282.225C282.772 38.6788 283.182 39.089 283.182 39.6359V55.77C283.182 56.317 283.592 56.7271 284.139 56.7271H291.659C292.206 56.7271 292.617 56.317 292.617 55.77V15.0245C292.617 14.4776 292.206 14.0674 291.659 14.0674H284.139C283.592 14.0674 283.182 14.4776 283.182 15.0245V29.6546Z" fill="#005AAA"/>
<path d="M304.678 55.6333C304.678 56.1802 305.088 56.5904 305.635 56.5904H313.156C313.702 56.5904 314.113 56.1802 314.113 55.6333V15.0245C314.113 14.4776 313.702 14.0674 313.156 14.0674H305.635C305.088 14.0674 304.678 14.4776 304.678 15.0245V55.6333Z" fill="#005AAA"/>
<path d="M325.951 55.6333C325.951 56.1802 326.362 56.5904 326.909 56.5904H361.229C361.776 56.5904 362.186 56.1802 362.186 55.6333V49.6172C362.186 49.0703 361.776 48.6601 361.229 48.6601H336.343C335.796 48.6601 335.386 48.2499 335.386 47.7029V39.4991C335.386 38.9522 335.796 38.542 336.343 38.542H356.443C356.99 38.542 357.4 38.1319 357.4 37.5849V31.5688C357.4 31.0219 356.99 30.6117 356.443 30.6117H336.343C335.796 30.6117 335.386 30.2015 335.386 29.6546V22.9548C335.386 22.4079 335.796 21.9977 336.343 21.9977H361.229C361.776 21.9977 362.186 21.5875 362.186 21.0406V15.0245C362.186 14.4776 361.776 14.0674 361.229 14.0674H326.909C326.362 14.0674 325.951 14.4776 325.951 15.0245V55.6333Z" fill="#005AAA"/>
<path d="M409.233 21.9977C409.78 21.9977 410.19 21.5875 410.19 21.0406V15.0245C410.19 14.4776 409.78 14.0674 409.233 14.0674H374.912C374.365 14.0674 373.955 14.4776 373.955 15.0245V55.77C373.955 56.317 374.365 56.7271 374.912 56.7271H382.433C382.98 56.7271 383.39 56.317 383.39 55.77V39.6359C383.39 39.089 383.8 38.6788 384.347 38.6788H404.447C404.994 38.6788 405.404 38.2686 405.404 37.7217V31.7055C405.404 31.1586 404.994 30.7484 404.447 30.7484H384.347C383.8 30.7484 383.39 30.3383 383.39 29.7913V23.0916C383.39 22.5446 383.8 22.1344 384.347 22.1344H409.233V21.9977Z" fill="#005AAA"/>
<path d="M229.983 42.9366C229.573 42.9366 229.026 43.0734 228.752 43.4836C226.018 46.6284 221.779 48.6793 217.13 48.6793C208.926 48.6793 202.226 42.5265 202.226 35.0063C202.226 27.4862 208.926 21.3333 217.13 21.3333C222.599 21.3333 227.248 23.9312 229.846 27.8963C230.12 28.4433 230.667 28.7167 231.214 28.7167H240.785L240.648 28.3065C239.144 23.6577 235.999 19.4191 231.897 16.5478C227.522 13.5397 222.463 11.8989 216.993 11.8989C203.32 11.8989 192.244 22.2904 192.244 35.0063C192.244 47.7222 203.32 58.1137 216.993 58.1137C227.248 58.1137 236.273 52.371 239.965 43.3468L240.101 42.9366H229.983Z" fill="#005AAA"/>
<path fill-rule="evenodd" clip-rule="evenodd" d="M56.7801 34.9905C56.2331 37.0414 54.3188 38.6822 51.9943 38.6822C49.2596 38.6822 47.0719 36.4945 47.0719 33.7599C47.0719 31.0253 49.2596 28.8376 51.9943 28.8376C54.1821 28.8376 55.9597 30.2049 56.6433 32.2559H65.5311C64.7107 25.4194 58.9678 20.0869 51.8576 20.0869C44.3372 20.0869 38.1841 26.2398 38.1841 33.7599C38.1841 41.2801 44.3372 47.4329 51.8576 47.4329C58.9678 47.4329 64.8474 41.9637 65.5311 34.9905H56.7801Z" fill="#B9964B"/>
<path fill-rule="evenodd" clip-rule="evenodd" d="M61.4023 47.0193C61.2655 47.156 61.2655 47.156 61.4023 47.0193C58.6676 49.0702 55.2492 50.1641 51.6941 50.1641C42.5328 50.1641 35.0124 42.7807 35.0124 33.483C35.0124 24.3221 42.3961 16.802 51.6941 16.802C55.3859 16.802 58.6676 18.0326 61.4023 19.9468C61.4023 19.9468 61.539 19.9468 61.539 19.81C57.9839 16.2551 53.1982 14.0674 47.7288 14.0674C37.0634 14.0674 28.3124 22.6814 28.3124 33.483C28.3124 44.148 36.9267 52.8987 47.7288 52.8987C53.0614 52.8987 57.9839 50.711 61.539 47.156C61.4023 47.2928 61.4023 47.156 61.4023 47.0193C61.4023 47.156 61.4023 47.156 61.4023 47.0193Z" fill="#B9964B"/>
<path fill-rule="evenodd" clip-rule="evenodd" d="M61.3977 49.3403C57.4323 52.8953 52.3731 55.083 46.6303 55.083C34.7343 55.083 25.0261 45.3751 25.0261 33.4796C25.0261 21.5841 34.7343 11.8763 46.6303 11.8763C52.2364 11.8763 57.4324 14.064 61.2609 17.619C56.6119 11.7396 49.365 8.04785 41.2976 8.04785C27.2139 8.04785 15.8649 19.3965 15.8649 33.4796C15.8649 47.5628 27.2139 58.9114 41.2976 58.9114C49.5017 59.0482 56.7487 55.3564 61.3977 49.3403Z" fill="#B9964B"/>
<path fill-rule="evenodd" clip-rule="evenodd" d="M61.3941 52.0941C61.2573 52.0941 61.2573 52.0941 61.2573 52.0941C56.0614 57.9735 48.541 61.6652 40.2001 61.6652C24.7491 61.6652 12.1694 49.0861 12.1694 33.6356C12.1694 18.1851 24.7491 5.60594 40.2001 5.60594C48.6777 5.60594 56.1981 9.29765 61.2573 15.177C61.2573 15.177 61.3941 15.177 61.3941 15.0403C55.3777 6.01612 45.1226 0 33.5001 0C15.0409 0 0 15.0403 0 33.4988C0 51.9574 15.0409 66.9977 33.5001 66.9977C45.1226 67.1344 55.3777 61.1183 61.3941 52.0941Z" fill="#B9964B"/>
</svg>
