<svg width="50" height="50" viewBox="0 0 50 50" fill="none" xmlns="http://www.w3.org/2000/svg">
<path d="M25 46C36.598 46 46 36.598 46 25C46 13.402 36.598 4 25 4C13.402 4 4 13.402 4 25C4 36.598 13.402 46 25 46Z" fill="#4D4D4D"/>
<path d="M25.9934 19.4283L34.5871 28.474C35.1376 29.0535 35.1376 29.9858 34.5871 30.5654C34.0365 31.1449 33.1508 31.1449 32.6002 30.5654L25.012 22.5528L17.3998 30.5654C16.8492 31.1449 15.9635 31.1449 15.4129 30.5654C14.8624 29.9858 14.8624 29.0535 15.4129 28.474L24.0066 19.4283C24.2699 19.1512 24.629 19 24.988 19C25.371 19 25.7301 19.1512 25.9934 19.4283Z" fill="#83BD3F"/>
</svg>
