<svg width="50" height="50" viewBox="0 0 50 50" fill="none" xmlns="http://www.w3.org/2000/svg">
<path d="M25 46C36.598 46 46 36.598 46 25C46 13.402 36.598 4 25 4C13.402 4 4 13.402 4 25C4 36.598 13.402 46 25 46Z" fill="#EDEEEE"/>
<path d="M25.9934 19.4283L34.5871 28.474C35.1376 29.0535 35.1376 29.9858 34.5871 30.5653C34.0365 31.1448 33.1508 31.1448 32.6002 30.5653L25.012 22.5527L17.3998 30.5653C16.8492 31.1448 15.9635 31.1448 15.4129 30.5653C14.8624 29.9858 14.8624 29.0535 15.4129 28.474L24.0066 19.4283C24.2699 19.1511 24.629 18.9999 24.988 18.9999C25.371 18.9999 25.7301 19.1511 25.9934 19.4283Z" fill="#83BD3F"/>
</svg>
