<svg width="32" height="33" viewBox="0 0 32 33" fill="none" xmlns="http://www.w3.org/2000/svg">
<circle cx="15.52" cy="15.8989" r="10.52" stroke="#FF337C" stroke-width="1.5" stroke-linecap="round" stroke-linejoin="round"/>
<path d="M23.3746 23.152L27 26.7774" stroke="#FF337C" stroke-width="1.5" stroke-linecap="round" stroke-linejoin="round"/>
<path d="M18.2949 11.2042H19.8457V9.70422H18.2949V11.2042ZM18.0449 11.6222V11.4542H16.5449V11.6222H18.0449ZM16.2949 11.8722H14.7441V13.3722H16.2949V11.8722ZM12.9941 13.6222V13.9044H14.4941V13.6222H12.9941ZM12.7441 14.1544H11.1934V15.6544H12.7441V14.1544ZM9.44336 15.9044V19.1173H10.9434V15.9044H9.44336ZM11.1934 20.8673H13.7441V19.3673H11.1934V20.8673ZM13.7441 20.8673H17.2949V19.3673H13.7441V20.8673ZM19.8457 19.3673H17.2949V20.8673H19.8457V19.3673ZM20.0957 11.4542V19.1173H21.5957V11.4542H20.0957ZM19.8457 20.8673C20.8122 20.8673 21.5957 20.0838 21.5957 19.1173H20.0957C20.0957 19.2554 19.9838 19.3673 19.8457 19.3673V20.8673ZM9.44336 19.1173C9.44336 20.0838 10.2269 20.8673 11.1934 20.8673V19.3673C11.0553 19.3673 10.9434 19.2554 10.9434 19.1173H9.44336ZM11.1934 14.1544C10.2269 14.1544 9.44336 14.9379 9.44336 15.9044H10.9434C10.9434 15.7663 11.0553 15.6544 11.1934 15.6544V14.1544ZM12.9941 13.9044C12.9941 14.0425 12.8822 14.1544 12.7441 14.1544V15.6544C13.7106 15.6544 14.4941 14.8709 14.4941 13.9044H12.9941ZM14.7441 11.8722C13.7776 11.8722 12.9941 12.6557 12.9941 13.6222H14.4941C14.4941 13.4841 14.6061 13.3722 14.7441 13.3722V11.8722ZM16.5449 11.6222C16.5449 11.7603 16.433 11.8722 16.2949 11.8722V13.3722C17.2614 13.3722 18.0449 12.5887 18.0449 11.6222H16.5449ZM19.8457 11.2042C19.9838 11.2042 20.0957 11.3162 20.0957 11.4542H21.5957C21.5957 10.4877 20.8122 9.70422 19.8457 9.70422V11.2042ZM18.2949 9.70422C17.3284 9.70422 16.5449 10.4877 16.5449 11.4542H18.0449C18.0449 11.3162 18.1569 11.2042 18.2949 11.2042V9.70422Z" fill="#FF337C"/>
<path d="M13.7266 14.2657L13.7266 20.1173" stroke="#FF337C" stroke-width="1.5" stroke-linecap="round" stroke-linejoin="round"/>
<path d="M17.3047 11.3488L17.1119 19.7657" stroke="#FF337C" stroke-width="1.5" stroke-linecap="round" stroke-linejoin="round"/>
</svg>
