<svg width="20" height="20" viewBox="0 0 20 20" fill="none" xmlns="http://www.w3.org/2000/svg">
<g clip-path="url(#clip0_4246_20866)">
<path fill-rule="evenodd" clip-rule="evenodd" d="M0 0H20V20H0V0Z" fill="#00247D"/>
<path d="M15.4841 6.052V6.58905L16.5582 6.052H15.4841Z" fill="white"/>
<path d="M15.699 6.69646L15.4841 6.26682L16.5582 6.052L15.699 6.69646Z" fill="white"/>
<path d="M15.4841 6.052V6.58905L14.41 6.052H15.4841Z" fill="white"/>
<path d="M15.2693 6.69646L15.4841 6.26682L14.41 6.052L15.2693 6.69646Z" fill="white"/>
<path d="M15.7905 6.27466L15.2798 6.44062L16.1224 7.29619L15.7905 6.27466Z" fill="white"/>
<path d="M15.244 6.67811L15.5862 6.34104L16.1224 7.29619L15.244 6.67811Z" fill="white"/>
<path d="M15.1777 6.27466L15.6885 6.44062L15.5096 5.25313L15.1777 6.27466Z" fill="white"/>
<path d="M15.857 6.2695L15.382 6.34104L15.5096 5.25313L15.857 6.2695Z" fill="white"/>
<path d="M15.1777 6.27466L15.6885 6.44062L14.8458 7.29619L15.1777 6.27466Z" fill="white"/>
<path d="M15.7243 6.67811L15.382 6.34104L14.8458 7.29619L15.7243 6.67811Z" fill="white"/>
<path d="M15.4841 6.16125V6.51613L16.1939 6.16125H15.4841Z" fill="#CC142B"/>
<path d="M15.6261 6.58711L15.4841 6.30321L16.1939 6.16125L15.6261 6.58711Z" fill="#CC142B"/>
<path d="M15.4841 6.16125V6.51613L14.7744 6.16125H15.4841Z" fill="#CC142B"/>
<path d="M15.3422 6.58711L15.4841 6.30321L14.7744 6.16125L15.3422 6.58711Z" fill="#CC142B"/>
<path d="M15.6865 6.30835L15.349 6.41801L15.9059 6.98337L15.6865 6.30835Z" fill="#CC142B"/>
<path d="M15.3254 6.57495L15.5515 6.35222L15.9059 6.98337L15.3254 6.57495Z" fill="#CC142B"/>
<path d="M15.2817 6.30835L15.6192 6.41801L15.5011 5.63333L15.2817 6.30835Z" fill="#CC142B"/>
<path d="M15.7306 6.30494L15.4167 6.35222L15.5011 5.63333L15.7306 6.30494Z" fill="#CC142B"/>
<path d="M15.2817 6.30835L15.6192 6.41801L15.0624 6.98337L15.2817 6.30835Z" fill="#CC142B"/>
<path d="M15.6429 6.57495L15.4167 6.35222L15.0624 6.98337L15.6429 6.57495Z" fill="#CC142B"/>
<path d="M18.2979 8.53186L18.2979 9.00976L19.2537 8.53186L18.2979 8.53186Z" fill="white"/>
<path d="M18.489 9.10534L18.2979 8.72302L19.2537 8.53186L18.489 9.10534Z" fill="white"/>
<path d="M18.2979 8.53186L18.2979 9.00976L17.342 8.53186L18.2979 8.53186Z" fill="white"/>
<path d="M18.1067 9.10534L18.2979 8.72302L17.342 8.53186L18.1067 9.10534Z" fill="white"/>
<path d="M18.5706 8.72998L18.116 8.87766L18.8659 9.63901L18.5706 8.72998Z" fill="white"/>
<path d="M18.0842 9.089L18.3888 8.78905L18.8659 9.63901L18.0842 9.089Z" fill="white"/>
<path d="M18.0251 8.72998L18.4797 8.87766L18.3205 7.82095L18.0251 8.72998Z" fill="white"/>
<path d="M18.6296 8.72539L18.207 8.78905L18.3205 7.82095L18.6296 8.72539Z" fill="white"/>
<path d="M18.0251 8.72998L18.4797 8.87766L17.7298 9.63901L18.0251 8.72998Z" fill="white"/>
<path d="M18.5115 9.089L18.207 8.78905L17.7298 9.63901L18.5115 9.089Z" fill="white"/>
<path d="M18.2979 8.64111L18.2979 8.93685L18.8893 8.64111L18.2979 8.64111Z" fill="#CC142B"/>
<path d="M18.4161 8.99599L18.2979 8.75941L18.8893 8.64111L18.4161 8.99599Z" fill="#CC142B"/>
<path d="M18.2979 8.64111L18.2979 8.93685L17.7064 8.64111L18.2979 8.64111Z" fill="#CC142B"/>
<path d="M18.1796 8.99599L18.2979 8.75941L17.7064 8.64111L18.1796 8.99599Z" fill="#CC142B"/>
<path d="M18.4668 8.76379L18.1855 8.85518L18.6496 9.32631L18.4668 8.76379Z" fill="#CC142B"/>
<path d="M18.1658 8.98596L18.3543 8.80035L18.6496 9.32631L18.1658 8.98596Z" fill="#CC142B"/>
<path d="M18.1292 8.76379L18.4104 8.85518L18.3119 8.20128L18.1292 8.76379Z" fill="#CC142B"/>
<path d="M18.5032 8.76095L18.2417 8.80035L18.3119 8.20128L18.5032 8.76095Z" fill="#CC142B"/>
<path d="M18.1292 8.76379L18.4104 8.85518L17.9464 9.32631L18.1292 8.76379Z" fill="#CC142B"/>
<path d="M18.4301 8.98596L18.2417 8.80035L17.9464 9.32631L18.4301 8.98596Z" fill="#CC142B"/>
<path d="M12.2056 9.35364L12.2056 9.89069L13.2797 9.35364L12.2056 9.35364Z" fill="white"/>
<path d="M12.4204 9.9981L12.2056 9.56846L13.2797 9.35364L12.4204 9.9981Z" fill="white"/>
<path d="M12.2056 9.35364L12.2056 9.89069L11.1315 9.35364L12.2056 9.35364Z" fill="white"/>
<path d="M11.9907 9.9981L12.2056 9.56846L11.1315 9.35364L11.9907 9.9981Z" fill="white"/>
<path d="M12.512 9.57629L12.0012 9.74225L12.8439 10.5978L12.512 9.57629Z" fill="white"/>
<path d="M11.9654 9.97975L12.3077 9.64268L12.8439 10.5978L11.9654 9.97975Z" fill="white"/>
<path d="M11.8992 9.57629L12.4099 9.74225L12.2311 8.55476L11.8992 9.57629Z" fill="white"/>
<path d="M12.5785 9.57114L12.1035 9.64268L12.2311 8.55476L12.5785 9.57114Z" fill="white"/>
<path d="M11.8992 9.57629L12.4099 9.74225L11.5673 10.5978L11.8992 9.57629Z" fill="white"/>
<path d="M12.4457 9.97975L12.1035 9.64268L11.5673 10.5978L12.4457 9.97975Z" fill="white"/>
<path d="M12.2056 9.46301L12.2056 9.81789L12.9153 9.46301L12.2056 9.46301Z" fill="#CC142B"/>
<path d="M12.3475 9.88887L12.2056 9.60496L12.9153 9.46301L12.3475 9.88887Z" fill="#CC142B"/>
<path d="M12.2056 9.46301L12.2056 9.81789L11.4958 9.46301L12.2056 9.46301Z" fill="#CC142B"/>
<path d="M12.0636 9.88887L12.2056 9.60496L11.4958 9.46301L12.0636 9.88887Z" fill="#CC142B"/>
<path d="M12.408 9.61011L12.0704 9.71977L12.6273 10.2851L12.408 9.61011Z" fill="#CC142B"/>
<path d="M12.0468 9.87671L12.273 9.65397L12.6273 10.2851L12.0468 9.87671Z" fill="#CC142B"/>
<path d="M12.0029 9.61011L12.3404 9.71977L12.2223 8.93509L12.0029 9.61011Z" fill="#CC142B"/>
<path d="M12.4518 9.6067L12.1379 9.65397L12.2223 8.93509L12.4518 9.6067Z" fill="#CC142B"/>
<path d="M12.0029 9.61011L12.3404 9.71977L11.7836 10.2851L12.0029 9.61011Z" fill="#CC142B"/>
<path d="M12.3641 9.87671L12.1379 9.65397L11.7836 10.2851L12.3641 9.87671Z" fill="#CC142B"/>
<path d="M15.4841 14.5336V15.1298L16.6765 14.5336H15.4841Z" fill="white"/>
<path d="M15.7226 15.249L15.4841 14.772L16.6765 14.5336L15.7226 15.249Z" fill="white"/>
<path d="M15.4841 14.5336V15.1298L14.2917 14.5336H15.4841Z" fill="white"/>
<path d="M15.2457 15.249L15.4841 14.772L14.2917 14.5336L15.2457 15.249Z" fill="white"/>
<path d="M15.8245 14.7808L15.2574 14.965L16.1929 15.9148L15.8245 14.7808Z" fill="white"/>
<path d="M15.2177 15.2287L15.5977 14.8545L16.1929 15.9148L15.2177 15.2287Z" fill="white"/>
<path d="M15.144 14.7808L15.7111 14.965L15.5125 13.6467L15.144 14.7808Z" fill="white"/>
<path d="M15.8982 14.775L15.3708 14.8545L15.5125 13.6467L15.8982 14.775Z" fill="white"/>
<path d="M15.144 14.7808L15.7111 14.965L14.7756 15.9148L15.144 14.7808Z" fill="white"/>
<path d="M15.7508 15.2287L15.3708 14.8545L14.7756 15.9148L15.7508 15.2287Z" fill="white"/>
<path d="M15.4841 14.6428V15.0568L16.3122 14.6428H15.4841Z" fill="#CC142B"/>
<path d="M15.6497 15.1397L15.4841 14.8084L16.3122 14.6428L15.6497 15.1397Z" fill="#CC142B"/>
<path d="M15.4841 14.6428V15.0568L14.6561 14.6428H15.4841Z" fill="#CC142B"/>
<path d="M15.3185 15.1397L15.4841 14.8084L14.6561 14.6428L15.3185 15.1397Z" fill="#CC142B"/>
<path d="M15.7205 14.8146L15.3267 14.9425L15.9763 15.6021L15.7205 14.8146Z" fill="#CC142B"/>
<path d="M15.2991 15.1256L15.563 14.8658L15.9763 15.6021L15.2991 15.1256Z" fill="#CC142B"/>
<path d="M15.2478 14.8146L15.6416 14.9425L15.5037 14.0271L15.2478 14.8146Z" fill="#CC142B"/>
<path d="M15.7715 14.8106L15.4053 14.8658L15.5037 14.0271L15.7715 14.8106Z" fill="#CC142B"/>
<path d="M15.2478 14.8146L15.6416 14.9425L14.9919 15.6021L15.2478 14.8146Z" fill="#CC142B"/>
<path d="M15.6691 15.1256L15.4053 14.8658L14.9919 15.6021L15.6691 15.1256Z" fill="#CC142B"/>
<path d="M0 0H10V10H0V0Z" fill="#012169"/>
<path d="M10 0V1.25L6.28906 5L10 8.65234V10H8.69141L4.96094 6.32812L1.32812 10H0V8.67188L3.63281 5.01953L0 1.44531V0H1.21094L4.96094 3.67188L8.59375 0H10Z" fill="white"/>
<path d="M3.59375 6.32812L3.80859 6.99219L0.820312 10H0V9.94141L3.59375 6.32812ZM6.01562 6.09375L7.07031 6.25L10 9.12109V10L6.01562 6.09375ZM10 0L6.25 3.82812L6.17188 2.96875L9.10156 0H10ZM0 0.0195312L3.76953 3.71094L2.61719 3.55469L0 0.957031V0.0195312Z" fill="#C8102E"/>
<path d="M3.4375 0V10H6.5625V0H3.4375ZM0 3.4375V6.5625H10V3.4375H0Z" fill="white"/>
<path d="M0 4.0625V5.9375H10V4.0625H0ZM4.0625 0V10H5.9375V0H4.0625Z" fill="#C8102E"/>
</g>
<defs>
<clipPath id="clip0_4246_20866">
<rect width="20" height="20" rx="10" fill="white"/>
</clipPath>
</defs>
</svg>
