<svg width="22" height="22" viewBox="0 0 22 22" fill="none" xmlns="http://www.w3.org/2000/svg">
<path d="M5.57099 3.06384C6.09339 3.06384 8.18298 7.70913 8.18298 8.22528C8.18298 9.25756 6.61579 10.2899 6.09339 11.3221C5.57099 12.3544 6.61579 13.3867 7.66059 14.419C8.06806 14.8216 9.75018 16.4836 10.795 15.9674C11.8398 15.4513 12.8846 13.9029 13.9294 13.9029C14.4518 13.9029 19.1534 15.9674 19.1534 16.4836C19.1534 18.5481 17.5862 20.0966 16.019 20.6127C14.4518 21.1289 13.407 21.1289 11.3174 20.6127C9.22778 20.0966 7.66059 19.5804 5.04859 16.9997C2.4366 14.419 1.9142 12.8706 1.3918 10.806C0.8694 8.74142 0.8694 7.70913 1.3918 6.1607C1.9142 4.61227 3.48139 3.06384 5.57099 3.06384Z" stroke="#FF337C" stroke-width="1.5" stroke-linecap="round" stroke-linejoin="round"/>
<path d="M20.9128 9.9885C21.0669 8.96735 21.0163 7.92192 20.7612 6.91672C20.4243 5.58882 19.7302 4.33126 18.6792 3.29282C17.6281 2.25439 16.3553 1.56869 15.0114 1.23573C13.994 0.983672 12.9359 0.933753 11.9023 1.08597" stroke="#FF337C" stroke-width="1.5" stroke-linecap="round" stroke-linejoin="round"/>
<path d="M16.2866 9.50495C16.4516 8.41105 16.108 7.2567 15.2557 6.41463C14.4034 5.57256 13.235 5.233 12.1279 5.39606" stroke="#FF337C" stroke-width="1.5" stroke-linecap="round" stroke-linejoin="round"/>
</svg>
