<svg width="80" height="80" viewBox="0 0 80 80" fill="none" xmlns="http://www.w3.org/2000/svg">
<path d="M57.5 50.5L52.1 55.9C51.3 53.9 49.4 52.5 47.2 52.5H41.5C40.7 52.5 40.3 52.1 39.5 51.3C36.9 49.1 33.5 48 30.1 48.3C27 48.6 24.1 50.1 22 52.5H15.2C14.2 52.5 13.4 53.3 13.4 54.3V68.4C13.4 69.4 14.2 70.2 15.2 70.2C16.7 70.2 49.1 70.2 50.6 70.2C52 70.2 53.3 69.7 54.3 68.7L64.8 58.2C66.9 56.1 66.9 52.8 64.8 50.7C62.9 48.4 59.5 48.4 57.5 50.5ZM17 55.9H20.8V66.4H17V55.9ZM62.5 55.4L51.9 66C51.6 66.3 51.1 66.5 50.7 66.5C50.1 66.5 24.9 66.5 24.3 66.5V55.2C25.8 53.2 28 52 30.5 51.7C32.9 51.5 35.4 52.2 37.2 53.8C38.1 54.6 39.3 55.8 41.5 55.8H47.2C48.2 55.8 49 56.6 49 57.6C49 58.6 48.2 59.4 47.2 59.4H40C38.3 59.4 36.7 60.2 35.7 61.6C35.1 62.4 35.3 63.5 36.1 64.1C36.9 64.7 38 64.5 38.6 63.7C38.9 63.2 39.5 63 40 63C41.9 63 47.3 63 49.2 63C49.7 63 50.1 62.8 50.4 62.5L59.9 53C60.6 52.3 61.7 52.3 62.4 53C63.1 53.6 63.1 54.7 62.5 55.4Z" fill="#02509F"/>
<path d="M68.2 41.9H66.4C65.6 29.6 56.5 19.7 44.9 17.5C45.2 16.8 45.4 16.1 45.4 15.3C45.4 12.4 43 10 40.1 10C37.2 10 34.8 12.4 34.8 15.3C34.8 16.1 35 16.8 35.3 17.5C23.7 19.6 14.4 29.6 13.6 41.9H11.8C10.8 41.9 10 42.7 10 43.7C10 44.7 10.8 45.5 11.8 45.5H68.3C69.3 45.5 70.1 44.7 70.1 43.7C70.1 42.7 69.2 41.9 68.2 41.9ZM38.4 15.3C38.4 14.3 39.2 13.5 40.2 13.5C41.2 13.5 42 14.3 42 15.3C42 16.3 41.1 17 40.1 17C39.1 17 38.4 16.2 38.4 15.3ZM40.1 20.5C52.1 20.5 62 29.9 62.9 41.9H17.1C18 30.1 28.2 20.5 40.1 20.5Z" fill="#02509F"/>
</svg>
