<svg width="50" height="50" viewBox="0 0 50 50" fill="none" xmlns="http://www.w3.org/2000/svg">
<path d="M25 46C36.598 46 46 36.598 46 25C46 13.402 36.598 4 25 4C13.402 4 4 13.402 4 25C4 36.598 13.402 46 25 46Z" fill="#4D4D4D"/>
<path d="M23.9958 30.5717L15.4124 21.526C14.8625 20.9465 14.8625 20.0142 15.4124 19.4346C15.9623 18.8551 16.847 18.8551 17.3969 19.4346L25 27.4472L32.6031 19.4346C33.153 18.8551 34.0377 18.8551 34.5876 19.4346C35.1375 20.0142 35.1375 20.9465 34.5876 21.526L26.0042 30.5717C25.7412 30.8488 25.3825 31 25.0239 31C24.6175 31 24.2588 30.8488 23.9958 30.5717Z" fill="#FF3042"/>
</svg>
