<svg width="50" height="50" viewBox="0 0 50 50" fill="none" xmlns="http://www.w3.org/2000/svg">
<path d="M25 46C36.598 46 46 36.598 46 25C46 13.402 36.598 4 25 4C13.402 4 4 13.402 4 25C4 36.598 13.402 46 25 46Z" fill="#EDEEEE"/>
<path d="M23.9958 30.5717L15.4124 21.526C14.8625 20.9465 14.8625 20.0142 15.4124 19.4347C15.9623 18.8552 16.847 18.8552 17.3969 19.4347L25 27.4473L32.6031 19.4347C33.153 18.8552 34.0377 18.8552 34.5876 19.4347C35.1375 20.0142 35.1375 20.9465 34.5876 21.526L26.0042 30.5717C25.7412 30.8489 25.3825 31.0001 25.0239 31.0001C24.6175 31.0001 24.2588 30.8489 23.9958 30.5717Z" fill="#FF3042"/>
</svg>
