<svg width="64" height="64" viewBox="0 0 64 64" fill="none" xmlns="http://www.w3.org/2000/svg">
<g clip-path="url(#clip0_59765_5366)">
<path d="M50.2435 15.5795L30.2728 7.30513C29.9643 7.16489 29.6277 7.16489 29.3191 7.30513L9.37646 15.5795C8.89963 15.7759 8.61914 16.2246 8.61914 16.7295V19.2259C8.61914 19.899 9.18012 20.46 9.85329 20.46H49.7667C50.4399 20.46 51.0009 19.899 51.0009 19.2259V16.7295C51.0009 16.2246 50.6923 15.7759 50.2435 15.5795ZM37.2569 16.7295H22.363C21.6899 16.7295 21.1289 16.1685 21.1289 15.4954C21.1289 14.8222 21.6899 14.2612 22.363 14.2612H37.2569C37.9301 14.2612 38.4911 14.8222 38.4911 15.4954C38.4911 16.1685 37.9301 16.7295 37.2569 16.7295Z" fill="#FFF4DE"/>
<path d="M10.9756 38.4393V40.9356H20.4841V38.4393C20.4841 37.7661 19.9231 37.2051 19.25 37.2051H12.2097C11.5366 37.1771 10.9756 37.738 10.9756 38.4393Z" fill="#FFF4DE"/>
<path d="M18.8287 21.8625H12.6299V35.7186H18.8287V21.8625Z" fill="#FFF4DE"/>
<path d="M25.0557 38.4393V40.9356H34.5642V38.4393C34.5642 37.7661 34.0032 37.2051 33.3301 37.2051H26.2898C25.5886 37.1771 25.0557 37.738 25.0557 38.4393Z" fill="#FFF4DE"/>
<path d="M32.9097 21.8625H26.7109V35.7186H32.9097V21.8625Z" fill="#FFF4DE"/>
<path d="M50.946 40.4872C51.8155 40.8519 52.6289 41.3567 53.3862 41.9458V37.7384C53.3862 34.2323 50.5252 31.3994 47.0472 31.3994H46.9631C43.457 31.3994 40.624 34.2604 40.624 37.7384V41.9458C41.3533 41.3567 42.1667 40.8519 43.0643 40.4872C43.2887 40.375 43.5411 40.2909 43.7935 40.2067V37.7384C43.7935 35.9714 45.224 34.5409 46.9911 34.5409H47.0752C48.8423 34.5409 50.2728 35.9714 50.2728 37.7384V40.2348C50.4691 40.2909 50.7216 40.375 50.946 40.4872Z" fill="#E3D5B7"/>
<path d="M38.043 48.2002C38.043 53.1368 42.0539 57.1478 46.9905 57.1478C51.9271 57.1478 55.9381 53.1368 55.9381 48.2002C55.9381 45.788 54.9564 43.5722 53.4137 41.9734C52.5442 41.0759 51.4503 40.3466 50.2722 39.8698C49.2625 39.4771 48.1686 39.2527 47.0186 39.2527C45.8686 39.2527 44.7747 39.4771 43.7649 39.8698C42.5588 40.3466 41.493 41.0478 40.6235 41.9734C39.0247 43.5722 38.043 45.76 38.043 48.2002ZM44.6905 46.4051C44.7186 45.199 45.7283 44.1893 46.9344 44.1612C48.2247 44.1332 49.2905 45.171 49.2905 46.4612C49.2905 46.6015 49.2905 46.7417 49.2625 46.8539C49.1503 47.499 48.7576 48.06 48.2247 48.3966C48.0003 48.5368 47.8881 48.7893 47.9442 49.0698L48.6174 52.3234C48.6454 52.5198 48.5052 52.7161 48.3088 52.7161H45.6722C45.4759 52.7161 45.3356 52.5198 45.3637 52.3234L46.0369 49.0698C46.093 48.8173 45.9808 48.5368 45.7564 48.3966C45.2235 48.06 44.8308 47.499 44.7186 46.8539C44.6905 46.6856 44.6905 46.5454 44.6905 46.4051Z" fill="#E3D5B7"/>
<path d="M37.9021 42.0856H9.93743C9.18012 42.338 8.61914 42.899 8.61914 43.5722V46.2087C8.61914 46.8819 9.18012 47.4429 9.85329 47.4429H36.135C36.135 47.4148 36.135 47.4148 36.135 47.3868C36.135 45.4234 36.7801 43.5722 37.9021 42.0856Z" fill="#FFF4DE"/>
<path d="M45.8405 28.9589H45.9246C46.2893 28.9589 46.6259 28.9869 46.9625 29.043V21.8625H40.7637V31.4833C41.9417 29.9406 43.7649 28.9589 45.8405 28.9589Z" fill="#FFF4DE"/>
</g>
<path d="M48.9365 26.8L48.9365 29.1327" stroke="#E3D5B7" stroke-width="1.2"/>
<path d="M58.2111 34.38L55.9983 34.38" stroke="#E3D5B7" stroke-width="1.2"/>
<path d="M53.1192 30.9702L55.4059 28.403" stroke="#E3D5B7" stroke-width="1.2"/>
<defs>
<clipPath id="clip0_59765_5366">
<rect width="47.561" height="50" fill="white" transform="translate(8.61914 7.19995)"/>
</clipPath>
</defs>
</svg>
