<svg width="16" height="16" viewBox="0 0 16 16" fill="none" xmlns="http://www.w3.org/2000/svg">
<circle cx="8" cy="8" r="7" fill="#83BD3F"/>
<path d="M8.5 12C8.62744 12.0001 8.75002 12.0489 8.84268 12.1364C8.93535 12.2239 8.99112 12.3435 8.99859 12.4707C9.00605 12.5979 8.96466 12.7232 8.88287 12.8209C8.80107 12.9186 8.68505 12.9814 8.5585 12.9965L8.5 13H7.5C7.37256 12.9999 7.24998 12.9511 7.15732 12.8636C7.06465 12.7761 7.00888 12.6565 7.00141 12.5293C6.99395 12.4021 7.03534 12.2768 7.11713 12.1791C7.19893 12.0814 7.31495 12.0186 7.4415 12.0035L7.5 12H8.5ZM8 3C10.205 3 12 4.7715 12 6.9665C12 8.4695 11.239 9.5645 10.61 10.2135L10.468 10.355L10.333 10.481L10.207 10.591L10.042 10.726L9.878 10.848C9.7575 10.933 9.6765 11.0575 9.603 11.187L9.5005 11.369C9.3815 11.574 9.242 11.75 8.9465 11.75H7.0535C6.7585 11.75 6.6185 11.5745 6.4995 11.369L6.4405 11.265C6.3545 11.109 6.2665 10.95 6.122 10.848L6.006 10.7625L5.9065 10.685L5.793 10.591L5.667 10.481L5.532 10.355L5.3895 10.2135C4.761 9.5645 4 8.4695 4 6.9665C4 4.7715 5.795 3 8 3ZM8.8535 5.1465C8.7674 5.06041 8.65285 5.0087 8.53134 5.00106C8.40983 4.99341 8.2897 5.03037 8.1935 5.105L8.1465 5.1465L7.15 6.143C7.06307 6.22994 7.01083 6.34561 7.0031 6.46832C6.99537 6.59102 7.03267 6.71233 7.108 6.8095L7.15 6.857L7.793 7.5L7.1465 8.1465C7.05683 8.23648 7.00476 8.35722 7.00089 8.48419C6.99701 8.61117 7.04161 8.73486 7.12562 8.83014C7.20964 8.92542 7.32678 8.98515 7.45324 8.9972C7.5797 9.00925 7.706 8.97271 7.8065 8.895L7.8535 8.8535L8.85 7.857C8.93693 7.77006 8.98917 7.65439 8.9969 7.53168C9.00463 7.40898 8.96733 7.28767 8.892 7.1905L8.85 7.143L8.207 6.5L8.8535 5.8535C8.94724 5.75974 8.99989 5.63258 8.99989 5.5C8.99989 5.36742 8.94724 5.24026 8.8535 5.1465Z" fill="white"/>
</svg>
