<svg width="24" height="24" viewBox="0 0 24 24" fill="none" xmlns="http://www.w3.org/2000/svg">
<path d="M10.2 18.03L4.22999 12L10.2 5.96999C10.29 5.87999 10.32 5.78999 10.32 5.66999C10.32 5.54999 10.29 5.45999 10.2 5.36999C10.02 5.18999 9.74999 5.18999 9.59999 5.36999L3.32999 11.7C3.29999 11.73 3.23999 11.79 3.23999 11.85C3.17999 12 3.20999 12.18 3.32999 12.3L9.59999 18.63C9.77999 18.81 10.05 18.81 10.2 18.63C10.35 18.45 10.35 18.18 10.2 18.03Z" fill="white" stroke="white" stroke-width="0.456" stroke-miterlimit="10"/>
<path d="M4.05 11.55C3.81 11.55 3.63 11.73 3.63 11.97C3.63 12.09 3.69 12.21 3.75 12.27C3.84 12.36 3.93 12.39 4.05 12.39L20.37 12.45C20.61 12.45 20.79 12.27 20.79 12.03C20.79 11.79 20.61 11.61 20.37 11.61L4.05 11.55Z" fill="white" stroke="white" stroke-width="0.456" stroke-miterlimit="10"/>
</svg>
