<svg width="17" height="16" viewBox="0 0 17 16" fill="none" xmlns="http://www.w3.org/2000/svg">
<path fill-rule="evenodd" clip-rule="evenodd" d="M5.96635 6.31155H11.033V4.62241C11.033 3.22329 9.8988 2.08907 8.49968 2.08907C7.10056 2.08907 5.96635 3.22329 5.96635 4.62241V6.31155ZM5.1219 6.31155H4.6989C3.76615 6.31155 3.01001 7.06769 3.01001 8.00044V13.0671C3.01001 13.9999 3.76615 14.756 4.6989 14.756H12.2989C13.2316 14.756 13.9878 13.9999 13.9878 13.0671V8.00044C13.9878 7.06769 13.2316 6.31155 12.2989 6.31155H11.8775V4.62241C11.8775 2.75691 10.3652 1.24463 8.49968 1.24463C6.63419 1.24463 5.1219 2.75691 5.1219 4.62241V6.31155ZM9.76453 9.68951C9.76453 10.241 9.41206 10.7102 8.92009 10.8841V12.2228C8.92009 12.456 8.73105 12.6451 8.49787 12.6451C8.26468 12.6451 8.07565 12.456 8.07565 12.2228V10.8841C7.58368 10.7102 7.2312 10.241 7.2312 9.68951C7.2312 8.98995 7.79831 8.42284 8.49787 8.42284C9.19743 8.42284 9.76453 8.98995 9.76453 9.68951ZM8.49818 10.3227C8.84796 10.3227 9.13151 10.0392 9.13151 9.6894C9.13151 9.33962 8.84796 9.05607 8.49818 9.05607C8.1484 9.05607 7.86484 9.33962 7.86484 9.6894C7.86484 10.0392 8.1484 10.3227 8.49818 10.3227Z" fill="#B9964B"/>
</svg>
