<svg width="80" height="80" viewBox="0 0 80 80" fill="none" xmlns="http://www.w3.org/2000/svg">
<path d="M70.2 38.9L63.5 28.3C63.2 27.8 62.6 27.5 62 27.5H49.9V24.8C49.9 21.3 47.1 18.5 43.6 18.5H15C11.9 18.5 9.5 21 9.5 24V51.7C9.5 52.7 10.3 53.5 11.3 53.5H17.1C17.1 53.7 17.1 53.8 17.1 54C17.1 58.1 20.5 61.5 24.6 61.5C28.7 61.5 32.1 58.1 32.1 54C32.1 53.8 32.1 53.7 32.1 53.5H52.3C52.3 53.7 52.3 53.8 52.3 54C52.3 58.1 55.7 61.5 59.8 61.5C63.9 61.5 67.3 58.1 67.3 54C67.3 53.8 67.3 53.7 67.3 53.5H68.8C69.8 53.5 70.6 52.7 70.6 51.7V39.8C70.5 39.5 70.4 39.2 70.2 38.9ZM24.6 58C22.4 58 20.7 56.2 20.7 54.1C20.7 52 22.5 50.2 24.6 50.2C26.8 50.2 28.5 52 28.5 54.1C28.5 56.2 26.7 58 24.6 58ZM46.3 49.9H30.9C29.6 47.8 27.2 46.5 24.6 46.5C22 46.5 19.6 47.9 18.3 49.9H13.1V45.3H46.3V49.9ZM47.1 42.3H12.2V23.6C12.2 22.5 13.1 21.5 14.3 21.5H44.3C45.9 21.5 47.1 22.8 47.1 24.3V42.3V42.3ZM58 30.8H61L66.1 38.9H58V30.8ZM59.7 58C57.5 58 55.8 56.2 55.8 54.1C55.8 52 57.6 50.2 59.7 50.2C61.8 50.2 63.6 52 63.6 54.1C63.6 56.2 61.9 58 59.7 58ZM66.9 49.9H66C64.7 47.8 62.3 46.5 59.7 46.5C57.1 46.5 54.7 47.9 53.4 49.9H49.8V31H54.5V40.5C54.5 41.5 55.3 42.3 56.3 42.3H66.8V49.9H66.9Z" fill="#A07A4B"/>
</svg>
