<svg width="33" height="32" viewBox="0 0 33 32" fill="none" xmlns="http://www.w3.org/2000/svg">
<path d="M22.624 13.58C26.9975 13.58 30.543 17.1254 30.543 21.4989C30.5429 25.8724 26.9975 29.4178 22.624 29.4178C18.2505 29.4178 14.7051 25.8724 14.7051 21.4989C14.7051 17.1254 18.2505 13.58 22.624 13.58ZM22.624 15.08C19.079 15.08 16.2051 17.9538 16.2051 21.4989C16.2051 25.044 19.079 27.9178 22.624 27.9178C26.1691 27.9178 29.0429 25.0439 29.043 21.4989C29.043 17.9538 26.1691 15.08 22.624 15.08ZM22.5371 16.6669C22.6818 16.6669 22.8205 16.7228 22.9229 16.8212C23.0251 16.9196 23.0829 17.053 23.083 17.1923V17.6102C24.0908 17.6952 25.0054 18.2126 25.3896 19.0272C25.4202 19.0921 25.438 19.1626 25.4414 19.2343C25.4448 19.3058 25.4334 19.3778 25.4092 19.4452C25.3849 19.5125 25.3479 19.5749 25.2998 19.6278C25.2517 19.6806 25.1935 19.7233 25.1289 19.7538C25.0641 19.7843 24.9935 19.8021 24.9219 19.8055C24.8502 19.809 24.7784 19.7985 24.7109 19.7743C24.6435 19.75 24.5814 19.7122 24.5283 19.6639C24.4753 19.6157 24.4319 19.5578 24.4014 19.493C24.2103 19.0854 23.6148 18.6893 22.7891 18.6893C22.2788 18.6893 21.8374 18.8452 21.5361 19.0712C21.2356 19.2964 21.0998 19.5662 21.0996 19.8182C21.0996 20.0709 21.2354 20.3413 21.5361 20.5673C21.8373 20.7931 22.278 20.949 22.7881 20.9491C22.8447 20.9491 22.9001 20.9606 22.9531 20.9774C23.4882 21.05 23.9785 21.2393 24.3691 21.5214C24.8767 21.888 25.2422 22.4343 25.2422 23.0819C25.2421 23.7295 24.8772 24.2764 24.3691 24.6425C24.0445 24.877 23.6505 25.0458 23.2197 25.1385C23.2258 25.1713 23.2305 25.2044 23.2305 25.2382V25.7841C23.2304 25.9288 23.1726 26.0675 23.0703 26.1698C22.968 26.2721 22.8293 26.33 22.6846 26.33C22.5399 26.3299 22.4011 26.2721 22.2988 26.1698C22.1965 26.0675 22.1387 25.9288 22.1387 25.7841V25.2382C22.1387 25.2267 22.1409 25.2154 22.1416 25.204C21.1442 25.1158 20.2418 24.6212 19.8613 23.8436C19.7997 23.7177 19.792 23.5733 19.8408 23.4423C19.8897 23.3111 19.9911 23.2038 20.1221 23.1444C20.2529 23.0851 20.4029 23.0778 20.5391 23.1249C20.6753 23.172 20.7869 23.2694 20.8486 23.3954C21.0408 23.7882 21.6364 24.1697 22.4619 24.1698C22.9722 24.1698 23.4136 24.0191 23.7148 23.8016C24.0154 23.5847 24.1504 23.3245 24.1504 23.0819C24.1502 22.8388 24.015 22.578 23.7139 22.3612C23.5004 22.207 23.216 22.087 22.8867 22.0302C22.8544 22.0361 22.8214 22.0409 22.7881 22.0409C22.0645 22.0408 21.3884 21.8212 20.8809 21.4403C20.3734 21.0593 20.0078 20.4921 20.0078 19.8192C20.0078 19.1457 20.3733 18.5781 20.8809 18.1971C21.1957 17.9612 21.5755 17.7865 21.9912 17.6884V17.1923C21.9913 17.0531 22.0491 16.9196 22.1514 16.8212C22.2537 16.7227 22.3925 16.6669 22.5371 16.6669ZM9.62402 2.57996C13.9975 2.57998 17.543 6.12542 17.543 10.4989C17.5429 14.8724 13.9975 18.4178 9.62402 18.4178C5.25054 18.4178 1.7051 14.8724 1.70508 10.4989C1.70508 6.12541 5.25053 2.57996 9.62402 2.57996ZM9.62402 4.07996C6.07896 4.07996 3.20508 6.95384 3.20508 10.4989C3.2051 14.044 6.07897 16.9178 9.62402 16.9178C13.1691 16.9178 16.0429 14.0439 16.043 10.4989C16.043 6.95385 13.1691 4.07998 9.62402 4.07996ZM9.45508 5.57996C9.86929 5.57996 10.2051 5.91574 10.2051 6.32996V9.57996H13.4551C13.8693 9.57996 14.2051 9.91574 14.2051 10.33C14.2051 10.7442 13.8693 11.08 13.4551 11.08H9.45508C9.04086 11.08 8.70508 10.7442 8.70508 10.33V6.32996C8.70508 5.91574 9.04086 5.57996 9.45508 5.57996Z" fill="#F69234"/>
<path d="M13.2939 27.1689C9.33463 27.1689 6.125 23.9593 6.125 20M6.125 20L4.125 22.5M6.125 20L8.625 21.5" stroke="#F69234" stroke-width="1.5" stroke-linecap="round" stroke-linejoin="round"/>
<path d="M25.2939 12.1689C25.2939 8.20963 22.0843 5 18.125 5M25.2939 12.1689L22.625 11M25.2939 12.1689L27.125 10" stroke="#F69234" stroke-width="1.5" stroke-linecap="round" stroke-linejoin="round"/>
</svg>
