<svg width="80" height="80" viewBox="0 0 80 80" fill="none" xmlns="http://www.w3.org/2000/svg">
<path d="M40 10C23.4 10 10 23.4 10 40C10 56.6 23.4 70 40 70C56.6 70 70 56.6 70 40C70 23.4 56.6 10 40 10ZM40 66.5C25.4 66.5 13.5 54.6 13.5 40C13.5 25.4 25.4 13.5 40 13.5C54.6 13.5 66.5 25.4 66.5 40C66.5 54.6 54.6 66.5 40 66.5ZM40 35C37.2 35 35 37.2 35 40C35 42.8 37.2 45 40 45C42.8 45 45 42.8 45 40C45 37.2 42.8 35 40 35ZM40 43C38.3 43 37 41.7 37 40C37 38.3 38.3 37 40 37C41.7 37 43 38.3 43 40C43 41.7 41.7 43 40 43ZM27 35C24.2 35 22 37.2 22 40C22 42.8 24.2 45 27 45C29.8 45 32 42.8 32 40C32 37.2 29.8 35 27 35ZM27 43C25.3 43 24 41.7 24 40C24 38.3 25.3 37 27 37C28.7 37 30 38.3 30 40C30 41.7 28.7 43 27 43ZM53 35C50.2 35 48 37.2 48 40C48 42.8 50.2 45 53 45C55.8 45 58 42.8 58 40C58 37.2 55.8 35 53 35ZM53 43C51.3 43 50 41.7 50 40C50 38.3 51.3 37 53 37C54.7 37 56 38.3 56 40C56 41.7 54.7 43 53 43Z" fill="#217DC1"/>
</svg>
