<svg width="80" height="80" viewBox="0 0 80 80" fill="none" xmlns="http://www.w3.org/2000/svg">
<path d="M69.2996 36L59.0996 24.4C58.8996 24.1 58.5996 24 58.1996 24H21.7996C21.4996 24 21.0996 24.1 20.8996 24.4L10.6996 36C10.3996 36.3 10.2996 36.8 10.4996 37.3C10.5996 37.5 10.6996 37.6 10.7996 37.7L39.0996 69.6C39.2996 69.9 39.5996 70 39.9996 70C40.3996 70 40.6996 69.9 40.8996 69.6L69.1996 37.7C69.2996 37.6 69.3996 37.5 69.4996 37.3C69.6996 36.8 69.5996 36.4 69.2996 36ZM39.9996 27.4L47.9996 35.4H31.9996L39.9996 27.4ZM29.0996 34.6L24.0996 26.6H36.9996L29.0996 34.6ZM42.8996 26.6H55.7996L50.7996 34.6L42.8996 26.6ZM27.9996 38L37.5996 64.4L14.1996 38H27.9996ZM51.7996 35.7C51.1996 35.5 50.4996 35.8 50.2996 36.4L39.9996 64.1L30.4996 38H65.7996L42.3996 64.3L52.3996 37.2C52.6996 36.6 52.3996 36 51.7996 35.7ZM53.4996 35.4L58.4996 27.4L65.5996 35.4H53.4996ZM21.4996 27.4L26.4996 35.4H14.4996L21.4996 27.4Z" fill="#A07A4B"/>
<path d="M39.9996 18.4C40.5996 18.4 41.1996 17.9 41.1996 17.2V11.2C41.1996 10.6 40.6996 10 39.9996 10C39.2996 10 38.7996 10.5 38.7996 11.2V17.2C38.7996 17.9 39.3996 18.4 39.9996 18.4Z" fill="#A07A4B"/>
<path d="M45.5996 20.9C45.8996 20.9 46.1996 20.8 46.3996 20.6L50.6996 16.3C51.1996 15.8 51.1996 15.1 50.6996 14.6C50.1996 14.1 49.4996 14.1 48.9996 14.6L44.6996 18.9C44.1996 19.4 44.1996 20.1 44.6996 20.6C44.9996 20.8 45.2996 20.9 45.5996 20.9Z" fill="#A07A4B"/>
<path d="M33.3996 20.6C33.5996 20.8 33.8996 20.9 34.1996 20.9C34.4996 20.9 34.7996 20.8 34.9996 20.6C35.4996 20.1 35.4996 19.4 34.9996 18.9L30.6996 14.6C30.1996 14.1 29.4996 14.1 28.9996 14.6C28.4996 15.1 28.4996 15.8 28.9996 16.3L33.3996 20.6Z" fill="#A07A4B"/>
</svg>
