<svg width="80" height="80" viewBox="0 0 80 80" fill="none" xmlns="http://www.w3.org/2000/svg">
<path d="M65.3999 24.3H43.4999V11.7C43.4999 11.1 42.9999 10.5 42.2999 10.5H14.5999C13.9999 10.5 13.3999 11 13.3999 11.7V68.4C13.3999 69 13.8999 69.6 14.5999 69.6H65.2999C65.8999 69.6 66.4999 69.1 66.4999 68.4V25.5C66.4999 24.8 65.9999 24.3 65.3999 24.3ZM31.8999 67.2H24.9999V58H31.8999V67.2ZM41.1999 67.2H34.2999V56.8C34.2999 56.2 33.7999 55.6 33.0999 55.6H23.8999C23.2999 55.6 22.6999 56.1 22.6999 56.8V67.2H15.7999V12.8H41.1999V67.2ZM64.1999 67.2H43.4999V58H64.1999V67.2ZM64.1999 55.7H43.4999V26.7H64.1999V55.7Z" fill="#217DC1"/>
<path d="M27.2999 19.7H29.5999C30.1999 19.7 30.7999 19.2 30.7999 18.5V16.2C30.7999 15.6 30.2999 15 29.5999 15H27.2999C26.6999 15 26.0999 15.5 26.0999 16.2V18.5C26.1999 19.2 26.6999 19.7 27.2999 19.7Z" fill="#217DC1"/>
<path d="M27.2999 27.8H29.5999C30.1999 27.8 30.7999 27.3 30.7999 26.6V24.3C30.7999 23.7 30.2999 23.1 29.5999 23.1H27.2999C26.6999 23.1 26.0999 23.6 26.0999 24.3V26.6C26.1999 27.3 26.6999 27.8 27.2999 27.8Z" fill="#217DC1"/>
<path d="M27.2999 35.9H29.5999C30.1999 35.9 30.7999 35.4 30.7999 34.7V32.4C30.7999 31.8 30.2999 31.2 29.5999 31.2H27.2999C26.6999 31.2 26.0999 31.7 26.0999 32.4V34.7C26.1999 35.3 26.6999 35.9 27.2999 35.9Z" fill="#217DC1"/>
<path d="M27.2999 43.9H29.5999C30.1999 43.9 30.7999 43.4 30.7999 42.7V40.4C30.7999 39.8 30.2999 39.2 29.5999 39.2H27.2999C26.6999 39.2 26.0999 39.7 26.0999 40.4V42.7C26.1999 43.4 26.6999 43.9 27.2999 43.9Z" fill="#217DC1"/>
<path d="M27.2999 52H29.5999C30.1999 52 30.7999 51.5 30.7999 50.8V48.5C30.7999 47.9 30.2999 47.3 29.5999 47.3H27.2999C26.6999 47.3 26.0999 47.8 26.0999 48.5V50.8C26.1999 51.5 26.6999 52 27.2999 52Z" fill="#217DC1"/>
<path d="M19.2999 19.7H21.5999C22.1999 19.7 22.7999 19.2 22.7999 18.5V16.2C22.7999 15.6 22.2999 15 21.5999 15H19.2999C18.6999 15 18.0999 15.5 18.0999 16.2V18.5C18.0999 19.2 18.5999 19.7 19.2999 19.7Z" fill="#217DC1"/>
<path d="M19.2999 27.8H21.5999C22.1999 27.8 22.7999 27.3 22.7999 26.6V24.3C22.7999 23.7 22.2999 23.1 21.5999 23.1H19.2999C18.6999 23.1 18.0999 23.6 18.0999 24.3V26.6C18.0999 27.3 18.5999 27.8 19.2999 27.8Z" fill="#217DC1"/>
<path d="M19.2999 35.9H21.5999C22.1999 35.9 22.7999 35.4 22.7999 34.7V32.4C22.7999 31.8 22.2999 31.2 21.5999 31.2H19.2999C18.6999 31.2 18.0999 31.7 18.0999 32.4V34.7C18.0999 35.3 18.5999 35.9 19.2999 35.9Z" fill="#217DC1"/>
<path d="M19.2999 43.9H21.5999C22.1999 43.9 22.7999 43.4 22.7999 42.7V40.4C22.7999 39.8 22.2999 39.2 21.5999 39.2H19.2999C18.6999 39.2 18.0999 39.7 18.0999 40.4V42.7C18.0999 43.4 18.5999 43.9 19.2999 43.9Z" fill="#217DC1"/>
<path d="M19.2999 52H21.5999C22.1999 52 22.7999 51.5 22.7999 50.8V48.5C22.7999 47.9 22.2999 47.3 21.5999 47.3H19.2999C18.6999 47.3 18.0999 47.8 18.0999 48.5V50.8C18.0999 51.5 18.5999 52 19.2999 52Z" fill="#217DC1"/>
<path d="M35.3999 19.7H37.6999C38.2999 19.7 38.8999 19.2 38.8999 18.5V16.2C38.8999 15.6 38.3999 15 37.6999 15H35.3999C34.7999 15 34.1999 15.5 34.1999 16.2V18.5C34.1999 19.2 34.7999 19.7 35.3999 19.7Z" fill="#217DC1"/>
<path d="M35.3999 27.8H37.6999C38.2999 27.8 38.8999 27.3 38.8999 26.6V24.3C38.8999 23.7 38.3999 23.1 37.6999 23.1H35.3999C34.7999 23.1 34.1999 23.6 34.1999 24.3V26.6C34.1999 27.3 34.7999 27.8 35.3999 27.8Z" fill="#217DC1"/>
<path d="M35.3999 35.9H37.6999C38.2999 35.9 38.8999 35.4 38.8999 34.7V32.4C38.8999 31.8 38.3999 31.2 37.6999 31.2H35.3999C34.7999 31.2 34.1999 31.7 34.1999 32.4V34.7C34.1999 35.3 34.7999 35.9 35.3999 35.9Z" fill="#217DC1"/>
<path d="M35.3999 43.9H37.6999C38.2999 43.9 38.8999 43.4 38.8999 42.7V40.4C38.8999 39.8 38.3999 39.2 37.6999 39.2H35.3999C34.7999 39.2 34.1999 39.7 34.1999 40.4V42.7C34.1999 43.4 34.7999 43.9 35.3999 43.9Z" fill="#217DC1"/>
<path d="M35.3999 52H37.6999C38.2999 52 38.8999 51.5 38.8999 50.8V48.5C38.8999 47.9 38.3999 47.3 37.6999 47.3H35.3999C34.7999 47.3 34.1999 47.8 34.1999 48.5V50.8C34.1999 51.5 34.7999 52 35.3999 52Z" fill="#217DC1"/>
<path d="M56.6999 35.9H58.9999C59.5999 35.9 60.1999 35.4 60.1999 34.7V32.4C60.1999 31.8 59.6999 31.2 58.9999 31.2H56.6999C56.0999 31.2 55.4999 31.7 55.4999 32.4V34.7C55.5999 35.3 56.0999 35.9 56.6999 35.9Z" fill="#217DC1"/>
<path d="M56.6999 43.9H58.9999C59.5999 43.9 60.1999 43.4 60.1999 42.7V40.4C60.1999 39.8 59.6999 39.2 58.9999 39.2H56.6999C56.0999 39.2 55.4999 39.7 55.4999 40.4V42.7C55.5999 43.4 56.0999 43.9 56.6999 43.9Z" fill="#217DC1"/>
<path d="M56.6999 52H58.9999C59.5999 52 60.1999 51.5 60.1999 50.8V48.5C60.1999 47.9 59.6999 47.3 58.9999 47.3H56.6999C56.0999 47.3 55.4999 47.8 55.4999 48.5V50.8C55.5999 51.5 56.0999 52 56.6999 52Z" fill="#217DC1"/>
<path d="M48.5999 35.9H50.8999C51.4999 35.9 52.0999 35.4 52.0999 34.7V32.4C52.0999 31.8 51.5999 31.2 50.8999 31.2H48.5999C47.9999 31.2 47.3999 31.7 47.3999 32.4V34.7C47.4999 35.3 47.9999 35.9 48.5999 35.9Z" fill="#217DC1"/>
<path d="M48.5999 43.9H50.8999C51.4999 43.9 52.0999 43.4 52.0999 42.7V40.4C52.0999 39.8 51.5999 39.2 50.8999 39.2H48.5999C47.9999 39.2 47.3999 39.7 47.3999 40.4V42.7C47.4999 43.4 47.9999 43.9 48.5999 43.9Z" fill="#217DC1"/>
<path d="M48.5999 52H50.8999C51.4999 52 52.0999 51.5 52.0999 50.8V48.5C52.0999 47.9 51.5999 47.3 50.8999 47.3H48.5999C47.9999 47.3 47.3999 47.8 47.3999 48.5V50.8C47.4999 51.5 47.9999 52 48.5999 52Z" fill="#217DC1"/>
</svg>
