<svg width="16" height="16" viewBox="0 0 16 16" fill="none" xmlns="http://www.w3.org/2000/svg">
<path fill-rule="evenodd" clip-rule="evenodd" d="M14.4644 7.28174C14.4407 7.09178 14.2272 6.97306 14.0374 6.97306C13.4443 6.97306 12.9224 6.6169 12.6852 6.07078C12.448 5.52466 12.6141 4.85982 13.0411 4.45616C13.1834 4.33744 13.2071 4.12374 13.0885 3.95753C12.7801 3.57763 12.448 3.22146 12.0684 2.91279C11.9261 2.79406 11.7126 2.81781 11.5703 2.96027C11.1907 3.38767 10.479 3.55388 9.95712 3.31644C9.38777 3.079 9.05566 2.50913 9.07938 1.91552C9.07938 1.72557 8.96077 1.55936 8.77099 1.53562C8.29653 1.48813 7.79836 1.48813 7.30018 1.53562C7.1104 1.55936 6.96807 1.72557 6.96807 1.91552C6.99179 2.50913 6.63595 3.079 6.09033 3.29269C5.56843 3.50639 4.88047 3.34018 4.47719 2.93653C4.35858 2.79406 4.14507 2.77032 3.97901 2.88904C3.59945 3.19772 3.24361 3.55388 2.93522 3.93379C2.81661 4.07626 2.84033 4.28995 2.98266 4.43242C3.43339 4.83607 3.57573 5.50091 3.3385 6.04703C3.125 6.59315 2.55566 6.92557 1.91515 6.92557C1.70164 6.92557 1.55931 7.06804 1.53558 7.23425C1.48814 7.73288 1.48814 8.23151 1.53558 8.70639C1.55931 8.89635 1.77281 9.01507 1.96259 9.01507C2.53193 8.99132 3.07756 9.34749 3.29106 9.91735C3.52828 10.4635 3.36223 11.1283 2.93522 11.532C2.79288 11.6507 2.76916 11.8644 2.88777 12.0306C3.19617 12.4105 3.52828 12.7667 3.90785 13.0753C4.05018 13.1941 4.26369 13.1703 4.40602 13.0279C4.78558 12.6005 5.49726 12.4342 6.01916 12.6717C6.5885 12.9091 6.92062 13.479 6.8969 14.0726C6.8969 14.2626 7.01551 14.4288 7.20529 14.4525C7.44252 14.4763 7.70347 14.5 7.96442 14.5C8.20164 14.5 8.43887 14.4763 8.6761 14.4525C8.86588 14.4288 9.00821 14.2626 9.00821 14.0726C8.98449 13.479 9.34033 12.9091 9.88595 12.6954C10.4316 12.4817 11.1195 12.6479 11.4991 13.0516C11.6177 13.1941 11.8312 13.2178 11.9973 13.0991C12.3768 12.7904 12.7327 12.4342 13.0411 12.0543C13.1597 11.9119 13.1359 11.6982 12.9936 11.5557C12.5429 11.1521 12.4005 10.4872 12.6378 9.9411C12.8513 9.41872 13.3969 9.06256 13.9662 9.06256H14.0374C14.2272 9.0863 14.3932 8.94384 14.417 8.75388C14.5119 8.25525 14.5119 7.75662 14.4644 7.28174ZM8.01186 10.1785C6.82573 10.1785 5.8531 9.20502 5.8531 8.01781C5.8531 6.83059 6.82573 5.85708 8.01186 5.85708C9.19799 5.85708 10.1706 6.83059 10.1706 8.01781C10.1943 9.20502 9.22172 10.1785 8.01186 10.1785Z" stroke="#808080" stroke-width="0.800544" stroke-miterlimit="10"/>
</svg>
