<svg width="80" height="80" viewBox="0 0 80 80" fill="none" xmlns="http://www.w3.org/2000/svg">
<path d="M62.1 27.3C63 27.3 63.6 26.3 63.6 25C63.6 23.7 63 22.7 62.1 22.7C61.2 22.7 60.6 23.7 60.6 25C60.6 26.4 61.2 27.3 62.1 27.3Z" fill="#02509F"/>
<path d="M65.4 34.9C67.8 33.1 69.4 29.4 69.4 25.1C69.4 18.9 66.2 14.1 62 14.1H17.9C13.8 14.1 10.5 19 10.5 25.1C10.5 29.5 12.1 33.1 14.5 34.9C12.1 36.7 10.5 40.4 10.5 44.7C10.5 49.5 12.5 53.6 15.4 55.1V63.1C15.4 65.8 17.6 68 20.3 68H38.7C39 68 39.3 67.9 39.6 67.6L49.4 57.8C49.6 57.6 49.8 57.3 49.8 56.9V55.7H62.1C66.2 55.7 69.5 50.8 69.5 44.7C69.5 40.3 67.8 36.7 65.4 34.9ZM67 25C67 29.7 64.8 33.6 62.1 33.6C59.4 33.6 57.2 29.7 57.2 25C57.2 20.3 59.4 16.4 62.1 16.4C64.8 16.4 67 20.4 67 25ZM13 25C13 20.3 15.2 16.4 17.9 16.4H57.5C55.8 18.4 54.8 21.5 54.8 25C54.8 28.5 55.9 31.6 57.5 33.6H17.9C15.2 33.6 13 29.7 13 25ZM13 44.7C13 40 15.2 36.1 17.9 36.1H19.2C17.6 38.7 15.5 43.8 15.5 52.1C14 50.5 13 47.7 13 44.7ZM17.9 63.1V52C17.9 42.2 21.1 37.3 22.2 36H50.7C49.1 38.4 47.4 43 47.4 52V55.7H42.5C39.8 55.7 37.6 57.9 37.6 60.6V65.5H20.4C19 65.5 17.9 64.4 17.9 63.1ZM45.6 58.2L40 63.8V60.6C40 59.2 41.1 58.1 42.5 58.1H45.6V58.2ZM49.8 52C49.8 40.1 53.1 36.7 53.9 36H57.5C55.8 38 54.8 41.1 54.8 44.6C54.8 48.1 55.9 51.2 57.5 53.2H49.9V52H49.8ZM62.1 53.3C59.4 53.3 57.2 49.4 57.2 44.7C57.2 40 59.4 36.1 62.1 36.1C64.8 36.1 67 40 67 44.7C67 49.4 64.8 53.3 62.1 53.3Z" fill="#02509F"/>
<path d="M62.1 42.4C61.2 42.4 60.6 43.4 60.6 44.7C60.6 46 61.2 47 62.1 47C63 47 63.6 46 63.6 44.7C63.6 43.4 63 42.4 62.1 42.4Z" fill="#02509F"/>
</svg>
