<svg width="18" height="18" viewBox="0 0 18 18" fill="none" xmlns="http://www.w3.org/2000/svg">
<path d="M9 17.0001C13.4183 17.0001 17 13.4184 17 9.00012C17 4.58184 13.4183 1.00012 9 1.00012C4.58172 1.00012 1 4.58184 1 9.00012C1 13.4184 4.58172 17.0001 9 17.0001Z" fill="#F68703"/>
<path d="M9.53247 4.33278L10.6151 6.5046C10.7018 6.68121 10.8702 6.80054 11.0675 6.82918L13.483 7.17763C13.9787 7.24922 14.1759 7.85065 13.815 8.19432L12.0683 9.88405C11.9288 10.0225 11.8614 10.2182 11.8951 10.4139L12.3089 12.8005C12.3955 13.2874 11.8759 13.6597 11.438 13.4306L9.27744 12.3041C9.10422 12.2134 8.89249 12.2134 8.71927 12.3041L6.55873 13.4306C6.11604 13.6597 5.60117 13.2874 5.68778 12.8005L6.1016 10.4139C6.13529 10.2182 6.07273 10.0225 5.92838 9.88405L4.18166 8.19432C3.82558 7.85065 4.02287 7.24922 4.51368 7.17763L6.92925 6.82918C7.12653 6.80054 7.29495 6.68121 7.38156 6.5046L8.46424 4.33278C8.67115 3.88887 9.31113 3.88887 9.53247 4.33278Z" fill="white"/>
</svg>
