<svg width="32" height="32" viewBox="0 0 32 32" fill="none" xmlns="http://www.w3.org/2000/svg">
<path d="M11 5.95355C8.79086 5.95355 7 7.74441 7 9.95355V26.9536C7 27.5058 7.44772 27.9536 8 27.9536H13.4627H21C23.2091 27.9536 25 26.1627 25 23.9536V14.1425V6.95355C25 6.40127 24.5523 5.95355 24 5.95355H21.5" stroke="#00AB1B" stroke-width="1.5" stroke-linecap="round"/>
<path d="M14.9819 3.55273H17.0176" stroke="#00AB1B" stroke-linecap="round" stroke-linejoin="round"/>
<rect x="12.4448" y="4.62006" width="7.11084" height="2.66699" rx="1" fill="#00AB1B"/>
<path fill-rule="evenodd" clip-rule="evenodd" d="M16.755 11.6984C16.9728 11.4806 17.3261 11.4806 17.5439 11.6984L20.991 15.1455C21.1505 15.305 21.1983 15.545 21.1119 15.7535C21.0256 15.9619 20.8221 16.0979 20.5965 16.0979H11.4041C11.096 16.0979 10.8462 15.8481 10.8462 15.54C10.8462 15.2319 11.096 14.9821 11.4041 14.9821H19.2496L16.755 12.4874C16.5371 12.2695 16.5371 11.9163 16.755 11.6984Z" fill="#00AB1B" stroke="#00AB1B" stroke-width="0.5" stroke-linecap="round" stroke-linejoin="round"/>
<path fill-rule="evenodd" clip-rule="evenodd" d="M15.2452 22.2079C15.0273 22.4258 14.6741 22.4258 14.4562 22.2079L11.0091 18.7609C10.8496 18.6013 10.8019 18.3614 10.8882 18.1529C10.9746 17.9444 11.178 17.8085 11.4036 17.8085H20.596C20.9042 17.8085 21.1539 18.0583 21.1539 18.3664C21.1539 18.6745 20.9042 18.9243 20.596 18.9243H12.7505L15.2452 21.419C15.463 21.6368 15.463 21.9901 15.2452 22.2079Z" fill="#00AB1B" stroke="#00AB1B" stroke-width="0.5" stroke-linecap="round" stroke-linejoin="round"/>
</svg>
