<svg width="80" height="80" viewBox="0 0 80 80" fill="none" xmlns="http://www.w3.org/2000/svg">
<path d="M63.7 41.9H60.6L59.8 34.4C59.7 33.4999 59 32.9 58.1 32.9H53.6C52.7 32.9 52 33.5999 51.9 34.4L51.1 41.9H47L46.2 34.4C46.1 33.4999 45.4 32.9 44.5 32.9H40C39.1 32.9 38.4 33.5999 38.3 34.4L37.5 41.9H35.6L34.4 28.8999C34.3 27.9999 33.6 27.3999 32.7 27.3999H27.3C26.4 27.3999 25.7 28.0999 25.6 28.8999L23.7 49.0999C22.5 49.0999 14.3 49.0999 12.7 49.0999C11.8 49.0999 11 49.8999 11 50.7999C11 51.6999 11.8 52.4999 12.7 52.4999H14.7V67.1999C14.7 68.0999 15.5 68.8999 16.4 68.8999H63.5C64.4 68.8999 65.2 68.0999 65.2 67.1999V52.1999C67.4 51.4999 68.9 49.4999 68.9 47.0999C69 44.2999 66.6 41.9 63.7 41.9ZM22.1 65.5999H18.1V52.5999H23.3L22.1 65.5999ZM55.1 36.2999H56.6L57.2 41.9999H54.6L55.1 36.2999ZM41.5 36.2999H43L43.6 41.9999H41L41.5 36.2999ZM32.9 65.5999C32 65.5999 26.4 65.5999 25.6 65.5999L28.9 30.7999H31.2L32.3 42.4C30.5 43.2999 29.2 45.0999 29.2 47.1999C29.2 49.4999 30.7 51.4999 32.8 52.1999V65.5999H32.9ZM61.9 65.5999C60.8 65.5999 37.4 65.5999 36.3 65.5999V52.5999H61.9V65.5999ZM63.7 49.1999C62.5 49.1999 35.8 49.1999 34.6 49.1999C33.5 49.1999 32.7 48.2999 32.7 47.2999C32.7 46.2999 33.6 45.3999 34.6 45.3999H63.7C64.8 45.3999 65.6 46.2999 65.6 47.2999C65.6 48.2999 64.7 49.1999 63.7 49.1999Z" fill="#72573D"/>
<path d="M41.8 61.5999C42.7 61.5999 43.5 60.8 43.5 59.9V58.0999C43.5 57.1999 42.7 56.4 41.8 56.4C40.9 56.4 40.1 57.1999 40.1 58.0999V59.9C40.1 60.9 40.9 61.5999 41.8 61.5999Z" fill="#72573D"/>
<path d="M49.1 61.5999C50 61.5999 50.8 60.8 50.8 59.9V58.0999C50.8 57.1999 50 56.4 49.1 56.4C48.2 56.4 47.4 57.1999 47.4 58.0999V59.9C47.4 60.9 48.1 61.5999 49.1 61.5999Z" fill="#72573D"/>
<path d="M56.3 61.5999C57.2 61.5999 58 60.8 58 59.9V58.0999C58 57.1999 57.2 56.4 56.3 56.4C55.4 56.4 54.6 57.1999 54.6 58.0999V59.9C54.6 60.9 55.4 61.5999 56.3 61.5999Z" fill="#72573D"/>
<path d="M39.4 24.9999C41.5 27.1999 44.8 27.7999 47.5 26.5999C49.1 28.1999 51.3 29 53.6 29C58.5 29 62.5 25 62.5 20.0999C62.5 17.6999 61.6 15.3999 59.9 13.6999C56.5 10.1999 51.1 10.1 47.4 13.6C44.7 12.4 41.4 12.9999 39.3 15.1999C35.8 13.6999 31.9 16.2999 31.9 20.0999C32 23.9 35.9 26.3999 39.4 24.9999ZM37.3 18.0999C37.8 18.0999 38.3 18.2999 38.6 18.5999C39.4 19.4 40.7 19.2 41.3 18.2C42.4 16.2 45 15.6999 46.8 16.9999C47.6 17.5999 48.6 17.4 49.2 16.7C50.3 15.2 52 14.3999 53.6 14.3999C56.6 14.3999 59.2 16.9999 59.2 20.0999C59.2 23.1999 56.7 25.7 53.6 25.7C51.8 25.7 50.2 24.8999 49.2 23.4999C48.6 22.6999 47.6 22.5999 46.8 23.2C45 24.5999 42.4 23.9999 41.3 21.9999C40.8 20.9999 39.5 20.7999 38.6 21.5999C38.2 21.9 37.8 22.0999 37.3 22.0999C36.2 22.0999 35.4 21.2 35.4 20.2C35.4 19.2 36.2 18.0999 37.3 18.0999Z" fill="#72573D"/>
</svg>
