<svg width="80" height="80" viewBox="0 0 80 80" fill="none" xmlns="http://www.w3.org/2000/svg">
<path d="M40.0004 27.7C44.8004 27.7 48.6004 23.8 48.6004 19.1C48.6004 14.3 44.7004 10.5 40.0004 10.5C35.3004 10.5 31.4004 14.4 31.4004 19.1C31.4004 23.8 35.2004 27.7 40.0004 27.7ZM40.0004 14.1C42.8004 14.1 45.0004 16.3 45.0004 19.1C45.0004 21.9 42.8004 24.1 40.0004 24.1C37.2004 24.1 35.0004 21.9 35.0004 19.1C35.0004 16.3 37.2004 14.1 40.0004 14.1Z" fill="#A07A4B"/>
<path d="M14.7004 48C10.6004 50.4 9.10038 55.7 11.5004 59.9C13.9004 64 19.2004 65.5 23.4004 63.1C27.6004 60.7 29.0004 55.4 26.6004 51.2C24.2004 47.1 18.8004 45.6 14.7004 48ZM21.5004 59.9C19.1004 61.3 16.0004 60.4 14.7004 58.1C13.3004 55.7 14.1004 52.6 16.5004 51.3C18.9004 49.9 22.0004 50.7 23.3004 53.1C24.7004 55.4 23.9004 58.5 21.5004 59.9Z" fill="#A07A4B"/>
<path d="M65.3004 48C61.2004 45.6 55.8004 47 53.4004 51.2C51.0004 55.4 52.4004 60.7 56.6004 63.1C60.8004 65.5 66.1004 64.1 68.5004 59.9C70.9004 55.7 69.5004 50.4 65.3004 48ZM65.3004 58C63.9004 60.4 60.9004 61.2 58.5004 59.8C56.1004 58.4 55.3004 55.4 56.7004 53C58.1004 50.6 61.1004 49.8 63.5004 51.2C65.9004 52.6 66.7004 55.7 65.3004 58Z" fill="#A07A4B"/>
<path d="M27.6004 24.5L25.7004 21.6C22.3004 23.8 19.5004 26.8 17.5004 30.2C15.4004 33.8 14.2004 37.8 14.0004 41.9L17.5004 42.1C17.8004 35 21.6004 28.4 27.6004 24.5Z" fill="#A07A4B"/>
<path d="M62.6004 42.1L66.1004 41.9C65.9004 37.8 64.7004 33.7 62.6004 30.2C60.6004 26.7 57.7004 23.8 54.4004 21.6L52.5004 24.5C58.4004 28.4 62.2004 35 62.6004 42.1Z" fill="#A07A4B"/>
<path d="M40.0004 66.1C36.4004 66.1 33.0004 65.3 29.8004 63.7L28.2004 66.8C31.9004 68.7 35.8004 69.6 40.0004 69.6C44.2004 69.6 48.1004 68.7 51.8004 66.8L50.2004 63.7C47.0004 65.3 43.6004 66.1 40.0004 66.1Z" fill="#A07A4B"/>
</svg>
