<svg width="56" height="24" viewBox="0 0 56 24" fill="none" xmlns="http://www.w3.org/2000/svg">
<g clip-path="url(#clip0_3112_7922)">
<path d="M8.45 13.07H17.55V13.7H8.45V13.07ZM8.69 8.04H17.3V8.7H8.69V8.04ZM11.92 12.02L12.65 12.22C12 13.26 11.08 14.57 10.44 15.39L9.73 15.15C10.37 14.34 11.3 13 11.92 12.02ZM14.92 13.29L15.64 13.5C14.76 15.7 12.63 16.52 8.88 16.8C8.83 16.58 8.71 16.31 8.59 16.14C12.16 15.95 14.12 15.24 14.92 13.29ZM10.27 15.05L10.65 14.5C13.12 14.94 15.69 15.61 17.24 16.22L16.79 16.83C15.26 16.2 12.81 15.52 10.27 15.05ZM11.42 8.29H12.13V11.78H11.42V8.29ZM13.75 8.29H14.46V11.78H13.75V8.29ZM9.89 10.17V11.53H16.13V10.17H9.89ZM9.19 9.56H16.88V12.15H9.19V9.56ZM18.64 9.28H27.39V10.01H18.64V9.28ZM23.3 9.93C24.05 12.33 25.59 14.5 27.68 15.41C27.5 15.56 27.25 15.85 27.13 16.07C25 15.03 23.53 12.74 22.71 10.11L23.3 9.93ZM26.3 10.42L26.95 10.89C26.29 11.65 25.38 12.54 24.68 13.11L24.15 12.7C24.83 12.13 25.76 11.16 26.3 10.42ZM24.3 8.11L24.76 7.64C25.37 7.96 26.19 8.43 26.61 8.76L26.13 9.3C25.74 8.95 24.94 8.45 24.3 8.11ZM19.18 10.99L19.76 10.61C20.37 11.14 21.09 11.9 21.4 12.43L20.79 12.86C20.49 12.34 19.8 11.54 19.18 10.99ZM22.59 7.63H23.36V15.79C23.36 16.32 23.22 16.55 22.89 16.67C22.55 16.81 21.95 16.82 21.07 16.82C21.03 16.61 20.91 16.26 20.79 16.03C21.49 16.05 22.14 16.05 22.34 16.04C22.52 16.03 22.59 15.98 22.59 15.79V7.63ZM18.37 15.16C19.21 14.73 20.52 14 21.74 13.29L21.98 13.96C20.9 14.63 19.72 15.33 18.83 15.83L18.37 15.16ZM33.56 11.47H36.83V12.09H33.56V11.47ZM33.18 8.07H36.76V8.74H33.87V16.81H33.18V8.07ZM36.4 8.07H37.1V10C37.1 10.37 37.02 10.57 36.71 10.68C36.4 10.79 35.9 10.8 35.13 10.8C35.1 10.6 35 10.33 34.9 10.14C35.52 10.16 36.04 10.16 36.2 10.15C36.36 10.14 36.4 10.1 36.4 9.99V8.07ZM34.54 11.88C35.08 13.75 36.21 15.46 37.71 16.19C37.54 16.34 37.31 16.61 37.19 16.8C35.65 15.93 34.54 14.11 33.95 12.03L34.54 11.88ZM36.6 11.47H36.74L36.87 11.43L37.33 11.6C36.94 13.77 35.95 15.74 34.35 16.82C34.24 16.65 34.02 16.44 33.85 16.31C35.35 15.33 36.29 13.46 36.6 11.63V11.47ZM28.77 8.63H32.48V9.28H28.77V8.63ZM28.65 14.1H32.61V14.75H28.65V14.1ZM28.41 10.28H32.86V10.93H28.41V10.28ZM28.55 12.36H32.74V13.01H28.55V12.36ZM30.31 7.62H31.01V10.51H30.31V7.62ZM30.31 12.63H31.01V16.78H30.31V12.63ZM31.66 10.89L32.3 11.06C32.1 11.54 31.91 12.06 31.72 12.41L31.16 12.24C31.33 11.87 31.55 11.28 31.66 10.89ZM29.11 11.05L29.68 10.91C29.9 11.33 30.1 11.9 30.15 12.25L29.55 12.42C29.5 12.06 29.31 11.49 29.11 11.05ZM41.08 8.11H47.5V8.69H41.08V8.11ZM41.99 9.78V10.74H46.5V9.78H41.99ZM41.32 9.28H47.2V11.23H41.32V9.28ZM43.05 8.3H43.67V10.93H43.05V8.3ZM44.78 8.3H45.4V10.93H44.78V8.3ZM42.23 13.23V13.8H46.35V13.23H42.23ZM42.23 14.27V14.86H46.35V14.27H42.23ZM42.23 12.19V12.76H46.35V12.19H42.23ZM41.53 11.71H47.08V15.34H41.53V11.71ZM44.78 15.84L45.27 15.41C46.14 15.7 47.11 16.09 47.69 16.39L47.04 16.83C46.53 16.53 45.64 16.14 44.78 15.84ZM43.14 15.4L43.68 15.78C43.07 16.22 42.08 16.6 41.19 16.82C41.09 16.67 40.91 16.44 40.77 16.31C41.64 16.11 42.61 15.74 43.14 15.4ZM40.32 7.66L41.02 7.85C40.45 9.58 39.56 11.34 38.57 12.51C38.5 12.33 38.3 11.93 38.17 11.74C39.05 10.74 39.84 9.2 40.32 7.66ZM39.52 10.11L40.21 9.42L40.23 9.44V16.8H39.52V10.11Z" fill="#B9964B"/>
<rect x="0.5" y="0.5" width="55" height="23" rx="11.5" stroke="#B9964B"/>
</g>
<defs>
<clipPath id="clip0_3112_7922">
<rect width="56" height="24" fill="white"/>
</clipPath>
</defs>
</svg>
