<svg width="24" height="24" viewBox="0 0 24 24" fill="none" xmlns="http://www.w3.org/2000/svg">
<path d="M8.32078 17.3977H14.1446C15.1998 17.3977 15.9401 18.438 15.5945 19.435V19.435C15.3804 20.0527 14.7984 20.4669 14.1446 20.4669H8.32078L6.72478 22.0016M8.32078 15.3516H6.19278L3.00078 18.4208" stroke="#217DC1" stroke-linecap="round" stroke-linejoin="round"/>
<path d="M16.5548 15.8258C16.9992 14.9731 17.2504 14.0038 17.2504 12.9758C17.2504 9.56542 14.4857 6.80078 11.0754 6.80078C7.66503 6.80078 4.90039 9.56542 4.90039 12.9758C4.90039 13.2988 4.9252 13.6161 4.97302 13.9258" stroke="#217DC1" stroke-linecap="round" stroke-linejoin="round"/>
<path d="M18.2007 10.0984C18.2007 7.22656 15.8614 4.89844 12.9757 4.89844C12.1958 4.89844 11.4557 5.06852 10.791 5.37344" stroke="#217DC1" stroke-linecap="round" stroke-linejoin="round"/>
<path d="M19.6177 8.7C19.9253 8.16149 20.0992 7.54928 20.0992 6.9C20.0992 4.74609 18.1852 3 15.8242 3C14.9454 3 14.1285 3.24192 13.4492 3.65674" stroke="#217DC1" stroke-linecap="round" stroke-linejoin="round"/>
<path fill-rule="evenodd" clip-rule="evenodd" d="M10.3413 10.7986C10.1385 10.9507 10.0468 11.1329 10.0468 11.303C10.0468 11.4734 10.1385 11.6556 10.3413 11.808C10.5445 11.9604 10.842 12.0657 11.1862 12.0657C11.2838 12.0657 11.3774 12.1045 11.4465 12.1736C11.5155 12.2426 11.5543 12.3362 11.5543 12.4339C11.5543 12.5315 11.5155 12.6251 11.4465 12.6942C11.3774 12.7632 11.2838 12.802 11.1862 12.802C10.698 12.802 10.2419 12.654 9.89955 12.397C9.55719 12.1401 9.31055 11.7572 9.31055 11.3033C9.31055 10.8491 9.55719 10.4662 9.89955 10.2093C10.2419 9.95267 10.6984 9.80469 11.1862 9.80469C11.9419 9.80469 12.6565 10.1666 12.9407 10.7692C12.9613 10.8129 12.9731 10.8603 12.9754 10.9086C12.9777 10.9569 12.9705 11.0052 12.9541 11.0507C12.9377 11.0963 12.9126 11.1381 12.88 11.1739C12.8475 11.2097 12.8083 11.2387 12.7645 11.2593C12.7208 11.28 12.6734 11.2918 12.6251 11.2941C12.5768 11.2964 12.5285 11.2891 12.4829 11.2728C12.4374 11.2564 12.3956 11.2313 12.3598 11.1987C12.324 11.1662 12.295 11.1269 12.2743 11.0832C12.1455 10.8082 11.7435 10.5409 11.1865 10.5409C10.8423 10.5409 10.5445 10.6462 10.3413 10.7986Z" fill="#217DC1"/>
<path fill-rule="evenodd" clip-rule="evenodd" d="M11.8103 13.988C12.0131 13.8417 12.1044 13.6663 12.1044 13.5026C12.1044 13.3386 12.0131 13.1629 11.8099 13.0166C11.6071 12.8699 11.3093 12.7686 10.9654 12.7686C10.8678 12.7686 10.7742 12.7312 10.7051 12.6648C10.6361 12.5984 10.5973 12.5082 10.5973 12.4143C10.5973 12.3203 10.6361 12.2302 10.7051 12.1638C10.7742 12.0973 10.8678 12.06 10.9654 12.06C11.4536 12.06 11.9097 12.2024 12.252 12.4497C12.5944 12.697 12.8407 13.0655 12.8407 13.5023C12.8407 13.9391 12.5944 14.3079 12.2517 14.5549C11.9093 14.8022 11.4536 14.9446 10.9654 14.9446C10.2097 14.9446 9.49477 14.5963 9.21094 14.016C9.1693 13.931 9.16445 13.8336 9.19745 13.7452C9.23045 13.6567 9.2986 13.5845 9.38691 13.5444C9.47522 13.5044 9.57645 13.4997 9.66834 13.5315C9.76023 13.5632 9.83524 13.6288 9.87688 13.7138C10.0065 13.9788 10.4085 14.236 10.9654 14.236C11.3096 14.236 11.6071 14.1347 11.8103 13.988ZM11.0162 9.17578C11.1139 9.17578 11.2075 9.21311 11.2765 9.27955C11.3456 9.34599 11.3844 9.4361 11.3844 9.53006V9.88435C11.3844 9.97831 11.3456 10.0684 11.2765 10.1349C11.2075 10.2013 11.1139 10.2386 11.0162 10.2386C10.9186 10.2386 10.825 10.2013 10.7559 10.1349C10.6869 10.0684 10.6481 9.97831 10.6481 9.88435V9.53006C10.6481 9.4361 10.6869 9.34599 10.7559 9.27955C10.825 9.21311 10.9186 9.17578 11.0162 9.17578Z" fill="#217DC1"/>
<path fill-rule="evenodd" clip-rule="evenodd" d="M11.1162 14.5898C11.2138 14.5898 11.3074 14.6286 11.3765 14.6977C11.4455 14.7667 11.4843 14.8603 11.4843 14.958V15.3261C11.4843 15.4237 11.4455 15.5174 11.3765 15.5864C11.3074 15.6554 11.2138 15.6942 11.1162 15.6942C11.0185 15.6942 10.9249 15.6554 10.8559 15.5864C10.7868 15.5174 10.748 15.4237 10.748 15.3261V14.958C10.748 14.8603 10.7868 14.7667 10.8559 14.6977C10.9249 14.6286 11.0185 14.5898 11.1162 14.5898Z" fill="#217DC1"/>
</svg>
