<svg width="20" height="20" viewBox="0 0 20 20" fill="none" xmlns="http://www.w3.org/2000/svg">
<mask id="mask0_39140_930" style="mask-type:alpha" maskUnits="userSpaceOnUse" x="0" y="0" width="20" height="20">
<circle cx="10" cy="10" r="10" fill="#F68703"/>
</mask>
<g mask="url(#mask0_39140_930)">
<path d="M-8.44531 -4.29999H35.4827V25H-8.44531V-4.29999Z" fill="white"/>
<path d="M-8.44531 22.7377H35.4827V25H-8.44531V22.7377ZM-8.44531 -4.29999H35.4827V-2.0377H-8.44531V-4.29999ZM-8.44531 0.202631H35.4827V2.46492H-8.44531V0.202631ZM-8.44531 4.72721H35.4827V6.9895H-8.44531V4.72721ZM-8.44531 9.22983H35.4827V11.4921H-8.44531V9.22983ZM-8.44531 13.7325H35.4827V15.9947H-8.44531V13.7325ZM-8.44531 18.2351H35.4827V20.4974H-8.44531V18.2351Z" fill="#D42911"/>
<path d="M-8.44531 -4.29999H13.8042V11.4702H-8.44531V-4.29999Z" fill="#2C5378"/>
<path d="M12.1129 0.158718L11.9152 -0.456273L11.7176 0.158718H11.0586L11.5858 0.554071L11.3881 1.16906L11.9152 0.773711L12.4424 1.16906L12.2447 0.554071L12.7718 0.158718H12.1129ZM-6.20506 -2.63071L-5.67792 -3.02606H-6.33684L-6.53452 -3.64105L-6.73219 -3.02606H-7.39111L-6.86398 -2.63071L-7.06165 -2.01572L-6.53452 -2.3891L-6.00738 -1.99375L-6.20506 -2.63071ZM-2.51511 -2.63071L-1.98797 -3.02606H-2.64689L-2.84457 -3.64105L-3.04224 -3.02606H-3.70116L-3.17403 -2.63071L-3.3717 -2.01572L-2.84457 -2.41107L-2.31743 -2.01572L-2.51511 -2.63071ZM1.17484 -2.63071L1.70198 -3.02606H1.04306L0.845384 -3.64105L0.647708 -3.02606H-0.0112119L0.515924 -2.63071L0.318248 -2.01572L0.845384 -2.41107L1.37252 -2.01572L1.17484 -2.63071ZM4.86479 -2.63071L5.39193 -3.02606H4.73301L4.53533 -3.64105L4.33766 -3.02606H3.67874L4.20587 -2.63071L4.0082 -2.01572L4.53533 -2.41107L5.06247 -2.01572L4.86479 -2.63071ZM-4.27223 8.37325L-3.74509 7.9779H-4.40401L-4.60169 7.36291L-4.79936 7.9779H-5.45828L-4.93115 8.37325L-5.12882 8.98824L-4.60169 8.59289L-4.07455 8.98824L-4.27223 8.37325ZM-4.33812 5.29829L-3.81098 4.90294H-4.4699L-4.66758 4.28795L-4.86525 4.90294H-5.52417L-4.99704 5.29829L-5.19471 5.91329L-4.66758 5.51793L-4.14044 5.91329L-4.33812 5.29829ZM-4.31615 2.2453L-3.78902 1.84995H-4.44794L-4.64561 1.23495L-4.84329 1.84995H-5.50221L-4.97507 2.2453L-5.17275 2.86029L-4.64561 2.46494L-4.11848 2.86029L-4.31615 2.2453ZM8.55474 -2.63071L9.08188 -3.02606H8.42296L8.22528 -3.64105L8.02761 -3.02606H7.36869L7.89582 -2.63071L7.69815 -2.01572L8.22528 -2.41107L8.75242 -2.01572L8.55474 -2.63071ZM12.2447 -2.63071L12.7718 -3.02606H12.1129L11.9152 -3.64105L11.7176 -3.02606H11.0586L11.5858 -2.63071L11.3881 -2.01572L11.9152 -2.41107L12.4424 -2.01572L12.2447 -2.63071ZM-0.626204 2.2453L-0.0990682 1.84995H-0.757988L-0.955664 1.23495L-1.15334 1.84995H-1.81226L-1.28512 2.2453L-1.4828 2.86029L-0.955664 2.46494L-0.428528 2.86029L-0.626204 2.2453ZM-0.648168 5.29829L-0.121032 4.90294H-0.779952L-0.977628 4.28795L-1.1753 4.90294H-1.83422L-1.30709 5.29829L-1.50476 5.91329L-0.977628 5.51793L-0.450491 5.91329L-0.648168 5.29829ZM-0.582276 8.37325L-0.05514 7.9779H-0.71406L-0.911736 7.36291L-1.10941 7.9779H-1.76833L-1.2412 8.37325L-1.43887 8.98824L-0.911736 8.59289L-0.3846 8.98824L-0.582276 8.37325ZM3.10767 8.37325L3.63481 7.9779H2.97589L2.77821 7.36291L2.58054 7.9779H1.92162L2.44875 8.37325L2.25108 8.98824L2.77821 8.59289L3.30535 8.98824L3.10767 8.37325ZM3.04178 5.29829L3.56892 4.90294H2.91L2.71232 4.28795L2.51465 4.90294H1.85573L2.38286 5.29829L2.18519 5.91329L2.71232 5.51793L3.23946 5.91329L3.04178 5.29829ZM3.06375 2.2453L3.59088 1.84995H2.93196L2.73429 1.23495L2.53661 1.84995H1.87769L2.40483 2.2453L2.20715 2.86029L2.73429 2.46494L3.26142 2.86029L3.06375 2.2453ZM-4.36008 -1.0493L-3.83295 -1.44465H-4.49187L-4.68954 -2.05964L-4.88722 -1.44465H-5.54614L-5.019 -1.0493L-5.21668 -0.412345L-4.68954 -0.807697L-4.16241 -0.412345L-4.36008 -1.0493ZM-0.670132 -1.0493L-0.142996 -1.44465H-0.801916L-0.999591 -2.05964L-1.19727 -1.44465H-1.85619L-1.32905 -1.0493L-1.52673 -0.412345L-0.999591 -0.807697L-0.472456 -0.412345L-0.670132 -1.0493ZM6.7537 2.2453L7.28083 1.84995H6.62191L6.42424 1.23495L6.22656 1.84995H5.56764L6.09478 2.2453L5.8971 2.86029L6.42424 2.46494L6.95137 2.86029L6.7537 2.2453ZM6.73173 5.29829L7.25887 4.90294H6.59995L6.40227 4.28795L6.2046 4.90294H5.54568L6.07281 5.29829L5.87514 5.91329L6.40227 5.51793L6.92941 5.91329L6.73173 5.29829ZM6.79762 8.37325L7.32476 7.9779H6.66584L6.46817 7.36291L6.27049 7.9779H5.61157L6.13871 8.37325L5.94103 8.98824L6.46817 8.59289L6.9953 8.98824L6.79762 8.37325ZM10.4876 8.37325L11.0147 7.9779H10.3558L10.1581 7.36291L9.96044 7.9779H9.30152L9.82866 8.37325L9.63098 8.98824L10.1581 8.59289L10.6853 8.98824L10.4876 8.37325ZM10.4217 5.29829L10.9488 4.90294H10.2899L10.0922 4.28795L9.89455 4.90294H9.23563L9.76276 5.29829L9.56509 5.91329L10.0922 5.51793L10.6194 5.91329L10.4217 5.29829ZM10.4436 2.2453L10.9708 1.84995H10.3119L10.1142 1.23495L9.91651 1.84995H9.25759L9.78473 2.2453L9.58705 2.86029L10.1142 2.46494L10.6413 2.86029L10.4436 2.2453ZM3.01982 -1.0493L3.54695 -1.44465H2.88803L2.69036 -2.05964L2.49268 -1.44465H1.83376L2.3609 -1.0493L2.16322 -0.412345L2.69036 -0.807697L3.21749 -0.412345L3.01982 -1.0493ZM6.70977 -1.0493L7.2369 -1.44465H6.57799L6.38031 -2.05964L6.18263 -1.44465H5.52371L6.05085 -1.0493L5.85317 -0.412345L6.38031 -0.807697L6.90744 -0.412345L6.70977 -1.0493ZM10.3997 -1.0493L10.9269 -1.44465H10.2679L10.0703 -2.05964L9.87258 -1.44465H9.21366L9.7408 -1.0493L9.54312 -0.412345L10.0703 -0.807697L10.5974 -0.412345L10.3997 -1.0493ZM-6.1172 9.95466L-5.59007 9.55931H-6.24899L-6.44666 8.94431L-6.64434 9.55931H-7.30326L-6.77612 9.95466L-6.9738 10.5697L-6.44666 10.1743L-5.91953 10.5697L-6.1172 9.95466ZM-6.18309 6.8797L-5.65596 6.48435H-6.31488L-6.51255 5.86936L-6.71023 6.48435H-7.36915L-6.84201 6.8797L-7.03969 7.49469L-6.51255 7.09934L-5.98542 7.49469L-6.18309 6.8797ZM-6.16113 3.82671L-5.63399 3.43135H-6.29291L-6.49059 2.81636L-6.68827 3.43135H-7.34719L-6.82005 3.82671L-7.01773 4.4417L-6.49059 4.04635L-5.96345 4.4417L-6.16113 3.82671ZM-2.47118 3.82671L-1.94404 3.43135H-2.60296L-2.80064 2.81636L-2.99831 3.43135H-3.65723L-3.1301 3.82671L-3.32778 4.4417L-2.80064 4.04635L-2.2735 4.4417L-2.47118 3.82671ZM-2.49314 6.8797L-1.96601 6.48435H-2.62493L-2.8226 5.86936L-3.02028 6.48435H-3.6792L-3.15206 6.8797L-3.34974 7.49469L-2.8226 7.09934L-2.29547 7.49469L-2.49314 6.8797ZM-2.42725 9.95466L-1.90012 9.55931H-2.55904L-2.75671 8.94431L-2.95439 9.55931H-3.61331L-3.08617 9.95466L-3.28385 10.5697L-2.75671 10.1743L-2.22958 10.5697L-2.42725 9.95466ZM1.2627 9.95466L1.78983 9.55931H1.13091L0.93324 8.94431L0.735563 9.55931H0.0766439L0.60378 9.95466L0.406104 10.5697L0.93324 10.1743L1.46037 10.5697L1.2627 9.95466ZM1.19681 6.8797L1.72394 6.48435H1.06502L0.867348 5.86936L0.669672 6.48435H0.0107517L0.537888 6.8797L0.340212 7.49469L0.867348 7.09934L1.39448 7.49469L1.19681 6.8797ZM1.21877 3.82671L1.74591 3.43135H1.08699L0.889312 2.81636L0.691635 3.43135H0.0327158L0.559852 3.82671L0.362175 4.4417L0.889312 4.04635L1.41645 4.4417L1.21877 3.82671ZM-6.20506 0.532106L-5.67792 0.136755H-6.33684L-6.53452 -0.478237L-6.73219 0.136755H-7.39111L-6.86398 0.532106L-7.06165 1.1471L-6.53452 0.751746L-6.00738 1.1471L-6.20506 0.532106ZM-2.51511 0.532106L-1.98797 0.136755H-2.64689L-2.84457 -0.478237L-3.04224 0.136755H-3.70116L-3.17403 0.532106L-3.3717 1.1471L-2.84457 0.751746L-2.31743 1.1471L-2.51511 0.532106ZM4.90872 3.82671L5.43586 3.43135H4.77694L4.57926 2.81636L4.38159 3.43135H3.72267L4.2498 3.82671L4.05213 4.4417L4.57926 4.04635L5.1064 4.4417L4.90872 3.82671ZM4.88676 6.8797L5.41389 6.48435H4.75497L4.5573 5.86936L4.35962 6.48435H3.7007L4.22784 6.8797L4.03016 7.49469L4.5573 7.09934L5.08443 7.49469L4.88676 6.8797ZM4.95265 9.95466L5.47979 9.55931H4.82087L4.62319 8.94431L4.42551 9.55931H3.76659L4.29373 9.95466L4.09605 10.5697L4.62319 10.1743L5.15033 10.5697L4.95265 9.95466ZM8.6426 9.95466L9.16973 9.55931H8.51081L8.31314 8.94431L8.11546 9.55931H7.45654L7.98368 9.95466L7.786 10.5697L8.31314 10.1743L8.84027 10.5697L8.6426 9.95466ZM12.3326 9.95466L12.8597 9.55931H12.2008L12.0031 8.94431L11.8054 9.55931H11.1465L11.6736 9.95466L11.476 10.5697L12.0031 10.1743L12.5302 10.5697L12.3326 9.95466ZM8.57671 6.8797L9.10384 6.48435H8.44492L8.24725 5.86936L8.04957 6.48435H7.39065L7.91779 6.8797L7.72011 7.49469L8.24725 7.09934L8.77438 7.49469L8.57671 6.8797ZM12.2667 6.8797L12.7938 6.48435H12.1349L11.9372 5.86936L11.7395 6.48435H11.0806L11.6077 6.8797L11.4101 7.49469L11.9372 7.09934L12.4643 7.49469L12.2667 6.8797ZM8.59867 3.82671L9.12581 3.43135H8.46689L8.26921 2.81636L8.07154 3.43135H7.41262L7.93975 3.82671L7.74207 4.4417L8.26921 4.04635L8.79635 4.4417L8.59867 3.82671ZM12.2886 3.82671L12.8158 3.43135H12.1568L11.9592 2.81636L11.7615 3.43135H11.1026L11.6297 3.82671L11.432 4.4417L11.9592 4.04635L12.4863 4.4417L12.2886 3.82671ZM1.17484 0.532106L1.70198 0.136755H1.04306L0.845384 -0.478237L0.647708 0.136755H-0.0112119L0.515924 0.532106L0.318248 1.1471L0.845384 0.751746L1.37252 1.1471L1.17484 0.532106ZM4.86479 0.532106L5.39193 0.136755H4.73301L4.53533 -0.478237L4.33766 0.136755H3.67874L4.20587 0.532106L4.0082 1.1471L4.53533 0.751746L5.06247 1.1471L4.86479 0.532106ZM8.55474 0.532106L9.08188 0.136755H8.42296L8.22528 -0.478237L8.02761 0.136755H7.36869L7.89582 0.532106L7.69815 1.1471L8.22528 0.751746L8.75242 1.1471L8.55474 0.532106Z" fill="white"/>
</g>
</svg>
