<svg width="32" height="33" viewBox="0 0 32 33" fill="none" xmlns="http://www.w3.org/2000/svg">
<path d="M14.6112 9.25074C14.8522 9.00973 16.212 8.87574 16.8618 8.83887C17.2938 8.83887 17.7191 8.8678 18.1358 8.92383C18.7181 7.84793 19.8567 7.11719 21.166 7.11719V7.11719C22.1169 7.11719 22.8877 7.88801 22.8877 8.83887V11.0033C24.3504 12.2113 25.4442 13.8502 25.9746 15.7256H26.3311C27.2819 15.7256 28.0527 16.4964 28.0527 17.4473V20.0298C28.0527 20.9806 27.2819 21.7515 26.3311 21.7515H25.6855C25.4068 22.4651 25.0441 23.1367 24.6094 23.7539V26.9165C24.6094 27.8674 23.8386 28.6382 22.8877 28.6382H20.3052C19.5951 28.6382 18.9854 28.2083 18.7222 27.5947C18.1207 27.7145 17.4986 27.7773 16.8618 27.7773H13.4185C13.0605 27.7773 12.7072 27.7575 12.3596 27.7188C12.0712 28.2655 11.4971 28.6382 10.8359 28.6382H8.25342C7.30256 28.6382 6.53174 27.8674 6.53174 26.9165V24.8073C4.93071 23.1115 3.94922 20.8244 3.94922 18.3081C3.94922 17.5205 4.04538 16.7554 4.22659 16.0238C4.33079 15.6068 4.68015 14.6276 5.24405 14.0461" stroke="#FF337C" stroke-width="1.5" stroke-linejoin="round"/>
<path d="M14.6123 11.0678C14.6123 13.8053 12.3931 16.0244 9.65574 16.0244V17.5244C13.2216 17.5244 16.1123 14.6337 16.1123 11.0678H14.6123ZM9.65574 16.0244C6.91833 16.0244 4.69922 13.8053 4.69922 11.0678H3.19922C3.19922 14.6337 6.0899 17.5244 9.65574 17.5244V16.0244ZM4.69922 11.0678C4.69922 8.33044 6.91833 6.11133 9.65574 6.11133V4.61133C6.0899 4.61133 3.19922 7.50201 3.19922 11.0678H4.69922ZM9.65574 6.11133C12.3931 6.11133 14.6123 8.33044 14.6123 11.0678H16.1123C16.1123 7.50201 13.2216 4.61133 9.65574 4.61133V6.11133Z" fill="#FF337C"/>
<path d="M22.5983 13.9284V14.7615" stroke="#FF337C" stroke-width="1.5" stroke-linecap="round"/>
<path fill-rule="evenodd" clip-rule="evenodd" d="M12.552 9.75399C12.4591 10.2596 12.139 10.7162 11.6453 10.9646C11.1515 11.2131 10.5938 11.1981 10.1323 10.9712C10.2252 10.4656 10.5454 10.009 11.039 9.76054C11.5328 9.51203 12.0905 9.52709 12.552 9.75399ZM13.1173 9.27386C12.4262 8.82072 11.5176 8.73764 10.725 9.13655C10.242 9.3796 9.87711 9.7638 9.65486 10.2135C9.43261 9.7638 9.06772 9.3796 8.58476 9.13655C7.79208 8.73764 6.88349 8.82072 6.19238 9.27386L6.02344 9.38463L6.03521 9.58631C6.08336 10.411 6.55795 11.1898 7.35037 11.5886C7.98528 11.9081 8.69455 11.9184 9.30686 11.677V13.5792C9.30686 13.7721 9.46324 13.9285 9.65614 13.9285C9.84904 13.9285 10.0054 13.7721 10.0054 13.5792V11.678C10.6171 11.9184 11.3253 11.9077 11.9594 11.5886C12.7518 11.1898 13.2264 10.411 13.2745 9.58631L13.2863 9.38463L13.1173 9.27386ZM6.75771 9.75399C6.85059 10.2596 7.17077 10.7162 7.66439 10.9646C8.15821 11.2131 8.71595 11.1981 9.17742 10.9712C9.08454 10.4656 8.76436 10.009 8.27074 9.76054C7.77693 9.51203 7.21919 9.52709 6.75771 9.75399Z" fill="#FF337C"/>
<path d="M11.6453 10.9646L11.5329 10.7413L11.5329 10.7413L11.6453 10.9646ZM12.552 9.75399L12.7979 9.79916C12.8181 9.6891 12.7627 9.57902 12.6623 9.52964L12.552 9.75399ZM10.1323 10.9712L9.88642 10.926C9.8662 11.036 9.92158 11.1461 10.022 11.1955L10.1323 10.9712ZM11.039 9.76054L11.1514 9.98386L11.1514 9.98386L11.039 9.76054ZM10.725 9.13655L10.6126 8.91324L10.6126 8.91324L10.725 9.13655ZM13.1173 9.27386L13.2544 9.06479L13.2544 9.06479L13.1173 9.27386ZM9.65486 10.2135L9.43074 10.3243C9.47288 10.4096 9.55975 10.4635 9.65486 10.4635C9.74997 10.4635 9.83685 10.4096 9.87899 10.3243L9.65486 10.2135ZM8.58476 9.13655L8.69715 8.91324L8.69715 8.91324L8.58476 9.13655ZM6.19238 9.27386L6.32946 9.48293L6.32946 9.48293L6.19238 9.27386ZM6.02344 9.38463L5.88636 9.17556C5.81155 9.22461 5.76865 9.3099 5.77386 9.3992L6.02344 9.38463ZM6.03521 9.58631L5.78564 9.60088L5.78564 9.60088L6.03521 9.58631ZM7.35037 11.5886L7.46275 11.3653L7.46275 11.3653L7.35037 11.5886ZM9.30686 11.677H9.55686C9.55686 11.5943 9.51593 11.5169 9.44753 11.4703C9.37914 11.4238 9.29214 11.4141 9.21517 11.4444L9.30686 11.677ZM10.0054 11.678L10.0968 11.4453C10.0199 11.4151 9.93295 11.4249 9.86463 11.4714C9.7963 11.518 9.75541 11.5953 9.75541 11.678H10.0054ZM11.9594 11.5886L11.847 11.3653L11.847 11.3653L11.9594 11.5886ZM13.2745 9.58631L13.5241 9.60088L13.5241 9.60088L13.2745 9.58631ZM13.2863 9.38463L13.5359 9.3992C13.5411 9.3099 13.4982 9.22461 13.4234 9.17556L13.2863 9.38463ZM7.66439 10.9646L7.77678 10.7413L7.77678 10.7413L7.66439 10.9646ZM6.75771 9.75399L6.6474 9.52964C6.54699 9.57902 6.49161 9.6891 6.51183 9.79916L6.75771 9.75399ZM9.17742 10.9712L9.28773 11.1955C9.38815 11.1461 9.44353 11.036 9.42331 10.926L9.17742 10.9712ZM8.27074 9.76054L8.38313 9.53723L8.38313 9.53723L8.27074 9.76054ZM11.7577 11.1879C12.3242 10.9029 12.6915 10.3785 12.7979 9.79916L12.3061 9.70882C12.2268 10.1406 11.9537 10.5295 11.5329 10.7413L11.7577 11.1879ZM10.022 11.1955C10.5508 11.4555 11.1911 11.4731 11.7577 11.1879L11.5329 10.7413C11.112 10.9531 10.6367 10.9406 10.2426 10.7468L10.022 11.1955ZM10.9266 9.53723C10.3602 9.82229 9.99286 10.3466 9.88642 10.926L10.3782 11.0163C10.4575 10.5845 10.7306 10.1956 11.1514 9.98386L10.9266 9.53723ZM12.6623 9.52964C12.1335 9.26963 11.4933 9.25206 10.9266 9.53723L11.1514 9.98386C11.5723 9.77201 12.0476 9.78455 12.4417 9.97834L12.6623 9.52964ZM10.8373 9.35987C11.547 9.00273 12.3607 9.07669 12.9803 9.48293L13.2544 9.06479C12.4918 8.56475 11.4883 8.47254 10.6126 8.91324L10.8373 9.35987ZM9.87899 10.3243C10.078 9.92149 10.4046 9.57767 10.8373 9.35987L10.6126 8.91324C10.0795 9.18153 9.67618 9.60611 9.43074 10.1028L9.87899 10.3243ZM8.47238 9.35987C8.90517 9.57767 9.23168 9.92149 9.43074 10.3243L9.87899 10.1028C9.63354 9.60611 9.23026 9.18153 8.69715 8.91324L8.47238 9.35987ZM6.32946 9.48293C6.94904 9.07669 7.76271 9.00273 8.47238 9.35987L8.69715 8.91324C7.82145 8.47254 6.81794 8.56475 6.0553 9.06479L6.32946 9.48293ZM6.16052 9.5937L6.32946 9.48293L6.0553 9.06479L5.88636 9.17556L6.16052 9.5937ZM6.28479 9.57173L6.27301 9.37006L5.77386 9.3992L5.78564 9.60088L6.28479 9.57173ZM7.46275 11.3653C6.75332 11.0083 6.32795 10.3111 6.28479 9.57173L5.78564 9.60088C5.83877 10.5109 6.36259 11.3714 7.23799 11.8119L7.46275 11.3653ZM9.21517 11.4444C8.66624 11.6608 8.03137 11.6514 7.46275 11.3653L7.23799 11.8119C7.9392 12.1648 8.72286 12.176 9.39856 11.9096L9.21517 11.4444ZM9.55686 13.5792V11.677H9.05686V13.5792H9.55686ZM9.65614 13.6785C9.60131 13.6785 9.55686 13.6341 9.55686 13.5792H9.05686C9.05686 13.9102 9.32517 14.1785 9.65614 14.1785V13.6785ZM9.75541 13.5792C9.75541 13.6341 9.71097 13.6785 9.65614 13.6785V14.1785C9.98711 14.1785 10.2554 13.9102 10.2554 13.5792H9.75541ZM9.75541 11.678V13.5792H10.2554V11.678H9.75541ZM11.847 11.3653C11.2791 11.651 10.6453 11.6608 10.0968 11.4453L9.91399 11.9107C10.589 12.1759 11.3715 12.1643 12.0717 11.8119L11.847 11.3653ZM13.0249 9.57173C12.9818 10.3111 12.5564 11.0083 11.847 11.3653L12.0717 11.8119C12.9471 11.3714 13.471 10.5109 13.5241 9.60088L13.0249 9.57173ZM13.0367 9.37006L13.0249 9.57173L13.5241 9.60088L13.5359 9.3992L13.0367 9.37006ZM12.9803 9.48293L13.1492 9.5937L13.4234 9.17556L13.2544 9.06479L12.9803 9.48293ZM7.77678 10.7413C7.35597 10.5295 7.08292 10.1406 7.0036 9.70882L6.51183 9.79916C6.61827 10.3785 6.98557 10.9029 7.55201 11.1879L7.77678 10.7413ZM9.06711 10.7468C8.67298 10.9406 8.19774 10.9531 7.77678 10.7413L7.55201 11.1879C8.11867 11.4731 8.75891 11.4555 9.28773 11.1955L9.06711 10.7468ZM8.15836 9.98386C8.57916 10.1956 8.85221 10.5845 8.93154 11.0163L9.42331 10.926C9.31687 10.3466 8.94957 9.82229 8.38313 9.53723L8.15836 9.98386ZM6.86802 9.97834C7.26215 9.78455 7.7374 9.77201 8.15836 9.98386L8.38313 9.53723C7.81646 9.25206 7.17623 9.26963 6.6474 9.52964L6.86802 9.97834Z" fill="#FF337C"/>
</svg>
