<svg width="38" height="38" viewBox="0 0 38 38" fill="none" xmlns="http://www.w3.org/2000/svg">
<path fill-rule="evenodd" clip-rule="evenodd" d="M18.4324 12.6488C18.5827 12.1061 18.663 11.5343 18.663 10.9437C18.663 10.6569 18.6441 10.3745 18.6074 10.0978H19.9815C20.4736 10.0978 20.958 10.1307 21.4326 10.1946C22.0959 8.96907 23.3929 8.13672 24.8842 8.13672H26.8453V12.5632C28.5114 13.9392 29.7572 15.8059 30.3614 17.9421H30.7674C31.8505 17.9421 32.7285 18.8201 32.7285 19.9032V22.8448C32.7285 23.9279 31.8505 24.8059 30.7674 24.8059H30.0322C29.7147 25.6187 29.3015 26.3837 28.8064 27.0868V30.6891C28.8064 31.7722 27.9284 32.6502 26.8453 32.6502H23.9037C23.0949 32.6502 22.4004 32.1606 22.1006 31.4615C21.4154 31.598 20.7068 31.6696 19.9815 31.6696H16.0594C15.6517 31.6696 15.2493 31.647 14.8533 31.603C14.5247 32.2257 13.8708 32.6502 13.1177 32.6502H10.1761C9.09306 32.6502 8.21505 31.7722 8.21505 30.6891V28.2867C6.3914 26.355 5.27344 23.7499 5.27344 20.8837C5.27344 18.6078 5.97833 16.4966 7.18171 14.7563C8.34396 16.3109 10.1992 17.3172 12.2895 17.3172C14.8599 17.3172 17.0749 15.7956 18.0829 13.6041C18.764 13.649 19.4318 13.7765 20.0827 13.9807L20.3762 13.0451C19.7434 12.8466 19.0943 12.7128 18.4324 12.6488ZM27.9188 16.9054C27.9188 17.4469 27.4798 17.8859 26.9383 17.8859C26.3967 17.8859 25.9577 17.4469 25.9577 16.9054C25.9577 16.3638 26.3967 15.9248 26.9383 15.9248C27.4798 15.9248 27.9188 16.3638 27.9188 16.9054Z" fill="url(#paint0_linear_20242_20552)"/>
<path d="M17.5867 10.7445C17.5867 7.77227 15.166 5.35156 12.1937 5.35156C9.22148 5.35156 6.80078 7.77227 6.80078 10.7445C6.80078 13.7168 9.22148 16.1375 12.1937 16.1375C15.1966 16.1375 17.5867 13.7168 17.5867 10.7445ZM11.7035 14.2071C11.7035 14.0845 11.7035 13.9619 11.7035 13.87C11.7035 13.6249 11.7035 13.5942 11.4583 13.5636C11.1519 13.5023 10.8455 13.441 10.5391 13.2878C10.3246 13.1652 10.2939 13.1346 10.3552 12.8895C10.4165 12.7056 10.4472 12.5217 10.5084 12.3685C10.5697 12.154 10.631 12.154 10.8149 12.246C11.1213 12.3992 11.4583 12.4911 11.826 12.5524C12.0405 12.583 12.2857 12.5524 12.5002 12.4605C12.8985 12.2766 12.9598 11.817 12.6227 11.5412C12.5002 11.4493 12.3776 11.388 12.255 11.3267C11.918 11.1735 11.5503 11.0509 11.2132 10.8671C10.6923 10.5607 10.3552 10.101 10.3859 9.45757C10.4165 8.72216 10.8455 8.26254 11.5196 8.0174C11.7954 7.92548 11.7954 7.92548 11.7954 7.61906V7.31264C11.7954 7.09815 11.826 7.0675 12.0405 7.03686C12.1018 7.03686 12.1631 7.03686 12.255 7.03686C12.7147 7.03686 12.7147 7.03686 12.7147 7.49649C12.7147 7.83355 12.7147 7.83355 13.0517 7.86419C13.2968 7.89483 13.542 7.98676 13.7565 8.07869C13.879 8.13997 13.9403 8.23189 13.879 8.35446C13.8178 8.56895 13.7565 8.7528 13.6952 8.9673C13.6339 9.15115 13.5726 9.18179 13.3888 9.08987C13.0211 8.90601 12.6534 8.84473 12.255 8.87537C12.1631 8.87537 12.0405 8.90601 11.9486 8.93666C11.6115 9.08987 11.5503 9.45757 11.826 9.7027C11.9793 9.82527 12.1325 9.91719 12.3163 9.97848C12.6227 10.101 12.9291 10.2236 13.2049 10.3768C14.1242 10.8977 14.3693 12.0315 13.7258 12.8282C13.4807 13.1039 13.1743 13.3184 12.8372 13.4104C12.684 13.441 12.6227 13.5329 12.6227 13.6861C12.6227 13.8393 12.6227 13.9926 12.6227 14.1764C12.6227 14.3296 12.5614 14.3909 12.4082 14.3909C12.2244 14.3909 12.0712 14.3909 11.8873 14.3909C11.7648 14.4522 11.7035 14.3603 11.7035 14.2071Z" fill="url(#paint1_linear_20242_20552)"/>
<defs>
<linearGradient id="paint0_linear_20242_20552" x1="5.27344" y1="20.3961" x2="32.7228" y2="20.3961" gradientUnits="userSpaceOnUse">
<stop stop-color="#70C6FC"/>
<stop offset="0.0627815" stop-color="#6CC2FB"/>
<stop offset="0.6801" stop-color="#439CF2"/>
<stop offset="1" stop-color="#348DEF"/>
</linearGradient>
<linearGradient id="paint1_linear_20242_20552" x1="6.80078" y1="10.7457" x2="17.5845" y2="10.7457" gradientUnits="userSpaceOnUse">
<stop stop-color="#70C6FC"/>
<stop offset="0.0627815" stop-color="#6CC2FB"/>
<stop offset="0.6801" stop-color="#439CF2"/>
<stop offset="1" stop-color="#348DEF"/>
</linearGradient>
</defs>
</svg>
