<svg width="38" height="38" viewBox="0 0 38 38" fill="none" xmlns="http://www.w3.org/2000/svg">
<path d="M29.07 18.24V13.2525C29.07 12.065 28.12 11.115 26.9325 11.115H25.46L23.9875 8.40749C23.75 7.97999 23.3225 7.74249 22.8475 7.74249C22.61 7.74249 22.42 7.78999 22.23 7.88499L16.4825 11.0675H10.0225C8.83501 11.0675 7.88501 12.0175 7.88501 13.205V28.025C7.88501 29.2125 8.83501 30.1625 10.0225 30.1625H26.885C28.0725 30.1625 29.0225 29.2125 29.0225 28.025V23.75H30.115V18.24H29.07ZM26.885 11.97C27.55 11.97 28.0725 12.4925 28.1675 13.11H26.5525L25.935 11.97H26.885ZM14.5825 13.11L22.5625 8.64499C22.7525 8.54999 23.0375 8.59749 23.1325 8.83499L25.5075 13.11H25.46L25.5075 13.205H14.5825L14.7725 13.11H14.5825ZM29.26 22.8475H25.0325C24.035 22.8475 23.2275 22.04 23.2275 21.0425V20.9C23.2275 19.9025 24.035 19.095 25.0325 19.095H29.26V22.8475Z" fill="url(#paint0_linear_10973_32959)"/>
<defs>
<linearGradient id="paint0_linear_10973_32959" x1="7.88501" y1="18.9549" x2="30.1104" y2="18.9549" gradientUnits="userSpaceOnUse">
<stop stop-color="#B59A5B"/>
<stop offset="0.2339" stop-color="#B39759"/>
<stop offset="0.4867" stop-color="#A4834C"/>
<stop offset="0.7688" stop-color="#987342"/>
<stop offset="0.9934" stop-color="#946E3F"/>
</linearGradient>
</defs>
</svg>
