<svg fill="none" height="38" viewBox="0 0 38 38" width="38" xmlns="http://www.w3.org/2000/svg"><path d="m29.07 18.24v-4.9875c0-1.1875-.95-2.1375-2.1375-2.1375h-1.4725l-1.4725-2.70751c-.2375-.4275-.665-.665-1.14-.665-.2375 0-.4275.0475-.6175.1425l-5.7475 3.18251h-6.46c-1.18749 0-2.13749.95-2.13749 2.1375v14.82c0 1.1875.95 2.1375 2.13749 2.1375h16.8625c1.1875 0 2.1375-.95 2.1375-2.1375v-4.275h1.0925v-5.51zm-2.185-6.27c.665 0 1.1875.5225 1.2825 1.14h-1.615l-.6175-1.14zm-12.3025 1.14 7.98-4.46501c.19-.095.475-.0475.57.19l2.375 4.27501h-.0475l.0475.095h-10.925l.19-.095zm14.6775 9.7375h-4.2275c-.9975 0-1.805-.8075-1.805-1.805v-.1425c0-.9975.8075-1.805 1.805-1.805h4.2275z" fill="#36405c"/></svg>