<svg width="12" height="12" viewBox="0 0 12 12" fill="none" xmlns="http://www.w3.org/2000/svg">
<g clip-path="url(#clip0_14759_50566)">
<path d="M5.075 0.875C2.75 0.875 0.875 2.75 0.875 5.075C0.875 7.4 2.75 9.275 5.075 9.275C6.1 9.275 7.025 8.925 7.75 8.3L10.55 11.1L11.125 10.525L8.325 7.75C8.925 7.025 9.3 6.1 9.3 5.075C9.275 2.75 7.4 0.875 5.075 0.875ZM5.075 8.475C3.2 8.475 1.675 6.95 1.675 5.075C1.675 3.2 3.2 1.675 5.075 1.675C6.95 1.675 8.475 3.2 8.475 5.075C8.475 6.95 6.95 8.475 5.075 8.475ZM4.45 5.075C4.45 4.725 4.725 4.45 5.075 4.45C5.425 4.45 5.7 4.725 5.7 5.075C5.7 5.425 5.425 5.7 5.075 5.7C4.725 5.7 4.45 5.425 4.45 5.075ZM6.45 5.075C6.45 4.725 6.725 4.45 7.075 4.45C7.425 4.45 7.7 4.725 7.7 5.075C7.7 5.425 7.425 5.7 7.075 5.7C6.725 5.7 6.45 5.425 6.45 5.075ZM2.45 5.075C2.45 4.725 2.725 4.45 3.075 4.45C3.425 4.45 3.7 4.725 3.7 5.075C3.7 5.425 3.425 5.7 3.075 5.7C2.725 5.7 2.45 5.425 2.45 5.075Z" fill="#B9964B"/>
</g>
<defs>
<clipPath id="clip0_14759_50566">
<rect width="12" height="12" fill="white"/>
</clipPath>
</defs>
</svg>
