<svg width="38" height="38" viewBox="0 0 38 38" fill="none" xmlns="http://www.w3.org/2000/svg">
<path d="M14.9907 25.7744C15.9585 26.4657 17.2719 27.1569 19 27.1569C20.7281 27.1569 22.0415 26.4657 23.0093 25.7744" stroke="#B9964B" stroke-width="2.49618" stroke-miterlimit="10" stroke-linecap="round" stroke-linejoin="round"/>
<path d="M25.7744 14.9214V17.6173" stroke="#B9964B" stroke-width="2.49618" stroke-miterlimit="10" stroke-linecap="round" stroke-linejoin="round"/>
<path d="M12.2257 14.9214V17.6173" stroke="#B9964B" stroke-width="2.49618" stroke-miterlimit="10" stroke-linecap="round" stroke-linejoin="round"/>
<path d="M19.0001 14.9214V20.3823C19.0001 21.1427 18.3779 21.7648 17.6176 21.7648" stroke="#B9964B" stroke-width="2.49618" stroke-miterlimit="10" stroke-linecap="round" stroke-linejoin="round"/>
<path d="M34 10.8431V6.76474C34 5.24398 32.7557 4.06885 31.3041 4.06885H27.2257" stroke="#B9964B" stroke-width="2.49618" stroke-miterlimit="10" stroke-linecap="round" stroke-linejoin="round"/>
<path d="M10.843 4H6.76461C5.24386 4 4.06873 5.24426 4.06873 6.69589V10.7743" stroke="#B9964B" stroke-width="2.49618" stroke-miterlimit="10" stroke-linecap="round" stroke-linejoin="round"/>
<path d="M27.157 33.9999H31.2354C32.7561 33.9999 33.9313 32.7556 33.9313 31.304V27.2256" stroke="#B9964B" stroke-width="2.49618" stroke-miterlimit="10" stroke-linecap="round" stroke-linejoin="round"/>
<path d="M3.99988 27.1567V31.2351C3.99988 32.7559 5.24413 33.931 6.69577 33.931H10.7742" stroke="#B9964B" stroke-width="2.49618" stroke-miterlimit="10" stroke-linecap="round" stroke-linejoin="round"/>
</svg>
