<svg width="80" height="80" viewBox="0 0 80 80" fill="none" xmlns="http://www.w3.org/2000/svg">
<path d="M67.3 29.2H48L46.4 12.5C46.3 11.6 45.6 11 44.7 11H39.3C38.4 11 37.7 11.7 37.6 12.5L36 29.2H34.2L32.6 12.5C32.5 11.6 31.8 11 30.9 11H25.5C24.6 11 23.9 11.7 23.8 12.5L20.5 47.3H17.2C13.8 47.3 11 50.1 11 53.5C11 55.3 11.8 56.9 13 58C11.8 59.1 11 60.8 11 62.6C11 66.1 13.8 68.9 17.3 68.9H67.3C68.2 68.9 69 68.1 69 67.2V30.9C69 30 68.2 29.2 67.3 29.2ZM40.8 14.4H43.1L43.5 18.4H40.4L40.8 14.4ZM40.1 21.8H43.8L44.5 29.3H39.3L40.1 21.8ZM27 14.4H29.3L29.7 18.4H26.6L27 14.4ZM26.3 21.8H30L31 32V47.4H23.9L26.3 21.8ZM17.2 50.8H18.3V51.8C18.3 52.7 19.1 53.5 20 53.5C20.9 53.5 21.7 52.7 21.7 51.8V50.8H27.1C26.2 52.6 26.2 54.7 27.1 56.5C25.4 56.5 18.9 56.5 17.1 56.5C15.5 56.5 14.3 55.2 14.3 53.7C14.3 52.2 15.7 50.8 17.2 50.8ZM21.8 65.6V64.5C21.8 63.6 21 62.8 20.1 62.8C19.2 62.8 18.4 63.6 18.4 64.5V65.6H17.3C15.7 65.6 14.4 64.3 14.4 62.7C14.4 61.1 15.7 59.8 17.3 59.8H25.6V60.8C25.6 61.7 26.4 62.5 27.3 62.5C28.2 62.5 29 61.7 29 60.8V59.8H34.4C33.4 61.7 33.5 63.8 34.4 65.6C31.8 65.6 24.4 65.6 21.8 65.6ZM32.8 56.4C31.2 56.4 30 55.1 30 53.6C30 52.1 31.3 50.8 32.8 50.8C34.3 50.8 35.6 52.1 35.6 53.6C35.6 55.1 34.3 56.4 32.8 56.4ZM40 65.6C38.5 65.6 37.2 64.3 37.2 62.7C37.2 61.1 38.5 59.9 40 59.9C41.5 59.9 42.8 61.2 42.8 62.7C42.8 64.3 41.5 65.6 40 65.6ZM45.5 65.6C46 64.7 46.2 63.7 46.2 62.7C46.2 59.3 43.4 56.5 40 56.5H38.3C40.1 53 38.2 48.7 34.5 47.7V32.7H65.7V65.6H45.5Z" fill="#217DC1"/>
<path d="M40 39.9H41.8C42.7 39.9 43.5 39.1 43.5 38.2C43.5 37.3 42.7 36.5 41.8 36.5H40C39.1 36.5 38.3 37.3 38.3 38.2C38.3 39.1 39.1 39.9 40 39.9Z" fill="#217DC1"/>
<path d="M49.1 39.9H50.9C51.8 39.9 52.6 39.1 52.6 38.2C52.6 37.3 51.8 36.5 50.9 36.5H49.1C48.2 36.5 47.4 37.3 47.4 38.2C47.4 39.1 48.1 39.9 49.1 39.9Z" fill="#217DC1"/>
<path d="M58.1 39.9H59.9C60.8 39.9 61.6 39.1 61.6 38.2C61.6 37.3 60.8 36.5 59.9 36.5H58.1C57.2 36.5 56.4 37.3 56.4 38.2C56.4 39.1 57.2 39.9 58.1 39.9Z" fill="#217DC1"/>
<path d="M40 47.1H41.8C42.7 47.1 43.5 46.3 43.5 45.4C43.5 44.5 42.7 43.7 41.8 43.7H40C39.1 43.7 38.3 44.5 38.3 45.4C38.3 46.3 39.1 47.1 40 47.1Z" fill="#217DC1"/>
<path d="M49.1 47.1H50.9C51.8 47.1 52.6 46.3 52.6 45.4C52.6 44.5 51.8 43.7 50.9 43.7H49.1C48.2 43.7 47.4 44.5 47.4 45.4C47.4 46.3 48.1 47.1 49.1 47.1Z" fill="#217DC1"/>
<path d="M58.1 47.1H59.9C60.8 47.1 61.6 46.3 61.6 45.4C61.6 44.5 60.8 43.7 59.9 43.7H58.1C57.2 43.7 56.4 44.5 56.4 45.4C56.4 46.3 57.2 47.1 58.1 47.1Z" fill="#217DC1"/>
<path d="M49.1 54.4H50.9C51.8 54.4 52.6 53.6 52.6 52.7C52.6 51.8 51.8 51 50.9 51H49.1C48.2 51 47.4 51.8 47.4 52.7C47.4 53.6 48.1 54.4 49.1 54.4Z" fill="#217DC1"/>
<path d="M58.1 54.4H59.9C60.8 54.4 61.6 53.6 61.6 52.7C61.6 51.8 60.9 51 59.9 51H58.1C57.2 51 56.4 51.8 56.4 52.7C56.4 53.6 57.2 54.4 58.1 54.4Z" fill="#217DC1"/>
</svg>
