<svg width="20" height="20" viewBox="0 0 20 20" fill="none" xmlns="http://www.w3.org/2000/svg">
<g clip-path="url(#clip0_39140_893)">
<circle cx="10" cy="10" r="10" fill="#DE2910"/>
<path d="M9.85285 10.1307C5.35952 8.23067 7.35285 2.38401 11.6462 2.67734C10.7795 3.12401 10.6528 3.95734 11.1462 4.73067C11.6995 5.59734 11.0928 6.98401 10.3462 7.32401C9.11285 7.87734 8.86618 9.36401 9.85285 10.1307Z" fill="white"/>
<path d="M9.6062 5.91069L9.35286 6.31069L9.25953 5.85069L8.8062 5.73069L9.21953 5.50402L9.19286 5.03735L9.53953 5.35735L9.97953 5.18402L9.77953 5.61069L10.0795 5.97069L9.6062 5.91069ZM9.87953 10.084C9.33953 9.80402 8.89953 9.22402 8.7062 8.53069C8.4862 7.73069 8.61286 6.87735 9.05286 6.18402L8.95953 6.12402C8.5062 6.84402 8.37286 7.73735 8.59953 8.56402C8.79953 9.29735 9.2462 9.89069 9.8262 10.1907L9.87953 10.084Z" fill="#DE2910"/>
<path d="M9.85278 10.1373C10.2728 5.27733 16.4461 5.364 17.4928 9.544C16.7995 8.85733 15.9661 8.99066 15.3861 9.704C14.7328 10.4973 13.2261 10.3507 12.6728 9.744C11.7728 8.73733 10.2861 8.95733 9.85278 10.1373Z" fill="white"/>
<path d="M13.7996 8.59733L13.3462 8.47733L13.7596 8.25066L13.7329 7.784L14.0796 8.104L14.5196 7.93066L14.3196 8.35733L14.6196 8.71733L14.1529 8.664L13.8996 9.05733L13.7996 8.59733ZM9.91289 10.144C10.0129 9.544 10.4262 8.944 11.0262 8.55066C11.7196 8.09733 12.5729 7.95066 13.3662 8.15066L13.3929 8.044C12.5662 7.83733 11.6796 7.984 10.9662 8.45733C10.3329 8.87733 9.90623 9.484 9.79956 10.124L9.91289 10.144Z" fill="#DE2910"/>
<path d="M9.85278 10.1373C14.5994 9.03067 16.4328 14.9373 12.7794 17.224C13.2194 16.3507 12.8328 15.604 11.9794 15.2707C11.0194 14.8973 10.6928 13.4173 11.1061 12.704C11.7794 11.524 11.1061 10.184 9.85278 10.1373Z" fill="white"/>
<path d="M12.5328 13.4107L12.5061 12.944L12.8528 13.264L13.2928 13.0907L13.0928 13.5173L13.3928 13.8773L12.9261 13.824L12.6728 14.224L12.5794 13.764L12.1261 13.644L12.5328 13.4107ZM9.86612 10.1973C10.4728 10.104 11.1661 10.3173 11.7261 10.764C12.3728 11.2773 12.7728 12.044 12.8261 12.864L12.9394 12.8573C12.8794 12.004 12.4661 11.2107 11.7994 10.6773C11.2061 10.204 10.4928 9.984 9.85278 10.084L9.86612 10.1973Z" fill="#DE2910"/>
<path d="M9.85287 10.144C12.3729 14.3173 7.31953 17.884 4.01953 15.1173C4.9862 15.264 5.57953 14.664 5.6262 13.7507C5.6862 12.724 6.99286 11.9573 7.79953 12.124C9.1262 12.3973 10.1995 11.344 9.85287 10.144Z" fill="white"/>
<path d="M7.56627 13.704L8.00627 13.5307L7.80627 13.9574L8.10627 14.3174L7.6396 14.264L7.38627 14.6574L7.29293 14.1974L6.8396 14.0774L7.25293 13.8507L7.22627 13.384L7.56627 13.704ZM9.7996 10.164C10.0729 10.7107 10.0863 11.4374 9.83293 12.1107C9.5396 12.884 8.93293 13.504 8.17293 13.8107L8.21293 13.9174C9.00627 13.5974 9.63293 12.9574 9.93293 12.1574C10.1996 11.444 10.1863 10.704 9.89293 10.124L9.7996 10.164Z" fill="#DE2910"/>
<path d="M9.84619 10.1374C6.65285 13.824 1.70618 10.124 3.31285 6.12402C3.46619 7.09069 4.21952 7.46402 5.11285 7.23069C6.10618 6.97069 7.23952 7.97736 7.33285 8.79736C7.47952 10.144 8.81285 10.8374 9.84619 10.1374Z" fill="white"/>
<path d="M5.75947 9.06398L6.05947 9.42398L5.5928 9.37065L5.33947 9.77065L5.24613 9.31065L4.78613 9.19065L5.19947 8.96398L5.1728 8.49731L5.51947 8.81731L5.95947 8.64398L5.75947 9.06398ZM9.8128 10.0973C9.37947 10.5306 8.6928 10.764 7.9728 10.7306C7.14613 10.6906 6.3728 10.3106 5.84613 9.67731L5.75947 9.75065C6.30613 10.404 7.1128 10.804 7.96613 10.844C8.72613 10.8773 9.42613 10.6373 9.8928 10.1773L9.8128 10.0973Z" fill="#DE2910"/>
</g>
<defs>
<clipPath id="clip0_39140_893">
<rect width="20" height="20" fill="white"/>
</clipPath>
</defs>
</svg>
