<svg width="64" height="64" viewBox="0 0 64 64" fill="none" xmlns="http://www.w3.org/2000/svg">
<circle cx="32" cy="32" r="31" fill="#313AB8" stroke="white" stroke-width="2"/>
<g filter="url(#filter0_di_1438_2376)">
<path d="M44.9694 34.487C44.4052 35.6132 43.24 36.3721 41.8786 36.3354C40.1124 36.2742 38.6896 34.8298 38.6651 33.0671C38.6406 31.2188 40.1369 29.701 41.989 29.701C43.2891 29.701 44.4297 30.4476 44.9694 31.5493C45.1288 31.8675 45.46 32.0756 45.8157 32.0756H49.9C49.9613 32.0756 49.9981 32.0267 49.9981 31.9655C49.4707 27.975 46.0119 24.8904 41.854 24.9638C37.4631 25.0373 33.9185 28.6483 33.9308 33.0304C33.9308 37.4737 37.549 41.0725 42.0012 41.0725C46.0978 41.0725 49.483 38.0246 49.9981 34.0708C50.0104 34.0096 49.9613 33.9607 49.9 33.9607H45.828C45.46 33.9607 45.1288 34.1565 44.9694 34.487Z" fill="url(#paint0_linear_1438_2376)"/>
<path d="M41.5088 42.4815C36.2716 42.4815 32.0156 38.234 32.0156 33.0073C32.0156 27.7805 36.2716 23.5331 41.5088 23.5331C43.1891 23.5331 44.7836 23.9737 46.145 24.7449C46.1818 24.7694 46.2064 24.7204 46.1818 24.6959C44.2807 23.0924 41.8154 22.1132 39.1294 22.1132C33.0949 22.1132 28.2134 26.9849 28.2134 33.0073C28.2134 39.0296 33.0949 43.9014 39.1294 43.9014C41.8154 43.9014 44.2807 42.9344 46.1818 41.3186C46.2064 41.2941 46.1818 41.2452 46.145 41.2697C44.7836 42.0408 43.2014 42.4815 41.5088 42.4815Z" fill="url(#paint1_linear_1438_2376)"/>
<path d="M38.6673 45.3212C31.8479 45.3212 26.3163 39.8007 26.3285 32.9827C26.3408 26.2014 31.8847 20.6931 38.6796 20.6931C41.3288 20.6931 43.7819 21.5255 45.7933 22.9454C45.8301 22.9699 45.8669 22.9209 45.8301 22.8964C43.2667 20.3626 39.7344 18.7958 35.8463 18.7958C27.9721 18.7836 21.5942 25.1242 21.5819 32.9827C21.5697 40.8411 27.9475 47.2185 35.8218 47.2185C39.7221 47.2185 43.2545 45.6517 45.8301 43.1179C45.8547 43.0934 45.8179 43.0444 45.7933 43.0689C43.7819 44.4888 41.3166 45.3212 38.6673 45.3212Z" fill="url(#paint2_linear_1438_2376)"/>
<path d="M35.3415 48.6376C26.6946 48.6376 19.6789 41.636 19.6789 33.0063C19.6789 24.3767 26.6946 17.3751 35.3415 17.3751C39.156 17.3751 42.6515 18.7338 45.3744 20.9983C45.3989 21.0228 45.448 20.9861 45.4235 20.9494C42.0996 17.2649 37.2671 14.9637 31.9073 15.0004C21.9479 15.0616 13.9633 23.1282 14.0001 33.0553C14.0369 42.9702 22.0951 51 32.0422 51C37.353 51 42.1364 48.6988 45.4357 45.0511C45.4603 45.0266 45.4235 44.9776 45.3867 45.0021C42.6638 47.2789 39.156 48.6376 35.3415 48.6376Z" fill="url(#paint3_linear_1438_2376)"/>
</g>
<defs>
<filter id="filter0_di_1438_2376" x="10" y="13" width="44" height="44" filterUnits="userSpaceOnUse" color-interpolation-filters="sRGB">
<feFlood flood-opacity="0" result="BackgroundImageFix"/>
<feColorMatrix in="SourceAlpha" type="matrix" values="0 0 0 0 0 0 0 0 0 0 0 0 0 0 0 0 0 0 127 0" result="hardAlpha"/>
<feOffset dy="2"/>
<feGaussianBlur stdDeviation="2"/>
<feComposite in2="hardAlpha" operator="out"/>
<feColorMatrix type="matrix" values="0 0 0 0 0 0 0 0 0 0 0 0 0 0 0 0 0 0 0.35 0"/>
<feBlend mode="normal" in2="BackgroundImageFix" result="effect1_dropShadow_1438_2376"/>
<feBlend mode="normal" in="SourceGraphic" in2="effect1_dropShadow_1438_2376" result="shape"/>
<feColorMatrix in="SourceAlpha" type="matrix" values="0 0 0 0 0 0 0 0 0 0 0 0 0 0 0 0 0 0 127 0" result="hardAlpha"/>
<feOffset dy="2"/>
<feGaussianBlur stdDeviation="1"/>
<feComposite in2="hardAlpha" operator="arithmetic" k2="-1" k3="1"/>
<feColorMatrix type="matrix" values="0 0 0 0 1 0 0 0 0 1 0 0 0 0 1 0 0 0 0.55 0"/>
<feBlend mode="normal" in2="shape" result="effect2_innerShadow_1438_2376"/>
</filter>
<linearGradient id="paint0_linear_1438_2376" x1="32" y1="51" x2="32" y2="15" gradientUnits="userSpaceOnUse">
<stop stop-color="#C2A36E"/>
<stop offset="1" stop-color="#EBD8C1"/>
</linearGradient>
<linearGradient id="paint1_linear_1438_2376" x1="32" y1="51" x2="32" y2="15" gradientUnits="userSpaceOnUse">
<stop stop-color="#C2A36E"/>
<stop offset="1" stop-color="#EBD8C1"/>
</linearGradient>
<linearGradient id="paint2_linear_1438_2376" x1="32" y1="51" x2="32" y2="15" gradientUnits="userSpaceOnUse">
<stop stop-color="#C2A36E"/>
<stop offset="1" stop-color="#EBD8C1"/>
</linearGradient>
<linearGradient id="paint3_linear_1438_2376" x1="32" y1="51" x2="32" y2="15" gradientUnits="userSpaceOnUse">
<stop stop-color="#C2A36E"/>
<stop offset="1" stop-color="#EBD8C1"/>
</linearGradient>
</defs>
</svg>
