<svg width="80" height="80" viewBox="0 0 80 80" fill="none" xmlns="http://www.w3.org/2000/svg">
<path d="M39.9999 27.7C44.7999 27.7 48.5999 23.8 48.5999 19.1C48.5999 14.3 44.6999 10.5 39.9999 10.5C35.2999 10.5 31.3999 14.4 31.3999 19.1C31.3999 23.8 35.1999 27.7 39.9999 27.7ZM39.9999 14.1C42.7999 14.1 44.9999 16.3 44.9999 19.1C44.9999 21.9 42.7999 24.1 39.9999 24.1C37.1999 24.1 34.9999 21.9 34.9999 19.1C34.9999 16.3 37.1999 14.1 39.9999 14.1Z" fill="#217DC1"/>
<path d="M14.6999 48C10.5999 50.4 9.09989 55.7 11.4999 59.9C13.8999 64 19.1999 65.5 23.3999 63.1C27.5999 60.7 28.9999 55.4 26.5999 51.2C24.1999 47.1 18.7999 45.6 14.6999 48ZM21.4999 59.9C19.0999 61.3 15.9999 60.4 14.6999 58.1C13.2999 55.7 14.0999 52.6 16.4999 51.3C18.8999 49.9 21.9999 50.7 23.2999 53.1C24.6999 55.4 23.8999 58.5 21.4999 59.9Z" fill="#217DC1"/>
<path d="M65.2999 48C61.1999 45.6 55.7999 47 53.3999 51.2C50.9999 55.4 52.3999 60.7 56.5999 63.1C60.7999 65.5 66.0999 64.1 68.4999 59.9C70.8999 55.7 69.4999 50.4 65.2999 48ZM65.2999 58C63.8999 60.4 60.8999 61.2 58.4999 59.8C56.0999 58.4 55.2999 55.4 56.6999 53C58.0999 50.6 61.0999 49.8 63.4999 51.2C65.8999 52.6 66.6999 55.7 65.2999 58Z" fill="#217DC1"/>
<path d="M27.5999 24.5L25.6999 21.6C22.2999 23.8 19.4999 26.8 17.4999 30.2C15.3999 33.8 14.1999 37.8 13.9999 41.9L17.4999 42.1C17.7999 35 21.5999 28.4 27.5999 24.5Z" fill="#217DC1"/>
<path d="M62.5999 42.1L66.0999 41.9C65.8999 37.8 64.6999 33.7 62.5999 30.2C60.5999 26.7 57.6999 23.8 54.3999 21.6L52.4999 24.5C58.3999 28.4 62.1999 35 62.5999 42.1Z" fill="#217DC1"/>
<path d="M39.9999 66.1C36.3999 66.1 32.9999 65.3 29.7999 63.7L28.1999 66.8C31.8999 68.7 35.7999 69.6 39.9999 69.6C44.1999 69.6 48.0999 68.7 51.7999 66.8L50.1999 63.7C46.9999 65.3 43.5999 66.1 39.9999 66.1Z" fill="#217DC1"/>
</svg>
