<svg width="32" height="32" viewBox="0 0 32 32" fill="none" xmlns="http://www.w3.org/2000/svg">
<path d="M5.33333 10.6693C5.33333 7.72375 7.72115 5.33594 10.6667 5.33594H25.3333V14.6693C25.3333 17.6148 22.9455 20.0026 20 20.0026H4L5.33333 17.3359V10.6693Z" stroke="white" stroke-width="1.33333" stroke-linecap="round" stroke-linejoin="round"/>
<path d="M8.38672 22.0026C8.58255 22.4864 8.8473 22.9349 9.16879 23.3359C10.1462 24.5552 11.6481 25.3359 13.3324 25.3359H29.3324L27.999 22.6693V16.0026C27.999 15.4175 27.9048 14.8544 27.7307 14.3277C27.6158 13.9799 27.466 13.6479 27.2855 13.3359" stroke="white" stroke-width="1.33333" stroke-linecap="round" stroke-linejoin="round"/>
<circle cx="11.3333" cy="12.6693" r="1.33333" fill="white"/>
<circle cx="15.3333" cy="12.6693" r="1.33333" fill="white"/>
<circle cx="19.3333" cy="12.6693" r="1.33333" fill="white"/>
</svg>
