<svg width="80" height="80" viewBox="0 0 80 80" fill="none" xmlns="http://www.w3.org/2000/svg">
<path d="M56.8 52.6C57.6 53.8 58.9 54.5 60.3 54.5C60.8 54.5 61.4 54.4 61.9 54.2C63.8 53.5 64.9 51.6 64.5 49.6C63.5 43.7 61.1 35.5 55.2 28L59 24.2C59.3 23.9 59.5 23.5 59.5 23C59.5 22.6 59.3 22.1 59 21.8L54.2 17C53.9 16.7 53.5 16.5 53 16.5C52.5 16.5 52.1 16.7 51.8 17L48 20.9C40.5 15 32.3 12.5 26.4 11.6C24.4 11.3 22.5 12.3 21.8 14.2C21.1 16.1 21.7 18.1 23.4 19.3C28.4 22.6 33.4 26.5 38.1 30.8L9 59.9C8.1 60.8 7.5 62.1 7.5 63.5C7.5 64.9 8 66 9 67C9.9 67.9 11.2 68.5 12.6 68.5C14 68.5 15.2 68 16.2 67L45.3 37.9C49.6 42.7 53.5 47.6 56.8 52.6ZM52.9 20.6L55.3 23L52.9 25.4C52.5 25 52.1 24.6 51.7 24.2C51.3 23.8 50.9 23.4 50.5 23L52.9 20.6ZM13.8 64.7C13.5 65 13.1 65.2 12.6 65.2C12.1 65.2 11.7 65 11.4 64.7C11.1 64.4 10.9 64 10.9 63.5C10.9 63 11.1 62.6 11.4 62.3L20.4 53.3L22.8 55.7L13.8 64.7ZM25.1 53.3L22.7 50.9L33.9 39.7L36.3 42.1L25.1 53.3ZM38.6 39.8L36.2 37.4L40.5 33.1C40.9 33.5 41.3 33.9 41.7 34.3C42.1 34.7 42.5 35.1 42.9 35.5L38.6 39.8ZM24.8 16.1C24.3 15.7 24.4 15.2 24.5 15C24.6 14.8 24.8 14.4 25.3 14.4C25.4 14.4 25.4 14.4 25.5 14.4C32.1 15.5 41.6 18.4 49.6 26.4C57.6 34.4 60.5 43.9 61.6 50.5C61.7 51.1 61.3 51.4 61 51.5C60.8 51.6 60.3 51.7 59.9 51.2C55.6 44.6 50.3 38.1 44.1 31.9C37.9 25.8 31.5 20.5 24.8 16.1Z" fill="#02509F"/>
<path d="M71.5 67.3H64.5C63.9 60.9 58.5 55.8 51.9 55.8C45.3 55.8 39.9 60.9 39.3 67.3H26.7C26.1 67.3 25.5 67.8 25.5 68.5C25.5 69.1 26 69.6 26.7 69.6H40.5C41.1 69.6 41.7 69.1 41.7 68.5C41.7 62.8 46.3 58.1 52.1 58.1C57.8 58.1 62.4 62.7 62.4 68.5C62.4 69.1 62.9 69.6 63.6 69.6H71.7C72.3 69.6 72.9 69.1 72.9 68.5C72.7 67.9 72.1 67.3 71.5 67.3Z" fill="#02509F"/>
</svg>
