<svg width="14" height="14" viewBox="0 0 14 14" fill="none" xmlns="http://www.w3.org/2000/svg">
<circle cx="7" cy="7" r="7" fill="#DE2910"/>
<path d="M7.13017 7.09146C3.98484 5.76146 5.38017 1.66879 8.38551 1.87413C7.77884 2.18679 7.69017 2.77013 8.03551 3.31146C8.42284 3.91812 7.99817 4.88879 7.47551 5.12679C6.61217 5.51412 6.43951 6.55479 7.13017 7.09146Z" fill="white"/>
<path d="M6.95749 4.13746L6.78016 4.41746L6.71483 4.09546L6.39749 4.01146L6.68683 3.85279L6.66816 3.52612L6.91083 3.75012L7.21883 3.62879L7.07883 3.92746L7.28883 4.17946L6.95749 4.13746ZM7.14883 7.05879C6.77083 6.86279 6.46283 6.45679 6.32749 5.97146C6.17349 5.41146 6.26216 4.81412 6.57016 4.32879L6.50483 4.28679C6.18749 4.79079 6.09416 5.41612 6.25283 5.99479C6.39283 6.50812 6.70549 6.92346 7.11149 7.13346L7.14883 7.05879Z" fill="#DE2910"/>
<path d="M7.13013 7.09612C7.42413 3.69412 11.7455 3.75479 12.4781 6.68079C11.9928 6.20012 11.4095 6.29346 11.0035 6.79279C10.5461 7.34812 9.49146 7.24546 9.10413 6.82079C8.47413 6.11612 7.43346 6.27012 7.13013 7.09612Z" fill="white"/>
<path d="M9.89302 6.01812L9.57568 5.93412L9.86502 5.77546L9.84635 5.44879L10.089 5.67279L10.397 5.55146L10.257 5.85013L10.467 6.10212L10.1404 6.06479L9.96302 6.34012L9.89302 6.01812ZM7.17235 7.10079C7.24235 6.68079 7.53168 6.26079 7.95168 5.98546C8.43702 5.66812 9.03435 5.56546 9.58968 5.70546L9.60835 5.63079C9.02968 5.48612 8.40902 5.58879 7.90968 5.92012C7.46635 6.21412 7.16768 6.63879 7.09302 7.08679L7.17235 7.10079Z" fill="#DE2910"/>
<path d="M7.13013 7.09613C10.4528 6.32146 11.7361 10.4561 9.17879 12.0568C9.48679 11.4455 9.21613 10.9228 8.61879 10.6895C7.94679 10.4281 7.71813 9.39213 8.00746 8.89279C8.47879 8.06679 8.00746 7.12879 7.13013 7.09613Z" fill="white"/>
<path d="M9.00613 9.38746L8.98746 9.06079L9.23013 9.28479L9.53813 9.16346L9.39813 9.46212L9.60813 9.71412L9.28146 9.67679L9.10413 9.95679L9.03879 9.63479L8.72146 9.55079L9.00613 9.38746ZM7.13946 7.13812C7.56413 7.07279 8.04946 7.22212 8.44146 7.53479C8.89413 7.89412 9.17413 8.43079 9.21146 9.00479L9.29079 9.00012C9.24879 8.40279 8.95946 7.84746 8.49279 7.47412C8.07746 7.14279 7.57813 6.98879 7.13013 7.05879L7.13946 7.13812Z" fill="#DE2910"/>
<path d="M7.13021 7.10079C8.89421 10.0221 5.35688 12.5188 3.04688 10.5821C3.72354 10.6848 4.13888 10.2648 4.17154 9.62546C4.21354 8.90679 5.12821 8.37013 5.69288 8.48679C6.62154 8.67813 7.37288 7.94079 7.13021 7.10079Z" fill="white"/>
<path d="M5.52966 9.59279L5.83766 9.47146L5.69766 9.77013L5.90766 10.0221L5.581 9.98479L5.40366 10.2601L5.33833 9.93813L5.021 9.85413L5.31033 9.69546L5.29166 9.36879L5.52966 9.59279ZM7.093 7.11479C7.28433 7.49746 7.29366 8.00613 7.11633 8.47746C6.911 9.01879 6.48633 9.45279 5.95433 9.66746L5.98233 9.74213C6.53766 9.51813 6.97633 9.07013 7.18633 8.51013C7.373 8.01079 7.36366 7.49279 7.15833 7.08679L7.093 7.11479Z" fill="#DE2910"/>
<path d="M7.12558 7.09613C4.89025 9.67679 1.42758 7.08679 2.55225 4.28679C2.65958 4.96346 3.18691 5.22479 3.81225 5.06146C4.50758 4.87946 5.30091 5.58413 5.36625 6.15813C5.46891 7.10079 6.40225 7.58613 7.12558 7.09613Z" fill="white"/>
<path d="M4.26483 6.34479L4.47483 6.59679L4.14816 6.55946L3.97083 6.83946L3.9055 6.51746L3.5835 6.43346L3.87283 6.27479L3.85416 5.94812L4.09683 6.17212L4.40483 6.05079L4.26483 6.34479ZM7.10216 7.06812C6.79883 7.37146 6.31816 7.53479 5.81416 7.51146C5.2355 7.48346 4.69416 7.21746 4.3255 6.77412L4.26483 6.82546C4.6475 7.28279 5.21216 7.56279 5.8095 7.59079C6.3415 7.61413 6.8315 7.44613 7.15816 7.12412L7.10216 7.06812Z" fill="#DE2910"/>
</svg>
