<svg width="16" height="16" viewBox="0 0 16 16" fill="none" xmlns="http://www.w3.org/2000/svg">
<path d="M8.16224 11.953C10.8173 11.953 13.1032 10.3728 14.1308 8.10152C13.6599 7.06072 12.9247 6.16502 12.0109 5.5C11.6547 5.21637 10.7428 4.74758 10.1667 4.5625C9.53493 4.35958 8.86138 4.25 8.16224 4.25C5.50723 4.25 3.2213 5.83026 2.19373 8.10152C2.60248 9.00499 3.21035 9.79913 3.96135 10.428C4.69474 11.042 5.76085 11.5345 6.28728 11.6806C6.88127 11.8579 7.51064 11.953 8.16224 11.953Z" stroke="#808080" stroke-width="0.8" stroke-linecap="round"/>
<path d="M10.6622 8C10.6622 9.38071 9.54294 10.5 8.16223 10.5C6.78152 10.5 5.66223 9.38071 5.66223 8C5.66223 6.61929 6.78152 5.5 8.16223 5.5C8.37804 5.5 8.58747 5.52735 8.78723 5.57876C9.55862 5.7773 10.1859 6.33476 10.4805 7.0625C10.5977 7.35201 10.6622 7.66847 10.6622 8Z" stroke="#808080" stroke-width="0.8"/>
</svg>
