<svg width="33" height="32" viewBox="0 0 33 32" fill="none" xmlns="http://www.w3.org/2000/svg">
<path d="M14.0505 25.9741L14.0537 25.9926L14.0578 26.011C14.1987 26.6367 14.7256 27.1927 15.5051 27.1927H17.495C18.2128 27.1927 18.7964 26.6591 18.9423 26.011L18.9465 25.9926L18.9496 25.9741L19.2049 24.4625C19.6917 24.3007 20.1844 24.0993 20.646 23.8559L21.9315 24.744C22.2279 24.9516 22.5781 25.0173 22.8884 24.9911C23.1993 24.9648 23.5329 24.8408 23.7887 24.5885L25.1694 23.2259C25.7158 22.6866 25.712 21.9024 25.3275 21.3681L24.4338 20.1081C24.6678 19.6433 24.8742 19.1939 25.0434 18.7L26.582 18.4469L26.6001 18.4439L26.618 18.44C27.2375 18.3041 27.8121 17.7892 27.8121 17.0019V15.0382C27.8121 14.344 27.3318 13.7408 26.6037 13.5971L26.5929 13.595L26.582 13.5932L25.0453 13.3404C24.9824 13.1356 24.903 12.934 24.8133 12.7251H25.2107C27.4176 12.7251 29.1928 10.9353 29.1928 8.78626C29.1928 6.58615 27.3658 4.84737 25.2107 4.84737H24.2767C23.6972 4.84737 23.0967 5.31279 23.0967 6.02099C23.0967 6.61501 23.5815 7.19461 24.2767 7.19461H24.764C25.4361 7.19461 25.9393 7.72489 25.9393 8.34542C25.9393 8.98652 25.4153 9.49623 24.764 9.49623H22.4443C20.818 8.01212 18.6877 7.21187 16.4798 7.21187C14.2838 7.21187 12.2131 8.00289 10.5621 9.45615H8.2361C7.56403 9.45615 7.06079 8.92588 7.06079 8.30534C7.06079 7.66424 7.58487 7.15454 8.2361 7.15454H8.72341C9.30292 7.15454 9.90343 6.68912 9.90343 5.98092C9.90343 5.38689 9.41862 4.80729 8.72341 4.80729H7.7894C5.58249 4.80729 3.80736 6.59719 3.80736 8.74618C3.80736 10.9463 5.63429 12.6851 7.7894 12.6851H8.19072C8.09616 12.9157 8.017 13.1344 7.95465 13.3405L6.41809 13.5932L6.40002 13.5962L6.38213 13.6001C5.76261 13.736 5.18807 14.2509 5.18807 15.0382V17.0019C5.18807 17.7282 5.73977 18.2991 6.38213 18.44L6.40113 18.4442L6.42033 18.4472L7.99783 18.7014C8.16359 19.1866 8.37029 19.6776 8.62021 20.1371L7.75716 21.3234L7.74404 21.3414L7.7321 21.3603C7.41182 21.866 7.32322 22.6683 7.92795 23.2016L9.33329 24.5885C9.58902 24.8408 9.92264 24.9648 10.2336 24.9911C10.5448 25.0174 10.8962 24.9512 11.1931 24.7421C11.1933 24.742 11.1934 24.7419 11.1936 24.7418L12.3976 23.8975C12.8679 24.1436 13.3314 24.3094 13.7952 24.4625L14.0505 25.9741Z" stroke="#F69234" stroke-width="1.38541"/>
<path fill-rule="evenodd" clip-rule="evenodd" d="M16.5 20.5C18.9853 20.5 21 18.4853 21 16C21 13.5147 18.9853 11.5 16.5 11.5C14.0147 11.5 12 13.5147 12 16C12 18.4853 14.0147 20.5 16.5 20.5Z" stroke="#F69234" stroke-width="1.5"/>
</svg>
