<svg width="16" height="16" viewBox="0 0 16 16" fill="none" xmlns="http://www.w3.org/2000/svg">
<path d="M8.00001 1.44446C4.37779 1.44446 1.44446 4.37779 1.44446 8.00001C1.44446 11.6222 4.37779 14.5556 8.00001 14.5556C11.6222 14.5556 14.5556 11.6222 14.5556 8.00001C14.5556 4.37779 11.6222 1.44446 8.00001 1.44446ZM8.00001 13.8222C4.77779 13.8222 2.15557 11.2 2.15557 8.00001C2.15557 4.80001 4.77779 2.17779 8.00001 2.17779C11.2222 2.17779 13.8445 4.77779 13.8445 8.00001C13.8445 11.2222 11.2222 13.8222 8.00001 13.8222Z" fill="#808080"/>
<path d="M7.88888 5.55559C8.35525 5.55559 8.73332 5.17752 8.73332 4.71114C8.73332 4.24477 8.35525 3.8667 7.88888 3.8667C7.4225 3.8667 7.04443 4.24477 7.04443 4.71114C7.04443 5.17752 7.4225 5.55559 7.88888 5.55559Z" fill="#808080"/>
<path d="M6.91107 10.3778C6.77774 10.3778 6.66663 10.4889 6.66663 10.6222V11.3778C6.66663 11.5111 6.77774 11.6222 6.91107 11.6222H9.08885C9.22218 11.6222 9.33329 11.5111 9.33329 11.3778V10.6222C9.33329 10.4889 9.22218 10.3555 9.08885 10.3555H8.6444V6.77777C8.6444 6.64444 8.53329 6.53333 8.39996 6.53333H6.91107C6.77774 6.53333 6.66663 6.64444 6.66663 6.77777V7.55555C6.66663 7.68888 6.77774 7.79999 6.91107 7.79999H7.33329V10.3778H6.91107Z" fill="#808080"/>
</svg>
