<svg width="32" height="33" viewBox="0 0 32 33" fill="none" xmlns="http://www.w3.org/2000/svg">
<path d="M26.8926 25.904L26.2121 25.5886L26.8926 25.904ZM22.9471 24.4933L23.6115 24.8413L22.9471 24.4933ZM9.05291 24.4933L9.71729 24.1453L9.05291 24.4933ZM5.10744 25.904L4.42698 26.2194L5.10744 25.904ZM6.59828 15.6254L7.12861 15.095L6.59828 15.6254ZM5.09293 15.8527L4.4116 15.5392L5.09293 15.8527ZM23.906 13.195L23.3757 12.6647L23.906 13.195ZM23.8877 11.8196L23.3945 12.3846L23.8877 11.8196ZM23.695 17.3317L24.2254 17.862L23.695 17.3317ZM23.4542 18.4395L22.7409 18.6713L23.4542 18.4395ZM20.9061 14.7526L20.4362 15.3371L20.9061 14.7526ZM22.381 14.72L21.8507 14.1897L22.381 14.72ZM8.30487 17.332L8.8352 16.8016L8.30487 17.332ZM8.54572 18.4398L9.25901 18.6716L8.54572 18.4398ZM25.4016 15.6251L25.9319 16.1554L25.4016 15.6251ZM26.9069 15.8524L27.5883 15.5389L26.9069 15.8524ZM11.0937 14.7527L10.6237 14.1682L11.0937 14.7527ZM16 12.2771C13.9658 12.2771 12.095 12.9854 10.6237 14.1682L11.5636 15.3373C12.7781 14.3608 14.3199 13.7771 16 13.7771V12.2771ZM21.376 14.168C19.9048 12.9853 18.0341 12.2771 16 12.2771V13.7771C17.6801 13.7771 19.2217 14.3608 20.4362 15.3371L21.376 14.168ZM22.9113 15.2504L24.4363 13.7254L23.3757 12.6647L21.8507 14.1897L22.9113 15.2504ZM16 9.61328C18.8313 9.61328 21.4168 10.6582 23.3945 12.3846L24.3809 11.2546C22.1404 9.2988 19.2077 8.11328 16 8.11328V9.61328ZM8.6053 12.3848C10.5831 10.6583 13.1686 9.61328 16 9.61328V8.11328C12.7922 8.11328 9.85942 9.29889 7.61886 11.2548L8.6053 12.3848ZM7.56345 13.7256L9.08844 15.2505L10.1491 14.1899L8.62411 12.6649L7.56345 13.7256ZM8.8352 16.8016L7.12861 15.095L6.06795 16.1557L7.77454 17.8623L8.8352 16.8016ZM4.75 20.8633C4.75 19.1851 5.11694 17.5948 5.77426 16.1663L4.4116 15.5392C3.66563 17.1604 3.25 18.9643 3.25 20.8633H4.75ZM5.7879 25.5886C5.12228 24.1525 4.75 22.5518 4.75 20.8633H3.25C3.25 22.7744 3.67175 24.59 4.42698 26.2194L5.7879 25.5886ZM8.06056 25.6951H5.97876V27.1951H8.06056V25.6951ZM7.41378 20.8633C7.41378 22.2976 7.76511 23.6511 8.38852 24.8413L9.71729 24.1453C9.20392 23.1652 8.91378 22.05 8.91378 20.8633H7.41378ZM7.83242 18.2081C7.56046 19.0451 7.41378 19.9378 7.41378 20.8633H8.91378C8.91378 20.0971 9.0351 19.3608 9.25901 18.6716L7.83242 18.2081ZM24.8713 15.0948L23.1647 16.8013L24.2254 17.862L25.9319 16.1554L24.8713 15.0948ZM24.5862 20.8633C24.5862 19.9377 24.4395 19.0449 24.1675 18.2078L22.7409 18.6713C22.9649 19.3606 23.0862 20.097 23.0862 20.8633H24.5862ZM23.6115 24.8413C24.2349 23.6511 24.5862 22.2976 24.5862 20.8633H23.0862C23.0862 22.05 22.7961 23.1652 22.2827 24.1453L23.6115 24.8413ZM26.0212 25.6951H23.9394V27.1951H26.0212V25.6951ZM27.25 20.8633C27.25 22.5518 26.8777 24.1525 26.2121 25.5886L27.573 26.2194C28.3282 24.59 28.75 22.7744 28.75 20.8633H27.25ZM26.2256 16.166C26.883 17.5945 27.25 19.185 27.25 20.8633H28.75C28.75 18.9642 28.3343 17.1602 27.5883 15.5389L26.2256 16.166ZM26.0212 27.1951C26.6627 27.1951 27.2851 26.8406 27.573 26.2194L26.2121 25.5886C26.1878 25.6411 26.1223 25.6951 26.0212 25.6951V27.1951ZM22.2827 24.1453C21.9485 24.7834 22.0019 25.5242 22.2771 26.093C22.5547 26.6668 23.1307 27.1951 23.9394 27.1951V25.6951C23.8537 25.6951 23.726 25.6436 23.6274 25.4397C23.5262 25.2306 23.5307 24.9956 23.6115 24.8413L22.2827 24.1453ZM8.06056 27.1951C8.86929 27.1951 9.44527 26.6668 9.72291 26.093C9.99806 25.5242 10.0515 24.7834 9.71729 24.1453L8.38852 24.8413C8.46933 24.9956 8.4738 25.2306 8.37264 25.4397C8.27397 25.6436 8.14628 25.6951 8.06056 25.6951V27.1951ZM4.42698 26.2194C4.7149 26.8406 5.3373 27.1951 5.97876 27.1951V25.6951C5.87765 25.6951 5.81223 25.6411 5.7879 25.5886L4.42698 26.2194ZM7.12861 15.095C6.34382 14.3103 4.92812 14.4167 4.4116 15.5392L5.77426 16.1663C5.78803 16.1363 5.80358 16.1208 5.81695 16.1111C5.83184 16.1004 5.85285 16.0909 5.88047 16.087C5.93669 16.079 6.00798 16.0957 6.06795 16.1557L7.12861 15.095ZM7.61886 11.2548C6.84908 11.9267 6.89935 13.0615 7.56345 13.7256L8.62411 12.6649C8.57408 12.6149 8.55313 12.5541 8.55343 12.5016C8.5537 12.4526 8.57129 12.4145 8.6053 12.3848L7.61886 11.2548ZM24.4363 13.7254C25.1004 13.0613 25.1507 11.9265 24.3809 11.2546L23.3945 12.3846C23.4285 12.4143 23.4461 12.4524 23.4463 12.5014C23.4466 12.5539 23.4257 12.6147 23.3757 12.6647L24.4363 13.7254ZM23.1647 16.8013C22.6521 17.314 22.5394 18.0512 22.7409 18.6713L24.1675 18.2078C24.1172 18.053 24.1618 17.9255 24.2254 17.862L23.1647 16.8013ZM20.4362 15.3371C21.1235 15.8897 22.2028 15.9589 22.9113 15.2504L21.8507 14.1897C21.7664 14.274 21.5626 14.318 21.376 14.168L20.4362 15.3371ZM7.77454 17.8623C7.83807 17.9258 7.88271 18.0533 7.83242 18.2081L9.25901 18.6716C9.46049 18.0514 9.34783 17.3143 8.8352 16.8016L7.77454 17.8623ZM25.9319 16.1554C25.9919 16.0955 26.0632 16.0787 26.1194 16.0867C26.147 16.0906 26.168 16.1001 26.1829 16.1108C26.1963 16.1205 26.2118 16.136 26.2256 16.166L27.5883 15.5389C27.0717 14.4164 25.656 14.31 24.8713 15.0948L25.9319 16.1554ZM10.6237 14.1682C10.4372 14.3182 10.2334 14.2742 10.1491 14.1899L9.08844 15.2505C9.79701 15.9591 10.8763 15.8898 11.5636 15.3373L10.6237 14.1682Z" fill="#F69234"/>
<path d="M13.4066 16.9219L19.4458 21.8985L18.5934 25.9057L14.697 24.6402L13.4066 16.9219Z" stroke="#F69234" stroke-width="1.5" stroke-linecap="round" stroke-linejoin="round"/>
</svg>
