<svg width="80" height="80" viewBox="0 0 80 80" fill="none" xmlns="http://www.w3.org/2000/svg">
<path d="M10.2996 33.4C10.5996 34.7 10.9996 36 11.6996 37.1C13.7996 40.8 14.6996 44.7 14.6996 48.2V62.7C14.6996 63.3 15.1996 63.9 15.8996 63.9H20.5996C21.1996 63.9 21.7996 63.4 21.7996 62.7V49.5999C21.7996 46.9999 22.3996 44.3 23.5996 41.9L23.6996 41.7C29.1996 46.3 33.6996 52.1999 36.5996 58.7999C37.8996 61.7999 40.8996 63.7999 44.0996 63.7999H53.6996C58.2996 63.7999 61.9996 63.7 64.6996 63.2C65.9996 63 70.0996 62.2999 70.0996 59.0999C70.0996 57.2999 68.5996 54.7 66.2996 52.4C64.6996 50.9 61.4996 48.3 56.9996 47.6C56.6996 47.5 56.2996 47.7 55.9996 47.9C54.7996 48.9 52.5996 49.7 50.5996 49.7C47.7996 49.7 44.7996 48.1 43.6996 46C43.6996 46 43.6996 45.9 43.5996 45.9L35.7996 34.7C30.9996 27.8 25.1996 21.6 18.5996 16.3C18.1996 16 17.5996 16 17.0996 16.3C15.2996 17.8 13.6996 19.5 12.5996 21.5C10.2996 25.4 9.49963 29.8 10.2996 33.4ZM19.3996 49.5999V61.5H16.9996V48.2C16.9996 47.8 16.9996 47.5 16.9996 47.1C16.5996 40.7 13.8996 36.4 13.2996 35.3C16.2996 36.7 19.0996 38.4 21.6996 40.3C20.4996 42.4 19.3996 45.9999 19.3996 49.5999ZM14.5996 22.8C15.4996 21.3 16.5996 20 17.8996 18.9C23.9996 23.9 29.3996 29.8 33.8996 36.2L41.6996 47.3C43.2996 50.1 46.9996 52.2 50.5996 52.2C52.8996 52.2 55.4996 51.4 57.0996 50.2C60.5996 50.9 63.2996 52.9999 64.5996 54.2999C66.5996 56.2999 67.6996 58.2999 67.6996 59.2999C67.6996 60.2999 65.7996 60.7999 64.1996 61.0999C61.6996 61.4999 58.0996 61.5999 53.5996 61.5999H43.9996C41.6996 61.5999 39.5996 60.2 38.5996 58C33.4996 46.5 24.0996 37.3 12.3996 32.4C11.9996 29.5 12.6996 25.9 14.5996 22.8Z" fill="#A07A4B"/>
</svg>
