<svg width="80" height="80" viewBox="0 0 80 80" fill="none" xmlns="http://www.w3.org/2000/svg">
<path d="M64.6996 25.4H62.0996C59.7996 25.4 57.8996 27.3 57.8996 29.6V62.7C57.8996 65 59.7996 66.9 62.0996 66.9H64.6996C66.9996 66.9 68.8996 65 68.8996 62.7V29.7C68.8996 27.3 66.9996 25.4 64.6996 25.4ZM66.7996 62.8C66.7996 63.9 65.8996 64.9 64.6996 64.9H62.0996C60.9996 64.9 59.9996 64 59.9996 62.8V29.7C59.9996 28.6 60.8996 27.6 62.0996 27.6H64.6996C65.7996 27.6 66.7996 28.5 66.7996 29.7V62.8Z" fill="#A07A4B"/>
<path d="M16.5996 32.6C17.9996 32.6 19.3996 31.9 20.0996 30.6L27.9996 33V33.1C27.9996 34.3 28.4996 35.4 29.3996 36.2C30.2996 37 31.4996 37.4 32.6996 37.2C33.8996 37 34.9996 36.4 35.5996 35.4C36.2996 34.4 36.4996 33.2 36.0996 32L44.7996 27C46.1996 28.4 48.2996 28.6 49.8996 27.6C51.4996 26.6 52.1996 24.5 51.5996 22.7L60.5996 16.5C62.1996 17.9 64.5996 17.8 66.0996 16.4C67.6996 15 67.8996 12.6 66.6996 10.9C65.4996 9.2 63.1996 8.6 61.2996 9.5C59.3996 10.5 58.5996 12.7 59.2996 14.6L50.2996 20.8C48.8996 19.6 46.8996 19.5 45.3996 20.5C43.8996 21.5 43.0996 23.3 43.5996 25.1L34.8996 30.1C33.9996 29.2 32.6996 28.8 31.4996 28.9C30.1996 29.1 29.0996 29.8 28.4996 30.8L20.5996 28.4V28.3C20.5996 26.6 19.5996 25.1 17.9996 24.5C16.4996 23.9 14.6996 24.2 13.4996 25.4C12.2996 26.6 11.9996 28.4 12.5996 29.9C13.3996 31.6 14.8996 32.6 16.5996 32.6ZM63.3996 11.3C64.0996 11.3 64.6996 11.7 65.0996 12.3C65.4996 12.9 65.4996 13.6 65.1996 14.2C64.8996 14.8 64.2996 15.2 63.5996 15.3C62.8996 15.4 62.1996 15 61.8996 14.4C61.6996 14.1 61.4996 13.7 61.5996 13.3C61.3996 12.1 62.2996 11.3 63.3996 11.3ZM47.7996 22C48.4996 22 49.0996 22.3 49.3996 22.9C49.5996 23.2 49.6996 23.6 49.6996 24C49.6996 24.9 49.0996 25.7 48.1996 25.9C47.2996 26.1 46.3996 25.7 45.9996 25C45.7996 24.7 45.6996 24.4 45.6996 24C45.7996 22.9 46.6996 22 47.7996 22ZM30.2996 32.5C30.5996 31.7 31.2996 31.1 32.1996 31.1C32.8996 31.1 33.5996 31.5 33.8996 32.1C34.0996 32.4 34.1996 32.7 34.1996 33.1C34.0996 34.2 33.2996 35 32.1996 35C31.0996 35 30.2996 34.2 30.1996 33.1C30.1996 32.9 30.1996 32.7 30.2996 32.5ZM16.5996 26.5C17.3996 26.5 18.0996 27 18.3996 27.7C18.6996 28.4 18.4996 29.3 17.9996 29.9C17.3996 30.5 16.5996 30.6 15.7996 30.3C15.0996 30 14.5996 29.3 14.5996 28.5C14.5996 27.3 15.4996 26.5 16.5996 26.5Z" fill="#A07A4B"/>
<path d="M17.8996 40.6H15.2996C12.9996 40.6 11.0996 42.5 11.0996 44.8V62.7C11.0996 65 12.9996 66.9 15.2996 66.9H17.8996C20.1996 66.9 22.0996 65 22.0996 62.7V44.8C22.0996 42.5 20.1996 40.6 17.8996 40.6ZM19.9996 62.8C19.9996 63.9 19.0996 64.9 17.8996 64.9H15.2996C14.1996 64.9 13.1996 64 13.1996 62.8V44.8C13.1996 43.7 14.0996 42.7 15.2996 42.7H17.8996C18.9996 42.7 19.9996 43.6 19.9996 44.8V62.8Z" fill="#A07A4B"/>
<path d="M33.4996 45.1H30.8996C28.5996 45.1 26.6996 47 26.6996 49.3V62.7C26.6996 65 28.5996 66.9 30.8996 66.9H33.4996C35.7996 66.9 37.6996 65 37.6996 62.7V49.4C37.6996 47 35.7996 45.1 33.4996 45.1ZM35.5996 62.8C35.5996 63.9 34.6996 64.9 33.4996 64.9H30.8996C29.7996 64.9 28.7996 64 28.7996 62.8V49.4C28.7996 48.3 29.6996 47.3 30.8996 47.3H33.4996C34.5996 47.3 35.5996 48.2 35.5996 49.4V62.8Z" fill="#A07A4B"/>
<path d="M49.0996 36.7H46.4996C44.1996 36.7 42.2996 38.6 42.2996 40.9V62.7C42.2996 65 44.1996 66.9 46.4996 66.9H49.0996C51.3996 66.9 53.2996 65 53.2996 62.7V41C53.2996 38.6 51.3996 36.7 49.0996 36.7ZM51.1996 62.8C51.1996 63.9 50.2996 64.9 49.0996 64.9H46.4996C45.3996 64.9 44.3996 64 44.3996 62.8V41C44.3996 39.9 45.2996 38.9 46.4996 38.9H49.0996C50.1996 38.9 51.1996 39.8 51.1996 41V62.8Z" fill="#A07A4B"/>
</svg>
