<svg width="24" height="24" viewBox="0 0 24 24" fill="none" xmlns="http://www.w3.org/2000/svg">
<path d="M6.76201 17.7C6.67116 17.6996 6.58246 17.6723 6.50701 17.6217C6.43155 17.5711 6.37269 17.4994 6.3378 17.4155C6.3029 17.3316 6.29351 17.2393 6.3108 17.1501C6.32809 17.0609 6.3713 16.9788 6.43501 16.914L16.914 6.43501C16.9568 6.39227 17.0075 6.35836 17.0634 6.33523C17.1192 6.31209 17.1791 6.30019 17.2395 6.30019C17.3 6.30019 17.3598 6.31209 17.4157 6.33523C17.4715 6.35836 17.5223 6.39227 17.565 6.43501C17.6078 6.47776 17.6417 6.5285 17.6648 6.58435C17.6879 6.6402 17.6998 6.70006 17.6998 6.76051C17.6998 6.82096 17.6879 6.88082 17.6648 6.93667C17.6417 6.99252 17.6078 7.04327 17.565 7.08601L7.08601 17.565C7.0436 17.6078 6.99314 17.6418 6.93752 17.6649C6.88191 17.6881 6.82226 17.7 6.76201 17.7Z" fill="#333333" stroke="#333333" stroke-width="0.456" stroke-miterlimit="10"/>
<path d="M17.241 17.7C17.1803 17.7003 17.1201 17.6885 17.064 17.6653C17.0079 17.6421 16.9569 17.608 16.914 17.565L6.43501 7.08601C6.34869 6.99969 6.30019 6.8826 6.30019 6.76051C6.30019 6.63843 6.34869 6.52134 6.43501 6.43501C6.52134 6.34869 6.63843 6.30019 6.76051 6.30019C6.8826 6.30019 6.99969 6.34869 7.08601 6.43501L17.565 16.914C17.6286 16.9786 17.6717 17.0604 17.6891 17.1494C17.7065 17.2383 17.6974 17.3303 17.6628 17.4141C17.6283 17.4979 17.5699 17.5696 17.4949 17.6205C17.4199 17.6713 17.3316 17.699 17.241 17.7Z" fill="#333333" stroke="#333333" stroke-width="0.456" stroke-miterlimit="10"/>
</svg>
