<svg width="24" height="24" viewBox="0 0 24 24" fill="none" xmlns="http://www.w3.org/2000/svg">
<path fill-rule="evenodd" clip-rule="evenodd" d="M18.0242 6.87036C18.3171 6.57746 18.3171 6.10259 18.0242 5.8097C17.7313 5.5168 17.2564 5.5168 16.9636 5.8097L11.9939 10.7794L7.02421 5.8097C6.73132 5.5168 6.25645 5.5168 5.96355 5.8097C5.67066 6.10259 5.67066 6.57746 5.96355 6.87036L10.9332 11.84L5.64985 17.1234C5.35695 17.4163 5.35695 17.8912 5.64985 18.1841C5.94274 18.477 6.41761 18.477 6.71051 18.1841L11.9939 12.9007L17.2773 18.1841C17.5702 18.477 18.045 18.477 18.3379 18.1841C18.6308 17.8912 18.6308 17.4163 18.3379 17.1234L13.0545 11.84L18.0242 6.87036Z" fill="white"/>
</svg>
