<svg width="64" height="64" viewBox="0 0 64 64" fill="none" xmlns="http://www.w3.org/2000/svg">
<circle cx="29.5" cy="32" r="25" fill="#E3FAFF"/>
<path fill-rule="evenodd" clip-rule="evenodd" d="M25.3333 17C23.4924 17 22 18.4924 22 20.3333V57.6667C22 59.5076 23.4924 61 25.3333 61H54.6667C56.5076 61 58 59.5076 58 57.6667V24.3807C58 23.4967 57.6488 22.6488 57.0237 22.0237L52.9763 17.9763C52.3512 17.3512 51.5033 17 50.6193 17H25.3333ZM32.8979 28.1449C32.7259 28.2473 32.6205 28.4327 32.6205 28.6329C32.6205 28.9466 32.8748 29.2008 33.1884 29.2008H46.9589C47.2726 29.2008 47.5269 28.9466 47.5269 28.6329C47.5269 28.4327 47.4215 28.2473 47.2495 28.1449L40.4327 24.0862C40.2029 23.9713 39.9444 23.9713 39.7146 24.0862L32.8979 28.1449ZM38.1422 29.9479C37.7654 29.9479 37.46 30.2533 37.46 30.6301V35.9608C37.46 36.3375 37.7654 36.6429 38.1422 36.6429H38.4186C38.7953 36.6429 39.1007 36.3375 39.1007 35.9608V30.6301C39.1007 30.2533 38.7953 29.9479 38.4186 29.9479H38.1422ZM34.9254 29.9479C35.3021 29.9479 35.6075 30.2533 35.6075 30.6301V35.9608C35.6075 36.3375 35.3021 36.6429 34.9254 36.6429H34.7961C34.4194 36.6429 34.114 36.3375 34.114 35.9608V30.6301C34.114 30.2533 34.4194 29.9479 34.7961 29.9479H34.9254ZM47.4981 38.202V38.1371C47.4981 37.7348 47.1535 37.39 46.7514 37.39H33.3672C32.9651 37.39 32.6205 37.7348 32.6205 38.1371V38.202C32.6205 38.5788 32.9259 38.8842 33.3026 38.8842H46.816C47.1927 38.8842 47.4981 38.5788 47.4981 38.202ZM45.1932 36.6429C44.8165 36.6429 44.5111 36.3375 44.5111 35.9608V30.6301C44.5111 30.2533 44.8165 29.9479 45.1932 29.9479H45.3225C45.6992 29.9479 46.0046 30.2533 46.0046 30.6301V35.9608C46.0046 36.3375 45.6992 36.6429 45.3225 36.6429H45.1932ZM41.8939 29.9479C41.5172 29.9479 41.2118 30.2533 41.2118 30.6301V35.9608C41.2118 36.3375 41.5171 36.6429 41.8939 36.6429H42.1703C42.5471 36.6429 42.8525 36.3375 42.8525 35.9608V30.6301C42.8525 30.2533 42.5471 29.9479 42.1703 29.9479H41.8939ZM41.1532 27.0987C41.1532 26.4899 40.6316 25.9681 40.0231 25.9681C39.4146 25.9681 38.893 26.4464 38.893 27.0987C38.893 27.7075 39.4146 28.2293 40.0231 28.2293C40.6316 28.2293 41.1532 27.7075 41.1532 27.0987ZM26.1667 49C26.1667 48.5398 26.5398 48.1667 27 48.1667H53C53.4602 48.1667 53.8333 48.5398 53.8333 49C53.8333 49.4602 53.4602 49.8333 53 49.8333H27C26.5398 49.8333 26.1667 49.4602 26.1667 49ZM27 53.1667C26.5398 53.1667 26.1667 53.5398 26.1667 54C26.1667 54.4602 26.5398 54.8333 27 54.8333H53C53.4602 54.8333 53.8333 54.4602 53.8333 54C53.8333 53.5398 53.4602 53.1667 53 53.1667H27ZM26.1667 44C26.1667 43.5398 26.5398 43.1667 27 43.1667H53C53.4602 43.1667 53.8333 43.5398 53.8333 44C53.8333 44.4602 53.4602 44.8333 53 44.8333H27C26.5398 44.8333 26.1667 44.4602 26.1667 44ZM50.2773 23.7183C50.2664 24.2856 50.7291 24.7483 51.2964 24.7374L55.4004 24.6584C56.2819 24.6415 56.7117 23.5749 56.0882 22.9515L52.0632 18.9265C51.4398 18.303 50.3733 18.7328 50.3563 19.6143L50.2773 23.7183Z" fill="#217DC1"/>
</svg>
