<svg width="80" height="80" viewBox="0 0 80 80" fill="none" xmlns="http://www.w3.org/2000/svg">
<path d="M38.4996 42.5H52.6996C53.2996 42.5 53.6996 42 53.6996 41.5V31.3C53.6996 30.7 53.1996 30.3 52.6996 30.3H47.0996C46.7996 30.3 46.5996 30.4 46.3996 30.6L37.7996 39.2C37.5996 39.4 37.4996 39.6 37.4996 39.9V41.4C37.4996 42.1 37.8996 42.5 38.4996 42.5ZM39.4996 40.4L47.4996 32.4H51.6996V40.5H39.4996V40.4Z" fill="#A07A4B"/>
<path d="M64.8996 56.8V51.6C64.8996 51 64.3996 50.6 63.8996 50.6H59.7996V25.2C59.7996 24.6 59.2996 24.2 58.7996 24.2H44.5996C44.2996 24.2 44.0996 24.3 43.8996 24.5L38.9996 29.4L19.8996 10.3C19.6996 10.1 19.4996 10 19.1996 10H13.0996C12.4996 10 12.0996 10.5 12.0996 11V24.2C12.0996 24.8 12.5996 25.2 13.0996 25.2V32.3C13.0996 32.9 13.5996 33.3 14.0996 33.3C15.1996 33.3 16.0996 34.2 16.0996 35.3C16.0996 36.4 15.1996 37.3 14.0996 37.3C12.9996 37.3 12.0996 36.4 12.0996 35.3C12.0996 34.7 11.5996 34.3 11.0996 34.3C10.4996 34.3 10.0996 34.8 10.0996 35.3C10.0996 37.5 11.8996 39.4 14.1996 39.4C16.3996 39.4 18.2996 37.6 18.2996 35.3C18.2996 33.4 17.0996 31.8 15.1996 31.3V25.1C15.5996 25.1 15.9996 24.8 16.0996 24.5L17.9996 19.7L33.2996 35L31.6996 36.6C31.4996 36.8 31.3996 37 31.3996 37.3V50.5H27.2996C26.6996 50.5 26.2996 51 26.2996 51.5V56.7C22.3996 57.3 19.6996 60.9 20.2996 64.8C20.7996 68.3 23.7996 70.8 27.2996 70.8H63.8996C67.7996 70.8 70.9996 67.6 70.9996 63.6C70.8996 60.3 68.3996 57.4 64.8996 56.8ZM44.9996 26.3H57.7996V50.7H33.3996V37.9L44.9996 26.3ZM18.2996 17.3C17.8996 16.9 17.2996 16.9 16.8996 17.3C16.7996 17.4 16.6996 17.5 16.6996 17.6L14.4996 23.2H14.1996V12H18.8996L37.6996 30.8L34.7996 33.7L18.2996 17.3ZM28.2996 52.7H62.8996V56.8H28.2996V52.7ZM63.8996 69H27.2996C24.4996 69 22.1996 66.7 22.1996 63.9C22.1996 61.1 24.4996 58.8 27.2996 58.8H63.8996C66.6996 58.8 68.9996 61.1 68.9996 63.9C68.9996 66.7 66.6996 69 63.8996 69Z" fill="#A07A4B"/>
<path d="M45.5996 59.8C43.3996 59.8 41.4996 61.6 41.4996 63.9C41.4996 66.1 43.2996 68 45.5996 68C47.7996 68 49.6996 66.2 49.6996 63.9C49.6996 61.6 47.8996 59.8 45.5996 59.8ZM45.5996 65.9C44.4996 65.9 43.5996 65 43.5996 63.9C43.5996 62.8 44.4996 61.9 45.5996 61.9C46.6996 61.9 47.5996 62.8 47.5996 63.9C47.5996 65 46.6996 65.9 45.5996 65.9Z" fill="#A07A4B"/>
<path d="M57.7996 59.8C55.5996 59.8 53.6996 61.6 53.6996 63.9C53.6996 66.1 55.4996 68 57.7996 68C59.9996 68 61.8996 66.2 61.8996 63.9C61.8996 61.6 60.0996 59.8 57.7996 59.8ZM57.7996 65.9C56.6996 65.9 55.7996 65 55.7996 63.9C55.7996 62.8 56.6996 61.9 57.7996 61.9C58.8996 61.9 59.7996 62.8 59.7996 63.9C59.7996 65 58.8996 65.9 57.7996 65.9Z" fill="#A07A4B"/>
<path d="M33.3996 59.8C31.1996 59.8 29.2996 61.6 29.2996 63.9C29.2996 66.1 31.0996 68 33.3996 68C35.5996 68 37.4996 66.2 37.4996 63.9C37.4996 61.6 35.6996 59.8 33.3996 59.8ZM33.3996 65.9C32.2996 65.9 31.3996 65 31.3996 63.9C31.3996 62.8 32.2996 61.9 33.3996 61.9C34.4996 61.9 35.3996 62.8 35.3996 63.9C35.3996 65 34.4996 65.9 33.3996 65.9Z" fill="#A07A4B"/>
</svg>
