<svg width="32" height="32" viewBox="0 0 32 32" fill="none" xmlns="http://www.w3.org/2000/svg">
<path d="M9 7L26 7C26.5523 7 27 7.44772 27 8L27 13.4627L27 23C27 24.1046 26.1046 25 25 25L13.189 25L6 25C5.44772 25 5 24.5523 5 24L5 21.5L5 11C5 8.79086 6.79086 7 9 7Z" stroke="#3FB5BD" stroke-width="1.5" stroke-linecap="round" stroke-linejoin="round"/>
<path d="M5.13086 13.0957H13.8848" stroke="#3FB5BD" stroke-width="1.5" stroke-linecap="round" stroke-linejoin="round"/>
<path d="M18.2461 13.0957H27" stroke="#3FB5BD" stroke-width="1.5" stroke-linecap="round" stroke-linejoin="round"/>
<path d="M13.7983 21.3004H18.2017C19.647 21.3004 20.8186 20.1287 20.8186 18.6834C20.8186 17.2381 19.647 16.0664 18.2017 16.0664H16.4304H15.3473H13.7983C12.3529 16.0664 11.1813 17.2381 11.1813 18.6834C11.1813 20.1287 12.3529 21.3004 13.7983 21.3004Z" stroke="#3FB5BD" stroke-width="1.5" stroke-linecap="round"/>
<circle cx="16" cy="12.0159" r="2" stroke="#3FB5BD" stroke-width="1.5" stroke-linecap="round" stroke-linejoin="round"/>
</svg>
