<svg width="24" height="24" viewBox="0 0 24 24" fill="none" xmlns="http://www.w3.org/2000/svg">
<path fill-rule="evenodd" clip-rule="evenodd" d="M4.5 12.5C4.5 8.08172 8.08172 4.5 12.5 4.5C16.9183 4.5 20.5 8.08172 20.5 12.5C20.5 16.9183 16.9183 20.5 12.5 20.5C8.08172 20.5 4.5 16.9183 4.5 12.5ZM12.5 3.5C7.52944 3.5 3.5 7.52944 3.5 12.5C3.5 17.4706 7.52944 21.5 12.5 21.5C17.4706 21.5 21.5 17.4706 21.5 12.5C21.5 7.52944 17.4706 3.5 12.5 3.5ZM11.1393 11.1164C11.1393 10.8982 11.2568 10.6645 11.517 10.4694C11.7777 10.2739 12.1597 10.1389 12.6013 10.1389C13.3157 10.1389 13.8314 10.4817 13.9967 10.8345C14.0231 10.8906 14.0604 10.941 14.1063 10.9827C14.1522 11.0244 14.2059 11.0567 14.2643 11.0777C14.3226 11.0987 14.3846 11.1079 14.4466 11.105C14.5085 11.102 14.5693 11.0869 14.6254 11.0604C14.6816 11.034 14.7319 10.9967 14.7737 10.9508C14.8154 10.9049 14.8477 10.8512 14.8686 10.7928C14.8896 10.7345 14.8989 10.6725 14.8959 10.6105C14.893 10.5486 14.8778 10.4878 14.8514 10.4317C14.5186 9.72604 13.7259 9.27774 12.8528 9.20493C12.854 9.19151 12.8546 9.17801 12.8546 9.16444V8.69222C12.8546 8.56698 12.8048 8.44687 12.7163 8.35831C12.6277 8.26975 12.5076 8.22 12.3824 8.22C12.2571 8.22 12.137 8.26975 12.0484 8.35831C11.9599 8.44687 11.9101 8.56698 11.9101 8.69222V9.16444C11.9101 9.20066 11.9143 9.23646 11.9224 9.27118C11.5583 9.35559 11.2256 9.50715 10.9504 9.71342C10.5112 10.043 10.1948 10.5341 10.1948 11.1169C10.1948 11.6991 10.5112 12.1902 10.9504 12.5198C11.3895 12.8494 11.9746 13.0393 12.6008 13.0393C12.6192 13.0393 12.6375 13.0382 12.6556 13.0361C12.9529 13.085 13.2095 13.1959 13.4005 13.3393C13.6611 13.5344 13.7782 13.7686 13.7782 13.9872C13.7782 14.2054 13.6611 14.4391 13.4009 14.6342C13.1403 14.8297 12.7587 14.9647 12.3172 14.9647C11.6027 14.9647 11.0871 14.6219 10.9208 14.2687C10.8674 14.1554 10.7712 14.068 10.6533 14.0256C10.5354 13.9833 10.4056 13.9895 10.2923 14.043C10.179 14.0964 10.0916 14.1926 10.0493 14.3105C10.0069 14.4283 10.0132 14.5582 10.0666 14.6715C10.3955 15.3702 11.1757 15.8166 12.0381 15.8963V16.2778C12.0381 16.403 12.0878 16.5231 12.1764 16.6117C12.265 16.7002 12.3851 16.75 12.5103 16.75C12.6355 16.75 12.7557 16.7002 12.8442 16.6117C12.9328 16.5231 12.9825 16.403 12.9825 16.2778V15.8354C13.3516 15.7516 13.6886 15.5988 13.9671 15.3897C14.4068 15.0606 14.7227 14.569 14.7227 13.9868C14.7227 13.4045 14.4068 12.9134 13.9676 12.5838C13.5284 12.2542 12.9434 12.0644 12.3172 12.0644C12.2987 12.0644 12.2804 12.0654 12.2623 12.0676C11.9648 12.0187 11.7084 11.9078 11.517 11.7643C11.2568 11.5688 11.1393 11.335 11.1393 11.1164Z" fill="#217DC1"/>
</svg>
