<svg width="32" height="33" viewBox="0 0 32 33" fill="none" xmlns="http://www.w3.org/2000/svg">
<path d="M5 11.445V9.5C5 7.29086 6.79086 5.5 9 5.5L17.0324 5.5H23C25.2091 5.5 27 7.29086 27 9.5V14.0273V22.3726C27 24.5818 25.2091 26.3726 23 26.3726H19.1389C18.5867 26.3726 18.1389 26.8204 18.1389 27.3726V28.5505V28.5505C18.1389 29.0053 17.5975 29.2425 17.2632 28.934L11.6762 23.7796C11.2363 23.3737 11.2491 22.6748 11.7035 22.2853L16.5377 18.1418C17.1669 17.6024 18.1389 18.0495 18.1389 18.8782V18.8782C18.1389 19.414 18.5732 19.8482 19.1089 19.8482H19.2489C19.8012 19.8482 20.2489 19.4005 20.2489 18.8482V15.0273C20.2489 14.475 19.8012 14.0273 19.2489 14.0273H17.8995" stroke="#FF337C" stroke-width="1.5" stroke-linecap="round"/>
<path d="M5.35059 14.4961C6.65094 14.8286 8.41661 15.033 10.3615 15.033C12.3063 15.033 14.072 14.8286 15.3724 14.4961" stroke="#FF337C" stroke-width="1.5" stroke-linecap="round"/>
<path d="M5.35059 18.8213C6.65094 19.1538 8.41661 19.3582 10.3615 19.3582C12.3063 19.3582 14.072 19.1538 15.3724 18.8213" stroke="#FF337C" stroke-width="1.5" stroke-linecap="round"/>
<path d="M10.3615 23.6834C8.41661 23.6834 6.65094 23.479 5.35059 23.1465" stroke="#FF337C" stroke-width="1.5" stroke-linecap="round"/>
<path d="M17.5986 17.341V12.9502H17.5755C17.2787 11.9581 14.1624 11.1777 10.3618 11.1777C6.56126 11.1777 3.44497 11.9581 3.14814 12.9502H3.125V25.2285H3.14814C3.44497 26.2206 6.56126 27.001 10.3618 27.001C11.6756 27.001 12.9076 26.9077 13.9697 26.7447" stroke="#FF337C" stroke-width="1.5" stroke-linecap="round" stroke-linejoin="round"/>
</svg>
