<svg width="32" height="32" viewBox="0 0 32 32" fill="none" xmlns="http://www.w3.org/2000/svg">
<path fill-rule="evenodd" clip-rule="evenodd" d="M8.10109 22.2C8.08447 22.1988 8.06777 22.1979 8.05099 22.1973C5.91142 22.1194 4.20005 20.3592 4.20005 18.2C4.20005 16.1603 5.72791 14.4754 7.7009 14.2307C8.3565 14.1494 8.86604 13.6208 8.92331 12.9627C9.19447 9.84612 11.8124 7.4 15.0001 7.4C17.6072 7.4 19.8357 9.03623 20.708 11.3426C20.9361 11.9458 21.5468 12.3151 22.1869 12.2371C22.3873 12.2127 22.5919 12.2 22.8 12.2C25.5615 12.2 27.8 14.4386 27.8 17.2C27.8 19.9614 25.5615 22.2 22.8 22.2H15.5V23.6H22.8C26.3347 23.6 29.2001 20.7346 29.2001 17.2C29.2001 13.6654 26.3347 10.8 22.8 10.8C22.5351 10.8 22.2739 10.8161 22.0175 10.8474C20.946 8.0144 18.2083 6 15.0001 6C11.0799 6 7.86213 9.00768 7.52858 12.8413C4.86311 13.1719 2.80005 15.445 2.80005 18.2C2.80005 21.1154 5.11037 23.4912 8.00005 23.5964V23.6H8.20005H9.40005H10.5V22.2H8.20005H8.10109Z" fill="#B9964B"/>
<path d="M12.3 26.4C12.3 26.7866 12.6134 27.1 13 27.1C13.3866 27.1 13.7 26.7866 13.7 26.4L12.3 26.4ZM13.495 14.305C13.2216 14.0317 12.7784 14.0317 12.505 14.305L8.05025 18.7598C7.77689 19.0332 7.77689 19.4764 8.05025 19.7497C8.32362 20.0231 8.76683 20.0231 9.0402 19.7497L13 15.7899L16.9598 19.7497C17.2332 20.0231 17.6764 20.0231 17.9497 19.7497C18.2231 19.4764 18.2231 19.0332 17.9497 18.7598L13.495 14.305ZM13.7 26.4L13.7 14.8L12.3 14.8L12.3 26.4L13.7 26.4Z" fill="#B9964B"/>
</svg>
