<svg width="24" height="24" viewBox="0 0 24 24" fill="none" xmlns="http://www.w3.org/2000/svg">
<path d="M20.0251 8.2125C19.6876 8.2125 19.4251 7.95 19.4251 7.6125V5.4375C19.4251 4.95 19.0501 4.575 18.5626 4.575H16.3876C16.0501 4.575 15.7876 4.3125 15.7876 3.975C15.7876 3.6375 16.0501 3.375 16.3876 3.375H18.5626C19.6876 3.375 20.6251 4.3125 20.6251 5.4375V7.6125C20.6251 7.95 20.3626 8.2125 20.0251 8.2125Z" fill="#217DC1"/>
<path d="M3.975 8.2125C3.6375 8.2125 3.375 7.95 3.375 7.6125V5.4375C3.375 4.3125 4.3125 3.375 5.4375 3.375H7.6125C7.95 3.375 8.2125 3.6375 8.2125 3.975C8.2125 4.3125 7.95 4.575 7.6125 4.575H5.4375C4.95 4.575 4.575 4.95 4.575 5.4375V7.6125C4.575 7.95 4.275 8.2125 3.975 8.2125Z" fill="#217DC1"/>
<path d="M18.5626 20.625H16.3876C16.0501 20.625 15.7876 20.3625 15.7876 20.025C15.7876 19.6875 16.0501 19.425 16.3876 19.425H18.5626C19.0501 19.425 19.4251 19.05 19.4251 18.5625V16.3875C19.4251 16.05 19.6876 15.7875 20.0251 15.7875C20.3626 15.7875 20.6251 16.05 20.6251 16.3875V18.5625C20.6251 19.6875 19.6876 20.625 18.5626 20.625Z" fill="#217DC1"/>
<path d="M7.6125 20.625H5.4375C4.3125 20.625 3.375 19.6875 3.375 18.5625V16.3875C3.375 16.05 3.6375 15.7875 3.975 15.7875C4.3125 15.7875 4.575 16.05 4.575 16.3875V18.5625C4.575 19.05 4.95 19.425 5.4375 19.425H7.6125C7.95 19.425 8.2125 19.6875 8.2125 20.025C8.2125 20.3625 7.95 20.625 7.6125 20.625Z" fill="#217DC1"/>
<path d="M18.7875 11.625H17.2875V7.91248C17.2875 7.61248 17.025 7.34998 16.725 7.34998H7.64995C7.34995 7.34998 7.08745 7.61248 7.08745 7.91248V11.625H5.17495C4.83745 11.625 4.57495 11.8875 4.57495 12.1875C4.57495 12.4875 4.83745 12.75 5.17495 12.75H7.08745V16.125C7.08745 16.425 7.34995 16.6875 7.64995 16.6875H16.725C17.025 16.6875 17.2875 16.425 17.2875 16.125V12.75H18.7875C19.125 12.75 19.3875 12.4875 19.3875 12.1875C19.425 11.85 19.125 11.625 18.7875 11.625Z" fill="#217DC1"/>
</svg>
