<svg width="24" height="24" viewBox="0 0 24 24" fill="none" xmlns="http://www.w3.org/2000/svg">
<path d="M11.76 9.06C11.7 8.88 11.52 8.75999 11.37 8.78999C11.22 8.78999 11.07 8.90999 11.01 9.08999L9.65999 13.5L9.02999 11.85C8.96999 11.67 8.81998 11.58 8.66998 11.58H6.77999C6.56999 11.58 6.35999 11.79 6.35999 12.06C6.35999 12.33 6.53999 12.51 6.77999 12.51H8.39999L9.35999 14.97C9.41999 15.15 9.56998 15.24 9.74998 15.24C9.89998 15.24 10.05 15.12 10.11 14.94L11.46 10.53L12.18 12.27C12.24 12.42 12.39 12.54 12.54 12.54H14.16C14.37 12.54 14.55 12.33 14.55 12.09C14.55 11.82 14.37 11.64 14.16 11.64H12.81L11.76 9.06Z" fill="#217DC1"/>
<path d="M19.38 9.36002H16.98V9.18002V4.86002C16.98 4.32002 16.53 3.90002 15.99 3.90002H13.77H11.01H4.62C4.08 3.90002 3.63 4.32002 3.63 4.86002V17.49C3.63 18.93 4.83 20.1 6.33 20.1H17.67C19.17 20.1 20.37 18.93 20.37 17.49V10.32C20.37 9.78003 19.92 9.36002 19.38 9.36002ZM6.33 19.29C5.31 19.29 4.5 18.48 4.5 17.49V4.86002C4.5 4.77002 4.56 4.71002 4.65 4.71002H11.01H13.77H15.99C16.08 4.71002 16.14 4.77002 16.14 4.86002V9.03002V10.17V18.09C16.14 18.57 16.38 18.99 16.74 19.29H6.33ZM19.56 17.52C19.56 17.76 19.5 17.97 19.44 18.15C19.38 18.24 19.32 18.33 19.26 18.39C19.23 18.42 19.2 18.45 19.17 18.48C18.93 18.69 18.6 18.81 18.27 18.81C18.12 18.81 17.97 18.78 17.82 18.75C17.37 18.6 17.04 18.24 16.98 17.79C16.98 17.76 16.98 17.73 16.98 17.67V10.17H19.29H19.44C19.53 10.17 19.59 10.23 19.59 10.32V17.52H19.56Z" fill="#217DC1"/>
</svg>
