<svg width="24" height="24" viewBox="0 0 24 24" fill="none" xmlns="http://www.w3.org/2000/svg">
<path d="M18.36 11.52V8.37001C18.36 7.62001 17.76 7.02001 17.01 7.02001H16.08L15.15 5.31002C15 5.04002 14.73 4.89001 14.43 4.89001C14.28 4.89001 14.16 4.92001 14.04 4.98001L10.41 6.99001H6.32998C5.57998 6.99001 4.97998 7.59001 4.97998 8.34001V17.7C4.97998 18.45 5.57998 19.05 6.32998 19.05H16.98C17.73 19.05 18.33 18.45 18.33 17.7V15H19.02V11.52H18.36ZM16.98 7.56001C17.4 7.56001 17.73 7.89001 17.79 8.28001H16.77L16.38 7.56001H16.98ZM9.20998 8.28001L14.25 5.46002C14.37 5.40002 14.55 5.43001 14.61 5.58001L16.11 8.28001H16.08L16.11 8.34001H9.20998L9.32998 8.28001H9.20998ZM18.48 14.43H15.81C15.18 14.43 14.67 13.92 14.67 13.29V13.2C14.67 12.57 15.18 12.06 15.81 12.06H18.48V14.43Z" fill="#B9964B"/>
</svg>
