<svg width="32" height="33" viewBox="0 0 32 33" fill="none" xmlns="http://www.w3.org/2000/svg">
<path fill-rule="evenodd" clip-rule="evenodd" d="M17.2737 18.8339C17.1913 19.1313 16.918 19.3503 16.5945 19.3503C16.2047 19.3503 15.8893 19.0348 15.8893 18.645C15.8893 18.2552 16.2047 17.9398 16.5945 17.9398C16.9039 17.9398 17.1672 18.1407 17.2616 18.418H18.5294C18.4169 17.4495 17.5951 16.6981 16.5965 16.6981C15.5216 16.6981 14.6495 17.5701 14.6495 18.645C14.6495 19.72 15.5216 20.592 16.5965 20.592C17.6092 20.592 18.441 19.8205 18.5355 18.8319H17.2737V18.8339Z" fill="#00AB1B"/>
<path fill-rule="evenodd" clip-rule="evenodd" d="M17.9255 20.5606C17.9235 20.5606 17.9214 20.5606 17.9194 20.5626C17.9194 20.5626 17.9154 20.5646 17.9154 20.5666C17.5276 20.8459 17.0534 21.0106 16.5391 21.0106C15.235 21.0106 14.1782 19.9538 14.1782 18.6497C14.1782 17.3457 15.235 16.2888 16.5391 16.2888C17.0554 16.2888 17.5337 16.4556 17.9235 16.7369C17.9235 16.7369 17.9235 16.7369 17.9255 16.7369C17.9275 16.7369 17.9295 16.7389 17.9295 16.7389C17.9355 16.7389 17.9395 16.7349 17.9395 16.7289C17.9395 16.7269 17.9375 16.7228 17.9355 16.7208L17.9335 16.7188C17.4352 16.2125 16.74 15.897 15.9745 15.897C14.4554 15.897 13.2238 17.1287 13.2238 18.6477C13.2238 20.1667 14.4554 21.3984 15.9745 21.3984C16.74 21.3984 17.4312 21.087 17.9295 20.5827C17.9295 20.5827 17.9315 20.5807 17.9335 20.5807C17.9355 20.5786 17.9375 20.5766 17.9375 20.5726C17.9355 20.5666 17.9315 20.5606 17.9255 20.5606Z" fill="#00AB1B"/>
<path fill-rule="evenodd" clip-rule="evenodd" d="M17.9305 20.8895C17.9285 20.8895 17.9265 20.8895 17.9265 20.8915C17.9265 20.8915 17.9245 20.8935 17.9225 20.8935C17.3759 21.4019 16.6426 21.7133 15.8368 21.7133C14.143 21.7133 12.7707 20.341 12.7707 18.6471C12.7707 16.9533 14.143 15.581 15.8368 15.581C16.6405 15.581 17.3719 15.8904 17.9184 16.3967C17.9205 16.3988 17.9225 16.4008 17.9245 16.4008C17.9265 16.4028 17.9285 16.4048 17.9325 16.4048C17.9365 16.4048 17.9405 16.4008 17.9405 16.3947C17.9405 16.3927 17.9385 16.3907 17.9385 16.3887L17.9365 16.3867C17.2735 15.5569 16.2528 15.0244 15.1075 15.0244C13.1062 15.0244 11.4847 16.6459 11.4847 18.6471C11.4847 20.6484 13.1062 22.2699 15.1075 22.2699C16.2528 22.2699 17.2735 21.7374 17.9365 20.9076L17.9385 20.9056C17.9405 20.9036 17.9405 20.9015 17.9405 20.9015C17.9405 20.8935 17.9365 20.8895 17.9305 20.8895Z" fill="#00AB1B"/>
<path fill-rule="evenodd" clip-rule="evenodd" d="M17.9393 21.2655C17.9393 21.2595 17.9353 21.2555 17.9293 21.2555C17.9252 21.2555 17.9232 21.2575 17.9212 21.2595C17.9212 21.2595 17.9192 21.2635 17.9172 21.2655C17.1878 22.0974 16.1189 22.6238 14.9254 22.6238C12.7293 22.6238 10.949 20.8436 10.949 18.6474C10.949 16.4513 12.7293 14.6711 14.9254 14.6711C16.1209 14.6711 17.1939 15.1995 17.9212 16.0354L17.9232 16.0374C17.9252 16.0374 17.9273 16.0394 17.9293 16.0394C17.9353 16.0394 17.9393 16.0354 17.9393 16.0293C17.9393 16.0273 17.9393 16.0253 17.9373 16.0233V16.0213C17.0854 14.7374 15.6286 13.8915 13.973 13.8915C11.3469 13.8915 9.21704 16.0213 9.21704 18.6474C9.21704 21.2736 11.3469 23.4034 13.973 23.4034C15.6286 23.4034 17.0854 22.5575 17.9373 21.2756C17.9373 21.2756 17.9393 21.2736 17.9393 21.2716C17.9393 21.2695 17.9393 21.2675 17.9393 21.2655Z" fill="#00AB1B"/>
<path d="M12.6664 9.24769L4.28223 17.6318C3.05355 18.8605 3.05355 20.8526 4.28223 22.0813L7.4566 25.2557L10.2486 27.6863C11.7826 29.0217 14.0746 28.9934 15.5751 27.6205L19.2755 24.2349L23.4706 20.0398C24.0795 19.431 24.4122 18.5992 24.3912 17.7384L24.2409 11.5756C24.2233 10.8527 23.9625 10.1905 23.537 9.66761C23.4937 9.61443 23.4431 9.56781 23.3885 9.52633L22.4225 8.7926C22.2667 8.67429 22.0797 8.60426 21.8845 8.59117L20.2127 8.47912L14.9823 8.32749C14.1165 8.3024 13.2788 8.63528 12.6664 9.24769Z" stroke="#00AB1B" stroke-width="1.5" stroke-linecap="round" stroke-linejoin="round"/>
<circle cx="20.787" cy="11.9251" r="1.59204" transform="rotate(45 20.787 11.9251)" stroke="#00AB1B" stroke-width="1.5" stroke-linecap="round" stroke-linejoin="round"/>
<path d="M25.2023 12.4251C25.6834 12.2127 26.1148 11.9501 26.4824 11.6576C27.5653 10.7961 28.095 9.67479 27.7131 8.80982C27.2016 7.65118 25.2482 7.39125 23.35 8.22925C21.4517 9.06724 20.3276 10.6858 20.8391 11.8445C20.9403 12.0737 21.0979 12.2677 21.3003 12.4251" stroke="#00AB1B" stroke-linecap="round" stroke-linejoin="round"/>
</svg>
