<svg width="32" height="32" viewBox="0 0 32 32" fill="none" xmlns="http://www.w3.org/2000/svg">
<rect width="32" height="32" rx="16" fill="#333333" fill-opacity="0.7"/>
<g clip-path="url(#clip0_47021_4413)">
<path fill-rule="evenodd" clip-rule="evenodd" d="M19.2021 8.33992H22.6952C23.5685 8.33992 24.2672 9.06766 24.2963 9.97006V12.2115C24.2963 12.5608 24.0052 12.8519 23.6559 12.8519H23.3065L22.7534 24.4085C22.6952 25.4564 21.851 26.2424 20.8322 26.2424H11.1678C10.1198 26.2424 9.30475 25.4273 9.24654 24.4085L8.69345 12.8519H8.34413C7.99482 12.8519 7.70372 12.5608 7.70372 12.2115V9.97006C7.70372 9.09677 8.43146 8.36903 9.30475 8.36903H12.827V7.72861C12.827 6.65156 13.7003 5.80737 14.7483 5.80737H17.2808C18.3288 5.80737 19.173 6.65156 19.2021 7.6995V8.33992ZM14.7192 7.0882C14.3698 7.0882 14.0788 7.3793 14.0788 7.72861V8.36903H17.8921V7.72861C17.8921 7.3793 17.601 7.0882 17.2517 7.0882H14.7192ZM9.30475 9.62075C9.1301 9.62075 8.98455 9.7663 8.98455 9.94095H9.01366V11.542H23.0154V9.94095C23.0154 9.7663 22.8699 9.62075 22.6952 9.62075H9.30475ZM20.8322 24.9034C21.1815 24.9034 21.4435 24.6414 21.4726 24.292L21.9966 12.7937H9.97428L10.5274 24.292C10.5565 24.6414 10.8185 24.9034 11.1678 24.9034H20.8322ZM16.6404 22.9821C16.6404 23.3314 16.3493 23.6225 16 23.6225C15.6507 23.6225 15.3596 23.3605 15.3596 22.9821V14.7149C15.3596 14.3656 15.6507 14.0745 16 14.0745C16.3493 14.0745 16.6404 14.3656 16.6404 14.7149V22.9821ZM19.1729 23.6225C19.5222 23.6225 19.8133 23.3314 19.8133 22.9821V14.7149C19.8133 14.3656 19.5222 14.0745 19.1729 14.0745C18.8236 14.0745 18.5325 14.3656 18.5325 14.7149V22.9821C18.5325 23.3605 18.8236 23.6225 19.1729 23.6225ZM13.4674 22.9821C13.4674 23.3314 13.1763 23.6225 12.827 23.6225C12.4777 23.6225 12.1866 23.3605 12.1866 22.9821V14.7149C12.1866 14.3656 12.4777 14.0745 12.827 14.0745C13.1763 14.0745 13.4674 14.3656 13.4674 14.7149V22.9821Z" fill="white"/>
</g>
<defs>
<clipPath id="clip0_47021_4413">
<rect width="16.5926" height="21.3333" fill="white" transform="translate(7.7037 5.33337)"/>
</clipPath>
</defs>
</svg>
