<svg width="16" height="16" viewBox="0 0 16 16" fill="none" xmlns="http://www.w3.org/2000/svg">
<path d="M7.37478 10.7328C7.11869 10.2892 7.23913 9.72385 7.65377 9.42319L9.33123 8.20682L10.6346 6.23283C10.9076 5.81925 11.5205 5.83763 11.7683 6.26682L14.3862 10.8012C14.634 11.2304 14.3435 11.7703 13.8488 11.8L11.4876 11.9418L11.0607 12.1882L11.8309 13.5221L10.3369 14.3847L9.48976 12.9174L9.16962 13.1022V13.1022C8.99282 13.2043 8.76673 13.1437 8.66465 12.9669L7.37478 10.7328Z" stroke="#F69234" stroke-linejoin="round"/>
<path d="M13.3333 5.55006V2H4.66667C3.19391 2 2 3.19391 2 4.66667V12.6667H6.1063" stroke="#F69234" stroke-linecap="round" stroke-linejoin="round"/>
<path d="M4 4.66406H9.66223" stroke="#F69234" stroke-linecap="round" stroke-linejoin="round"/>
<path d="M4 7.33594H7.09619" stroke="#F69234" stroke-linecap="round" stroke-linejoin="round"/>
<path d="M4 10H5.33333" stroke="#F69234" stroke-linecap="round" stroke-linejoin="round"/>
</svg>
