<svg width="18" height="10" viewBox="0 0 18 10" fill="none" xmlns="http://www.w3.org/2000/svg">
<path d="M14.5479 0.573154C14.4107 0.386788 14.2226 0.236126 14.002 0.135977C13.7814 0.0358274 13.536 -0.0103622 13.2898 0.00194822H1.57192C1.15502 0.00194822 0.755196 0.152668 0.460404 0.420951C0.165612 0.689234 0 1.0531 0 1.43251V8.57259C0.00148281 8.95111 0.16775 9.31367 0.462381 9.58085C0.757012 9.84803 1.15599 9.99805 1.57192 9.99805H13.2898C13.536 10.0104 13.7814 9.96417 14.002 9.86402C14.2226 9.76387 14.4107 9.61321 14.5479 9.42684L18 5.00255L14.5479 0.573154Z" fill="#FDCB46"/>
<path d="M2.552 2.288V8H3.808V5.536H6.12V8H7.376V2.288H6.12V4.48H3.808V2.288H2.552ZM8.48169 2.288V8H9.73769V6.16L10.4577 5.432L12.1777 8H13.7537L11.3057 4.544L13.5377 2.288H11.9697L9.73769 4.656V2.288H8.48169Z" fill="white"/>
</svg>
