<svg width="80" height="80" viewBox="0 0 80 80" fill="none" xmlns="http://www.w3.org/2000/svg">
<path d="M60.3 31.6C59.3 31.6 58.5 32.4 58.5 33.4C58.5 34.4 59.3 35.2 60.3 35.2C61.3 35.2 62.1 34.4 62.1 33.4C62.1 32.4 61.3 31.6 60.3 31.6Z" fill="#808080"/>
<path d="M60.3 39C59.3 39 58.5 39.8 58.5 40.8C58.5 41.8 59.3 42.6 60.3 42.6C61.3 42.6 62.1 41.8 62.1 40.8C62.1 39.8 61.3 39 60.3 39Z" fill="#808080"/>
<path d="M60.3 20.6H42.6L50.5 12.7C51.2 12 51.2 10.8 50.5 10.1C49.8 9.39998 48.6 9.39998 47.9 10.1L38.1 19.9L28.4 9.99998C27.7 9.29998 26.5 9.29998 25.8 9.99998C25.1 10.7 25.1 11.9 25.8 12.6L33.7 20.5H19.7C14.6 20.5 10.5 24.6 10.5 29.7V59.2C10.5 64.3 14.6 68.4 19.7 68.4H60.3C65.4 68.4 69.5 64.3 69.5 59.2V29.8C69.5 24.7 65.4 20.6 60.3 20.6ZM51.1 64.8H19.7C16.7 64.8 14.2 62.3 14.2 59.3V29.8C14.2 26.8 16.7 24.3 19.7 24.3H51V64.8H51.1ZM65.8 59.3C65.8 62.3 63.3 64.8 60.3 64.8H54.8V24.3H60.3C63.3 24.3 65.8 26.8 65.8 29.8V59.3Z" fill="#808080"/>
</svg>
