<svg width="46" height="12" viewBox="0 0 46 12" fill="none" xmlns="http://www.w3.org/2000/svg">
<rect x="1" y="0.5" width="44" height="11" rx="5.5" fill="#FDD032"/>
<rect x="1" y="0.5" width="44" height="11" rx="5.5" stroke="white"/>
<path d="M4.22656 8V3.77246H6.06348C6.41113 3.77246 6.70312 3.82812 6.93945 3.93945C7.17773 4.05078 7.3584 4.21094 7.48145 4.41992C7.60449 4.62695 7.66602 4.87598 7.66602 5.16699V5.17285C7.66602 5.43066 7.60352 5.66797 7.47852 5.88477C7.35352 6.10156 7.17578 6.26074 6.94531 6.3623L7.78906 8H6.58203L5.8584 6.52344C5.85059 6.52344 5.8418 6.52344 5.83203 6.52344C5.82422 6.52344 5.81641 6.52344 5.80859 6.52344H5.30176V8H4.22656ZM5.30176 5.78516H5.94336C6.13672 5.78516 6.28906 5.73145 6.40039 5.62402C6.51172 5.5166 6.56738 5.37109 6.56738 5.1875V5.18164C6.56738 5.00391 6.51074 4.86035 6.39746 4.75098C6.28418 4.63965 6.13086 4.58398 5.9375 4.58398H5.30176V5.78516ZM9.80762 8.07617C9.46582 8.07617 9.17188 8.00781 8.92578 7.87109C8.68164 7.73242 8.49316 7.53613 8.36035 7.28223C8.22754 7.02832 8.16113 6.72461 8.16113 6.37109V6.36816C8.16113 6.0166 8.22656 5.71387 8.35742 5.45996C8.49023 5.2041 8.67676 5.00781 8.91699 4.87109C9.15723 4.73242 9.44141 4.66309 9.76953 4.66309C10.0977 4.66309 10.3818 4.73047 10.6221 4.86523C10.8623 5 11.0479 5.19043 11.1787 5.43652C11.3096 5.68262 11.375 5.97168 11.375 6.30371V6.60254H8.67676V5.99902H10.8828L10.4023 6.57617V6.16309C10.4023 5.99707 10.377 5.8584 10.3262 5.74707C10.2754 5.63379 10.2041 5.54785 10.1123 5.48926C10.0225 5.43066 9.91699 5.40137 9.7959 5.40137C9.6748 5.40137 9.56836 5.43164 9.47656 5.49219C9.38477 5.55078 9.3125 5.63672 9.25977 5.75C9.20898 5.86328 9.18359 6.00098 9.18359 6.16309V6.58203C9.18359 6.74023 9.20898 6.87598 9.25977 6.98926C9.31055 7.10254 9.38379 7.18945 9.47949 7.25C9.57715 7.30859 9.69336 7.33789 9.82812 7.33789C9.94336 7.33789 10.04 7.32031 10.1182 7.28516C10.1982 7.24805 10.2607 7.20703 10.3057 7.16211C10.3525 7.11719 10.3828 7.08105 10.3965 7.05371L10.4053 7.04199L11.3545 7.03906L11.3457 7.07422C11.3242 7.16992 11.2803 7.27637 11.2139 7.39355C11.1494 7.50879 11.0566 7.61816 10.9355 7.72168C10.8164 7.8252 10.6641 7.91016 10.4785 7.97656C10.293 8.04297 10.0693 8.07617 9.80762 8.07617ZM13.5137 8.07617C13.1562 8.07617 12.8545 8.01074 12.6084 7.87988C12.3643 7.74902 12.1787 7.55664 12.0518 7.30273C11.9268 7.04883 11.8643 6.7373 11.8643 6.36816V6.3623C11.8643 5.99316 11.9268 5.68262 12.0518 5.43066C12.1768 5.17871 12.3613 4.98828 12.6055 4.85938C12.8516 4.72852 13.1543 4.66309 13.5137 4.66309C13.8145 4.66309 14.0723 4.71387 14.2871 4.81543C14.5039 4.91699 14.6738 5.06348 14.7969 5.25488C14.9199 5.44629 14.9932 5.67578 15.0166 5.94336L15.0107 5.94922H14.0645L14.0615 5.94336C14.04 5.78711 13.9834 5.66602 13.8916 5.58008C13.8018 5.49414 13.6777 5.45117 13.5195 5.45117C13.3848 5.45117 13.2734 5.48535 13.1855 5.55371C13.0977 5.62012 13.0312 5.7207 12.9863 5.85547C12.9414 5.98828 12.9189 6.15723 12.9189 6.3623V6.36816C12.9189 6.57324 12.9414 6.74414 12.9863 6.88086C13.0312 7.01758 13.0977 7.12012 13.1855 7.18848C13.2754 7.25488 13.3867 7.28809 13.5195 7.28809C13.6758 7.28809 13.7979 7.24902 13.8857 7.1709C13.9756 7.09277 14.0332 6.97559 14.0586 6.81934L14.0645 6.81641L15.0107 6.81348L15.0137 6.8252C14.9902 7.08301 14.915 7.30566 14.7881 7.49316C14.6631 7.67871 14.4932 7.82227 14.2783 7.92383C14.0635 8.02539 13.8086 8.07617 13.5137 8.07617ZM17.1406 8.07617C16.7949 8.07617 16.4971 8.00879 16.2471 7.87402C15.999 7.7373 15.8086 7.54199 15.6758 7.28809C15.5449 7.03223 15.4795 6.72656 15.4795 6.37109V6.36523C15.4795 6.01367 15.5469 5.71094 15.6816 5.45703C15.8164 5.20312 16.0078 5.00781 16.2559 4.87109C16.5039 4.73242 16.7988 4.66309 17.1406 4.66309C17.4844 4.66309 17.7803 4.73145 18.0283 4.86816C18.2783 5.00488 18.4697 5.2002 18.6025 5.4541C18.7373 5.70801 18.8047 6.01172 18.8047 6.36523V6.37109C18.8047 6.72656 18.7383 7.03223 18.6055 7.28809C18.4746 7.54199 18.2852 7.7373 18.0371 7.87402C17.7891 8.00879 17.4902 8.07617 17.1406 8.07617ZM17.1406 7.28809C17.2676 7.28809 17.375 7.25195 17.4629 7.17969C17.5527 7.10547 17.6211 7 17.668 6.86328C17.7148 6.72656 17.7383 6.5625 17.7383 6.37109V6.36523C17.7383 6.17578 17.7139 6.01367 17.665 5.87891C17.6182 5.74219 17.5508 5.63672 17.4629 5.5625C17.375 5.48828 17.2676 5.45117 17.1406 5.45117C17.0176 5.45117 16.9111 5.48828 16.8213 5.5625C16.7314 5.63672 16.6621 5.74219 16.6133 5.87891C16.5664 6.01367 16.543 6.17578 16.543 6.36523V6.37109C16.543 6.56445 16.5664 6.72949 16.6133 6.86621C16.6602 7.00293 16.7285 7.10742 16.8184 7.17969C16.9082 7.25195 17.0156 7.28809 17.1406 7.28809ZM19.4463 8V4.73926H20.4863V5.25781H20.542C20.6104 5.06836 20.7266 4.92188 20.8906 4.81836C21.0547 4.71484 21.2441 4.66309 21.459 4.66309C21.6074 4.66309 21.7422 4.6875 21.8633 4.73633C21.9844 4.7832 22.0879 4.85254 22.1738 4.94434C22.2598 5.03418 22.3232 5.14551 22.3643 5.27832H22.4199C22.4668 5.15332 22.5371 5.04492 22.6309 4.95312C22.7266 4.86133 22.8398 4.79004 22.9707 4.73926C23.1035 4.68848 23.2461 4.66309 23.3984 4.66309C23.6133 4.66309 23.7998 4.70898 23.958 4.80078C24.1182 4.89258 24.2422 5.02148 24.3301 5.1875C24.418 5.35156 24.4619 5.5459 24.4619 5.77051V8H23.4219V6.03418C23.4219 5.86035 23.3828 5.72949 23.3047 5.6416C23.2285 5.55371 23.1113 5.50977 22.9531 5.50977C22.8555 5.50977 22.7705 5.53223 22.6982 5.57715C22.626 5.62207 22.5703 5.68457 22.5312 5.76465C22.4941 5.84277 22.4756 5.93555 22.4756 6.04297V8H21.4355V6.0166C21.4355 5.85254 21.3955 5.72754 21.3154 5.6416C21.2354 5.55371 21.1201 5.50977 20.9697 5.50977C20.874 5.50977 20.79 5.5332 20.7178 5.58008C20.6455 5.625 20.5889 5.68945 20.5479 5.77344C20.5068 5.85547 20.4863 5.95117 20.4863 6.06055V8H19.4463ZM25.2412 8V4.73926H26.2812V5.25781H26.3369C26.4053 5.06836 26.5215 4.92188 26.6855 4.81836C26.8496 4.71484 27.0391 4.66309 27.2539 4.66309C27.4023 4.66309 27.5371 4.6875 27.6582 4.73633C27.7793 4.7832 27.8828 4.85254 27.9688 4.94434C28.0547 5.03418 28.1182 5.14551 28.1592 5.27832H28.2148C28.2617 5.15332 28.332 5.04492 28.4258 4.95312C28.5215 4.86133 28.6348 4.79004 28.7656 4.73926C28.8984 4.68848 29.041 4.66309 29.1934 4.66309C29.4082 4.66309 29.5947 4.70898 29.7529 4.80078C29.9131 4.89258 30.0371 5.02148 30.125 5.1875C30.2129 5.35156 30.2568 5.5459 30.2568 5.77051V8H29.2168V6.03418C29.2168 5.86035 29.1777 5.72949 29.0996 5.6416C29.0234 5.55371 28.9062 5.50977 28.748 5.50977C28.6504 5.50977 28.5654 5.53223 28.4932 5.57715C28.4209 5.62207 28.3652 5.68457 28.3262 5.76465C28.2891 5.84277 28.2705 5.93555 28.2705 6.04297V8H27.2305V6.0166C27.2305 5.85254 27.1904 5.72754 27.1104 5.6416C27.0303 5.55371 26.915 5.50977 26.7646 5.50977C26.6689 5.50977 26.585 5.5332 26.5127 5.58008C26.4404 5.625 26.3838 5.68945 26.3428 5.77344C26.3018 5.85547 26.2812 5.95117 26.2812 6.06055V8H25.2412ZM32.5244 8.07617C32.1826 8.07617 31.8887 8.00781 31.6426 7.87109C31.3984 7.73242 31.21 7.53613 31.0771 7.28223C30.9443 7.02832 30.8779 6.72461 30.8779 6.37109V6.36816C30.8779 6.0166 30.9434 5.71387 31.0742 5.45996C31.207 5.2041 31.3936 5.00781 31.6338 4.87109C31.874 4.73242 32.1582 4.66309 32.4863 4.66309C32.8145 4.66309 33.0986 4.73047 33.3389 4.86523C33.5791 5 33.7646 5.19043 33.8955 5.43652C34.0264 5.68262 34.0918 5.97168 34.0918 6.30371V6.60254H31.3936V5.99902H33.5996L33.1191 6.57617V6.16309C33.1191 5.99707 33.0938 5.8584 33.043 5.74707C32.9922 5.63379 32.9209 5.54785 32.8291 5.48926C32.7393 5.43066 32.6338 5.40137 32.5127 5.40137C32.3916 5.40137 32.2852 5.43164 32.1934 5.49219C32.1016 5.55078 32.0293 5.63672 31.9766 5.75C31.9258 5.86328 31.9004 6.00098 31.9004 6.16309V6.58203C31.9004 6.74023 31.9258 6.87598 31.9766 6.98926C32.0273 7.10254 32.1006 7.18945 32.1963 7.25C32.2939 7.30859 32.4102 7.33789 32.5449 7.33789C32.6602 7.33789 32.7568 7.32031 32.835 7.28516C32.915 7.24805 32.9775 7.20703 33.0225 7.16211C33.0693 7.11719 33.0996 7.08105 33.1133 7.05371L33.1221 7.04199L34.0713 7.03906L34.0625 7.07422C34.041 7.16992 33.9971 7.27637 33.9307 7.39355C33.8662 7.50879 33.7734 7.61816 33.6523 7.72168C33.5332 7.8252 33.3809 7.91016 33.1953 7.97656C33.0098 8.04297 32.7861 8.07617 32.5244 8.07617ZM34.7393 8V4.73926H35.7793V5.24902H35.835C35.9072 5.07129 36.0225 4.92969 36.1807 4.82422C36.3408 4.7168 36.5361 4.66309 36.7666 4.66309C37.1279 4.66309 37.4014 4.77051 37.5869 4.98535C37.7744 5.19824 37.8682 5.50098 37.8682 5.89355V8H36.8281V6.125C36.8281 5.92773 36.7861 5.77637 36.7021 5.6709C36.6201 5.56348 36.4912 5.50977 36.3154 5.50977C36.2041 5.50977 36.1084 5.53613 36.0283 5.58887C35.9482 5.6416 35.8867 5.71484 35.8438 5.80859C35.8008 5.90234 35.7793 6.01172 35.7793 6.13672V8H34.7393ZM39.7842 8.0498C39.5166 8.0498 39.2852 7.9834 39.0898 7.85059C38.8945 7.71582 38.7441 7.52344 38.6387 7.27344C38.5352 7.02344 38.4834 6.72266 38.4834 6.37109V6.36523C38.4834 6.01172 38.5342 5.70996 38.6357 5.45996C38.7393 5.20996 38.8877 5.01953 39.0811 4.88867C39.2744 4.75586 39.5088 4.68945 39.7842 4.68945C40.0088 4.68945 40.2041 4.74023 40.3701 4.8418C40.5381 4.94336 40.6611 5.08398 40.7393 5.26367H40.7949V3.51465H41.835V8H40.7949V7.50195H40.7393C40.6631 7.67578 40.543 7.81055 40.3789 7.90625C40.2148 8.00195 40.0166 8.0498 39.7842 8.0498ZM40.168 7.20312C40.2988 7.20312 40.4111 7.16992 40.5049 7.10352C40.6006 7.03711 40.6738 6.94238 40.7246 6.81934C40.7773 6.69434 40.8037 6.5459 40.8037 6.37402V6.36816C40.8037 6.19434 40.7773 6.0459 40.7246 5.92285C40.6719 5.79785 40.5977 5.70215 40.502 5.63574C40.4082 5.56934 40.2969 5.53613 40.168 5.53613C40.041 5.53613 39.9297 5.57031 39.834 5.63867C39.7402 5.70508 39.667 5.80078 39.6143 5.92578C39.5635 6.04883 39.5381 6.19531 39.5381 6.36523V6.37109C39.5381 6.54492 39.5635 6.69434 39.6143 6.81934C39.667 6.94238 39.7402 7.03711 39.834 7.10352C39.9277 7.16992 40.0391 7.20312 40.168 7.20312Z" fill="#AF741F"/>
</svg>
