<svg width="32" height="32" viewBox="0 0 32 32" fill="none" xmlns="http://www.w3.org/2000/svg">
<path d="M9 7L26 7C26.5523 7 27 7.44772 27 8L27 13.4627L27 23C27 24.1046 26.1046 25 25 25L13.189 25L6 25C5.44772 25 5 24.5523 5 24L5 21.5L5 11C5 8.79086 6.79086 7 9 7Z" stroke="#F69234" stroke-width="1.5" stroke-linecap="round" stroke-linejoin="round"/>
<path d="M10.562 13.7294C10.3875 13.4312 10.2875 13.0841 10.2875 12.7136C10.2875 11.6011 11.1893 10.6992 12.3018 10.6992C13.4143 10.6992 14.3162 11.6011 14.3162 12.7136C14.3162 13.0841 14.2162 13.4312 14.0417 13.7294" stroke="#F69234" stroke-width="1.5" stroke-linecap="round"/>
<path d="M10.0978 21.3004H14.5012C15.9465 21.3004 17.1182 20.1287 17.1182 18.6834C17.1182 17.2381 15.9465 16.0664 14.5012 16.0664H12.73H11.6469H10.0978C8.6525 16.0664 7.48083 17.2381 7.48083 18.6834C7.48083 20.1287 8.65251 21.3004 10.0978 21.3004Z" stroke="#F69234" stroke-width="1.5" stroke-linecap="round"/>
<path d="M19.7002 14.4395H24.5283" stroke="#F69234" stroke-width="1.5" stroke-linecap="round" stroke-linejoin="round"/>
<path d="M19.7002 17.5605H23.1182" stroke="#F69234" stroke-width="1.5" stroke-linecap="round" stroke-linejoin="round"/>
</svg>
