<svg width="33" height="32" viewBox="0 0 33 32" fill="none" xmlns="http://www.w3.org/2000/svg">
<path fill-rule="evenodd" clip-rule="evenodd" d="M16.4012 13.7275C15.9962 14.0311 15.8131 14.395 15.8131 14.7346C15.8131 15.075 15.9962 15.4389 16.4012 15.7432C16.807 16.0476 17.401 16.2578 18.0883 16.2578C18.2833 16.2578 18.4703 16.3353 18.6081 16.4731C18.746 16.611 18.8234 16.798 18.8234 16.9929C18.8234 17.1879 18.746 17.3749 18.6081 17.5127C18.4703 17.6506 18.2833 17.728 18.0883 17.728C17.1136 17.728 16.2027 17.4325 15.5191 16.9194C14.8354 16.4063 14.3429 15.6418 14.3429 14.7354C14.3429 13.8282 14.8354 13.0637 15.5191 12.5506C16.2027 12.0382 17.1143 11.7427 18.0883 11.7427C19.5975 11.7427 21.0244 12.4653 21.5919 13.6687C21.6331 13.7561 21.6566 13.8507 21.6612 13.9472C21.6658 14.0437 21.6514 14.1401 21.6187 14.231C21.5861 14.3219 21.5358 14.4054 21.4709 14.4769C21.4059 14.5484 21.3275 14.6064 21.2401 14.6475C21.1528 14.6887 21.0582 14.7123 20.9617 14.7169C20.8652 14.7215 20.7688 14.707 20.6779 14.6744C20.587 14.6417 20.5034 14.5915 20.432 14.5265C20.3605 14.4615 20.3025 14.3831 20.2613 14.2958C20.004 13.7466 19.2013 13.2129 18.0891 13.2129C17.4017 13.2129 16.807 13.4232 16.4012 13.7275Z" fill="#8B3BFF"/>
<path fill-rule="evenodd" clip-rule="evenodd" d="M19.3358 20.0996C19.7409 19.8074 19.9232 19.4572 19.9232 19.1303C19.9232 18.8028 19.7409 18.4519 19.3351 18.1597C18.93 17.8668 18.3353 17.6645 17.6487 17.6645C17.4538 17.6645 17.2668 17.5899 17.1289 17.4572C16.9911 17.3246 16.9136 17.1446 16.9136 16.957C16.9136 16.7694 16.9911 16.5894 17.1289 16.4567C17.2668 16.324 17.4538 16.2495 17.6487 16.2495C18.6235 16.2495 19.5343 16.5339 20.218 17.0277C20.9016 17.5215 21.3934 18.2573 21.3934 19.1296C21.3934 20.0019 20.9016 20.7384 20.2172 21.2315C19.5336 21.7253 18.6235 22.0097 17.6487 22.0097C16.1395 22.0097 14.7119 21.3143 14.1452 20.1555C14.062 19.9857 14.0523 19.7912 14.1182 19.6146C14.1841 19.438 14.3202 19.2938 14.4965 19.2138C14.6729 19.1338 14.8751 19.1245 15.0585 19.1879C15.242 19.2513 15.3918 19.3823 15.475 19.552C15.7338 20.0812 16.5365 20.5948 17.6487 20.5948C18.3361 20.5948 18.93 20.3925 19.3358 20.0996ZM17.7502 10.49C17.9451 10.49 18.1321 10.5645 18.27 10.6972C18.4078 10.8299 18.4853 11.0098 18.4853 11.1975V11.9049C18.4853 12.0926 18.4078 12.2725 18.27 12.4052C18.1321 12.5379 17.9451 12.6124 17.7502 12.6124C17.5552 12.6124 17.3682 12.5379 17.2304 12.4052C17.0925 12.2725 17.0151 12.0926 17.0151 11.9049V11.1975C17.0151 11.0098 17.0925 10.8299 17.2304 10.6972C17.3682 10.5645 17.5552 10.49 17.7502 10.49Z" fill="#8B3BFF"/>
<path fill-rule="evenodd" clip-rule="evenodd" d="M17.9486 21.2989C18.1436 21.2989 18.3306 21.3764 18.4684 21.5142C18.6063 21.6521 18.6838 21.8391 18.6838 22.034V22.7692C18.6838 22.9641 18.6063 23.1511 18.4684 23.289C18.3306 23.4268 18.1436 23.5043 17.9486 23.5043C17.7537 23.5043 17.5667 23.4268 17.4288 23.289C17.291 23.1511 17.2135 22.9641 17.2135 22.7692V22.034C17.2135 21.8391 17.291 21.6521 17.4288 21.5142C17.5667 21.3764 17.7537 21.2989 17.9486 21.2989Z" fill="#8B3BFF"/>
<path d="M3.62586 10.0132C2.98883 10.0132 2.64229 10.7577 3.05239 11.2451L7.63815 16.696C7.93761 17.052 8.48563 17.052 8.78509 16.696L13.3709 11.2451C13.781 10.7577 13.4344 10.0132 12.7974 10.0132H11.6503C11.2364 10.0132 10.9009 9.67772 10.9009 9.26383V5.74942C10.9009 5.33553 10.5654 5 10.1515 5L6.27162 5C5.85772 5 5.5222 5.33553 5.5222 5.74942L5.5222 9.26383C5.5222 9.67772 5.18667 10.0132 4.77277 10.0132H3.62586Z" stroke="#8B3BFF" stroke-width="1.5" stroke-linejoin="round"/>
<path fill-rule="evenodd" clip-rule="evenodd" d="M8.125 16.958V27C8.125 27.9665 8.9085 28.75 9.875 28.75H15.3377H22.875C25.4984 28.75 27.625 26.6234 27.625 24V14.189V7C27.625 6.0335 26.8415 5.25 25.875 5.25H23.375H12.875C12.1694 5.25 11.4997 5.40385 10.8977 5.67984C10.8998 5.70275 10.9009 5.72596 10.9009 5.74942V7.41805C11.4481 6.999 12.1325 6.75 12.875 6.75H23.375H25.875C26.0131 6.75 26.125 6.86193 26.125 7V14.189V24C26.125 25.7949 24.6699 27.25 22.875 27.25H15.3377H9.875C9.73693 27.25 9.625 27.1381 9.625 27V15.6977L8.78509 16.696C8.61492 16.8983 8.36448 16.9857 8.125 16.958Z" fill="#8B3BFF"/>
</svg>
