<svg width="14" height="14" viewBox="0 0 14 14" fill="none" xmlns="http://www.w3.org/2000/svg">
<path fill-rule="evenodd" clip-rule="evenodd" d="M11.5035 9.93144C11.5035 10.8785 10.7358 11.6462 9.78874 11.6462C8.84169 11.6462 8.07395 10.8785 8.07395 9.93144C8.07395 8.98439 8.84169 8.21665 9.78874 8.21665C10.7358 8.21665 11.5035 8.98439 11.5035 9.93144ZM11.2793 12.028C10.8588 12.3275 10.3443 12.5036 9.78874 12.5036C8.36816 12.5036 7.21655 11.352 7.21655 9.93144C7.21655 8.51086 8.36816 7.35925 9.78874 7.35925C11.2093 7.35925 12.3609 8.51086 12.3609 9.93144C12.3609 10.4869 12.1849 11.0012 11.8855 11.4217L13.3745 12.9106C13.5419 13.0781 13.5419 13.3495 13.3745 13.5169C13.207 13.6843 12.9356 13.6843 12.7682 13.5169L11.2793 12.028Z" fill="#217DC1"/>
<path fill-rule="evenodd" clip-rule="evenodd" d="M2.00044 1.3H11.0031C11.39 1.3 11.7036 1.6136 11.7036 2.00044V3.9295H1.3V2.00044C1.3 1.6136 1.6136 1.3 2.00044 1.3ZM0.5 4.3295V2.00044C0.5 1.17177 1.17177 0.5 2.00044 0.5H11.0031C11.8318 0.5 12.5036 1.17177 12.5036 2.00044V4.3295V7.83535C12.2789 7.54483 12.0087 7.29136 11.7036 7.08566V4.7295H1.3V11.0031C1.3 11.39 1.6136 11.7036 2.00044 11.7036H6.85199C7.03323 12.0033 7.25905 12.273 7.52026 12.5036H2.00044C1.17177 12.5036 0.5 11.8318 0.5 11.0031V4.3295ZM12.2705 11.8066C12.2705 11.8067 12.2705 11.8067 12.2705 11.8067L11.8855 11.4217C12.1849 11.0013 12.361 10.4869 12.361 9.93143C12.361 9.27132 12.1123 8.6693 11.7036 8.2139V8.21382C12.1123 8.66922 12.361 9.27128 12.361 9.93142C12.361 10.4869 12.1849 11.0013 11.8856 11.4217L11.8856 11.4217L12.2705 11.8066ZM10.7888 2.64355C10.7888 2.99869 10.5009 3.2866 10.1457 3.2866C9.79056 3.2866 9.50266 2.99869 9.50266 2.64355C9.50266 2.2884 9.79056 2.0005 10.1457 2.0005C10.5009 2.0005 10.7888 2.2884 10.7888 2.64355ZM11.2792 12.028L11.2793 12.028C11.262 12.0403 11.2446 12.0524 11.227 12.0643C10.9931 12.2223 10.7319 12.3429 10.4518 12.4173C10.7529 12.3373 11.0323 12.2039 11.2792 12.028Z" fill="#217DC1"/>
</svg>
