<svg width="20" height="20" viewBox="0 0 20 20" fill="none" xmlns="http://www.w3.org/2000/svg">
<rect width="20" height="20" rx="10" fill="#0F75B2"/>
<path d="M7.125 4.66406V6.35925" stroke="white" stroke-linecap="round"/>
<path d="M12.8711 4.66406V6.35925" stroke="white" stroke-linecap="round"/>
<path fill-rule="evenodd" clip-rule="evenodd" d="M6.125 5.37509V6.3612C6.125 6.91349 6.57272 7.3612 7.125 7.3612C7.67728 7.3612 8.125 6.91349 8.125 6.3612V5.375H11.8711V6.3612C11.8711 6.91349 12.3188 7.3612 12.8711 7.3612C13.4234 7.3612 13.8711 6.91349 13.8711 6.3612V5.37508C14.9671 5.38504 15.8525 6.27662 15.8525 7.375V8.78541H4.14453V7.375C4.14453 6.27695 5.02943 5.38557 6.125 5.37509Z" fill="white"/>
<path d="M4.14453 9.44531H15.8525V13.3399C15.8525 14.4445 14.9571 15.3399 13.8525 15.3399H6.14453C5.03996 15.3399 4.14453 14.4445 4.14453 13.3399V9.44531Z" fill="white"/>
</svg>
