<svg width="32" height="33" viewBox="0 0 32 33" fill="none" xmlns="http://www.w3.org/2000/svg">
<path d="M3.49023 11.4958L7.24324 13.3723L9.11975 24.0058H26.0083L28.5103 13.3723" stroke="#217DC1" stroke-width="1.33" stroke-linecap="round" stroke-linejoin="round"/>
<path d="M14.1241 25.8824C14.1241 27.2643 13.0039 28.3845 11.6221 28.3845C10.2403 28.3845 9.12012 27.2643 9.12012 25.8824" stroke="#217DC1" stroke-width="1.33" stroke-linecap="round"/>
<path d="M25.3829 25.8824C25.3829 27.2643 24.2627 28.3845 22.8809 28.3845C21.4991 28.3845 20.3789 27.2643 20.3789 25.8824" stroke="#217DC1" stroke-width="1.33" stroke-linecap="round"/>
<circle cx="17.6667" cy="12.7469" r="8.13152" stroke="#217DC1" stroke-width="1.33" stroke-linecap="round" stroke-linejoin="round"/>
<path fill-rule="evenodd" clip-rule="evenodd" d="M16.618 10.4094C16.3284 10.6264 16.1975 10.8866 16.1975 11.1294C16.1975 11.3727 16.3284 11.6328 16.618 11.8504C16.908 12.068 17.3327 12.2183 17.824 12.2183C17.9634 12.2183 18.0971 12.2736 18.1956 12.3722C18.2942 12.4707 18.3496 12.6044 18.3496 12.7438C18.3496 12.8832 18.2942 13.0168 18.1956 13.1154C18.0971 13.2139 17.9634 13.2693 17.824 13.2693C17.1272 13.2693 16.4761 13.0581 15.9873 12.6912C15.4986 12.3244 15.1465 11.7779 15.1465 11.1299C15.1465 10.4814 15.4986 9.93485 15.9873 9.56803C16.4761 9.20174 17.1277 8.99048 17.824 8.99048C18.9029 8.99048 19.923 9.50707 20.3287 10.3674C20.3581 10.4298 20.375 10.4975 20.3783 10.5664C20.3816 10.6354 20.3712 10.7043 20.3479 10.7693C20.3245 10.8343 20.2886 10.894 20.2422 10.9451C20.1957 10.9962 20.1397 11.0377 20.0772 11.0671C20.0148 11.0965 19.9471 11.1134 19.8782 11.1167C19.8092 11.12 19.7403 11.1096 19.6753 11.0863C19.6103 11.0629 19.5506 11.027 19.4995 10.9806C19.4484 10.9341 19.4069 10.8781 19.3775 10.8156C19.1936 10.4231 18.6197 10.0415 17.8246 10.0415C17.3332 10.0415 16.908 10.1918 16.618 10.4094Z" fill="#217DC1"/>
<path fill-rule="evenodd" clip-rule="evenodd" d="M18.716 14.9647C19.0056 14.7558 19.1359 14.5054 19.1359 14.2718C19.1359 14.0376 19.0056 13.7868 18.7155 13.5779C18.4259 13.3685 18.0008 13.2238 17.5099 13.2238C17.3706 13.2238 17.2369 13.1706 17.1383 13.0757C17.0398 12.9809 16.9844 12.8522 16.9844 12.7181C16.9844 12.5839 17.0398 12.4553 17.1383 12.3605C17.2369 12.2656 17.3706 12.2123 17.5099 12.2123C18.2068 12.2123 18.8579 12.4156 19.3466 12.7687C19.8354 13.1217 20.187 13.6477 20.187 14.2713C20.187 14.8949 19.8354 15.4214 19.3461 15.7739C18.8574 16.1269 18.2068 16.3302 17.5099 16.3302C16.431 16.3302 15.4105 15.8331 15.0053 15.0046C14.9458 14.8833 14.9389 14.7442 14.986 14.618C15.0331 14.4917 15.1304 14.3887 15.2565 14.3315C15.3825 14.2743 15.5271 14.2676 15.6582 14.3129C15.7894 14.3583 15.8965 14.4519 15.9559 14.5732C16.1409 14.9515 16.7148 15.3187 17.5099 15.3187C18.0013 15.3187 18.4259 15.1741 18.716 14.9647ZM17.5825 8.09491C17.7218 8.09491 17.8555 8.1482 17.9541 8.24304C18.0526 8.33789 18.108 8.46654 18.108 8.60067V9.10643C18.108 9.24057 18.0526 9.36921 17.9541 9.46406C17.8555 9.55891 17.7218 9.6122 17.5825 9.6122C17.4431 9.6122 17.3094 9.55891 17.2108 9.46406C17.1123 9.36921 17.0569 9.24057 17.0569 9.10643V8.60067C17.0569 8.46654 17.1123 8.33789 17.2108 8.24304C17.3094 8.1482 17.4431 8.09491 17.5825 8.09491Z" fill="#217DC1"/>
<path fill-rule="evenodd" clip-rule="evenodd" d="M17.7238 15.822C17.8631 15.822 17.9968 15.8774 18.0954 15.9759C18.1939 16.0745 18.2493 16.2082 18.2493 16.3475V16.8731C18.2493 17.0125 18.1939 17.1461 18.0954 17.2447C17.9968 17.3432 17.8631 17.3986 17.7238 17.3986C17.5844 17.3986 17.4507 17.3432 17.3522 17.2447C17.2536 17.1461 17.1982 17.0125 17.1982 16.8731V16.3475C17.1982 16.2082 17.2536 16.0745 17.3522 15.9759C17.4507 15.8774 17.5844 15.822 17.7238 15.822Z" fill="#217DC1"/>
</svg>
