<svg width="32" height="32" viewBox="0 0 32 32" fill="none" xmlns="http://www.w3.org/2000/svg">
<path d="M27 16.7136V6C27 5.44772 26.5523 5 26 5H9C6.79086 5 5 6.79086 5 9V26C5 26.5523 5.44771 27 6 27H18.8295" stroke="#00AB1B" stroke-width="1.5" stroke-linecap="round"/>
<path d="M20.1116 16.7233H13.182C12.3009 16.7233 11.4676 17.1237 10.917 17.8115C9.59578 19.4621 10.4437 21.8037 12.285 22.3892C12.5627 22.4775 12.8631 22.5258 13.182 22.5258H13.6153" stroke="#00AB1B" stroke-width="1.5" stroke-linecap="round"/>
<path d="M29.2092 20.2764L29.9592 20.2764L29.2092 20.2764ZM29.2092 23.9515L28.4592 23.9515L29.2092 23.9515ZM19.3495 27.2682L18.8666 27.8421L19.3495 27.2682ZM14.1326 22.8793L13.6498 23.4533L14.1326 22.8793ZM14.6154 21.9228L19.8323 17.534L18.8666 16.3861L13.6498 20.775L14.6154 21.9228ZM19.8323 26.6943L14.6154 22.3054L13.6498 23.4533L18.8666 27.8421L19.8323 26.6943ZM20.2432 25.9515L20.2432 26.503L21.7432 26.503L21.7432 25.9515L20.2432 25.9515ZM28.2092 24.2015L21.9932 24.2015L21.9932 25.7015L28.2092 25.7015L28.2092 24.2015ZM28.4592 20.2764L28.4592 23.9515L29.9592 23.9515L29.9592 20.2764L28.4592 20.2764ZM21.9932 20.0264L28.2092 20.0264L28.2092 18.5264L21.9932 18.5264L21.9932 20.0264ZM20.2432 17.7253L20.2432 18.2764L21.7432 18.2764L21.7432 17.7253L20.2432 17.7253ZM21.9932 18.5264C21.8552 18.5264 21.7432 18.4145 21.7432 18.2764L20.2432 18.2764C20.2432 19.2429 21.0267 20.0264 21.9932 20.0264L21.9932 18.5264ZM29.9592 20.2764C29.9592 19.3099 29.1757 18.5264 28.2092 18.5264L28.2092 20.0264C28.3473 20.0264 28.4592 20.1384 28.4592 20.2764L29.9592 20.2764ZM28.2092 25.7015C29.1757 25.7015 29.9592 24.918 29.9592 23.9515L28.4592 23.9515C28.4592 24.0895 28.3473 24.2015 28.2092 24.2015L28.2092 25.7015ZM21.7432 25.9515C21.7432 25.8134 21.8552 25.7015 21.9932 25.7015L21.9932 24.2015C21.0267 24.2015 20.2432 24.985 20.2432 25.9515L21.7432 25.9515ZM18.8666 27.8421C20.0049 28.7997 21.7432 27.9905 21.7432 26.503L20.2432 26.503C20.2432 26.7155 19.9949 26.8311 19.8323 26.6943L18.8666 27.8421ZM19.8323 17.534C19.9949 17.3972 20.2432 17.5128 20.2432 17.7253L21.7432 17.7253C21.7432 16.2377 20.0049 15.4285 18.8666 16.3861L19.8323 17.534ZM13.6498 20.775C12.8186 21.4743 12.8186 22.754 13.6498 23.4533L14.6154 22.3054C14.4967 22.2055 14.4967 22.0227 14.6154 21.9228L13.6498 20.775Z" fill="#00AB1B"/>
<path d="M29.2091 21.1912C29.2091 21.0569 29.2091 20.0712 29.2091 19.078C29.2091 17.9735 28.3137 17.0781 27.2092 17.0781H26.1357C25.5835 17.0781 25.1357 17.5258 25.1357 18.0781V18.9625" stroke="#00AB1B" stroke-width="1.5" stroke-linecap="round" stroke-linejoin="round"/>
<path d="M14.103 13.8596C13.9115 13.5323 13.8018 13.1515 13.8018 12.745C13.8018 11.5244 14.7913 10.5349 16.0119 10.5349C17.2325 10.5349 18.2221 11.5244 18.2221 12.745C18.2221 13.1515 18.1123 13.5323 17.9209 13.8596" stroke="#00AB1B" stroke-width="1.5" stroke-linecap="round"/>
</svg>
