<svg width="16" height="16" viewBox="0 0 16 16" fill="none" xmlns="http://www.w3.org/2000/svg">
<path fill-rule="evenodd" clip-rule="evenodd" d="M10.0518 2.66074C10.9597 1.75278 12.4319 1.75278 13.3398 2.66075C14.2478 3.56872 14.2478 5.04082 13.3398 5.94879L8.86737 10.4212C8.71116 10.5775 8.4579 10.5775 8.30169 10.4212C8.14548 10.265 8.14548 10.0118 8.30169 9.85556L11.9079 6.24931L9.75126 4.09264L4.87222 8.97167L7.31174 11.4112C7.38313 11.4826 7.4219 11.5743 7.42803 11.6677C7.42929 11.6867 7.42919 11.706 7.42769 11.7252C7.42062 11.8162 7.38258 11.9051 7.31356 11.975C7.31296 11.9757 7.31235 11.9763 7.31174 11.9769C7.31028 11.9783 7.30881 11.9798 7.30734 11.9812C7.26076 12.0264 7.20592 12.058 7.14777 12.076L3.07185 13.4347C2.92811 13.4826 2.76964 13.4452 2.66251 13.3381C2.55538 13.2309 2.51797 13.0725 2.56588 12.9287L3.92452 8.85279C3.94257 8.79465 3.97418 8.7398 4.01936 8.69323C4.02079 8.69176 4.02223 8.69029 4.02369 8.68883L4.02409 8.68843M4.48134 9.71217L3.57781 12.4228L6.2884 11.5192L4.48134 9.71217ZM12.7741 5.38311L12.4736 5.68363L10.3169 3.52695L10.6175 3.22643C11.213 2.63088 12.1786 2.63088 12.7741 3.22643C13.3697 3.82198 13.3697 4.78756 12.7741 5.38311Z" fill="#808080"/>
</svg>
