<svg width="32" height="32" viewBox="0 0 32 32" fill="none" xmlns="http://www.w3.org/2000/svg">
<path fill-rule="evenodd" clip-rule="evenodd" d="M17.6473 3.67341C16.7228 2.74886 15.2238 2.74886 14.2993 3.67341L6.55814 11.4145C5.06673 12.9059 6.12301 15.456 8.23219 15.456L9.06221 15.456C9.54129 15.456 9.92967 15.8444 9.92967 16.3235L9.92967 21.5583C9.92967 22.8658 10.9896 23.9258 12.2971 23.9258L19.6495 23.9258C20.957 23.9258 22.0169 22.8658 22.0169 21.5583V16.3235C22.0169 15.8444 22.4053 15.456 22.8844 15.456L23.7144 15.456C25.8236 15.456 26.8799 12.9059 25.3885 11.4145L17.6473 3.67341ZM15.3599 4.73407C15.6987 4.3953 16.2479 4.3953 16.5867 4.73407L24.3278 12.4752C24.8743 13.0216 24.4872 13.956 23.7144 13.956L22.8844 13.956C21.5769 13.956 20.5169 15.016 20.5169 16.3235V21.5583C20.5169 22.0374 20.1286 22.4258 19.6495 22.4258L12.2971 22.4258C11.818 22.4258 11.4297 22.0374 11.4297 21.5583L11.4297 16.3235C11.4297 15.016 10.3697 13.956 9.06221 13.956L8.23219 13.956C7.45937 13.956 7.07234 13.0216 7.6188 12.4752L15.3599 4.73407ZM6.13074 28.022C6.13074 27.4697 6.57845 27.022 7.13074 27.022H25.1307C25.683 27.022 26.1307 27.4697 26.1307 28.022C26.1307 28.5743 25.683 29.022 25.1307 29.022H7.13074C6.57845 29.022 6.13074 28.5743 6.13074 28.022ZM17.0593 15.8346C17.3747 15.6071 17.5166 15.3345 17.5166 15.0801C17.5166 14.8251 17.3747 14.5519 17.0588 14.3244C16.8364 14.1636 16.5406 14.0379 16.1981 13.9777C16.1622 13.9848 16.1254 13.9884 16.0882 13.9884C15.3293 13.9884 14.6203 13.7583 14.0881 13.3589C13.5558 12.9594 13.1724 12.3643 13.1724 11.6586C13.1724 10.9524 13.5558 10.3573 14.0881 9.95782C14.4182 9.71037 14.8167 9.52789 15.2527 9.425V8.90441C15.2527 8.75834 15.313 8.61826 15.4203 8.51497C15.5276 8.41168 15.6732 8.35366 15.8249 8.35366C15.9767 8.35366 16.1223 8.41168 16.2296 8.51497C16.3369 8.61826 16.3972 8.75834 16.3972 8.90441V9.34189C17.4539 9.43106 18.4128 9.97408 18.8157 10.8283C18.8477 10.8963 18.8661 10.9699 18.8696 11.045C18.8732 11.1201 18.862 11.1952 18.8366 11.266C18.8111 11.3367 18.772 11.4018 18.7214 11.4574C18.6709 11.5131 18.6098 11.5582 18.5418 11.5902C18.4738 11.6223 18.4002 11.6406 18.3251 11.6442C18.2499 11.6478 18.1749 11.6366 18.1041 11.6111C18.0334 11.5857 17.9683 11.5466 17.9127 11.496C17.857 11.4455 17.8119 11.3844 17.7798 11.3164C17.5795 10.8889 16.9546 10.4734 16.0888 10.4734C15.5537 10.4734 15.0907 10.6371 14.7748 10.874C14.4595 11.1104 14.317 11.3937 14.317 11.6581C14.317 11.923 14.4595 12.2063 14.7748 12.4432C15.0907 12.6802 15.5531 12.8438 16.0882 12.8438C16.15 12.8438 16.2107 12.8538 16.2683 12.8729C16.8266 12.9498 17.3383 13.1486 17.7461 13.4432C18.2783 13.8276 18.6612 14.4004 18.6612 15.0795C18.6612 15.7586 18.2783 16.3319 17.7455 16.7158C17.4055 16.9614 16.9935 17.1405 16.5424 17.2378C16.5486 17.2714 16.5517 17.3058 16.5517 17.3405V17.9128C16.5517 18.0646 16.4914 18.2102 16.3841 18.3175C16.2768 18.4248 16.1312 18.4851 15.9794 18.4851C15.8277 18.4851 15.6821 18.4248 15.5748 18.3175C15.4674 18.2102 15.4072 18.0646 15.4072 17.9128V17.3405C15.4072 17.3292 15.4075 17.3179 15.4082 17.3067C14.3628 17.2138 13.4171 16.6932 13.0185 15.8781C12.9537 15.746 12.9462 15.5945 12.9975 15.457C13.0488 15.3196 13.1547 15.2073 13.292 15.145C13.4293 15.0827 13.5867 15.0755 13.7295 15.1249C13.8724 15.1742 13.989 15.2762 14.0537 15.4083C14.2552 15.8203 14.8801 16.2201 15.746 16.2201C16.281 16.2201 16.7434 16.0626 17.0593 15.8346Z" fill="#F69234"/>
</svg>
