<svg width="16" height="16" viewBox="0 0 16 16" fill="none" xmlns="http://www.w3.org/2000/svg">
<path d="M6.8901 1.84998C4.1001 1.84998 1.8501 4.09998 1.8501 6.88998C1.8501 9.67998 4.1001 11.93 6.8901 11.93C8.1201 11.93 9.2301 11.51 10.1001 10.76L13.4601 14.12L14.1501 13.43L10.7901 10.1C11.5101 9.22998 11.9601 8.11998 11.9601 6.88998C11.9301 4.09998 9.6801 1.84998 6.8901 1.84998ZM6.8901 10.97C4.6401 10.97 2.8101 9.13998 2.8101 6.88998C2.8101 4.63998 4.6401 2.80998 6.8901 2.80998C9.1401 2.80998 10.9701 4.63998 10.9701 6.88998C10.9701 9.13998 9.1401 10.97 6.8901 10.97ZM6.1401 6.88998C6.1401 6.46997 6.4701 6.13998 6.8901 6.13998C7.3101 6.13998 7.6401 6.46997 7.6401 6.88998C7.6401 7.30998 7.3101 7.63998 6.8901 7.63998C6.4701 7.63998 6.1401 7.30998 6.1401 6.88998ZM8.5401 6.88998C8.5401 6.46997 8.8701 6.13998 9.2901 6.13998C9.7101 6.13998 10.0401 6.46997 10.0401 6.88998C10.0401 7.30998 9.7101 7.63998 9.2901 7.63998C8.8701 7.63998 8.5401 7.30998 8.5401 6.88998ZM3.7401 6.88998C3.7401 6.46997 4.0701 6.13998 4.4901 6.13998C4.9101 6.13998 5.2401 6.46997 5.2401 6.88998C5.2401 7.30998 4.9101 7.63998 4.4901 7.63998C4.0701 7.63998 3.7401 7.30998 3.7401 6.88998Z" fill="#808080"/>
</svg>
