<svg width="32" height="33" viewBox="0 0 32 33" fill="none" xmlns="http://www.w3.org/2000/svg">
<path d="M25 15.8411V6C25 5.44772 24.5523 5 24 5H21.5H11C8.79086 5 7 6.79086 7 9V26C7 26.5523 7.44772 27 8 27H13.4627H23C24.1046 27 25 26.1046 25 25V22.6331" stroke="#F69234" stroke-width="1.5" stroke-linecap="round" stroke-linejoin="round"/>
<path d="M14.3027 24.001H17.3281" stroke="#F69234" stroke-width="1.5" stroke-linecap="round" stroke-linejoin="round"/>
<circle cx="15.8154" cy="7.94824" r="0.5" fill="#F69234"/>
<path d="M19.3428 11.8341L19.3428 11.0841L19.3428 11.8341ZM21.1031 11.8341L21.1031 12.5841L21.1031 11.8341ZM17.2596 10.4432L17.7424 11.0171L17.2596 10.4432ZM14.7357 13.5467L17.7424 11.0171L16.7768 9.8693L13.77 12.3988L14.7357 13.5467ZM17.7417 16.4582L14.7357 13.9293L13.77 15.0771L16.7761 17.6061L17.7417 16.4582ZM21.1031 14.8905L19.3432 14.8905L19.3432 16.3905L21.1031 16.3905L21.1031 14.8905ZM21.3531 12.8341L21.3531 14.6405L22.8531 14.6405L22.8531 12.8341L21.3531 12.8341ZM19.3428 12.5841L21.1031 12.5841L21.1031 11.0841L19.3428 11.0841L19.3428 12.5841ZM19.3428 11.0841C19.3218 11.0841 19.3048 11.0671 19.3048 11.0462L17.8048 11.0462C17.8048 11.8956 18.4934 12.5841 19.3428 12.5841L19.3428 11.0841ZM22.8531 12.8341C22.8531 11.8676 22.0696 11.0841 21.1031 11.0841L21.1031 12.5841C21.2411 12.5841 21.3531 12.6961 21.3531 12.8341L22.8531 12.8341ZM21.1031 16.3905C22.0696 16.3905 22.8531 15.607 22.8531 14.6405L21.3531 14.6405C21.3531 14.7785 21.2411 14.8905 21.1031 14.8905L21.1031 16.3905ZM19.3048 16.4288C19.3048 16.4076 19.322 16.3905 19.3432 16.3905L19.3432 14.8905C18.4936 14.8905 17.8048 15.5792 17.8048 16.4288L19.3048 16.4288ZM16.7761 17.6061C17.7767 18.4479 19.3048 17.7365 19.3048 16.4288L17.8048 16.4288C17.8048 16.439 17.8034 16.444 17.803 16.4454C17.8025 16.4471 17.8019 16.4482 17.8012 16.4494C17.7992 16.4522 17.7936 16.4586 17.7826 16.4637C17.7717 16.4687 17.7632 16.469 17.7598 16.4686C17.7584 16.4685 17.7572 16.4682 17.7556 16.4675C17.7542 16.4669 17.7495 16.4647 17.7417 16.4582L16.7761 17.6061ZM17.7424 11.0171C17.7501 11.0106 17.7548 11.0085 17.7562 11.0079C17.7578 11.0073 17.7589 11.007 17.7603 11.0068C17.7636 11.0065 17.7721 11.0067 17.7829 11.0118C17.7937 11.0168 17.7993 11.0231 17.8012 11.0259C17.802 11.027 17.8025 11.0281 17.803 11.0297C17.8035 11.0311 17.8048 11.0361 17.8048 11.0462L19.3048 11.0462C19.3048 9.73887 17.7772 9.0277 16.7768 9.8693L17.7424 11.0171ZM13.77 12.3988C12.9388 13.0981 12.9388 14.3778 13.77 15.0771L14.7357 13.9293C14.6169 13.8294 14.6169 13.6466 14.7357 13.5467L13.77 12.3988Z" fill="#F69234"/>
<path d="M19.9509 18.4513L19.2009 18.4513L19.9509 18.4513ZM24.7951 22.6493L25.2779 23.2232L24.7951 22.6493ZM27.3183 19.1639L24.3115 16.6343L25.2772 15.4865L28.2839 18.016L27.3183 19.1639ZM24.3122 22.0754L27.3183 19.5465L28.2839 20.6943L25.2779 23.2232L24.3122 22.0754ZM20.9509 20.5076L22.7107 20.5076L22.7107 22.0076L20.9509 22.0076L20.9509 20.5076ZM20.7009 18.4513L20.7009 20.2576L19.2009 20.2576L19.2009 18.4513L20.7009 18.4513ZM22.7112 18.2013L20.9509 18.2013L20.9509 16.7013L22.7112 16.7013L22.7112 18.2013ZM22.7112 16.7013C22.7321 16.7013 22.7491 16.6843 22.7491 16.6634L24.2491 16.6634C24.2491 17.5128 23.5606 18.2013 22.7112 18.2013L22.7112 16.7013ZM19.2009 18.4513C19.2009 17.4848 19.9844 16.7013 20.9509 16.7013L20.9509 18.2013C20.8128 18.2013 20.7009 18.3133 20.7009 18.4513L19.2009 18.4513ZM20.9509 22.0076C19.9844 22.0076 19.2009 21.2241 19.2009 20.2576L20.7009 20.2576C20.7009 20.3957 20.8128 20.5076 20.9509 20.5076L20.9509 22.0076ZM22.7491 22.046C22.7491 22.0248 22.7319 22.0076 22.7107 22.0076L22.7107 20.5076C23.5604 20.5076 24.2491 21.1964 24.2491 22.046L22.7491 22.046ZM25.2779 23.2232C24.2772 24.0651 22.7491 23.3537 22.7491 22.046L24.2491 22.046C24.2491 22.0562 24.2505 22.0612 24.251 22.0626C24.2515 22.0643 24.252 22.0654 24.2528 22.0666C24.2547 22.0694 24.2604 22.0758 24.2713 22.0808C24.2822 22.0859 24.2907 22.0862 24.2942 22.0858C24.2955 22.0857 24.2967 22.0854 24.2983 22.0847C24.2998 22.0841 24.3045 22.0819 24.3122 22.0754L25.2779 23.2232ZM24.3115 16.6343C24.3038 16.6278 24.2991 16.6257 24.2978 16.6251C24.2962 16.6244 24.295 16.6242 24.2937 16.624C24.2903 16.6236 24.2819 16.6239 24.2711 16.629C24.2602 16.634 24.2546 16.6403 24.2527 16.6431C24.252 16.6442 24.2514 16.6453 24.2509 16.6469C24.2505 16.6483 24.2491 16.6533 24.2491 16.6634L22.7491 16.6634C22.7491 15.3561 24.2768 14.6449 25.2772 15.4865L24.3115 16.6343ZM28.2839 18.016C29.1152 18.7153 29.1151 19.995 28.2839 20.6943L27.3183 19.5465C27.437 19.4466 27.437 19.2637 27.3183 19.1639L28.2839 18.016Z" fill="#F69234"/>
</svg>
