<svg width="24" height="24" viewBox="0 0 24 24" fill="none" xmlns="http://www.w3.org/2000/svg">
<path fill-rule="evenodd" clip-rule="evenodd" d="M0.969971 12.0311C0.969971 14.8934 3.31769 17.2089 6.17997 17.2089C8.43121 17.2089 10.393 15.7939 11.1005 13.7034H21.4562C21.8743 13.7034 22.2602 13.5426 22.5497 13.2532C22.8391 12.9637 22.9999 12.5778 22.9999 12.1597C22.9999 11.2914 22.2924 10.616 21.4562 10.616H20.3628V9.55472C20.3628 9.3296 20.2663 9.10447 20.1055 8.94367C19.9447 8.78287 19.7196 8.68639 19.4944 8.68639C19.012 8.68639 18.6261 9.07231 18.6261 9.55472V10.616H17.9186V9.10447C17.9186 8.87935 17.8221 8.65423 17.6613 8.49342C17.5005 8.33262 17.2754 8.23614 17.0502 8.23614C16.5678 8.23614 16.1819 8.62206 16.1819 9.10447V10.6482H11.197C10.5538 8.39694 8.52769 6.82108 6.17997 6.82108C3.28553 6.82108 0.969971 9.16879 0.969971 12.0311ZM3.73578 12.0954C3.73578 10.7125 4.82924 9.58688 6.21214 9.58688C7.56288 9.58688 8.6885 10.7125 8.72066 12.0954C8.72066 13.4461 7.59504 14.5718 6.21214 14.5718C4.8614 14.5718 3.73578 13.4783 3.73578 12.0954Z" fill="#B9964B"/>
</svg>
