<svg width="80" height="80" viewBox="0 0 80 80" fill="none" xmlns="http://www.w3.org/2000/svg">
<path d="M70 37.2V25.7H65.4L54.7 16.9C52 14.7 48.3 14.2 45.1 15.5L43 16.5C41.2 17.3 39.2 17.1 37.6 16L36 15C32.3 12.7 27.6 13.1 24.5 16.1L14.6 25.7H10V37.2H14.3L16.9 51.4H11.7V54.9H17.5L18.2 58.9H22.5C22.3 59.5 22.1 60.2 22.1 60.9C22.1 64 24.6 66.5 27.7 66.5C30.8 66.5 33.2 64 33.2 60.9C33.2 60.2 33.1 59.5 32.8 58.9H46.9C46.6 59.5 46.5 60.2 46.5 60.9C46.5 64 49 66.5 52.1 66.5C55.2 66.5 57.7 64 57.7 60.9C57.7 60.2 57.6 59.5 57.3 58.9H61.6L62.3 54.9H68.1V51.4H62.9L65.5 37.2H70ZM26.9 18.6C28.9 16.7 31.8 16.4 34.1 17.9L35.7 18.9C38.3 20.6 41.6 20.8 44.4 19.6L46.5 18.7C48.5 17.8 50.8 18.2 52.5 19.5L59.9 25.5H19.5L26.9 18.6ZM27.8 63C26.7 63 25.8 62.1 25.8 61C25.8 59.9 26.7 59 27.8 59C28.9 59 29.8 59.9 29.8 61C29.8 62.1 28.9 63 27.8 63ZM52.2 63C51.1 63 50.2 62.1 50.2 61C50.2 59.9 51.1 59 52.2 59C53.3 59 54.2 59.9 54.2 61C54.2 62.1 53.4 63 52.2 63ZM58.7 55.4H21.3L17.9 37.2H62.1L58.7 55.4ZM13.5 33.7V29.2H66.5V33.7H13.5Z" fill="#808080"/>
</svg>
