<svg width="24" height="24" viewBox="0 0 24 24" fill="none" xmlns="http://www.w3.org/2000/svg">
<path d="M5 12C5 9.79086 6.79086 8 9 8H19V16C19 18.2091 17.2091 20 15 20H5V12Z" stroke="#217DC1" stroke-linecap="round" stroke-linejoin="round"/>
<path d="M8 7C8 4.79086 9.79086 3 12 3V3C14.2091 3 16 4.79086 16 7V8H8V7Z" stroke="#217DC1" stroke-linecap="round" stroke-linejoin="round"/>
<path fill-rule="evenodd" clip-rule="evenodd" d="M11.2269 12.2064C11.0133 12.3665 10.9169 12.5583 10.9169 12.7373C10.9169 12.9167 11.0133 13.1085 11.2269 13.2689C11.4408 13.4294 11.7539 13.5402 12.1162 13.5402C12.2189 13.5402 12.3175 13.581 12.3902 13.6537C12.4629 13.7264 12.5037 13.8249 12.5037 13.9277C12.5037 14.0305 12.4629 14.129 12.3902 14.2017C12.3175 14.2744 12.2189 14.3152 12.1162 14.3152C11.6023 14.3152 11.1222 14.1594 10.7619 13.889C10.4015 13.6185 10.1418 13.2155 10.1418 12.7377C10.1418 12.2595 10.4015 11.8565 10.7619 11.586C11.1222 11.3159 11.6027 11.1602 12.1162 11.1602C12.9117 11.1602 13.6639 11.5411 13.963 12.1754C13.9847 12.2215 13.9971 12.2713 13.9996 12.3222C14.002 12.3731 13.9944 12.4239 13.9772 12.4718C13.9599 12.5197 13.9335 12.5638 13.8992 12.6014C13.865 12.6391 13.8236 12.6697 13.7776 12.6914C13.7315 12.7131 13.6817 12.7255 13.6308 12.7279C13.58 12.7304 13.5291 12.7227 13.4812 12.7055C13.4333 12.6883 13.3892 12.6618 13.3516 12.6276C13.3139 12.5933 13.2833 12.552 13.2616 12.506C13.126 12.2165 12.7029 11.9352 12.1166 11.9352C11.7542 11.9352 11.4408 12.046 11.2269 12.2064Z" fill="#217DC1"/>
<path fill-rule="evenodd" clip-rule="evenodd" d="M12.7732 15.5655C12.9867 15.4115 13.0828 15.2269 13.0828 15.0546C13.0828 14.8819 12.9867 14.697 12.7728 14.5429C12.5593 14.3885 12.2458 14.2819 11.8838 14.2819C11.7811 14.2819 11.6825 14.2426 11.6098 14.1727C11.5372 14.1027 11.4963 14.0079 11.4963 13.909C11.4963 13.81 11.5372 13.7152 11.6098 13.6452C11.6825 13.5753 11.7811 13.536 11.8838 13.536C12.3977 13.536 12.8778 13.6859 13.2382 13.9462C13.5986 14.2065 13.8578 14.5944 13.8578 15.0542C13.8578 15.514 13.5985 15.9023 13.2378 16.1622C12.8774 16.4225 12.3977 16.5724 11.8838 16.5724C11.0883 16.5724 10.3358 16.2058 10.037 15.595C9.99318 15.5055 9.98807 15.4029 10.0228 15.3099C10.0575 15.2168 10.1293 15.1408 10.2222 15.0986C10.3152 15.0564 10.4218 15.0515 10.5185 15.0849C10.6152 15.1184 10.6942 15.1874 10.738 15.2769C10.8744 15.5558 11.2976 15.8266 11.8838 15.8266C12.2462 15.8266 12.5593 15.7199 12.7732 15.5655ZM11.9373 10.5C12.0401 10.5 12.1387 10.5393 12.2113 10.6092C12.284 10.6792 12.3248 10.774 12.3248 10.8729V11.2459C12.3248 11.3448 12.284 11.4396 12.2113 11.5096C12.1387 11.5795 12.0401 11.6188 11.9373 11.6188C11.8346 11.6188 11.736 11.5795 11.6633 11.5096C11.5906 11.4396 11.5498 11.3448 11.5498 11.2459V10.8729C11.5498 10.774 11.5906 10.6792 11.6633 10.6092C11.736 10.5393 11.8346 10.5 11.9373 10.5Z" fill="#217DC1"/>
<path fill-rule="evenodd" clip-rule="evenodd" d="M12.0416 16.1978C12.1443 16.1978 12.2429 16.2386 12.3156 16.3113C12.3882 16.3839 12.4291 16.4825 12.4291 16.5853V16.9728C12.4291 17.0755 12.3882 17.1741 12.3156 17.2468C12.2429 17.3194 12.1443 17.3603 12.0416 17.3603C11.9388 17.3603 11.8402 17.3194 11.7675 17.2468C11.6949 17.1741 11.6541 17.0755 11.6541 16.9728V16.5853C11.6541 16.4825 11.6949 16.3839 11.7675 16.3113C11.8402 16.2386 11.9388 16.1978 12.0416 16.1978Z" fill="#217DC1"/>
</svg>
