<svg width="160" height="161" viewBox="0 0 160 161" fill="none" xmlns="http://www.w3.org/2000/svg">
<rect x="64" y="32.5" width="75" height="32" rx="7" stroke="#E3D5B7" stroke-width="2" stroke-dasharray="4 4"/>
<path fill-rule="evenodd" clip-rule="evenodd" d="M57 41C38.9156 41 24.2554 55.4905 24.2554 73.3654V85.9085C24.2554 90.476 22.623 94.8967 19.6465 98.3904C8.90938 110.993 17.9734 130.25 34.6424 130.25H79.3576C96.0266 130.25 105.091 110.993 94.3535 98.3904C91.377 94.8967 89.7446 90.476 89.7446 85.9085V73.3654C89.7446 72.3998 89.7019 71.4441 89.6181 70.5001H65C60.5817 70.5001 57 66.9183 57 62.5001V41Z" fill="#FFFBF3"/>
<path d="M57.1562 145.312C63.3177 145.312 68.3125 140.024 68.3125 133.5H46C46 140.024 50.9948 145.312 57.1562 145.312Z" fill="#FFFBF3"/>
<rect x="70" y="37.5" width="13" height="13" rx="4" fill="#FFF4DE"/>
<rect x="86" y="39.5" width="42" height="8" rx="4" fill="#FFF4DE"/>
<rect x="86" y="49.5" width="17" height="8" rx="4" fill="#FFF4DE"/>
<line y1="-1.5" x2="8.48528" y2="-1.5" transform="matrix(-0.91562 0.402045 0.402045 0.91562 153.747 27.484)" stroke="#E3D5B7" stroke-width="3"/>
<line x1="124.373" y1="14.8969" x2="127.785" y2="22.6662" stroke="#E3D5B7" stroke-width="3"/>
<line y1="-1.5" x2="8.48528" y2="-1.5" transform="matrix(0.363152 -0.93173 -0.93173 -0.363152 135.71 24.1946)" stroke="#E3D5B7" stroke-width="3"/>
</svg>
