<svg width="161" height="161" viewBox="0 0 161 161" fill="none" xmlns="http://www.w3.org/2000/svg">
<rect x="64.5" y="32.5" width="75" height="32" rx="7" stroke="#7C7151" stroke-width="2" stroke-dasharray="4 4"/>
<path fill-rule="evenodd" clip-rule="evenodd" d="M57.5 41C39.4156 41 24.7554 55.4905 24.7554 73.3654V85.9085C24.7554 90.476 23.123 94.8967 20.1465 98.3904C9.40938 110.993 18.4734 130.25 35.1424 130.25H79.8576C96.5266 130.25 105.591 110.993 94.8535 98.3904C91.877 94.8967 90.2446 90.476 90.2446 85.9085V73.3654C90.2446 72.3998 90.2019 71.4441 90.1181 70.5001H65.5C61.0817 70.5001 57.5 66.9183 57.5 62.5001V41Z" fill="#3F3824"/>
<path d="M57.6562 145.312C63.8177 145.312 68.8125 140.024 68.8125 133.5H46.5C46.5 140.024 51.4948 145.312 57.6562 145.312Z" fill="#3F3824"/>
<rect x="70.5" y="37.5" width="13" height="13" rx="4" fill="#988B68"/>
<rect x="86.5" y="39.5" width="42" height="8" rx="4" fill="#988B68"/>
<rect x="86.5" y="49.5" width="17" height="8" rx="4" fill="#988B68"/>
<line y1="-1.5" x2="8.48528" y2="-1.5" transform="matrix(-0.91562 0.402045 0.402045 0.91562 154.247 27.484)" stroke="#7C7151" stroke-width="3"/>
<line x1="124.873" y1="14.8969" x2="128.285" y2="22.6662" stroke="#7C7151" stroke-width="3"/>
<line y1="-1.5" x2="8.48528" y2="-1.5" transform="matrix(0.363152 -0.93173 -0.93173 -0.363152 136.21 24.1946)" stroke="#7C7151" stroke-width="3"/>
</svg>
