<svg width="25" height="24" viewBox="0 0 25 24" fill="none" xmlns="http://www.w3.org/2000/svg">
<path d="M14.6643 18.2578L18.8487 14.0734M21.6062 15.9856C21.6062 18.6183 19.472 20.7525 16.8393 20.7525C14.2065 20.7525 12.0723 18.6183 12.0723 15.9856C12.0723 13.3528 14.2065 11.2186 16.8393 11.2186C19.472 11.2186 21.6062 13.3528 21.6062 15.9856ZM16.1157 14.5964C16.1157 15.1093 15.6999 15.5251 15.1871 15.5251C14.6742 15.5251 14.2585 15.1093 14.2585 14.5964C14.2585 14.0836 14.6742 13.6678 15.1871 13.6678C15.6999 13.6678 16.1157 14.0836 16.1157 14.5964ZM19.4201 17.8729C19.4201 18.3858 19.0043 18.8015 18.4914 18.8015C17.9786 18.8015 17.5628 18.3858 17.5628 17.8729C17.5628 17.36 17.9786 16.9443 18.4914 16.9443C19.0043 16.9443 19.4201 17.36 19.4201 17.8729Z" stroke="#217DC1" stroke-linecap="round" stroke-linejoin="round"/>
<path d="M19.3368 8.26312V7.24743C19.3368 5.03829 17.546 3.24744 15.3368 3.24744H7.39453C5.18539 3.24744 3.39453 5.0383 3.39453 7.24744V15.1898C3.39453 17.3989 5.18539 19.1897 7.39453 19.1897H9.83788" stroke="#217DC1" stroke-linecap="round"/>
<path fill-rule="evenodd" clip-rule="evenodd" d="M11.0062 14.2257C10.1663 14.1758 9.56448 13.7725 9.36168 13.3577C9.29206 13.2156 9.16664 13.106 9.013 13.0529C8.85936 12.9998 8.6901 13.0076 8.54245 13.0746C8.3948 13.1416 8.28085 13.2623 8.22568 13.4101C8.1705 13.558 8.17862 13.7209 8.24824 13.863C8.67165 14.7287 9.66884 15.2855 10.7764 15.3955C10.8151 14.9928 10.893 14.6016 11.0062 14.2257ZM13.1617 11.1293C12.7546 10.8755 12.2682 10.7031 11.7434 10.6308C11.6815 10.6103 11.6161 10.5996 11.5497 10.5996C10.9742 10.5996 10.4769 10.4235 10.1371 10.1687C9.79798 9.91389 9.64472 9.60922 9.64472 9.32424C9.64472 9.03988 9.79798 8.7352 10.1371 8.481C10.4769 8.22618 10.9748 8.05015 11.5503 8.05015C12.4816 8.05015 13.1537 8.49701 13.3691 8.95678C13.4036 9.02993 13.4521 9.09558 13.512 9.14997C13.5718 9.20436 13.6418 9.24643 13.7179 9.27378C13.794 9.30112 13.8747 9.31322 13.9555 9.30936C14.0363 9.3055 14.1155 9.28578 14.1887 9.2513C14.2618 9.21683 14.3275 9.16828 14.3818 9.10844C14.4362 9.0486 14.4783 8.97863 14.5057 8.90253C14.533 8.82643 14.5451 8.74568 14.5412 8.66491C14.5374 8.58414 14.5177 8.50491 14.4832 8.43176C14.0499 7.5131 13.0186 6.92906 11.8822 6.83314V6.36262C11.8822 6.20552 11.8173 6.05485 11.7019 5.94376C11.5865 5.83267 11.4299 5.77026 11.2667 5.77026C11.1034 5.77026 10.9469 5.83267 10.8314 5.94376C10.716 6.05485 10.6512 6.20552 10.6512 6.36262V6.92251C10.1822 7.03316 9.75365 7.22943 9.39852 7.49558C8.82611 7.9252 8.41372 8.56533 8.41372 9.32485C8.41372 10.0838 8.82611 10.7239 9.39852 11.1535C9.97094 11.5831 10.7335 11.8306 11.5497 11.8306C11.5897 11.8306 11.6293 11.8267 11.668 11.8191C11.8767 11.8558 12.0693 11.9151 12.2406 11.991C12.5169 11.6731 12.8257 11.3842 13.1617 11.1293Z" fill="#217DC1"/>
</svg>
