<svg width="80" height="80" viewBox="0 0 80 80" fill="none" xmlns="http://www.w3.org/2000/svg">
<path d="M21.1001 67.1001H34.0001C35.0001 67.1001 35.8001 66.3001 35.8001 65.3001C35.8001 64.3001 35.0001 63.5001 34.0001 63.5001H21.1001C19.1001 63.5001 17.4001 61.8001 17.4001 59.8001V26.6001H21.1001V28.4001C21.1001 29.4001 21.9001 30.2001 22.9001 30.2001C23.9001 30.2001 24.7001 29.4001 24.7001 28.4001V26.6001H39.5001V28.4001C39.5001 29.4001 40.3001 30.2001 41.3001 30.2001C42.3001 30.2001 43.1001 29.4001 43.1001 28.4001V26.6001H46.8001V28.4001C46.8001 29.4001 47.6001 30.2001 48.6001 30.2001C49.6001 30.2001 50.4001 29.4001 50.4001 28.4001V24.7001C50.4001 23.7001 49.6001 22.9001 48.6001 22.9001H43.1001V19.2001C43.1001 13.1001 38.1001 8.1001 32.0001 8.1001C25.9001 8.1001 20.9001 13.1001 20.9001 19.2001V22.9001H15.4001C14.4001 22.9001 13.6001 23.7001 13.6001 24.7001V59.7001C13.7001 63.8001 17.0001 67.1001 21.1001 67.1001ZM24.8001 19.2001C24.8001 15.1001 28.1001 11.8001 32.2001 11.8001C36.3001 11.8001 39.6001 15.1001 39.6001 19.2001V22.9001H24.8001V19.2001Z" fill="#02509F"/>
<path d="M70.9001 37.6001H65.2001C64.3001 33.4001 60.6001 30.2001 56.2001 30.2001C51.8001 30.2001 48.0001 33.4001 47.2001 37.6001H41.5001C40.5001 37.6001 39.7001 38.4001 39.7001 39.4001V59.7001C39.7001 63.8001 43.0001 67.1001 47.1001 67.1001H65.5001C69.6001 67.1001 72.9001 63.8001 72.9001 59.7001V39.5001C72.7001 38.4001 71.9001 37.6001 70.9001 37.6001ZM56.1001 33.9001C58.5001 33.9001 60.5001 35.4001 61.3001 37.6001H50.9001C51.7001 35.5001 53.7001 33.9001 56.1001 33.9001ZM69.0001 59.7001C69.0001 61.7001 67.3001 63.4001 65.3001 63.4001H46.9001C44.9001 63.4001 43.2001 61.7001 43.2001 59.7001V41.3001H46.9001V43.1001C46.9001 44.1001 47.7001 44.9001 48.7001 44.9001C49.7001 44.9001 50.5001 44.1001 50.5001 43.1001V41.3001H61.6001V43.1001C61.6001 44.1001 62.4001 44.9001 63.4001 44.9001C64.4001 44.9001 65.2001 44.1001 65.2001 43.1001V41.3001H69.0001V59.7001Z" fill="#02509F"/>
</svg>
