<svg width="80" height="80" viewBox="0 0 80 80" fill="none" xmlns="http://www.w3.org/2000/svg">
<path d="M40 29.6C42.9 29.6 45.2001 27.3 45.2001 24.4C45.2001 21.5 42.9 19.2 40 19.2C37.1 19.2 34.8 21.5 34.8 24.4C34.8 27.3 37.1 29.6 40 29.6ZM40 21.9C41.4 21.9 42.6 23.1 42.6 24.5C42.6 25.9 41.4 27.1 40 27.1C38.6 27.1 37.4001 25.9 37.4001 24.5C37.4001 23 38.6 21.9 40 21.9Z" fill="#808080"/>
<path d="M67.2 34.8C67.9 34.8 68.5 34.2 68.5 33.5V28.3C68.5 27.8 68.3 27.4 67.9 27.2L42.6 12.2C41 11.3 39.2 11.3 37.6 12.2L12.1 27.2C11.7 27.4 11.5 27.9 11.5 28.3V33.5C11.5 34.2 12.1 34.8 12.8 34.8H16.7V58.1C13.8 58.1 11.5 60.4 11.5 63.3V67.2C11.5 67.9 12.1 68.5 12.8 68.5H67.2C67.9 68.5 68.5 67.9 68.5 67.2V63.3C68.5 60.4 66.2 58.1 63.3 58.1V34.8H67.2ZM14.1 29.1L38.8 14.4C39.6 14 40.5 14 41.3 14.4L66 29.1V32.2H14.1V29.1ZM45.2 58.1V34.8H53V58.1H45.2ZM27 58.1V34.8H34.8V58.1H27ZM37.4 34.8H42.6V58.1H37.4V34.8ZM19.3 34.8H24.5V58.1H19.3V34.8ZM65.9 63.3V65.9H14.1V63.3C14.1 61.9 15.3 60.7 16.7 60.7H63.3C64.7 60.7 65.9 61.9 65.9 63.3ZM60.7 58.1H55.5V34.8H60.7V58.1Z" fill="#808080"/>
</svg>
