<svg width="33" height="32" viewBox="0 0 33 32" fill="none" xmlns="http://www.w3.org/2000/svg">
<path d="M27.6251 10.0055C27.6251 7.79632 25.8342 6.00546 23.6251 6.00546H16.6251H9.62508C7.41594 6.00546 5.62508 7.79632 5.62508 10.0055V19.9945C5.62508 22.2037 7.41594 23.9945 9.62508 23.9945H15.1091H22.4917C23.0822 23.9945 23.6653 24.1253 24.1992 24.3773L26.1982 25.321C26.8615 25.6341 27.6251 25.1502 27.6251 24.4166V10.0055Z" stroke="#8B3BFF" stroke-width="1.5" stroke-linecap="round" stroke-linejoin="round"/>
<path d="M16.3685 17.3237C16.7407 17.3237 16.9134 17.0674 16.9134 16.7258V16.5442C16.9242 15.8395 17.1832 15.5459 18.0465 14.9589C18.9691 14.3393 19.5571 13.6241 19.5571 12.5936C19.5571 10.992 18.2407 10.0738 16.6058 10.0738C15.3864 10.0738 14.3128 10.6451 13.8542 11.6754C13.7409 11.9264 13.6923 12.1719 13.6923 12.3747C13.6923 12.679 13.8703 12.8926 14.1995 12.8926C14.4746 12.8926 14.6581 12.7325 14.7391 12.4708C15.0195 11.4565 15.694 11.0722 16.5681 11.0722C17.6201 11.0722 18.4403 11.6594 18.4403 12.5883C18.4403 13.3516 17.9601 13.7787 17.2695 14.2593C16.4224 14.8413 15.8019 15.4659 15.8019 16.4055V16.7417C15.8019 17.0834 15.9909 17.3237 16.3685 17.3237ZM16.3683 20.2439C16.7944 20.2439 17.1344 19.9022 17.1344 19.4858C17.1349 19.3861 17.1155 19.2873 17.0772 19.1951C17.0389 19.1029 16.9825 19.0191 16.9112 18.9486C16.84 18.8781 16.7553 18.8223 16.6621 18.7844C16.5689 18.7465 16.469 18.7272 16.3683 18.7278C15.9474 18.7278 15.5966 19.0642 15.5966 19.4858C15.5966 19.9022 15.9474 20.2439 16.3683 20.2439Z" fill="#8B3BFF" stroke="#8B3BFF" stroke-width="0.5"/>
</svg>
