<svg width="32" height="33" viewBox="0 0 32 33" fill="none" xmlns="http://www.w3.org/2000/svg">
<path d="M27 10.9274C27 8.71823 25.2091 6.92737 23 6.92737H16H9C6.79086 6.92737 5 8.71823 5 10.9274V20.9164C5 23.1256 6.79086 24.9164 9 24.9164H14.484H21.8666C22.4571 24.9164 23.0402 25.0472 23.5742 25.2992L25.5731 26.2429C26.2365 26.556 27 26.0721 27 25.3386V10.9274Z" stroke="#6200EE" stroke-width="1.5" stroke-linecap="round" stroke-linejoin="round"/>
<path d="M15.7434 18.2456C16.1156 18.2456 16.2883 17.9894 16.2883 17.6477V17.4661C16.2991 16.7614 16.5581 16.4678 17.4214 15.8808C18.344 15.2612 18.932 14.546 18.932 13.5155C18.932 11.9139 17.6157 10.9957 15.9807 10.9957C14.7613 10.9957 13.6877 11.567 13.2291 12.5973C13.1158 12.8483 13.0673 13.0938 13.0673 13.2966C13.0673 13.6009 13.2452 13.8145 13.5744 13.8145C13.8495 13.8145 14.033 13.6544 14.114 13.3927C14.3944 12.3784 15.0689 11.9941 15.943 11.9941C16.995 11.9941 17.8152 12.5813 17.8152 13.5102C17.8152 14.2735 17.335 14.7006 16.6444 15.1812C15.7973 15.7632 15.1769 16.3878 15.1769 17.3274V17.6636C15.1769 18.0053 15.3659 18.2456 15.7434 18.2456ZM15.7432 21.1658C16.1693 21.1658 16.5093 20.8241 16.5093 20.4077C16.5098 20.308 16.4904 20.2092 16.4521 20.117C16.4138 20.0248 16.3574 19.941 16.2861 19.8705C16.2149 19.8 16.1302 19.7442 16.037 19.7063C15.9438 19.6684 15.8439 19.6491 15.7432 19.6497C15.3224 19.6497 14.9715 19.9861 14.9715 20.4077C14.9715 20.8241 15.3224 21.1658 15.7432 21.1658Z" fill="#6200EE" stroke="#6200EE" stroke-width="0.5"/>
</svg>
