<svg width="80" height="80" viewBox="0 0 80 80" fill="none" xmlns="http://www.w3.org/2000/svg">
<path d="M51.8 54.3999C49.6 50.6999 45.8 48.2999 41.6 47.7999V43.2999C41.7 38.6999 42.6 34.7999 44.5 31.5999C52.5 31.5999 57.7 29.2999 62.9 23.3999C64.7 21.3999 65.5 19.9999 66.1 18.8999C65.9 18.5999 64.8 16.4999 61.3 14.9999C58.9 13.9999 53.8 12.7999 47.3 16.3999C43.5 18.5999 41 21.5999 40.5 24.6999C40.2 26.5999 40.6 28.4999 41.8 30.1999C41 31.3999 40.5 32.5999 40 33.9999C39.5 32.6999 39 31.3999 38.3 30.1999C39.5 28.4999 39.9 26.5999 39.6 24.6999C39.1 21.5999 36.6 18.5999 32.8 16.3999C26.3 12.7999 21.2 13.9999 18.7 14.9999C18.3 15.2999 16 15.7999 14 18.8999C14.7 20.1999 15.4 21.5999 17.1 23.3999C19.8 26.3999 22.4 28.3999 25.4 29.6999C28.3 30.9999 31.6 31.5999 35.6 31.5999C37.4 34.7999 38.4 38.6999 38.5 43.2999V47.7999C34.3 48.2999 30.5 50.6999 28.3 54.3999C21.4 51.9999 14 57.0999 14 64.4999V65.9999H66V64.4999C66 57.0999 58.6 51.9999 51.8 54.3999ZM43.4 25.1999C43.8 23.0999 45.7 20.7999 48.7 19.0999C53.8 16.2999 57.7 16.8999 60 17.8999C61.1 18.2999 61.8 18.8999 62.3 19.2999C61.9 19.8999 61.3 20.6999 60.6 21.4999C56.5 26.0999 52.5 28.1999 46.7 28.5999C48.8 26.2999 51.6 24.2999 54.8 22.9999L53.7 20.1999C49.7 21.7999 46.2 24.3999 43.8 27.3999C43.4 26.5999 43.3 25.8999 43.4 25.1999ZM36.4 27.2999C33.9 24.1999 30.5 21.6999 26.5 20.0999L25.4 22.8999C28.6 24.1999 31.4 26.0999 33.5 28.4999C27.6 28.0999 23.6 25.9999 19.5 21.3999C18.7 20.5999 18.2 19.7999 17.8 19.1999C18.3 18.7999 19 18.2999 20 17.7999C22 16.9999 26 16.0999 31.4 18.9999C34.4 20.6999 36.3 22.9999 36.7 25.0999C36.7 25.8999 36.6 26.5999 36.4 27.2999ZM17.2 62.9999C18.2 58.2999 23.5 55.3999 28.2 57.7999L29.6 58.4999L30.3 56.9999C32 53.1999 35.8 50.6999 40 50.6999C44.1 50.6999 47.9 53.1999 49.7 56.9999L50.4 58.4999L51.8 57.7999C56.5 55.3999 61.8 58.2999 62.8 62.9999H17.2Z" fill="#72573D"/>
</svg>
