<svg width="50" height="50" viewBox="0 0 50 50" fill="none" xmlns="http://www.w3.org/2000/svg">
<path d="M25 46C36.5979 46 46 36.5979 46 25C46 13.402 36.5979 4 25 4C13.402 4 4 13.402 4 25C4 36.5979 13.402 46 25 46Z" fill="#4D4D4D"/>
<path d="M32.6071 22.2141H30.2035L30.9221 19.246C31.4672 16.9648 30.0301 14.6591 27.7256 14.1194L24.4301 13.359C23.315 13.0892 22.1504 13.2854 21.184 13.8741C20.1929 14.4628 19.5239 15.4195 19.2513 16.5233C19.1522 16.9648 19.4248 17.3818 19.846 17.4799C20.292 17.578 20.7132 17.3082 20.8124 16.8912C20.9858 16.2044 21.4071 15.6157 22.0265 15.2232C22.646 14.8553 23.3646 14.7326 24.0584 14.9043L27.354 15.6648C28.7911 16.0082 29.7079 17.4309 29.361 18.8781L28.5681 22.2141H17.4177C16.9717 22.2141 16.6 22.582 16.6 23.0236V30.8484C16.6 34.1108 19.2761 36.76 22.5717 36.76H27.4283C30.7239 36.76 33.4 34.1108 33.4 30.8484V23.0236C33.4 22.582 33.0531 22.2141 32.6071 22.2141Z" fill="#C5C5C4"/>
</svg>
