<svg width="51" height="50" viewBox="0 0 51 50" fill="none" xmlns="http://www.w3.org/2000/svg">
<path d="M25.5 46C37.098 46 46.5 36.5979 46.5 25C46.5 13.402 37.098 4 25.5 4C13.9021 4 4.50006 13.402 4.50006 25C4.50006 36.5979 13.9021 46 25.5 46Z" fill="#EDEEEE"/>
<path d="M33.1071 22.2141H30.7035L31.4221 19.246C31.9672 16.9648 30.5301 14.6591 28.2256 14.1194L24.9301 13.359C23.815 13.0892 22.6504 13.2854 21.684 13.8741C20.6929 14.4628 20.0239 15.4195 19.7513 16.5233C19.6522 16.9648 19.9248 17.3818 20.346 17.4799C20.792 17.578 21.2132 17.3082 21.3124 16.8912C21.4858 16.2044 21.9071 15.6157 22.5265 15.2232C23.146 14.8553 23.8646 14.7326 24.5584 14.9043L27.854 15.6648C29.2911 16.0082 30.2079 17.4309 29.861 18.8781L29.0681 22.2141H17.9177C17.4717 22.2141 17.1 22.582 17.1 23.0236V30.8484C17.1 34.1108 19.7761 36.76 23.0717 36.76H27.9283C31.2239 36.76 33.9 34.1108 33.9 30.8484V23.0236C33.9 22.582 33.5531 22.2141 33.1071 22.2141Z" fill="#4D4D4D"/>
</svg>
