<svg width="26" height="26" viewBox="0 0 26 26" fill="none" xmlns="http://www.w3.org/2000/svg">
<path d="M7.32548 19.175C7.22706 19.1745 7.13096 19.145 7.04922 19.0902C6.96748 19.0353 6.90372 18.9576 6.86591 18.8668C6.8281 18.7759 6.81793 18.6759 6.83666 18.5792C6.8554 18.4826 6.9022 18.3937 6.97123 18.3235L18.3235 6.97125C18.3698 6.92494 18.4248 6.88821 18.4853 6.86315C18.5458 6.83809 18.6106 6.82519 18.6761 6.82519C18.7416 6.82519 18.8064 6.83809 18.8669 6.86315C18.9274 6.88821 18.9824 6.92494 19.0287 6.97125C19.075 7.01756 19.1118 7.07253 19.1368 7.13304C19.1619 7.19354 19.1748 7.25839 19.1748 7.32387C19.1748 7.38936 19.1619 7.45421 19.1368 7.51471C19.1118 7.57522 19.075 7.63019 19.0287 7.6765L7.67648 19.0287C7.63054 19.0751 7.57586 19.1119 7.51562 19.137C7.45537 19.1621 7.39075 19.175 7.32548 19.175Z" fill="#808080" stroke="#808080" stroke-width="0.494" stroke-miterlimit="10"/>
<path d="M18.6778 19.175C18.612 19.1753 18.5468 19.1625 18.486 19.1374C18.4252 19.1123 18.3699 19.0753 18.3235 19.0287L6.97126 7.6765C6.87774 7.58298 6.8252 7.45613 6.8252 7.32387C6.8252 7.19161 6.87774 7.06477 6.97126 6.97125C7.06478 6.87773 7.19162 6.82519 7.32388 6.82519C7.45614 6.82519 7.58299 6.87773 7.67651 6.97125L19.0288 18.3235C19.0976 18.3935 19.1444 18.4821 19.1632 18.5785C19.182 18.6748 19.1721 18.7745 19.1347 18.8653C19.0973 18.956 19.0341 19.0338 18.9528 19.0888C18.8716 19.1439 18.7759 19.1739 18.6778 19.175Z" fill="#808080" stroke="#808080" stroke-width="0.494" stroke-miterlimit="10"/>
</svg>
