<svg width="50" height="50" viewBox="0 0 50 50" fill="none" xmlns="http://www.w3.org/2000/svg">
<path d="M25 46C36.598 46 46 36.598 46 25C46 13.402 36.598 4 25 4C13.402 4 4 13.402 4 25C4 36.598 13.402 46 25 46Z" fill="#4D4D4D"/>
<path d="M35.92 31.7285H14.08V33.4001H35.92V31.7285Z" fill="#C5C5C4"/>
<path d="M16.1856 23.2864C15.9392 23.2864 15.76 23.5115 15.76 23.8042V29.4548C15.76 29.7475 15.9616 29.9726 16.1856 29.9726H18.6944C18.9408 29.9726 19.12 29.7475 19.12 29.4548V23.8042C19.12 23.5115 18.9184 23.2864 18.6944 23.2864H16.1856Z" fill="#C5C5C4"/>
<path d="M30.88 17.1718V29.4008C30.88 29.724 31.0816 29.9725 31.3056 29.9725H33.8144C34.0608 29.9725 34.24 29.724 34.24 29.4008V17.1718C34.24 16.8487 34.0384 16.6001 33.8144 16.6001H31.3056C31.0592 16.625 30.88 16.8735 30.88 17.1718Z" fill="#C5C5C4"/>
<path d="M26.2656 19.9431C26.0192 19.9431 25.84 20.1977 25.84 20.5286V29.387C25.84 29.7179 26.0416 29.9724 26.2656 29.9724H28.7744C29.0208 29.9724 29.2 29.7179 29.2 29.387V20.5286C29.2 20.1977 28.9984 19.9431 28.7744 19.9431H26.2656V19.9431Z" fill="#C5C5C4"/>
<path d="M21.2255 24.9578C20.9791 24.9578 20.7999 25.1932 20.7999 25.4993V29.4309C20.7999 29.737 21.0015 29.9724 21.2255 29.9724H23.7343C23.9807 29.9724 24.1599 29.737 24.1599 29.4309V25.4993C24.1599 25.1932 23.9583 24.9578 23.7343 24.9578H21.2255Z" fill="#C5C5C4"/>
</svg>
