<svg width="50" height="50" viewBox="0 0 50 50" fill="none" xmlns="http://www.w3.org/2000/svg">
<path d="M25 46C36.598 46 46 36.598 46 25C46 13.402 36.598 4 25 4C13.402 4 4 13.402 4 25C4 36.598 13.402 46 25 46Z" fill="#EDEEEE"/>
<path d="M35.92 31.7284H14.08V33.3999H35.92V31.7284Z" fill="#4D4D4D"/>
<path d="M16.1856 23.2861C15.9392 23.2861 15.76 23.5113 15.76 23.8039V29.4546C15.76 29.7472 15.9616 29.9723 16.1856 29.9723H18.6944C18.9408 29.9723 19.12 29.7472 19.12 29.4546V23.8039C19.12 23.5113 18.9184 23.2861 18.6944 23.2861H16.1856Z" fill="#4D4D4D"/>
<path d="M30.88 17.1717V29.4007C30.88 29.7238 31.0816 29.9724 31.3056 29.9724H33.8144C34.0608 29.9724 34.24 29.7238 34.24 29.4007V17.1717C34.24 16.8485 34.0384 16.6 33.8144 16.6H31.3056C31.0592 16.6248 30.88 16.8734 30.88 17.1717Z" fill="#4D4D4D"/>
<path d="M26.2656 19.9431C26.0192 19.9431 25.84 20.1976 25.84 20.5285V29.3869C25.84 29.7178 26.0416 29.9724 26.2656 29.9724H28.7744C29.0208 29.9724 29.2 29.7178 29.2 29.3869V20.5285C29.2 20.1976 28.9984 19.9431 28.7744 19.9431H26.2656Z" fill="#4D4D4D"/>
<path d="M21.2256 24.9578C20.9792 24.9578 20.8 25.1932 20.8 25.4993V29.4309C20.8 29.737 21.0016 29.9724 21.2256 29.9724H23.7344C23.9808 29.9724 24.16 29.737 24.16 29.4309V25.4993C24.16 25.1932 23.9584 24.9578 23.7344 24.9578H21.2256Z" fill="#4D4D4D"/>
</svg>
