<svg width="38" height="38" viewBox="0 0 38 38" fill="none" xmlns="http://www.w3.org/2000/svg">
<path fill-rule="evenodd" clip-rule="evenodd" d="M29.073 10H17.4497H5.83125C5.3705 10 5 10.399 5 10.893V25.1762C5 25.6702 5.3705 26.0693 5.83125 26.0693H17.4545H23.014C23.0896 24.9143 23.4668 23.8418 24.0676 22.9295H10.1727C9.66925 22.9295 9.26075 22.4925 9.26075 21.951C9.26075 21.4095 8.85225 20.9725 8.34875 20.9725C7.84525 20.9725 7.43675 20.5355 7.43675 19.994V16.08C7.43675 15.5385 7.84525 15.1015 8.34875 15.1015C8.8475 15.1015 9.26075 14.6645 9.26075 14.123C9.26075 13.5815 9.66925 13.1445 10.1727 13.1445H17.4497H24.7267C25.2302 13.1445 25.6387 13.5815 25.6387 14.123C25.6387 14.6645 26.0473 15.1015 26.5508 15.1015C27.0543 15.1015 27.4627 15.5385 27.4627 16.08V19.994C27.4627 20.1187 27.4409 20.2373 27.4013 20.3463C28.0597 20.1218 28.7656 20 29.5 20C29.6358 20 29.7706 20.0042 29.9042 20.0124V10.893C29.9042 10.399 29.5338 10 29.073 10ZM5.97375 12.2942C5.97375 11.558 6.57225 10.9595 7.3085 10.9595C8.04475 10.9595 8.64325 11.558 8.64325 12.2942C8.64325 13.0305 8.04475 13.629 7.3085 13.629C6.57225 13.629 5.97375 13.0352 5.97375 12.2942Z" fill="url(#paint0_linear_4414_11968)"/>
<path d="M13.0941 17.5525H11.2559V21.4522H13.0941V17.5525Z" fill="url(#paint1_linear_4414_11968)"/>
<path d="M16.5331 15.4862H14.6948V21.4522H16.5331V15.4862Z" fill="url(#paint2_linear_4414_11968)"/>
<path d="M20.2093 16.403H18.3711V21.4522H20.2093V16.403Z" fill="url(#paint3_linear_4414_11968)"/>
<path d="M23.6532 14.3368H21.8149V21.4523H23.6532V14.3368Z" fill="url(#paint4_linear_4414_11968)"/>
<path d="M36 27C36 23.6932 33.3068 21 30 21C26.6932 21 24 23.6932 24 27C24 30.3068 26.6932 33 30 33C33.3409 33 36 30.3068 36 27ZM29.4545 30.8523C29.4545 30.7159 29.4545 30.5795 29.4545 30.4773C29.4545 30.2045 29.4545 30.1705 29.1818 30.1364C28.8409 30.0682 28.5 30 28.1591 29.8295C27.9205 29.6932 27.8864 29.6591 27.9545 29.3864C28.0227 29.1818 28.0568 28.9773 28.125 28.8068C28.1932 28.5682 28.2614 28.5682 28.4659 28.6705C28.8068 28.8409 29.1818 28.9432 29.5909 29.0114C29.8295 29.0455 30.1023 29.0114 30.3409 28.9091C30.7841 28.7045 30.8523 28.1932 30.4773 27.8864C30.3409 27.7841 30.2045 27.7159 30.0682 27.6477C29.6932 27.4773 29.2841 27.3409 28.9091 27.1364C28.3295 26.7955 27.9545 26.2841 27.9886 25.5682C28.0227 24.75 28.5 24.2386 29.25 23.9659C29.5568 23.8636 29.5568 23.8636 29.5568 23.5227V23.1818C29.5568 22.9432 29.5909 22.9091 29.8295 22.875C29.8977 22.875 29.9659 22.875 30.0682 22.875C30.5795 22.875 30.5795 22.875 30.5795 23.3864C30.5795 23.7614 30.5795 23.7614 30.9545 23.7955C31.2273 23.8295 31.5 23.9318 31.7386 24.0341C31.875 24.1023 31.9432 24.2045 31.875 24.3409C31.8068 24.5795 31.7386 24.7841 31.6705 25.0227C31.6023 25.2273 31.5341 25.2614 31.3295 25.1591C30.9205 24.9545 30.5114 24.8864 30.0682 24.9205C29.9659 24.9205 29.8295 24.9545 29.7273 24.9886C29.3523 25.1591 29.2841 25.5682 29.5909 25.8409C29.7614 25.9773 29.9318 26.0795 30.1364 26.1477C30.4773 26.2841 30.8182 26.4205 31.125 26.5909C32.1477 27.1705 32.4205 28.4318 31.7045 29.3182C31.4318 29.625 31.0909 29.8636 30.7159 29.9659C30.5455 30 30.4773 30.1023 30.4773 30.2727C30.4773 30.4432 30.4773 30.6136 30.4773 30.8182C30.4773 30.9886 30.4091 31.0568 30.2386 31.0568C30.0341 31.0568 29.8636 31.0568 29.6591 31.0568C29.5227 31.125 29.4545 31.0227 29.4545 30.8523Z" fill="url(#paint5_linear_4414_11968)"/>
<defs>
<linearGradient id="paint0_linear_4414_11968" x1="5" y1="18.0364" x2="29.8991" y2="18.0364" gradientUnits="userSpaceOnUse">
<stop stop-color="#70C6FC"/>
<stop offset="0.0627815" stop-color="#6CC2FB"/>
<stop offset="0.6801" stop-color="#439CF2"/>
<stop offset="1" stop-color="#348DEF"/>
</linearGradient>
<linearGradient id="paint1_linear_4414_11968" x1="11.2559" y1="19.5028" x2="13.0937" y2="19.5028" gradientUnits="userSpaceOnUse">
<stop stop-color="#70C6FC"/>
<stop offset="0.0627815" stop-color="#6CC2FB"/>
<stop offset="0.6801" stop-color="#439CF2"/>
<stop offset="1" stop-color="#348DEF"/>
</linearGradient>
<linearGradient id="paint2_linear_4414_11968" x1="14.6948" y1="18.4699" x2="16.5327" y2="18.4699" gradientUnits="userSpaceOnUse">
<stop stop-color="#70C6FC"/>
<stop offset="0.0627815" stop-color="#6CC2FB"/>
<stop offset="0.6801" stop-color="#439CF2"/>
<stop offset="1" stop-color="#348DEF"/>
</linearGradient>
<linearGradient id="paint3_linear_4414_11968" x1="18.3711" y1="18.9281" x2="20.209" y2="18.9281" gradientUnits="userSpaceOnUse">
<stop stop-color="#70C6FC"/>
<stop offset="0.0627815" stop-color="#6CC2FB"/>
<stop offset="0.6801" stop-color="#439CF2"/>
<stop offset="1" stop-color="#348DEF"/>
</linearGradient>
<linearGradient id="paint4_linear_4414_11968" x1="21.8149" y1="17.8953" x2="23.6528" y2="17.8953" gradientUnits="userSpaceOnUse">
<stop stop-color="#70C6FC"/>
<stop offset="0.0627815" stop-color="#6CC2FB"/>
<stop offset="0.6801" stop-color="#439CF2"/>
<stop offset="1" stop-color="#348DEF"/>
</linearGradient>
<linearGradient id="paint5_linear_4414_11968" x1="24" y1="27.0013" x2="35.9975" y2="27.0013" gradientUnits="userSpaceOnUse">
<stop stop-color="#70C6FC"/>
<stop offset="0.0627815" stop-color="#6CC2FB"/>
<stop offset="0.6801" stop-color="#439CF2"/>
<stop offset="1" stop-color="#348DEF"/>
</linearGradient>
</defs>
</svg>
