<svg width="14" height="14" viewBox="0 0 14 14" fill="none" xmlns="http://www.w3.org/2000/svg">
<path d="M3.45 5.11H6.39V5.79H3.45V5.11ZM3.09 3.14H3.8V10.61L3.09 10.76V3.14ZM2.39 10.53C3.31 10.3 4.77 9.89 6.18 9.49L6.27 10.2C5 10.59 3.63 11 2.64 11.29L2.39 10.53ZM4.92 8.49L5.52 8.19C6.2 9.05 6.91 10.2 7.19 10.95L6.53 11.3C6.27 10.54 5.57 9.36 4.92 8.49ZM3.43 3.14H6.81V7.72H3.43V7.02H6.11V3.84H3.43V3.14ZM10.44 3.15H11.21V9.25C11.21 9.68 11.13 9.94 10.82 10.08C10.53 10.23 10.05 10.24 9.35 10.24C9.33 10.01 9.21 9.64 9.08 9.42C9.62 9.44 10.1 9.43 10.26 9.43C10.4 9.43 10.44 9.38 10.44 9.24V3.15ZM7.57 3.15H10.86V3.9H8.33V11.81H7.57V3.15Z" fill="#B9964B"/>
<rect x="0.25" y="0.25" width="13.5" height="13.5" rx="1.75" stroke="#B9964B" stroke-width="0.5"/>
</svg>
