<svg width="33" height="32" viewBox="0 0 33 32" fill="none" xmlns="http://www.w3.org/2000/svg">
<circle cx="16.3245" cy="12.39" r="7.16891" stroke="#8B3BFF" stroke-width="1.5" stroke-linecap="round" stroke-linejoin="round"/>
<path d="M10.6999 7.93445C7.48986 7.93445 4.88758 10.5367 4.88758 13.7468C4.88758 16.9569 7.48986 19.5592 10.6999 19.5592C11.5773 19.5592 12.4093 19.3648 13.1552 19.0167" stroke="#8B3BFF" stroke-width="1.5" stroke-linecap="round" stroke-linejoin="round"/>
<path d="M22.5493 7.93445C25.7594 7.93445 28.3617 10.5367 28.3617 13.7468C28.3617 16.9569 25.7594 19.5592 22.5493 19.5592C21.672 19.5592 20.84 19.3648 20.0941 19.0167" stroke="#8B3BFF" stroke-width="1.5" stroke-linecap="round" stroke-linejoin="round"/>
<path d="M13.6668 19.1085C13.6668 19.1085 14.8043 19.7218 16.6154 19.7218C18.4264 19.7218 19.5639 19.1085 19.5639 19.1085L21.2619 25.3288H11.9689L13.6668 19.1085Z" stroke="#8B3BFF" stroke-width="1.5" stroke-linecap="round" stroke-linejoin="round"/>
<path fill-rule="evenodd" clip-rule="evenodd" d="M15.2357 9.96207C14.9349 10.1875 14.799 10.4577 14.799 10.7098C14.799 10.9625 14.9349 11.2327 15.2357 11.4586C15.5369 11.6846 15.9779 11.8407 16.4883 11.8407C16.633 11.8407 16.7718 11.8982 16.8742 12.0005C16.9765 12.1029 17.0341 12.2417 17.0341 12.3865C17.0341 12.5312 16.9765 12.6701 16.8742 12.7724C16.7718 12.8748 16.633 12.9323 16.4883 12.9323C15.7645 12.9323 15.0883 12.7129 14.5807 12.3319C14.0731 11.9509 13.7075 11.3833 13.7075 10.7104C13.7075 10.0368 14.0731 9.46922 14.5807 9.08826C15.0883 8.70785 15.7651 8.48844 16.4883 8.48844C17.6088 8.48844 18.6681 9.02495 19.0895 9.91841C19.1201 9.98328 19.1376 10.0535 19.141 10.1252C19.1444 10.1968 19.1337 10.2684 19.1094 10.3359C19.0852 10.4033 19.0479 10.4654 18.9996 10.5185C18.9514 10.5715 18.8932 10.6146 18.8283 10.6451C18.7635 10.6757 18.6932 10.6932 18.6216 10.6966C18.55 10.7 18.4784 10.6893 18.4109 10.6651C18.3434 10.6408 18.2814 10.6035 18.2283 10.5553C18.1752 10.507 18.1322 10.4488 18.1016 10.384C17.9106 9.97626 17.3146 9.58002 16.4888 9.58002C15.9785 9.58002 15.5369 9.73612 15.2357 9.96207Z" fill="#8B3BFF"/>
<path fill-rule="evenodd" clip-rule="evenodd" d="M17.4145 14.693C17.7152 14.4761 17.8506 14.2161 17.8506 13.9734C17.8506 13.7302 17.7152 13.4697 17.4139 13.2527C17.1132 13.0353 16.6717 12.8851 16.1619 12.8851C16.0171 12.8851 15.8783 12.8297 15.776 12.7312C15.6736 12.6327 15.6161 12.4991 15.6161 12.3598C15.6161 12.2205 15.6736 12.0869 15.776 11.9884C15.8783 11.8899 16.0171 11.8345 16.1619 11.8345C16.8856 11.8345 17.5618 12.0457 18.0694 12.4123C18.577 12.779 18.9421 13.3252 18.9421 13.9729C18.9421 14.6205 18.577 15.1673 18.0689 15.5334C17.5613 15.9001 16.8856 16.1112 16.1619 16.1112C15.0414 16.1112 13.9814 15.5949 13.5606 14.7345C13.4989 14.6085 13.4917 14.4641 13.5406 14.3329C13.5896 14.2018 13.6906 14.0948 13.8215 14.0354C13.9525 13.976 14.1026 13.969 14.2388 14.0161C14.375 14.0632 14.4862 14.1605 14.548 14.2865C14.7401 14.6794 15.3361 15.0607 16.1619 15.0607C16.6722 15.0607 17.1132 14.9105 17.4145 14.693ZM16.2372 7.55835C16.382 7.55835 16.5208 7.61369 16.6231 7.7122C16.7255 7.8107 16.783 7.94431 16.783 8.08361V8.60888C16.783 8.74819 16.7255 8.88179 16.6231 8.9803C16.5208 9.0788 16.382 9.13414 16.2372 9.13414C16.0924 9.13414 15.9536 9.0788 15.8513 8.9803C15.7489 8.88179 15.6914 8.74819 15.6914 8.60888V8.08361C15.6914 7.94431 15.7489 7.8107 15.8513 7.7122C15.9536 7.61369 16.0924 7.55835 16.2372 7.55835Z" fill="#8B3BFF"/>
<path fill-rule="evenodd" clip-rule="evenodd" d="M16.3845 15.5835C16.5293 15.5835 16.6681 15.641 16.7705 15.7433C16.8728 15.8457 16.9303 15.9845 16.9303 16.1293V16.6751C16.9303 16.8198 16.8728 16.9586 16.7705 17.061C16.6681 17.1633 16.5293 17.2209 16.3845 17.2209C16.2398 17.2209 16.101 17.1633 15.9986 17.061C15.8963 16.9586 15.8388 16.8198 15.8388 16.6751V16.1293C15.8388 15.9845 15.8963 15.8457 15.9986 15.7433C16.101 15.641 16.2398 15.5835 16.3845 15.5835Z" fill="#8B3BFF"/>
</svg>
