<svg width="32" height="33" viewBox="0 0 32 33" fill="none" xmlns="http://www.w3.org/2000/svg">
<circle cx="15.6995" cy="12.89" r="7.16891" stroke="#6200EE" stroke-width="1.5" stroke-linecap="round" stroke-linejoin="round"/>
<path d="M10.0749 8.43445C6.86485 8.43445 4.26257 11.0367 4.26257 14.2468C4.26257 17.4569 6.86485 20.0592 10.0749 20.0592C10.9523 20.0592 11.7843 19.8648 12.5301 19.5167" stroke="#6200EE" stroke-width="1.5" stroke-linecap="round" stroke-linejoin="round"/>
<path d="M21.9243 8.43445C25.1344 8.43445 27.7367 11.0367 27.7367 14.2468C27.7367 17.4569 25.1344 20.0592 21.9243 20.0592C21.047 20.0592 20.215 19.8648 19.4691 19.5167" stroke="#6200EE" stroke-width="1.5" stroke-linecap="round" stroke-linejoin="round"/>
<path d="M13.0418 19.6085C13.0418 19.6085 14.1793 20.2218 15.9904 20.2218C17.8014 20.2218 18.9389 19.6085 18.9389 19.6085L20.6368 25.8288H11.3439L13.0418 19.6085Z" stroke="#6200EE" stroke-width="1.5" stroke-linecap="round" stroke-linejoin="round"/>
<path fill-rule="evenodd" clip-rule="evenodd" d="M14.6107 10.4621C14.31 10.6875 14.1741 10.9577 14.1741 11.2098C14.1741 11.4625 14.31 11.7327 14.6107 11.9586C14.912 12.1846 15.353 12.3407 15.8633 12.3407C16.008 12.3407 16.1469 12.3982 16.2492 12.5005C16.3516 12.6029 16.4091 12.7417 16.4091 12.8865C16.4091 13.0312 16.3516 13.1701 16.2492 13.2724C16.1469 13.3748 16.008 13.4323 15.8633 13.4323C15.1396 13.4323 14.4633 13.2129 13.9558 12.8319C13.4482 12.4509 13.0825 11.8833 13.0825 11.2104C13.0825 10.5368 13.4482 9.96922 13.9558 9.58826C14.4633 9.20785 15.1401 8.98844 15.8633 8.98844C16.9838 8.98844 18.0432 9.52495 18.4645 10.4184C18.4951 10.4833 18.5126 10.5535 18.516 10.6252C18.5194 10.6968 18.5087 10.7684 18.4845 10.8359C18.4602 10.9033 18.4229 10.9654 18.3747 11.0185C18.3264 11.0715 18.2682 11.1146 18.2034 11.1451C18.1385 11.1757 18.0683 11.1932 17.9966 11.1966C17.925 11.2 17.8534 11.1893 17.7859 11.1651C17.7184 11.1408 17.6564 11.1035 17.6033 11.0553C17.5503 11.007 17.5072 10.9488 17.4766 10.884C17.2856 10.4763 16.6896 10.08 15.8638 10.08C15.3535 10.08 14.912 10.2361 14.6107 10.4621Z" fill="#6200EE"/>
<path fill-rule="evenodd" clip-rule="evenodd" d="M16.7895 15.193C17.0902 14.9761 17.2256 14.7161 17.2256 14.4734C17.2256 14.2302 17.0902 13.9697 16.789 13.7527C16.4882 13.5353 16.0467 13.3851 15.5369 13.3851C15.3922 13.3851 15.2533 13.3297 15.151 13.2312C15.0486 13.1327 14.9911 12.9991 14.9911 12.8598C14.9911 12.7205 15.0486 12.5869 15.151 12.4884C15.2533 12.3899 15.3922 12.3345 15.5369 12.3345C16.2606 12.3345 16.9369 12.5457 17.4445 12.9123C17.952 13.279 18.3172 13.8252 18.3172 14.4729C18.3172 15.1205 17.952 15.6673 17.4439 16.0334C16.9363 16.4001 16.2606 16.6112 15.5369 16.6112C14.4164 16.6112 13.3565 16.0949 12.9357 15.2345C12.8739 15.1085 12.8667 14.9641 12.9157 14.8329C12.9646 14.7018 13.0656 14.5948 13.1966 14.5354C13.3275 14.476 13.4776 14.469 13.6138 14.5161C13.7501 14.5632 13.8613 14.6605 13.923 14.7865C14.1151 15.1794 14.7111 15.5607 15.5369 15.5607C16.0472 15.5607 16.4882 15.4105 16.7895 15.193ZM15.6122 8.05835C15.757 8.05835 15.8958 8.11369 15.9982 8.2122C16.1005 8.3107 16.158 8.44431 16.158 8.58361V9.10888C16.158 9.24819 16.1005 9.38179 15.9982 9.4803C15.8958 9.5788 15.757 9.63414 15.6122 9.63414C15.4675 9.63414 15.3287 9.5788 15.2263 9.4803C15.1239 9.38179 15.0664 9.24819 15.0664 9.10888V8.58361C15.0664 8.44431 15.1239 8.3107 15.2263 8.2122C15.3287 8.11369 15.4675 8.05835 15.6122 8.05835Z" fill="#6200EE"/>
<path fill-rule="evenodd" clip-rule="evenodd" d="M15.7596 16.0835C15.9043 16.0835 16.0432 16.141 16.1455 16.2433C16.2479 16.3457 16.3054 16.4845 16.3054 16.6293V17.1751C16.3054 17.3198 16.2479 17.4586 16.1455 17.561C16.0432 17.6633 15.9043 17.7209 15.7596 17.7209C15.6148 17.7209 15.476 17.6633 15.3736 17.561C15.2713 17.4586 15.2138 17.3198 15.2138 17.1751V16.6293C15.2138 16.4845 15.2713 16.3457 15.3736 16.2433C15.476 16.141 15.6148 16.0835 15.7596 16.0835Z" fill="#6200EE"/>
</svg>
