<svg width="24" height="24" viewBox="0 0 24 24" fill="none" xmlns="http://www.w3.org/2000/svg">
<path fill-rule="evenodd" clip-rule="evenodd" d="M4.44009 18.81H19.5601C20.3101 18.81 20.9101 18.21 20.9401 17.46V6.54C20.9401 5.79 20.3401 5.19 19.5901 5.19H4.44009C3.69009 5.19 3.09009 5.79 3.09009 6.54V17.46C3.09009 18.21 3.69009 18.81 4.44009 18.81ZM5.50009 8H9.50009C9.77623 8 10.0001 8.22386 10.0001 8.5V12.5C10.0001 12.7761 9.77623 13 9.50009 13H5.50009C5.22395 13 5.00009 12.7761 5.00009 12.5V8.5C5.00009 8.22386 5.22395 8 5.50009 8ZM12.0001 8.5C12.0001 8.22386 12.2239 8 12.5001 8H18.5001C18.7762 8 19.0001 8.22386 19.0001 8.5C19.0001 8.77614 18.7762 9 18.5001 9H12.5001C12.2239 9 12.0001 8.77614 12.0001 8.5ZM12.5001 12C12.2239 12 12.0001 12.2239 12.0001 12.5C12.0001 12.7761 12.2239 13 12.5001 13H17.5001C17.7762 13 18.0001 12.7761 18.0001 12.5C18.0001 12.2239 17.7762 12 17.5001 12H12.5001ZM12.0001 10.5C12.0001 10.2239 12.2239 10 12.5001 10H17.5001C17.7762 10 18.0001 10.2239 18.0001 10.5C18.0001 10.7761 17.7762 11 17.5001 11H12.5001C12.2239 11 12.0001 10.7761 12.0001 10.5ZM5.50009 15C5.22395 15 5.00009 15.2239 5.00009 15.5C5.00009 15.7761 5.22395 16 5.50009 16H18.5001C18.7762 16 19.0001 15.7761 19.0001 15.5C19.0001 15.2239 18.7762 15 18.5001 15H5.50009Z" fill="#B9964B"/>
</svg>
