<svg width="80" height="80" viewBox="0 0 80 80" fill="none" xmlns="http://www.w3.org/2000/svg">
<path d="M22.7996 36.8C19.2996 36.8 16.3996 39.7 16.3996 43.2C16.3996 46.7 19.2996 49.6 22.7996 49.6C26.2996 49.6 29.1996 46.7 29.1996 43.2C29.1996 39.7 26.3996 36.8 22.7996 36.8ZM22.7996 46.2C21.1996 46.2 19.7996 44.9 19.7996 43.2C19.7996 41.5 21.0996 40.2 22.7996 40.2C24.3996 40.2 25.7996 41.5 25.7996 43.2C25.7996 44.9 24.4996 46.2 22.7996 46.2Z" fill="#A07A4B"/>
<path d="M43.7996 41.4H40.2996V44.9H43.7996V41.4Z" fill="#A07A4B"/>
<path d="M50.6996 41.4H47.1996V44.9H50.6996V41.4Z" fill="#A07A4B"/>
<path d="M43.7996 48.3H40.2996V51.8H43.7996V48.3Z" fill="#A07A4B"/>
<path d="M50.6996 48.3H47.1996V51.8H50.6996V48.3Z" fill="#A07A4B"/>
<path d="M50.5996 22.6H47.1996V18.6H43.6996V30.1H47.1996V26H50.5996V30.1H54.0996V18.6H50.5996V22.6Z" fill="#A07A4B"/>
<path d="M43.7996 34.7H40.2996V38.2H43.7996V34.7Z" fill="#A07A4B"/>
<path d="M50.6996 34.7H47.1996V38.2H50.6996V34.7Z" fill="#A07A4B"/>
<path d="M57.5996 41.4H54.0996V44.9H57.5996V41.4Z" fill="#A07A4B"/>
<path d="M57.5996 48.3H54.0996V51.8H57.5996V48.3Z" fill="#A07A4B"/>
<path d="M57.5996 34.7H54.0996V38.2H57.5996V34.7Z" fill="#A07A4B"/>
<path d="M61.3996 14V10.5H36.0996V14H29.0996V31.7C27.1996 30.7 25.0996 30.1 22.7996 30.1C15.4996 30.1 9.59961 36 9.59961 43.3C9.59961 46.3 11.4996 51.1 15.5996 58.1C18.4996 63.1 22.7996 69.5 22.7996 69.5C22.7996 69.5 26.5996 63.9 29.0996 59.7V66.1H68.3996V14H61.3996ZM22.7996 63.3C21.6996 61.6 20.0996 59.1 18.5996 56.3C13.7996 48 13.0996 44.5 13.0996 43.2C13.0996 37.8 17.4996 33.5 22.7996 33.5C28.0996 33.5 32.4996 37.9 32.4996 43.2C32.4996 44.5 31.7996 47.9 26.9996 56.3C25.4996 59.1 23.8996 61.6 22.7996 63.3ZM64.8996 62.6H50.5996V55.5H47.0996V62.6H32.5996V53.4C34.8996 48.8 36.0996 45.5 36.0996 43.2C36.0996 39.8 34.7996 36.7 32.5996 34.3V17.4H39.5996V14H57.9996V17.4H64.8996V62.6Z" fill="#A07A4B"/>
</svg>
