<svg width="80" height="80" viewBox="0 0 80 80" fill="none" xmlns="http://www.w3.org/2000/svg">
<path d="M22.8001 36.8C19.3001 36.8 16.4001 39.7 16.4001 43.2C16.4001 46.7 19.3001 49.6 22.8001 49.6C26.3001 49.6 29.2001 46.7 29.2001 43.2C29.2001 39.7 26.4001 36.8 22.8001 36.8ZM22.8001 46.2C21.2001 46.2 19.8001 44.9 19.8001 43.2C19.8001 41.5 21.1001 40.2 22.8001 40.2C24.4001 40.2 25.8001 41.5 25.8001 43.2C25.8001 44.9 24.5001 46.2 22.8001 46.2Z" fill="#72573D"/>
<path d="M43.8001 41.4H40.3001V44.9H43.8001V41.4Z" fill="#72573D"/>
<path d="M50.7001 41.4H47.2001V44.9H50.7001V41.4Z" fill="#72573D"/>
<path d="M43.8001 48.3H40.3001V51.8H43.8001V48.3Z" fill="#72573D"/>
<path d="M50.7001 48.3H47.2001V51.8H50.7001V48.3Z" fill="#72573D"/>
<path d="M50.6001 22.6H47.2001V18.6H43.7001V30.1H47.2001V26H50.6001V30.1H54.1001V18.6H50.6001V22.6Z" fill="#72573D"/>
<path d="M43.8001 34.7H40.3001V38.2H43.8001V34.7Z" fill="#72573D"/>
<path d="M50.7001 34.7H47.2001V38.2H50.7001V34.7Z" fill="#72573D"/>
<path d="M57.6001 41.4H54.1001V44.9H57.6001V41.4Z" fill="#72573D"/>
<path d="M57.6001 48.3H54.1001V51.8H57.6001V48.3Z" fill="#72573D"/>
<path d="M57.6001 34.7H54.1001V38.2H57.6001V34.7Z" fill="#72573D"/>
<path d="M61.4001 14V10.5H36.1001V14H29.1001V31.7C27.2001 30.7 25.1001 30.1 22.8001 30.1C15.5001 30.1 9.6001 36 9.6001 43.3C9.6001 46.3 11.5001 51.1 15.6001 58.1C18.5001 63.1 22.8001 69.5 22.8001 69.5C22.8001 69.5 26.6001 63.9 29.1001 59.7V66.1H68.4001V14H61.4001ZM22.8001 63.3C21.7001 61.6 20.1001 59.1 18.6001 56.3C13.8001 48 13.1001 44.5 13.1001 43.2C13.1001 37.8 17.5001 33.5 22.8001 33.5C28.1001 33.5 32.5001 37.9 32.5001 43.2C32.5001 44.5 31.8001 47.9 27.0001 56.3C25.5001 59.1 23.9001 61.6 22.8001 63.3ZM64.9001 62.6H50.6001V55.5H47.1001V62.6H32.6001V53.4C34.9001 48.8 36.1001 45.5 36.1001 43.2C36.1001 39.8 34.8001 36.7 32.6001 34.3V17.4H39.6001V14H58.0001V17.4H64.9001V62.6Z" fill="#72573D"/>
</svg>
