<svg width="23" height="13" viewBox="0 0 23 13" fill="none" xmlns="http://www.w3.org/2000/svg">
<rect x="0.833252" y="0.166626" width="21.9999" height="11.9999" rx="5.99997" fill="#FDD032"/>
<path d="M6.98525 3.23056H11.4333V3.76656H6.98525V3.23056ZM6.78525 5.14256H11.5773V5.67856H6.78525V5.14256ZM7.73725 7.63856H10.6573V8.11856H7.73725V7.63856ZM7.75325 8.94256H10.6893V9.45456H7.75325V8.94256ZM8.87325 2.50256H9.46525V3.50256H8.87325V2.50256ZM7.67325 3.92656L8.19325 3.82256C8.28392 4.0039 8.36925 4.20656 8.44925 4.43056C8.52925 4.64923 8.58259 4.83856 8.60925 4.99856L8.06525 5.11856C8.03859 4.95856 7.98792 4.76656 7.91325 4.54256C7.83859 4.31856 7.75859 4.11323 7.67325 3.92656ZM10.1773 3.80656L10.7693 3.93456C10.6893 4.14256 10.6039 4.3559 10.5133 4.57456C10.4279 4.79323 10.3453 4.97723 10.2653 5.12656L9.76925 5.01456C9.81725 4.90256 9.86525 4.77723 9.91325 4.63856C9.96659 4.49456 10.0173 4.35056 10.0653 4.20656C10.1133 4.05723 10.1506 3.9239 10.1773 3.80656ZM7.41725 6.34256H11.0333V9.78256H10.4573V6.84656H7.97725V9.79856H7.41725V6.34256ZM4.72125 2.95856H6.63325V8.22256H4.72125V7.67856H6.08125V3.51056H4.72125V2.95856ZM4.75325 5.29456H6.39325V5.83856H4.75325V5.29456ZM4.44125 2.95856H4.99325V8.87856H4.44125V2.95856ZM13.1213 3.02256H15.2013V3.46256H13.1213V3.02256ZM13.9853 2.43056L14.5213 2.51856C14.4466 2.6679 14.3746 2.80923 14.3053 2.94256C14.2413 3.0759 14.1773 3.1959 14.1133 3.30256L13.6573 3.22256C13.7159 3.10523 13.7773 2.97456 13.8413 2.83056C13.9053 2.68123 13.9533 2.5479 13.9853 2.43056ZM12.8813 3.02256H13.3773V4.51056C13.3773 4.79323 13.3559 5.0999 13.3133 5.43056C13.2706 5.7559 13.1826 6.07856 13.0493 6.39856C12.9213 6.71856 12.7319 7.00923 12.4813 7.27056C12.4546 7.23323 12.4173 7.19323 12.3693 7.15056C12.3266 7.1079 12.2786 7.06523 12.2253 7.02256C12.1773 6.9799 12.1346 6.9479 12.0973 6.92656C12.3266 6.6919 12.4973 6.4359 12.6093 6.15856C12.7213 5.8759 12.7933 5.59323 12.8253 5.31056C12.8626 5.02256 12.8813 4.75323 12.8813 4.50256V3.02256ZM16.5853 2.74256H18.1933V3.19056H16.5853V2.74256ZM16.0253 4.79056H18.5693V5.23056H16.0253V4.79056ZM16.3533 2.74256H16.8493V3.31856C16.8493 3.47856 16.8279 3.64923 16.7853 3.83056C16.7426 4.00656 16.6626 4.17723 16.5453 4.34256C16.4279 4.5079 16.2626 4.6599 16.0493 4.79856C16.0279 4.76123 15.9959 4.71856 15.9533 4.67056C15.9106 4.61723 15.8653 4.56656 15.8173 4.51856C15.7746 4.47056 15.7373 4.4359 15.7053 4.41456C15.9826 4.2439 16.1586 4.06256 16.2333 3.87056C16.3133 3.67323 16.3533 3.4839 16.3533 3.30256V2.74256ZM14.9453 3.02256H15.4493V6.47856C15.4493 6.6119 15.4333 6.71856 15.4013 6.79856C15.3693 6.87856 15.3079 6.9399 15.2173 6.98256C15.1213 7.02523 14.9959 7.0519 14.8413 7.06256C14.6919 7.0679 14.5053 7.07056 14.2813 7.07056C14.2759 7.00123 14.2573 6.92123 14.2253 6.83056C14.1986 6.73456 14.1639 6.65456 14.1213 6.59056C14.2919 6.5959 14.4413 6.59856 14.5693 6.59856C14.6973 6.59856 14.7853 6.59856 14.8333 6.59856C14.8813 6.59323 14.9106 6.58256 14.9213 6.56656C14.9373 6.54523 14.9453 6.5159 14.9453 6.47856V3.02256ZM12.1613 4.79056C12.4653 4.7799 12.8146 4.76656 13.2093 4.75056C13.6093 4.73456 14.0333 4.7159 14.4813 4.69456C14.9293 4.67323 15.3773 4.6519 15.8253 4.63056L15.8173 5.08656C15.3799 5.1079 14.9399 5.1319 14.4973 5.15856C14.0599 5.18523 13.6439 5.20923 13.2493 5.23056C12.8599 5.24656 12.5053 5.26256 12.1853 5.27856L12.1613 4.79056ZM13.6893 3.78256L14.0653 3.64656C14.1559 3.76923 14.2413 3.90523 14.3213 4.05456C14.4066 4.2039 14.4706 4.3319 14.5133 4.43856L14.1213 4.59856C14.0786 4.48656 14.0173 4.35323 13.9373 4.19856C13.8626 4.0439 13.7799 3.90523 13.6893 3.78256ZM13.8893 5.39056H14.3053V6.49456H13.8893V5.39056ZM17.9133 2.74256H18.4173V3.91056C18.4173 3.9799 18.4253 4.02523 18.4413 4.04656C18.4573 4.06256 18.4946 4.07056 18.5533 4.07056C18.5693 4.07056 18.6013 4.07056 18.6493 4.07056C18.6973 4.07056 18.7453 4.07056 18.7933 4.07056C18.8413 4.07056 18.8759 4.07056 18.8973 4.07056C18.9399 4.07056 18.9719 4.0599 18.9933 4.03856C19.0146 4.0119 19.0306 3.9559 19.0413 3.87056C19.0519 3.7799 19.0599 3.6439 19.0653 3.46256C19.1133 3.4999 19.1799 3.53723 19.2653 3.57456C19.3559 3.60656 19.4333 3.63056 19.4973 3.64656C19.4813 3.9879 19.4333 4.2199 19.3533 4.34256C19.2733 4.4599 19.1453 4.51856 18.9693 4.51856C18.9426 4.51856 18.8946 4.51856 18.8253 4.51856C18.7559 4.51856 18.6866 4.51856 18.6173 4.51856C18.5533 4.51856 18.5053 4.51856 18.4733 4.51856C18.2546 4.51856 18.1053 4.47856 18.0253 4.39856C17.9506 4.31323 17.9133 4.15323 17.9133 3.91856V2.74256ZM18.4173 4.79056H18.5373L18.6333 4.77456L18.9453 4.91856C18.7799 5.3399 18.5506 5.69456 18.2573 5.98256C17.9639 6.27056 17.6226 6.50523 17.2333 6.68656C16.8439 6.8679 16.4226 7.0119 15.9693 7.11856C15.9479 7.07056 15.9186 7.0199 15.8813 6.96656C15.8493 6.9079 15.8146 6.8519 15.7773 6.79856C15.7399 6.7399 15.7053 6.69723 15.6733 6.67056C16.0999 6.58523 16.4946 6.47056 16.8573 6.32656C17.2199 6.17723 17.5346 5.98256 17.8013 5.74256C18.0733 5.50256 18.2786 5.2119 18.4173 4.87056V4.79056ZM16.7453 5.19856C16.9799 5.6039 17.3426 5.93723 17.8333 6.19856C18.3239 6.45456 18.8946 6.62523 19.5453 6.71056C19.4866 6.7639 19.4253 6.83856 19.3613 6.93456C19.2973 7.02523 19.2466 7.1079 19.2093 7.18256C18.5266 7.0599 17.9293 6.8439 17.4173 6.53456C16.9106 6.2199 16.5266 5.8199 16.2653 5.33456L16.7453 5.19856ZM12.1933 9.07856H19.4813V9.57456H12.1933V9.07856ZM13.1373 7.27056H18.5293V9.32656H17.9453V7.75856H16.8893V9.32656H16.3373V7.75856H15.2893V9.32656H14.7293V7.75856H13.7053V9.32656H13.1373V7.27056Z" fill="#754E13"/>
</svg>
