<svg width="22" height="12" viewBox="0 0 22 12" fill="none" xmlns="http://www.w3.org/2000/svg">
<rect x="0.5" y="0.5" width="21" height="11" rx="5.5" fill="#FDD032"/>
<rect x="0.5" y="0.5" width="21" height="11" rx="5.5" stroke="white"/>
<path d="M6.784 5.264H10.376V6.072H6.784V5.264ZM6.784 6.84H10.376V7.648H6.784V6.84ZM6.68 8.448H10.736V9.32H6.68V8.448ZM8.24 4.136H9.128V8.704H8.24V4.136ZM8.744 2.224L9.76 2.432C9.48 3.128 9.136 3.88 8.872 4.36L8.048 4.152C8.312 3.632 8.6 2.824 8.744 2.224ZM6.912 2.192L7.832 2.424C7.448 3.736 6.8 5.056 6.032 5.88C5.912 5.68 5.608 5.24 5.424 5.032C6.088 4.368 6.616 3.296 6.912 2.192ZM7.304 3.672H10.584V4.512H7.304V9.712H6.384V4.144L6.856 3.672H7.304ZM3.16 6.296C3.832 6.16 4.832 5.912 5.784 5.672L5.896 6.52C5.024 6.776 4.096 7.032 3.36 7.232L3.16 6.296ZM3.32 3.728H5.792V4.608H3.32V3.728ZM4.264 2.216H5.184V8.64C5.184 9.112 5.104 9.368 4.84 9.52C4.576 9.68 4.192 9.712 3.648 9.712C3.616 9.456 3.496 9.04 3.376 8.776C3.688 8.792 4.016 8.792 4.12 8.792C4.224 8.792 4.264 8.752 4.264 8.64V2.216ZM11.424 4.44H18.576V5.288H11.424V4.44ZM14.368 5.64H17.448V6.384H14.368V5.64ZM13.816 7.248H18.64V8.056H13.816V7.248ZM13.84 3.688L14.776 3.928C14.16 5.608 13.104 6.976 11.776 7.816C11.648 7.616 11.336 7.192 11.144 7.008C12.392 6.32 13.344 5.128 13.84 3.688ZM15.808 6.744H16.736V8.816C16.736 9.24 16.656 9.456 16.352 9.584C16.048 9.712 15.64 9.72 15.08 9.72C15.04 9.48 14.912 9.136 14.792 8.896C15.136 8.912 15.544 8.912 15.656 8.912C15.768 8.912 15.808 8.888 15.808 8.784V6.744ZM17.112 5.64H17.328L17.512 5.592L18.072 6.048C17.592 6.512 16.936 7.024 16.344 7.344C16.24 7.184 16.008 6.944 15.88 6.824C16.336 6.568 16.864 6.104 17.112 5.808V5.64ZM13.112 2.208H14.056V4.04H13.112V2.208ZM15.888 2.208H16.824V4.04H15.888V2.208ZM11.448 2.672H18.568V3.512H11.448V2.672ZM12.528 6.248L13.12 5.64L13.432 5.728V9.728H12.528V6.248Z" fill="#AF741F"/>
</svg>
