<svg width="24" height="24" viewBox="0 0 24 24" fill="none" xmlns="http://www.w3.org/2000/svg">
<path d="M18.4581 3.94633C16.7901 3.32295 14.7966 3.71512 13.4086 5.10307C12.0207 6.49101 11.6285 8.48449 12.2519 10.1525L7.40452 14.9049L8.70208 16.2024L9.99963 17.5L14.847 12.7476C16.515 13.371 18.5085 12.9788 19.8964 11.5908C21.2844 10.2029 21.6765 8.20942 21.0532 6.54144L17.9501 9.64451L15.355 7.0494L18.4581 3.94633Z" stroke="#217DC1" stroke-linejoin="round"/>
<path d="M10.5 5.125H7.73597C5.67265 5.125 4 6.79765 4 8.86097V21.0029H16.1419C18.2052 21.0029 19.8779 19.3302 19.8779 17.2669L19.8779 14.5029" stroke="#217DC1" stroke-linecap="round" stroke-linejoin="round"/>
</svg>
