<svg width="16" height="16" viewBox="0 0 16 16" fill="none" xmlns="http://www.w3.org/2000/svg">
<path d="M7.99995 14.3C11.4793 14.3 14.3 11.4793 14.3 7.99995C14.3 4.52056 11.4793 1.69995 7.99995 1.69995C4.52056 1.69995 1.69995 4.52056 1.69995 7.99995C1.69995 11.4793 4.52056 14.3 7.99995 14.3Z" fill="#808080"/>
<path d="M10.4801 10.88C10.3801 10.88 10.2801 10.84 10.2001 10.76L8.00012 8.55999L5.80012 10.76C5.64012 10.92 5.38012 10.92 5.24012 10.76C5.08012 10.6 5.08012 10.36 5.24012 10.2L7.44012 7.99999L5.24012 5.79999C5.08012 5.63999 5.08012 5.4 5.24012 5.24C5.40012 5.08 5.66012 5.08 5.80012 5.24L8.00012 7.44L10.2001 5.24C10.3601 5.08 10.6001 5.08 10.7601 5.24C10.9201 5.4 10.9201 5.63999 10.7601 5.79999L8.56012 7.99999L10.7601 10.2C10.9201 10.36 10.9201 10.6 10.7601 10.76C10.6801 10.84 10.5801 10.88 10.4801 10.88Z" fill="white"/>
</svg>
