<svg width="32" height="32" viewBox="0 0 32 32" fill="none" xmlns="http://www.w3.org/2000/svg">
<path d="M27 13.6775V23.9669C27 26.1761 25.2091 27.9669 23 27.9669H9C6.79086 27.9669 5 26.1761 5 23.9669V9.96692C5 7.75778 6.79086 5.96692 9 5.96692H18.4823" stroke="#00AB1B" stroke-width="1.5" stroke-linecap="round"/>
<path d="M8.57715 19.5118L19.0264 19.5118" stroke="#00AB1B" stroke-width="1.5" stroke-linecap="round" stroke-linejoin="round"/>
<path d="M8.57715 23.4591H14.4639" stroke="#00AB1B" stroke-width="1.5" stroke-linecap="round" stroke-linejoin="round"/>
<path d="M28.8789 8.45371C28.8789 11.1911 26.6597 13.4102 23.9223 13.4102V14.9102C27.4882 14.9102 30.3789 12.0195 30.3789 8.45371H28.8789ZM23.9223 13.4102C21.1849 13.4102 18.9658 11.1911 18.9658 8.45371H17.4658C17.4658 12.0195 20.3565 14.9102 23.9223 14.9102V13.4102ZM18.9658 8.45371C18.9658 5.7163 21.1849 3.49719 23.9223 3.49719V1.99719C20.3565 1.99719 17.4658 4.88787 17.4658 8.45371H18.9658ZM23.9223 3.49719C26.6597 3.49719 28.8789 5.7163 28.8789 8.45371H30.3789C30.3789 4.88787 27.4882 1.99719 23.9223 1.99719V3.49719Z" fill="#00AB1B"/>
<path d="M23.9619 6.33191V9.12488L25.4123 10.5753" stroke="#00AB1B" stroke-width="1.5" stroke-linecap="round" stroke-linejoin="round"/>
</svg>
