<svg width="33" height="32" viewBox="0 0 33 32" fill="none" xmlns="http://www.w3.org/2000/svg">
<path d="M8.54618 14.4275C8.54618 10.1037 12.0513 6.59863 16.375 6.59863V6.59863C20.6987 6.59863 24.2038 10.1037 24.2038 14.4275V20.7993C24.2038 20.8487 24.2167 20.8973 24.2412 20.9402L24.4498 21.3052C25.161 22.5498 24.2623 24.0984 22.8289 24.0984H9.92114C8.48768 24.0984 7.589 22.5498 8.3002 21.3052L8.50876 20.9402C8.53328 20.8973 8.54618 20.8487 8.54618 20.7993V14.4275Z" stroke="#8B3BFF" stroke-width="1.5" stroke-linecap="round" stroke-linejoin="round"/>
<path d="M18.7684 26.2197C18.2906 27.0456 17.3976 27.6013 16.3749 27.6013C15.3522 27.6013 14.4592 27.0456 13.9814 26.2197" stroke="#8B3BFF" stroke-width="1.5" stroke-linecap="round"/>
<path d="M24.7552 3.29996C25.8007 3.61843 26.7853 4.19102 27.612 5.01774C28.4387 5.84445 29.0113 6.82906 29.3298 7.87449" stroke="#8B3BFF" stroke-width="1.5" stroke-linecap="round" stroke-linejoin="round"/>
<path d="M23.7572 6.29043C24.3533 6.45803 24.916 6.77635 25.3851 7.24539C25.8541 7.71442 26.1724 8.27711 26.34 8.87325" stroke="#8B3BFF" stroke-width="1.5" stroke-linecap="round" stroke-linejoin="round"/>
</svg>
