<svg width="32" height="32" viewBox="0 0 32 32" fill="none" xmlns="http://www.w3.org/2000/svg">
<path d="M8.17118 14.4275C8.17118 10.1037 11.6763 6.59863 16 6.59863V6.59863C20.3237 6.59863 23.8288 10.1037 23.8288 14.4275V20.7993C23.8288 20.8487 23.8417 20.8973 23.8662 20.9402L24.0748 21.3052C24.786 22.5498 23.8873 24.0984 22.4539 24.0984H9.54614C8.11268 24.0984 7.214 22.5498 7.9252 21.3052L8.13376 20.9402C8.15828 20.8973 8.17118 20.8487 8.17118 20.7993V14.4275Z" stroke="#6200EE" stroke-width="1.5" stroke-linecap="round" stroke-linejoin="round"/>
<path d="M18.3934 26.2197C17.9156 27.0456 17.0226 27.6013 15.9999 27.6013C14.9772 27.6013 14.0842 27.0456 13.6064 26.2197" stroke="#6200EE" stroke-width="1.5" stroke-linecap="round"/>
<path d="M24.3802 3.29996C25.4257 3.61843 26.4103 4.19102 27.237 5.01774C28.0637 5.84445 28.6363 6.82906 28.9548 7.87449" stroke="#6200EE" stroke-width="1.5" stroke-linecap="round" stroke-linejoin="round"/>
<path d="M23.3822 6.29037C23.9784 6.45797 24.5411 6.77629 25.0101 7.24533C25.4791 7.71436 25.7974 8.27704 25.965 8.87319" stroke="#6200EE" stroke-width="1.5" stroke-linecap="round" stroke-linejoin="round"/>
</svg>
