<svg width="24" height="24" viewBox="0 0 24 24" fill="none" xmlns="http://www.w3.org/2000/svg">
<path fill-rule="evenodd" clip-rule="evenodd" d="M8.21237 3H15.7913C16.5018 3 17.1109 3.60902 17.077 4.31955V19.6805C17.077 20.391 16.5018 21 15.7575 21H8.21237C7.50184 21 6.89282 20.4248 6.89282 19.6805V4.31955C6.89282 3.60902 7.46801 3 8.21237 3ZM16.5018 5.40226H7.50185V16.8045H16.5018V5.40226ZM10.9868 18.9023C10.9868 18.3271 11.4267 17.8872 12.0019 17.8872C12.577 17.8872 13.0169 18.3271 13.0169 18.9023C13.0169 19.4774 12.577 19.9173 12.0019 19.9173C11.4267 19.9173 10.9868 19.4774 10.9868 18.9023Z" fill="#B9964B"/>
</svg>
