<svg width="32" height="32" viewBox="0 0 32 32" fill="none" xmlns="http://www.w3.org/2000/svg">
<path fill-rule="evenodd" clip-rule="evenodd" d="M15.1277 27.525C16.6355 27.1448 17.9914 26.3135 19.0142 25.1423V25.1794C17.9303 26.8162 16.348 28.0604 14.5017 28.7275C12.6553 29.3947 10.6432 29.4493 8.7634 28.8834C6.88358 28.3174 5.23607 27.1609 4.06497 25.5853C2.89387 24.0097 2.26147 22.0988 2.26147 20.1356C2.26147 18.1724 2.89387 16.2615 4.06497 14.6859C5.23607 13.1103 6.88358 11.9538 8.7634 11.3879C10.6432 10.8219 12.6553 10.8766 14.5017 11.5437C16.348 12.2109 17.9303 13.455 19.0142 15.0919C17.9914 13.9206 16.6355 13.0894 15.1277 12.7092C13.6199 12.329 12.032 12.4179 10.5761 12.9641C9.12021 13.5103 7.86565 14.4878 6.98004 15.766C6.09442 17.0441 5.61992 18.5621 5.61992 20.1171C5.61992 21.6721 6.09442 23.19 6.98004 24.4682C7.86565 25.7463 9.12021 26.7238 10.5761 27.27C12.032 27.8162 13.6199 27.9052 15.1277 27.525ZM18.99 24.4253C18.1493 25.2003 17.101 25.7135 15.9732 25.9022C14.8455 26.091 13.6872 25.9471 12.6399 25.4881C11.5926 25.0291 10.7018 24.275 10.0762 23.3178C9.45068 22.3607 9.11755 21.242 9.11755 20.0986C9.11755 18.9552 9.45068 17.8365 10.0762 16.8794C10.7018 15.9222 11.5926 15.1681 12.6399 14.7091C13.6872 14.2501 14.8455 14.1062 15.9732 14.2949C17.101 14.4837 18.1493 14.9969 18.99 15.7718C18.092 14.6404 16.8643 13.8164 15.4769 13.4141C14.0896 13.0118 12.6114 13.0511 11.2474 13.5266C9.88346 14.0021 8.70122 14.8902 7.86465 16.0678C7.02808 17.2454 6.57863 18.6541 6.57863 20.0986C6.57863 21.5431 7.02808 22.9518 7.86465 24.1294C8.70122 25.307 9.88346 26.1951 11.2474 26.6706C12.6114 27.1461 14.0896 27.1854 15.4769 26.7831C16.8643 26.3808 18.092 25.5568 18.99 24.4253ZM16.3444 24.6353C17.2947 24.6408 18.2218 24.3418 18.9899 23.7824C19.0023 23.7824 19.0023 23.8565 19.0023 23.8565C18.3879 24.4775 17.6294 24.9367 16.7943 25.1931C15.9593 25.4496 15.0737 25.4953 14.2167 25.3262C13.3597 25.157 12.5579 24.7784 11.8829 24.2239C11.2079 23.6695 10.6806 22.9566 10.3482 22.1488C10.0158 21.341 9.88851 20.4635 9.97779 19.5945C10.0671 18.7255 10.3701 17.8922 10.8598 17.1689C11.3496 16.4456 12.0108 15.8547 12.7845 15.4491C13.5581 15.0436 14.4202 14.8359 15.2937 14.8445C15.9857 14.8504 16.6697 14.9932 17.3062 15.2648C17.9427 15.5364 18.5192 15.9314 19.0023 16.4269C18.2319 15.8613 17.3002 15.5579 16.3444 15.5615C15.1412 15.5615 13.9872 16.0395 13.1364 16.8904C12.2855 17.7412 11.8075 18.8952 11.8075 20.0984C11.8075 21.3017 12.2855 22.4557 13.1364 23.3065C13.9872 24.1573 15.1412 24.6353 16.3444 24.6353ZM17.1585 21.214C17.4316 21.042 17.6339 20.7778 17.7287 20.4693H20.2011C20.0999 21.4132 19.6405 22.2823 18.9177 22.8977C18.1948 23.513 17.2635 23.8277 16.3156 23.777C15.3676 23.7263 14.4752 23.3141 13.8221 22.6251C13.169 21.9362 12.805 21.023 12.805 20.0737C12.805 19.1244 13.169 18.2112 13.8221 17.5223C14.4752 16.8333 15.3676 16.4211 16.3156 16.3704C17.2635 16.3197 18.1948 16.6344 18.9177 17.2498C19.6405 17.8651 20.0999 18.7342 20.2011 19.6781H17.7287C17.6339 19.3696 17.4316 19.1054 17.1585 18.9334C16.8855 18.7615 16.5597 18.6933 16.2406 18.7412C15.9214 18.7891 15.6301 18.9499 15.4195 19.1944C15.2089 19.439 15.0931 19.751 15.0931 20.0737C15.0931 20.3964 15.2089 20.7084 15.4195 20.953C15.6301 21.1975 15.9214 21.3583 16.2406 21.4062C16.5597 21.4541 16.8855 21.3859 17.1585 21.214Z" fill="#FF337C"/>
<path d="M21.3135 11.0517L22.1074 11.0517L21.3135 11.0517ZM26.4404 8.52099L26.9514 7.91352L26.4404 8.52099ZM29.1119 11.8059L25.9293 9.12847L26.9514 7.91352L30.134 10.591L29.1119 11.8059ZM25.9301 14.8877L29.1119 12.2109L30.134 13.4258L26.9522 16.1027L25.9301 14.8877ZM22.372 13.2283L24.2349 13.2283L24.2349 14.816L22.372 14.816L22.372 13.2283ZM22.1074 11.0517L22.1074 12.9636L20.5196 12.9636L20.5196 11.0517L22.1074 11.0517ZM24.2354 10.7871L22.372 10.7871L22.372 9.19939L24.2354 9.19939L24.2354 10.7871ZM24.2354 9.19939C24.2576 9.19939 24.2756 9.1814 24.2756 9.15921L25.8633 9.15921C25.8633 10.0583 25.1344 10.7871 24.2354 10.7871L24.2354 9.19939ZM20.5196 11.0517C20.5196 10.0287 21.349 9.19939 22.372 9.19939L22.372 10.7871C22.2258 10.7871 22.1074 10.9056 22.1074 11.0517L20.5196 11.0517ZM22.372 14.816C21.349 14.816 20.5196 13.9867 20.5196 12.9636L22.1074 12.9636C22.1074 13.1098 22.2258 13.2283 22.372 13.2283L22.372 14.816ZM24.2756 14.8566C24.2756 14.8342 24.2574 14.816 24.2349 14.816L24.2349 13.2283C25.1342 13.2283 25.8633 13.9573 25.8633 14.8566L24.2756 14.8566ZM26.9522 16.1027C25.893 16.9937 24.2756 16.2407 24.2756 14.8566L25.8633 14.8566C25.8633 14.8673 25.8647 14.8726 25.8652 14.8742C25.8657 14.8759 25.8663 14.8771 25.8671 14.8783C25.8692 14.8814 25.8752 14.8881 25.8867 14.8934C25.8983 14.8988 25.9073 14.8991 25.9109 14.8987C25.9124 14.8986 25.9137 14.8983 25.9154 14.8975C25.9169 14.8969 25.9219 14.8946 25.9301 14.8877L26.9522 16.1027ZM25.9293 9.12847C25.9211 9.12161 25.9162 9.11934 25.9147 9.11872C25.9131 9.11801 25.9118 9.11772 25.9104 9.11756C25.9069 9.11717 25.898 9.11745 25.8865 9.12279C25.875 9.12813 25.8691 9.13477 25.8671 9.13774C25.8663 9.13894 25.8657 9.14006 25.8652 9.14178C25.8647 9.1433 25.8633 9.14855 25.8633 9.15921L24.2756 9.15921C24.2756 7.77547 25.8925 7.02271 26.9514 7.91352L25.9293 9.12847ZM30.134 10.591C31.0138 11.3311 31.0138 12.6857 30.134 13.4258L29.1119 12.2109C29.2376 12.1052 29.2376 11.9117 29.1119 11.8059L30.134 10.591Z" fill="#FF337C"/>
<path d="M13.7928 5.86028L16.9754 3.18284L15.9532 1.96789L12.7707 4.64534L13.7928 5.86028ZM16.9746 8.94208L13.7928 6.26527L12.7707 7.48021L15.9525 10.157L16.9746 8.94208ZM20.5327 7.28264L18.6697 7.28264L18.6697 8.87034L20.5327 8.87034L20.5327 7.28264ZM20.7973 5.10609L20.7973 7.01802L22.385 7.01802L22.385 5.10609L20.7973 5.10609ZM18.6693 4.84147L20.5327 4.84147L20.5327 3.25376L18.6693 3.25376L18.6693 4.84147ZM18.6693 3.25376C18.6471 3.25376 18.6291 3.23577 18.6291 3.21358L17.0414 3.21358C17.0414 4.11264 17.7702 4.84147 18.6693 4.84147L18.6693 3.25376ZM22.385 5.10609C22.385 4.08308 21.5557 3.25376 20.5327 3.25376L20.5327 4.84147C20.6788 4.84147 20.7973 4.95994 20.7973 5.10609L22.385 5.10609ZM20.5327 8.87034C21.5557 8.87034 22.385 8.04103 22.385 7.01802L20.7973 7.01802C20.7973 7.16416 20.6788 7.28264 20.5327 7.28264L20.5327 8.87034ZM18.6291 8.91098C18.6291 8.88854 18.6473 8.87034 18.6697 8.87034L18.6697 7.28264C17.7704 7.28264 17.0414 8.01167 17.0414 8.91098L18.6291 8.91098ZM15.9525 10.157C17.0117 11.0481 18.6291 10.2951 18.6291 8.91098L17.0414 8.91098C17.0414 8.92169 17.0399 8.92699 17.0395 8.92855C17.0389 8.93031 17.0383 8.93147 17.0375 8.9327C17.0355 8.93575 17.0295 8.94244 17.0179 8.94782C17.0064 8.9532 16.9974 8.95349 16.9937 8.95309C16.9923 8.95292 16.991 8.95262 16.9893 8.9519C16.9878 8.95126 16.9828 8.94897 16.9746 8.94208L15.9525 10.157ZM16.9754 3.18284C16.9835 3.17598 16.9885 3.17371 16.9899 3.17309C16.9916 3.17238 16.9928 3.17209 16.9942 3.17193C16.9978 3.17154 17.0067 3.17182 17.0182 3.17716C17.0297 3.1825 17.0356 3.18914 17.0376 3.19211C17.0384 3.19331 17.039 3.19443 17.0395 3.19615C17.0399 3.19767 17.0414 3.20293 17.0414 3.21358L18.6291 3.21358C18.6291 1.82984 17.0121 1.07708 15.9532 1.96789L16.9754 3.18284ZM12.7707 4.64534C11.8909 5.38551 11.8909 6.74004 12.7707 7.48021L13.7928 6.26527C13.6671 6.15953 13.6671 5.96602 13.7928 5.86028L12.7707 4.64534Z" fill="#FF337C"/>
</svg>
