<svg width="24" height="24" viewBox="0 0 24 24" fill="none" xmlns="http://www.w3.org/2000/svg">
<circle cx="12.1115" cy="12.1076" r="8.88889" stroke="#217DC1"/>
<path fill-rule="evenodd" clip-rule="evenodd" d="M10.8362 9.26443C10.484 9.52835 10.3249 9.84467 10.3249 10.1399C10.3249 10.4358 10.484 10.7521 10.8362 11.0166C11.1889 11.2812 11.7052 11.464 12.3027 11.464C12.4722 11.464 12.6347 11.5313 12.7546 11.6511C12.8744 11.771 12.9417 11.9335 12.9417 12.103C12.9417 12.2725 12.8744 12.435 12.7546 12.5549C12.6347 12.6747 12.4722 12.742 12.3027 12.742C11.4554 12.742 10.6636 12.4851 10.0693 12.0391C9.47502 11.593 9.04688 10.9285 9.04688 10.1405C9.04688 9.35198 9.47502 8.68739 10.0693 8.24135C10.6636 7.79595 11.456 7.53906 12.3027 7.53906C13.6146 7.53906 14.855 8.16723 15.3483 9.21331C15.3841 9.28926 15.4046 9.37151 15.4086 9.45537C15.4126 9.53923 15.4 9.62306 15.3717 9.70207C15.3433 9.78108 15.2996 9.85373 15.2431 9.91586C15.1866 9.97799 15.1185 10.0284 15.0425 10.0642C14.9666 10.1 14.8843 10.1204 14.8005 10.1245C14.7166 10.1285 14.6328 10.1159 14.5538 10.0875C14.4748 10.0591 14.4021 10.0154 14.34 9.95897C14.2779 9.9025 14.2275 9.83435 14.1917 9.7584C13.968 9.28105 13.2702 8.81712 12.3034 8.81712C11.7059 8.81712 11.1889 8.99988 10.8362 9.26443Z" fill="#217DC1"/>
<path fill-rule="evenodd" clip-rule="evenodd" d="M13.3877 14.8066C13.7398 14.5526 13.8982 14.2482 13.8982 13.964C13.8982 13.6793 13.7398 13.3743 13.387 13.1203C13.0349 12.8657 12.5179 12.6898 11.9211 12.6898C11.7516 12.6898 11.5891 12.625 11.4692 12.5097C11.3494 12.3943 11.2821 12.2379 11.2821 12.0748C11.2821 11.9117 11.3494 11.7553 11.4692 11.6399C11.5891 11.5246 11.7516 11.4598 11.9211 11.4598C12.7684 11.4598 13.5602 11.707 14.1545 12.1363C14.7488 12.5656 15.1763 13.2051 15.1763 13.9634C15.1763 14.7217 14.7488 15.3619 14.1538 15.7906C13.5596 16.2198 12.7684 16.4671 11.9211 16.4671C10.6092 16.4671 9.36818 15.8625 8.87549 14.8552C8.8032 14.7076 8.79478 14.5385 8.85206 14.385C8.90935 14.2315 9.02765 14.1062 9.18094 14.0366C9.33424 13.9671 9.50997 13.9589 9.66948 14.0141C9.82898 14.0692 9.9592 14.1831 10.0315 14.3306C10.2564 14.7906 10.9542 15.2371 11.9211 15.2371C12.5186 15.2371 13.0349 15.0612 13.3877 14.8066ZM12.0093 6.45312C12.1788 6.45312 12.3413 6.51792 12.4611 6.63325C12.581 6.74859 12.6483 6.90501 12.6483 7.06812V7.68311C12.6483 7.84622 12.581 8.00265 12.4611 8.11798C12.3413 8.23331 12.1788 8.29811 12.0093 8.29811C11.8398 8.29811 11.6773 8.23331 11.5574 8.11798C11.4376 8.00265 11.3702 7.84622 11.3702 7.68311V7.06812C11.3702 6.90501 11.4376 6.74859 11.5574 6.63325C11.6773 6.51792 11.8398 6.45312 12.0093 6.45312Z" fill="#217DC1"/>
<path fill-rule="evenodd" clip-rule="evenodd" d="M12.182 15.8516C12.3515 15.8516 12.514 15.9189 12.6339 16.0387C12.7537 16.1586 12.821 16.3211 12.821 16.4906V17.1296C12.821 17.2991 12.7537 17.4616 12.6339 17.5815C12.514 17.7013 12.3515 17.7686 12.182 17.7686C12.0125 17.7686 11.85 17.7013 11.7301 17.5815C11.6103 17.4616 11.543 17.2991 11.543 17.1296V16.4906C11.543 16.3211 11.6103 16.1586 11.7301 16.0387C11.85 15.9189 12.0125 15.8516 12.182 15.8516Z" fill="#217DC1"/>
</svg>
