<svg width="50" height="50" viewBox="0 0 50 50" fill="none" xmlns="http://www.w3.org/2000/svg">
<path d="M25 46C36.598 46 46 36.598 46 25C46 13.402 36.598 4 25 4C13.402 4 4 13.402 4 25C4 36.598 13.402 46 25 46Z" fill="#4D4D4D"/>
<path d="M16.671 15.1864L13.8789 17.7841L13.1927 17.1402C12.8141 16.7849 12.2226 16.7849 11.844 17.1402C11.4654 17.4954 11.4654 18.0505 11.844 18.4057L13.2164 19.6935C13.4057 19.8711 13.6423 19.9599 13.8789 19.9599C14.1392 19.9599 14.3758 19.8711 14.5415 19.6935L17.9961 16.4519C18.3747 16.0967 18.3747 15.5416 17.9961 15.1864C17.6412 14.8311 17.026 14.8311 16.671 15.1864Z" fill="#C5C5C4"/>
<path d="M16.671 22.7269L13.8789 25.3453L13.1927 24.7018C12.8141 24.3468 12.2226 24.3468 11.844 24.7018C11.4654 25.0569 11.4654 25.6116 11.844 25.9667L13.2164 27.2537C13.4057 27.4312 13.6423 27.52 13.8789 27.52C14.1392 27.52 14.3758 27.4312 14.5415 27.2537L17.9961 24.0139C18.3747 23.6589 18.3747 23.1041 17.9961 22.7491C17.6412 22.3941 17.026 22.3941 16.671 22.7269Z" fill="#C5C5C4"/>
<path d="M16.671 31.1426L13.8789 33.7524L13.1927 33.111C12.8141 32.7571 12.2226 32.7571 11.844 33.111C11.4654 33.4649 11.4654 34.0178 11.844 34.3717L13.2164 35.6545C13.4057 35.8314 13.6423 35.9199 13.8789 35.9199C14.1156 35.9199 14.3758 35.8314 14.5415 35.6545L17.9961 32.4254C18.3747 32.0715 18.3747 31.5186 17.9961 31.1647C17.6412 30.7887 17.026 30.7887 16.671 31.1426Z" fill="#C5C5C4"/>
<path d="M21.64 17.4399H36.76" stroke="#C5C5C4" stroke-width="2.68293" stroke-miterlimit="10" stroke-linecap="round"/>
<path d="M21.64 25H36.76" stroke="#C5C5C4" stroke-width="2.68293" stroke-miterlimit="10" stroke-linecap="round"/>
<path d="M21.64 33.3999H36.76" stroke="#C5C5C4" stroke-width="2.68293" stroke-miterlimit="10" stroke-linecap="round"/>
</svg>
