<svg width="51" height="50" viewBox="0 0 51 50" fill="none" xmlns="http://www.w3.org/2000/svg">
<path d="M25.75 46C37.348 46 46.75 36.598 46.75 25C46.75 13.402 37.348 4 25.75 4C14.152 4 4.75 13.402 4.75 25C4.75 36.598 14.152 46 25.75 46Z" fill="#EDEEEE"/>
<path d="M17.421 15.1864L14.6289 17.7841L13.9427 17.1402C13.5641 16.785 12.9725 16.785 12.5939 17.1402C12.2153 17.4955 12.2153 18.0506 12.5939 18.4058L13.9663 19.6936C14.1556 19.8712 14.3923 19.96 14.6289 19.96C14.8892 19.96 15.1258 19.8712 15.2914 19.6936L18.7461 16.452C19.1246 16.0967 19.1246 15.5417 18.7461 15.1864C18.3911 14.8312 17.7759 14.8312 17.421 15.1864Z" fill="#4D4D4D"/>
<path d="M17.421 22.7269L14.6289 25.3453L13.9427 24.7018C13.5641 24.3467 12.9725 24.3467 12.5939 24.7018C12.2153 25.0568 12.2153 25.6116 12.5939 25.9666L13.9663 27.2536C14.1556 27.4312 14.3923 27.5199 14.6289 27.5199C14.8892 27.5199 15.1258 27.4312 15.2914 27.2536L18.7461 24.0139C19.1246 23.6588 19.1246 23.1041 18.7461 22.749C18.3911 22.394 17.7759 22.394 17.421 22.7269Z" fill="#4D4D4D"/>
<path d="M17.421 31.1426L14.6289 33.7525L13.9427 33.1111C13.5641 32.7572 12.9725 32.7572 12.5939 33.1111C12.2153 33.4649 12.2153 34.0179 12.5939 34.3717L13.9663 35.6545C14.1556 35.8315 14.3923 35.9199 14.6289 35.9199C14.8655 35.9199 15.1258 35.8315 15.2914 35.6545L18.7461 32.4254C19.1246 32.0716 19.1246 31.5186 18.7461 31.1648C18.3911 30.7888 17.7759 30.7888 17.421 31.1426Z" fill="#4D4D4D"/>
<path d="M22.39 17.4399H37.51" stroke="#4D4D4D" stroke-width="2.68293" stroke-miterlimit="10" stroke-linecap="round"/>
<path d="M22.39 24.9999H37.51" stroke="#4D4D4D" stroke-width="2.68293" stroke-miterlimit="10" stroke-linecap="round"/>
<path d="M22.39 33.4H37.51" stroke="#4D4D4D" stroke-width="2.68293" stroke-miterlimit="10" stroke-linecap="round"/>
</svg>
