<svg width="32" height="32" viewBox="0 0 32 32" fill="none" xmlns="http://www.w3.org/2000/svg">
<path fill-rule="evenodd" clip-rule="evenodd" d="M8.10109 22.2C8.08447 22.1988 8.06777 22.1979 8.05099 22.1973C5.91142 22.1194 4.20005 20.3592 4.20005 18.2C4.20005 16.1603 5.72791 14.4754 7.7009 14.2307C8.3565 14.1494 8.86604 13.6208 8.92331 12.9627C9.19447 9.84612 11.8124 7.4 15.0001 7.4C17.6072 7.4 19.8357 9.03623 20.708 11.3426C20.9361 11.9458 21.5468 12.3151 22.1869 12.2371C22.3873 12.2127 22.5919 12.2 22.8 12.2C25.5615 12.2 27.8 14.4386 27.8 17.2C27.8 19.3646 26.4246 21.2079 24.5 21.9036V23.3718C27.2095 22.6271 29.2001 20.146 29.2001 17.2C29.2001 13.6654 26.3347 10.8 22.8 10.8C22.5351 10.8 22.2739 10.8161 22.0175 10.8474C20.946 8.0144 18.2083 6 15.0001 6C11.0799 6 7.86213 9.00768 7.52858 12.8413C4.86311 13.1719 2.80005 15.445 2.80005 18.2C2.80005 21.1154 5.11037 23.4912 8.00005 23.5964V23.6H8.20005H9.40005H11.5V22.2H8.20005H8.10109Z" fill="#B9964B"/>
<path d="M17.505 26.895C17.7784 27.1683 18.2216 27.1683 18.495 26.895L22.9497 22.4402C23.2231 22.1668 23.2231 21.7236 22.9497 21.4502C22.6764 21.1769 22.2332 21.1769 21.9598 21.4502L18 25.41L14.0402 21.4502C13.7668 21.1769 13.3236 21.1769 13.0503 21.4502C12.7769 21.7236 12.7769 22.1668 13.0503 22.4402L17.505 26.895ZM18.7 14.8C18.7 14.4134 18.3866 14.1 18 14.1C17.6134 14.1 17.3 14.4134 17.3 14.8L18.7 14.8ZM18.7 26.4L18.7 14.8L17.3 14.8L17.3 26.4L18.7 26.4Z" fill="#B9964B"/>
</svg>
