<svg width="24" height="24" viewBox="0 0 24 24" fill="none" xmlns="http://www.w3.org/2000/svg">
<path d="M7.32008 19.9803C7.02008 19.9803 6.78008 19.7403 6.75008 19.4703L6.48008 16.6203C6.45008 16.3203 6.69008 16.0203 6.99008 15.9903L9.84008 15.7203C9.99008 15.7203 10.1401 15.7503 10.2601 15.8403C10.3801 15.9303 10.4401 16.0803 10.4701 16.2303C10.5001 16.5303 10.2601 16.8303 9.96008 16.8603L8.43008 17.0103C9.48008 17.7903 10.7401 18.2103 12.0601 18.2103C13.5601 18.2103 15.0301 17.6403 16.1401 16.6503C17.7901 15.1503 18.5101 12.8703 17.9701 10.6803C17.9401 10.5303 17.9701 10.3803 18.0301 10.2603C18.1201 10.1403 18.2401 10.0503 18.3901 9.99026C18.6901 9.90026 18.9901 10.1103 19.0801 10.4103C19.7101 12.9903 18.8701 15.6903 16.8901 17.4903C15.5401 18.6903 13.8301 19.3503 12.0301 19.3503C11.9101 19.3503 11.7901 19.3503 11.6701 19.3503C10.2301 19.2903 8.88008 18.7803 7.74008 17.9403L7.86008 19.3503C7.89008 19.6503 7.65008 19.9503 7.35008 19.9803C7.38008 19.9803 7.35008 19.9803 7.32008 19.9803Z" fill="#808080"/>
<path d="M5.46023 14.04C5.19023 14.04 4.98023 13.86 4.92023 13.62C4.29023 11.04 5.13023 8.34002 7.11023 6.54002C8.55023 5.25002 10.3802 4.59002 12.3302 4.68002C13.8002 4.74002 15.1502 5.25002 16.2902 6.12002L16.2002 4.62002C16.2002 4.47002 16.2602 4.32002 16.3502 4.20002C16.4402 4.08002 16.5902 4.02002 16.7402 4.02002C16.8902 4.02002 17.0402 4.08002 17.1602 4.17002C17.2802 4.26002 17.3402 4.41002 17.3402 4.56002L17.4602 7.44002C17.4602 7.74002 17.2202 7.98002 16.9202 8.01002L14.0702 8.13002C13.7402 8.13002 13.5002 7.89002 13.4702 7.59002C13.4702 7.44002 13.5302 7.29002 13.6202 7.17002C13.7102 7.05002 13.8602 6.99002 14.0102 6.99002L15.4802 6.93002C13.1702 5.28002 9.96023 5.46002 7.83023 7.38002C6.18023 8.88002 5.46023 11.16 6.00023 13.35C6.09023 13.65 5.88023 13.95 5.58023 14.04C5.55023 14.04 5.52023 14.04 5.46023 14.04Z" fill="#808080"/>
</svg>
