<svg width="32" height="32" viewBox="0 0 32 32" fill="none" xmlns="http://www.w3.org/2000/svg">
<path d="M5 9C5 6.79086 6.79086 5 9 5H26C26.5523 5 27 5.44772 27 6V23C27 25.2091 25.2091 27 23 27H6C5.44772 27 5 26.5523 5 26V9Z" stroke="#F69234" stroke-width="1.5" stroke-linecap="round"/>
<path d="M9.73083 11.1671H14.7308" stroke="#F69234" stroke-width="1.5" stroke-linecap="round" stroke-linejoin="round"/>
<path d="M12.2284 8.66711L12.2284 13.6671" stroke="#F69234" stroke-width="1.5" stroke-linecap="round" stroke-linejoin="round"/>
<path d="M9.99475 17.5605L14.4688 22.0345" stroke="#F69234" stroke-width="1.5" stroke-linecap="round" stroke-linejoin="round"/>
<path d="M14.4658 17.5582L9.99181 22.0322" stroke="#F69234" stroke-width="1.5" stroke-linecap="round" stroke-linejoin="round"/>
<path d="M18.3051 11.1671H23.3051" stroke="#F69234" stroke-width="1.5" stroke-linecap="round" stroke-linejoin="round"/>
<path d="M20.0554 17.3073L20.0554 17.3073C19.8521 17.4597 19.7786 17.6271 19.7786 17.7641C19.7786 17.9014 19.8521 18.0689 20.0554 18.2217C20.2595 18.3747 20.5674 18.4864 20.9316 18.4864C20.9884 18.4864 21.0442 18.4948 21.0975 18.511C21.5256 18.5719 21.9207 18.7257 22.2391 18.9557C22.6584 19.2586 22.9745 19.7209 22.9745 20.2811C22.9745 20.8411 22.6585 21.3039 22.2387 21.6064C22.0028 21.7768 21.7249 21.9054 21.4227 21.9854V22.3654C21.4227 22.5169 21.3625 22.6621 21.2554 22.7692C21.1483 22.8763 21.0031 22.9364 20.8516 22.9364C20.7002 22.9364 20.555 22.8763 20.4479 22.7692C20.3408 22.6621 20.2806 22.5169 20.2806 22.3654V22.0533C19.5277 21.9501 18.8431 21.5569 18.5387 20.9346C18.5387 20.9345 18.5387 20.9345 18.5386 20.9345L18.6734 20.8686C18.6258 20.7714 18.6202 20.66 18.658 20.5588C18.6957 20.4577 18.7736 20.3751 18.8746 20.3293C18.9756 20.2835 19.0914 20.2781 19.1965 20.3144C19.3016 20.3508 19.3874 20.4258 19.435 20.523L20.0554 17.3073ZM20.0554 17.3073C20.2595 17.1542 20.5678 17.0426 20.9321 17.0426C21.528 17.0426 21.9242 17.3285 22.0403 17.5764L22.0404 17.5767C22.0724 17.6445 22.1175 17.7054 22.173 17.7559C22.2285 17.8063 22.2934 17.8453 22.364 17.8707C22.4346 17.8961 22.5095 17.9073 22.5844 17.9037C22.6593 17.9001 22.7328 17.8818 22.8006 17.8499C22.8685 17.8179 22.9294 17.7728 22.9798 17.7173C23.0303 17.6618 23.0693 17.5969 23.0947 17.5263C23.1201 17.4557 23.1313 17.3808 23.1277 17.3059C23.1241 17.231 23.1058 17.1575 23.0738 17.0897L23.0738 17.0896C22.7671 16.4393 22.0726 16.0282 21.309 15.9258M20.0554 17.3073L21.309 15.9258M21.309 15.9258V15.7383C21.309 15.5892 21.2474 15.4474 21.1397 15.3437C21.0322 15.2403 20.8876 15.1831 20.738 15.1831C20.5884 15.1831 20.4438 15.2403 20.3363 15.3437C20.2286 15.4474 20.167 15.5892 20.167 15.7383V16.0053C19.8721 16.0888 19.6009 16.2204 19.3703 16.3932L19.3702 16.3933C18.9506 16.7082 18.6366 17.1869 18.6366 17.7645C18.6366 18.3417 18.9506 18.8203 19.3702 19.1352C19.7901 19.4504 20.3441 19.6284 20.9316 19.6284C20.9584 19.6284 20.9851 19.6265 21.0113 19.6228L21.309 15.9258Z" fill="#F69234" stroke="#F69234" stroke-width="0.3"/>
</svg>
