<svg width="133" height="32" viewBox="0 0 133 32" fill="none" xmlns="http://www.w3.org/2000/svg">
<g clip-path="url(#clip0_24896_41774)">
<path fill-rule="evenodd" clip-rule="evenodd" d="M15.0836 24.112C16.734 23.6958 18.2182 22.7859 19.3378 21.5038V21.5444C18.1514 23.3361 16.4194 24.698 14.3983 25.4283C12.3773 26.1586 10.1748 26.2184 8.11712 25.5989C6.05943 24.9794 4.25605 23.7135 2.97414 21.9888C1.69223 20.2641 1 18.1724 1 16.0234C1 13.8745 1.69223 11.7828 2.97414 10.0581C4.25605 8.33338 6.05943 7.06751 8.11712 6.448C10.1748 5.82849 12.3773 5.88831 14.3983 6.61858C16.4194 7.34886 18.1514 8.71074 19.3378 10.5025C18.2182 9.22039 16.734 8.31049 15.0836 7.89431C13.4331 7.47814 11.695 7.5755 10.1013 8.1734C8.50769 8.7713 7.13443 9.84126 6.16502 11.2403C5.19561 12.6394 4.67621 14.301 4.67621 16.0031C4.67621 17.7053 5.19561 19.3668 6.16502 20.7659C7.13443 22.165 8.50769 23.235 10.1013 23.8329C11.695 24.4308 13.4331 24.5281 15.0836 24.112ZM19.3111 20.719C18.3908 21.5673 17.2433 22.129 16.0088 22.3356C14.7744 22.5422 13.5065 22.3847 12.3601 21.8823C11.2138 21.3799 10.2386 20.5544 9.55387 19.5067C8.86914 18.459 8.50448 17.2345 8.50448 15.9828C8.50448 14.7312 8.86914 13.5067 9.55387 12.459C10.2386 11.4113 11.2138 10.5858 12.3601 10.0834C13.5065 9.581 14.7744 9.42347 16.0088 9.63006C17.2433 9.83666 18.3908 10.3984 19.3111 11.2467C18.3281 10.0082 16.9842 9.10625 15.4656 8.66588C13.947 8.22551 12.329 8.26855 10.8359 8.78904C9.34287 9.30953 8.04876 10.2817 7.13304 11.5707C6.21731 12.8597 5.72534 14.4017 5.72534 15.9828C5.72534 17.564 6.21731 19.106 7.13304 20.395C8.04876 21.684 9.34287 22.6562 10.8359 23.1766C12.329 23.6971 13.947 23.7402 15.4656 23.2998C16.9842 22.8594 18.3281 21.9575 19.3111 20.719ZM16.4153 20.949C17.4555 20.9549 18.4702 20.6277 19.3111 20.0153C19.3246 20.0153 19.3246 20.0965 19.3246 20.0965C18.6521 20.7762 17.8218 21.2788 16.9077 21.5595C15.9937 21.8402 15.0243 21.8903 14.0863 21.7052C13.1482 21.52 12.2705 21.1055 11.5316 20.4987C10.7927 19.8918 10.2156 19.1114 9.85167 18.2272C9.48779 17.3429 9.3485 16.3824 9.44622 15.4312C9.54395 14.48 9.87566 13.5678 10.4117 12.7761C10.9478 11.9843 11.6716 11.3376 12.5185 10.8936C13.3653 10.4497 14.3089 10.2223 15.2651 10.2318C16.0226 10.2382 16.7713 10.3946 17.468 10.6919C18.1648 10.9891 18.7958 11.4215 19.3246 11.9639C18.4813 11.3447 17.4615 11.0127 16.4153 11.0166C15.0982 11.0166 13.835 11.5399 12.9037 12.4712C11.9723 13.4025 11.4491 14.6657 11.4491 15.9828C11.4491 17.2999 11.9723 18.5631 12.9037 19.4944C13.835 20.4258 15.0982 20.949 16.4153 20.949ZM17.3069 17.2038C17.6058 17.0156 17.8272 16.7264 17.9309 16.3887H20.6373C20.5265 17.4219 20.0236 18.3732 19.2324 19.0468C18.4412 19.7204 17.4217 20.0649 16.3841 20.0094C15.3465 19.9539 14.3696 19.5026 13.6547 18.7485C12.9399 17.9943 12.5414 16.9948 12.5414 15.9557C12.5414 14.9165 12.9399 13.917 13.6547 13.1628C14.3696 12.4087 15.3465 11.9574 16.3841 11.9019C17.4217 11.8464 18.4412 12.1909 19.2324 12.8645C20.0236 13.5381 20.5265 14.4895 20.6373 15.5226H17.9309C17.8272 15.185 17.6058 14.8957 17.3069 14.7075C17.0079 14.5193 16.6514 14.4446 16.302 14.497C15.9527 14.5495 15.6338 14.7255 15.4033 14.9932C15.1728 15.2609 15.046 15.6024 15.046 15.9557C15.046 16.3089 15.1728 16.6504 15.4033 16.9181C15.6338 17.1858 15.9527 17.3619 16.302 17.4143C16.6514 17.4667 17.0079 17.392 17.3069 17.2038Z" fill="#B9964B"/>
<path fill-rule="evenodd" clip-rule="evenodd" d="M49.9195 10.0576H55.1157C55.2404 10.0673 55.3573 10.1221 55.4445 10.2118C55.5316 10.3015 55.5831 10.4198 55.5893 10.5447V12.8316C55.586 12.931 55.545 13.0254 55.4746 13.0958C55.4043 13.1661 55.3099 13.2071 55.2105 13.2105H54.3444C54.2439 13.2105 54.1476 13.1706 54.0765 13.0995C54.0055 13.0285 53.9655 12.9321 53.9655 12.8316V11.4784C53.9589 11.4294 53.9347 11.3845 53.8973 11.3521C53.8599 11.3197 53.812 11.3021 53.7626 11.3025H43.952C43.9114 11.3025 43.8167 11.4108 43.8167 11.4108V12.8316C43.8133 12.931 43.7723 13.0254 43.702 13.0958C43.6316 13.1661 43.5372 13.2071 43.4378 13.2105H42.5718C42.4713 13.2105 42.3749 13.1706 42.3038 13.0995C42.2328 13.0285 42.1929 12.9321 42.1929 12.8316V10.5718C42.1929 10.4354 42.247 10.3046 42.3435 10.2082C42.4399 10.1117 42.5707 10.0576 42.7071 10.0576H47.8762L47.3079 9.01562H49.3377C49.5121 9.37347 49.7064 9.72132 49.9195 10.0576ZM52.8021 11.9656H45.0078C44.7985 11.9656 44.6289 12.1352 44.6289 12.3445V12.8045C44.6289 13.0138 44.7985 13.1834 45.0078 13.1834H52.8021C53.0114 13.1834 53.181 13.0138 53.181 12.8045V12.3445C53.181 12.1352 53.0114 11.9656 52.8021 11.9656ZM43.9254 16.3769V14.3066C43.9254 14.1702 43.9796 14.0394 44.076 13.943C44.1725 13.8465 44.3032 13.7924 44.4396 13.7924H53.2488C53.3852 13.7924 53.516 13.8465 53.6124 13.943C53.7089 14.0394 53.763 14.1702 53.763 14.3066V16.3769C53.7632 16.5087 53.7128 16.6356 53.6221 16.7313C53.5315 16.827 53.4075 16.8842 53.2759 16.8911H44.4396C44.3032 16.8911 44.1725 16.837 44.076 16.7405C43.9796 16.6441 43.9254 16.5133 43.9254 16.3769ZM52.2204 15.6056V15.1049C52.2206 15.082 52.2125 15.0597 52.1976 15.0423C52.1827 15.0249 52.1619 15.0135 52.1392 15.0102H45.644C45.6212 15.0135 45.6005 15.0249 45.5856 15.0423C45.5706 15.0597 45.5625 15.082 45.5628 15.1049V15.6056C45.5625 15.6286 45.5706 15.6508 45.5856 15.6682C45.6005 15.6857 45.6212 15.6971 45.644 15.7003H52.1392C52.1619 15.6971 52.1827 15.6857 52.1976 15.6682C52.2125 15.6508 52.2206 15.6286 52.2204 15.6056ZM43.303 17.4865H54.4667C54.5561 17.4842 54.645 17.5009 54.7275 17.5353C54.8101 17.5698 54.8844 17.6212 54.9457 17.6864C55.007 17.7515 55.0539 17.8288 55.0832 17.9133C55.1126 17.9978 55.1239 18.0875 55.1162 18.1766V22.2361C55.1092 22.4024 55.0372 22.5594 54.9158 22.6732C54.7943 22.7871 54.6331 22.8488 54.4667 22.8451H43.303C43.1307 22.8451 42.9655 22.7766 42.8437 22.6548C42.7219 22.533 42.6534 22.3678 42.6534 22.1955V18.136C42.6534 18.0507 42.6702 17.9662 42.7029 17.8874C42.7355 17.8086 42.7834 17.737 42.8437 17.6767C42.904 17.6164 42.9756 17.5685 43.0544 17.5359C43.1332 17.5033 43.2177 17.4865 43.303 17.4865ZM53.533 21.5325V20.8829H49.7035V21.7219H53.3165C53.3695 21.7223 53.4209 21.7033 53.4608 21.6684C53.5007 21.6334 53.5264 21.5851 53.533 21.5325ZM53.533 19.6245V18.9885V18.9614C53.5236 18.9185 53.4996 18.8802 53.465 18.853C53.4304 18.8259 53.3875 18.8116 53.3436 18.8126H49.7035V19.6245H53.533ZM48.1203 21.7219V20.8829H44.2908V21.5731C44.2889 21.5919 44.291 21.611 44.2969 21.629C44.3029 21.647 44.3125 21.6636 44.3253 21.6776C44.3381 21.6917 44.3536 21.7029 44.371 21.7105C44.3884 21.7181 44.4071 21.722 44.4261 21.7219H48.1203ZM48.1203 19.6245V18.8126L44.4261 18.7855C44.399 18.7855 44.2908 18.8938 44.2908 18.8938V19.6245H48.1203ZM39.5138 22.6692C38.3762 21.5478 37.4014 20.2724 36.618 18.8803C37.6082 17.1411 38.2257 15.2148 38.4312 13.224H39.2567C39.3153 13.2243 39.3734 13.2122 39.4272 13.1887C39.4809 13.1651 39.5291 13.1305 39.5686 13.0871C39.6081 13.0438 39.6381 12.9926 39.6567 12.9369C39.6752 12.8813 39.6818 12.8223 39.6761 12.7639V12.3038C39.6761 12.1926 39.632 12.0859 39.5533 12.0072C39.4746 11.9285 39.3679 11.8843 39.2567 11.8843H35.1971C35.346 11.3295 35.4678 10.7747 35.5625 10.2876C35.5625 10.191 35.591 10.0944 35.6184 10.0015C35.6332 9.95126 35.6477 9.90209 35.6572 9.85458L35.8061 9.23212H34.2228V9.3539C33.9116 11.2435 33.2994 13.0709 32.4096 14.7666C32.1152 13.9963 31.88 13.2046 31.7059 12.3986V12.2768H30.1092V12.4392C30.264 13.3017 30.4811 14.1519 30.7587 14.9831V15.0914H27.3487L29.4055 11.1672H32.3554C32.4099 11.1672 32.4638 11.1563 32.514 11.135C32.5641 11.1138 32.6095 11.0827 32.6474 11.0435C32.6853 11.0044 32.7149 10.958 32.7345 10.9072C32.7541 10.8564 32.7632 10.8021 32.7614 10.7477V10.247C32.7632 10.1926 32.7541 10.1383 32.7345 10.0875C32.7149 10.0367 32.6853 9.9903 32.6474 9.95116C32.6095 9.91202 32.5641 9.8809 32.514 9.85966C32.4638 9.83842 32.4099 9.82749 32.3554 9.82752H25.9143C25.8598 9.82749 25.8059 9.83842 25.7558 9.85966C25.7056 9.8809 25.6602 9.91202 25.6224 9.95116C25.5845 9.9903 25.5549 10.0367 25.5353 10.0875C25.5157 10.1383 25.5065 10.1926 25.5084 10.247V10.7477C25.5065 10.8021 25.5157 10.8564 25.5353 10.9072C25.5549 10.958 25.5845 11.0044 25.6224 11.0435C25.6602 11.0827 25.7056 11.1138 25.7558 11.135C25.8059 11.1563 25.8598 11.1672 25.9143 11.1672H27.6193L25.6301 14.9155C25.5503 15.0751 25.5088 15.2512 25.5088 15.4297C25.5088 15.6082 25.5503 15.7842 25.6301 15.9439C25.715 16.1024 25.8421 16.2344 25.9974 16.3251C26.1526 16.4159 26.3299 16.4619 26.5097 16.4581H28.2418V17.9195H26.415C26.3605 17.9195 26.3066 17.9304 26.2564 17.9517C26.2063 17.9729 26.1609 18.004 26.123 18.0432C26.0852 18.0823 26.0556 18.1287 26.036 18.1795C26.0164 18.2303 26.0072 18.2846 26.009 18.339V18.8262C26.0072 18.8806 26.0164 18.9348 26.036 18.9857C26.0556 19.0365 26.0852 19.0829 26.123 19.122C26.1609 19.1611 26.2063 19.1923 26.2564 19.2135C26.3066 19.2347 26.3605 19.2457 26.415 19.2456H28.2418V21.0589C27.4705 21.1807 25.9549 21.316 25.3189 21.3701H25.1836V22.9263H25.549L25.6253 22.9159C27.7902 22.6201 30.4445 22.2574 32.4908 21.7626H32.599V20.4094H32.4231C31.6789 20.5853 30.7722 20.7206 30.1092 20.8153H29.8791V19.2456H31.5977C31.76 19.2456 31.8954 19.0697 31.8954 18.8262V18.339C31.8954 18.0954 31.76 17.9195 31.5977 17.9195H29.8791V16.4581H30.8669L31.1241 15.8627L31.3541 16.431H33.0726C33.0726 16.431 32.6126 15.4703 32.4231 14.929H33.641C33.8904 16.2613 34.3183 17.554 34.913 18.772C34.0284 20.2046 32.9542 21.511 31.7195 22.6557L31.4218 22.9128H33.7222C34.3627 22.2965 34.9385 21.6164 35.4407 20.883L35.7519 20.45C36.2866 21.2928 36.8789 22.0976 37.5246 22.8586H39.7709L39.5138 22.6692ZM36.9021 13.1969C36.7428 14.5161 36.3823 15.803 35.8331 17.0129C35.4273 16.0387 35.1323 15.0219 34.9536 13.9818V13.86H34.4935V13.7382C34.5945 13.5634 34.6848 13.3826 34.7641 13.1969H36.9021ZM85.4927 15.0082C85.546 14.9549 85.5759 14.8826 85.5759 14.8072V10.4094C85.5759 10.3721 85.5833 10.3351 85.5975 10.3007C85.6118 10.2662 85.6327 10.2349 85.6591 10.2085C85.6855 10.1821 85.7168 10.1612 85.7513 10.1469C85.7858 10.1326 85.8228 10.1252 85.8601 10.1252H88.0928C88.1682 10.1252 88.2405 10.1552 88.2938 10.2085C88.347 10.2618 88.377 10.334 88.377 10.4094V22.588C88.377 22.6634 88.347 22.7357 88.2938 22.789C88.2405 22.8423 88.1682 22.8722 88.0928 22.8722H85.8601C85.7847 22.8722 85.7124 22.8423 85.6591 22.789C85.6058 22.7357 85.5759 22.6634 85.5759 22.588V17.7572C85.5759 17.6818 85.546 17.6095 85.4927 17.5562C85.4394 17.5029 85.3671 17.473 85.2917 17.473H78.9318C78.8564 17.473 78.7841 17.5029 78.7309 17.5562C78.6776 17.6095 78.6476 17.6818 78.6476 17.7572V22.6016C78.6443 22.6759 78.6133 22.7462 78.5607 22.7988C78.5081 22.8514 78.4378 22.8824 78.3635 22.8857H76.1307C76.054 22.8858 75.9803 22.8563 75.9248 22.8034C75.8694 22.7504 75.8365 22.6781 75.833 22.6016V10.4229C75.8365 10.3464 75.8694 10.2741 75.9248 10.2211C75.9803 10.1682 76.054 10.1387 76.1307 10.1388H78.3635C78.4378 10.1421 78.5081 10.1731 78.5607 10.2257C78.6133 10.2783 78.6443 10.3486 78.6476 10.4229V14.8072C78.6476 14.8826 78.6776 14.9549 78.7309 15.0082C78.7841 15.0615 78.8564 15.0914 78.9318 15.0914H85.2917C85.3671 15.0914 85.4394 15.0615 85.4927 15.0082ZM94.5072 10.1388H92.2744C92.1175 10.1388 91.9902 10.266 91.9902 10.423V22.588C91.9902 22.745 92.1175 22.8722 92.2744 22.8722H94.5072C94.6641 22.8722 94.7913 22.745 94.7913 22.588V10.423C94.7913 10.266 94.6641 10.1388 94.5072 10.1388ZM98.5044 22.7853C98.4519 22.7327 98.4209 22.6624 98.4175 22.588L98.377 10.423C98.3803 10.3487 98.4113 10.2783 98.4639 10.2257C98.5164 10.1731 98.5868 10.1421 98.6611 10.1388H108.959C109.033 10.1421 109.103 10.1731 109.156 10.2257C109.209 10.2783 109.24 10.3487 109.243 10.423V12.2227C109.24 12.2627 109.228 12.3016 109.209 12.3369C109.19 12.3722 109.164 12.4029 109.132 12.4272C109.1 12.4515 109.063 12.4688 109.024 12.4778C108.985 12.4869 108.944 12.4876 108.905 12.4798H101.476C101.4 12.4798 101.328 12.5097 101.275 12.563C101.222 12.6163 101.192 12.6886 101.192 12.764V14.8073C101.192 14.8826 101.222 14.9549 101.275 15.0082C101.328 15.0615 101.4 15.0914 101.476 15.0914H107.497C107.574 15.0949 107.646 15.1278 107.699 15.1833C107.752 15.2387 107.782 15.3125 107.782 15.3891V17.1889C107.778 17.2632 107.747 17.3335 107.695 17.3861C107.642 17.4387 107.572 17.4697 107.497 17.473H101.476C101.4 17.473 101.328 17.503 101.275 17.5563C101.222 17.6096 101.192 17.6818 101.192 17.7572V20.2065C101.192 20.2818 101.222 20.3541 101.275 20.4074C101.328 20.4607 101.4 20.4906 101.476 20.4906H108.945C109.02 20.4939 109.09 20.5249 109.143 20.5775C109.195 20.6301 109.226 20.7005 109.229 20.7748V22.588C109.226 22.6624 109.195 22.7327 109.143 22.7853C109.09 22.8379 109.02 22.8689 108.945 22.8722H98.7017C98.6274 22.8689 98.557 22.8379 98.5044 22.7853ZM123.275 12.5069C123.351 12.5069 123.423 12.4769 123.476 12.4236C123.53 12.3703 123.56 12.2981 123.56 12.2227V10.423C123.56 10.3476 123.53 10.2753 123.476 10.222C123.423 10.1687 123.351 10.1388 123.275 10.1388H113.045C112.97 10.1388 112.898 10.1687 112.844 10.222C112.791 10.2753 112.761 10.3476 112.761 10.423V22.6016C112.761 22.6769 112.791 22.7492 112.844 22.8025C112.898 22.8558 112.97 22.8857 113.045 22.8857H115.278C115.352 22.8824 115.423 22.8514 115.475 22.7988C115.528 22.7463 115.559 22.6759 115.562 22.6016V17.7572C115.562 17.6818 115.592 17.6096 115.646 17.5563C115.699 17.503 115.771 17.473 115.846 17.473H121.868C121.942 17.4697 122.013 17.4387 122.065 17.3861C122.118 17.3335 122.149 17.2632 122.152 17.1889V15.3891C122.152 15.3125 122.123 15.2387 122.07 15.1833C122.017 15.1278 121.945 15.0949 121.868 15.0914H115.846C115.771 15.0914 115.699 15.0615 115.646 15.0082C115.592 14.9549 115.562 14.8826 115.562 14.8073V12.764C115.562 12.6886 115.592 12.6163 115.646 12.563C115.699 12.5097 115.771 12.4798 115.846 12.4798L123.275 12.5069ZM69.5164 18.8005C69.5793 18.7725 69.6475 18.7582 69.7165 18.7585H72.707V18.8938C72.1327 20.2307 71.1737 21.3666 69.952 22.157C68.7304 22.9473 67.3012 23.3564 65.8464 23.3323C63.9531 23.3908 62.1136 22.6979 60.7293 21.4049C59.3451 20.112 58.5286 18.3239 58.458 16.431C58.5251 14.5358 59.3401 12.7443 60.7247 11.4484C62.1093 10.1526 63.9508 9.45785 65.8464 9.51629C67.43 9.49844 68.9804 9.97112 70.2848 10.8695C71.5434 11.7334 72.4807 12.9895 72.9506 14.4419V14.5636H70.0818C69.999 14.5609 69.9183 14.5371 69.8473 14.4945C69.7762 14.4519 69.7172 14.3918 69.6759 14.3201C69.2494 13.7042 68.6787 13.2022 68.0135 12.8578C67.3483 12.5134 66.6089 12.3372 65.8599 12.3444C64.7309 12.2965 63.6287 12.696 62.7925 13.4561C61.9564 14.2162 61.454 15.2756 61.3944 16.404C61.454 17.5324 61.9564 18.5917 62.7925 19.3518C63.6287 20.1119 64.7309 20.5114 65.8599 20.4635C66.5182 20.4703 67.1703 20.3362 67.7725 20.0701C68.3746 19.804 68.9129 19.4122 69.3511 18.9209C69.3971 18.8695 69.4534 18.8285 69.5164 18.8005Z" fill="#02509F"/>
</g>
<defs>
<clipPath id="clip0_24896_41774">
<rect width="125" height="20" fill="white" transform="translate(0 6)"/>
</clipPath>
</defs>
</svg>
