<svg width="24" height="24" viewBox="0 0 24 24" fill="none" xmlns="http://www.w3.org/2000/svg">
<path d="M19.6081 18.678L15.7411 14.655C16.8209 13.3729 17.3725 11.7281 17.2839 10.0542C17.1953 8.38035 16.4732 6.8029 15.264 5.64204C14.0548 4.48119 12.4493 3.82389 10.7732 3.80356C9.09712 3.78323 7.4761 4.40139 6.23914 5.53257C5.00217 6.66376 4.24196 8.22322 4.11278 9.89444C3.9836 11.5657 4.49515 13.2234 5.54358 14.5313C6.59202 15.8391 8.0988 16.699 9.7581 16.9365C11.4174 17.174 13.1049 16.7712 14.4781 15.81L18.3781 19.866C18.4569 19.9469 18.5508 20.0116 18.6546 20.0562C18.7584 20.1008 18.8699 20.1246 18.9829 20.1262C19.0959 20.1277 19.208 20.107 19.313 20.0651C19.4179 20.0233 19.5136 19.9612 19.5946 19.8825C19.6755 19.8037 19.7402 19.7097 19.7848 19.6059C19.8295 19.5021 19.8532 19.3906 19.8548 19.2776C19.8563 19.1647 19.8356 19.0525 19.7938 18.9476C19.7519 18.8426 19.6899 18.7469 19.6111 18.666L19.6081 18.678ZM10.7161 15.9C9.63322 15.8982 8.57522 15.5753 7.67585 14.9722C6.77648 14.3692 6.07614 13.5129 5.6634 12.5118C5.25066 11.5107 5.14404 10.4097 5.35704 9.34801C5.57004 8.28632 6.09309 7.31163 6.86004 6.54719C7.62699 5.78276 8.60339 5.26292 9.66579 5.05341C10.7282 4.84391 11.8288 4.95414 12.8286 5.37017C13.8283 5.7862 14.6822 6.48935 15.2824 7.3907C15.8825 8.29204 16.2018 9.3511 16.2001 10.434C16.1961 11.8855 15.6165 13.2762 14.5884 14.301C13.5603 15.3257 12.1676 15.9008 10.7161 15.9Z" fill="white"/>
</svg>
