<svg width="32" height="33" viewBox="0 0 32 33" fill="none" xmlns="http://www.w3.org/2000/svg">
<path d="M7.67045 16.3423C8.21724 13.0615 10.6389 10.4073 13.856 9.56281V9.56281C15.2615 9.19385 16.7385 9.19385 18.144 9.56281V9.56281C21.3611 10.4073 23.7828 13.0615 24.3296 16.3423L24.7093 18.621C24.7237 18.7074 24.7615 18.7883 24.8185 18.8548L25.4497 19.5911C26.0651 20.3091 26.4033 21.2235 26.4033 22.1691V23.2058C26.4033 25.4149 24.6125 27.2058 22.4033 27.2058H16H9.59668C7.38754 27.2058 5.59668 25.4149 5.59668 23.2058V22.1691C5.59668 21.2235 5.93494 20.3091 6.55034 19.5911L7.18151 18.8548C7.23851 18.7883 7.27625 18.7074 7.29065 18.621L7.67045 16.3423Z" stroke="#6200EE" stroke-width="1.5" stroke-linecap="round" stroke-linejoin="round"/>
<path d="M11.2231 5.78906L13.4877 8.99923H18.3775L20.7771 5.78906H11.2231Z" stroke="#6200EE" stroke-width="1.5" stroke-linecap="round" stroke-linejoin="round"/>
<path fill-rule="evenodd" clip-rule="evenodd" d="M20.2572 16.7829C20.1224 17.5163 19.658 18.1787 18.9419 18.539C18.2256 18.8995 17.4166 18.8777 16.7471 18.5485C16.8819 17.8151 17.3463 17.1527 18.0624 16.7924C18.7787 16.4319 19.5877 16.4537 20.2572 16.7829ZM21.0772 16.0864C20.0747 15.4291 18.7567 15.3086 17.6068 15.8872C16.9063 16.2398 16.377 16.7971 16.0546 17.4495C15.7322 16.7971 15.2029 16.2398 14.5023 15.8872C13.3524 15.3086 12.0344 15.4291 11.0319 16.0864L10.7869 16.2471L10.8039 16.5396C10.8738 17.736 11.5622 18.8657 12.7117 19.4442C13.6327 19.9077 14.6616 19.9226 15.5498 19.5724V22.3321C15.5498 22.6119 15.7766 22.8388 16.0564 22.8388C16.3363 22.8388 16.5631 22.6119 16.5631 22.3321V19.5739C17.4505 19.9225 18.4777 19.907 19.3974 19.4442C20.5469 18.8657 21.2354 17.736 21.3052 16.5396L21.3223 16.2471L21.0772 16.0864ZM11.852 16.7829C11.9867 17.5163 12.4512 18.1787 13.1672 18.539C13.8835 18.8995 14.6926 18.8777 15.362 18.5485C15.2273 17.8151 14.7628 17.1527 14.0468 16.7924C13.3305 16.4319 12.5214 16.4537 11.852 16.7829Z" fill="#6200EE"/>
<path d="M18.9419 18.539L18.8295 18.3157L18.9419 18.539ZM20.2572 16.7829L20.503 16.8281C20.5233 16.718 20.4679 16.6079 20.3675 16.5585L20.2572 16.7829ZM16.7471 18.5485L16.5013 18.5033C16.481 18.6134 16.5364 18.7235 16.6368 18.7729L16.7471 18.5485ZM18.0624 16.7924L18.1747 17.0157L18.0624 16.7924ZM17.6068 15.8872L17.4945 15.6639L17.4945 15.6639L17.6068 15.8872ZM21.0772 16.0864L21.2143 15.8773L21.2143 15.8773L21.0772 16.0864ZM16.0546 17.4495L15.8305 17.5602C15.8726 17.6455 15.9595 17.6995 16.0546 17.6995C16.1497 17.6995 16.2366 17.6455 16.2787 17.5602L16.0546 17.4495ZM14.5023 15.8872L14.3899 16.1106L14.5023 15.8872ZM11.0319 16.0864L11.169 16.2955L11.169 16.2955L11.0319 16.0864ZM10.7869 16.2471L10.6498 16.038C10.575 16.0871 10.5321 16.1724 10.5373 16.2617L10.7869 16.2471ZM10.8039 16.5396L10.5544 16.5542H10.5544L10.8039 16.5396ZM12.7117 19.4442L12.5993 19.6675L12.7117 19.4442ZM15.5498 19.5724H15.7998C15.7998 19.4897 15.7588 19.4123 15.6904 19.3657C15.6221 19.3192 15.5351 19.3095 15.4581 19.3398L15.5498 19.5724ZM16.5631 19.5739L16.6545 19.3412C16.5776 19.311 16.4906 19.3207 16.4223 19.3673C16.354 19.4138 16.3131 19.4912 16.3131 19.5739H16.5631ZM19.3974 19.4442L19.5098 19.6675L19.3974 19.4442ZM21.3052 16.5396L21.0556 16.5251V16.5251L21.3052 16.5396ZM21.3223 16.2471L21.5719 16.2617C21.5771 16.1724 21.5342 16.0871 21.4594 16.038L21.3223 16.2471ZM13.1672 18.539L13.0548 18.7623L13.1672 18.539ZM11.852 16.7829L11.7417 16.5585C11.6413 16.6079 11.5859 16.718 11.6061 16.8281L11.852 16.7829ZM15.362 18.5485L15.4723 18.7729C15.5727 18.7235 15.6281 18.6134 15.6079 18.5033L15.362 18.5485ZM14.0468 16.7924L13.9344 17.0157L14.0468 16.7924ZM19.0543 18.7623C19.8432 18.3653 20.3547 17.6352 20.503 16.8281L20.0113 16.7377C19.8901 17.3973 19.4728 17.992 18.8295 18.3157L19.0543 18.7623ZM16.6368 18.7729C17.3736 19.1351 18.2651 19.1595 19.0543 18.7623L18.8295 18.3157C18.1861 18.6395 17.4595 18.6202 16.8574 18.3242L16.6368 18.7729ZM17.95 16.5691C17.1611 16.9661 16.6495 17.6962 16.5013 18.5033L16.993 18.5937C17.1142 17.9341 17.5315 17.3394 18.1747 17.0157L17.95 16.5691ZM20.3675 16.5585C19.6307 16.1963 18.7392 16.1719 17.95 16.5691L18.1747 17.0157C18.8182 16.6919 19.5448 16.7112 20.1468 17.0072L20.3675 16.5585ZM17.7192 16.1106C18.7861 15.5737 20.0092 15.6851 20.9401 16.2955L21.2143 15.8773C20.1403 15.1731 18.7273 15.0435 17.4945 15.6639L17.7192 16.1106ZM16.2787 17.5602C16.5779 16.9548 17.0688 16.4379 17.7192 16.1106L17.4945 15.6639C16.7437 16.0417 16.176 16.6394 15.8305 17.3387L16.2787 17.5602ZM14.3899 16.1106C15.0403 16.4379 15.5312 16.9548 15.8305 17.5602L16.2787 17.3387C15.9331 16.6394 15.3654 16.0417 14.6147 15.6639L14.3899 16.1106ZM11.169 16.2955C12.1 15.6851 13.3231 15.5737 14.3899 16.1106L14.6147 15.6639C13.3818 15.0435 11.9689 15.1731 10.8949 15.8773L11.169 16.2955ZM10.9239 16.4562L11.169 16.2955L10.8949 15.8773L10.6498 16.038L10.9239 16.4562ZM11.0535 16.5251L11.0364 16.2325L10.5373 16.2617L10.5544 16.5542L11.0535 16.5251ZM12.8241 19.2208C11.7576 18.6841 11.1184 17.636 11.0535 16.5251L10.5544 16.5542C10.6292 17.8359 11.3669 19.0473 12.5993 19.6675L12.8241 19.2208ZM15.4581 19.3398C14.6332 19.665 13.6788 19.651 12.8241 19.2208L12.5993 19.6675C13.5866 20.1643 14.6899 20.1802 15.6415 19.805L15.4581 19.3398ZM15.7998 22.3321V19.5724H15.2998V22.3321H15.7998ZM16.0564 22.5888C15.9147 22.5888 15.7998 22.4739 15.7998 22.3321H15.2998C15.2998 22.75 15.6385 23.0888 16.0564 23.0888V22.5888ZM16.3131 22.3321C16.3131 22.4739 16.1982 22.5888 16.0564 22.5888V23.0888C16.4743 23.0888 16.8131 22.75 16.8131 22.3321H16.3131ZM16.3131 19.5739V22.3321H16.8131V19.5739H16.3131ZM19.2851 19.2208C18.4316 19.6504 17.4786 19.665 16.6545 19.3412L16.4717 19.8066C17.4224 20.1801 18.5239 20.1636 19.5098 19.6675L19.2851 19.2208ZM21.0556 16.5251C20.9908 17.636 20.3516 18.6841 19.2851 19.2208L19.5098 19.6675C20.7423 19.0473 21.48 17.8359 21.5548 16.5542L21.0556 16.5251ZM21.0727 16.2325L21.0556 16.5251L21.5548 16.5542L21.5719 16.2617L21.0727 16.2325ZM20.9401 16.2955L21.1852 16.4562L21.4594 16.038L21.2143 15.8773L20.9401 16.2955ZM13.2796 18.3157C12.6364 17.992 12.2191 17.3973 12.0979 16.7377L11.6061 16.8281C11.7544 17.6352 12.266 18.3653 13.0548 18.7623L13.2796 18.3157ZM15.2517 18.3242C14.6496 18.6202 13.9231 18.6395 13.2796 18.3157L13.0548 18.7623C13.844 19.1595 14.7356 19.1351 15.4723 18.7729L15.2517 18.3242ZM13.9344 17.0157C14.5776 17.3394 14.9949 17.9341 15.1161 18.5937L15.6079 18.5033C15.4596 17.6962 14.948 16.9661 14.1592 16.5691L13.9344 17.0157ZM11.9623 17.0072C12.5644 16.7112 13.2909 16.6919 13.9344 17.0157L14.1592 16.5691C13.37 16.1719 12.4785 16.1963 11.7417 16.5585L11.9623 17.0072Z" fill="#6200EE"/>
</svg>
