<svg width="38" height="38" viewBox="0 0 38 38" fill="none" xmlns="http://www.w3.org/2000/svg">
<path d="M31 21.5C31 15.1619 25.8381 10 19.5 10C13.1619 10 8 15.1619 8 21.5C8 27.8381 13.1619 33 19.5 33C25.9034 33 31 27.8381 31 21.5ZM18.4545 28.8835C18.4545 28.6222 18.4545 28.3608 18.4545 28.1648C18.4545 27.642 18.4545 27.5767 17.9318 27.5114C17.2784 27.3807 16.625 27.25 15.9716 26.9233C15.5142 26.6619 15.4489 26.5966 15.5795 26.0739C15.7102 25.6818 15.7756 25.2898 15.9062 24.9631C16.0369 24.5057 16.1676 24.5057 16.5597 24.7017C17.2131 25.0284 17.9318 25.2244 18.7159 25.3551C19.1733 25.4205 19.696 25.3551 20.1534 25.1591C21.0028 24.767 21.1335 23.7869 20.4148 23.1989C20.1534 23.0028 19.892 22.8722 19.6307 22.7415C18.9119 22.4148 18.1278 22.1534 17.4091 21.7614C16.2983 21.108 15.5795 20.1278 15.6449 18.7557C15.7102 17.1875 16.625 16.2074 18.0625 15.6847C18.6506 15.4886 18.6506 15.4886 18.6506 14.8352V14.1818C18.6506 13.7244 18.7159 13.6591 19.1733 13.5937C19.304 13.5937 19.4347 13.5937 19.6307 13.5937C20.6108 13.5937 20.6108 13.5937 20.6108 14.5739C20.6108 15.2926 20.6108 15.2926 21.3295 15.358C21.8523 15.4233 22.375 15.6193 22.8324 15.8153C23.0938 15.946 23.2244 16.142 23.0937 16.4034C22.9631 16.8608 22.8324 17.2528 22.7017 17.7102C22.571 18.1023 22.4403 18.1676 22.0483 17.9716C21.2642 17.5795 20.4801 17.4489 19.6307 17.5142C19.4347 17.5142 19.1733 17.5795 18.9773 17.6449C18.2585 17.9716 18.1278 18.7557 18.7159 19.2784C19.0426 19.5398 19.3693 19.7358 19.7614 19.8665C20.4148 20.1278 21.0682 20.3892 21.6562 20.7159C23.6165 21.8267 24.1392 24.2443 22.767 25.9432C22.2443 26.5312 21.5909 26.9886 20.8722 27.1847C20.5455 27.25 20.4148 27.446 20.4148 27.7727C20.4148 28.0994 20.4148 28.4261 20.4148 28.8182C20.4148 29.1449 20.2841 29.2756 19.9574 29.2756C19.5653 29.2756 19.2386 29.2756 18.8466 29.2756C18.5852 29.4062 18.4545 29.2102 18.4545 28.8835Z" fill="#36405C"/>
<rect x="15" y="4" width="22" height="12" rx="6" fill="#FDD032"/>
<path d="M23.109 8.486H25.713V8.976H23.109V8.486ZM19.427 6.855H22.514V7.303H19.427V6.855ZM19.35 9.634H22.549V10.089H19.35V9.634ZM19.329 8.458H22.598V8.906H19.329V8.458ZM24.411 8.682H24.922V12.525H24.411V8.682ZM20.722 6.148H21.233V7.086H20.722V6.148ZM20.722 8.822H21.233V12.553H20.722V8.822ZM22.857 6.694L23.501 6.89C23.494 6.946 23.452 6.974 23.354 6.988V9.151C23.354 10.201 23.228 11.622 22.241 12.595C22.178 12.476 21.989 12.301 21.863 12.231C22.759 11.349 22.857 10.138 22.857 9.144V6.694ZM25.202 6.204L25.622 6.589C24.964 6.883 23.984 7.121 23.144 7.268C23.116 7.156 23.046 6.974 22.983 6.869C23.767 6.701 24.691 6.456 25.202 6.204ZM21.184 10.222C21.408 10.376 22.171 10.999 22.346 11.16L22.038 11.552C21.814 11.293 21.156 10.677 20.897 10.46L21.184 10.222ZM19.847 7.429L20.26 7.338C20.407 7.646 20.526 8.059 20.561 8.325L20.12 8.444C20.099 8.171 19.987 7.751 19.847 7.429ZM21.639 7.324L22.115 7.429C21.982 7.779 21.835 8.171 21.709 8.43L21.289 8.332C21.415 8.052 21.562 7.618 21.639 7.324ZM20.729 9.865L21.107 10.012C20.75 10.789 20.106 11.615 19.546 12.049C19.462 11.93 19.308 11.762 19.189 11.678C19.756 11.307 20.393 10.551 20.729 9.865ZM31.579 6.134L31.971 6.561C30.704 6.932 28.632 7.121 26.931 7.191C26.917 7.058 26.854 6.848 26.805 6.729C28.471 6.652 30.515 6.463 31.579 6.134ZM26.812 8.108H32.272V8.612H26.812V8.108ZM26.343 9.753H32.664V10.264H26.343V9.753ZM29.234 6.876H29.78V11.832C29.78 12.203 29.668 12.364 29.402 12.448C29.136 12.532 28.681 12.546 27.939 12.539C27.904 12.392 27.806 12.154 27.722 12.014C28.303 12.035 28.863 12.028 29.017 12.021C29.178 12.021 29.234 11.972 29.234 11.825V6.876Z" fill="#754E13"/>
</svg>
