<svg width="24" height="24" viewBox="0 0 24 24" fill="none" xmlns="http://www.w3.org/2000/svg">
<path d="M9.76277 4.44169C10.6779 2.51944 13.3221 2.51944 14.2372 4.44169L15.0856 6.22373C15.449 6.98707 16.1515 7.51614 16.9641 7.63855L18.8612 7.92431C20.9075 8.23256 21.7246 10.8395 20.2439 12.3358L18.8711 13.7229C18.2831 14.3171 18.0148 15.1731 18.1536 16.0121L18.4777 17.9708C18.8272 20.0835 16.688 21.6947 14.8578 20.6972L13.161 19.7724C12.4341 19.3763 11.5659 19.3763 10.839 19.7724L9.14225 20.6972C7.31195 21.6947 5.17278 20.0835 5.52233 17.9708L5.84639 16.0121C5.9852 15.1731 5.71688 14.3171 5.12888 13.7229L3.75615 12.3358C2.2754 10.8395 3.09249 8.23256 5.13883 7.92431L7.0359 7.63855C7.8485 7.51614 8.55097 6.98707 8.91437 6.22373L9.76277 4.44169Z" stroke="#F69234" stroke-linecap="round" stroke-linejoin="round"/>
<circle cx="9.63037" cy="10.8081" r="1.33154" stroke="#F69234" stroke-linecap="round" stroke-linejoin="round"/>
<circle cx="14.3687" cy="15.5073" r="1.33154" stroke="#F69234" stroke-linecap="round" stroke-linejoin="round"/>
<path d="M8.88086 16.0586L14.8809 10.0586" stroke="#F69234" stroke-linecap="round" stroke-linejoin="round"/>
</svg>
