<svg width="14" height="14" viewBox="0 0 14 14" fill="none" xmlns="http://www.w3.org/2000/svg">
<path d="M13.34 12.565L10.1175 9.21252C11.0174 8.14417 11.477 6.77345 11.4032 5.37856C11.3294 3.98368 10.7276 2.66914 9.71994 1.70176C8.7123 0.734377 7.37434 0.186628 5.97761 0.169686C4.58087 0.152744 3.23002 0.667878 2.19922 1.61053C1.16842 2.55319 0.534903 3.85274 0.427256 5.24542C0.319608 6.63811 0.745894 8.01958 1.61959 9.10944C2.49329 10.1993 3.74894 10.9159 5.13168 11.1138C6.51443 11.3117 7.92067 10.9761 9.065 10.175L12.315 13.555C12.3807 13.6225 12.459 13.6764 12.5454 13.7136C12.6319 13.7508 12.7249 13.7706 12.819 13.7718C12.9132 13.7731 13.0066 13.7558 13.0941 13.721C13.1815 13.6862 13.2613 13.6344 13.3287 13.5688C13.3962 13.5031 13.4501 13.4248 13.4873 13.3383C13.5245 13.2518 13.5443 13.1589 13.5456 13.0647C13.5469 12.9706 13.5296 12.8771 13.4947 12.7897C13.4599 12.7022 13.4082 12.6225 13.3425 12.555L13.34 12.565ZM5.93 10.25C5.02762 10.2485 4.14595 9.9795 3.39648 9.47693C2.64701 8.97436 2.06339 8.26084 1.71944 7.42658C1.37549 6.59233 1.28664 5.67482 1.46414 4.79007C1.64164 3.90532 2.07751 3.09308 2.71664 2.45605C3.35576 1.81902 4.16943 1.38582 5.05476 1.21123C5.94009 1.03664 6.8573 1.1285 7.69042 1.4752C8.52354 1.82189 9.23514 2.40785 9.73524 3.15897C10.2353 3.91009 10.5015 4.79264 10.5 5.69502C10.4967 6.90466 10.0137 8.06359 9.15691 8.91753C8.30016 9.77148 7.13965 10.2507 5.93 10.25Z" fill="#808080"/>
</svg>
