<svg width="24" height="24" viewBox="0 0 24 24" fill="none" xmlns="http://www.w3.org/2000/svg">
<path d="M6 8C6 5.79086 7.79086 4 10 4H19V16C19 18.2091 17.2091 20 15 20H6V8Z" stroke="#B9964B" stroke-linecap="round" stroke-linejoin="round"/>
<path fill-rule="evenodd" clip-rule="evenodd" d="M11.4951 10.0797C11.2349 10.2747 11.1173 10.5085 11.1173 10.7266C11.1173 10.9453 11.2349 11.179 11.4951 11.3745C11.7557 11.57 12.1373 11.7051 12.5788 11.7051C12.7041 11.7051 12.8242 11.7548 12.9127 11.8434C13.0013 11.9319 13.051 12.052 13.051 12.1773C13.051 12.3025 13.0013 12.4226 12.9127 12.5112C12.8242 12.5998 12.7041 12.6495 12.5788 12.6495C11.9527 12.6495 11.3676 12.4597 10.9284 12.1301C10.4892 11.8005 10.1729 11.3093 10.1729 10.7271C10.1729 10.1444 10.4892 9.65327 10.9284 9.32366C11.3676 8.99452 11.9531 8.80469 12.5788 8.80469C13.5483 8.80469 14.4649 9.26888 14.8294 10.0419C14.8559 10.098 14.871 10.1588 14.874 10.2208C14.8769 10.2828 14.8676 10.3447 14.8467 10.4031C14.8257 10.4615 14.7934 10.5152 14.7517 10.5611C14.7099 10.607 14.6596 10.6442 14.6035 10.6707C14.5473 10.6971 14.4866 10.7123 14.4246 10.7152C14.3626 10.7182 14.3007 10.7089 14.2423 10.6879C14.1839 10.6669 14.1302 10.6347 14.0843 10.5929C14.0384 10.5512 14.0012 10.5008 13.9747 10.4447C13.8094 10.092 13.2938 9.74913 12.5793 9.74913C12.1378 9.74913 11.7557 9.88418 11.4951 10.0797Z" fill="#B9964B"/>
<path fill-rule="evenodd" clip-rule="evenodd" d="M13.3795 14.173C13.6396 13.9853 13.7568 13.7603 13.7568 13.5503C13.7568 13.3399 13.6396 13.1145 13.379 12.9268C13.1188 12.7387 12.7368 12.6087 12.2957 12.6087C12.1705 12.6087 12.0504 12.5608 11.9618 12.4756C11.8732 12.3904 11.8235 12.2748 11.8235 12.1542C11.8235 12.0337 11.8732 11.9181 11.9618 11.8329C12.0504 11.7477 12.1705 11.6998 12.2957 11.6998C12.9219 11.6998 13.507 11.8825 13.9461 12.1997C14.3853 12.5169 14.7012 12.9895 14.7012 13.5499C14.7012 14.1102 14.3853 14.5833 13.9456 14.9001C13.5065 15.2173 12.9219 15.4 12.2957 15.4C11.3262 15.4 10.4092 14.9533 10.0451 14.2089C9.99169 14.0998 9.98546 13.9749 10.0278 13.8614C10.0701 13.748 10.1575 13.6554 10.2708 13.604C10.3841 13.5526 10.514 13.5466 10.6318 13.5873C10.7497 13.628 10.8459 13.7122 10.8994 13.8212C11.0656 14.1611 11.5812 14.4911 12.2957 14.4911C12.7372 14.4911 13.1188 14.3611 13.3795 14.173ZM12.3609 8C12.4861 8 12.6062 8.04788 12.6948 8.13311C12.7833 8.21834 12.8331 8.33393 12.8331 8.45446V8.90892C12.8331 9.02945 12.7833 9.14505 12.6948 9.23028C12.6062 9.3155 12.4861 9.36339 12.3609 9.36339C12.2356 9.36339 12.1155 9.3155 12.027 9.23028C11.9384 9.14505 11.8887 9.02945 11.8887 8.90892V8.45446C11.8887 8.33393 11.9384 8.21834 12.027 8.13311C12.1155 8.04788 12.2356 8 12.3609 8Z" fill="#B9964B"/>
<path fill-rule="evenodd" clip-rule="evenodd" d="M12.4883 14.9434C12.6136 14.9434 12.7337 14.9931 12.8222 15.0817C12.9108 15.1702 12.9606 15.2903 12.9606 15.4156V15.8878C12.9606 16.013 12.9108 16.1332 12.8222 16.2217C12.7337 16.3103 12.6136 16.36 12.4883 16.36C12.3631 16.36 12.243 16.3103 12.1544 16.2217C12.0659 16.1332 12.0161 16.013 12.0161 15.8878V15.4156C12.0161 15.2903 12.0659 15.1702 12.1544 15.0817C12.243 14.9931 12.3631 14.9434 12.4883 14.9434Z" fill="#B9964B"/>
</svg>
