<svg width="80" height="80" viewBox="0 0 80 80" fill="none" xmlns="http://www.w3.org/2000/svg">
<path d="M68.8001 50.5H64.9001L62.5001 24.1C62.4001 23.5 61.9001 23 61.3001 23H56.3001C55.7001 23 55.1001 23.5 55.1001 24.1L52.7001 50.5H47.6001V41.7C47.6001 41 47.0001 40.5 46.4001 40.5H32.5001V39.2C32.5001 37.5 31.4001 36.1 29.9001 35.7L27.5001 9.1C27.4001 8.5 26.9001 8 26.3001 8H21.3001C20.7001 8 20.1001 8.5 20.1001 9.1L17.7001 35.7C16.2001 36.2 15.1001 37.6 15.1001 39.2V40.5H11.3001C10.6001 40.5 10.1001 41.1 10.1001 41.7V66.7C10.1001 67.4 10.7001 68 11.3001 68H46.3001H68.8001C69.5001 68 70.0001 67.4 70.0001 66.7V51.7C70.0001 51.1 69.4001 50.5 68.8001 50.5ZM57.4001 25.5H60.1001L62.4001 50.5H55.1001L57.4001 25.5ZM22.4001 10.5H25.1001L27.4001 35.5H20.1001L22.4001 10.5ZM17.5001 39.2C17.5001 38.5 18.1001 38 18.8001 38H28.8001C29.5001 38 30.0001 38.6 30.0001 39.2V40.5H17.5001V39.2ZM12.5001 58H28.7001C29.4001 58 29.9001 57.4 29.9001 56.8C29.9001 56.1 29.3001 55.6 28.7001 55.6H12.5001V53H28.7001C29.4001 53 29.9001 52.4 29.9001 51.7C29.9001 51 29.3001 50.5 28.7001 50.5H12.5001V48H28.7001C29.4001 48 29.9001 47.4 29.9001 46.8C29.9001 46.1 29.3001 45.5 28.7001 45.5H12.5001V43H16.2001H31.2001H45.0001V51.7V65.5H12.5001V58ZM47.5001 65.5V53H67.5001V55.5H58.8001C58.1001 55.5 57.6001 56.1 57.6001 56.7C57.6001 57.4 58.2001 57.9 58.8001 57.9H67.5001V65.4H47.5001V65.5Z" fill="#217DC1"/>
</svg>
