<svg width="20" height="20" viewBox="0 0 20 20" fill="none" xmlns="http://www.w3.org/2000/svg">
<g clip-path="url(#clip0_4246_20622)">
<path d="M2.92432 0H17.0767V20H2.92432V0Z" fill="white"/>
<path d="M-4.1499 0H2.92432V20H-4.1499V0ZM17.0767 0H24.1509V20H17.0767V0ZM5.0415 9.66406L4.49463 9.85156L7.04932 12.0977C7.24463 12.6758 6.98291 12.8438 6.81494 13.1484L9.58838 12.7969L9.51807 15.5898L10.0962 15.5703L9.96729 12.8008L12.7485 13.1289C12.5767 12.7656 12.4243 12.5742 12.5806 11.9961L15.1353 9.86719L14.6899 9.70703C14.3228 9.42188 14.8462 8.34766 14.9243 7.66797C14.9243 7.66797 13.436 8.17969 13.3384 7.91016L12.9517 7.1875L11.6001 8.67188C11.4517 8.71094 11.3892 8.64844 11.354 8.52344L11.979 5.41016L10.9868 5.96875C10.9048 6.00391 10.8228 5.96875 10.7681 5.875L9.81104 3.96094L8.82666 5.94922C8.75244 6.01953 8.67822 6.02734 8.61572 5.98047L7.67041 5.44922L8.23682 8.54297C8.19385 8.66016 8.08447 8.69922 7.95947 8.63281L6.65869 7.15625C6.49072 7.42969 6.37354 7.875 6.15088 7.97656C5.92822 8.06641 5.17432 7.78516 4.67041 7.67578C4.84229 8.29688 5.38135 9.32812 5.0415 9.66797V9.66406Z" fill="#D52B1E"/>
</g>
<defs>
<clipPath id="clip0_4246_20622">
<rect width="20" height="20" rx="10" fill="white"/>
</clipPath>
</defs>
</svg>
