<svg width="24" height="24" viewBox="0 0 24 24" fill="none" xmlns="http://www.w3.org/2000/svg">
<path fill-rule="evenodd" clip-rule="evenodd" d="M8.36639 18.5323C8.27731 18.7937 7.99321 18.9334 7.73183 18.8443C5.40703 18.0521 3.5052 16.1512 2.82123 13.5986C1.7315 9.53167 4.14499 5.35139 8.21191 4.26166C12.2788 3.17193 16.4591 5.58542 17.5488 9.65233C17.7253 10.3109 17.81 10.9731 17.8104 11.6252C17.8105 11.9014 17.5868 12.1254 17.3107 12.1255C17.0345 12.1257 16.8105 11.902 16.8104 11.6258C16.81 11.0602 16.7366 10.4847 16.5829 9.91115C15.6361 6.3777 12.0042 4.2808 8.47072 5.22758C4.93728 6.17437 2.84037 9.80631 3.78716 13.3398C4.38118 15.5567 6.03187 17.2085 8.0544 17.8978C8.31578 17.9868 8.45546 18.271 8.36639 18.5323Z" fill="#B9964B"/>
<path d="M7.30347 11.152L9.02912 9.73779L12.4888 13.0376" stroke="#B9964B" stroke-linecap="round" stroke-linejoin="round"/>
<path d="M12.96 10.6807L12.96 13.5091L10.1316 13.5091" stroke="#B9964B" stroke-linecap="round" stroke-linejoin="round"/>
<path d="M17.2016 16.3373H12.0927C11.1274 16.3373 10.4458 17.2829 10.7511 18.1987V18.1987C10.9436 18.7761 11.484 19.1656 12.0927 19.1656H17.2016L18.6158 20.5798M17.2016 14.4517H19.0872L21.9156 17.2801" stroke="#B9964B" stroke-linecap="round" stroke-linejoin="round"/>
</svg>
