<svg width="24" height="24" viewBox="0 0 24 24" fill="none" xmlns="http://www.w3.org/2000/svg">
<path d="M4.89062 10.1895V7.01373C4.89062 4.80459 6.68149 3.01373 8.89062 3.01373H16.8329C19.0421 3.01373 20.8329 4.80459 20.8329 7.01373V14.956C20.8329 17.1652 19.0421 18.956 16.8329 18.956H11.4527" stroke="#217DC1" stroke-linecap="round"/>
<path d="M10.5938 12.7839L11.9239 11.4538L13.3306 12.8605L18.0195 8.17157" stroke="#217DC1" stroke-linecap="round"/>
<path d="M13.8105 7.83118H18.1355V12.1564" stroke="#217DC1" stroke-linecap="round" stroke-linejoin="round"/>
<circle cx="5.70343" cy="16.4499" r="4.53644" stroke="#217DC1"/>
<path fill-rule="evenodd" clip-rule="evenodd" d="M5.0528 14.9994C4.87311 15.1341 4.7919 15.2955 4.7919 15.4462C4.7919 15.5972 4.87311 15.7586 5.0528 15.8936C5.23283 16.0286 5.49634 16.1219 5.80127 16.1219C5.88776 16.1219 5.97071 16.1563 6.03187 16.2174C6.09303 16.2786 6.12739 16.3615 6.12739 16.448C6.12739 16.5345 6.09303 16.6175 6.03187 16.6786C5.97071 16.7398 5.88776 16.7742 5.80127 16.7742C5.36882 16.7742 4.96475 16.6431 4.66145 16.4154C4.35815 16.1878 4.13965 15.8486 4.13965 15.4465C4.13965 15.0441 4.35815 14.7049 4.66145 14.4772C4.96475 14.2499 5.36915 14.1188 5.80127 14.1188C6.47081 14.1188 7.10382 14.4394 7.35559 14.9733C7.37385 15.012 7.38431 15.054 7.38635 15.0968C7.38839 15.1396 7.38199 15.1824 7.3675 15.2227C7.353 15.263 7.33071 15.3001 7.3019 15.3318C7.27308 15.3635 7.2383 15.3893 7.19954 15.4075C7.16078 15.4258 7.1188 15.4362 7.076 15.4383C7.0332 15.4403 6.99042 15.4339 6.9501 15.4194C6.90977 15.4049 6.8727 15.3827 6.84099 15.3538C6.80928 15.325 6.78356 15.2902 6.7653 15.2515C6.65115 15.0079 6.29502 14.7711 5.80159 14.7711C5.49666 14.7711 5.23283 14.8644 5.0528 14.9994Z" fill="#217DC1"/>
<path fill-rule="evenodd" clip-rule="evenodd" d="M6.35444 17.8262C6.53414 17.6966 6.61502 17.5413 6.61502 17.3962C6.61502 17.2509 6.53414 17.0953 6.35411 16.9656C6.17442 16.8357 5.91058 16.7459 5.60598 16.7459C5.51948 16.7459 5.43653 16.7129 5.37537 16.654C5.31421 16.5951 5.27985 16.5153 5.27985 16.4321C5.27985 16.3488 5.31421 16.269 5.37537 16.2101C5.43653 16.1513 5.51948 16.1182 5.60598 16.1182C6.03842 16.1182 6.44249 16.2444 6.74579 16.4634C7.04909 16.6825 7.26727 17.0089 7.26727 17.3959C7.26727 17.7829 7.04909 18.1097 6.74547 18.3284C6.44217 18.5475 6.03842 18.6737 5.60598 18.6737C4.93644 18.6737 4.3031 18.3651 4.05166 17.851C4.01477 17.7757 4.01047 17.6894 4.0397 17.6111C4.06894 17.5327 4.12931 17.4688 4.20755 17.4333C4.28578 17.3978 4.37546 17.3936 4.45687 17.4218C4.53827 17.4499 4.60473 17.508 4.64162 17.5833C4.75642 17.8181 5.11255 18.0459 5.60598 18.0459C5.91091 18.0459 6.17442 17.9562 6.35444 17.8262ZM5.65098 13.563C5.73748 13.563 5.82043 13.5961 5.88159 13.655C5.94275 13.7138 5.97711 13.7937 5.97711 13.8769V14.1908C5.97711 14.274 5.94275 14.3538 5.88159 14.4127C5.82043 14.4716 5.73748 14.5046 5.65098 14.5046C5.56449 14.5046 5.48154 14.4716 5.42038 14.4127C5.35922 14.3538 5.32486 14.274 5.32486 14.1908V13.8769C5.32486 13.7937 5.35922 13.7138 5.42038 13.655C5.48154 13.5961 5.56449 13.563 5.65098 13.563Z" fill="#217DC1"/>
<path fill-rule="evenodd" clip-rule="evenodd" d="M5.73921 18.3583C5.82571 18.3583 5.90866 18.3927 5.96982 18.4539C6.03098 18.515 6.06534 18.598 6.06534 18.6845V19.0106C6.06534 19.0971 6.03098 19.18 5.96982 19.2412C5.90866 19.3024 5.82571 19.3367 5.73921 19.3367C5.65272 19.3367 5.56977 19.3024 5.50861 19.2412C5.44745 19.18 5.41309 19.0971 5.41309 19.0106V18.6845C5.41309 18.598 5.44745 18.515 5.50861 18.4539C5.56977 18.3927 5.65272 18.3583 5.73921 18.3583Z" fill="#217DC1"/>
</svg>
