<svg width="32" height="33" viewBox="0 0 32 33" fill="none" xmlns="http://www.w3.org/2000/svg">
<path d="M25.6557 17.5015C25.6557 19.6005 24.9716 21.6424 23.707 23.3177C22.4425 24.993 20.6664 26.2106 18.6478 26.7859C16.6292 27.3613 14.478 27.2631 12.5202 26.5062C10.5624 25.7493 8.90467 24.375 7.79803 22.5914C6.6914 20.8078 6.1962 18.7122 6.38745 16.6219C6.5787 14.5316 7.44598 12.5606 8.85792 11.0075C10.2699 9.45432 12.1495 8.40365 14.2121 8.01462C16.2748 7.62558 18.408 7.91938 20.2887 8.85151L16.0015 17.5015H25.6557Z" stroke="#00AB1B" stroke-width="1.5" stroke-linecap="round" stroke-linejoin="round"/>
<path d="M21.7826 5.8569C23.9501 6.93343 25.7742 8.59366 27.0493 10.6507C28.3244 12.7077 29 15.0799 29 17.5L16 17.5L21.7826 5.8569Z" stroke="#00AB1B" stroke-width="1.5" stroke-linecap="round" stroke-linejoin="round"/>
<path d="M15.9851 17.4778L21.4666 25.0578" stroke="#00AB1B" stroke-width="1.5" stroke-linecap="round" stroke-linejoin="round"/>
<path fill-rule="evenodd" clip-rule="evenodd" d="M21.7523 11.3106C21.4795 11.3106 21.2582 11.5318 21.2582 11.8046C21.2582 12.0775 21.4795 12.2987 21.7523 12.2987C22.0252 12.2987 22.2464 12.0775 22.2464 11.8046C22.2464 11.5318 22.0252 11.3106 21.7523 11.3106ZM20.6641 11.8046C20.6641 11.2036 21.1513 10.7164 21.7523 10.7164C22.3534 10.7164 22.8406 11.2036 22.8406 11.8046C22.8406 12.4057 22.3534 12.8929 21.7523 12.8929C21.1513 12.8929 20.6641 12.4057 20.6641 11.8046Z" fill="#00AB1B" stroke="#00AB1B" stroke-width="0.4" stroke-linecap="round" stroke-linejoin="round"/>
<path fill-rule="evenodd" clip-rule="evenodd" d="M24.5678 14.1017C24.2949 14.1017 24.0737 14.3229 24.0737 14.5958C24.0737 14.8687 24.2949 15.0899 24.5678 15.0899C24.8407 15.0899 25.0619 14.8687 25.0619 14.5958C25.0619 14.3229 24.8407 14.1017 24.5678 14.1017ZM23.4795 14.5958C23.4795 13.9947 23.9667 13.5075 24.5678 13.5075C25.1688 13.5075 25.6561 13.9947 25.6561 14.5958C25.6561 15.1968 25.1688 15.6841 24.5678 15.6841C23.9667 15.6841 23.4795 15.1968 23.4795 14.5958Z" fill="#00AB1B" stroke="#00AB1B" stroke-width="0.4" stroke-linecap="round" stroke-linejoin="round"/>
<path fill-rule="evenodd" clip-rule="evenodd" d="M25.0825 11.1496C25.1986 11.2656 25.1986 11.4537 25.0825 11.5697L21.5174 15.1349C21.4014 15.2509 21.2133 15.2509 21.0973 15.1349C20.9812 15.0188 20.9812 14.8307 21.0973 14.7147L24.6624 11.1496C24.7784 11.0336 24.9665 11.0336 25.0825 11.1496Z" fill="#00AB1B" stroke="#00AB1B" stroke-width="0.4" stroke-linecap="round" stroke-linejoin="round"/>
</svg>
