<svg width="32" height="32" viewBox="0 0 32 32" fill="none" xmlns="http://www.w3.org/2000/svg">
<path d="M12.26 6.16046H6V7.66046H12.26V6.16046ZM19.8232 13.7237C19.8232 9.54665 16.437 6.16046 12.26 6.16046V7.66046C15.6086 7.66046 18.3232 10.3751 18.3232 13.7237H19.8232ZM12.26 21.287C16.437 21.287 19.8232 17.9008 19.8232 13.7237H18.3232C18.3232 17.0724 15.6086 19.787 12.26 19.787V21.287ZM11.3035 21.287H12.26V19.787H11.3035V21.287ZM11.0535 24.0895V21.537H9.55351V24.0895H11.0535ZM6 25.8395H9.30351V24.3395H6V25.8395ZM4.25 20.537V24.0895H5.75V20.537H4.25ZM4.25 13.1048V20.537H5.75V13.1048H4.25ZM4.25 7.91046V13.1048H5.75V7.91046H4.25ZM11.3035 15.9835H12.26V14.4835H11.3035V15.9835ZM9.55351 13.1048V14.2335H11.0535V13.1048H9.55351ZM12.26 11.464H11.1943V12.964H12.26V11.464ZM14.5197 13.7237C14.5197 12.4757 13.508 11.464 12.26 11.464V12.964C12.6796 12.964 13.0197 13.3041 13.0197 13.7237H14.5197ZM12.26 15.9835C13.508 15.9835 14.5197 14.9717 14.5197 13.7237H13.0197C13.0197 14.1433 12.6796 14.4835 12.26 14.4835V15.9835ZM26.25 7.91046V24.0895H27.75V7.91046H26.25ZM22.6965 7.66046H26V6.16046H22.6965V7.66046ZM22.4465 24.0895V7.91046H20.9465V24.0895H22.4465ZM26 24.3395H22.6965V25.8395H26V24.3395ZM20.9465 24.0895C20.9465 25.056 21.73 25.8395 22.6965 25.8395V24.3395C22.5584 24.3395 22.4465 24.2276 22.4465 24.0895H20.9465ZM26.25 24.0895C26.25 24.2276 26.1381 24.3395 26 24.3395V25.8395C26.9665 25.8395 27.75 25.056 27.75 24.0895H26.25ZM9.55351 24.0895C9.55351 24.2276 9.44158 24.3395 9.30351 24.3395V25.8395C10.27 25.8395 11.0535 25.056 11.0535 24.0895H9.55351ZM11.3035 14.4835C11.1654 14.4835 11.0535 14.3715 11.0535 14.2335H9.55351C9.55351 15.2 10.337 15.9835 11.3035 15.9835V14.4835ZM27.75 7.91046C27.75 6.94396 26.9665 6.16046 26 6.16046V7.66046C26.1381 7.66046 26.25 7.77239 26.25 7.91046H27.75ZM11.3035 19.787C10.337 19.787 9.55351 20.5705 9.55351 21.537H11.0535C11.0535 21.3989 11.1654 21.287 11.3035 21.287V19.787ZM22.6965 6.16046C21.73 6.16046 20.9465 6.94396 20.9465 7.91046H22.4465C22.4465 7.77239 22.5584 7.66046 22.6965 7.66046V6.16046ZM6 24.3395C5.86193 24.3395 5.75 24.2276 5.75 24.0895H4.25C4.25 25.056 5.0335 25.8395 6 25.8395V24.3395ZM11.0535 13.1048C11.0535 13.027 11.1166 12.964 11.1943 12.964V11.464C10.2881 11.464 9.55351 12.1986 9.55351 13.1048H11.0535ZM6 6.16046C5.0335 6.16046 4.25 6.94396 4.25 7.91046H5.75C5.75 7.77239 5.86193 7.66046 6 7.66046V6.16046Z" fill="#6200EE"/>
</svg>
