<svg width="33" height="32" viewBox="0 0 33 32" fill="none" xmlns="http://www.w3.org/2000/svg">
<path d="M13.135 6.16052H6.875V7.66052H13.135V6.16052ZM20.6982 13.7238C20.6982 9.54671 17.312 6.16052 13.135 6.16052V7.66052C16.4836 7.66052 19.1982 10.3751 19.1982 13.7238H20.6982ZM13.135 21.287C17.312 21.287 20.6982 17.9008 20.6982 13.7238H19.1982C19.1982 17.0724 16.4836 19.787 13.135 19.787V21.287ZM12.1785 21.287H13.135V19.787H12.1785V21.287ZM11.9285 24.0896V21.537H10.4285V24.0896H11.9285ZM6.875 25.8396H10.1785V24.3396H6.875V25.8396ZM5.125 20.537V24.0896H6.625V20.537H5.125ZM5.125 13.1049V20.537H6.625V13.1049H5.125ZM5.125 7.91052V13.1049H6.625V7.91052H5.125ZM12.1785 15.9835H13.135V14.4835H12.1785V15.9835ZM10.4285 13.1049V14.2335H11.9285V13.1049H10.4285ZM13.135 11.464H12.0693V12.964H13.135V11.464ZM15.3947 13.7238C15.3947 12.4758 14.383 11.464 13.135 11.464V12.964C13.5546 12.964 13.8947 13.3042 13.8947 13.7238H15.3947ZM13.135 15.9835C14.383 15.9835 15.3947 14.9718 15.3947 13.7238H13.8947C13.8947 14.1434 13.5546 14.4835 13.135 14.4835V15.9835ZM27.125 7.91052V24.0896H28.625V7.91052H27.125ZM23.5715 7.66052H26.875V6.16052H23.5715V7.66052ZM23.3215 24.0896V7.91052H21.8215V24.0896H23.3215ZM26.875 24.3396H23.5715V25.8396H26.875V24.3396ZM21.8215 24.0896C21.8215 25.0561 22.605 25.8396 23.5715 25.8396V24.3396C23.4334 24.3396 23.3215 24.2276 23.3215 24.0896H21.8215ZM27.125 24.0896C27.125 24.2276 27.0131 24.3396 26.875 24.3396V25.8396C27.8415 25.8396 28.625 25.0561 28.625 24.0896H27.125ZM10.4285 24.0896C10.4285 24.2276 10.3166 24.3396 10.1785 24.3396V25.8396C11.145 25.8396 11.9285 25.0561 11.9285 24.0896H10.4285ZM12.1785 14.4835C12.0404 14.4835 11.9285 14.3716 11.9285 14.2335H10.4285C10.4285 15.2 11.212 15.9835 12.1785 15.9835V14.4835ZM28.625 7.91052C28.625 6.94402 27.8415 6.16052 26.875 6.16052V7.66052C27.0131 7.66052 27.125 7.77245 27.125 7.91052H28.625ZM12.1785 19.787C11.212 19.787 10.4285 20.5705 10.4285 21.537H11.9285C11.9285 21.399 12.0404 21.287 12.1785 21.287V19.787ZM23.5715 6.16052C22.605 6.16052 21.8215 6.94403 21.8215 7.91052H23.3215C23.3215 7.77245 23.4334 7.66052 23.5715 7.66052V6.16052ZM6.875 24.3396C6.73693 24.3396 6.625 24.2276 6.625 24.0896H5.125C5.125 25.0561 5.9085 25.8396 6.875 25.8396V24.3396ZM11.9285 13.1049C11.9285 13.0271 11.9916 12.964 12.0693 12.964V11.464C11.1631 11.464 10.4285 12.1987 10.4285 13.1049H11.9285ZM6.875 6.16052C5.9085 6.16052 5.125 6.94402 5.125 7.91052H6.625C6.625 7.77245 6.73693 7.66052 6.875 7.66052V6.16052Z" fill="#8B3BFF"/>
</svg>
