<svg width="50" height="50" viewBox="0 0 50 50" fill="none" xmlns="http://www.w3.org/2000/svg">
<circle cx="25" cy="25" r="25" fill="#EDEEEE"/>
<path d="M16.3836 23.7982C16.9489 23.7982 17.4951 23.7602 18.0129 23.6937V18.0317C17.4951 17.9652 16.9489 17.9272 16.3836 17.9272C13.1584 17.9272 10.5459 19.1147 10.5459 20.5777V21.1525C10.5459 22.6155 13.1584 23.7982 16.3836 23.7982Z" fill="#4D4D4D"/>
<path d="M16.3835 26.7576C16.9488 26.7576 17.495 26.7196 18.0128 26.6531V24.9954C17.495 25.0619 16.9488 25.0999 16.3835 25.0999C13.5668 25.0999 11.2203 24.1974 10.6645 22.9956C10.5838 23.1714 10.541 23.3519 10.541 23.5371V24.1119C10.5458 25.5701 13.1583 26.7576 16.3835 26.7576Z" fill="#4D4D4D"/>
<path d="M18.0128 28.078V27.9497C17.495 28.0162 16.9488 28.0542 16.3835 28.0542C13.5668 28.0542 11.2203 27.1517 10.6645 25.95C10.5838 26.1257 10.541 26.3062 10.541 26.4915V27.0662C10.541 28.5292 13.1535 29.7167 16.3788 29.7167C17.0248 29.7167 17.6423 29.6692 18.2265 29.5837C18.084 29.2892 18.008 28.9805 18.008 28.6575V28.078H18.0128Z" fill="#4D4D4D"/>
<path d="M24.8054 19.3142C28.0306 19.3142 30.6431 18.1267 30.6431 16.6637V16.089C30.6431 14.626 28.0306 13.4385 24.8054 13.4385C21.5801 13.4385 18.9629 14.626 18.9629 16.089V16.6637C18.9629 18.1267 21.5801 19.3142 24.8054 19.3142Z" fill="#4D4D4D"/>
<path d="M31.2083 20.0647C30.985 20.0647 30.7618 20.0742 30.5433 20.0932C30.605 19.9412 30.643 19.7797 30.643 19.6182V19.0435C30.643 18.8582 30.6003 18.6777 30.5195 18.502C29.9685 19.7037 27.6173 20.6062 24.8005 20.6062C21.9838 20.6062 19.6373 19.7037 19.0815 18.502C19.0008 18.6777 18.958 18.8582 18.958 19.0435V19.6182C18.958 21.0812 21.5705 22.2687 24.8005 22.2687C25.0855 22.2687 25.361 22.2545 25.6318 22.2402C25.1995 22.6392 24.81 23.081 24.4728 23.5607C21.8033 23.4942 19.6135 22.6155 19.0815 21.4612C19.0008 21.637 18.958 21.8175 18.958 22.0027V22.5775C18.958 23.8505 20.9388 24.9145 23.5798 25.1662C23.3945 25.6175 23.2473 26.0877 23.1428 26.5722C21.1003 26.2967 19.5185 25.532 19.0815 24.5772C19.0008 24.753 18.958 24.9335 18.958 25.1187V25.6935C18.958 26.8667 20.6348 27.8547 22.9623 28.2062C22.9623 28.2395 22.9575 28.2727 22.9575 28.3107C22.9575 28.7192 22.9908 29.123 23.0478 29.5172C21.0528 29.2322 19.5138 28.477 19.0815 27.5365C19.0008 27.7122 18.958 27.8927 18.958 28.078V28.6527C18.958 29.9115 20.896 30.966 23.4943 31.232C24.677 34.3432 27.6838 36.5567 31.2035 36.5567C35.7493 36.5567 39.4495 32.8565 39.4495 28.3107C39.4543 23.765 35.7588 20.0647 31.2083 20.0647ZM31.2083 35.279C28.3963 35.279 25.969 33.6022 24.867 31.194C24.6343 30.6857 24.4633 30.1442 24.3588 29.5742C24.2828 29.1657 24.24 28.743 24.24 28.3155V28.3107C24.24 27.7645 24.3065 27.2325 24.4253 26.7242C24.5393 26.2397 24.7008 25.7695 24.9098 25.3325C25.1948 24.734 25.5605 24.183 25.9975 23.6937C26.6055 23.0097 27.3418 22.4492 28.1683 22.0455C28.534 21.9315 28.8665 21.7985 29.1658 21.6512C29.8118 21.4517 30.4958 21.3472 31.2035 21.3472C35.0463 21.3472 38.1718 24.4727 38.1718 28.3155C38.1718 32.1582 35.051 35.279 31.2083 35.279Z" fill="#4D4D4D"/>
<path d="M31.6499 24.0073H30.6191V29.3748L33.8634 32.6191L34.5901 31.8923L31.6499 28.9473V24.0073Z" fill="#4D4D4D"/>
</svg>
