<svg width="24" height="24" viewBox="0 0 24 24" fill="none" xmlns="http://www.w3.org/2000/svg">
<path fill-rule="evenodd" clip-rule="evenodd" d="M4.52684 12.9585L9.95378 18.44C10.0996 18.5858 10.0996 18.8484 9.95378 19.0234C9.80794 19.1984 9.54543 19.1984 9.37042 19.0234L3.27439 12.869C3.15771 12.7523 3.12855 12.5773 3.18688 12.4315C3.18688 12.3731 3.24522 12.3148 3.27439 12.2856L9.37042 6.13125C9.51626 5.95625 9.77877 5.95625 9.95378 6.13125C10.0413 6.21876 10.0704 6.30626 10.0704 6.42293C10.0704 6.5396 10.0413 6.6271 9.95378 6.71461L4.58036 12.142L19.8416 12.1981C20.0749 12.1981 20.2499 12.3731 20.2499 12.6065C20.2499 12.8398 20.0749 13.0148 19.8416 13.0148L4.52684 12.9585Z" fill="#C5C5C4"/>
<path d="M9.95378 18.44L9.71074 18.6806L9.71195 18.6818L9.95378 18.44ZM4.52684 12.9585L4.5281 12.6165L3.70399 12.6135L4.2838 13.1991L4.52684 12.9585ZM9.37042 19.0234L9.12744 19.264L9.12859 19.2652L9.37042 19.0234ZM3.27439 12.869L3.51737 12.6283L3.51622 12.6272L3.27439 12.869ZM3.18688 12.4315L3.50442 12.5585L3.52888 12.4973V12.4315H3.18688ZM3.27439 12.2856L3.51622 12.5275L3.51736 12.5263L3.27439 12.2856ZM9.37042 6.13125L9.6134 6.37193L9.62375 6.36149L9.63316 6.3502L9.37042 6.13125ZM9.95378 6.13125L10.1956 5.88942L9.95378 6.13125ZM9.95378 6.71461L9.71194 6.47277L9.71074 6.47399L9.95378 6.71461ZM4.58036 12.142L4.33733 11.9014L3.76348 12.481L4.5791 12.484L4.58036 12.142ZM19.8416 12.1981L19.8403 12.5401H19.8416V12.1981ZM19.8416 13.0148L19.8403 13.3568H19.8416V13.0148ZM10.1968 18.1994L4.76988 12.7179L4.2838 13.1991L9.71074 18.6806L10.1968 18.1994ZM10.2165 19.2423C10.4572 18.9534 10.4858 18.4884 10.1956 18.1982L9.71195 18.6818C9.71198 18.6819 9.71241 18.6823 9.71313 18.6834C9.71387 18.6846 9.71501 18.6866 9.71622 18.6898C9.71871 18.6964 9.72116 18.7068 9.72116 18.7207C9.72116 18.75 9.71055 18.781 9.69105 18.8044L10.2165 19.2423ZM9.12859 19.2652C9.42369 19.5603 9.92272 19.5949 10.2165 19.2423L9.69105 18.8044C9.68739 18.8088 9.68484 18.8102 9.68352 18.8108C9.68188 18.8115 9.6786 18.8126 9.67304 18.8126C9.6624 18.8126 9.63879 18.8081 9.61226 18.7815L9.12859 19.2652ZM3.03141 13.1097L9.12745 19.264L9.6134 18.7827L3.51736 12.6283L3.03141 13.1097ZM2.86934 12.3045C2.76311 12.57 2.81371 12.892 3.03256 13.1108L3.51622 12.6272C3.50895 12.6199 3.50341 12.61 3.50097 12.5972C3.49839 12.5837 3.4999 12.5698 3.50442 12.5585L2.86934 12.3045ZM3.03255 12.0438C3.01937 12.057 2.97824 12.0973 2.9414 12.1488C2.90919 12.1939 2.84488 12.2951 2.84488 12.4315H3.52888C3.52888 12.4736 3.51851 12.5045 3.51184 12.5204C3.50516 12.5364 3.49887 12.5452 3.49799 12.5464C3.49678 12.5481 3.49733 12.5471 3.50097 12.5431C3.50467 12.5391 3.5087 12.535 3.51622 12.5275L3.03255 12.0438ZM9.12745 5.89058L3.03141 12.045L3.51736 12.5263L9.6134 6.37193L9.12745 5.89058ZM10.1956 5.88942C9.90051 5.59433 9.40149 5.55976 9.10769 5.91231L9.63316 6.3502C9.63682 6.3458 9.63937 6.34445 9.64068 6.34385C9.64233 6.3431 9.6456 6.342 9.65116 6.342C9.66181 6.342 9.68541 6.34655 9.71195 6.37308L10.1956 5.88942ZM10.4124 6.42293C10.4124 6.33604 10.4016 6.24079 10.3641 6.14338C10.3261 6.04446 10.2676 5.96139 10.1956 5.88942L9.71195 6.37308C9.72035 6.38149 9.72403 6.38656 9.72526 6.38838C9.7263 6.38992 9.72609 6.38987 9.72572 6.38893C9.72472 6.38631 9.72845 6.39315 9.72845 6.42293H10.4124ZM10.1956 6.95644C10.2676 6.88447 10.3261 6.8014 10.3641 6.70248C10.4016 6.60507 10.4124 6.50982 10.4124 6.42293H9.72845C9.72845 6.45271 9.72472 6.45955 9.72572 6.45694C9.72609 6.45599 9.7263 6.45594 9.72526 6.45748C9.72403 6.4593 9.72035 6.46437 9.71195 6.47278L10.1956 6.95644ZM4.8234 12.3826L10.1968 6.95523L9.71074 6.47399L4.33733 11.9014L4.8234 12.3826ZM19.8428 11.8561L4.58162 11.8L4.5791 12.484L19.8403 12.5401L19.8428 11.8561ZM20.5919 12.6065C20.5919 12.1843 20.2638 11.8561 19.8416 11.8561V12.5401C19.8705 12.5401 19.8847 12.5499 19.8914 12.5566C19.8982 12.5634 19.9079 12.5776 19.9079 12.6065H20.5919ZM19.8416 13.3568C20.2638 13.3568 20.5919 13.0287 20.5919 12.6065H19.9079C19.9079 12.6353 19.8982 12.6496 19.8914 12.6563C19.8847 12.6631 19.8705 12.6728 19.8416 12.6728V13.3568ZM4.52558 13.3005L19.8403 13.3568L19.8428 12.6728L4.5281 12.6165L4.52558 13.3005Z" fill="#C5C5C4"/>
</svg>
