<svg width="80" height="80" viewBox="0 0 80 80" fill="none" xmlns="http://www.w3.org/2000/svg">
<path d="M51.8 54.4C49.6 50.7 45.8 48.3 41.6 47.8V43.3C41.7 38.7 42.6 34.8 44.5 31.6C52.5 31.6 57.7 29.3 62.9 23.4C64.7 21.4 65.5 20 66.1 18.9C65.9 18.6 64.8 16.5 61.3 15C58.9 14 53.8 12.8 47.3 16.4C43.5 18.6 41 21.6 40.5 24.7C40.2 26.6 40.6 28.5 41.8 30.2C41 31.4 40.5 32.6 40 34C39.5 32.7 39 31.4 38.3 30.2C39.5 28.5 39.9 26.6 39.6 24.7C39.1 21.6 36.6 18.6 32.8 16.4C26.3 12.8 21.2 14 18.7 15C18.3 15.3 16 15.8 14 18.9C14.7 20.2 15.4 21.6 17.1 23.4C19.8 26.4 22.4 28.4 25.4 29.7C28.3 31 31.6 31.6 35.6 31.6C37.4 34.8 38.4 38.7 38.5 43.3V47.8C34.3 48.3 30.5 50.7 28.3 54.4C21.4 52 14 57.1 14 64.5V66H66V64.5C66 57.1 58.6 52 51.8 54.4ZM43.4 25.2C43.8 23.1 45.7 20.8 48.7 19.1C53.8 16.3 57.7 16.9 60 17.9C61.1 18.3 61.8 18.9 62.3 19.3C61.9 19.9 61.3 20.7 60.6 21.5C56.5 26.1 52.5 28.2 46.7 28.6C48.8 26.3 51.6 24.3 54.8 23L53.7 20.2C49.7 21.8 46.2 24.4 43.8 27.4C43.4 26.6 43.3 25.9 43.4 25.2ZM36.4 27.3C33.9 24.2 30.5 21.7 26.5 20.1L25.4 22.9C28.6 24.2 31.4 26.1 33.5 28.5C27.6 28.1 23.6 26 19.5 21.4C18.7 20.6 18.2 19.8 17.8 19.2C18.3 18.8 19 18.3 20 17.8C22 17 26 16.1 31.4 19C34.4 20.7 36.3 23 36.7 25.1C36.7 25.9 36.6 26.6 36.4 27.3ZM17.2 63C18.2 58.3 23.5 55.4 28.2 57.8L29.6 58.5L30.3 57C32 53.2 35.8 50.7 40 50.7C44.1 50.7 47.9 53.2 49.7 57L50.4 58.5L51.8 57.8C56.5 55.4 61.8 58.3 62.8 63H17.2Z" fill="#808080"/>
</svg>
