<svg width="16" height="16" viewBox="0 0 16 16" fill="none" xmlns="http://www.w3.org/2000/svg">
<path fill-rule="evenodd" clip-rule="evenodd" d="M8.4001 3.41094V4.99998C8.4001 5.22089 8.22101 5.39998 8.0001 5.39998C7.77918 5.39998 7.6001 5.22089 7.6001 4.99998V3.41094C6.11645 3.49255 4.77198 4.02515 3.71725 4.85848L4.28302 5.42424C4.43923 5.58045 4.43923 5.83372 4.28302 5.98993C4.12681 6.14613 3.87354 6.14613 3.71733 5.98993L3.12057 5.39317C2.25735 6.27001 1.66799 7.37863 1.47178 8.59998H2.40005C2.62096 8.59998 2.80005 8.77906 2.80005 8.99998C2.80005 9.22089 2.62096 9.39998 2.40005 9.39998H1.40097C1.40039 9.43325 1.4001 9.46658 1.4001 9.49998C1.4001 10.7032 1.77676 11.8257 2.42983 12.7729C2.55523 12.9548 2.50944 13.2039 2.32757 13.3293C2.1457 13.4547 1.8966 13.4089 1.7712 13.227C1.03112 12.1536 0.600098 10.8741 0.600098 9.49998C0.600098 5.66181 3.94162 2.59998 8.0001 2.59998C12.0586 2.59998 15.4001 5.66181 15.4001 9.49998C15.4001 10.8741 14.9691 12.1536 14.229 13.227C14.1036 13.4089 13.8545 13.4547 13.6726 13.3293C13.4908 13.2039 13.445 12.9548 13.5704 12.7729C14.2234 11.8257 14.6001 10.7032 14.6001 9.49998C14.6001 9.46658 14.5998 9.43325 14.5992 9.39998H13.6002C13.3793 9.39998 13.2002 9.22089 13.2002 8.99998C13.2002 8.77906 13.3793 8.59998 13.6002 8.59998H14.5284C14.3211 7.30924 13.6746 6.1444 12.7299 5.24598C12.7199 5.25876 12.709 5.27106 12.6972 5.28282L11.9901 5.98993C11.8339 6.14613 11.5807 6.14613 11.4245 5.98993C11.2682 5.83372 11.2682 5.58045 11.4245 5.42424L12.117 4.73165C11.0888 3.97128 9.80704 3.48833 8.4001 3.41094ZM8.0001 12C8.55238 12 9.0001 11.5523 9.0001 11C9.0001 10.8733 8.97653 10.7521 8.93355 10.6405L11.1113 8.46275C11.2675 8.30654 11.2675 8.05327 11.1113 7.89706C10.9551 7.74085 10.7018 7.74085 10.5456 7.89706L8.37148 10.0712C8.25666 10.0253 8.13133 9.99998 8.0001 9.99998C7.44781 9.99998 7.0001 10.4477 7.0001 11C7.0001 11.5523 7.44781 12 8.0001 12Z" fill="#808080"/>
</svg>
