<svg width="36" height="36" viewBox="0 0 36 36" fill="none" xmlns="http://www.w3.org/2000/svg">
<path d="M18 36C14.4399 36 10.9598 34.9443 7.99974 32.9665C5.03966 30.9886 2.73255 28.1774 1.37018 24.8883C0.00779906 21.5992 -0.348661 17.98 0.345873 14.4884C1.04041 10.9967 2.75474 7.78943 5.27209 5.27209C7.78943 2.75474 10.9967 1.04041 14.4884 0.345873C17.98 -0.348661 21.5992 0.00779906 24.8883 1.37018C28.1774 2.73255 30.9886 5.03966 32.9665 7.99974C34.9443 10.9598 36 14.4399 36 18C35.9947 22.7723 34.0965 27.3475 30.722 30.722C27.3475 34.0965 22.7723 35.9947 18 36ZM18 2.11765C14.8588 2.11765 11.7881 3.04914 9.17624 4.79431C6.5644 6.53949 4.52872 9.01997 3.32663 11.9221C2.12453 14.8242 1.81001 18.0176 2.42283 21.0985C3.03565 24.1794 4.5483 27.0093 6.76949 29.2305C8.99067 31.4517 11.8206 32.9644 14.9015 33.5772C17.9824 34.19 21.1758 33.8755 24.0779 32.6734C26.98 31.4713 29.4605 29.4356 31.2057 26.8238C32.9509 24.2119 33.8824 21.1412 33.8824 18C33.8776 13.7892 32.2027 9.75224 29.2253 6.77475C26.2478 3.79726 22.2108 2.12242 18 2.11765ZM25.1015 23.6044C25.2944 23.8041 25.4011 24.0715 25.3987 24.3491C25.3963 24.6268 25.2849 24.8923 25.0886 25.0886C24.8923 25.285 24.6268 25.3963 24.3491 25.3987C24.0715 25.4011 23.8041 25.2944 23.6044 25.1015L18 19.4972L12.3957 25.1015C12.196 25.2944 11.9285 25.4011 11.6509 25.3987C11.3733 25.3963 11.1077 25.285 10.9114 25.0886C10.7151 24.8923 10.6037 24.6268 10.6013 24.3491C10.5989 24.0715 10.7056 23.8041 10.8985 23.6044L16.5028 18L10.8985 12.3957C10.7056 12.196 10.5989 11.9285 10.6013 11.6509C10.6037 11.3733 10.7151 11.1077 10.9114 10.9114C11.1077 10.7151 11.3733 10.6037 11.6509 10.6013C11.9285 10.5989 12.196 10.7056 12.3957 10.8985L18 16.5028L23.6044 10.8985C23.8041 10.7056 24.0715 10.5989 24.3491 10.6013C24.6268 10.6037 24.8923 10.7151 25.0886 10.9114C25.2849 11.1077 25.3963 11.3733 25.3987 11.6509C25.4011 11.9285 25.2944 12.196 25.1015 12.3957L19.4972 18L25.1015 23.6044Z" fill="white"/>
</svg>
