<svg width="80" height="80" viewBox="0 0 80 80" fill="none" xmlns="http://www.w3.org/2000/svg">
<path d="M68.7996 50.5H64.8996L62.4996 24.1C62.3996 23.5 61.8996 23 61.2996 23H56.2996C55.6996 23 55.0996 23.5 55.0996 24.1L52.6996 50.5H47.5996V41.7C47.5996 41 46.9996 40.5 46.3996 40.5H32.4996V39.2C32.4996 37.5 31.3996 36.1 29.8996 35.7L27.4996 9.1C27.3996 8.5 26.8996 8 26.2996 8H21.2996C20.6996 8 20.0996 8.5 20.0996 9.1L17.6996 35.7C16.1996 36.2 15.0996 37.6 15.0996 39.2V40.5H11.2996C10.5996 40.5 10.0996 41.1 10.0996 41.7V66.7C10.0996 67.4 10.6996 68 11.2996 68H46.2996H68.7996C69.4996 68 69.9996 67.4 69.9996 66.7V51.7C69.9996 51.1 69.3996 50.5 68.7996 50.5ZM57.3996 25.5H60.0996L62.3996 50.5H55.0996L57.3996 25.5ZM22.3996 10.5H25.0996L27.3996 35.5H20.0996L22.3996 10.5ZM17.4996 39.2C17.4996 38.5 18.0996 38 18.7996 38H28.7996C29.4996 38 29.9996 38.6 29.9996 39.2V40.5H17.4996V39.2ZM12.4996 58H28.6996C29.3996 58 29.8996 57.4 29.8996 56.8C29.8996 56.1 29.2996 55.6 28.6996 55.6H12.4996V53H28.6996C29.3996 53 29.8996 52.4 29.8996 51.7C29.8996 51 29.2996 50.5 28.6996 50.5H12.4996V48H28.6996C29.3996 48 29.8996 47.4 29.8996 46.8C29.8996 46.1 29.2996 45.5 28.6996 45.5H12.4996V43H16.1996H31.1996H44.9996V51.7V65.5H12.4996V58ZM47.4996 65.5V53H67.4996V55.5H58.7996C58.0996 55.5 57.5996 56.1 57.5996 56.7C57.5996 57.4 58.1996 57.9 58.7996 57.9H67.4996V65.4H47.4996V65.5Z" fill="#A07A4B"/>
</svg>
