<svg width="80" height="80" viewBox="0 0 80 80" fill="none" xmlns="http://www.w3.org/2000/svg">
<path d="M18.9 40.6C17.4 40.6 16.1 41.5 15.5 42.9C14.9 44.3 15.2 45.8 16.3 46.9C17.3 47.9 18.9 48.3 20.3 47.7C21.7 47.1 22.6 45.8 22.6 44.3C22.6 42.2 20.9 40.6 18.9 40.6ZM18.9 46.2C18.1 46.2 17.4 45.7 17.1 45C16.8 44.3 17 43.4 17.5 42.8C18.1 42.2 18.9 42.1 19.7 42.4C20.4 42.7 20.9 43.4 20.9 44.2C20.9 45.3 20 46.2 18.9 46.2Z" fill="#72573D"/>
<path d="M34.8 40.6C33.3 40.6 32 41.5 31.4 42.9C30.8 44.3 31.1 45.8 32.2 46.9C33.2 47.9 34.8 48.3 36.2 47.7C37.6 47.1 38.5 45.8 38.5 44.3C38.4 42.2 36.8 40.6 34.8 40.6ZM34.8 46.2C34 46.2 33.3 45.7 33 45C32.7 44.3 32.9 43.4 33.4 42.8C34 42.2 34.8 42.1 35.6 42.4C36.3 42.7 36.8 43.4 36.8 44.2C36.8 45.3 35.9 46.2 34.8 46.2Z" fill="#72573D"/>
<path d="M26.8 48.5C25.3 48.5 24 49.4 23.4 50.8C22.8 52.2 23.1 53.8 24.2 54.8C25.2 55.8 26.8 56.2 28.2 55.6C29.6 55 30.5 53.7 30.5 52.2C30.5 50.1 28.9 48.5 26.8 48.5ZM26.8 54.2C26 54.2 25.3 53.7 25 53C24.7 52.3 24.9 51.4 25.4 50.8C26 50.2 26.8 50.1 27.6 50.4C28.3 50.7 28.8 51.4 28.8 52.2C28.8 53.3 27.9 54.2 26.8 54.2Z" fill="#72573D"/>
<path d="M34.8 56.4C33.3 56.4 32 57.3 31.4 58.7C30.8 60.1 31.1 61.6 32.2 62.7C33.3 63.8 34.8 64.1 36.2 63.5C37.6 62.9 38.5 61.6 38.5 60.1C38.4 58.1 36.8 56.4 34.8 56.4ZM36.2 61.5C35.8 61.9 35.3 62.1 34.8 62.1C34 62.1 33.3 61.6 33 60.9C32.7 60.2 32.9 59.3 33.4 58.7C34 58.1 34.8 58 35.6 58.3C36.3 58.6 36.8 59.3 36.8 60.1C36.8 60.6 36.6 61.1 36.2 61.5Z" fill="#72573D"/>
<path d="M18.9 56.4C17.4 56.4 16.1 57.3 15.5 58.7C14.9 60.1 15.2 61.6 16.3 62.7C17.3 63.7 18.9 64.1 20.3 63.5C21.7 62.9 22.6 61.6 22.6 60.1C22.6 58.1 20.9 56.4 18.9 56.4ZM20.3 61.5C19.9 61.9 19.4 62.1 18.9 62.1C18.1 62.1 17.4 61.6 17.1 60.9C16.8 60.2 17 59.3 17.5 58.7C18.1 58.1 18.9 58 19.7 58.3C20.4 58.6 20.9 59.3 20.9 60.1C20.9 60.6 20.7 61.1 20.3 61.5Z" fill="#72573D"/>
<path d="M35.2 25.1C33.9 25.8 33.2 27.3 33.4 28.8C33.6 30.3 34.7 31.5 36.1 31.9C37.5 32.3 39.1 31.8 40 30.6C40.9 29.4 41 27.8 40.3 26.5C39.2 24.7 36.9 24.1 35.2 25.1ZM38 30C37.3 30.4 36.4 30.3 35.8 29.9C35.2 29.4 34.9 28.6 35.1 27.8C35.3 27 36 26.4 36.8 26.3C37.6 26.2 38.4 26.6 38.8 27.3C39.3 28.2 39 29.5 38 30Z" fill="#72573D"/>
<path d="M48.8 27.6C46.9 27.1 44.9 28.3 44.4 30.2C43.9 32.1 45 34.1 46.9 34.7C47.2 34.8 47.5 34.8 47.9 34.8C49.7 34.8 51.3 33.4 51.5 31.6C51.7 29.8 50.5 28.1 48.8 27.6ZM48.8 32.9C48.3 33.2 47.6 33.3 47 33C46.4 32.8 46 32.3 45.8 31.7C45.6 31.1 45.8 30.5 46.1 30C46.5 29.5 47.1 29.2 47.7 29.2C47.9 29.2 48.1 29.2 48.2 29.3C49 29.5 49.6 30.2 49.7 31C49.9 31.7 49.5 32.5 48.8 32.9Z" fill="#72573D"/>
<path d="M59.6 30.5C57.7 30 55.7 31.2 55.2 33.1C54.7 35 55.8 37 57.7 37.6C59.6 38.1 61.6 36.9 62.1 35C62.6 33.1 61.5 31.1 59.6 30.5ZM60.6 34.6C60.4 35.3 59.8 35.9 59.1 36C58.4 36.1 57.6 35.9 57.1 35.3C56.6 34.7 56.6 33.9 56.9 33.2C57.2 32.5 57.9 32.1 58.7 32.1C58.9 32.1 59.1 32.1 59.2 32.2C60.2 32.4 60.9 33.5 60.6 34.6Z" fill="#72573D"/>
<path d="M70.1 35.1L55.5 9.90004C54.7 8.60004 53.1 8.10004 51.8 8.90004L26.5 23.5C25.2 24.3 24.7 25.9 25.5 27.2L29.9 34.8H12.2C10.7 34.8 9.5 36 9.5 37.5V66.7C9.5 68.2 10.7 69.4 12.2 69.4H41.4C42.9 69.4 44.1 68.2 44.1 66.7V53.3L69.1 38.9C69.7 38.5 70.2 37.9 70.4 37.2C70.6 36.5 70.5 35.8 70.1 35.1ZM41.4 65.8C41.4 66.4 41 66.8 40.4 66.8H13.2C12.6 66.8 12.2 66.4 12.2 65.8V38.6C12.2 38 12.6 37.6 13.2 37.6H40.4C41 37.6 41.4 38 41.4 38.6V65.8ZM67.3 36.4C67.2 36.7 67.1 36.9 66.8 37L44.4 50V37.1C44.4 35.7 43.3 34.6 41.8 34.5H32.9L28.4 26.6C28.3 26.4 28.2 26.1 28.3 25.8C28.4 25.5 28.5 25.3 28.8 25.2L52.3 11.6C52.5 11.5 52.8 11.4 53.1 11.5C53.4 11.6 53.6 11.7 53.7 12L67.3 35.5C67.4 35.9 67.4 36.1 67.3 36.4Z" fill="#72573D"/>
</svg>
