<svg width="24" height="24" viewBox="0 0 24 24" fill="none" xmlns="http://www.w3.org/2000/svg">
<g clip-path="url(#clip0_13117_2080)">
<path d="M23.73 13.5538L20.07 10.5743C19.86 10.399 19.56 10.3406 19.32 10.4282C19.02 10.5451 18.81 10.808 18.81 11.1001V12.1517H17.52C17.55 11.9764 17.55 11.8011 17.55 11.6259C17.55 8.64639 15.06 6.22192 12 6.22192C10.74 6.22192 9.57 6.63087 8.64 7.33192H5.19V6.28034C5.19 5.98823 4.98 5.69613 4.68 5.6085C4.41 5.52087 4.14 5.57929 3.93 5.75455L0.27 8.73402C0.09 8.88008 0 9.05534 0 9.25981C0 9.46429 0.09 9.66876 0.27 9.81481L3.93 12.7943C4.08 12.9111 4.26 12.9695 4.44 12.9695C4.53 12.9695 4.62 12.9695 4.71 12.9403C5.01 12.8235 5.22 12.5606 5.22 12.2685V11.2169H6.48C6.48 11.363 6.45 11.5382 6.45 11.6843C6.45 14.6638 8.94 17.0882 12 17.0882C13.26 17.0882 14.4 16.6793 15.33 16.0074V16.0367H18.84V17.0882C18.84 17.3803 19.05 17.6724 19.35 17.7601C19.44 17.7893 19.53 17.7893 19.62 17.7893C19.8 17.7893 19.98 17.7309 20.13 17.614L23.79 14.6638C23.97 14.5177 24.06 14.3424 24.06 14.1088C24 13.8751 23.91 13.6998 23.73 13.5538ZM4.53 10.5451V12.2393C4.53 12.2685 4.47 12.2977 4.47 12.2977C4.44 12.2977 4.38 12.2977 4.35 12.2685L0.69 9.31823C0.66 9.31823 0.66 9.28902 0.66 9.25981C0.66 9.2306 0.66 9.2306 0.69 9.20139L4.35 6.25113C4.38 6.22192 4.44 6.22192 4.47 6.22192C4.5 6.22192 4.53 6.25113 4.53 6.28034V7.97455H7.89C7.23 8.6756 6.75 9.52271 6.54 10.4867H4.53V10.5451ZM12 16.4164C9.3 16.4164 7.11 14.284 7.11 11.6551C7.11 9.02613 9.3 6.89376 12 6.89376C14.7 6.89376 16.89 9.02613 16.89 11.6551C16.89 14.284 14.67 16.4164 12 16.4164ZM23.31 14.138L19.65 17.0882C19.62 17.1174 19.56 17.1174 19.53 17.1174C19.5 17.1174 19.47 17.0882 19.47 17.059V15.3648H16.02C16.68 14.6638 17.16 13.8167 17.4 12.8527H19.47V11.1585C19.47 11.1293 19.53 11.1001 19.53 11.1001C19.56 11.0709 19.62 11.1001 19.65 11.1293L23.31 14.0795C23.34 14.0795 23.34 14.1088 23.34 14.138C23.34 14.1088 23.34 14.138 23.31 14.138Z" fill="#B9964B"/>
<path d="M12.2699 11.2168C11.6699 11.0708 11.2499 10.9832 11.2499 10.5742C11.2499 10.2237 11.5799 9.99 12.0899 9.99C12.5999 9.99 13.1099 10.2529 13.4099 10.5742C13.4399 10.6034 13.8299 10.3697 13.8299 10.0192C13.8299 9.63947 13.3499 9.25974 12.4799 9.17211V8.90921C12.4799 8.55869 12.3599 8.38342 12.0299 8.38342H11.9699C11.6699 8.38342 11.5199 8.55869 11.5199 8.90921V9.20132C10.6799 9.34737 10.1399 9.87316 10.1399 10.6034C10.1399 11.5966 11.0399 11.8887 11.7299 12.0347C12.2999 12.1516 12.7799 12.2684 12.7799 12.7066C12.7799 13.0571 12.4499 13.2908 11.9099 13.2908C11.3099 13.2908 10.7099 12.9987 10.4099 12.6482C10.3799 12.6189 9.98993 12.8526 9.98993 13.1739C9.98993 13.6121 10.5299 14.0211 11.4899 14.1087V14.4008C11.4899 14.7513 11.6099 14.9266 11.9399 14.9266H11.9999C12.2999 14.9266 12.4499 14.7513 12.4499 14.4008V14.1087C13.3799 13.9626 13.9199 13.4368 13.9199 12.6774C13.9199 11.655 12.9899 11.3629 12.2699 11.2168Z" fill="#B9964B"/>
</g>
<defs>
<clipPath id="clip0_13117_2080">
<rect width="24" height="24" fill="white"/>
</clipPath>
</defs>
</svg>
