<svg width="80" height="80" viewBox="0 0 80 80" fill="none" xmlns="http://www.w3.org/2000/svg">
<path d="M62.1998 56.6999V24.6999C62.1998 18.3999 58.2998 17.2999 47.4998 17.0999L49.2998 12.5999C52.6998 13.1999 54.3998 13.9999 54.5998 14.4999C54.5998 15.1999 55.1998 15.7999 55.8998 15.7999C56.5998 15.7999 57.1998 15.1999 57.1998 14.4999C57.1998 10.0999 46.3998 9.3999 39.9998 9.3999C34.8998 9.3999 22.8998 9.8999 22.8998 14.4999C22.8998 15.1999 23.4998 15.7999 24.1998 15.7999C24.8998 15.7999 25.4998 15.1999 25.4998 14.4999C25.5998 13.9999 27.2998 13.1999 30.6998 12.5999L32.4998 17.0999C21.6998 17.2999 17.7998 18.3999 17.7998 24.6999V56.6999C17.7998 60.4999 20.6998 64.2999 23.8998 65.1999L19.5998 68.1999C18.9998 68.5999 18.8998 69.3999 19.2998 69.9999C19.6998 70.5999 20.4998 70.6999 21.0998 70.2999L28.0998 65.3999H51.9998L58.9998 70.2999C59.5998 70.6999 60.3998 70.5999 60.7998 69.9999C61.1998 69.3999 61.0998 68.5999 60.4998 68.1999L55.9998 65.0999C60.4998 64.0999 62.1998 60.2999 62.1998 56.6999ZM33.1998 12.3999C35.3998 12.1999 37.6998 12.0999 39.8998 12.0999C42.1998 12.0999 44.4998 12.1999 46.6998 12.3999L44.7998 17.1999C43.2998 17.1999 41.6998 17.1999 39.8998 17.1999C38.0998 17.1999 36.5998 17.1999 34.9998 17.1999L33.1998 12.3999ZM53.2998 62.8999H25.2998C23.0998 62.8999 20.1998 59.8999 20.1998 56.7999V24.7999C20.1998 20.1999 21.9998 19.6999 39.8998 19.6999C57.7998 19.6999 59.5998 20.1999 59.5998 24.7999V56.7999C59.6998 58.9999 58.8998 62.8999 53.2998 62.8999Z" fill="#A07A4B"/>
<path d="M52.8998 24.6999H26.9998C24.5998 24.6999 22.7998 26.0999 22.7998 28.0999V42.1999C22.7998 44.2999 24.7998 46.2999 26.9998 46.2999H52.8998C55.0998 46.2999 57.1998 44.2999 57.1998 42.1999V28.0999C57.1998 25.8999 54.9998 24.6999 52.8998 24.6999ZM54.5998 42.2999C54.5998 42.9999 53.5998 43.8999 52.8998 43.8999H26.9998C26.2998 43.8999 25.3998 43.0999 25.3998 42.2999V28.0999C25.3998 27.4999 26.3998 27.2999 26.9998 27.2999H52.8998C53.5998 27.2999 54.5998 27.5999 54.5998 28.0999V42.2999Z" fill="#A07A4B"/>
<path d="M52.0998 50.1999C49.2998 50.1999 46.9998 52.4999 46.9998 55.2999C46.9998 58.0999 49.2998 60.3999 52.0998 60.3999C54.8998 60.3999 57.1998 58.0999 57.1998 55.2999C57.1998 52.3999 54.8998 50.1999 52.0998 50.1999ZM52.0998 57.7999C50.6998 57.7999 49.5998 56.6999 49.5998 55.2999C49.5998 53.8999 50.6998 52.7999 52.0998 52.7999C53.4998 52.7999 54.5998 53.8999 54.5998 55.2999C54.5998 56.6999 53.4998 57.7999 52.0998 57.7999Z" fill="#A07A4B"/>
<path d="M27.8998 50.1999C25.0998 50.1999 22.7998 52.4999 22.7998 55.2999C22.7998 58.0999 25.0998 60.3999 27.8998 60.3999C30.6998 60.3999 32.9998 58.0999 32.9998 55.2999C32.9998 52.3999 30.6998 50.1999 27.8998 50.1999ZM27.8998 57.7999C26.4998 57.7999 25.3998 56.6999 25.3998 55.2999C25.3998 53.8999 26.4998 52.7999 27.8998 52.7999C29.2998 52.7999 30.3998 53.8999 30.3998 55.2999C30.4998 56.6999 29.2998 57.7999 27.8998 57.7999Z" fill="#A07A4B"/>
</svg>
