<svg width="32" height="32" viewBox="0 0 32 32" fill="none" xmlns="http://www.w3.org/2000/svg">
<path d="M5.00806 15.4332C5.03113 14.8192 5.39385 14.2784 5.9204 13.9618L8.03476 12.6904C8.62835 12.3335 8.99502 11.6949 9.00398 11.0023L9.04061 8.16983C9.04822 7.58162 9.30851 7.0179 9.7922 6.6831C10.1271 6.45128 10.4754 6.23769 10.8356 6.04375C11.3843 5.74832 12.0443 5.79516 12.5867 6.10214L15.0071 7.47224C15.6183 7.81824 16.3663 7.81824 16.9775 7.47224L19.4055 6.09786C19.9473 5.79119 20.6066 5.74411 21.1551 6.03872C21.512 6.23045 21.8572 6.44147 22.1894 6.67041C22.6748 7.00495 22.9363 7.56977 22.9439 8.15925L22.9806 11.0023C22.9896 11.6949 23.3563 12.3335 23.9499 12.6904L26.0799 13.9712C26.607 14.2881 26.9699 14.8297 26.9924 15.4443C26.9974 15.5831 27 15.7226 27 15.8627C27 16.2885 26.9763 16.7088 26.9302 17.1221C26.8673 17.6862 26.5185 18.1705 26.0321 18.463L23.9499 19.715C23.3563 20.0719 22.9896 20.7106 22.9806 21.4031L22.9527 23.5601C22.9451 24.1489 22.6844 24.713 22.1999 25.0477C21.6321 25.44 21.026 25.78 20.3885 26.0606C19.864 26.2915 19.264 26.2274 18.7652 25.9451L16.9775 24.9332C16.3663 24.5872 15.6183 24.5872 15.0071 24.9332L13.2262 25.9413C12.7269 26.2239 12.126 26.2878 11.6012 26.0561C10.9606 25.7733 10.3518 25.4306 9.78169 25.035C9.29898 24.7001 9.03933 24.137 9.03174 23.5495L9.00398 21.4031C8.99502 20.7106 8.62836 20.0719 8.03476 19.715L5.96896 18.4728C5.48315 18.1807 5.13455 17.6972 5.07111 17.1339C5.02414 16.7167 5 16.2926 5 15.8627C5 15.7189 5.0027 15.5757 5.00806 15.4332Z" stroke="#3FB5BD" stroke-width="1.5" stroke-linecap="round"/>
<circle cx="15.9997" cy="16.0007" r="4.74675" stroke="#3FB5BD" stroke-width="1.5" stroke-linecap="round"/>
</svg>
