<svg width="20" height="20" viewBox="0 0 20 20" fill="none" xmlns="http://www.w3.org/2000/svg">
<mask id="mask0_52902_3936" style="mask-type:alpha" maskUnits="userSpaceOnUse" x="0" y="0" width="20" height="20">
<circle cx="10" cy="10" r="10" fill="#F68703"/>
</mask>
<g mask="url(#mask0_52902_3936)">
<g clip-path="url(#clip0_52902_3936)">
<path d="M0 -0.333496H38V24.9998H0V-0.333496Z" fill="#F2F2F2"/>
<path d="M0 -0.333496H38V12.3332H0V-0.333496Z" fill="#ED2939"/>
<path d="M8.16204 11.1908C10.7368 11.1908 12.8241 9.10351 12.8241 6.52874C12.8241 3.95396 10.7368 1.8667 8.16204 1.8667C5.58726 1.8667 3.5 3.95396 3.5 6.52874C3.5 9.10351 5.58726 11.1908 8.16204 11.1908Z" fill="#F2F2F2"/>
<path d="M10.2734 11.1908C12.8481 11.1908 14.9354 9.10351 14.9354 6.52874C14.9354 3.95396 12.8481 1.8667 10.2734 1.8667C7.69859 1.8667 5.61133 3.95396 5.61133 6.52874C5.61133 9.10351 7.69859 11.1908 10.2734 11.1908Z" fill="#ED2939"/>
<path d="M10.7131 2.64062L9.99956 4.83657L11.8675 3.4794H9.55859L11.4266 4.83657L10.7131 2.64062Z" fill="#F2F2F2"/>
<path d="M14.4107 5.32746L12.1018 5.32747L13.9697 6.68463L13.2562 4.48869L12.5427 6.68463L14.4107 5.32746Z" fill="#F2F2F2"/>
<path d="M8.42758 9.67444L10.2956 8.31727L7.98661 8.31727L9.85459 9.67444L9.14109 7.4785L8.42758 9.67444Z" fill="#F2F2F2"/>
<path d="M12.9984 9.67419L12.2849 7.47824L11.5714 9.67419L13.4394 8.31702L11.1304 8.31702L12.9984 9.67419Z" fill="#F2F2F2"/>
<path d="M7.01544 5.32732L8.88343 6.68449L8.16992 4.48854L7.45642 6.68449L9.3244 5.32732L7.01544 5.32732Z" fill="#F2F2F2"/>
</g>
</g>
<defs>
<clipPath id="clip0_52902_3936">
<rect width="38" height="25.3333" fill="white" transform="translate(0 -0.333496)"/>
</clipPath>
</defs>
</svg>
