<svg width="23" height="13" viewBox="0 0 23 13" fill="none" xmlns="http://www.w3.org/2000/svg">
<rect x="0.833252" y="0.166626" width="21.9999" height="11.9999" rx="5.99997" fill="#FDD032"/>
<path d="M6.98525 3.23056H11.4333V3.76656H6.98525V3.23056ZM6.78525 5.14256H11.5773V5.67856H6.78525V5.14256ZM7.73725 7.63856H10.6573V8.11856H7.73725V7.63856ZM7.75325 8.94256H10.6893V9.45456H7.75325V8.94256ZM8.87325 2.50256H9.46525V3.50256H8.87325V2.50256ZM7.67325 3.92656L8.19325 3.82256C8.28392 4.0039 8.36925 4.20656 8.44925 4.43056C8.52925 4.64923 8.58259 4.83856 8.60925 4.99856L8.06525 5.11856C8.03859 4.95856 7.98792 4.76656 7.91325 4.54256C7.83859 4.31856 7.75859 4.11323 7.67325 3.92656ZM10.1773 3.80656L10.7693 3.93456C10.6893 4.14256 10.6039 4.3559 10.5133 4.57456C10.4279 4.79323 10.3453 4.97723 10.2653 5.12656L9.76925 5.01456C9.81725 4.90256 9.86525 4.77723 9.91325 4.63856C9.96659 4.49456 10.0173 4.35056 10.0653 4.20656C10.1133 4.05723 10.1506 3.9239 10.1773 3.80656ZM7.41725 6.34256H11.0333V9.78256H10.4573V6.84656H7.97725V9.79856H7.41725V6.34256ZM4.72125 2.95856H6.63325V8.22256H4.72125V7.67856H6.08125V3.51056H4.72125V2.95856ZM4.75325 5.29456H6.39325V5.83856H4.75325V5.29456ZM4.44125 2.95856H4.99325V8.87856H4.44125V2.95856ZM13.8013 3.04656H18.0653V3.54256H13.8013V3.04656ZM12.2413 4.76656H19.4813V5.29456H12.2413V4.76656ZM13.5293 3.04656H14.1293V4.46256C14.1293 4.75056 14.0973 5.05456 14.0333 5.37456C13.9693 5.68923 13.8466 5.99856 13.6653 6.30256C13.4839 6.60123 13.2173 6.86523 12.8653 7.09456C12.8386 7.0519 12.7986 7.0039 12.7453 6.95056C12.6919 6.8919 12.6359 6.83856 12.5773 6.79056C12.5239 6.73723 12.4733 6.69723 12.4253 6.67056C12.7506 6.46256 12.9906 6.23323 13.1453 5.98256C13.3053 5.7319 13.4093 5.4759 13.4573 5.21456C13.5053 4.9479 13.5293 4.69456 13.5293 4.45456V3.04656ZM17.7613 3.04656H18.3613V6.23856C18.3613 6.38256 18.3399 6.49723 18.2973 6.58256C18.2546 6.66256 18.1773 6.72656 18.0653 6.77456C17.9586 6.81723 17.8146 6.8439 17.6333 6.85456C17.4519 6.8599 17.2253 6.86256 16.9533 6.86256C16.9426 6.7879 16.9186 6.70256 16.8813 6.60656C16.8439 6.51056 16.8039 6.42523 16.7613 6.35056C16.9533 6.3559 17.1293 6.35856 17.2893 6.35856C17.4546 6.35856 17.5639 6.3559 17.6173 6.35056C17.7133 6.35056 17.7613 6.31056 17.7613 6.23056V3.04656ZM15.5373 2.36656L16.1933 2.49456C16.1133 2.65456 16.0386 2.80923 15.9693 2.95856C15.8999 3.1079 15.8333 3.2359 15.7693 3.34256L15.2013 3.22256C15.2599 3.09456 15.3213 2.95056 15.3853 2.79056C15.4546 2.63056 15.5053 2.48923 15.5373 2.36656ZM15.0093 3.99056L15.3053 3.64656C15.4493 3.71056 15.5959 3.78523 15.7453 3.87056C15.8999 3.9559 16.0439 4.0439 16.1773 4.13456C16.3159 4.22523 16.4279 4.31323 16.5133 4.39856L16.2013 4.77456C16.1213 4.69456 16.0146 4.60656 15.8813 4.51056C15.7479 4.41456 15.6039 4.32123 15.4493 4.23056C15.2999 4.13456 15.1533 4.05456 15.0093 3.99056ZM14.9533 5.75856L15.2573 5.41456C15.4066 5.4839 15.5613 5.56656 15.7213 5.66256C15.8866 5.75856 16.0413 5.85456 16.1853 5.95056C16.3293 6.04656 16.4466 6.13723 16.5373 6.22256L16.2333 6.60656C16.1426 6.5159 16.0253 6.4199 15.8813 6.31856C15.7373 6.21723 15.5826 6.11856 15.4173 6.02256C15.2573 5.92123 15.1026 5.83323 14.9533 5.75856ZM12.1933 9.04656H19.4733V9.58256H12.1933V9.04656ZM13.0973 7.07856H18.5773V9.31056H17.9933V7.56656H16.9133V9.31056H16.3533V7.56656H15.2813V9.31056H14.7293V7.56656H13.6573V9.31056H13.0973V7.07856Z" fill="#754E13"/>
</svg>
