<svg width="20" height="20" viewBox="0 0 20 20" fill="none" xmlns="http://www.w3.org/2000/svg">
<path d="M14.7574 2.125H8.13994C7.17994 2.125 6.39744 2.9075 6.39744 3.8675V4.0825H5.24494C4.28494 4.0825 3.50244 4.865 3.50244 5.825V16.1325C3.50244 17.0925 4.28494 17.875 5.24494 17.875H11.8624C12.8224 17.875 13.6049 17.0925 13.6049 16.1325V15.9175H14.7574C15.7174 15.9175 16.4999 15.135 16.4999 14.175V3.8675C16.4999 2.9075 15.7174 2.125 14.7574 2.125ZM12.4799 16.1325C12.4799 16.4725 12.2024 16.75 11.8624 16.75H5.24244C4.90244 16.75 4.62494 16.4725 4.62494 16.1325V5.825C4.62494 5.485 4.90244 5.2075 5.24244 5.2075H11.8599C12.1999 5.2075 12.4799 5.485 12.4799 5.825V16.1325ZM15.3749 14.175C15.3749 14.515 15.0974 14.7925 14.7574 14.7925H13.6049V5.825C13.6049 4.865 12.8224 4.0825 11.8624 4.0825H7.51994V3.8675C7.51994 3.5275 7.79744 3.25 8.13994 3.25H14.7574C15.0974 3.25 15.3749 3.5275 15.3749 3.8675V14.175Z" fill="#217DC1"/>
</svg>
