<svg width="22" height="12" viewBox="0 0 22 12" fill="none" xmlns="http://www.w3.org/2000/svg">
<rect x="0.5" y="0.5" width="21" height="11" rx="5.5" fill="#FDD032"/>
<rect x="0.5" y="0.5" width="21" height="11" rx="5.5" stroke="white"/>
<path d="M6.784 5.264H10.376V6.072H6.784V5.264ZM6.784 6.84H10.376V7.648H6.784V6.84ZM6.68 8.448H10.736V9.32H6.68V8.448ZM8.24 4.136H9.128V8.704H8.24V4.136ZM8.744 2.224L9.76 2.432C9.48 3.128 9.136 3.88 8.872 4.36L8.048 4.152C8.312 3.632 8.6 2.824 8.744 2.224ZM6.912 2.192L7.832 2.424C7.448 3.736 6.8 5.056 6.032 5.88C5.912 5.68 5.608 5.24 5.424 5.032C6.088 4.368 6.616 3.296 6.912 2.192ZM7.304 3.672H10.584V4.512H7.304V9.712H6.384V4.144L6.856 3.672H7.304ZM3.16 6.296C3.832 6.16 4.832 5.912 5.784 5.672L5.896 6.52C5.024 6.776 4.096 7.032 3.36 7.232L3.16 6.296ZM3.32 3.728H5.792V4.608H3.32V3.728ZM4.264 2.216H5.184V8.64C5.184 9.112 5.104 9.368 4.84 9.52C4.576 9.68 4.192 9.712 3.648 9.712C3.616 9.456 3.496 9.04 3.376 8.776C3.688 8.792 4.016 8.792 4.12 8.792C4.224 8.792 4.264 8.752 4.264 8.64V2.216ZM11.448 2.624H18.568V3.384H11.448V2.624ZM12.28 3.952H18.496V4.6H12.28V3.952ZM13.784 6.656H18.536V7.264H13.784V6.656ZM13.608 7.536H17.776V8.168H13.608V7.536ZM13.128 2.208H14.072V3.8H13.128V2.208ZM15.944 2.208H16.904V3.8H15.944V2.208ZM14.512 3.568H15.416V4.216H14.512V3.568ZM13.68 4.4H14.488V5.992H13.68V4.4ZM15.424 4.4H16.24V5.992H15.424V4.4ZM11.848 3.952H12.736V5.728C12.736 6.88 12.616 8.56 11.928 9.648C11.76 9.504 11.368 9.272 11.144 9.184C11.784 8.176 11.848 6.736 11.848 5.72V3.952ZM12.4 4.928H18.176V6.376H12.4V5.84H17.24V5.464H12.4V4.928ZM13.336 6.176L14.208 6.272C14.064 6.944 13.856 7.752 13.696 8.28L12.832 8.2C13 7.672 13.208 6.832 13.336 6.176ZM17.552 7.536H18.432C18.432 7.536 18.424 7.736 18.416 7.84C18.344 8.824 18.248 9.272 18.072 9.464C17.928 9.616 17.76 9.672 17.56 9.696C17.392 9.72 17.088 9.72 16.76 9.704C16.744 9.496 16.672 9.2 16.568 9.008C16.8 9.04 17.008 9.04 17.112 9.04C17.216 9.04 17.272 9.032 17.328 8.968C17.424 8.864 17.496 8.512 17.552 7.64V7.536ZM12.936 8.272L13.632 8.56C13.464 8.992 13.216 9.44 12.824 9.736L12.16 9.312C12.504 9.064 12.784 8.656 12.936 8.272ZM13.856 8.472L14.552 8.376C14.648 8.744 14.712 9.224 14.72 9.528L13.968 9.64C13.984 9.328 13.928 8.84 13.856 8.472ZM14.864 8.472L15.536 8.28C15.704 8.592 15.856 9.016 15.92 9.288L15.216 9.52C15.168 9.232 15.016 8.8 14.864 8.472ZM15.88 8.36L16.488 8.112C16.68 8.32 16.88 8.616 16.976 8.816L16.344 9.104C16.264 8.904 16.056 8.584 15.88 8.36Z" fill="#AF741F"/>
</svg>
