<svg width="80" height="80" viewBox="0 0 80 80" fill="none" xmlns="http://www.w3.org/2000/svg">
<path d="M65.3998 26.3C65.3998 24.7 65.2998 23.3 65.2998 22C65.2998 19.9 63.5998 18.3 61.5998 18.3C53.5998 18.3 47.5998 16 42.5998 11.2C41.0998 9.79999 38.8998 9.79999 37.3998 11.2C32.3998 16.1 26.2998 18.3 18.3998 18.3C16.2998 18.3 14.6998 20 14.6998 22C14.6998 23.4 14.6998 24.8 14.5998 26.3C14.4998 33.4 14.2998 42.1 17.1998 50.1C18.7998 54.5 21.2998 58.3 24.4998 61.4C28.1998 65 32.9998 67.8 38.7998 69.8C39.1998 69.9 39.5998 70 39.9998 70C40.3998 70 40.7998 69.9 41.1998 69.8C46.9998 67.8 51.7998 65 55.4998 61.4C58.6998 58.3 61.1998 54.5 62.7998 50.1C65.6998 42.1 65.5998 33.3 65.3998 26.3ZM59.4998 48.9C56.3998 57.3 49.9998 63 40.0998 66.5H39.9998C29.9998 63 23.5998 57.3 20.4998 48.9C17.7998 41.6 17.8998 33.5 18.0998 26.4C18.0998 24.9 18.1998 23.4 18.1998 22C18.1998 21.9 18.2998 21.8 18.3998 21.8C27.2998 21.8 34.1998 19.2 39.8998 13.7C39.8998 13.7 39.9998 13.6 40.0998 13.6C40.1998 13.6 40.1998 13.6 40.2998 13.7C45.9998 19.3 52.7998 21.8 61.7998 21.8C61.8998 21.8 61.9998 21.9 61.9998 22C61.9998 23.4 61.9998 24.8 62.0998 26.3V26.4C61.9998 33.5 62.1998 41.5 59.4998 48.9Z" fill="#808080"/>
<path d="M50.8998 34.2H45.1998V28.5C45.1998 27.5 44.3998 26.7 43.3998 26.7H36.3998C35.3998 26.7 34.5998 27.5 34.5998 28.5V34.2H28.8998C27.8998 34.2 27.0998 35 27.0998 36V43C27.0998 44 27.8998 44.8 28.8998 44.8H34.5998V50.5C34.5998 51.5 35.3998 52.3 36.3998 52.3H43.3998C44.3998 52.3 45.1998 51.5 45.1998 50.5V44.8H50.8998C51.8998 44.8 52.6998 44 52.6998 43V36C52.6998 34.9 51.8998 34.2 50.8998 34.2ZM49.1998 41.2H43.4998C42.4998 41.2 41.6998 42 41.6998 43V48.7H38.1998V43C38.1998 42 37.3998 41.2 36.3998 41.2H30.6998V37.7H36.3998C37.3998 37.7 38.1998 36.9 38.1998 35.9V30.2H41.6998V35.9C41.6998 36.9 42.4998 37.7 43.4998 37.7H49.1998V41.2Z" fill="#808080"/>
</svg>
