<svg width="20" height="20" viewBox="0 0 20 20" fill="none" xmlns="http://www.w3.org/2000/svg">
<path fill-rule="evenodd" clip-rule="evenodd" d="M17.6447 9.13648C17.6131 8.91466 17.3598 8.75622 17.1383 8.75622C16.4418 8.75622 15.8087 8.34428 15.5555 7.71051C15.3022 7.04506 15.4605 6.28455 15.9987 5.80922C16.1569 5.65078 16.1886 5.39728 16.0303 5.23884C15.6821 4.7952 15.2706 4.35157 14.7957 4.003C14.6058 3.87624 14.3526 3.87624 14.2259 4.03468C13.7511 4.5417 12.9281 4.73182 12.295 4.47832C11.6302 4.19313 11.2187 3.52767 11.2503 2.79884C11.2503 2.57703 11.092 2.3869 10.8705 2.35521C10.3007 2.29183 9.6992 2.29183 9.1294 2.35521C8.90781 2.3869 8.74953 2.57703 8.74953 2.79884C8.78118 3.52767 8.33801 4.16144 7.70489 4.44663C7.07178 4.70014 6.24874 4.51001 5.80556 4.003C5.64728 3.84456 5.39404 3.81287 5.23576 3.93962C4.76093 4.28819 4.3494 4.73182 4.00119 5.17546C3.87457 5.36559 3.87457 5.61909 4.03285 5.74585C4.57099 6.22117 4.72927 7.01337 4.47603 7.67883C4.22278 8.31259 3.55801 8.72454 2.79828 8.72454C2.54503 8.72454 2.38676 8.88298 2.3551 9.10479C2.29179 9.67518 2.29179 10.2773 2.3551 10.8476C2.38676 11.0695 2.64 11.2279 2.86159 11.2279C3.52636 11.1962 4.19112 11.6398 4.44437 12.2736C4.72927 12.9391 4.53934 13.6996 4.00119 14.1749C3.84291 14.3333 3.81126 14.5869 3.96954 14.7453C4.31775 15.1889 4.72927 15.6326 5.17245 15.9811C5.36238 16.1079 5.61563 16.1079 5.7739 15.9494C6.24874 15.4424 7.07178 15.2523 7.70489 15.5058C8.36966 15.791 8.78118 16.4565 8.74953 17.1853C8.74953 17.4071 8.90781 17.5972 9.1294 17.6289C9.4143 17.6606 9.73085 17.6923 10.0158 17.6923C10.3007 17.6923 10.5856 17.6923 10.8705 17.6606C11.092 17.6289 11.2503 17.4388 11.2503 17.217C11.2187 16.4881 11.6618 15.8544 12.295 15.5692C12.9281 15.3157 13.7511 15.5058 14.1943 16.0128C14.3526 16.1713 14.6058 16.2029 14.7641 16.0762C15.2389 15.7276 15.6504 15.284 15.9987 14.8404C16.1253 14.6502 16.1253 14.3967 15.967 14.27C15.4289 13.7946 15.2706 13.0024 15.5238 12.337C15.7771 11.7032 16.4102 11.2913 17.1066 11.2913H17.2016C17.4232 11.323 17.6131 11.1328 17.6447 10.911C17.7081 10.3089 17.7081 9.70687 17.6447 9.13648ZM9.9841 12.5905C8.5596 12.5905 7.41999 11.4497 7.41999 10.0238C7.41999 8.59778 8.5596 7.45701 9.9841 7.45701C11.4086 7.45701 12.5482 8.59778 12.5482 10.0238C12.5799 11.418 11.4086 12.5905 9.9841 12.5905Z" fill="#217DC1"/>
</svg>
