<svg width="16" height="16" viewBox="0 0 16 16" fill="none" xmlns="http://www.w3.org/2000/svg">
<path d="M4.88005 13.32C4.68005 13.32 4.52005 13.16 4.50005 12.98L4.32005 11.08C4.30005 10.88 4.46005 10.68 4.66005 10.66L6.56005 10.48C6.66005 10.48 6.76005 10.5 6.84005 10.56C6.92005 10.62 6.96005 10.72 6.98005 10.82C7.00005 11.02 6.84005 11.22 6.64005 11.24L5.62005 11.34C6.32005 11.86 7.16005 12.14 8.04005 12.14C9.04005 12.14 10.0201 11.76 10.7601 11.1C11.8601 10.1 12.3401 8.58001 11.9801 7.12001C11.9601 7.02001 11.9801 6.92001 12.0201 6.84001C12.0801 6.76001 12.1601 6.70001 12.2601 6.66001C12.4601 6.60001 12.6601 6.74001 12.7201 6.94001C13.1401 8.66001 12.5801 10.46 11.2601 11.66C10.3601 12.46 9.22005 12.9 8.02005 12.9C7.94005 12.9 7.86005 12.9 7.78005 12.9C6.82005 12.86 5.92005 12.52 5.16005 11.96L5.24005 12.9C5.26005 13.1 5.10005 13.3 4.90005 13.32C4.92005 13.32 4.90005 13.32 4.88005 13.32Z" fill="#808080"/>
<path d="M3.63983 9.35999C3.45983 9.35999 3.31982 9.23999 3.27982 9.07999C2.85982 7.35999 3.41983 5.55999 4.73983 4.35999C5.69983 3.49999 6.91982 3.05999 8.21982 3.11999C9.19982 3.15999 10.0998 3.49999 10.8598 4.07999L10.7998 3.07999C10.7998 2.97999 10.8398 2.87999 10.8998 2.79999C10.9598 2.71999 11.0598 2.67999 11.1598 2.67999C11.2598 2.67999 11.3598 2.71999 11.4398 2.77999C11.5198 2.83999 11.5598 2.93999 11.5598 3.03999L11.6398 4.95999C11.6398 5.15999 11.4798 5.31999 11.2798 5.33999L9.37983 5.41999C9.15983 5.41999 8.99983 5.25999 8.97983 5.05999C8.97983 4.95999 9.01983 4.85999 9.07983 4.77999C9.13983 4.69999 9.23983 4.65999 9.33983 4.65999L10.3198 4.61999C8.77983 3.51999 6.63983 3.63999 5.21983 4.91999C4.11983 5.91999 3.63983 7.43999 3.99983 8.89999C4.05983 9.09999 3.91983 9.29999 3.71983 9.35999C3.69983 9.35999 3.67983 9.35999 3.63983 9.35999Z" fill="#808080"/>
</svg>
