<svg width="80" height="80" viewBox="0 0 80 80" fill="none" xmlns="http://www.w3.org/2000/svg">
<path d="M65.2004 34.2C65.2004 31.9 64.2004 29.6 62.6004 28.2C63.3004 26.1 63.0004 23.7 61.8004 21.7C60.6004 19.7 58.6004 18.2 56.5004 17.8C56.0004 15.7 54.6004 13.7 52.6004 12.5C50.6004 11.3 48.1004 11.1 46.1004 11.7C44.6004 10 42.3004 9 40.0004 9C37.7004 9 35.4004 10 34.0004 11.6C31.9004 10.9 29.5004 11.2 27.5004 12.4C25.5004 13.6 24.0004 15.6 23.6004 17.7C21.5004 18.2 19.5004 19.6 18.3004 21.6C17.1004 23.6 16.9004 26.1 17.5004 28.1C15.9004 29.6 14.9004 31.8 14.9004 34.1C14.9004 36.4 15.9004 38.7 17.5004 40.1C16.8004 42.2 17.1004 44.6 18.3004 46.6C19.5004 48.6 21.5004 50.1 23.6004 50.5C24.1004 52.6 25.5004 54.6 27.5004 55.8C29.5004 57 32.0004 57.2 34.0004 56.6C35.1004 57.8 36.6004 58.6 38.2004 59V69.1C38.2004 70.1 39.0004 70.9 40.0004 70.9C41.0004 70.9 41.8004 70.1 41.8004 69.1V59.1C43.4004 58.7 45.0004 57.9 46.0004 56.7C48.1004 57.4 50.5004 57.1 52.5004 55.9C54.5004 54.7 56.0004 52.7 56.4004 50.6C58.5004 50.1 60.5004 48.7 61.7004 46.7C62.9004 44.7 63.1004 42.2 62.5004 40.2C64.2004 38.7 65.2004 36.5 65.2004 34.2ZM59.5004 38C59.0004 38.2 58.7004 38.6 58.6004 39.1C58.5004 39.6 58.5004 40.1 58.8004 40.6C59.4004 41.5 59.6004 43.3 58.7004 44.9C57.8004 46.5 56.1004 47.2 55.0004 47.2C54.5004 47.2 54.0004 47.4 53.6004 47.7C53.2004 48.1 53.0004 48.6 53.1004 49.1C53.2004 50.2 52.5004 51.9 50.8004 52.8C49.1004 53.7 47.4004 53.5 46.4004 52.9C46.0004 52.6 45.4004 52.5 45.0004 52.7C44.5004 52.8 44.1004 53.2 43.9004 53.6C43.6004 54.2 42.9004 54.9 41.9004 55.3V34.9L49.6004 27.2C50.3004 26.5 50.3004 25.3 49.6004 24.6C48.9004 23.9 47.7004 23.9 47.0004 24.6L41.9004 29.8V22.5C41.9004 21.5 41.1004 20.7 40.1004 20.7C39.1004 20.7 38.3004 21.5 38.3004 22.5V41.5L29.7004 32.9C29.0004 32.2 27.8004 32.2 27.1004 32.9C26.4004 33.6 26.4004 34.8 27.1004 35.5L38.2004 46.6V55.3C37.2004 54.9 36.5004 54.2 36.2004 53.6C36.0004 53.1 35.6004 52.8 35.1004 52.7C35.0004 52.7 34.3004 52.5 33.7004 52.9C32.7004 53.5 31.0004 53.7 29.3004 52.8C27.7004 51.9 27.0004 50.2 27.0004 49.1C27.0004 48.6 26.8004 48.1 26.5004 47.7C26.1004 47.3 25.6004 47.1 25.1004 47.2C24.0004 47.2 22.3004 46.6 21.4004 44.9C20.5004 43.3 20.7004 41.5 21.3004 40.6C21.6004 40.2 21.7004 39.6 21.5004 39.1C21.4004 38.6 21.0004 38.2 20.6004 38C19.6004 37.5 18.5004 36.1 18.5004 34.2C18.5004 32.3 19.6004 30.9 20.6004 30.4C21.1004 30.2 21.4004 29.8 21.5004 29.3C21.6004 28.8 21.6004 28.3 21.3004 27.9C20.7004 27 20.5004 25.2 21.4004 23.6C22.3004 22 24.0004 21.3 25.1004 21.3C25.6004 21.3 26.1004 21.1 26.5004 20.8C26.9004 20.5 27.1004 19.9 27.0004 19.4C26.9004 18.3 27.6004 16.6 29.3004 15.7C31.0004 14.8 32.7004 15 33.7004 15.6C34.1004 15.9 34.7004 16 35.1004 15.8C35.5004 15.6 36.0004 15.3 36.2004 14.9C36.7004 13.9 38.1004 12.8 40.0004 12.8C41.9004 12.8 43.3004 13.9 43.8004 14.9C44.0004 15.4 44.4004 15.7 44.9004 15.8C45.4004 15.9 45.9004 15.9 46.3004 15.6C47.3004 15 49.0004 14.8 50.7004 15.7C52.3004 16.6 53.0004 18.3 53.0004 19.4C53.0004 19.9 53.2004 20.4 53.5004 20.8C53.9004 21.2 54.4004 21.4 54.9004 21.3C56.0004 21.3 57.7004 21.9 58.6004 23.6C59.5004 25.2 59.3004 27 58.7004 27.9C58.4004 28.3 58.3004 28.9 58.5004 29.4C58.6004 29.9 59.0004 30.3 59.4004 30.5C60.4004 31 61.5004 32.4 61.5004 34.3C61.5004 36.1 60.5004 37.5 59.5004 38Z" fill="#72573D"/>
</svg>
