<svg width="32" height="32" viewBox="0 0 32 32" fill="none" xmlns="http://www.w3.org/2000/svg">
<path d="M5 12.7611V9C5 6.79086 6.79086 5 9 5L17.0324 5M18.1389 16.2693L11.7035 21.7853C11.2491 22.1748 11.2363 22.8737 11.6762 23.2796L17.2632 28.434C17.5975 28.7425 18.1389 28.5053 18.1389 28.0505V28.0505V26.8726C18.1389 26.3204 18.5867 25.8726 19.1389 25.8726H23C25.2091 25.8726 27 24.0818 27 21.8726V13.5273M18.1389 19.3482V15.0181C18.1389 14.4658 17.6912 14.0181 17.1389 14.0181H16.7247" stroke="#FF337C" stroke-width="1.5" stroke-linecap="round"/>
<path d="M18.0791 15.8892C16.4132 13.3039 13.5088 11.5918 10.2046 11.5918C5.03474 11.5918 0.84375 15.7828 0.84375 20.9526C0.84375 26.1225 5.03474 30.3135 10.2046 30.3135C12.2945 30.3135 14.2245 29.6286 15.7823 28.471" stroke="#FF337C" stroke-width="1.5" stroke-linecap="round"/>
<circle cx="22.9536" cy="8.19775" r="6.56104" stroke="#FF337C" stroke-width="1.5"/>
<path d="M20.2637 7.91085C20.2619 7.95927 20.2619 8.00589 20.2619 8.0543V8.3412C20.2619 8.38962 20.2619 8.43624 20.2637 8.48465H19.975C19.6577 8.48465 19.4012 8.74107 19.4012 9.05845C19.4012 9.37584 19.6577 9.63225 19.975 9.63225H20.4825C21.0133 11.1367 22.4496 12.2144 24.1351 12.2144H24.5654C24.8828 12.2144 25.1392 11.9579 25.1392 11.6406C25.1392 11.3232 24.8828 11.0668 24.5654 11.0668H24.1351C23.0969 11.0668 22.1949 10.4858 21.7341 9.63225H23.9916C24.309 9.63225 24.5654 9.37584 24.5654 9.05845C24.5654 8.74107 24.309 8.48465 23.9916 8.48465H21.4131C21.4113 8.43803 21.4095 8.38962 21.4095 8.3412V8.0543C21.4095 8.00589 21.4113 7.95747 21.4131 7.91085H23.9916C24.309 7.91085 24.5654 7.65444 24.5654 7.33705C24.5654 7.01967 24.309 6.76325 23.9916 6.76325H21.7341C22.1949 5.90973 23.0969 5.32875 24.1351 5.32875H24.5654C24.8828 5.32875 25.1392 5.07234 25.1392 4.75495C25.1392 4.43757 24.8828 4.18115 24.5654 4.18115H24.1351C22.4496 4.18115 21.0133 5.25882 20.4825 6.76325H19.975C19.6577 6.76325 19.4012 7.01967 19.4012 7.33705C19.4012 7.65444 19.6577 7.91085 19.975 7.91085H20.2637Z" fill="#FF337C"/>
<path fill-rule="evenodd" clip-rule="evenodd" d="M11.0764 23.7469C10.7784 23.8797 10.4157 23.9619 10.015 23.9619C9.08458 23.9619 8.41305 23.5322 8.19658 23.0895C8.12702 22.9475 8.00171 22.838 7.84821 22.7849C7.69471 22.7319 7.5256 22.7397 7.37807 22.8066C7.23055 22.8736 7.11671 22.9942 7.06158 23.1419C7.00646 23.2896 7.01457 23.4524 7.08413 23.5943C7.5125 24.4702 8.52872 25.0296 9.65201 25.1294C9.65129 25.1415 9.65093 25.1537 9.65093 25.1659V25.7808C9.65093 25.9439 9.71572 26.1003 9.83104 26.2156C9.94637 26.331 10.1028 26.3958 10.2659 26.3958C10.429 26.3958 10.5854 26.331 10.7007 26.2156C10.816 26.1003 10.8808 25.9439 10.8808 25.7808V25.1659C10.8808 25.1286 10.8775 25.0916 10.8708 25.0554C11.2869 24.9657 11.672 24.8112 12.0039 24.6023L11.0764 23.7469ZM11.8854 20.7988C11.5018 20.5803 11.055 20.431 10.5763 20.3651C10.5144 20.3445 10.4491 20.3338 10.3827 20.3338C9.80776 20.3338 9.31087 20.1579 8.97142 19.9033C8.63258 19.6487 8.47945 19.3443 8.47945 19.0596C8.47945 18.7755 8.63258 18.4711 8.97142 18.2171C9.31087 17.9625 9.80837 17.7867 10.3834 17.7867C11.3138 17.7867 11.9853 18.2331 12.2005 18.6925C12.235 18.7656 12.2835 18.8312 12.3433 18.8855C12.4031 18.9398 12.473 18.9819 12.549 19.0092C12.625 19.0365 12.7057 19.0486 12.7864 19.0447C12.8671 19.0409 12.9463 19.0212 13.0194 18.9867C13.0924 18.9523 13.158 18.9038 13.2124 18.844C13.2667 18.7842 13.3087 18.7143 13.3361 18.6383C13.3634 18.5622 13.3755 18.4816 13.3716 18.4009C13.3678 18.3202 13.3481 18.241 13.3136 18.1679C12.8808 17.2501 11.8503 16.6665 10.7148 16.5707V16.1006C10.7148 15.9437 10.65 15.7931 10.5347 15.6821C10.4194 15.5711 10.263 15.5088 10.0999 15.5088C9.93677 15.5088 9.78036 15.5711 9.66503 15.6821C9.5497 15.7931 9.48491 15.9437 9.48491 16.1006V16.66C9.01642 16.7706 8.58826 16.9667 8.23347 17.2326C7.66156 17.6618 7.24954 18.3014 7.24954 19.0602C7.24954 19.8185 7.66156 20.458 8.23347 20.8873C8.80538 21.3165 9.56731 21.5637 10.3827 21.5637C10.4227 21.5637 10.4622 21.5598 10.5009 21.5523C10.6577 21.5798 10.8053 21.6201 10.9417 21.6707L11.8854 20.7988Z" fill="#FF337C"/>
</svg>
