<svg width="24" height="24" viewBox="0 0 24 24" fill="none" xmlns="http://www.w3.org/2000/svg">
<path d="M20.01 11.82C20.31 11.49 20.28 10.98 19.95 10.71L12.6 4.26003C12.27 3.96003 11.73 3.96003 11.4 4.26003L4.04997 11.04C3.71997 11.34 3.71997 11.85 4.01997 12.15L4.19997 12.33C4.49997 12.66 5.00997 12.69 5.30997 12.42L5.84997 11.94V19.17C5.84997 19.62 6.20997 19.98 6.65997 19.98H9.53997C9.98997 19.98 10.35 19.62 10.35 19.17V15.57H14.01V19.17C14.01 19.62 14.31 19.98 14.76 19.98H17.79C18.24 19.98 18.6 19.62 18.6 19.17V12.03C18.6 12.03 18.75 12.15 18.93 12.33C19.11 12.48 19.5 12.36 19.8 12.03L20.01 11.82Z" stroke="#C5C5C4" stroke-width="0.84" stroke-miterlimit="10"/>
</svg>
