<svg width="16" height="16" viewBox="0 0 16 16" fill="none" xmlns="http://www.w3.org/2000/svg">
<path d="M5.29989 11.9501C4.83322 11.9501 4.46655 12.3167 4.46655 12.7834C4.46655 13.2501 4.83322 13.6167 5.29989 13.6167C5.76655 13.6167 6.13322 13.2501 6.13322 12.7834C6.13322 12.3334 5.74989 11.9501 5.29989 11.9501ZM5.29989 13.2167C5.06655 13.2167 4.88322 13.0334 4.88322 12.8001C4.88322 12.5667 5.06655 12.3834 5.29989 12.3834C5.53322 12.3834 5.71655 12.5667 5.71655 12.8001C5.69989 13.0167 5.51655 13.2167 5.29989 13.2167Z" fill="#808080"/>
<path d="M12.9999 11.55C12.9999 11.4334 12.8999 11.3334 12.7833 11.3334C12.6666 11.3334 12.5833 11.4334 12.5833 11.55V11.75C12.5833 11.8667 12.6833 11.9667 12.7833 11.9667C12.8999 11.9667 12.9999 11.8667 12.9999 11.75V11.55Z" fill="#808080"/>
<path d="M12.9999 9.03332C12.9999 8.91665 12.8999 8.81665 12.7833 8.81665C12.6666 8.81665 12.5833 8.91665 12.5833 9.03332V9.24998C12.5833 9.36665 12.6833 9.46665 12.7833 9.46665C12.8999 9.46665 12.9999 9.36665 12.9999 9.24998V9.03332Z" fill="#808080"/>
<path d="M12.9999 10.7C12.9999 10.5833 12.8999 10.5 12.7833 10.5C12.6666 10.5 12.5833 10.6 12.5833 10.7V10.9167C12.5833 11.0333 12.6833 11.1333 12.7833 11.1333C12.8999 11.1333 12.9999 11.0333 12.9999 10.9167V10.7Z" fill="#808080"/>
<path d="M12.9999 9.86669C12.9999 9.75002 12.8999 9.65002 12.7833 9.65002C12.6666 9.65002 12.5833 9.75002 12.5833 9.86669V10.0834C12.5833 10.2 12.6833 10.3 12.7833 10.3C12.8999 10.3 12.9999 10.2 12.9999 10.0834V9.86669Z" fill="#808080"/>
<path d="M12.9999 8.21667C12.9999 8.1 12.8999 8 12.7833 8C12.6666 8 12.5833 8.1 12.5833 8.21667V8.43333C12.5833 8.55 12.6833 8.63333 12.7833 8.63333C12.8999 8.63333 12.9999 8.53333 12.9999 8.43333V8.21667Z" fill="#808080"/>
<path d="M12.9999 12.3833C12.9999 12.2666 12.8999 12.1666 12.7833 12.1666C12.6666 12.1666 12.5833 12.2666 12.5833 12.3833V12.6C12.5833 12.7166 12.6833 12.8 12.7833 12.8C12.8999 12.8 12.9999 12.7 12.9999 12.6V12.3833Z" fill="#808080"/>
<path d="M12.7833 13C12.6666 13 12.5833 13.1 12.5833 13.2167V13.4333C12.5833 13.55 12.6833 13.65 12.7833 13.65C12.8999 13.65 12.9999 13.55 12.9999 13.4333V13.2167C12.9999 13.1 12.8999 13 12.7833 13Z" fill="#808080"/>
<path d="M9.76652 13.8334H9.56652C9.44985 13.8334 9.34985 13.9334 9.34985 14.05C9.34985 14.1667 9.44985 14.2667 9.56652 14.2667H9.76652C9.88319 14.2667 9.96652 14.1667 9.96652 14.05C9.96652 13.9334 9.88319 13.8334 9.76652 13.8334Z" fill="#808080"/>
<path d="M8.85 13.8333H8.68333C8.71667 13.8 8.73333 13.75 8.75 13.7C8.75 13.6833 8.76667 13.6833 8.76667 13.6667C8.76667 13.65 8.78333 13.65 8.78333 13.6333V13.6167C8.81667 13.5167 8.83333 13.4333 8.83333 13.3333V7.76667C8.9 7.73333 8.93333 7.66667 8.93333 7.58333C8.93333 7.5 8.88333 7.45 8.83333 7.4V2.66667C8.83333 2.16667 8.41667 1.75 7.91667 1.75H2.66667C2.16667 1.75 1.75 2.16667 1.75 2.66667V13.3333C1.75 13.8333 2.16667 14.25 2.66667 14.25H8.01667C8.05 14.25 8.08333 14.25 8.1 14.2333C8.21667 14.2 8.33333 14.15 8.43333 14.0833C8.45 14.1833 8.53333 14.25 8.63333 14.25H8.83333C8.95 14.25 9.05 14.15 9.05 14.0333C9.05 13.9333 8.96667 13.8333 8.85 13.8333ZM2.16667 3.41667H8.41667V11.3333H2.16667V3.41667ZM2.66667 2.16667H7.91667C8.2 2.16667 8.41667 2.38333 8.41667 2.66667V3H2.16667V2.66667C2.16667 2.4 2.4 2.16667 2.66667 2.16667ZM7.91667 13.8333H2.66667C2.38333 13.8333 2.16667 13.6167 2.16667 13.3333V11.75H8.41667V13.3333C8.41667 13.4 8.4 13.45 8.38333 13.5167C8.36667 13.55 8.35 13.5833 8.33333 13.6167C8.23333 13.75 8.08333 13.8333 7.91667 13.8333Z" fill="#808080"/>
<path d="M10.5833 13.8334H10.3833C10.2667 13.8334 10.1833 13.9334 10.1833 14.05C10.1833 14.1667 10.2833 14.2667 10.3833 14.2667H10.5833C10.7 14.2667 10.8 14.1667 10.8 14.05C10.8 13.9334 10.7 13.8334 10.5833 13.8334Z" fill="#808080"/>
<path d="M11.2167 7.78337C11.3334 7.78337 11.4334 7.68337 11.4334 7.5667C11.4334 7.45003 11.3334 7.3667 11.2167 7.3667H11.0167C10.9 7.3667 10.8 7.4667 10.8 7.5667C10.8 7.68337 10.9 7.78337 11.0167 7.78337H11.2167Z" fill="#808080"/>
<path d="M9.56681 7.78337C9.68348 7.78337 9.78348 7.68337 9.78348 7.5667C9.78348 7.45003 9.68348 7.3667 9.56681 7.3667H9.36681C9.25015 7.3667 9.15015 7.4667 9.15015 7.5667C9.15015 7.68337 9.25015 7.78337 9.36681 7.78337H9.56681Z" fill="#808080"/>
<path d="M11.4167 13.8334H11.2167C11.1 13.8334 11 13.9334 11 14.05C11 14.1667 11.1 14.2667 11.2167 14.2667H11.4167C11.5333 14.2667 11.6333 14.1667 11.6333 14.05C11.6333 13.9334 11.5333 13.8334 11.4167 13.8334Z" fill="#808080"/>
<path d="M10.3832 7.78337C10.4999 7.78337 10.5832 7.68337 10.5832 7.5667C10.5832 7.45003 10.4832 7.3667 10.3832 7.3667H10.1832C10.0666 7.3667 9.96655 7.4667 9.96655 7.5667C9.96655 7.68337 10.0666 7.78337 10.1832 7.78337H10.3832Z" fill="#808080"/>
<path d="M13.0667 13.8334H12.8667C12.7501 13.8334 12.6667 13.9334 12.6667 14.05C12.6667 14.1667 12.7667 14.2667 12.8667 14.2667H13.0667C13.1834 14.2667 13.2834 14.1667 13.2834 14.05C13.2834 13.9334 13.1834 13.8334 13.0667 13.8334Z" fill="#808080"/>
<path d="M14.0333 10.4501C13.9166 10.4501 13.8167 10.5501 13.8167 10.6667V10.8667C13.8167 10.9834 13.9166 11.0667 14.0333 11.0667C14.15 11.0667 14.25 10.9667 14.25 10.8667V10.6667C14.25 10.5334 14.15 10.4501 14.0333 10.4501Z" fill="#808080"/>
<path d="M14.0333 12.1C13.9166 12.1 13.8167 12.2 13.8167 12.3166V12.5166C13.8167 12.6333 13.9166 12.7333 14.0333 12.7333C14.15 12.7333 14.25 12.6333 14.25 12.5166V12.3166C14.25 12.2 14.15 12.1 14.0333 12.1Z" fill="#808080"/>
<path d="M14.0333 11.2667C13.9166 11.2667 13.8167 11.3667 13.8167 11.4834V11.6834C13.8167 11.8001 13.9166 11.9001 14.0333 11.9001C14.15 11.9001 14.25 11.8001 14.25 11.6834V11.4834C14.25 11.3667 14.15 11.2667 14.0333 11.2667Z" fill="#808080"/>
<path d="M14.0333 9.6167C13.9166 9.6167 13.8167 9.7167 13.8167 9.83337V10.0334C13.8167 10.15 13.9166 10.25 14.0333 10.25C14.15 10.25 14.25 10.15 14.25 10.0334V9.83337C14.25 9.7167 14.15 9.6167 14.0333 9.6167Z" fill="#808080"/>
<path d="M14.2333 8.13331C14.2167 8.01665 14.1 7.94998 14 7.96665C13.8833 7.98331 13.8167 8.09998 13.8333 8.19998C13.8333 8.23331 13.8333 8.24998 13.8333 8.28331V8.36665C13.8333 8.48331 13.9333 8.56665 14.05 8.56665C14.1667 8.56665 14.2667 8.46665 14.2667 8.36665V8.28331C14.25 8.23331 14.25 8.18331 14.2333 8.13331Z" fill="#808080"/>
<path d="M12.05 7.78337C12.1666 7.78337 12.25 7.68337 12.25 7.5667C12.25 7.45003 12.15 7.3667 12.05 7.3667H11.8333C11.7166 7.3667 11.6333 7.4667 11.6333 7.5667C11.6333 7.68337 11.7333 7.78337 11.8333 7.78337H12.05Z" fill="#808080"/>
<path d="M14.0333 8.78333C13.9166 8.78333 13.8167 8.88333 13.8167 8.99999V9.19999C13.8167 9.31666 13.9166 9.41666 14.0333 9.41666C14.15 9.41666 14.25 9.31666 14.25 9.19999V8.99999C14.25 8.88333 14.15 8.78333 14.0333 8.78333Z" fill="#808080"/>
<path d="M12.8666 7.78337C12.9833 7.78337 13.0833 7.68337 13.0833 7.5667C13.0833 7.45003 12.9833 7.3667 12.8666 7.3667H12.6666C12.55 7.3667 12.45 7.4667 12.45 7.5667C12.45 7.68337 12.55 7.78337 12.6666 7.78337H12.8666Z" fill="#808080"/>
<path d="M12.2499 13.8334H12.0499C11.9332 13.8334 11.8499 13.9334 11.8499 14.05C11.8499 14.1667 11.9499 14.2667 12.0499 14.2667H12.2499C12.3665 14.2667 12.4499 14.1667 12.4499 14.05C12.4499 13.9334 12.3665 13.8334 12.2499 13.8334Z" fill="#808080"/>
<path d="M13.5833 7.84992C13.6167 7.86659 13.65 7.88325 13.6833 7.88325C13.75 7.88325 13.8333 7.84992 13.8667 7.78325C13.9167 7.68325 13.8833 7.54992 13.7833 7.49992C13.7 7.44992 13.6167 7.41659 13.5333 7.39992C13.4167 7.36659 13.3167 7.44992 13.2833 7.54992C13.25 7.66659 13.3333 7.76659 13.4333 7.79992C13.5 7.81659 13.5333 7.83325 13.5833 7.84992Z" fill="#808080"/>
<path d="M14.0333 12.9333C13.9166 12.9333 13.8167 13.0334 13.8167 13.15V13.35C13.8167 13.4667 13.9166 13.55 14.0333 13.55C14.15 13.55 14.25 13.45 14.25 13.3333V13.1334C14.25 13.0167 14.15 12.9333 14.0333 12.9333Z" fill="#808080"/>
<path d="M13.7332 13.7166C13.6999 13.75 13.6499 13.7666 13.5999 13.7833C13.4999 13.8333 13.4499 13.95 13.4832 14.05C13.5165 14.1333 13.5999 14.1833 13.6832 14.1833C13.7165 14.1833 13.7332 14.1833 13.7665 14.1666C13.8499 14.1333 13.9332 14.0833 13.9999 14.0333C14.0832 13.9666 14.0999 13.8333 14.0332 13.7333C13.9499 13.6666 13.8165 13.65 13.7332 13.7166Z" fill="#808080"/>
<path d="M12.5 6.11668C12.5334 6.13335 12.55 6.13335 12.5834 6.13335C12.6167 6.13335 12.6334 6.13335 12.6667 6.11668C12.7 6.10002 12.7167 6.08335 12.7334 6.06668L13.9834 4.81668C14.0667 4.73335 14.0667 4.60002 13.9834 4.51668C13.9 4.43335 13.7667 4.43335 13.6834 4.51668L12.7834 5.41668V4.88335C12.7834 3.38335 11.5667 2.18335 10.0834 2.18335C9.9667 2.18335 9.8667 2.28335 9.8667 2.38335C9.8667 2.50002 9.9667 2.60002 10.0834 2.60002C11.35 2.60002 12.3834 3.63335 12.3834 4.90002V5.43335L11.4834 4.53335C11.4 4.45002 11.2667 4.45002 11.1834 4.53335C11.1 4.61668 11.1 4.75002 11.1834 4.83335L12.4334 6.08335C12.45 6.08335 12.4834 6.10002 12.5 6.11668Z" fill="#808080"/>
</svg>
