<svg width="16" height="16" viewBox="0 0 16 16" fill="none" xmlns="http://www.w3.org/2000/svg">
<path fill-rule="evenodd" clip-rule="evenodd" d="M14.3287 2.09243C14.3287 1.90741 14.1787 1.75743 13.9937 1.75743H10.7837C10.5987 1.75743 10.4487 1.90741 10.4487 2.09243C10.4487 2.27744 10.5987 2.42743 10.7837 2.42743H13.185L9.74435 5.86808C9.61353 5.9989 9.61353 6.21102 9.74435 6.34184C9.87518 6.47267 10.0873 6.47267 10.2181 6.34184L13.6587 2.90129V5.30242C13.6587 5.48743 13.8087 5.63742 13.9937 5.63742C14.1787 5.63742 14.3287 5.48743 14.3287 5.30242L14.3287 2.09243Z" fill="#808080"/>
<path fill-rule="evenodd" clip-rule="evenodd" d="M14.3287 14.0497C14.3287 14.2347 14.1787 14.3847 13.9937 14.3847H10.7837C10.5987 14.3847 10.4487 14.2347 10.4487 14.0497C10.4487 13.8646 10.5987 13.7147 10.7837 13.7147H13.185L9.74435 10.274C9.61353 10.1432 9.61353 9.93107 9.74435 9.80025C9.87518 9.66942 10.0873 9.66942 10.2181 9.80025L13.6587 13.2408V10.8397C13.6587 10.6547 13.8087 10.5047 13.9937 10.5047C14.1787 10.5047 14.3287 10.6547 14.3287 10.8397L14.3287 14.0497Z" fill="#808080"/>
<path fill-rule="evenodd" clip-rule="evenodd" d="M1.74262 2.09243C1.74262 1.90741 1.89261 1.75743 2.07762 1.75743H5.28761C5.47263 1.75743 5.62261 1.90741 5.62261 2.09243C5.62261 2.27744 5.47263 2.42743 5.28761 2.42743H2.88629L6.32694 5.86808C6.45776 5.9989 6.45776 6.21102 6.32694 6.34184C6.19611 6.47267 5.984 6.47267 5.85318 6.34184L2.41262 2.90129V5.30242C2.41262 5.48743 2.26264 5.63742 2.07762 5.63742C1.89261 5.63742 1.74262 5.48743 1.74262 5.30242L1.74262 2.09243Z" fill="#808080"/>
<path fill-rule="evenodd" clip-rule="evenodd" d="M1.74262 14.0497C1.74262 14.2347 1.89261 14.3847 2.07762 14.3847H5.28761C5.47263 14.3847 5.62261 14.2347 5.62261 14.0497C5.62261 13.8646 5.47263 13.7147 5.28761 13.7147H2.88629L6.32694 10.274C6.45776 10.1432 6.45776 9.93107 6.32694 9.80025C6.19611 9.66942 5.984 9.66942 5.85318 9.80025L2.41262 13.2408V10.8397C2.41262 10.6547 2.26264 10.5047 2.07762 10.5047C1.89261 10.5047 1.74262 10.6547 1.74262 10.8397L1.74262 14.0497Z" fill="#808080"/>
</svg>
