<svg width="50" height="50" viewBox="0 0 50 50" fill="none" xmlns="http://www.w3.org/2000/svg">
<circle cx="25" cy="25" r="25" fill="#EDEEEE"/>
<path d="M42.7688 28.3914L37.1097 23.7801C37.015 23.7048 36.902 23.6544 36.7817 23.6337C36.6613 23.6131 36.5375 23.6229 36.4221 23.6622C36.295 23.6984 36.1831 23.7731 36.1025 23.8756C36.022 23.978 35.977 24.1028 35.9742 24.2318V26.3705H33.4929C33.5632 25.9374 33.5999 25.4996 33.6026 25.0611C33.6151 23.3995 33.1282 21.7707 32.2019 20.3756C31.2757 18.9805 29.9506 17.8801 28.3902 17.2102C26.8298 16.5402 25.1023 16.3301 23.4207 16.6056C21.7392 16.8811 20.1772 17.6303 18.9274 18.7607H14.0409V16.6133C14.038 16.4838 13.9931 16.3585 13.9126 16.2554C13.8322 16.1522 13.7203 16.0766 13.593 16.0393C13.521 16.0146 13.4454 16.0013 13.369 16C13.2061 15.9987 13.0477 16.0527 12.9212 16.1528L7.23514 20.7117C7.16446 20.7652 7.10676 20.8332 7.06612 20.9109C7.02547 20.9886 7.0029 21.0741 7 21.1613C7.00118 21.2486 7.02181 21.3346 7.06048 21.4133C7.09915 21.4921 7.15493 21.5617 7.22395 21.6174L12.8831 26.2352C12.9771 26.3109 13.0897 26.3615 13.2098 26.3822C13.3299 26.4029 13.4534 26.3928 13.5684 26.3531C13.6951 26.3163 13.8067 26.2414 13.8871 26.1391C13.9676 26.0368 14.0128 25.9123 14.0163 25.7835V23.6448H16.2333C16.163 24.0779 16.1264 24.5156 16.1236 24.9542C16.1177 26.613 16.6094 28.2373 17.5382 29.6274C18.467 31.0176 19.7925 32.1129 21.3516 32.7788C22.9106 33.4447 24.6354 33.652 26.3138 33.3754C27.9923 33.0988 29.5511 32.3503 30.7988 31.2219L35.9496 31.2393V33.3867C35.9542 33.5158 35.9997 33.6403 36.0799 33.7431C36.1601 33.8459 36.2711 33.9219 36.3975 33.9607C36.4741 33.9856 36.5542 33.9988 36.6349 34C36.7982 34.0013 36.9568 33.9464 37.0828 33.845L42.7755 29.2796C42.8456 29.2248 42.9021 29.1553 42.941 29.0764C42.9798 28.9975 43 28.911 43 28.8235C43 28.7359 42.9798 28.6495 42.941 28.5705C42.9021 28.4916 42.8456 28.4222 42.7755 28.3674L42.7688 28.3914ZM25.666 29.1443V29.6506C25.666 30.2442 25.4263 30.5235 24.8934 30.5235H24.8239C24.2685 30.5235 24.0715 30.2463 24.0737 29.6375V29.1617C22.4658 28.9871 21.5543 28.2713 21.5565 27.5512C21.5565 26.9947 22.2015 26.5953 22.253 26.6477C22.5714 26.9904 22.9598 27.2646 23.3933 27.4525C23.8267 27.6404 24.2957 27.7379 24.7702 27.7388C25.7152 27.7388 26.2572 27.3591 26.2594 26.7721C26.2594 26.0606 25.4398 25.8642 24.4679 25.6372C23.3033 25.3885 21.7581 24.9302 21.7648 23.2236C21.7648 21.984 22.6785 21.0892 24.1118 20.8405V20.3647C24.1118 19.7711 24.3357 19.4918 24.8687 19.4918H24.9471C25.4868 19.4918 25.6996 19.7689 25.6973 20.3778V20.8143C27.1754 20.9692 27.9883 21.6174 27.9861 22.2786C27.9861 22.8569 27.3142 23.2694 27.2672 23.2192C26.9848 22.9108 26.6402 22.6625 26.2549 22.4897C25.8695 22.317 25.4518 22.2236 25.0277 22.2153C24.1319 22.2153 23.5945 22.5972 23.5922 23.1843C23.5922 23.8586 24.3201 24.0398 25.339 24.2755C26.5573 24.5395 28.163 25.0196 28.1562 26.7197C28.154 28.0095 27.2224 28.9129 25.666 29.1443Z" fill="#4D4D4D"/>
</svg>
