<svg width="72" height="24" viewBox="0 0 72 24" fill="none" xmlns="http://www.w3.org/2000/svg">
<path d="M17.4642 3.30979C17.3637 3.20932 17.2884 3.15909 17.1377 3.05863L17.4893 2.88281C17.6651 3.00839 17.7907 3.18421 17.8661 3.33491H19.4484V3.66142H15.907V3.30979H17.4642ZM16.4093 4.79165V3.81212H18.8707V4.79165H16.4093ZM16.7609 4.46514H18.5442V4.13863H16.7609V4.46514ZM18.9712 5.3191C18.6447 5.54514 18.2679 5.72096 17.9414 5.77119H19.5489V6.0977H17.8409V6.57491C17.8409 6.77584 17.7405 6.87631 17.5395 6.87631H17.0372L16.8865 6.52468C17.1126 6.5498 17.2633 6.57491 17.4391 6.5498C17.4893 6.5498 17.4893 6.5498 17.4893 6.47445V6.0977H15.7061V5.77119H17.4893V5.57026C17.8409 5.52003 18.1423 5.41956 18.3182 5.34421H16.2335V5.0177H18.9712V5.3191Z" fill="#B9964B"/>
<path d="M13.3202 3.9377H12.9937V3.58607H10.1053V3.96281H9.77881V3.25956H11.336C11.3109 3.23444 11.2104 3.15909 11.0597 3.08374L11.3611 2.88281C11.4616 2.93305 11.6374 3.08374 11.7379 3.25956H13.3453V3.9377H13.3202ZM12.8681 4.06328H10.2309V3.73677H12.8681V4.06328ZM10.4067 5.06793V4.23909H12.6923V5.06793H10.4067ZM12.3658 4.76654V4.54049H10.7583V4.76654H12.3658ZM12.7174 6.90142V6.67538H10.4067V6.92654H10.0802V5.24375H13.069V6.90142H12.7174ZM10.4067 5.82142H11.3863V5.57026H10.4067V5.82142ZM10.4067 6.12282V6.34887H11.3863V6.12282H10.4067ZM11.7128 5.57026V5.79631H12.7174V5.54514H11.7128V5.57026ZM11.7128 6.0977V6.34887H12.7174V6.12282L11.7128 6.0977Z" fill="#B9964B"/>
<path d="M23.5172 4.96579C23.467 4.91556 23.3665 4.84021 23.2912 4.76486C23.3414 4.73974 23.4168 4.71463 23.467 4.68951H23.04C22.9647 4.81509 22.8893 4.91556 22.8391 4.96579H23.5172ZM24.547 4.96579C24.4968 4.91556 24.4214 4.78997 24.3461 4.68951H23.6679C23.7433 4.76486 23.8438 4.86532 23.894 4.96579H24.547ZM21.8093 4.68951V4.38811H22.161L21.96 3.23276C22.2363 3.20765 22.6382 3.10718 22.8893 2.95648C22.9647 3.00672 23.04 3.08206 23.1154 3.18253C22.8391 3.33323 22.5879 3.43369 22.3368 3.45881V3.53416H23.0651V3.78532H22.3619C22.387 3.81044 22.3619 3.88579 22.387 3.93602H23.0651V4.2123H22.4372L22.4624 4.38811H23.2158V3.98625H23.5424V4.363H23.8437V3.9109H23.1656V2.90625H23.4921V3.18253H24.12V3.45881H23.4921C23.4921 3.50904 23.4921 3.58439 23.4921 3.63462H24.1703V4.38811H24.8233C24.8484 4.33788 24.8735 4.23742 24.8735 4.2123H24.2707V3.96114H24.9238C24.9489 3.9109 24.9489 3.86067 24.9489 3.81044H24.2707V3.55927H24.974L24.9991 3.43369H24.1954V3.10718H25.3507L25.1498 4.363H25.5768V4.66439H24.7228C24.7479 4.68951 24.8233 4.78997 24.9238 4.86532C25.1749 5.06625 25.4512 5.19184 25.8028 5.2923C25.7275 5.41788 25.6772 5.49323 25.627 5.56858C25.3507 5.51835 25.1247 5.39277 24.9238 5.24207L24.8735 5.19184H22.5628C22.3619 5.34253 22.1358 5.49323 21.8596 5.56858L21.6084 5.26718C22.1107 5.11649 22.387 4.89044 22.6382 4.61416H21.8093V4.68951ZM24.6726 6.92486V6.72393H22.7889V6.92486H22.4372V6.09602H24.974V6.92486H24.6726ZM24.8986 5.94533H22.5377V5.69416H24.8986V5.94533ZM22.5377 5.5937V5.31742H24.8986V5.5937H22.5377ZM24.6726 6.34719H22.7889V6.44765H24.6726V6.34719Z" fill="#B9964B"/>
<path d="M30.2233 3.95997V3.48276H29.6456V3.95997H30.2233ZM29.6456 4.28648V4.78881H30.2233V4.26137L29.6456 4.28648ZM30.5749 4.28648V4.78881H31.1526V4.28648H30.5749ZM30.6 3.95997H31.1777V3.48276H30.6V3.95997ZM27.9879 6.34602C27.8875 6.27067 27.8121 6.19533 27.6865 6.06974C27.9628 5.99439 28.1637 5.89393 28.3647 5.8437V4.81393H27.9126V4.48742H28.3647V3.60834H27.8372V3.28183H29.2186V3.60834H28.7163V4.48742H29.1433V4.81393H28.7163V5.71812C28.8419 5.66788 29.0428 5.56742 29.2689 5.49207V5.81858L27.9879 6.34602ZM31.5042 3.15625V5.09021H30.6V5.51718H31.4791V5.8437H30.6V6.34602H31.8056V6.67254H29.093V6.34602H30.2735V5.8437H29.3693V5.51718H30.2484V5.09021H29.3191V3.15625H31.5042Z" fill="#B9964B"/>
<path d="M34.5185 3.90922H35.3222V3.48225H34.5185V3.90922ZM35.3222 4.71295V4.23574H34.5185V4.71295H35.3222ZM33.8403 6.72225C34.1668 6.49621 34.418 6.24504 34.5938 5.91853L34.8701 6.09434C34.6943 6.44597 34.418 6.72225 34.0915 6.9483L33.8403 6.72225ZM34.192 5.84318V3.15573H35.6738V5.84318H34.192ZM34.5185 5.51667H35.3222V5.03946H34.5185V5.51667ZM35.1966 5.91853C35.5482 6.14458 35.7492 6.44597 35.925 6.74737L35.6236 6.9483C35.498 6.62179 35.272 6.32039 34.9454 6.09434L35.1966 5.91853ZM35.7492 3.85899H36.9799V2.92969H37.3315V3.88411H37.8338V4.21062H37.3315V6.59667C37.3315 6.69714 37.2562 6.82272 37.1808 6.87295C37.005 6.97342 36.7789 6.92318 36.578 6.92318L36.352 6.57155C36.578 6.57155 36.6785 6.57156 36.8543 6.59667C36.9045 6.59667 36.9548 6.57156 36.9548 6.47109V4.21062H36.9296C36.8292 5.01434 36.5278 5.79295 35.8748 6.39574L35.6236 6.16969C36.3017 5.59202 36.5529 4.71295 36.578 4.21062H35.7241V3.85899H35.7492Z" fill="#B9964B"/>
<path d="M5.70996 6.29695C5.18252 6.42254 4.25322 6.64858 3.70066 6.74905C3.62531 6.64858 3.57507 6.54812 3.47461 6.42254C3.85135 6.3723 4.17787 6.29695 4.47926 6.24672V5.64393H3.72577V5.31742H4.47926V4.91556H4.83089V5.31742H5.58438V5.64393H4.83089V6.17137C5.00671 6.12114 5.4588 6.02067 5.70996 5.97044V6.29695ZM6.46345 2.93137C6.41322 3.15741 6.3881 3.58439 6.33787 3.81044H7.39276V4.13695H7.14159C7.06624 4.81509 6.96578 5.2923 6.63927 5.81974C6.81508 6.12114 7.16671 6.47277 7.56857 6.69882L7.29229 6.92486C6.96578 6.72393 6.6895 6.47277 6.43834 6.12114C6.21229 6.42254 5.86066 6.74905 5.53415 6.94998L5.33322 6.6737C5.83554 6.3723 6.11182 6.07091 6.28764 5.76951C6.16206 5.5937 6.03647 5.09137 5.98624 4.84021C5.91089 5.01602 5.83554 5.1416 5.70996 5.31742L5.40857 5.16672C5.53415 4.99091 5.6095 4.86532 5.65973 4.78997L5.43368 4.86532C5.40857 4.73974 5.38345 4.68951 5.33322 4.63928C5.00671 4.68951 4.25322 4.78997 3.80112 4.91556C3.72577 4.81509 3.65042 4.71463 3.57507 4.58904C3.95182 4.26253 4.25322 3.88579 4.3788 3.48393H3.57507V3.15741H5.68485V3.48393H4.73043C4.62996 3.88579 4.3788 4.2123 4.12763 4.46346L5.13229 4.31276C5.08205 4.2123 4.95647 4.11183 4.78066 3.98625L5.10717 3.83555C5.38345 4.0616 5.58438 4.363 5.73508 4.63928C5.96113 4.11183 6.06159 3.70997 6.11182 2.90625L6.46345 2.93137ZM6.23741 4.23742C6.21229 4.66439 6.36299 5.21695 6.46345 5.443C6.63927 5.06625 6.76485 4.68951 6.78996 4.13695H6.23741V4.23742Z" fill="#B9964B"/>
<path d="M13.0189 10.4674C13.0189 10.5176 12.9686 10.5679 12.9184 10.5679H10.5575C10.5072 10.5679 10.457 10.5176 10.457 10.4674V8.83484C10.457 8.78461 10.4068 8.73438 10.3566 8.73438H9.52771C9.47748 8.73438 9.42725 8.78461 9.42725 8.83484V13.3307C9.42725 13.3809 9.47748 13.4311 9.52771 13.4311H10.3566C10.4068 13.4311 10.457 13.3809 10.457 13.3307V11.5474C10.457 11.4972 10.5072 11.4469 10.5575 11.4469H12.9184C12.9686 11.4469 13.0189 11.4972 13.0189 11.5474V13.3307C13.0189 13.3809 13.0691 13.4311 13.1193 13.4311H13.9482C13.9984 13.4311 14.0487 13.3809 14.0487 13.3307V8.83484C14.0487 8.78461 13.9984 8.73438 13.9482 8.73438H13.1193C13.0691 8.73438 13.0189 8.78461 13.0189 8.83484V10.4674Z" fill="#B9964B"/>
<path d="M15.3799 13.3307C15.3799 13.3809 15.4301 13.4311 15.4803 13.4311H16.3092C16.3594 13.4311 16.4097 13.3809 16.4097 13.3307V8.83484C16.4097 8.78461 16.3594 8.73438 16.3092 8.73438H15.4803C15.4301 8.73438 15.3799 8.78461 15.3799 8.83484V13.3307Z" fill="#B9964B"/>
<path d="M17.7407 13.3307C17.7407 13.3809 17.791 13.4311 17.8412 13.4311H21.6338C21.684 13.4311 21.7342 13.3809 21.7342 13.3307V12.6525C21.7342 12.6023 21.684 12.5521 21.6338 12.5521H18.8961C18.8458 12.5521 18.7956 12.5018 18.7956 12.4516V11.5474C18.7956 11.4972 18.8458 11.4469 18.8961 11.4469H21.1314C21.1817 11.4469 21.2319 11.3967 21.2319 11.3465V10.6683C21.2319 10.6181 21.1817 10.5679 21.1314 10.5679H18.8961C18.8458 10.5679 18.7956 10.5176 18.7956 10.4674V9.71391C18.7956 9.66368 18.8458 9.61345 18.8961 9.61345H21.6338C21.684 9.61345 21.7342 9.56321 21.7342 9.51298V8.83484C21.7342 8.78461 21.684 8.73438 21.6338 8.73438H17.8663C17.8161 8.73438 17.7658 8.78461 17.7658 8.83484V13.3307H17.7407Z" fill="#B9964B"/>
<path d="M26.9585 9.61345C27.0087 9.61345 27.0589 9.56321 27.0589 9.51298V8.83484C27.0589 8.78461 27.0087 8.73438 26.9585 8.73438H23.1659C23.1157 8.73438 23.0654 8.78461 23.0654 8.83484V13.3307C23.0654 13.3809 23.1157 13.4311 23.1659 13.4311H23.9947C24.045 13.4311 24.0952 13.3809 24.0952 13.3307V11.5474C24.0952 11.4972 24.1454 11.4469 24.1957 11.4469H26.431C26.4813 11.4469 26.5315 11.3967 26.5315 11.3465V10.6683C26.5315 10.6181 26.4813 10.5679 26.431 10.5679H24.1957C24.1454 10.5679 24.0952 10.5176 24.0952 10.4674V9.71391C24.0952 9.66368 24.1454 9.61345 24.1957 9.61345H26.9585Z" fill="#B9964B"/>
<path d="M7.14148 11.9253C7.09125 11.9253 7.04101 11.9504 7.0159 11.9755C6.7145 12.3272 6.23729 12.5532 5.73496 12.5532C4.83078 12.5532 4.07729 11.8751 4.07729 11.0462C4.07729 10.2174 4.80566 9.53926 5.73496 9.53926C6.33776 9.53926 6.8652 9.84066 7.14148 10.2676C7.16659 10.3179 7.21683 10.3681 7.29218 10.3681H8.34706L8.32195 10.3179C8.14613 9.79042 7.81962 9.33833 7.34241 9.01182C6.8652 8.68531 6.28752 8.48438 5.70985 8.48438C4.20287 8.48438 2.97217 9.63973 2.97217 11.0462C2.97217 12.4528 4.20287 13.6081 5.70985 13.6081C6.84008 13.6081 7.84474 12.9802 8.2466 11.9755L8.27171 11.9253H7.14148Z" fill="#B9964B"/>
<path d="M41.7767 9.25743C41.9023 9.35789 42.053 9.40813 42.2288 9.40813C42.4046 9.40813 42.5804 9.35789 42.706 9.25743C42.8567 9.15696 42.932 9.03138 42.9571 8.88068C42.9823 8.72999 42.9069 8.57929 42.7813 8.47882C42.6557 8.37836 42.505 8.32812 42.3292 8.32812C42.1534 8.32812 41.9776 8.37836 41.852 8.47882C41.7264 8.57929 41.626 8.70487 41.626 8.85557C41.626 9.00627 41.6762 9.15696 41.7767 9.25743Z" fill="#B9964B"/>
<path d="M51.1702 9.25743C51.2957 9.35789 51.4464 9.40813 51.6223 9.40813C51.7981 9.40813 51.9739 9.35789 52.0995 9.25743C52.2502 9.15696 52.3255 9.03138 52.3506 8.88068C52.3757 8.72999 52.3004 8.57929 52.1748 8.47882C52.0492 8.37836 51.8985 8.32812 51.7227 8.32812C51.5469 8.32812 51.3711 8.37836 51.2455 8.47882C51.1199 8.57929 51.0446 8.70487 51.0195 8.85557C50.9943 9.00627 51.0446 9.15696 51.1702 9.25743Z" fill="#B9964B"/>
<path d="M68.9528 12.4009C68.9276 12.3757 68.9025 12.3506 68.8774 12.3506C68.8272 12.3506 68.7518 12.3506 68.7016 12.4009C68.4002 12.5767 68.0486 12.7022 67.7221 12.7776C66.9183 12.9785 66.5165 12.8781 66.3407 12.7776C66.2151 12.7022 66.19 12.6018 66.1648 12.5516C66.2151 12.5013 66.2904 12.4511 66.4662 12.3004C66.6923 12.1497 66.9183 11.9488 67.1946 11.7227C67.4709 11.4967 67.7221 11.2706 67.9983 11.0446C68.2746 10.7934 68.5007 10.5674 68.6765 10.3664C68.8523 10.1404 68.9528 9.93945 68.9779 9.78876C68.9779 9.66317 68.9276 9.46224 68.5007 9.43713C68.149 9.43713 67.7723 9.51248 67.3955 9.71341C67.0439 9.91434 66.6923 10.1655 66.3909 10.4418C66.0895 10.7432 65.8383 11.0446 65.6374 11.3711L63.6281 12.3506C63.7286 12.225 63.8039 12.0995 63.9044 11.9739C64.0551 11.7478 64.256 11.4967 64.4318 11.2204C64.5323 11.0697 65.2858 9.88922 65.336 9.81387C65.3611 9.76364 65.3611 9.73852 65.336 9.68829C65.3109 9.66317 65.2858 9.63806 65.2355 9.63806C65.0597 9.63806 64.9341 9.61294 64.8337 9.63806C64.7081 9.63806 64.6328 9.66317 64.5574 9.71341C64.4821 9.76364 64.4318 9.81387 64.3816 9.88922C64.3565 9.93945 64.3062 10.0148 64.256 10.0902L63.8793 10.0148C63.7286 9.98969 63.603 9.98969 63.4774 9.98969C63.3518 9.98969 63.2011 10.0148 63.0504 10.065C62.8997 10.0901 62.7239 10.1655 62.4979 10.2408C62.2467 10.3413 62.0458 10.4418 61.8197 10.5674C61.7695 10.5925 61.6941 10.6176 61.6439 10.6678C60.1872 11.3962 59.4839 12.0241 59.4588 12.6018C59.283 12.6771 58.5295 12.9283 58.0774 12.9032C58.0272 12.9032 57.8262 12.8529 57.776 12.7776C57.7258 12.7274 57.7006 12.652 57.7006 12.5767C57.7258 12.5515 57.8262 12.4762 58.002 12.3255C58.2281 12.1748 58.4541 11.9739 58.7304 11.7478C59.0067 11.5218 59.2579 11.2957 59.5341 11.0697C59.8104 10.8185 60.0365 10.5925 60.2123 10.3915C60.3881 10.1655 60.4886 9.96457 60.5137 9.81387C60.5137 9.68829 60.4634 9.48736 60.0365 9.46224C59.6848 9.46224 59.3081 9.53759 58.9313 9.73852C58.5797 9.93945 58.2281 10.1906 57.9267 10.4669C57.6253 10.7683 57.3741 11.0697 57.1732 11.3962C57.0979 11.5218 57.0225 11.6474 56.9723 11.7981C56.7462 11.9236 56.1937 12.1999 56.1183 12.2502C55.8923 12.3506 55.4904 12.4762 55.3648 12.5264C55.2141 12.5515 54.3099 12.8529 54.2346 12.0995C54.2095 11.9739 54.1592 11.5971 54.2848 11.2706C54.2848 11.2706 57.6002 8.90968 58.4039 8.20643C59.0067 7.67898 60.4886 6.27247 61.3425 5.11712C61.5434 4.84084 61.669 4.66502 61.7193 4.56456C61.7444 4.51433 61.7946 4.46409 61.8197 4.38874C61.8951 4.26316 62.0207 4.11246 62.1211 3.93665C62.4476 3.35897 62.5983 2.7813 62.5983 2.50502C62.5983 2.35432 62.523 2.22874 62.4225 2.15339C62.3472 2.10316 62.2216 2.05293 62.096 2.02781C60.9407 1.77665 59.0067 3.30874 59.0067 3.33386C58.856 3.43432 58.7304 3.53479 58.6048 3.63525C56.6206 5.29293 54.6867 7.75433 53.4811 9.98969C53.1546 10.6176 53.0541 11.346 53.0541 11.346C53.029 11.346 53.029 11.3711 53.0039 11.3711C52.8281 11.5469 52.3006 11.9236 51.949 12.0995C51.8737 12.1497 51.7983 12.1748 51.7732 12.1999C51.5723 12.3004 51.3713 12.4009 51.1704 12.5013C50.9695 12.5767 50.7937 12.652 50.643 12.7022C50.4671 12.7525 50.3667 12.7776 50.3164 12.7776H50.0653C49.9899 12.7776 49.9397 12.7525 49.8895 12.7022C49.8141 12.6269 49.8141 12.5767 49.8141 12.5516C49.8392 12.4009 49.8895 12.2502 49.9899 12.0995C50.0904 11.9236 50.216 11.7478 50.3164 11.5971C50.442 11.4464 50.5425 11.2957 50.6178 11.1702C50.6932 11.0446 51.3964 10.2157 51.4467 10.1655C51.4718 10.1404 51.4718 10.0901 51.4718 10.065C51.4718 10.0148 51.4467 9.98969 51.3964 9.98969C51.3713 9.98969 51.3713 9.96457 51.3462 9.96457C51.3211 9.93945 51.296 9.91434 51.2457 9.91434H50.9946C50.8439 9.91434 50.6932 9.96457 50.5425 10.065C50.4671 10.1153 50.4169 10.1655 50.3667 10.2157C49.9146 10.4167 49.3871 10.6427 49.2113 10.6929C48.9602 10.7934 48.6336 10.8436 48.483 10.8436C48.4076 10.8436 48.2569 10.8436 48.2067 10.7934C48.1816 10.7683 48.2067 10.7181 48.2067 10.6678C48.2318 10.5674 48.282 10.492 48.3323 10.3915C48.3825 10.2911 48.4327 10.2408 48.483 10.2157C48.6085 10.1404 48.709 10.0399 48.709 9.88922C48.709 9.88922 48.7843 9.36178 48.1816 9.48736C48.1816 9.48736 47.8802 9.61294 47.6541 9.93945C47.6039 10.0148 47.5285 10.0901 47.4783 10.1906C47.403 10.2911 47.3527 10.4418 47.3276 10.5674C47.3025 10.6929 47.2271 10.8185 47.1267 10.9441C47.0262 11.0697 46.9006 11.1953 46.7248 11.346C46.6495 11.4213 46.5239 11.5218 46.3732 11.6474C46.1974 11.7729 46.0216 11.9236 45.8206 12.0492C45.6197 12.1748 45.4188 12.3004 45.2429 12.4009C44.7657 12.6771 44.9415 12.426 44.9415 12.426C45.0922 12.0995 45.9964 11.1702 46.1974 10.6929C46.2476 10.5674 46.2476 10.492 46.2225 10.3915C46.1974 10.3162 46.1471 10.2408 46.0467 10.1906C46.0467 10.1906 45.5946 9.88922 45.469 9.93945C45.4188 9.93945 45.3685 9.93945 45.2429 9.96457C45.1425 9.98969 45.042 10.065 44.9667 10.1153C44.9164 10.1404 44.8662 10.1906 44.816 10.2157C44.615 10.3162 44.4643 10.4418 44.3388 10.5171C43.7611 10.8688 42.2541 12.3255 41.1992 12.7525C41.0485 12.8027 40.722 12.9032 40.4708 12.7525C40.3704 12.7022 40.3955 12.6269 40.3955 12.6018C40.4206 12.4511 40.4708 12.3004 40.5713 12.1497C40.6718 11.9739 40.7974 11.7981 40.8978 11.6474C41.0234 11.4967 41.1239 11.346 41.1992 11.2204C41.2746 11.1199 41.8774 10.3915 42.0281 10.2157C42.0532 10.1906 42.0532 10.1404 42.0532 10.1153C42.0532 10.065 42.0029 10.065 41.9778 10.0399C41.8774 9.96457 41.6011 9.96457 41.6011 9.96457C41.4504 9.96457 41.2997 10.0148 41.149 10.1153C41.0234 10.2157 40.8978 10.3162 40.7722 10.4167C40.6718 10.5171 40.5462 10.6176 40.4457 10.6929C40.3955 10.7432 40.3201 10.8185 40.2197 10.919C40.1192 11.0195 39.9936 11.1199 39.8932 11.1953C39.8178 11.2706 39.5918 11.3962 39.3657 11.5218C39.1648 11.6474 38.9639 11.7729 38.8383 11.8483C38.6374 11.999 37.8085 12.5264 37.3815 12.8027C37.1806 12.9283 36.9797 12.9785 36.8541 12.9534C36.8039 12.9534 36.7536 12.9032 36.7285 12.8781C36.6532 12.7776 36.6783 12.6269 36.7536 12.4511C36.8541 12.2502 37.0048 12.0492 37.2308 11.8734C37.4318 11.6976 37.6076 11.5971 37.7834 11.5971C37.8587 11.5971 37.909 11.5469 37.909 11.4715L37.9341 11.145C37.9341 11.0948 37.9341 11.0697 37.8839 11.0446L37.256 10.5171L37.4067 9.71341C37.4067 9.66317 37.4067 9.61294 37.3564 9.58782C37.3313 9.56271 37.2811 9.56271 37.2308 9.56271L36.8039 9.66317C36.7787 9.66317 36.7536 9.68829 36.7285 9.68829C36.6029 9.81387 35.4476 10.8939 35.2718 11.0195C35.0708 11.1702 34.8448 11.3209 34.5936 11.5218C34.3425 11.6976 34.1164 11.8734 33.8652 12.0492C33.6141 12.225 33.1118 12.5264 32.4336 12.7274C32.2076 12.8027 31.9815 12.8781 31.7806 12.9032C31.7304 12.9283 31.6801 12.9283 31.6299 12.9283C31.6801 12.9032 31.7052 12.8781 31.7806 12.8529C31.9564 12.7525 32.7601 12.2753 33.0866 11.8734C33.3127 11.5971 33.4634 11.2957 33.5387 10.9692C33.5639 10.7683 33.5136 10.5674 33.388 10.4167C33.0615 10.0902 32.6346 10.1655 32.5592 10.1906C31.3285 10.2911 30.0978 11.5218 30.0978 11.5218C30.1229 11.4967 30.148 11.4464 30.1732 11.3962C30.2736 11.1953 30.3992 10.9943 30.575 10.7683C30.7257 10.5422 31.3787 9.58782 31.5043 9.38689C31.5545 9.31154 31.5545 9.21108 31.4541 9.13573C31.3034 9.01015 30.9266 8.98503 30.7257 9.18596C30.4745 9.41201 30.2234 9.63806 29.9471 9.8641C29.6708 10.0902 29.3694 10.2911 29.0429 10.4669C28.842 10.5925 28.6159 10.6929 28.415 10.7934C28.189 10.8939 28.0383 11.0948 28.0131 11.346L27.988 11.5469C27.988 11.572 27.988 11.5971 28.0131 11.6222C28.0383 11.6474 28.0634 11.6474 28.0885 11.6474C28.2141 11.6222 29.8718 10.492 30.0727 10.3664C30.0476 10.4418 29.9722 10.5171 29.922 10.6427C29.7462 10.919 29.5704 11.1953 29.3945 11.4967C29.1936 11.7981 29.0178 12.0995 28.8169 12.3757C28.6159 12.652 28.4904 12.8529 28.4401 12.9785C28.3145 13.1795 28.1638 13.3804 28.0131 13.5813C27.8625 13.7823 27.6866 14.0334 27.4857 14.3348C27.4606 14.3599 27.3601 14.5106 27.2094 14.6864C26.255 15.9171 23.3917 19.6595 23.2159 20.7646C23.1908 20.8651 23.1406 21.1916 23.3415 21.2669C23.3666 21.2669 23.3917 21.292 23.4169 21.292C23.668 21.292 24.0448 20.8902 24.095 20.8399C24.1201 20.8148 24.1703 20.7395 24.2206 20.639C24.3462 20.4632 24.4969 20.1869 24.5722 20.0864C24.6727 19.9358 26.2048 17.4492 26.3304 17.2232C26.4811 16.9971 26.6569 16.7209 26.8578 16.4195C27.0587 16.1181 27.9378 14.7869 28.1387 14.5106C28.3397 14.2343 28.5155 13.9832 28.6411 13.7823C28.7164 13.6818 28.7666 13.6316 28.7918 13.5813L28.842 13.732C28.842 13.7571 28.8922 13.7823 28.9173 13.7823C28.9173 13.7823 29.6206 13.9581 30.7508 13.7571C32.7099 13.3804 33.8652 12.7274 33.8652 12.7274C34.0159 12.652 34.1164 12.5767 34.2169 12.5264C34.4178 12.426 34.6187 12.2753 34.8197 12.1246C35.0206 11.9739 35.2215 11.8232 35.4225 11.6474C35.6234 11.4967 35.8243 11.346 36.0253 11.1953C36.1508 11.0948 36.3015 10.9943 36.402 10.919C36.4271 10.9943 36.5276 11.346 36.8792 11.4464C36.829 11.4967 36.7536 11.5469 36.6783 11.5971C36.5276 11.7227 36.3518 11.8232 36.2011 11.9488C36.0504 12.0743 35.8997 12.1999 35.7741 12.3255C35.6485 12.4762 35.5732 12.6018 35.548 12.7525V12.8278C35.5229 13.2046 35.5732 13.4306 35.749 13.5813C35.8997 13.7069 36.1006 13.7823 36.3518 13.7823H36.3769C36.6029 13.7823 36.8541 13.732 37.0801 13.6818C37.3564 13.6064 37.8336 13.2297 37.9341 13.1795C38.3611 12.9032 38.8885 12.5515 39.0643 12.4511C39.2401 12.3255 39.416 12.225 39.5918 12.1246C39.5667 12.1497 39.5415 12.1999 39.5164 12.225C39.4662 12.2753 38.9136 13.0539 39.4913 13.4055C39.6671 13.506 39.868 13.5562 40.0941 13.6064C41.2243 13.7823 42.5304 12.8529 43.8364 11.6976C43.8867 11.6474 44.3136 11.3209 44.5648 11.1702C44.7657 11.0446 44.9415 10.919 45.1174 10.8436C45.2178 10.7934 45.3434 10.7934 45.1927 10.9692C45.0671 11.1199 44.9415 11.2957 44.7657 11.4967C44.5899 11.6976 44.4141 11.8985 44.2885 12.0743C44.1127 12.2753 44.0374 12.4511 44.0122 12.5767C44.0122 12.5767 43.8867 13.305 44.389 13.3804C44.7155 13.4306 45.1174 13.2297 45.4188 13.079C45.7202 12.9283 46.0216 12.7525 46.2978 12.5516C46.5741 12.3506 46.8253 12.1497 47.0513 11.9236C47.2523 11.7227 47.4281 11.5469 47.6039 11.3711C47.6541 11.3962 47.7043 11.3962 47.7797 11.4464C48.3071 11.6976 48.9602 11.4464 49.1611 11.346C49.2616 11.2957 49.5127 11.145 49.7639 11.0195C49.4374 11.4464 49.0355 12.0241 49.0104 12.0995C48.9853 12.1497 48.9602 12.1999 48.9099 12.225C48.8597 12.2753 48.8095 12.3506 48.7592 12.4009C48.709 12.4762 48.6839 12.5767 48.6588 12.6771C48.6336 13.0288 48.6839 13.2799 48.8848 13.4055C49.0606 13.5311 49.2364 13.5813 49.4876 13.6064C49.7137 13.6064 49.9146 13.5813 50.1155 13.5562C50.7183 13.4809 51.2457 13.1795 51.2457 13.1795C51.2457 13.1795 51.5974 13.0036 51.7983 12.8781L51.8988 12.8027C51.9741 12.7525 52.0997 12.6771 52.2253 12.6018C52.5016 12.4511 52.8532 12.225 53.0541 12.1497C53.1044 12.225 53.1797 13.1543 54.0839 13.3804C54.2095 13.4055 54.3602 13.4557 54.4858 13.4809C54.762 13.506 55.189 13.3804 55.4653 13.2799C55.7165 13.1795 55.9676 13.079 56.2188 12.9785C56.3946 12.9032 56.5704 12.8027 56.7713 12.7022C56.7462 12.9785 56.7965 13.4306 57.123 13.5311C57.8513 13.7823 59.2327 13.3302 59.6095 13.1041C59.7853 13.3553 60.1872 13.4306 60.7146 13.305H60.7397C61.5434 13.1543 62.3472 12.6269 62.8495 12.225C62.7741 12.3506 62.6737 12.4762 62.5481 12.6269C62.3723 12.8529 62.2216 13.0539 62.0458 13.2548C61.87 13.4557 61.7444 13.5813 61.669 13.6567C61.6439 13.6818 61.5937 13.732 61.443 13.8325C61.3425 13.9078 61.1918 13.9832 61.0662 14.0585C60.9155 14.1339 60.7648 14.2343 60.6393 14.3097C59.3583 15.1134 54.0337 19.2576 54.7118 21.6185C54.8374 22.0706 55.3397 21.9953 55.4402 21.9953C55.5155 21.9953 55.5909 21.9702 55.6411 21.9702C55.7165 21.9451 55.7918 21.9199 55.8672 21.8948C55.9425 21.8697 56.0681 21.7944 56.2188 21.719C58.2783 20.5385 60.4886 16.8213 60.7397 16.545C60.8904 16.3441 61.0662 16.093 61.242 15.8167C61.4179 15.5404 61.5937 15.2641 61.7946 14.9627C61.9704 14.6864 62.1714 14.4102 62.3723 14.159C62.5732 13.9078 62.7741 13.7069 62.9751 13.5311C63.0002 13.506 63.0755 13.4557 63.2765 13.3553C63.4523 13.2548 63.6532 13.1543 63.9044 13.0288C64.03 12.9534 64.4821 12.7776 64.8588 12.6018C65.0597 12.5264 65.2355 12.4511 65.3611 12.3757C65.3611 12.4009 65.336 12.4511 65.336 12.4762V12.5264C65.336 12.5515 65.2607 13.2799 65.8886 13.6316C66.0141 13.7069 66.2151 13.7571 66.4914 13.7571H66.6169C66.7425 13.7571 67.069 13.7571 67.3955 13.6567C68.5007 13.3804 69.003 12.7776 69.0281 12.7525C68.9779 12.4762 68.9779 12.426 68.9528 12.4009ZM67.7221 10.4418C67.5965 10.6176 67.4207 10.7683 67.2448 10.9692C67.069 11.145 66.8681 11.3209 66.6923 11.4715C66.5918 11.5469 66.4411 11.6474 66.3155 11.7227C66.3407 11.6474 66.416 11.5469 66.4914 11.3962C66.5918 11.2204 66.7174 11.0697 66.8681 10.8939L66.9434 10.8185C67.1193 10.6176 67.2951 10.4418 67.496 10.266C67.6969 10.065 68.4504 9.58782 67.7221 10.4418ZM60.589 12.3757C60.8151 12.0241 61.5183 11.4715 61.9704 11.2455C62.0458 11.1953 62.1462 11.145 62.2467 11.0948H62.2718C62.3472 11.0446 62.4225 11.0195 62.523 10.9692C62.7239 10.8688 62.95 10.7683 63.176 10.6929C63.3267 10.6427 63.5527 10.5925 63.7286 10.5674C63.6532 10.6678 63.1007 11.0697 63.0253 11.1199C62.2718 11.8232 61.1918 12.4009 60.6895 12.5264C60.589 12.5264 60.4886 12.5516 60.589 12.3757ZM59.3834 10.1153C59.3834 10.1404 59.3583 10.2157 59.1825 10.4167C59.0318 10.5674 58.8811 10.7432 58.7053 10.9441C58.5295 11.1199 58.3286 11.2957 58.1527 11.4464C58.0774 11.5218 57.9267 11.5971 57.8011 11.6976C57.8513 11.5971 57.9016 11.4715 57.9267 11.3962C58.0523 11.1953 58.203 10.9943 58.3788 10.7934C58.5546 10.5925 58.7304 10.4167 58.9313 10.2408C59.082 10.1153 59.4839 9.8641 59.3834 10.1153ZM61.3676 2.65572C61.4179 2.65572 61.4681 2.65572 61.4932 2.68083C61.5183 2.73107 61.5434 2.88176 61.3676 3.28363C61.2923 3.45944 61.1165 3.78595 61.016 3.96177C60.9155 4.13758 60.8151 4.3134 60.6895 4.46409C60.5639 4.63991 60.4634 4.79061 60.363 4.9413C60.363 4.9413 59.6848 5.82038 58.5546 6.95061C58.5546 6.95061 58.2532 7.25201 58.1779 7.32735C57.9769 7.52829 57.7509 7.72922 57.4997 7.93015L55.6913 9.41201L54.1844 10.5171C54.1844 10.4669 54.2095 10.4167 54.2346 10.3664C54.3099 10.1404 54.4355 9.88922 54.5611 9.63806C54.6867 9.36178 54.8374 9.11061 54.963 8.88457C55.0885 8.65852 55.189 8.48271 55.2895 8.38224C55.5909 7.98038 55.8671 7.57852 56.1685 7.20177C56.4699 6.79991 56.7713 6.42317 57.0727 6.04642C57.349 5.71991 57.6504 5.34316 58.002 4.99154C58.3537 4.61479 58.7304 4.26316 59.0569 3.93665C59.1825 3.81107 59.3583 3.68549 59.6095 3.50967C59.8606 3.33386 60.1118 3.15804 60.3881 3.00735C60.6393 2.85665 60.8904 2.75618 61.1165 2.68083C61.2169 2.68083 61.2923 2.65572 61.3676 2.65572ZM32.4839 10.8436C32.4839 10.8688 32.4839 10.8939 32.4587 10.9441C32.4587 10.9692 32.4336 11.0195 32.3834 11.1199C32.3332 11.2204 31.9062 11.7478 31.7806 11.8734C31.6299 11.999 30.7508 13.0036 29.5201 13.079H29.4448C29.269 13.079 29.1936 13.079 29.1685 13.0539C29.1434 13.0539 29.0178 13.0288 29.0931 12.9534C29.4699 12.5264 30.5499 11.3711 31.4792 10.9692C31.6801 10.8939 31.8811 10.7934 32.082 10.7432C32.2327 10.6929 32.4587 10.6427 32.4839 10.7683C32.4839 10.7934 32.4839 10.8185 32.4839 10.8436ZM60.8402 14.5609C60.8904 14.586 60.4132 15.1636 60.2374 15.4148C60.0113 15.7916 57.6002 19.4334 56.043 20.7395C55.842 20.9153 55.6411 21.0409 55.4653 21.1413C55.4653 21.1413 55.0634 21.2669 55.2644 20.639C55.7416 19.0567 57.8262 17.1227 58.1025 16.8213C58.3788 16.5199 58.6802 16.2185 59.0067 15.9171C59.3332 15.6157 59.6597 15.3143 59.9611 15.0883C60.162 14.9376 60.7648 14.4353 60.8402 14.5609Z" fill="#B9964B"/>
</svg>
