<svg width="16" height="16" viewBox="0 0 16 16" fill="none" xmlns="http://www.w3.org/2000/svg">
<path d="M2 8.03593C2 4.39281 4.51248 2 8.13512 2C11.5606 2 14 4.11976 14 7.38204C14 9.5521 12.9337 11.0611 11.2027 11.0611C10.2824 11.0611 9.59586 10.6515 9.44979 9.92575H9.35484C9.04808 10.6587 8.41266 11.0683 7.56543 11.0683C6.06086 11.0683 5.03104 9.83952 5.03104 8.02874C5.03104 6.25389 6.04626 5.06108 7.49239 5.06108C8.2958 5.06108 8.96774 5.42754 9.25989 6.07425H9.34754V5.76527C9.34754 5.31976 9.60317 5.06108 10.0341 5.06108C10.4723 5.06108 10.7206 5.31976 10.7206 5.76527V9.16407C10.7206 9.65988 10.9909 9.94731 11.4875 9.94731C12.2544 9.94731 12.773 8.94132 12.773 7.49701C12.773 4.65868 10.7425 3.07066 8.12782 3.07066C5.18442 3.07066 3.22702 5.10419 3.22702 8.07186C3.22702 11.1257 5.31589 12.9222 8.44187 12.9222C9.09921 12.9222 9.55934 12.8359 10.1436 12.7066C10.2605 12.685 10.3554 12.6778 10.4431 12.6778C10.7791 12.6778 10.9617 12.8503 10.9617 13.1234C10.9617 13.3892 10.8083 13.5832 10.392 13.7269C9.88801 13.8922 9.12842 14 8.21546 14C4.58551 14 2 11.7509 2 8.03593ZM7.87219 9.86108C8.72672 9.86108 9.2745 9.16407 9.2745 8.04311C9.2745 6.94371 8.73402 6.25389 7.87949 6.25389C7.02495 6.25389 6.5283 6.92216 6.5283 8.0503C6.5283 9.17844 7.02495 9.86108 7.87219 9.86108Z" fill="#217DC1"/>
</svg>
