<svg width="80" height="80" viewBox="0 0 80 80" fill="none" xmlns="http://www.w3.org/2000/svg">
<path d="M38.5001 42.5H52.7001C53.3001 42.5 53.7001 42 53.7001 41.5V31.3C53.7001 30.7 53.2001 30.3 52.7001 30.3H47.1001C46.8001 30.3 46.6001 30.4 46.4001 30.6L37.8001 39.2C37.6001 39.4 37.5001 39.6 37.5001 39.9V41.4C37.5001 42.1 37.9001 42.5 38.5001 42.5ZM39.5001 40.4L47.5001 32.4H51.7001V40.5H39.5001V40.4Z" fill="#02509F"/>
<path d="M64.9001 56.8V51.6C64.9001 51 64.4001 50.6 63.9001 50.6H59.8001V25.2C59.8001 24.6 59.3001 24.2 58.8001 24.2H44.6001C44.3001 24.2 44.1001 24.3 43.9001 24.5L39.0001 29.4L19.9001 10.3C19.7001 10.1 19.5001 10 19.2001 10H13.1001C12.5001 10 12.1001 10.5 12.1001 11V24.2C12.1001 24.8 12.6001 25.2 13.1001 25.2V32.3C13.1001 32.9 13.6001 33.3 14.1001 33.3C15.2001 33.3 16.1001 34.2 16.1001 35.3C16.1001 36.4 15.2001 37.3 14.1001 37.3C13.0001 37.3 12.1001 36.4 12.1001 35.3C12.1001 34.7 11.6001 34.3 11.1001 34.3C10.5001 34.3 10.1001 34.8 10.1001 35.3C10.1001 37.5 11.9001 39.4 14.2001 39.4C16.4001 39.4 18.3001 37.6 18.3001 35.3C18.3001 33.4 17.1001 31.8 15.2001 31.3V25.1C15.6001 25.1 16.0001 24.8 16.1001 24.5L18.0001 19.7L33.3001 35L31.7001 36.6C31.5001 36.8 31.4001 37 31.4001 37.3V50.5H27.3001C26.7001 50.5 26.3001 51 26.3001 51.5V56.7C22.4001 57.3 19.7001 60.9 20.3001 64.8C20.8001 68.3 23.8001 70.8 27.3001 70.8H63.9001C67.8001 70.8 71.0001 67.6 71.0001 63.6C70.9001 60.3 68.4001 57.4 64.9001 56.8ZM45.0001 26.3H57.8001V50.7H33.4001V37.9L45.0001 26.3ZM18.3001 17.3C17.9001 16.9 17.3001 16.9 16.9001 17.3C16.8001 17.4 16.7001 17.5 16.7001 17.6L14.5001 23.2H14.2001V12H18.9001L37.7001 30.8L34.8001 33.7L18.3001 17.3ZM28.3001 52.7H62.9001V56.8H28.3001V52.7ZM63.9001 69H27.3001C24.5001 69 22.2001 66.7 22.2001 63.9C22.2001 61.1 24.5001 58.8 27.3001 58.8H63.9001C66.7001 58.8 69.0001 61.1 69.0001 63.9C69.0001 66.7 66.7001 69 63.9001 69Z" fill="#02509F"/>
<path d="M45.6001 59.8C43.4001 59.8 41.5001 61.6 41.5001 63.9C41.5001 66.1 43.3001 68 45.6001 68C47.8001 68 49.7001 66.2 49.7001 63.9C49.7001 61.6 47.9001 59.8 45.6001 59.8ZM45.6001 65.9C44.5001 65.9 43.6001 65 43.6001 63.9C43.6001 62.8 44.5001 61.9 45.6001 61.9C46.7001 61.9 47.6001 62.8 47.6001 63.9C47.6001 65 46.7001 65.9 45.6001 65.9Z" fill="#02509F"/>
<path d="M57.8001 59.8C55.6001 59.8 53.7001 61.6 53.7001 63.9C53.7001 66.1 55.5001 68 57.8001 68C60.0001 68 61.9001 66.2 61.9001 63.9C61.9001 61.6 60.1001 59.8 57.8001 59.8ZM57.8001 65.9C56.7001 65.9 55.8001 65 55.8001 63.9C55.8001 62.8 56.7001 61.9 57.8001 61.9C58.9001 61.9 59.8001 62.8 59.8001 63.9C59.8001 65 58.9001 65.9 57.8001 65.9Z" fill="#02509F"/>
<path d="M33.4001 59.8C31.2001 59.8 29.3 61.6 29.3 63.9C29.3 66.1 31.1001 68 33.4001 68C35.6001 68 37.5 66.2 37.5 63.9C37.5 61.6 35.7001 59.8 33.4001 59.8ZM33.4001 65.9C32.3001 65.9 31.4 65 31.4 63.9C31.4 62.8 32.3001 61.9 33.4001 61.9C34.5001 61.9 35.4001 62.8 35.4001 63.9C35.4001 65 34.5001 65.9 33.4001 65.9Z" fill="#02509F"/>
</svg>
