<svg width="32" height="32" viewBox="0 0 32 32" fill="none" xmlns="http://www.w3.org/2000/svg">
<path d="M4 9.18207H7.26942L8.13003 12.0068M8.13003 12.0068L10.821 22.4082H24.9841L28 12.0068H23.0325M8.13003 12.0068H13.0975" stroke="#F69234" stroke-width="1.5" stroke-linecap="round" stroke-linejoin="round"/>
<path d="M11.4744 24.3323C11.5515 24.5584 11.666 24.7672 11.8106 24.9513C12.1952 25.441 12.7928 25.7555 13.4638 25.7555C14.1348 25.7555 14.7324 25.441 15.117 24.9513C15.2616 24.7672 15.3761 24.5584 15.4532 24.3323" stroke="#F69234" stroke-width="1.5" stroke-linecap="round" stroke-linejoin="round"/>
<path d="M20.5884 24.3323C20.6655 24.5584 20.78 24.7672 20.9246 24.9513C21.3093 25.441 21.9068 25.7555 22.5778 25.7555C23.2488 25.7555 23.8464 25.441 24.231 24.9513C24.3756 24.7672 24.4902 24.5584 24.5672 24.3323" stroke="#F69234" stroke-width="1.5" stroke-linecap="round" stroke-linejoin="round"/>
<path d="M18.0276 19.1531L13.0188 13.1994L11.871 14.165L16.8798 20.1188L18.0276 19.1531ZM23.419 13.1994L18.4102 19.1531L19.5581 20.1188L24.5668 14.165L23.419 13.1994ZM22.3254 12.7884L23.2277 12.7884L23.2277 11.2884L22.3254 11.2884L22.3254 12.7884ZM20.5754 7.24515L20.5754 11.0384L22.0754 11.0384L22.0754 7.24515L20.5754 7.24515ZM16.1121 6.99515L20.3254 6.99515L20.3254 5.49515L16.1121 5.49515L16.1121 6.99515ZM15.8621 11.0384L15.8621 7.24515L14.3621 7.24515L14.3621 11.0384L15.8621 11.0384ZM13.2101 12.7884L14.1121 12.7884L14.1121 11.2884L13.2101 11.2884L13.2101 12.7884ZM14.3621 11.0384C14.3621 11.1765 14.2502 11.2884 14.1121 11.2884L14.1121 12.7884C15.0786 12.7884 15.8621 12.0049 15.8621 11.0384L14.3621 11.0384ZM16.1121 5.49515C15.1456 5.49515 14.3621 6.27865 14.3621 7.24515L15.8621 7.24515C15.8621 7.10708 15.9741 6.99515 16.1121 6.99515L16.1121 5.49515ZM22.0754 7.24515C22.0754 6.27865 21.2919 5.49515 20.3254 5.49515L20.3254 6.99515C20.4634 6.99515 20.5754 7.10708 20.5754 7.24515L22.0754 7.24515ZM22.3254 11.2884C22.1873 11.2884 22.0754 11.1765 22.0754 11.0384L20.5754 11.0384C20.5754 12.0049 21.3589 12.7884 22.3254 12.7884L22.3254 11.2884ZM24.5668 14.165C25.5245 13.0267 24.7152 11.2884 23.2277 11.2884L23.2277 12.7884C23.4402 12.7884 23.5558 13.0368 23.419 13.1994L24.5668 14.165ZM13.0188 13.1994C12.882 13.0368 12.9976 12.7884 13.2101 12.7884L13.2101 11.2884C11.7226 11.2884 10.9134 13.0267 11.871 14.165L13.0188 13.1994ZM16.8798 20.1188C17.5791 20.95 18.8588 20.95 19.5581 20.1188L18.4102 19.1531C18.3103 19.2719 18.1275 19.2719 18.0276 19.1531L16.8798 20.1188Z" fill="#F69234"/>
</svg>
