<svg width="33" height="32" viewBox="0 0 33 32" fill="none" xmlns="http://www.w3.org/2000/svg">
<g id="ic_UBP">
<g id="Group 1">
<circle id="Ellipse 162" cx="16.3" cy="16" r="6.75" stroke="#F69234" stroke-width="1.5"/>
<path id="Vector" d="M15.3877 13.91L15.3877 13.91C15.1401 14.0956 15.0435 14.3053 15.0435 14.485C15.0435 14.6652 15.1401 14.8749 15.3878 15.061L15.3127 15.161M15.3877 13.91L14.6919 17.7138C14.6362 17.6 14.5358 17.5122 14.4128 17.4697C14.2898 17.4272 14.1543 17.4335 14.0361 17.4871C13.9179 17.5407 13.8267 17.6374 13.7825 17.7557C13.7384 17.8741 13.7449 18.0045 13.8006 18.1182L13.6883 18.1732C13.6883 18.1732 13.6883 18.1732 13.6883 18.1732C14.041 18.8943 14.846 19.3508 15.7321 19.4604V19.8701C15.7321 20.0339 15.7972 20.191 15.9131 20.3068C16.0289 20.4227 16.186 20.4878 16.3499 20.4878C16.5137 20.4878 16.6708 20.4227 16.7866 20.3068C16.9025 20.191 16.9676 20.0339 16.9676 19.8701V19.3861C17.3303 19.2949 17.6631 19.1434 17.9436 18.9408C18.4255 18.5935 18.7837 18.0657 18.7837 17.4307C18.7837 16.7956 18.4254 16.2683 17.9441 15.9206C17.5776 15.6559 17.1216 15.4784 16.6265 15.4086C16.5678 15.3904 16.5061 15.3809 16.4435 15.3809C16.0073 15.3809 15.6361 15.2473 15.3877 15.061L15.3127 15.161M15.3877 13.91C15.6361 13.7237 16.0078 13.5901 16.444 13.5901C17.1552 13.5901 17.6403 13.9313 17.7867 14.2439L17.7869 14.2441C17.8215 14.3175 17.8702 14.3834 17.9302 14.438C17.9903 14.4925 18.0605 14.5348 18.1368 14.5622C18.2132 14.5897 18.2942 14.6018 18.3753 14.5979C18.4564 14.594 18.5359 14.5743 18.6093 14.5397C18.6827 14.5051 18.7485 14.4563 18.8031 14.3963L18.7106 14.3122L18.8031 14.3963C18.8577 14.3362 18.8999 14.266 18.9274 14.1897C18.9548 14.1133 18.9669 14.0323 18.9631 13.9512C18.9592 13.8702 18.9394 13.7907 18.9048 13.7173L18.9048 13.7172C18.5492 12.9631 17.7326 12.486 16.8346 12.3781M15.3877 13.91L16.8346 12.3781M15.3127 15.161C15.0412 14.957 14.9185 14.7131 14.9185 14.485C14.9185 14.2573 15.0412 14.0134 15.3127 13.81L16.1488 15.3753C16.0569 15.3753 15.9668 15.3952 15.8848 15.4328C15.6614 15.3718 15.4668 15.2765 15.3127 15.161ZM16.8346 12.3781V12.1142C16.8346 11.9537 16.7683 11.8008 16.6519 11.6888C16.5357 11.577 16.3792 11.515 16.2168 11.515C16.0545 11.515 15.8979 11.577 15.7818 11.6888C15.6654 11.8008 15.5991 11.9537 15.5991 12.1142V12.4651C15.2454 12.5606 14.9207 12.7156 14.6465 12.9211L14.6464 12.9212C14.1648 13.2826 13.8081 13.829 13.8081 14.4855C13.8081 15.1414 14.1648 15.6878 14.6464 16.0493C15.1283 16.4109 15.7657 16.6163 16.4435 16.6163C16.4752 16.6163 16.5067 16.6138 16.5377 16.6091L16.8346 12.3781ZM17.8709 16.0219C17.596 15.8234 17.2664 15.6753 16.9056 15.5887L16.9563 19.26C17.2971 19.1719 17.6085 19.0286 17.8704 18.8395C18.3291 18.509 18.6587 18.0153 18.6587 17.4307C18.6587 16.846 18.3291 16.3529 17.8709 16.0219Z" fill="#F69234" stroke="#F69234" stroke-width="0.25"/>
<path id="Subtract" fill-rule="evenodd" clip-rule="evenodd" d="M20.5126 26.704C19.208 27.2178 17.787 27.5 16.3 27.5C11.5914 27.5 7.54382 24.6702 5.76502 20.6186C5.33175 20.8615 4.83204 21 4.29998 21C4.29876 21 4.29753 21 4.29631 21C6.25543 25.6979 10.8921 29 16.3 29C18.0864 29 19.7887 28.6397 21.338 27.9877C20.9757 27.6292 20.6914 27.192 20.5126 26.704ZM3.3266 15.1614C3.75881 8.37253 9.40199 3 16.3 3C18.8805 3 21.2854 3.75186 23.3075 5.04847C23.0567 5.49639 22.8896 5.99749 22.8272 6.53062C20.9729 5.25 18.724 4.5 16.3 4.5C10.2692 4.5 5.32265 9.14224 4.83881 15.0483C4.664 15.0166 4.48392 15 4.29998 15C3.95927 15 3.63182 15.0568 3.3266 15.1614ZM27.8 16C27.8 14.2071 27.3897 12.51 26.6579 10.9975C26.705 10.9992 26.7524 11 26.8 11C27.2911 11 27.7615 10.9115 28.1961 10.7496C28.9058 12.3553 29.3 14.1316 29.3 16C29.3 18.8729 28.3681 21.5281 26.7901 23.6799C26.5221 23.2406 26.1601 22.865 25.732 22.5811C27.0354 20.7165 27.8 18.4476 27.8 16Z" fill="#F69234"/>
<circle id="Ellipse 163" cx="26.8" cy="7" r="3" fill="#F69234"/>
<circle id="Ellipse 164" cx="4.29999" cy="18" r="2" fill="#F69234"/>
<circle id="Ellipse 166" cx="23.8" cy="25.5" r="2.5" fill="#F69234"/>
</g>
</g>
</svg>
