<svg width="32" height="33" viewBox="0 0 32 33" fill="none" xmlns="http://www.w3.org/2000/svg">
<path d="M5 10.0979C5 7.39781 7.18883 5.20898 9.88889 5.20898H22.1111C24.8112 5.20898 27 7.39781 27 10.0979V22.8923C27 27.0166 22.2074 29.2878 19.0153 26.676L17.5479 25.4755C16.6475 24.7387 15.3525 24.7387 14.4521 25.4755L12.9847 26.676C9.79261 29.2878 5 27.0166 5 22.8922V10.0979Z" stroke="#6200EE" stroke-width="1.5" stroke-linecap="round"/>
<path d="M17.8636 13.9844V11.8783C17.8636 11.326 17.4159 10.8783 16.8636 10.8783H15.1364C14.5841 10.8783 14.1364 11.326 14.1364 11.8783V13.9844H12.0303C11.478 13.9844 11.0303 14.4321 11.0303 14.9844V16.7117C11.0303 17.264 11.478 17.7117 12.0303 17.7117H14.1364V19.8177C14.1364 20.37 14.5841 20.8177 15.1364 20.8177H16.8636C17.4159 20.8177 17.8636 20.37 17.8636 19.8177V17.7117H19.9697C20.522 17.7117 20.9697 17.264 20.9697 16.7117V14.9844C20.9697 14.4321 20.522 13.9844 19.9697 13.9844H17.8636Z" stroke="#6200EE" stroke-width="1.5" stroke-linejoin="round"/>
</svg>
