<svg width="33" height="32" viewBox="0 0 33 32" fill="none" xmlns="http://www.w3.org/2000/svg">
<path d="M5.375 9.59787C5.375 6.89781 7.56383 4.70898 10.2639 4.70898H22.4861C25.1862 4.70898 27.375 6.89781 27.375 9.59787V22.3923C27.375 26.5166 22.5824 28.7878 19.3903 26.176L17.9229 24.9755C17.0225 24.2387 15.7275 24.2387 14.8271 24.9755L13.3597 26.176C10.1676 28.7878 5.375 26.5166 5.375 22.3922V9.59787Z" stroke="#8B3BFF" stroke-width="1.5" stroke-linecap="round"/>
<path d="M18.2386 13.4844V11.3783C18.2386 10.826 17.7909 10.3783 17.2386 10.3783H15.5114C14.9591 10.3783 14.5114 10.826 14.5114 11.3783V13.4844H12.4053C11.853 13.4844 11.4053 13.9321 11.4053 14.4844V16.2117C11.4053 16.764 11.853 17.2117 12.4053 17.2117H14.5114V19.3177C14.5114 19.87 14.9591 20.3177 15.5114 20.3177H17.2386C17.7909 20.3177 18.2386 19.87 18.2386 19.3177V17.2117H20.3447C20.897 17.2117 21.3447 16.764 21.3447 16.2117V14.4844C21.3447 13.9321 20.897 13.4844 20.3447 13.4844H18.2386Z" stroke="#8B3BFF" stroke-width="1.5" stroke-linejoin="round"/>
</svg>
