<svg width="32" height="32" viewBox="0 0 32 32" fill="none" xmlns="http://www.w3.org/2000/svg">
<path fill-rule="evenodd" clip-rule="evenodd" d="M14.527 12.7302C14.1219 13.0338 13.9389 13.3977 13.9389 13.7373C13.9389 14.0777 14.1219 14.4416 14.527 14.7459C14.9327 15.0502 15.5267 15.2605 16.2141 15.2605C16.409 15.2605 16.596 15.3379 16.7339 15.4758C16.8717 15.6137 16.9492 15.8006 16.9492 15.9956C16.9492 16.1906 16.8717 16.3776 16.7339 16.5154C16.596 16.6533 16.409 16.7307 16.2141 16.7307C15.2393 16.7307 14.3285 16.4352 13.6448 15.9221C12.9612 15.409 12.4686 14.6445 12.4686 13.7381C12.4686 12.8309 12.9612 12.0664 13.6448 11.5533C14.3285 11.0409 15.24 10.7454 16.2141 10.7454C17.7233 10.7454 19.1501 11.468 19.7176 12.6714C19.7588 12.7588 19.7824 12.8534 19.787 12.9499C19.7916 13.0463 19.7771 13.1428 19.7445 13.2337C19.7118 13.3246 19.6616 13.4081 19.5966 13.4796C19.5316 13.5511 19.4532 13.609 19.3659 13.6502C19.2785 13.6914 19.1839 13.715 19.0874 13.7196C18.9909 13.7242 18.8945 13.7097 18.8036 13.6771C18.7127 13.6444 18.6292 13.5941 18.5577 13.5292C18.4862 13.4642 18.4282 13.3858 18.3871 13.2985C18.1298 12.7493 17.327 12.2156 16.2148 12.2156C15.5275 12.2156 14.9327 12.4259 14.527 12.7302Z" fill="#6200EE"/>
<path fill-rule="evenodd" clip-rule="evenodd" d="M17.4616 19.1023C17.8666 18.8101 18.0489 18.4599 18.0489 18.133C18.0489 17.8055 17.8666 17.4546 17.4608 17.1624C17.0558 16.8695 16.4611 16.6671 15.7745 16.6671C15.5795 16.6671 15.3925 16.5926 15.2547 16.4599C15.1168 16.3272 15.0393 16.1473 15.0393 15.9597C15.0393 15.772 15.1168 15.5921 15.2547 15.4594C15.3925 15.3267 15.5795 15.2522 15.7745 15.2522C16.7492 15.2522 17.66 15.5366 18.3437 16.0304C19.0274 16.5242 19.5192 17.26 19.5192 18.1323C19.5192 19.0046 19.0274 19.7411 18.343 20.2342C17.6593 20.728 16.7492 21.0124 15.7745 21.0124C14.2653 21.0124 12.8377 20.317 12.2709 19.1581C12.1877 18.9884 12.178 18.7939 12.2439 18.6173C12.3098 18.4407 12.4459 18.2965 12.6223 18.2165C12.7986 18.1365 13.0008 18.1271 13.1843 18.1906C13.3678 18.254 13.5176 18.385 13.6007 18.5547C13.8595 19.0839 14.6622 19.5975 15.7745 19.5975C16.4618 19.5975 17.0558 19.3951 17.4616 19.1023ZM15.8759 9.49268C16.0709 9.49268 16.2579 9.56721 16.3957 9.69989C16.5336 9.83257 16.611 10.0125 16.611 10.2001V10.9076C16.611 11.0953 16.5336 11.2752 16.3957 11.4079C16.2579 11.5406 16.0709 11.6151 15.8759 11.6151C15.6809 11.6151 15.494 11.5406 15.3561 11.4079C15.2182 11.2752 15.1408 11.0953 15.1408 10.9076V10.2001C15.1408 10.0125 15.2182 9.83257 15.3561 9.69989C15.494 9.56721 15.6809 9.49268 15.8759 9.49268Z" fill="#6200EE"/>
<path fill-rule="evenodd" clip-rule="evenodd" d="M16.0744 20.3016C16.2693 20.3016 16.4563 20.3791 16.5942 20.5169C16.732 20.6548 16.8095 20.8418 16.8095 21.0367V21.7718C16.8095 21.9668 16.732 22.1538 16.5942 22.2916C16.4563 22.4295 16.2693 22.507 16.0744 22.507C15.8794 22.507 15.6924 22.4295 15.5546 22.2916C15.4167 22.1538 15.3392 21.9668 15.3392 21.7718V21.0367C15.3392 20.8418 15.4167 20.6548 15.5546 20.5169C15.6924 20.3791 15.8794 20.3016 16.0744 20.3016Z" fill="#6200EE"/>
<circle cx="16" cy="16" r="10.4399" stroke="#6200EE" stroke-width="1.5"/>
</svg>
