<svg width="33" height="32" viewBox="0 0 33 32" fill="none" xmlns="http://www.w3.org/2000/svg">
<path fill-rule="evenodd" clip-rule="evenodd" d="M15.402 12.7302C14.9969 13.0338 14.8139 13.3977 14.8139 13.7373C14.8139 14.0777 14.9969 14.4416 15.402 14.7459C15.8077 15.0502 16.4017 15.2605 17.0891 15.2605C17.284 15.2605 17.471 15.3379 17.6089 15.4758C17.7467 15.6137 17.8242 15.8006 17.8242 15.9956C17.8242 16.1906 17.7467 16.3776 17.6089 16.5154C17.471 16.6533 17.284 16.7307 17.0891 16.7307C16.1143 16.7307 15.2035 16.4352 14.5198 15.9221C13.8362 15.409 13.3436 14.6445 13.3436 13.7381C13.3436 12.8309 13.8362 12.0664 14.5198 11.5533C15.2035 11.0409 16.115 10.7454 17.0891 10.7454C18.5983 10.7454 20.0251 11.468 20.5926 12.6714C20.6338 12.7588 20.6574 12.8534 20.662 12.9499C20.6666 13.0463 20.6521 13.1428 20.6195 13.2337C20.5868 13.3246 20.5366 13.4081 20.4716 13.4796C20.4066 13.5511 20.3282 13.609 20.2409 13.6502C20.1535 13.6914 20.0589 13.715 19.9624 13.7196C19.8659 13.7242 19.7695 13.7097 19.6786 13.6771C19.5877 13.6444 19.5042 13.5941 19.4327 13.5292C19.3612 13.4642 19.3032 13.3858 19.2621 13.2985C19.0048 12.7493 18.202 12.2156 17.0898 12.2156C16.4025 12.2156 15.8077 12.4259 15.402 12.7302Z" fill="#8B3BFF"/>
<path fill-rule="evenodd" clip-rule="evenodd" d="M18.3366 19.1023C18.7416 18.8101 18.9239 18.4599 18.9239 18.133C18.9239 17.8055 18.7416 17.4546 18.3358 17.1624C17.9308 16.8695 17.3361 16.6671 16.6495 16.6671C16.4545 16.6671 16.2675 16.5926 16.1297 16.4599C15.9918 16.3272 15.9143 16.1473 15.9143 15.9597C15.9143 15.772 15.9918 15.5921 16.1297 15.4594C16.2675 15.3267 16.4545 15.2522 16.6495 15.2522C17.6242 15.2522 18.535 15.5366 19.2187 16.0304C19.9024 16.5242 20.3942 17.26 20.3942 18.1323C20.3942 19.0046 19.9024 19.7411 19.218 20.2342C18.5343 20.728 17.6242 21.0124 16.6495 21.0124C15.1403 21.0124 13.7127 20.317 13.1459 19.1581C13.0627 18.9884 13.053 18.7939 13.1189 18.6173C13.1848 18.4407 13.3209 18.2965 13.4973 18.2165C13.6736 18.1365 13.8758 18.1271 14.0593 18.1906C14.2428 18.254 14.3926 18.385 14.4757 18.5547C14.7345 19.0839 15.5372 19.5975 16.6495 19.5975C17.3368 19.5975 17.9308 19.3951 18.3366 19.1023ZM16.7509 9.49268C16.9459 9.49268 17.1329 9.56721 17.2707 9.69989C17.4086 9.83257 17.486 10.0125 17.486 10.2001V10.9076C17.486 11.0953 17.4086 11.2752 17.2707 11.4079C17.1329 11.5406 16.9459 11.6151 16.7509 11.6151C16.5559 11.6151 16.369 11.5406 16.2311 11.4079C16.0932 11.2752 16.0158 11.0953 16.0158 10.9076V10.2001C16.0158 10.0125 16.0932 9.83257 16.2311 9.69989C16.369 9.56721 16.5559 9.49268 16.7509 9.49268Z" fill="#8B3BFF"/>
<path fill-rule="evenodd" clip-rule="evenodd" d="M16.9494 20.3016C17.1443 20.3016 17.3313 20.3791 17.4692 20.5169C17.607 20.6548 17.6845 20.8418 17.6845 21.0367V21.7718C17.6845 21.9668 17.607 22.1538 17.4692 22.2916C17.3313 22.4295 17.1443 22.507 16.9494 22.507C16.7544 22.507 16.5674 22.4295 16.4296 22.2916C16.2917 22.1538 16.2142 21.9668 16.2142 21.7718V21.0367C16.2142 20.8418 16.2917 20.6548 16.4296 20.5169C16.5674 20.3791 16.7544 20.3016 16.9494 20.3016Z" fill="#8B3BFF"/>
<circle cx="16.875" cy="16" r="10.4399" stroke="#8B3BFF" stroke-width="1.5"/>
</svg>
