<svg width="38" height="38" viewBox="0 0 38 38" fill="none" xmlns="http://www.w3.org/2000/svg">
<g id="biometrics">
<g id="Group 16">
<path id="Vector" d="M18.8704 17.963C18.5465 18.0277 18.417 18.3516 18.4818 18.6755C18.4818 18.7403 20.0364 24.1816 19.583 36.2301C19.583 36.554 19.8421 36.8131 20.166 36.8131C20.4899 36.8131 20.749 36.554 20.749 36.2301C21.2024 23.9873 19.6478 18.546 19.583 18.3516C19.5182 18.0277 19.1943 17.8982 18.8704 17.963Z" fill="#217DC1" stroke="#217DC1" stroke-width="0.485829" stroke-miterlimit="10"/>
<path id="Vector_2" d="M33.251 12.4575C30.8543 6.75708 25.2187 3 19 3C16.9272 3 14.9191 3.38866 13.0405 4.16599C12.0041 4.61943 11.0324 5.13765 10.1256 5.72064C9.86645 5.91497 9.80168 6.23886 9.93123 6.49797C10.1256 6.75708 10.4495 6.82186 10.7086 6.6923C11.5507 6.17408 12.4575 5.65587 13.494 5.2672C15.243 4.55465 17.1215 4.16599 19 4.16599C24.7652 4.16599 29.9474 7.59918 32.1498 12.9109C33.0567 15.1133 33.5749 19.1943 33.834 21.3967C33.834 21.7206 34.0931 21.9149 34.417 21.9149H34.4818C34.8057 21.9149 35 21.5911 35 21.2672C34.7409 18.5465 34.2227 14.7247 33.251 12.4575Z" fill="#217DC1" stroke="#217DC1" stroke-width="0.485829" stroke-miterlimit="10"/>
<path id="Vector_3" d="M8.4413 8.63548C8.63564 8.44115 8.70041 8.05248 8.4413 7.85815C8.24697 7.66382 7.85831 7.66382 7.66398 7.85815C4.55467 10.9027 1.51014 16.5383 4.42512 26.1901C4.48989 26.4492 4.749 26.5788 4.94333 26.5788C5.00811 26.5788 5.07289 26.5788 5.13767 26.5788C5.46155 26.514 5.59111 26.1901 5.52633 25.8662C3.3239 18.6112 4.36034 12.6517 8.4413 8.63548Z" fill="#217DC1" stroke="#217DC1" stroke-width="0.485829" stroke-miterlimit="10"/>
<path id="Vector_4" d="M19.5182 6.49788C17.7692 6.4331 16.085 6.75699 14.4655 7.40476C8.82993 9.73674 5.85017 15.8906 7.53438 21.7853C7.72871 22.3683 7.85827 23.0161 7.98782 23.5991C8.18215 25.0242 8.18215 27.5505 8.18215 31.6962C8.18215 32.0201 8.44126 32.2792 8.76515 32.2792C9.08904 32.2792 9.34814 32.0201 9.34814 31.6962C9.34814 27.4209 9.34814 24.9594 9.15381 23.4695C9.02426 22.757 8.8947 22.1092 8.70037 21.5262C7.2105 16.2145 9.93114 10.6436 14.9838 8.57075C16.4736 7.98776 17.9635 7.66387 19.5829 7.72865C23.6639 7.8582 28.2631 11.4857 29.6234 15.5667C30.8542 19.1294 30.8542 25.1537 30.6598 30.595C30.6598 30.9189 30.919 31.178 31.2428 31.178C31.5667 31.178 31.8258 30.9189 31.8258 30.595C31.9554 25.0242 31.9554 18.8703 30.7246 15.178C29.0404 10.5141 24.0526 6.69221 19.5182 6.49788Z" fill="#217DC1" stroke="#217DC1" stroke-width="0.485829" stroke-miterlimit="10"/>
<path id="Vector_5" d="M19.0646 9.93115C18.4169 9.93115 17.8339 9.99593 17.2509 10.1255C16.927 10.1903 16.7327 10.5141 16.7974 10.838C16.8622 11.1619 17.1861 11.3563 17.51 11.2915C18.0282 11.1619 18.5464 11.0971 19.1294 11.0971C22.1092 11.0971 24.8298 12.9109 25.9958 15.6315C27.3561 18.9352 27.4857 24.1821 27.1618 33.3805C27.1618 33.7044 27.4209 33.9635 27.7448 33.9635C28.0687 33.9635 28.3278 33.7044 28.3278 33.3805C28.6517 23.7935 28.5869 18.6761 27.097 15.1133C25.6071 12.004 22.4978 9.93115 19.0646 9.93115Z" fill="#217DC1" stroke="#217DC1" stroke-width="0.485829" stroke-miterlimit="10"/>
<path id="Vector_6" d="M14.7894 12.3924C15.0485 12.1981 15.1132 11.8742 14.9189 11.6151C14.7246 11.356 14.4007 11.2912 14.1416 11.4856C11.2266 13.5584 9.93106 17.5098 10.9675 21.3965C10.9675 21.4612 12.1335 25.6718 12.1335 32.279C12.1335 32.6029 12.3926 32.862 12.7165 32.862C13.0404 32.862 13.2995 32.6029 13.2995 32.279C13.2995 25.5422 12.1335 21.2669 12.0687 21.0726C11.1618 17.7042 12.263 14.2062 14.7894 12.3924Z" fill="#217DC1" stroke="#217DC1" stroke-width="0.485829" stroke-miterlimit="10"/>
<path id="Vector_7" d="M24.7003 30.5298C24.7003 30.2059 24.4412 29.9468 24.1173 29.9468C23.7934 29.9468 23.5343 30.2059 23.5343 30.5298C23.5343 30.9832 23.5343 31.5662 23.5343 32.2788C23.5343 33.2504 23.5991 34.3516 23.5343 35.129C23.5343 35.4528 23.7934 35.712 24.1173 35.712C24.4412 35.712 24.7003 35.4528 24.7003 35.1937C24.7003 34.4164 24.7003 33.3152 24.7003 32.2788C24.7003 31.5662 24.7003 30.9184 24.7003 30.5298Z" fill="#217DC1" stroke="#217DC1" stroke-width="0.485829" stroke-miterlimit="10"/>
<path id="Vector_8" d="M19.0648 13.9473C18.4818 13.9473 17.8988 14.0768 17.3158 14.2712C15.1134 15.178 14.0122 17.7043 14.7895 20.1011C15.2429 21.3966 15.5668 28.263 15.5668 35.0646C15.5668 35.3885 15.8259 35.6476 16.1498 35.6476C16.4737 35.6476 16.7328 35.3885 16.7328 35.0646C16.7328 28.9108 16.4089 21.3319 15.8907 19.7124C15.3077 17.8987 16.085 15.9554 17.7693 15.3076C18.2227 15.1133 18.6114 15.0485 19.0648 15.0485C20.4251 15.0485 21.6559 15.8906 22.2389 17.1213C23.2753 19.6477 23.5992 24.2468 23.7288 27.6153C23.7288 27.9391 23.9879 28.1983 24.3118 28.1983C24.6356 28.1983 24.8947 27.9391 24.8947 27.6153C24.83 24.1173 24.5061 19.3886 23.3401 16.6679C22.5628 15.0485 20.8786 13.9473 19.0648 13.9473Z" fill="#217DC1" stroke="#217DC1" stroke-width="0.485829" stroke-miterlimit="10"/>
</g>
</g>
</svg>
