<svg width="16" height="16" viewBox="0 0 16 16" fill="none" xmlns="http://www.w3.org/2000/svg">
<path d="M8.0001 14.4C4.4721 14.4 1.6001 11.528 1.6001 8.00001C1.6001 4.47201 4.4721 1.60001 8.0001 1.60001C11.5281 1.60001 14.4001 4.47201 14.4001 8.00001C14.4001 11.528 11.5281 14.4 8.0001 14.4ZM8.0001 2.44001C4.9361 2.44001 2.4401 4.93601 2.4401 8.00001C2.4401 11.064 4.9361 13.56 8.0001 13.56C11.0641 13.56 13.5601 11.064 13.5601 8.00001C13.5601 4.93601 11.0641 2.44001 8.0001 2.44001Z" fill="#B9964B"/>
<path d="M8.00795 11.584C7.56795 11.584 7.19995 11.216 7.19995 10.776C7.19995 10.336 7.56795 9.96799 8.00795 9.96799C8.22395 9.96799 8.43195 10.056 8.57595 10.208C8.72795 10.368 8.80795 10.576 8.79195 10.792C8.79995 10.984 8.72795 11.176 8.58395 11.328C8.43195 11.496 8.22395 11.584 8.00795 11.584Z" fill="#B9964B"/>
<path d="M8.00808 9.49599C7.67208 9.49599 7.41608 9.25599 7.39208 8.91999C7.36808 8.45599 7.33608 7.99199 7.31208 7.52799C7.28808 7.06399 7.25608 6.59999 7.23208 6.12799C7.22408 6.00799 7.21608 5.87999 7.20808 5.75999C7.20008 5.63199 7.19208 5.51199 7.18408 5.38399C7.18408 4.95199 7.43208 4.60799 7.80808 4.50399C8.19208 4.41599 8.57608 4.59999 8.74408 4.95999C8.79208 5.07999 8.81608 5.20799 8.81608 5.35999C8.80808 5.55199 8.79208 5.75199 8.78408 5.94399C8.76808 6.13599 8.76008 6.33599 8.75208 6.52799C8.73608 6.82399 8.72008 7.11199 8.70408 7.40799C8.68808 7.71999 8.66408 8.02399 8.64808 8.33599C8.63208 8.52799 8.63208 8.71199 8.63208 8.90399C8.60808 9.23999 8.34408 9.49599 8.00808 9.49599Z" fill="#B9964B"/>
</svg>
