<svg width="26" height="12" viewBox="0 0 26 12" fill="none" xmlns="http://www.w3.org/2000/svg">
<rect x="0.5" y="0.5" width="25" height="11" rx="5.5" fill="#FF3042"/>
<rect x="0.5" y="0.5" width="25" height="11" rx="5.5" stroke="white"/>
<path d="M3.86719 9V3.36328H5.01172L7.73828 7.03906L6.72266 6.53125H7.43359V3.36328H8.79297V9H7.65625L4.92188 5.29297L5.9375 5.80469H5.22656V9H3.86719ZM10.125 9V3.36328H13.9883V4.51562H11.5586V5.64062H13.8438V6.69531H11.5586V7.84766H13.9883V9H10.125ZM16.3555 9L14.8828 3.36328H16.3711L17.1211 7.09766H17.1914L18.0938 3.36328H19.2422L20.1758 7.09766H20.2461L20.9844 3.36328H22.4609L20.9883 9H19.6445L18.7031 5.55078H18.6328L17.707 9H16.3555Z" fill="white"/>
</svg>
