<svg width="24" height="24" viewBox="0 0 24 24" fill="none" xmlns="http://www.w3.org/2000/svg">
<path d="M7.49601 9.06543C6.82661 9.06543 6.21806 9.35449 5.77686 9.8109C5.35087 9.35449 4.74232 9.06543 4.0577 9.06543C2.77975 9.06543 1.73 10.1304 1.73 11.4236V14.3294C1.73 14.6793 2.01906 14.9684 2.36898 14.9684C2.71889 14.9684 3.00796 14.6793 3.00796 14.3294V11.4236C3.00796 10.8302 3.4948 10.3434 4.08813 10.3434C4.68147 10.3434 5.16831 10.8302 5.16831 11.4236V14.3294C5.16831 14.6793 5.45737 14.9684 5.80729 14.9684C6.1572 14.9684 6.44626 14.6793 6.44626 14.3294V11.4236C6.44626 10.8302 6.9331 10.3434 7.52644 10.3434C8.11978 10.3434 8.60662 10.8302 8.60662 11.4236V14.3294C8.60662 14.6793 8.89568 14.9684 9.2456 14.9684C9.59551 14.9684 9.88457 14.6793 9.88457 14.3294V11.4236C9.85415 10.1304 8.8044 9.06543 7.49601 9.06543Z" fill="black"/>
<path d="M13.4138 9.06543C11.8012 9.06543 10.4776 10.389 10.4776 12.0017C10.4776 13.6143 11.8012 14.9379 13.4138 14.9379C15.0265 14.9379 16.3501 13.6143 16.3501 12.0017C16.3501 10.389 15.0265 9.06543 13.4138 9.06543ZM13.4138 13.66C12.501 13.66 11.7555 12.9145 11.7555 12.0017C11.7555 11.0889 12.4858 10.3434 13.4138 10.3434C14.3266 10.3434 15.0721 11.0889 15.0721 12.0017C15.0721 12.9145 14.3266 13.66 13.4138 13.66Z" fill="black"/>
<path fill-rule="evenodd" clip-rule="evenodd" d="M19.7734 10.6476L21.2035 9.21748C21.4469 8.97406 21.8425 8.97406 22.0859 9.21748C22.3293 9.4609 22.3293 9.85646 22.0859 10.0999L20.6558 11.53C20.4124 11.7734 20.0168 11.7734 19.7734 11.53C19.53 11.2865 19.53 10.891 19.7734 10.6476Z" fill="url(#paint0_linear_3717_863)"/>
<path d="M22.04 13.8578L19.7427 11.5605C19.7427 11.5605 19.7427 11.5605 19.7427 11.5453C19.7427 11.5453 19.7427 11.5453 19.7275 11.5301L17.4454 9.24799C17.202 9.00457 16.7912 9.00457 16.5478 9.24799C16.3044 9.49141 16.3044 9.90219 16.5478 10.1456L18.4039 12.0017L16.5478 13.8578C16.3044 14.1012 16.3044 14.512 16.5478 14.7554C16.6695 14.8771 16.8369 14.9379 17.0042 14.9379C17.1716 14.9379 17.3237 14.8771 17.4606 14.7554L19.3167 12.8993L21.1728 14.7554C21.2945 14.8771 21.4619 14.9379 21.6292 14.9379C21.7966 14.9379 21.9487 14.8771 22.0856 14.7554C22.2986 14.4967 22.2986 14.1012 22.04 13.8578Z" fill="black"/>
<defs>
<linearGradient id="paint0_linear_3717_863" x1="19.779" y1="11.5125" x2="22.0865" y2="9.20507" gradientUnits="userSpaceOnUse">
<stop stop-color="#00F1FE" stop-opacity="0"/>
<stop offset="1" stop-color="#00F1FE"/>
</linearGradient>
</defs>
</svg>
