<svg width="50" height="50" viewBox="0 0 50 50" fill="none" xmlns="http://www.w3.org/2000/svg">
<path d="M25 46C36.5979 46 46 36.5979 46 25C46 13.402 36.5979 4 25 4C13.402 4 4 13.402 4 25C4 36.5979 13.402 46 25 46Z" fill="#4D4D4D"/>
<path d="M32.1881 28.594C32.436 28.8419 32.5599 29.1393 32.5599 29.4864C32.5599 29.8334 32.436 30.1556 32.1881 30.4035L30.4035 32.1881C30.1556 32.436 29.8582 32.5599 29.4864 32.5599C29.1393 32.5599 28.8419 32.436 28.594 32.1881L24.9999 28.594L21.4058 32.1881C21.158 32.436 20.8605 32.5599 20.5135 32.5599C20.1665 32.5599 19.8443 32.436 19.5964 32.1881L17.8117 30.4035C17.5639 30.1556 17.4399 29.8582 17.4399 29.4864C17.4399 29.1393 17.5639 28.8419 17.8117 28.594L21.4058 24.9999L17.8117 21.4058C17.5639 21.158 17.4399 20.8605 17.4399 20.5135C17.4399 20.1665 17.5639 19.8443 17.8117 19.5964L19.5964 17.8117C19.8443 17.5639 20.1417 17.4399 20.5135 17.4399C20.8605 17.4399 21.158 17.5639 21.4058 17.8117L24.9999 21.4058L28.594 17.8117C28.8419 17.5639 29.1393 17.4399 29.4864 17.4399C29.8334 17.4399 30.1556 17.5639 30.4035 17.8117L32.1881 19.5964C32.436 19.8443 32.5599 20.1417 32.5599 20.5135C32.5599 20.8605 32.436 21.158 32.1881 21.4058L28.594 24.9999L32.1881 28.594Z" fill="#C5C5C4"/>
</svg>
