<svg width="50" height="50" viewBox="0 0 50 50" fill="none" xmlns="http://www.w3.org/2000/svg">
<path d="M25 46C36.5979 46 46 36.5979 46 25C46 13.402 36.5979 4 25 4C13.402 4 4 13.402 4 25C4 36.5979 13.402 46 25 46Z" fill="#EDEEEE"/>
<path d="M32.1881 28.5941C32.436 28.842 32.5599 29.1394 32.5599 29.4864C32.5599 29.8334 32.436 30.1557 32.1881 30.4035L30.4035 32.1882C30.1556 32.4361 29.8582 32.56 29.4864 32.56C29.1393 32.56 28.8419 32.4361 28.594 32.1882L24.9999 28.5941L21.4058 32.1882C21.158 32.4361 20.8605 32.56 20.5135 32.56C20.1665 32.56 19.8443 32.4361 19.5964 32.1882L17.8117 30.4035C17.5639 30.1557 17.4399 29.8582 17.4399 29.4864C17.4399 29.1394 17.5639 28.842 17.8117 28.5941L21.4058 25L17.8117 21.4059C17.5639 21.158 17.4399 20.8606 17.4399 20.5136C17.4399 20.1666 17.5639 19.8443 17.8117 19.5965L19.5964 17.8118C19.8443 17.5639 20.1417 17.44 20.5135 17.44C20.8605 17.44 21.158 17.5639 21.4058 17.8118L24.9999 21.4059L28.594 17.8118C28.8419 17.5639 29.1393 17.44 29.4864 17.44C29.8334 17.44 30.1556 17.5639 30.4035 17.8118L32.1881 19.5965C32.436 19.8443 32.5599 20.1418 32.5599 20.5136C32.5599 20.8606 32.436 21.158 32.1881 21.4059L28.594 25L32.1881 28.5941Z" fill="#4D4D4D"/>
</svg>
