<svg width="20" height="20" viewBox="0 0 20 20" fill="none" xmlns="http://www.w3.org/2000/svg">
<circle cx="10" cy="10" r="10" fill="#F68703"/>
<path d="M9.846 15.014C8.628 15.014 6.906 14.538 5.954 13.6L6.878 12.2C7.746 12.97 8.81 13.334 9.846 13.334C11.26 13.334 11.904 12.9 11.904 12.088C11.904 10.254 6.374 10.828 6.374 7.496C6.374 5.676 7.83 4.5 10.028 4.5C11.708 4.5 12.814 5.13 13.766 5.984L12.73 7.216C11.918 6.544 11.064 6.18 10.112 6.18C9.062 6.18 8.348 6.558 8.348 7.356C8.348 9.092 13.878 8.504 13.878 11.906C13.878 13.74 12.422 15.014 9.846 15.014ZM9.398 5.186V2.764H10.77V5.186H9.398ZM9.398 16.764V14.188H10.77V16.764H9.398Z" fill="white"/>
</svg>
