<svg width="24" height="24" viewBox="0 0 24 24" fill="none" xmlns="http://www.w3.org/2000/svg">
<path d="M12 2C9.34784 2 6.8043 3.05357 4.92893 4.92893C3.05357 6.8043 2 9.34784 2 12C2 14.6522 3.05357 17.1957 4.92893 19.0711C6.8043 20.9464 9.34784 22 12 22H22V12C22 9.34784 20.9464 6.8043 19.0711 4.92893C17.1957 3.05357 14.6522 2 12 2Z" fill="#2E3D5D"/>
<path d="M15.3038 10.9549C15.3497 10.8393 15.3505 10.7107 15.3062 10.5945C15.2618 10.4783 15.1755 10.383 15.0643 10.3274C14.9607 10.278 14.8434 10.2655 14.7317 10.2919C14.5854 10.3252 14.4368 10.3584 14.2883 10.3873C13.6828 10.4914 13.0664 10.516 12.4546 10.4604C12.1507 10.4335 11.8492 10.3854 11.5521 10.3163C11.4377 10.2787 11.3153 10.2718 11.1973 10.2964C11.0739 10.3343 10.9703 10.4193 10.9089 10.5329C10.8475 10.6466 10.8332 10.7798 10.8692 10.9039C10.8903 10.9785 10.9291 11.047 10.9823 11.1034C11.0684 11.1893 11.1793 11.2459 11.2993 11.2653C11.4523 11.3008 11.6075 11.3318 11.7628 11.3584C12.3932 11.4647 13.034 11.496 13.6718 11.4516L13.9135 11.4294L13.6386 11.9061L13.1951 12.66L13.0931 12.8352C12.9734 12.6267 12.8559 12.4183 12.7339 12.2099C12.6794 12.1134 12.594 12.0382 12.4914 11.9963C12.3888 11.9545 12.2751 11.9485 12.1687 11.9792C12.0623 12.01 11.9693 12.0758 11.9049 12.1659C11.8405 12.2561 11.8084 12.3653 11.8138 12.476C11.8265 12.5831 11.8645 12.6857 11.9246 12.7753L12.1175 13.1079L12.5876 13.9238C12.623 13.9934 12.6637 14.0602 12.7095 14.1234C12.7925 14.2257 12.9126 14.2909 13.0436 14.3046C13.1746 14.3183 13.3057 14.2795 13.408 14.1966L13.4235 14.1811C13.4748 14.1315 13.5175 14.0738 13.5499 14.0103L13.6652 13.8108L14.071 13.1079L14.5809 12.221L15.0244 11.436L15.2639 11.0236C15.2788 11.0017 15.2921 10.9787 15.3038 10.9549Z" fill="#34EAD9"/>
<path d="M17.7959 8.69755C17.5127 8.41442 17.1287 8.25537 16.7282 8.25537C16.3278 8.25537 15.9438 8.41442 15.6606 8.69755C15.5689 8.78223 15.5145 8.89988 15.5095 9.02463C15.5045 9.14938 15.5493 9.271 15.634 9.36273C15.7187 9.45447 15.8363 9.50881 15.9611 9.5138C16.0858 9.51879 16.2074 9.47402 16.2992 9.38934L16.3258 9.36273C16.433 9.25604 16.5781 9.19614 16.7293 9.19614C16.8806 9.19614 17.0257 9.25604 17.1329 9.36273C17.2167 9.45535 17.3338 9.51089 17.4586 9.51713C17.5204 9.52022 17.5821 9.51111 17.6404 9.49032C17.6986 9.46954 17.7522 9.43749 17.7981 9.39599C17.8439 9.3545 17.8812 9.30438 17.9077 9.2485C17.9342 9.19261 17.9494 9.13206 17.9525 9.07029C17.9556 9.00852 17.9464 8.94675 17.9257 8.8885C17.9049 8.83025 17.8728 8.77667 17.8313 8.73081L17.7981 8.69755H17.7959Z" fill="#34EAD9"/>
<path d="M9.38552 9.52465C9.76392 9.52465 10.0707 9.2179 10.0707 8.8395C10.0707 8.46111 9.76392 8.15436 9.38552 8.15436C9.00713 8.15436 8.70038 8.46111 8.70038 8.8395C8.70038 9.2179 9.00713 9.52465 9.38552 9.52465Z" fill="#34EAD9"/>
<path d="M7.21275 13.6488V8.71979C7.21275 8.56786 7.15255 8.42213 7.04533 8.31449C6.93811 8.20686 6.79261 8.14609 6.64069 8.14551H6.06641V13.6488C6.06641 15.7154 7.21275 17.0502 8.98658 17.0502C9.062 17.0502 9.13668 17.0353 9.20635 17.0064C9.27603 16.9776 9.33933 16.9353 9.39266 16.882C9.44599 16.8286 9.48829 16.7653 9.51715 16.6957C9.54601 16.626 9.56086 16.5513 9.56086 16.4759V15.9038H8.98658C8.45443 15.9016 7.21275 15.6821 7.21275 13.6488Z" fill="#34EAD9"/>
<path d="M9.38574 10.2033C9.31043 10.203 9.2358 10.2176 9.16614 10.2462C9.09648 10.2748 9.03315 10.3169 8.9798 10.3701C8.92644 10.4232 8.88411 10.4864 8.85522 10.5559C8.82633 10.6255 8.81146 10.7001 8.81146 10.7754V13.751C8.81146 13.8263 8.82633 13.9009 8.85522 13.9704C8.88411 14.04 8.92644 14.1031 8.9798 14.1563C9.03315 14.2094 9.09648 14.2515 9.16614 14.2801C9.2358 14.3088 9.31043 14.3233 9.38574 14.323H9.9578V10.7754C9.9578 10.6237 9.89753 10.4781 9.79025 10.3709C9.68297 10.2636 9.53746 10.2033 9.38574 10.2033Z" fill="#34EAD9"/>
<path d="M16.7138 10.2031C16.5623 10.2037 16.4171 10.2642 16.31 10.3713C16.2028 10.4785 16.1424 10.6236 16.1418 10.7752V14.3228H16.7138C16.7901 14.3246 16.8659 14.3111 16.9369 14.2832C17.0078 14.2552 17.0724 14.2134 17.127 14.1601C17.1815 14.1068 17.2249 14.0431 17.2544 13.9728C17.284 13.9025 17.2992 13.827 17.2992 13.7508V10.7685C17.2981 10.6929 17.282 10.6183 17.2519 10.5489C17.2218 10.4795 17.1784 10.4168 17.124 10.3642C17.0696 10.3117 17.0054 10.2704 16.935 10.2428C16.8646 10.2151 16.7894 10.2016 16.7138 10.2031Z" fill="#34EAD9"/>
</svg>
