<svg width="50" height="50" viewBox="0 0 50 50" fill="none" xmlns="http://www.w3.org/2000/svg">
<circle cx="25" cy="25" r="25" fill="#4D4D4D"/>
<path d="M33.7377 34.125H16.7618C16.3998 34.125 16.1182 33.8434 16.1182 33.4814V20.6087C16.1182 20.2466 16.3998 19.965 16.7618 19.965H18.9743V21.2925H17.4457V32.878H33.0538V21.2523H31.5252V19.9248H33.7377C34.0998 19.9248 34.3813 20.2064 34.3813 20.5684V33.4412C34.3813 33.8434 34.0595 34.125 33.7377 34.125Z" fill="#C5C5C4" stroke="#C5C5C4" stroke-width="0.5"/>
<path d="M25.8531 25.5164H24.6061V14.3734L21.1868 17.833L20.3018 16.948L25.2497 12L30.1977 16.948L29.3127 17.833L25.8531 14.3734V25.5164Z" fill="#C5C5C4" stroke="#C5C5C4" stroke-width="0.5"/>
</svg>
