<svg width="20" height="20" viewBox="0 0 20 20" fill="none" xmlns="http://www.w3.org/2000/svg">
<line x1="4.5" y1="11.5" x2="15.5" y2="11.5" stroke="#808080" stroke-linecap="round"/>
<line x1="4.5" y1="14.5" x2="15.5" y2="14.5" stroke="#808080" stroke-linecap="round"/>
<line x1="4.5" y1="17.5" x2="11.5" y2="17.5" stroke="#808080" stroke-linecap="round"/>
<path d="M15.8536 5.35355C16.0488 5.15829 16.0488 4.84171 15.8536 4.64645L12.6716 1.46447C12.4763 1.2692 12.1597 1.2692 11.9645 1.46447C11.7692 1.65973 11.7692 1.97631 11.9645 2.17157L14.7929 5L11.9645 7.82843C11.7692 8.02369 11.7692 8.34027 11.9645 8.53553C12.1597 8.7308 12.4763 8.7308 12.6716 8.53553L15.8536 5.35355ZM9 5.5H15.5V4.5H9V5.5Z" fill="#808080"/>
<circle cx="7" cy="5" r="2.5" stroke="#808080"/>
</svg>
