<svg width="38" height="38" viewBox="0 0 38 38" fill="none" xmlns="http://www.w3.org/2000/svg">
<path d="M31 21.5C31 15.1619 25.8381 10 19.5 10C13.1619 10 8 15.1619 8 21.5C8 27.8381 13.1619 33 19.5 33C25.9034 33 31 27.8381 31 21.5ZM18.4545 28.8835C18.4545 28.6222 18.4545 28.3608 18.4545 28.1648C18.4545 27.642 18.4545 27.5767 17.9318 27.5114C17.2784 27.3807 16.625 27.25 15.9716 26.9233C15.5142 26.6619 15.4489 26.5966 15.5795 26.0739C15.7102 25.6818 15.7756 25.2898 15.9062 24.9631C16.0369 24.5057 16.1676 24.5057 16.5597 24.7017C17.2131 25.0284 17.9318 25.2244 18.7159 25.3551C19.1733 25.4205 19.696 25.3551 20.1534 25.1591C21.0028 24.767 21.1335 23.7869 20.4148 23.1989C20.1534 23.0028 19.892 22.8722 19.6307 22.7415C18.9119 22.4148 18.1278 22.1534 17.4091 21.7614C16.2983 21.108 15.5795 20.1278 15.6449 18.7557C15.7102 17.1875 16.625 16.2074 18.0625 15.6847C18.6506 15.4886 18.6506 15.4886 18.6506 14.8352V14.1818C18.6506 13.7244 18.7159 13.6591 19.1733 13.5937C19.304 13.5937 19.4347 13.5937 19.6307 13.5937C20.6108 13.5937 20.6108 13.5937 20.6108 14.5739C20.6108 15.2926 20.6108 15.2926 21.3295 15.358C21.8523 15.4233 22.375 15.6193 22.8324 15.8153C23.0938 15.946 23.2244 16.142 23.0937 16.4034C22.9631 16.8608 22.8324 17.2528 22.7017 17.7102C22.571 18.1023 22.4403 18.1676 22.0483 17.9716C21.2642 17.5795 20.4801 17.4489 19.6307 17.5142C19.4347 17.5142 19.1733 17.5795 18.9773 17.6449C18.2585 17.9716 18.1278 18.7557 18.7159 19.2784C19.0426 19.5398 19.3693 19.7358 19.7614 19.8665C20.4148 20.1278 21.0682 20.3892 21.6562 20.7159C23.6165 21.8267 24.1392 24.2443 22.767 25.9432C22.2443 26.5312 21.5909 26.9886 20.8722 27.1847C20.5455 27.25 20.4148 27.446 20.4148 27.7727C20.4148 28.0994 20.4148 28.4261 20.4148 28.8182C20.4148 29.1449 20.2841 29.2756 19.9574 29.2756C19.5653 29.2756 19.2386 29.2756 18.8466 29.2756C18.5852 29.4062 18.4545 29.2102 18.4545 28.8835Z" fill="url(#paint0_linear_3112_12629)"/>
<rect x="10" y="4" width="27" height="12" rx="6" fill="#EFC42D"/>
<path d="M12.7495 12V11.5117H13.7969C14.0296 11.5117 14.2062 11.4645 14.3267 11.3701C14.4471 11.2741 14.5073 11.1366 14.5073 10.9575V10.9526C14.5073 10.8338 14.4797 10.7337 14.4243 10.6523C14.369 10.571 14.286 10.5099 14.1753 10.4692C14.0662 10.4285 13.9312 10.4082 13.77 10.4082H12.7495V9.96143H13.6724C13.8953 9.96143 14.0646 9.91911 14.1802 9.83447C14.2974 9.74984 14.356 9.62777 14.356 9.46826V9.46338C14.356 9.30713 14.3031 9.18506 14.1973 9.09717C14.0915 9.00928 13.9434 8.96533 13.7529 8.96533H12.7495V8.47705H13.9043C14.1289 8.47705 14.321 8.51286 14.4805 8.58447C14.64 8.65446 14.7629 8.75537 14.8491 8.88721C14.9354 9.01742 14.9785 9.17285 14.9785 9.35352V9.3584C14.9785 9.4821 14.95 9.59766 14.8931 9.70508C14.8377 9.8125 14.7629 9.90202 14.6685 9.97363C14.5757 10.0452 14.4699 10.0908 14.3511 10.1104V10.1543C14.509 10.1689 14.6473 10.2145 14.7661 10.291C14.8866 10.3659 14.9801 10.4644 15.0469 10.5864C15.1152 10.7085 15.1494 10.8452 15.1494 10.9966V11.0015C15.1494 11.2065 15.1006 11.384 15.0029 11.5337C14.9069 11.6834 14.7686 11.799 14.5879 11.8804C14.4072 11.9601 14.1916 12 13.9409 12H12.7495ZM12.4346 12V8.47705H13.0645V12H12.4346ZM16.917 12.0537C16.6517 12.0537 16.4238 11.9976 16.2334 11.8853C16.0446 11.7729 15.8989 11.6134 15.7964 11.4067C15.6938 11.2 15.6426 10.9551 15.6426 10.6719V10.6694C15.6426 10.3895 15.693 10.1453 15.7939 9.93701C15.8965 9.72868 16.0413 9.56755 16.2285 9.45361C16.4157 9.33805 16.6354 9.28027 16.8877 9.28027C17.1416 9.28027 17.3597 9.33643 17.542 9.44873C17.7259 9.55941 17.8675 9.71484 17.9668 9.91504C18.0661 10.1152 18.1157 10.3496 18.1157 10.6182V10.8184H15.9478V10.4106H17.8179L17.5298 10.7915V10.5498C17.5298 10.3724 17.5029 10.2251 17.4492 10.1079C17.3955 9.99072 17.3206 9.90283 17.2246 9.84424C17.1302 9.78564 17.0203 9.75635 16.895 9.75635C16.7697 9.75635 16.6582 9.78727 16.5605 9.84912C16.4645 9.90934 16.388 9.99886 16.3311 10.1177C16.2757 10.2349 16.248 10.3789 16.248 10.5498V10.7939C16.248 10.9583 16.2757 11.0991 16.3311 11.2163C16.3864 11.3319 16.4645 11.4214 16.5654 11.4849C16.668 11.5467 16.7892 11.5776 16.9292 11.5776C17.0382 11.5776 17.1318 11.5622 17.21 11.5312C17.2897 11.4987 17.354 11.4604 17.4028 11.4165C17.4517 11.3709 17.4858 11.3278 17.5054 11.2871L17.5127 11.27H18.0889L18.084 11.292C18.0628 11.3783 18.0238 11.4661 17.9668 11.5557C17.9115 11.6436 17.8358 11.7257 17.7397 11.8022C17.6453 11.8771 17.5298 11.9382 17.3931 11.9854C17.2563 12.0309 17.0977 12.0537 16.917 12.0537ZM19.8711 12.9375C19.6367 12.9375 19.4341 12.9066 19.2632 12.8447C19.0939 12.7829 18.9604 12.695 18.8628 12.5811C18.7651 12.4688 18.7057 12.3377 18.6846 12.188L18.687 12.1807H19.2925L19.2974 12.188C19.3169 12.2726 19.3763 12.3418 19.4756 12.3955C19.5765 12.4508 19.7116 12.4785 19.8809 12.4785C20.0892 12.4785 20.2503 12.4321 20.3643 12.3394C20.4798 12.2466 20.5376 12.1147 20.5376 11.9438V11.4312H20.4961C20.4456 11.5272 20.3797 11.6086 20.2983 11.6753C20.2186 11.742 20.1266 11.7925 20.0225 11.8267C19.9199 11.8592 19.8068 11.8755 19.6831 11.8755C19.4585 11.8755 19.264 11.8218 19.0996 11.7144C18.9352 11.6053 18.8083 11.4548 18.7188 11.2627C18.6309 11.0706 18.5869 10.8485 18.5869 10.5962V10.5913C18.5869 10.3341 18.6317 10.1079 18.7212 9.9126C18.8107 9.71729 18.9377 9.56429 19.1021 9.45361C19.2681 9.34294 19.4658 9.2876 19.6953 9.2876C19.819 9.2876 19.9321 9.30713 20.0347 9.34619C20.1388 9.38525 20.23 9.44059 20.3081 9.51221C20.3879 9.58382 20.453 9.67008 20.5034 9.771H20.5352V9.33154H21.1431V11.9341C21.1431 12.1392 21.091 12.3166 20.9868 12.4663C20.8843 12.6177 20.7378 12.734 20.5474 12.8154C20.3569 12.8968 20.1315 12.9375 19.8711 12.9375ZM19.8711 11.3921C20.0111 11.3921 20.1315 11.3587 20.2324 11.292C20.3333 11.2236 20.4106 11.13 20.4644 11.0112C20.5197 10.8924 20.5474 10.7541 20.5474 10.5962V10.5913C20.5474 10.4334 20.5197 10.2951 20.4644 10.1763C20.4106 10.0558 20.3333 9.96224 20.2324 9.89551C20.1315 9.82715 20.0111 9.79297 19.8711 9.79297C19.7295 9.79297 19.609 9.82715 19.5098 9.89551C19.4121 9.96224 19.3372 10.0558 19.2852 10.1763C19.2347 10.2951 19.2095 10.4334 19.2095 10.5913V10.5962C19.2095 10.7524 19.2347 10.8908 19.2852 11.0112C19.3372 11.13 19.4121 11.2236 19.5098 11.292C19.609 11.3587 19.7295 11.3921 19.8711 11.3921ZM21.895 12V9.33154H22.5005V12H21.895ZM22.2002 8.88477C22.1009 8.88477 22.0155 8.84977 21.9438 8.77979C21.8722 8.7098 21.8364 8.62598 21.8364 8.52832C21.8364 8.42741 21.8722 8.34277 21.9438 8.27441C22.0155 8.20443 22.1009 8.16943 22.2002 8.16943C22.2995 8.16943 22.3841 8.20443 22.4541 8.27441C22.5257 8.34277 22.5615 8.42741 22.5615 8.52832C22.5615 8.62598 22.5257 8.7098 22.4541 8.77979C22.3841 8.84977 22.2995 8.88477 22.2002 8.88477ZM23.25 12V9.33154H23.8579V9.7417H23.8994C23.9629 9.59684 24.0589 9.48372 24.1875 9.40234C24.3161 9.32096 24.4764 9.28027 24.6685 9.28027C24.9663 9.28027 25.1942 9.36654 25.3521 9.53906C25.5099 9.71159 25.5889 9.95654 25.5889 10.2739V12H24.981V10.4155C24.981 10.2072 24.937 10.0509 24.8491 9.94678C24.7629 9.84261 24.6278 9.79053 24.4438 9.79053C24.3234 9.79053 24.2192 9.81738 24.1313 9.87109C24.0435 9.9248 23.9759 10.0005 23.9287 10.0981C23.8815 10.1958 23.8579 10.3114 23.8579 10.4448V12H23.25ZM26.3066 12V9.33154H26.9146V9.7417H26.9561C27.0195 9.59684 27.1156 9.48372 27.2441 9.40234C27.3727 9.32096 27.533 9.28027 27.7251 9.28027C28.0229 9.28027 28.2508 9.36654 28.4087 9.53906C28.5666 9.71159 28.6455 9.95654 28.6455 10.2739V12H28.0376V10.4155C28.0376 10.2072 27.9937 10.0509 27.9058 9.94678C27.8195 9.84261 27.6844 9.79053 27.5005 9.79053C27.38 9.79053 27.2759 9.81738 27.188 9.87109C27.1001 9.9248 27.0326 10.0005 26.9854 10.0981C26.9382 10.1958 26.9146 10.3114 26.9146 10.4448V12H26.3066ZM30.5059 12.0537C30.2406 12.0537 30.0127 11.9976 29.8223 11.8853C29.6335 11.7729 29.4878 11.6134 29.3853 11.4067C29.2827 11.2 29.2314 10.9551 29.2314 10.6719V10.6694C29.2314 10.3895 29.2819 10.1453 29.3828 9.93701C29.4854 9.72868 29.6302 9.56755 29.8174 9.45361C30.0046 9.33805 30.2243 9.28027 30.4766 9.28027C30.7305 9.28027 30.9486 9.33643 31.1309 9.44873C31.3148 9.55941 31.4564 9.71484 31.5557 9.91504C31.6549 10.1152 31.7046 10.3496 31.7046 10.6182V10.8184H29.5366V10.4106H31.4067L31.1187 10.7915V10.5498C31.1187 10.3724 31.0918 10.2251 31.0381 10.1079C30.9844 9.99072 30.9095 9.90283 30.8135 9.84424C30.7191 9.78564 30.6092 9.75635 30.4839 9.75635C30.3586 9.75635 30.2471 9.78727 30.1494 9.84912C30.0534 9.90934 29.9769 9.99886 29.9199 10.1177C29.8646 10.2349 29.8369 10.3789 29.8369 10.5498V10.7939C29.8369 10.9583 29.8646 11.0991 29.9199 11.2163C29.9753 11.3319 30.0534 11.4214 30.1543 11.4849C30.2568 11.5467 30.3781 11.5776 30.5181 11.5776C30.6271 11.5776 30.7207 11.5622 30.7988 11.5312C30.8786 11.4987 30.9429 11.4604 30.9917 11.4165C31.0405 11.3709 31.0747 11.3278 31.0942 11.2871L31.1016 11.27H31.6777L31.6729 11.292C31.6517 11.3783 31.6126 11.4661 31.5557 11.5557C31.5003 11.6436 31.4246 11.7257 31.3286 11.8022C31.2342 11.8771 31.1187 11.9382 30.9819 11.9854C30.8452 12.0309 30.6865 12.0537 30.5059 12.0537ZM32.3125 12V9.33154H32.9204V9.7417H32.9619C33.0075 9.59847 33.0889 9.48698 33.2061 9.40723C33.3249 9.32747 33.4722 9.2876 33.6479 9.2876C33.6935 9.2876 33.7383 9.29085 33.7822 9.29736C33.8278 9.30225 33.8652 9.30876 33.8945 9.31689V9.86133C33.8457 9.84993 33.7961 9.8418 33.7456 9.83691C33.6968 9.8304 33.6455 9.82715 33.5918 9.82715C33.4567 9.82715 33.3387 9.85238 33.2378 9.90283C33.1369 9.95329 33.0588 10.0257 33.0034 10.1201C32.9481 10.2129 32.9204 10.3228 32.9204 10.4497V12H32.3125Z" fill="#AF741F"/>
<defs>
<linearGradient id="paint0_linear_3112_12629" x1="8" y1="21.5025" x2="30.9952" y2="21.5025" gradientUnits="userSpaceOnUse">
<stop stop-color="#70C6FC"/>
<stop offset="0.0627815" stop-color="#6CC2FB"/>
<stop offset="0.6801" stop-color="#439CF2"/>
<stop offset="1" stop-color="#348DEF"/>
</linearGradient>
</defs>
</svg>
