<svg width="24" height="24" viewBox="0 0 24 24" fill="none" xmlns="http://www.w3.org/2000/svg">
<path d="M18.24 6.67429C18.0931 6.45504 17.8916 6.27779 17.6555 6.15997C17.4193 6.04215 17.1565 5.98781 16.893 6.00229H4.34702C3.90066 6.00229 3.47258 6.17961 3.15696 6.49523C2.84133 6.81086 2.66402 7.23893 2.66402 7.68529V16.0853C2.6656 16.5306 2.84362 16.9571 3.15907 17.2715C3.47452 17.5858 3.90169 17.7623 4.34702 17.7623H16.893C17.1565 17.7768 17.4193 17.7224 17.6555 17.6046C17.8916 17.4868 18.0931 17.3095 18.24 17.0903L21.936 11.8853L18.24 6.67429Z" fill="#F68703"/>
<path d="M10.2885 12.9683C10.2885 13.8093 10.0536 14.4357 9.58382 14.8475C9.11402 15.2535 8.46442 15.4565 7.63502 15.4565C6.79402 15.4565 6.14152 15.2535 5.67752 14.8475C5.21932 14.4415 4.99022 13.8151 4.99022 12.9683V9.10552H6.35612V12.9683C6.35612 13.1365 6.37062 13.3018 6.39962 13.4642C6.42862 13.6266 6.48952 13.7716 6.58232 13.8992C6.67512 14.021 6.80272 14.1225 6.96512 14.2037C7.13332 14.2791 7.35662 14.3168 7.63502 14.3168C8.12222 14.3168 8.45862 14.2095 8.64422 13.9949C8.82982 13.7745 8.92262 13.4323 8.92262 12.9683V9.10552H10.2885V12.9683ZM12.3958 13.2554C12.3958 13.4642 12.4335 13.6411 12.5089 13.7861C12.5843 13.9311 12.6829 14.05 12.8047 14.1428C12.9323 14.2298 13.0802 14.2965 13.2484 14.3429C13.4166 14.3835 13.5906 14.4038 13.7704 14.4038C13.8922 14.4038 14.0227 14.3951 14.1619 14.3777C14.3011 14.3545 14.4316 14.3139 14.5534 14.2559C14.6752 14.1979 14.7767 14.1196 14.8579 14.021C14.9391 13.9166 14.9797 13.7861 14.9797 13.6295C14.9797 13.4613 14.9246 13.325 14.8144 13.2206C14.71 13.1162 14.5708 13.0292 14.3968 12.9596C14.2228 12.89 14.0256 12.8291 13.8052 12.7769C13.5848 12.7247 13.3615 12.6667 13.1353 12.6029C12.9033 12.5449 12.6771 12.4753 12.4567 12.3941C12.2363 12.3071 12.0391 12.1969 11.8651 12.0635C11.6911 11.9301 11.549 11.7648 11.4388 11.5676C11.3344 11.3646 11.2822 11.121 11.2822 10.8368C11.2822 10.5178 11.3489 10.2423 11.4823 10.0103C11.6215 9.77252 11.8013 9.57532 12.0217 9.41872C12.2421 9.26212 12.4915 9.14612 12.7699 9.07072C13.0483 8.99532 13.3267 8.95762 13.6051 8.95762C13.9299 8.95762 14.2402 8.99532 14.536 9.07072C14.8376 9.14032 15.1044 9.25632 15.3364 9.41872C15.5684 9.58112 15.7511 9.78992 15.8845 10.0451C16.0237 10.2945 16.0933 10.599 16.0933 10.9586H14.7709C14.7593 10.773 14.7187 10.6193 14.6491 10.4975C14.5853 10.3757 14.4983 10.28 14.3881 10.2104C14.2779 10.1408 14.1503 10.0915 14.0053 10.0625C13.8661 10.0335 13.7124 10.019 13.5442 10.019C13.434 10.019 13.3238 10.0306 13.2136 10.0538C13.1034 10.077 13.0019 10.1176 12.9091 10.1756C12.8221 10.2336 12.7496 10.3061 12.6916 10.3931C12.6336 10.4801 12.6046 10.5903 12.6046 10.7237C12.6046 10.8455 12.6278 10.9441 12.6742 11.0195C12.7206 11.0949 12.8105 11.1645 12.9439 11.2283C13.0831 11.2921 13.2716 11.3559 13.5094 11.4197C13.753 11.4835 14.0691 11.5647 14.4577 11.6633C14.5737 11.6865 14.7332 11.73 14.9362 11.7938C15.145 11.8518 15.3509 11.9475 15.5539 12.0809C15.7569 12.2143 15.9309 12.3941 16.0759 12.6203C16.2267 12.8407 16.3021 13.1249 16.3021 13.4729C16.3021 13.7571 16.247 14.021 16.1368 14.2646C16.0266 14.5082 15.8613 14.7199 15.6409 14.8997C15.4263 15.0737 15.1566 15.21 14.8318 15.3086C14.5128 15.4072 14.1416 15.4565 13.7182 15.4565C13.376 15.4565 13.0425 15.413 12.7177 15.326C12.3987 15.2448 12.1145 15.1143 11.8651 14.9345C11.6215 14.7547 11.4272 14.5256 11.2822 14.2472C11.1372 13.9688 11.0676 13.6382 11.0734 13.2554H12.3958Z" fill="white"/>
</svg>
