<svg width="160" height="161" viewBox="0 0 160 161" fill="none" xmlns="http://www.w3.org/2000/svg">
<path d="M74.4255 144.16C81.0285 144.16 86.3813 138.492 86.3813 131.501H62.4697C62.4697 138.492 67.8225 144.16 74.4255 144.16Z" fill="#FFFBF3"/>
<circle cx="102.843" cy="43.4349" r="13.6324" stroke="#E3D5B7" stroke-width="2" stroke-dasharray="4 4"/>
<path fill-rule="evenodd" clip-rule="evenodd" d="M109.046 62.4718C107.093 63.1076 105.008 63.4512 102.844 63.4512C91.7887 63.4512 82.8271 54.4896 82.8271 43.4348C82.8271 40.053 83.6657 36.8671 85.1464 34.0737C81.7187 32.9689 78.0589 32.3716 74.2581 32.3716C54.8776 32.3716 39.1667 47.9005 39.1667 67.0565V80.4986C39.1667 85.3934 37.4174 90.1309 34.2275 93.875C22.7209 107.381 32.4345 128.018 50.2982 128.018H98.218C116.082 128.018 125.795 107.381 114.289 93.875C111.099 90.1309 109.349 85.3934 109.349 80.4986V67.0565C109.349 65.5023 109.246 63.9719 109.046 62.4718Z" fill="#FFFBF3"/>
<line y1="-1.5" x2="8.48528" y2="-1.5" transform="matrix(-0.96827 -0.249907 -0.249907 0.96827 130.752 45.2656)" stroke="#E3D5B7" stroke-width="3"/>
<line x1="115.442" y1="17.2149" x2="113.321" y2="25.431" stroke="#E3D5B7" stroke-width="3"/>
<line y1="-1.5" x2="8.48528" y2="-1.5" transform="matrix(0.861381 -0.507959 -0.507959 -0.861381 118.606 31.5312)" stroke="#E3D5B7" stroke-width="3"/>
</svg>
