<svg width="32" height="33" viewBox="0 0 32 33" fill="none" xmlns="http://www.w3.org/2000/svg">
<path d="M10.675 26.9654L8.34336 29.2074L2.90283 23.9761L7.56614 19.4922C7.56614 19.4922 9.46092 19.4922 10.675 19.4922L13.0611 19.4922C13.8866 19.4922 14.5558 20.1614 14.5558 20.9868V20.9868C14.5558 21.8123 13.8866 22.4815 13.0611 22.4815H9.72293C9.89584 22.4815 12.4505 22.4815 12.6172 22.4815H16.549H18.2388C19.477 22.4815 20.4807 23.4853 20.4807 24.7235V24.7235C20.4807 25.9617 19.477 26.9654 18.2388 26.9654H10.675Z" stroke="#3FB5BD" stroke-width="1.5" stroke-linecap="round" stroke-linejoin="round"/>
<path d="M10.1877 19.4407C9.85426 18.5801 9.67139 17.6444 9.67139 16.666C9.67139 12.4226 13.1114 8.9826 17.3548 8.9826C21.5982 8.9826 25.0382 12.4226 25.0382 16.666C25.0382 19.794 23.1691 22.4853 20.4868 23.6842" stroke="#3FB5BD" stroke-width="1.5" stroke-linecap="round" stroke-linejoin="round"/>
<path d="M13.6801 5.96936L15.4215 8.43793H19.1817L21.027 5.96936H13.6801Z" stroke="#3FB5BD" stroke-width="1.5" stroke-linecap="round" stroke-linejoin="round"/>
<path fill-rule="evenodd" clip-rule="evenodd" d="M16.3201 13.8115C16.035 14.0252 15.9062 14.2813 15.9062 14.5204C15.9062 14.76 16.035 15.0161 16.3201 15.2303C16.6058 15.4446 17.0239 15.5926 17.5077 15.5926C17.645 15.5926 17.7766 15.6471 17.8736 15.7441C17.9707 15.8412 18.0252 15.9728 18.0252 16.11C18.0252 16.2473 17.9707 16.3789 17.8736 16.4759C17.7766 16.573 17.645 16.6275 17.5077 16.6275C16.8216 16.6275 16.1804 16.4195 15.6992 16.0583C15.2179 15.6971 14.8712 15.1589 14.8712 14.5209C14.8712 13.8823 15.2179 13.3442 15.6992 12.983C16.1804 12.6223 16.8221 12.4143 17.5077 12.4143C18.5701 12.4143 19.5745 12.923 19.974 13.7701C20.003 13.8316 20.0195 13.8982 20.0228 13.9661C20.026 14.034 20.0159 14.1019 19.9929 14.1658C19.9699 14.2298 19.9345 14.2886 19.8888 14.339C19.8431 14.3893 19.7879 14.4301 19.7264 14.4591C19.6649 14.488 19.5983 14.5046 19.5304 14.5079C19.4624 14.5111 19.3946 14.501 19.3306 14.478C19.2666 14.455 19.2078 14.4196 19.1575 14.3739C19.1072 14.3281 19.0663 14.273 19.0374 14.2115C18.8562 13.8249 18.2912 13.4492 17.5082 13.4492C17.0244 13.4492 16.6058 13.5972 16.3201 13.8115Z" fill="#3FB5BD"/>
<path fill-rule="evenodd" clip-rule="evenodd" d="M18.3859 18.2969C18.671 18.0912 18.7993 17.8447 18.7993 17.6146C18.7993 17.384 18.671 17.137 18.3854 16.9314C18.1002 16.7252 17.6816 16.5827 17.1983 16.5827C17.061 16.5827 16.9294 16.5303 16.8324 16.4369C16.7353 16.3435 16.6808 16.2168 16.6808 16.0847C16.6808 15.9527 16.7353 15.826 16.8324 15.7326C16.9294 15.6392 17.061 15.5867 17.1983 15.5867C17.8845 15.5867 18.5256 15.7869 19.0068 16.1345C19.4881 16.4822 19.8343 17.0001 19.8343 17.6141C19.8343 18.2282 19.4881 18.7466 19.0063 19.0937C18.5251 19.4413 17.8845 19.6415 17.1983 19.6415C16.1359 19.6415 15.131 19.152 14.732 18.3362C14.6735 18.2168 14.6667 18.0798 14.7131 17.9555C14.7595 17.8312 14.8553 17.7297 14.9794 17.6734C15.1035 17.6171 15.2458 17.6105 15.375 17.6551C15.5042 17.6998 15.6096 17.792 15.6681 17.9114C15.8503 18.2839 16.4154 18.6455 17.1983 18.6455C17.6821 18.6455 18.1002 18.5031 18.3859 18.2969ZM17.2697 11.5325C17.4069 11.5325 17.5386 11.5849 17.6356 11.6783C17.7326 11.7717 17.7872 11.8984 17.7872 12.0305V12.5285C17.7872 12.6606 17.7326 12.7872 17.6356 12.8806C17.5386 12.974 17.4069 13.0265 17.2697 13.0265C17.1325 13.0265 17.0008 12.974 16.9038 12.8806C16.8068 12.7872 16.7522 12.6606 16.7522 12.5285V12.0305C16.7522 11.8984 16.8068 11.7717 16.9038 11.6783C17.0008 11.5849 17.1325 11.5325 17.2697 11.5325Z" fill="#3FB5BD"/>
<path fill-rule="evenodd" clip-rule="evenodd" d="M17.4094 19.1411C17.5466 19.1411 17.6783 19.1957 17.7753 19.2927C17.8723 19.3897 17.9269 19.5214 17.9269 19.6586V20.1761C17.9269 20.3133 17.8723 20.4449 17.7753 20.542C17.6783 20.639 17.5466 20.6935 17.4094 20.6935C17.2722 20.6935 17.1405 20.639 17.0435 20.542C16.9464 20.4449 16.8919 20.3133 16.8919 20.1761V19.6586C16.8919 19.5214 16.9464 19.3897 17.0435 19.2927C17.1405 19.1957 17.2722 19.1411 17.4094 19.1411Z" fill="#3FB5BD"/>
<path fill-rule="evenodd" clip-rule="evenodd" d="M16.3201 13.8115C16.035 14.0252 15.9062 14.2813 15.9062 14.5204C15.9062 14.76 16.035 15.0161 16.3201 15.2303C16.6058 15.4446 17.0239 15.5926 17.5077 15.5926C17.645 15.5926 17.7766 15.6471 17.8736 15.7441C17.9707 15.8412 18.0252 15.9728 18.0252 16.11C18.0252 16.2473 17.9707 16.3789 17.8736 16.4759C17.7766 16.573 17.645 16.6275 17.5077 16.6275C16.8216 16.6275 16.1804 16.4195 15.6992 16.0583C15.2179 15.6971 14.8712 15.1589 14.8712 14.5209C14.8712 13.8823 15.2179 13.3442 15.6992 12.983C16.1804 12.6223 16.8221 12.4143 17.5077 12.4143C18.5701 12.4143 19.5745 12.923 19.974 13.7701C20.003 13.8316 20.0195 13.8982 20.0228 13.9661C20.026 14.034 20.0159 14.1019 19.9929 14.1658C19.9699 14.2298 19.9345 14.2886 19.8888 14.339C19.8431 14.3893 19.7879 14.4301 19.7264 14.4591C19.6649 14.488 19.5983 14.5046 19.5304 14.5079C19.4624 14.5111 19.3946 14.501 19.3306 14.478C19.2666 14.455 19.2078 14.4196 19.1575 14.3739C19.1072 14.3281 19.0663 14.273 19.0374 14.2115C18.8562 13.8249 18.2912 13.4492 17.5082 13.4492C17.0244 13.4492 16.6058 13.5972 16.3201 13.8115Z" stroke="#3FB5BD" stroke-width="0.5"/>
<path fill-rule="evenodd" clip-rule="evenodd" d="M18.3859 18.2969C18.671 18.0912 18.7993 17.8447 18.7993 17.6146C18.7993 17.384 18.671 17.137 18.3854 16.9314C18.1002 16.7252 17.6816 16.5827 17.1983 16.5827C17.061 16.5827 16.9294 16.5303 16.8324 16.4369C16.7353 16.3435 16.6808 16.2168 16.6808 16.0847C16.6808 15.9527 16.7353 15.826 16.8324 15.7326C16.9294 15.6392 17.061 15.5867 17.1983 15.5867C17.8845 15.5867 18.5256 15.7869 19.0068 16.1345C19.4881 16.4822 19.8343 17.0001 19.8343 17.6141C19.8343 18.2282 19.4881 18.7466 19.0063 19.0937C18.5251 19.4413 17.8845 19.6415 17.1983 19.6415C16.1359 19.6415 15.131 19.152 14.732 18.3362C14.6735 18.2168 14.6667 18.0798 14.7131 17.9555C14.7595 17.8312 14.8553 17.7297 14.9794 17.6734C15.1035 17.6171 15.2458 17.6105 15.375 17.6551C15.5042 17.6998 15.6096 17.792 15.6681 17.9114C15.8503 18.2839 16.4154 18.6455 17.1983 18.6455C17.6821 18.6455 18.1002 18.5031 18.3859 18.2969ZM17.2697 11.5325C17.4069 11.5325 17.5386 11.5849 17.6356 11.6783C17.7326 11.7717 17.7872 11.8984 17.7872 12.0305V12.5285C17.7872 12.6606 17.7326 12.7872 17.6356 12.8806C17.5386 12.974 17.4069 13.0265 17.2697 13.0265C17.1325 13.0265 17.0008 12.974 16.9038 12.8806C16.8068 12.7872 16.7522 12.6606 16.7522 12.5285V12.0305C16.7522 11.8984 16.8068 11.7717 16.9038 11.6783C17.0008 11.5849 17.1325 11.5325 17.2697 11.5325Z" stroke="#3FB5BD" stroke-width="0.5"/>
<path fill-rule="evenodd" clip-rule="evenodd" d="M17.4094 19.1411C17.5466 19.1411 17.6783 19.1957 17.7753 19.2927C17.8723 19.3897 17.9269 19.5214 17.9269 19.6586V20.1761C17.9269 20.3133 17.8723 20.4449 17.7753 20.542C17.6783 20.639 17.5466 20.6935 17.4094 20.6935C17.2722 20.6935 17.1405 20.639 17.0435 20.542C16.9464 20.4449 16.8919 20.3133 16.8919 20.1761V19.6586C16.8919 19.5214 16.9464 19.3897 17.0435 19.2927C17.1405 19.1957 17.2722 19.1411 17.4094 19.1411Z" stroke="#3FB5BD" stroke-width="0.5"/>
</svg>
