<svg width="32" height="32" viewBox="0 0 32 32" fill="none" xmlns="http://www.w3.org/2000/svg">
<path d="M6.01172 10.0998C6.01172 7.39976 8.20055 5.21094 10.9006 5.21094H23.1228C25.8229 5.21094 28.0117 7.39977 28.0117 10.0998V22.8942C28.0117 27.0186 23.2191 29.2897 20.027 26.678L18.5596 25.4774C17.6592 24.7407 16.3643 24.7407 15.4638 25.4774L13.9964 26.678C10.8043 29.2897 6.01172 27.0186 6.01172 22.8942V10.0998Z" stroke="#6200EE" stroke-width="1.5" stroke-linecap="round"/>
<path d="M16.115 11.1412C16.4818 10.398 17.5416 10.398 17.9085 11.1412L18.741 12.8281C18.8867 13.1233 19.1682 13.3279 19.4939 13.3752L21.3556 13.6457C22.1758 13.7649 22.5033 14.7729 21.9098 15.3514L20.5627 16.6645C20.327 16.8942 20.2195 17.2252 20.2751 17.5496L20.5931 19.4038C20.7332 20.2207 19.8758 20.8436 19.1422 20.4579L17.4771 19.5825C17.1857 19.4294 16.8377 19.4294 16.5464 19.5825L14.8813 20.4579C14.1476 20.8436 13.2902 20.2207 13.4303 19.4038L13.7483 17.5496C13.804 17.2252 13.6964 16.8942 13.4607 16.6645L12.1136 15.3514C11.5201 14.7729 11.8476 13.7649 12.6678 13.6457L14.5295 13.3752C14.8552 13.3279 15.1368 13.1233 15.2824 12.8281L16.115 11.1412Z" stroke="#6200EE" stroke-width="1.5"/>
</svg>
