<svg width="33" height="32" viewBox="0 0 33 32" fill="none" xmlns="http://www.w3.org/2000/svg">
<path d="M6.63672 10.0998C6.63672 7.39976 8.82555 5.21094 11.5256 5.21094H23.7478C26.4479 5.21094 28.6367 7.39977 28.6367 10.0998V22.8942C28.6367 27.0186 23.8441 29.2897 20.652 26.678L19.1846 25.4774C18.2842 24.7407 16.9893 24.7407 16.0888 25.4774L14.6214 26.678C11.4293 29.2897 6.63672 27.0186 6.63672 22.8942V10.0998Z" stroke="#8B3BFF" stroke-width="1.5" stroke-linecap="round"/>
<path d="M16.74 11.1412C17.1068 10.398 18.1666 10.398 18.5335 11.1412L19.366 12.8281C19.5117 13.1233 19.7932 13.3279 20.1189 13.3752L21.9806 13.6457C22.8008 13.7649 23.1283 14.7729 22.5348 15.3514L21.1877 16.6645C20.952 16.8942 20.8445 17.2252 20.9001 17.5496L21.2181 19.4038C21.3582 20.2207 20.5008 20.8436 19.7672 20.4579L18.1021 19.5825C17.8107 19.4294 17.4627 19.4294 17.1714 19.5825L15.5063 20.4579C14.7726 20.8436 13.9152 20.2207 14.0553 19.4038L14.3733 17.5496C14.429 17.2252 14.3214 16.8942 14.0857 16.6645L12.7386 15.3514C12.1451 14.7729 12.4726 13.7649 13.2928 13.6457L15.1545 13.3752C15.4802 13.3279 15.7618 13.1233 15.9074 12.8281L16.74 11.1412Z" stroke="#8B3BFF" stroke-width="1.5"/>
</svg>
