<svg width="32" height="33" viewBox="0 0 32 33" fill="none" xmlns="http://www.w3.org/2000/svg">
<path d="M16.0745 24.3904L21.9285 24.3904C23.0331 24.3904 23.9285 23.495 23.9285 22.3904L23.9285 16.3012M8.18555 15.9746L8.18555 11.4696C8.18555 9.87699 9.46707 8.58594 11.0479 8.58594L14.0455 8.58594L16.0745 8.58594" stroke="#6200EE" stroke-width="1.5" stroke-linecap="round" stroke-linejoin="round"/>
<path d="M13.179 18.2731L12.6583 17.7333L13.179 18.2731ZM7.56964 26.0731L7.57031 25.3231L7.56964 26.0731ZM15.2213 25.0791L15.9713 25.0791L15.2213 25.0791ZM14.2211 25.3291L7.57031 25.3231L7.56896 26.8231L14.2197 26.8291L14.2211 25.3291ZM14.4713 18.657L14.4713 25.0791L15.9713 25.0791L15.9713 18.657L14.4713 18.657ZM13.6997 18.8129L14.0478 18.4771L13.0063 17.3976L12.6583 17.7333L13.6997 18.8129ZM8.89336 16.8152L11.3569 18.8915L12.3236 17.7446L9.86005 15.6682L8.89336 16.8152ZM5.65529 20.2692L8.54109 16.8452L7.39413 15.8785L4.50833 19.3025L5.65529 20.2692ZM7.47849 22.1328L5.68533 20.6215L4.71865 21.7684L6.51181 23.2797L7.47849 22.1328ZM7.39697 24.8932L7.5657 24.7304L6.52427 23.6508L6.35553 23.8136L7.39697 24.8932ZM6.51181 23.2797C6.62516 23.3753 6.63096 23.5479 6.52427 23.6508L7.5657 24.7304C8.31253 24.0099 8.27196 22.8015 7.47849 22.1328L6.51181 23.2797ZM4.50833 19.3025C3.88546 20.0415 3.97962 21.1456 4.71865 21.7684L5.68533 20.6215C5.57976 20.5325 5.56631 20.3748 5.65529 20.2692L4.50833 19.3025ZM9.86005 15.6682C9.12103 15.0454 8.017 15.1395 7.39413 15.8785L8.54109 16.8452C8.63007 16.7397 8.78779 16.7262 8.89336 16.8152L9.86005 15.6682ZM12.6583 17.7333C12.5661 17.8223 12.4216 17.8271 12.3236 17.7446L11.3569 18.8915C12.0426 19.4695 13.0543 19.4355 13.6997 18.8129L12.6583 17.7333ZM15.9713 18.657C15.9714 17.1131 14.1175 16.3256 13.0063 17.3976L14.0478 18.4771C14.2065 18.324 14.4713 18.4365 14.4713 18.657L15.9713 18.657ZM7.57031 25.3231C7.34552 25.3229 7.23519 25.0492 7.39697 24.8932L6.35553 23.8136C5.22307 24.9061 5.99544 26.8217 7.56896 26.8231L7.57031 25.3231ZM14.2197 26.8291C15.1868 26.83 15.9713 26.0462 15.9713 25.0791L14.4713 25.0791C14.4713 25.2172 14.3592 25.3292 14.2211 25.3291L14.2197 26.8291Z" fill="#6200EE"/>
<path d="M26.6552 14.8976V16.3291C26.6552 17.2114 25.5959 17.6613 24.9609 17.0488L24.1437 16.2604C23.7749 15.9046 23.1968 15.8852 22.805 16.2155L19.6582 18.8677C19.2359 19.2236 18.605 19.1698 18.2491 18.7475L14.6358 14.4604C14.2798 14.0381 14.3337 13.4072 14.756 13.0513L17.1431 11.0393C17.5965 10.6572 17.6197 9.96669 17.1929 9.55499L16.5457 8.93063C15.8986 8.30636 16.3399 7.21176 17.2391 7.21094H17.9306" stroke="#6200EE" stroke-width="1.5" stroke-linecap="round"/>
<path d="M27.0971 9.52047V7.39875C27.0971 7.19819 27.0402 7.027 26.9227 6.90558C26.8049 6.78371 26.6382 6.7246 26.4443 6.7246C26.2523 6.7246 26.0859 6.78387 25.9677 6.90537C25.8499 7.02655 25.7916 7.19764 25.7916 7.39875V12.579C25.7916 12.7801 25.8499 12.9512 25.9677 13.0723C26.0859 13.1938 26.2523 13.2531 26.4443 13.2531C26.6382 13.2531 26.8049 13.194 26.9227 13.0721C27.0402 12.9507 27.0971 12.7795 27.0971 12.579V11.1319L27.6344 10.5623L29.5669 12.9242C29.567 12.9244 29.5672 12.9245 29.5673 12.9247C29.6575 13.0373 29.7474 13.122 29.8493 13.1777C29.9529 13.2343 30.0621 13.2574 30.1849 13.2574C30.54 13.2574 30.8162 12.9813 30.8162 12.6261C30.8162 12.4485 30.7372 12.2725 30.5795 12.0788L30.579 12.0782L28.5919 9.67454L30.3899 7.79785L30.3899 7.79786L30.3907 7.79707C30.5321 7.64618 30.5977 7.50713 30.5977 7.32591C30.5977 6.98734 30.3338 6.72031 29.9835 6.72031C29.8798 6.72031 29.7859 6.74032 29.6959 6.78563C29.6072 6.8303 29.5272 6.89712 29.4473 6.98381C29.4473 6.98385 29.4472 6.9839 29.4472 6.98394L27.0971 9.52047Z" fill="#6200EE" stroke="#6200EE" stroke-width="0.2"/>
<path d="M19.484 12.5825C19.484 12.7836 19.5423 12.9547 19.6601 13.0759C19.7783 13.1974 19.9447 13.2566 20.1367 13.2566C20.3306 13.2566 20.4972 13.1975 20.6151 13.0757C20.7325 12.9542 20.7894 12.7831 20.7894 12.5825V10.5016H23.5973V12.5825C23.5973 12.7831 23.6542 12.9541 23.7709 13.0755C23.8881 13.1973 24.0537 13.2566 24.2458 13.2566C24.4396 13.2566 24.6063 13.1975 24.7241 13.0757C24.8416 12.9542 24.8985 12.7831 24.8985 12.5825V7.40228C24.8985 7.20172 24.8416 7.03053 24.7241 6.9091C24.6063 6.78724 24.4396 6.72812 24.2458 6.72812C24.0537 6.72812 23.8881 6.78745 23.7709 6.90931C23.6542 7.03067 23.5973 7.20172 23.5973 7.40228V9.37179H20.7894V7.40228C20.7894 7.20172 20.7325 7.03053 20.6151 6.9091C20.4972 6.78724 20.3306 6.72812 20.1367 6.72812C19.9447 6.72812 19.7783 6.7874 19.6601 6.9089C19.5423 7.03008 19.484 7.20117 19.484 7.40228V12.5825Z" fill="#6200EE" stroke="#6200EE" stroke-width="0.2"/>
</svg>
