<svg width="32" height="32" viewBox="0 0 32 32" fill="none" xmlns="http://www.w3.org/2000/svg">
  <g transform="translate(0, 3)">
    <path d="M27 18.7143V6C27 5.44772 26.5523 5 26 5H9C6.79086 5 5 6.79086 5 9V21.3517C5 21.904 5.44771 22.3517 6 22.3517H19.3228" stroke="#F69234" stroke-width="1.5" stroke-linecap="round"/>
    <path d="M12.4081 9.79034H14.6305C15.739 9.79034 16.6376 10.6889 16.6376 11.7974V11.7974C16.6376 12.9058 15.739 13.8044 14.6305 13.8044H12.4081V9.79034Z" stroke="#F69234" stroke-width="1.5" stroke-linecap="round" stroke-linejoin="round"/>
    <path d="M12.4081 12.778V16.0002" stroke="#F69234" stroke-width="1.5" stroke-linecap="round" stroke-linejoin="round"/>
    <path d="M9.53027 9.79028L9.53027 15.9999" stroke="#F69234" stroke-width="1.5" stroke-linecap="round" stroke-linejoin="round"/>
    <path d="M22.5042 14.3252V12.6256V11.4774C22.5042 10.4464 21.6684 9.6106 20.6374 9.6106V9.6106C19.6063 9.6106 18.7705 10.4464 18.7705 11.4774V14.1579C18.7705 15.189 19.6063 16.0248 20.6374 16.0248V16.0248H21.4274" stroke="#F69234" stroke-width="1.5" stroke-linecap="round" stroke-linejoin="round"/>
    <path d="M21.2202 20.3261C21.3711 20.4458 21.5935 20.3383 21.5935 20.1456V15.9234C21.5935 15.0757 22.2808 14.3884 23.1285 14.3884V14.3884C23.9763 14.3884 24.6635 15.0757 24.6635 15.9234V19.0909C24.6635 19.1948 24.7477 19.279 24.8516 19.279H26.9201C28.1664 19.279 29.1767 20.2893 29.1767 21.5356V23.2277C29.1767 25.4086 27.4088 27.1765 25.228 27.1765H23.0867C22.1741 27.1765 21.3434 26.6503 20.9535 25.8252L18.4595 20.5478C18.0094 19.5952 19.1533 18.6873 19.9788 19.3418L21.2202 20.3261Z" stroke="#F69234" stroke-width="1.5" stroke-linecap="round"/>
  </g>
</svg>