<svg width="24" height="24" viewBox="0 0 24 24" fill="none" xmlns="http://www.w3.org/2000/svg">
<path d="M6.76215 17.7C6.6713 17.6995 6.5826 17.6723 6.50714 17.6217C6.43169 17.5711 6.37283 17.4993 6.33793 17.4155C6.30303 17.3316 6.29364 17.2393 6.31094 17.1501C6.32823 17.0609 6.37143 16.9788 6.43515 16.914L16.9142 6.435C16.9569 6.39225 17.0076 6.35834 17.0635 6.33521C17.1193 6.31208 17.1792 6.30017 17.2397 6.30017C17.3001 6.30017 17.36 6.31208 17.4158 6.33521C17.4717 6.35834 17.5224 6.39225 17.5652 6.435C17.6079 6.47774 17.6418 6.52849 17.6649 6.58434C17.6881 6.64019 17.7 6.70005 17.7 6.7605C17.7 6.82095 17.6881 6.88081 17.6649 6.93666C17.6418 6.99251 17.6079 7.04325 17.5652 7.086L7.08615 17.565C7.04374 17.6078 6.99327 17.6417 6.93766 17.6649C6.88205 17.6881 6.8224 17.7 6.76215 17.7V17.7Z" fill="#C5C5C4" stroke="#C5C5C4" stroke-width="0.456" stroke-miterlimit="10"/>
<path d="M17.2411 17.7C17.1804 17.7002 17.1202 17.6884 17.0641 17.6653C17.008 17.6421 16.957 17.608 16.9141 17.565L6.43512 7.086C6.34879 6.99967 6.30029 6.88258 6.30029 6.7605C6.30029 6.63841 6.34879 6.52133 6.43512 6.435C6.52145 6.34867 6.63853 6.30017 6.76062 6.30017C6.88271 6.30017 6.99979 6.34867 7.08612 6.435L17.5651 16.914C17.6287 16.9786 17.6718 17.0604 17.6892 17.1493C17.7066 17.2383 17.6975 17.3303 17.6629 17.4141C17.6284 17.4979 17.57 17.5696 17.495 17.6205C17.42 17.6713 17.3317 17.699 17.2411 17.7V17.7Z" fill="#C5C5C4" stroke="#C5C5C4" stroke-width="0.456" stroke-miterlimit="10"/>
</svg>
