<svg width="80" height="80" viewBox="0 0 80 80" fill="none" xmlns="http://www.w3.org/2000/svg">
<path d="M21.0996 67.1001H33.9996C34.9996 67.1001 35.7996 66.3001 35.7996 65.3001C35.7996 64.3001 34.9996 63.5001 33.9996 63.5001H21.0996C19.0996 63.5001 17.3996 61.8001 17.3996 59.8001V26.6001H21.0996V28.4001C21.0996 29.4001 21.8996 30.2001 22.8996 30.2001C23.8996 30.2001 24.6996 29.4001 24.6996 28.4001V26.6001H39.4996V28.4001C39.4996 29.4001 40.2996 30.2001 41.2996 30.2001C42.2996 30.2001 43.0996 29.4001 43.0996 28.4001V26.6001H46.7996V28.4001C46.7996 29.4001 47.5996 30.2001 48.5996 30.2001C49.5996 30.2001 50.3996 29.4001 50.3996 28.4001V24.7001C50.3996 23.7001 49.5996 22.9001 48.5996 22.9001H43.0996V19.2001C43.0996 13.1001 38.0996 8.1001 31.9996 8.1001C25.8996 8.1001 20.8996 13.1001 20.8996 19.2001V22.9001H15.3996C14.3996 22.9001 13.5996 23.7001 13.5996 24.7001V59.7001C13.6996 63.8001 16.9996 67.1001 21.0996 67.1001ZM24.7996 19.2001C24.7996 15.1001 28.0996 11.8001 32.1996 11.8001C36.2996 11.8001 39.5996 15.1001 39.5996 19.2001V22.9001H24.7996V19.2001Z" fill="#A07A4B"/>
<path d="M70.8996 37.6001H65.1996C64.2996 33.4001 60.5996 30.2001 56.1996 30.2001C51.7996 30.2001 47.9996 33.4001 47.1996 37.6001H41.4996C40.4996 37.6001 39.6996 38.4001 39.6996 39.4001V59.7001C39.6996 63.8001 42.9996 67.1001 47.0996 67.1001H65.4996C69.5996 67.1001 72.8996 63.8001 72.8996 59.7001V39.5001C72.6996 38.4001 71.8996 37.6001 70.8996 37.6001ZM56.0996 33.9001C58.4996 33.9001 60.4996 35.4001 61.2996 37.6001H50.8996C51.6996 35.5001 53.6996 33.9001 56.0996 33.9001ZM68.9996 59.7001C68.9996 61.7001 67.2996 63.4001 65.2996 63.4001H46.8996C44.8996 63.4001 43.1996 61.7001 43.1996 59.7001V41.3001H46.8996V43.1001C46.8996 44.1001 47.6996 44.9001 48.6996 44.9001C49.6996 44.9001 50.4996 44.1001 50.4996 43.1001V41.3001H61.5996V43.1001C61.5996 44.1001 62.3996 44.9001 63.3996 44.9001C64.3996 44.9001 65.1996 44.1001 65.1996 43.1001V41.3001H68.9996V59.7001Z" fill="#A07A4B"/>
</svg>
