<svg width="24" height="24" viewBox="0 0 24 24" fill="none" xmlns="http://www.w3.org/2000/svg">
<path d="M5.60998 12.36C4.07998 14.22 3.53998 16.41 3.53998 17.85C3.53998 18.03 3.65998 18.21 3.86998 18.27C3.89998 18.27 3.92998 18.27 3.98998 18.27C4.13998 18.27 4.28998 18.18 4.34998 18.06C6.50998 14.25 10.59 14.04 13.26 14.04V16.8C13.26 16.98 13.35 17.13 13.5 17.19C13.65 17.25 13.83 17.25 13.95 17.13L20.4 11.79C20.49 11.7 20.55 11.58 20.55 11.46C20.55 11.34 20.49 11.22 20.4 11.13L13.95 5.81998C13.83 5.72998 13.65 5.69998 13.5 5.75998C13.35 5.81998 13.26 5.96998 13.26 6.14998V8.90998C9.14998 9.05998 6.83998 10.86 5.60998 12.36ZM13.68 13.14C11.19 13.14 7.25998 13.14 4.61998 16.14C5.27998 13.53 7.55998 9.77997 13.68 9.71997C13.92 9.71997 14.1 9.53998 14.1 9.29998V7.04998L19.44 11.46L14.1 15.87V13.59C14.1 13.47 14.04 13.38 13.98 13.29C13.89 13.2 13.77 13.14 13.68 13.14Z" fill="white"/>
</svg>
