<svg width="16" height="16" viewBox="0 0 16 16" fill="none" xmlns="http://www.w3.org/2000/svg">
<path d="M10.1666 4.5625C9.5349 4.35958 8.86135 4.25 8.16221 4.25C5.5072 4.25 3.22127 5.83026 2.1937 8.10152C2.60245 9.00499 3.21031 9.79913 3.96132 10.428M12.0109 5.5C12.9247 6.16502 13.6598 7.06072 14.1307 8.10152C13.1031 10.3728 10.8172 11.953 8.16221 11.953C7.51061 11.953 6.88124 11.8579 6.28725 11.6806" stroke="#808080" stroke-width="0.8" stroke-linecap="round"/>
<path d="M10.6622 8C10.6622 9.38071 9.54294 10.5 8.16223 10.5C6.78152 10.5 5.66223 9.38071 5.66223 8C5.66223 6.61929 6.78152 5.5 8.16223 5.5C8.37804 5.5 8.58747 5.52735 8.78723 5.57876C9.55862 5.7773 10.1859 6.33476 10.4805 7.0625C10.5977 7.35201 10.6622 7.66847 10.6622 8Z" stroke="#808080" stroke-width="0.8"/>
<path d="M13.1622 3L3.16223 13" stroke="#808080" stroke-width="0.8" stroke-linecap="round"/>
</svg>
