<svg width="22" height="12" viewBox="0 0 22 12" fill="none" xmlns="http://www.w3.org/2000/svg">
<rect x="0.5" y="0.5" width="21" height="11" rx="5.5" fill="#FDD032"/>
<rect x="0.5" y="0.5" width="21" height="11" rx="5.5" stroke="white"/>
<path d="M6.184 2.856H10.672V3.68H6.184V2.856ZM6.032 4.728H10.776V5.568H6.032V4.728ZM7.04 7.336H9.728V8.048H7.04V7.336ZM7.072 8.6H9.768V9.4H7.072V8.6ZM7.904 2.256H8.856V3.312H7.904V2.256ZM6.816 3.776L7.64 3.64C7.70933 3.78933 7.77333 3.95733 7.832 4.144C7.89067 4.33067 7.93067 4.49333 7.952 4.632L7.096 4.808C7.08 4.66933 7.04267 4.504 6.984 4.312C6.93067 4.11467 6.87467 3.936 6.816 3.776ZM9.144 3.616L10.072 3.784C9.992 3.976 9.91467 4.16267 9.84 4.344C9.76533 4.52533 9.69867 4.68 9.64 4.808L8.832 4.64C8.86933 4.544 8.90667 4.43733 8.944 4.32C8.98667 4.19733 9.024 4.07467 9.056 3.952C9.09333 3.82933 9.12267 3.71733 9.144 3.616ZM6.536 6.032H10.328V9.696H9.408V6.808H7.408V9.704H6.536V6.032ZM3.944 2.688H5.912V8.16H3.944V7.304H5.04V3.544H3.944V2.688ZM4.016 4.976H5.552V5.816H4.016V4.976ZM3.504 2.688H4.376V8.872H3.504V2.688ZM12.232 2.784H14.28V3.432H12.232V2.784ZM12.992 2.2L13.824 2.304C13.7493 2.47467 13.6773 2.632 13.608 2.776C13.5387 2.92 13.4747 3.048 13.416 3.16L12.704 3.048C12.752 2.92533 12.8027 2.78667 12.856 2.632C12.9147 2.472 12.96 2.328 12.992 2.2ZM11.888 2.784H12.64V4.272C12.64 4.56533 12.616 4.88533 12.568 5.232C12.5253 5.57333 12.4427 5.90933 12.32 6.24C12.1973 6.57067 12.0133 6.864 11.768 7.12C11.7253 7.06667 11.6667 7.008 11.592 6.944C11.5227 6.88 11.448 6.816 11.368 6.752C11.2933 6.688 11.2267 6.64267 11.168 6.616C11.3813 6.38667 11.5387 6.13867 11.64 5.872C11.7467 5.6 11.8133 5.32533 11.84 5.048C11.872 4.76533 11.888 4.50133 11.888 4.256V2.784ZM15.76 2.48H17.312V3.152H15.76V2.48ZM15.128 4.464H17.592V5.104H15.128V4.464ZM15.416 2.48H16.16V3.04C16.16 3.22133 16.136 3.408 16.088 3.6C16.0453 3.78667 15.9627 3.968 15.84 4.144C15.7173 4.31467 15.544 4.46933 15.32 4.608C15.288 4.55467 15.2373 4.49067 15.168 4.416C15.104 4.336 15.0373 4.26133 14.968 4.192C14.8987 4.11733 14.84 4.06133 14.792 4.024C15.0693 3.87467 15.2427 3.712 15.312 3.536C15.3813 3.36 15.416 3.18667 15.416 3.016V2.48ZM13.88 2.784H14.656V6.072C14.656 6.248 14.6373 6.38933 14.6 6.496C14.5627 6.60267 14.488 6.688 14.376 6.752C14.2693 6.81067 14.136 6.848 13.976 6.864C13.8213 6.88 13.64 6.888 13.432 6.888C13.4213 6.78133 13.3973 6.65867 13.36 6.52C13.3227 6.38133 13.2773 6.26133 13.224 6.16C13.3413 6.16533 13.4533 6.168 13.56 6.168C13.6667 6.168 13.7387 6.168 13.776 6.168C13.8187 6.168 13.8453 6.16 13.856 6.144C13.872 6.128 13.88 6.10133 13.88 6.064V2.784ZM11.28 4.488C11.5947 4.47733 11.9547 4.46667 12.36 4.456C12.7653 4.44 13.192 4.424 13.64 4.408C14.088 4.38667 14.536 4.368 14.984 4.352L14.976 5.032C14.5387 5.05333 14.0987 5.07733 13.656 5.104C13.2187 5.12533 12.8 5.14667 12.4 5.168C12.0053 5.18933 11.6453 5.208 11.32 5.224L11.28 4.488ZM12.776 3.68L13.328 3.488C13.3973 3.6 13.464 3.72533 13.528 3.864C13.592 4.00267 13.64 4.12 13.672 4.216L13.096 4.432C13.064 4.33067 13.0187 4.208 12.96 4.064C12.9013 3.92 12.84 3.792 12.776 3.68ZM12.904 5.272H13.488V6.392H12.904V5.272ZM16.888 2.48H17.648V3.472C17.648 3.552 17.6533 3.60267 17.664 3.624C17.6747 3.64533 17.7013 3.656 17.744 3.656C17.76 3.656 17.7787 3.656 17.8 3.656C17.8267 3.656 17.8507 3.656 17.872 3.656C17.8987 3.656 17.9173 3.656 17.928 3.656C17.96 3.656 17.984 3.64533 18 3.624C18.016 3.59733 18.0293 3.54667 18.04 3.472C18.0507 3.392 18.0587 3.27467 18.064 3.12C18.1333 3.17867 18.232 3.232 18.36 3.28C18.4933 3.328 18.6107 3.36267 18.712 3.384C18.68 3.74667 18.6107 3.992 18.504 4.12C18.4027 4.24267 18.2453 4.304 18.032 4.304C17.9947 4.304 17.9493 4.304 17.896 4.304C17.8427 4.304 17.7893 4.304 17.736 4.304C17.688 4.304 17.6453 4.304 17.608 4.304C17.3307 4.304 17.1413 4.24533 17.04 4.128C16.9387 4.01067 16.888 3.792 16.888 3.472V2.48ZM17.376 4.464H17.552L17.696 4.448L18.176 4.64C18.0213 5.09333 17.8 5.472 17.512 5.776C17.2293 6.07467 16.8933 6.31733 16.504 6.504C16.1147 6.68533 15.6853 6.82667 15.216 6.928C15.1893 6.864 15.1493 6.78667 15.096 6.696C15.048 6.60533 14.9947 6.52 14.936 6.44C14.8773 6.35467 14.824 6.288 14.776 6.24C15.2027 6.16533 15.5893 6.06133 15.936 5.928C16.288 5.79467 16.5867 5.61867 16.832 5.4C17.0773 5.176 17.2587 4.89867 17.376 4.568V4.464ZM16.064 5.048C16.288 5.384 16.632 5.65067 17.096 5.848C17.5653 6.04 18.1173 6.168 18.752 6.232C18.6613 6.31733 18.5653 6.432 18.464 6.576C18.3627 6.71467 18.288 6.84 18.24 6.952C17.5467 6.84533 16.9547 6.65067 16.464 6.368C15.9787 6.08533 15.5947 5.712 15.312 5.248L16.064 5.048ZM11.336 8.736H18.664V9.488H11.336V8.736ZM12.224 7.024H17.76V9.096H16.816V7.752H16.16V9.096H15.28V7.752H14.632V9.096H13.76V7.752H13.12V9.096H12.224V7.024Z" fill="#AF741F"/>
</svg>
