<svg width="18" height="18" viewBox="0 0 18 18" fill="none" xmlns="http://www.w3.org/2000/svg">
<path d="M13.9578 16.0016H4.03065C2.82434 16.0016 1.84009 15.0173 1.84009 13.811V4.19056C1.84009 2.98425 2.82434 2 4.03065 2H13.9578C15.1641 2 16.1484 2.98425 16.1484 4.19056V13.817C16.1484 15.0173 15.1641 16.0016 13.9578 16.0016Z" fill="#83BD3F"/>
<path d="M4.80335 8.79331H6.56605C6.75625 8.79331 6.91044 8.9475 6.91044 9.1377V13.8214C6.91044 14.0116 7.06463 14.1658 7.25483 14.1658H10.7364C10.9266 14.1658 11.0808 14.0116 11.0808 13.8214V12.926V9.1377C11.0808 8.9475 11.235 8.79331 11.4252 8.79331H13.1383C13.4493 8.79331 13.601 8.41375 13.3757 8.19941L9.03457 4.06955C8.89756 3.93921 8.68109 3.94373 8.54963 4.07966L4.55578 8.20951C4.34442 8.42808 4.4993 8.79331 4.80335 8.79331Z" fill="white"/>
</svg>
