<svg width="16" height="16" viewBox="0 0 16 16" fill="none" xmlns="http://www.w3.org/2000/svg">
<path fill-rule="evenodd" clip-rule="evenodd" d="M10.5 1.5C10.5 1.77614 10.7239 2 11 2H12.2929L9 5.29289L7.35355 3.64645C7.16742 3.46031 6.86885 3.45037 6.67075 3.62371L2.67075 7.12371C2.46293 7.30555 2.44187 7.62143 2.62371 7.82925C2.80555 8.03707 3.12143 8.05813 3.32925 7.87629L6.97721 4.68432L8.64645 6.35355C8.84171 6.54882 9.15829 6.54882 9.35355 6.35355L13 2.70711V4C13 4.27614 13.2239 4.5 13.5 4.5C13.7761 4.5 14 4.27614 14 4V1.5C14 1.22386 13.7761 1 13.5 1H11C10.7239 1 10.5 1.22386 10.5 1.5ZM13.5 6.5C13.7761 6.5 14 6.72386 14 7V14C14 14.2761 13.7761 14.5 13.5 14.5H11.5C11.2239 14.5 11 14.2761 11 14V7C11 6.72386 11.2239 6.5 11.5 6.5H13.5ZM7 8.5H9C9.27614 8.5 9.5 8.72386 9.5 9V14C9.5 14.2761 9.27614 14.5 9 14.5H7C6.72386 14.5 6.5 14.2761 6.5 14V9C6.5 8.72386 6.72386 8.5 7 8.5ZM5 11C5 10.7239 4.77614 10.5 4.5 10.5H2.5C2.22386 10.5 2 10.7239 2 11V14C2 14.2761 2.22386 14.5 2.5 14.5H4.5C4.77614 14.5 5 14.2761 5 14V11Z" fill="#B9964B"/>
</svg>
