<svg width="16" height="16" viewBox="0 0 16 16" fill="none" xmlns="http://www.w3.org/2000/svg">
<path d="M3.43953 9.00164C3.25648 9.00164 3.10394 8.8796 3.05818 8.69655C2.61581 6.89657 3.21072 5.00506 4.58359 3.75422C5.5751 2.83898 6.8717 2.38135 8.22932 2.44237C9.25134 2.50339 10.1971 2.83898 11.0056 3.44914L10.9598 2.41186C10.9598 2.30508 10.9903 2.1983 11.0666 2.12203C11.1429 2.04576 11.2344 2 11.3412 2C11.4479 2 11.5547 2.03051 11.631 2.10678C11.7073 2.18305 11.753 2.27457 11.753 2.38135L11.8293 4.3949C11.8293 4.60845 11.6615 4.77625 11.4479 4.7915L9.44965 4.86777C9.22084 4.86777 9.05304 4.69998 9.03779 4.48642C9.03779 4.37964 9.0683 4.27286 9.14457 4.19659C9.22084 4.12032 9.31236 4.07456 9.41914 4.07456L10.4564 4.0288C8.85474 2.88474 6.59713 2.99152 5.11748 4.33388C3.95817 5.38641 3.47004 6.97284 3.83614 8.49825C3.8819 8.71181 3.75987 8.92537 3.54631 8.97113C3.5158 8.98638 3.48529 9.00164 3.43953 9.00164Z" fill="#808080"/>
<path d="M4.75063 13.1366C4.55232 13.1366 4.36928 12.984 4.35402 12.7705L4.17097 10.7874C4.15572 10.5739 4.30826 10.3756 4.52182 10.3603L6.50485 10.1773C6.61163 10.162 6.71841 10.1925 6.79468 10.2688C6.87095 10.3298 6.93197 10.4366 6.93197 10.5434C6.94722 10.7569 6.79468 10.9552 6.58112 10.9705L5.49808 11.062C6.23028 11.5959 7.11502 11.901 8.04552 11.901C9.09805 11.901 10.1201 11.5044 10.898 10.8027C12.0573 9.75016 12.5455 8.14848 12.1794 6.63832C12.1489 6.53154 12.1641 6.42476 12.2251 6.33324C12.2862 6.24171 12.3624 6.1807 12.4692 6.15019C12.6828 6.10443 12.8963 6.22646 12.9421 6.44002C13.3845 8.24 12.7895 10.1468 11.4167 11.3823C10.4862 12.2213 9.2811 12.6942 8.03026 12.6942C7.93874 12.6942 7.86247 12.6942 7.77094 12.6942C6.76417 12.6484 5.81842 12.3128 5.0252 11.7179L5.11673 12.7095C5.13198 12.923 4.97944 13.1213 4.76588 13.1366C4.78114 13.1366 4.76588 13.1366 4.75063 13.1366Z" fill="#808080"/>
</svg>
