<svg width="32" height="33" viewBox="0 0 32 33" fill="none" xmlns="http://www.w3.org/2000/svg">
<path d="M6.40308 12.322L6.40308 21.5359C6.40308 22.0881 6.85079 22.5359 7.40308 22.5359H7.57821H7.75334C8.30562 22.5359 8.75334 22.9836 8.75334 23.5359L8.75334 26.9219C8.75334 27.4742 9.20105 27.9219 9.75334 27.9219H13.2373C13.7896 27.9219 14.2373 27.4742 14.2373 26.9219V24.0255C14.2373 23.4732 14.685 23.0255 15.2373 23.0255H15.6744C15.7605 23.0255 15.8463 23.0366 15.9295 23.0586L24.3418 25.2775C24.976 25.4448 25.5969 24.9665 25.5969 24.3106V19.3047V7.47997C25.5969 6.75139 24.8427 6.26738 24.1804 6.57083L16.5967 10.0452L15.9668 10.3602C15.8592 10.4139 15.7428 10.4479 15.6232 10.4603L7.29947 11.3274C6.79005 11.3805 6.40308 11.8098 6.40308 12.322Z" stroke="#3FB5BD" stroke-width="1.5" stroke-linecap="round" stroke-linejoin="round"/>
</svg>
