<svg width="24" height="24" viewBox="0 0 24 24" fill="none" xmlns="http://www.w3.org/2000/svg">
<path fill-rule="evenodd" clip-rule="evenodd" d="M4.52733 12.9585L9.95427 18.44C10.1001 18.5858 10.1001 18.8484 9.95427 19.0234C9.80843 19.1984 9.54592 19.1984 9.37091 19.0234L3.27487 12.869C3.1582 12.7523 3.12904 12.5773 3.18737 12.4315C3.18737 12.3731 3.24571 12.3148 3.27487 12.2856L9.37091 6.13125C9.51675 5.95625 9.77926 5.95625 9.95427 6.13125C10.0418 6.21876 10.0709 6.30626 10.0709 6.42293C10.0709 6.5396 10.0418 6.6271 9.95427 6.71461L4.58085 12.142L19.8421 12.1981C20.0754 12.1981 20.2504 12.3731 20.2504 12.6065C20.2504 12.8398 20.0754 13.0148 19.8421 13.0148L4.52733 12.9585Z" fill="#217DC1"/>
</svg>
