<svg width="38" height="38" viewBox="0 0 38 38" fill="none" xmlns="http://www.w3.org/2000/svg">
<path fill-rule="evenodd" clip-rule="evenodd" d="M25.4268 10.963H37.05C37.5108 10.963 37.8813 11.362 37.8813 11.856V26.1392C37.8813 26.6332 37.5108 27.0322 37.05 27.0322H25.4316H13.8083C13.3476 27.0322 12.9771 26.6332 12.9771 26.1392V11.856C12.9771 11.362 13.3476 10.963 13.8083 10.963H25.4268ZM15.2856 11.9225C14.5493 11.9225 13.9508 12.521 13.9508 13.2572C13.9508 13.9982 14.5493 14.592 15.2856 14.592C16.0218 14.592 16.6203 13.9935 16.6203 13.2572C16.6203 12.521 16.0218 11.9225 15.2856 11.9225ZM33.0078 23.8355C33.3593 23.6977 33.6158 23.3415 33.6158 22.914C33.6158 22.6432 33.7203 22.401 33.8913 22.2205C34.0528 22.0447 34.2808 21.9355 34.5326 21.9355C34.6371 21.9355 34.7368 21.9165 34.8318 21.8785C35.1833 21.7407 35.4398 21.3845 35.4398 20.957V17.043C35.4398 16.5015 35.0313 16.0645 34.5278 16.0645C34.0243 16.0645 33.6158 15.6275 33.6158 15.086C33.6158 14.5445 33.2073 14.1075 32.7038 14.1075H25.4268H18.1498C17.6463 14.1075 17.2378 14.5445 17.2378 15.086C17.2378 15.6275 16.8246 16.0645 16.3258 16.0645C15.8223 16.0645 15.4138 16.5015 15.4138 17.043V20.957C15.4138 21.4985 15.8223 21.9355 16.3258 21.9355C16.8293 21.9355 17.2378 22.3725 17.2378 22.914C17.2378 23.4555 17.6463 23.8925 18.1498 23.8925H32.7085C32.813 23.8925 32.9128 23.8735 33.0078 23.8355ZM34.3236 24.795C34.3236 25.5312 34.9221 26.1297 35.6583 26.1297C36.3946 26.1297 36.993 25.5312 36.993 24.795C36.993 24.0587 36.3946 23.4602 35.6583 23.4602C34.9221 23.4602 34.3236 24.0587 34.3236 24.795ZM6.93027 14.4257C6.93027 14.022 7.37677 13.813 7.64277 14.0932L11.286 17.9217C11.3668 18.012 11.4143 18.1307 11.4143 18.2542C11.4143 18.3825 11.3668 18.5012 11.286 18.5867L7.64277 22.4152C7.37677 22.6955 6.93027 22.4865 6.93027 22.0827V20.0925H0.821774C0.432274 20.0925 0.118774 19.7505 0.118774 19.3277V17.1807C0.118774 16.758 0.437024 16.416 0.821774 16.416H6.93027V14.4257ZM21.071 18.5155H19.2328V22.4152H21.071V18.5155ZM22.6717 16.4492H24.5099V22.4152H22.6717V16.4492ZM28.1863 17.366H26.3481V22.4152H28.1863V17.366ZM29.7921 15.2997H31.6303V22.4152H29.7921V15.2997Z" fill="url(#paint0_linear_10973_32646)"/>
<defs>
<linearGradient id="paint0_linear_10973_32646" x1="0.118774" y1="18.9994" x2="37.8735" y2="18.9994" gradientUnits="userSpaceOnUse">
<stop stop-color="#70C6FC"/>
<stop offset="0.0627815" stop-color="#6CC2FB"/>
<stop offset="0.6801" stop-color="#439CF2"/>
<stop offset="1" stop-color="#348DEF"/>
</linearGradient>
</defs>
</svg>
