<svg width="18" height="18" viewBox="0 0 18 18" fill="none" xmlns="http://www.w3.org/2000/svg">
<path fill-rule="evenodd" clip-rule="evenodd" d="M10.4356 8.13152C9.11534 6.81122 9.11534 4.67059 10.4356 3.35029C11.3808 2.40509 12.7465 2.13655 13.9306 2.54469L12.6786 3.79661C12.3486 4.12668 12.3486 4.66184 12.6786 4.99191L13.5751 5.8884C13.9052 6.21847 14.4404 6.21847 14.7704 5.8884L16.0224 4.63642C16.4306 5.82055 16.1621 7.18627 15.2169 8.13152C13.8966 9.45182 11.7559 9.45182 10.4356 8.13152Z" fill="#217DC1"/>
<path fill-rule="evenodd" clip-rule="evenodd" d="M11.7023 8.88329C12.2881 8.29751 12.2881 7.34776 11.7023 6.76197C11.1165 6.17619 10.1667 6.17619 9.58096 6.76197L3.217 13.1259C2.63121 13.7117 2.63121 14.6615 3.217 15.2473C3.80278 15.833 4.75253 15.833 5.33832 15.2473L11.7023 8.88329ZM3.87366 13.8003C3.65399 14.0199 3.65399 14.3761 3.87366 14.5958C4.09333 14.8154 4.44949 14.8154 4.66916 14.5958C4.88883 14.3761 4.88883 14.0199 4.66916 13.8003C4.44949 13.5806 4.09333 13.5806 3.87366 13.8003Z" fill="#217DC1"/>
<path d="M11.1968 10.2427L14.0252 13.0711C14.611 13.6569 14.611 14.6066 14.0252 15.1924C13.4394 15.7782 12.4897 15.7782 11.9039 15.1924L9.07546 12.364L11.1968 10.2427Z" fill="#217DC1"/>
<rect x="4.05493" y="4.51514" width="5" height="1" transform="rotate(45 4.05493 4.51514)" fill="#217DC1"/>
<rect x="3.3479" y="3.10083" width="2" height="2" transform="rotate(45 3.3479 3.10083)" fill="#217DC1"/>
</svg>
