<svg width="28" height="18" viewBox="0 0 28 18" fill="none" xmlns="http://www.w3.org/2000/svg">
<path d="M25.4306 14.5417H2.57359C1.61884 14.5417 0.839844 13.7627 0.839844 12.808V5.19371C0.839844 4.23896 1.61884 3.45996 2.57359 3.45996H25.4306C26.3853 3.45996 27.1643 4.23896 27.1643 5.19371V12.8127C27.1643 13.7627 26.3853 14.5417 25.4306 14.5417Z" fill="#FF3042"/>
<path fill-rule="evenodd" clip-rule="evenodd" d="M3.4796 5.85986H5.35585L8.0206 10.2204H8.0396V5.85986H9.42185V12.1346H7.6121L4.8761 7.66961H4.8571V12.1346H3.47485V5.85986H3.4796ZM10.7566 5.85986H15.0173V7.13761H12.1388V8.30611H14.8606V9.58386H12.1388V10.8616H15.1788V12.1394H10.7566V5.85986ZM17.1311 5.85986H15.6254L17.4874 12.1346H18.6749L20.0571 7.79311H20.0761L21.4584 12.1346H22.6886L24.5221 5.85986H23.1209L22.0664 9.98761H22.0474L20.7459 5.85986H19.4634L18.1524 9.88311H18.1334L17.1311 5.85986Z" fill="white"/>
</svg>
