<svg width="16" height="16" viewBox="0 0 16 16" fill="none" xmlns="http://www.w3.org/2000/svg">
<path d="M7.99922 14.2992C11.4786 14.2992 14.2992 11.4786 14.2992 7.99922C14.2992 4.51982 11.4786 1.69922 7.99922 1.69922C4.51982 1.69922 1.69922 4.51982 1.69922 7.99922C1.69922 11.4786 4.51982 14.2992 7.99922 14.2992Z" fill="#C5C5C4"/>
<path d="M10.4791 10.8811C10.3791 10.8811 10.2791 10.8411 10.1991 10.7611L7.99914 8.56109L5.79914 10.7611C5.63914 10.9211 5.37914 10.9211 5.23914 10.7611C5.07914 10.6011 5.07914 10.3611 5.23914 10.2011L7.43914 8.00109L5.23914 5.80109C5.07914 5.64109 5.07914 5.40109 5.23914 5.24109C5.39914 5.08109 5.65914 5.08109 5.79914 5.24109L7.99914 7.44109L10.1991 5.24109C10.3591 5.08109 10.5991 5.08109 10.7591 5.24109C10.9191 5.40109 10.9191 5.64109 10.7591 5.80109L8.55914 8.00109L10.7591 10.2011C10.9191 10.3611 10.9191 10.6011 10.7591 10.7611C10.6791 10.8411 10.5791 10.8811 10.4791 10.8811Z" fill="white"/>
</svg>
