<svg width="16" height="16" viewBox="0 0 16 16" fill="none" xmlns="http://www.w3.org/2000/svg">
<path d="M7.99998 14.4C4.47198 14.4 1.59998 11.528 1.59998 7.99998C1.59998 4.47198 4.47198 1.59998 7.99998 1.59998C11.528 1.59998 14.4 4.47198 14.4 7.99998C14.4 11.528 11.528 14.4 7.99998 14.4ZM7.99998 2.43998C4.93598 2.43998 2.43998 4.93598 2.43998 7.99998C2.43998 11.064 4.93598 13.56 7.99998 13.56C11.064 13.56 13.56 11.064 13.56 7.99998C13.56 4.93598 11.064 2.43998 7.99998 2.43998Z" fill="#02509F"/>
<path d="M8.00801 11.584C7.56801 11.584 7.20001 11.216 7.20001 10.776C7.20001 10.336 7.56801 9.96802 8.00801 9.96802C8.22401 9.96802 8.43201 10.056 8.57601 10.208C8.72801 10.368 8.80801 10.576 8.79201 10.792C8.80001 10.984 8.72801 11.176 8.58401 11.328C8.43201 11.496 8.22401 11.584 8.00801 11.584Z" fill="#02509F"/>
<path d="M8.00802 9.49602C7.67202 9.49602 7.41602 9.25602 7.39202 8.92002C7.36802 8.45602 7.33602 7.99202 7.31202 7.52802C7.28802 7.06402 7.25602 6.60002 7.23202 6.12802C7.22402 6.00802 7.21602 5.88002 7.20802 5.76002C7.20002 5.63202 7.19202 5.51202 7.18402 5.38402C7.18402 4.95202 7.43202 4.60802 7.80802 4.50402C8.19202 4.41602 8.57602 4.60002 8.74402 4.96002C8.79202 5.08002 8.81602 5.20802 8.81602 5.36002C8.80802 5.55202 8.79202 5.75202 8.78402 5.94402C8.76802 6.13602 8.76002 6.33602 8.75202 6.52802C8.73602 6.82402 8.72002 7.11202 8.70402 7.40802C8.68802 7.72002 8.66402 8.02402 8.64802 8.33602C8.63202 8.52802 8.63202 8.71202 8.63202 8.90402C8.60802 9.24002 8.34402 9.49602 8.00802 9.49602Z" fill="#02509F"/>
</svg>
