<svg width="80" height="80" viewBox="0 0 80 80" fill="none" xmlns="http://www.w3.org/2000/svg">
<path d="M40 29.5999C42.9 29.5999 45.2001 27.2999 45.2001 24.3999C45.2001 21.4999 42.9 19.1999 40 19.1999C37.1 19.1999 34.8 21.4999 34.8 24.3999C34.8 27.2999 37.1 29.5999 40 29.5999ZM40 21.8999C41.4 21.8999 42.6 23.0999 42.6 24.4999C42.6 25.8999 41.4 27.0999 40 27.0999C38.6 27.0999 37.4001 25.8999 37.4001 24.4999C37.4001 22.9999 38.6 21.8999 40 21.8999Z" fill="#02509F"/>
<path d="M67.2 34.7999C67.9 34.7999 68.5 34.1999 68.5 33.4999V28.2999C68.5 27.7999 68.3 27.3999 67.9 27.1999L42.6 12.1999C41 11.2999 39.2 11.2999 37.6 12.1999L12.1 27.1999C11.7 27.3999 11.5 27.8999 11.5 28.2999V33.4999C11.5 34.1999 12.1 34.7999 12.8 34.7999H16.7V58.0999C13.8 58.0999 11.5 60.3999 11.5 63.2999V67.1999C11.5 67.8999 12.1 68.4999 12.8 68.4999H67.2C67.9 68.4999 68.5 67.8999 68.5 67.1999V63.2999C68.5 60.3999 66.2 58.0999 63.3 58.0999V34.7999H67.2ZM14.1 29.0999L38.8 14.3999C39.6 13.9999 40.5 13.9999 41.3 14.3999L66 29.0999V32.1999H14.1V29.0999ZM45.2 58.0999V34.7999H53V58.0999H45.2ZM27 58.0999V34.7999H34.8V58.0999H27ZM37.4 34.7999H42.6V58.0999H37.4V34.7999ZM19.3 34.7999H24.5V58.0999H19.3V34.7999ZM65.9 63.2999V65.8999H14.1V63.2999C14.1 61.8999 15.3 60.6999 16.7 60.6999H63.3C64.7 60.6999 65.9 61.8999 65.9 63.2999ZM60.7 58.0999H55.5V34.7999H60.7V58.0999Z" fill="#02509F"/>
</svg>
