<svg width="20" height="20" viewBox="0 0 20 20" fill="none" xmlns="http://www.w3.org/2000/svg">
<g clip-path="url(#clip0_88511_3360)">
<path fill-rule="evenodd" clip-rule="evenodd" d="M12.0014 5.21244H14.1846C14.7304 5.21244 15.1671 5.66728 15.1853 6.23128V7.63219C15.1853 7.85051 15.0033 8.03244 14.785 8.03244H14.5667L14.221 15.2553C14.1846 15.9103 13.657 16.4015 13.0202 16.4015H6.97998C6.32501 16.4015 5.81559 15.8921 5.7792 15.2553L5.43352 8.03244H5.2152C4.99688 8.03244 4.81494 7.85051 4.81494 7.63219V6.23128C4.81494 5.68547 5.26978 5.23063 5.81559 5.23063H8.01701V4.83037C8.01701 4.15721 8.56282 3.6296 9.21779 3.6296H10.8006C11.4556 3.6296 11.9832 4.15721 12.0014 4.81218V5.21244ZM9.19959 4.43012C8.98127 4.43012 8.79934 4.61205 8.79934 4.83037V5.23063H11.1827V4.83037C11.1827 4.61205 11.0008 4.43012 10.7824 4.43012H9.19959ZM5.81559 6.01296C5.70643 6.01296 5.61546 6.10392 5.61546 6.21309H5.63365V7.21373H14.3848V6.21309C14.3848 6.10392 14.2938 6.01296 14.1846 6.01296H5.81559ZM13.0202 15.5646C13.2386 15.5646 13.4023 15.4008 13.4205 15.1825L13.748 7.99606H6.23404L6.57972 15.1825C6.59791 15.4008 6.76165 15.5646 6.97998 15.5646H13.0202ZM10.4006 14.3638C10.4006 14.5821 10.2187 14.764 10.0004 14.764C9.78203 14.764 9.6001 14.6003 9.6001 14.3638V9.19681C9.6001 8.97849 9.78203 8.79655 10.0004 8.79655C10.2187 8.79655 10.4006 8.97849 10.4006 9.19681V14.3638ZM11.9828 14.764C12.2011 14.764 12.383 14.5821 12.383 14.3638V9.19681C12.383 8.97849 12.2011 8.79655 11.9828 8.79655C11.7645 8.79655 11.5825 8.97849 11.5825 9.19681V14.3638C11.5825 14.6003 11.7645 14.764 11.9828 14.764ZM8.41738 14.3638C8.41738 14.5821 8.23544 14.764 8.01712 14.764C7.7988 14.764 7.61686 14.6003 7.61686 14.3638V9.19681C7.61686 8.97849 7.7988 8.79655 8.01712 8.79655C8.23544 8.79655 8.41738 8.97849 8.41738 9.19681V14.3638Z" fill="#02509F"/>
</g>
<defs>
<clipPath id="clip0_88511_3360">
<rect width="10.3704" height="13.3333" fill="white" transform="translate(4.81494 3.33334)"/>
</clipPath>
</defs>
</svg>
