<svg width="32" height="33" viewBox="0 0 32 33" fill="none" xmlns="http://www.w3.org/2000/svg">
<path d="M4.28125 26.4628L12.0392 19.6656M27.7183 15.1641H25.5916" stroke="#F69234" stroke-width="1.5" stroke-linecap="round" stroke-linejoin="round"/>
<circle cx="17.7528" cy="14.3612" r="7.67369" stroke="#F69234" stroke-width="1.5" stroke-linecap="round" stroke-linejoin="round"/>
<path d="M16.8004 12.189L16.8004 12.189C16.54 12.3841 16.4346 12.6079 16.4346 12.8039C16.4346 13.0004 16.5401 13.2242 16.8005 13.4199C17.0616 13.6157 17.4499 13.7549 17.9046 13.7549C17.9669 13.7549 18.0283 13.7645 18.0867 13.7829C18.593 13.8539 19.0589 14.0352 19.4326 14.3051C19.9229 14.6592 20.2852 15.1942 20.2852 15.8365C20.2852 16.4788 19.9229 17.0143 19.432 17.368C19.1408 17.5783 18.7938 17.7348 18.4153 17.8273C18.4154 17.8317 18.4154 17.8362 18.4154 17.8406V18.3479C18.4154 18.5089 18.3514 18.6634 18.2376 18.7773C18.1237 18.8911 17.9692 18.9551 17.8082 18.9551C17.6471 18.9551 17.4927 18.8911 17.3788 18.7773C17.2649 18.6634 17.2009 18.5089 17.2009 18.3479V17.9007C16.2856 17.7944 15.4549 17.3264 15.0939 16.5883M16.8004 12.189L15.1837 16.5444M16.8004 12.189C17.0616 11.9931 17.4504 11.8539 17.9051 11.8539C18.6452 11.8539 19.1567 12.209 19.3134 12.5435L19.3135 12.5437C19.3475 12.6159 19.3954 12.6806 19.4545 12.7343C19.5135 12.7879 19.5825 12.8294 19.6576 12.8564C19.7327 12.8834 19.8123 12.8953 19.892 12.8915C19.9717 12.8877 20.0499 12.8683 20.122 12.8342C20.1942 12.8002 20.2589 12.7523 20.3126 12.6933C20.3662 12.6343 20.4078 12.5653 20.4347 12.4902C20.4617 12.4151 20.4736 12.3354 20.4698 12.2558C20.466 12.1761 20.4466 12.0979 20.4126 12.0258L20.4125 12.0257C20.0484 11.2535 19.2056 10.7646 18.2785 10.6603M16.8004 12.189L18.2785 10.6603M15.0939 16.5883L15.1837 16.5444M15.0939 16.5883C15.0939 16.5883 15.0939 16.5884 15.0939 16.5884L15.1837 16.5444M15.0939 16.5883C15.0245 16.4466 15.0163 16.2839 15.0714 16.1362C15.1265 15.9887 15.2397 15.8694 15.3848 15.8036C15.5299 15.7377 15.6959 15.7301 15.8466 15.7822C15.9974 15.8343 16.1218 15.9424 16.1911 16.084L16.1911 16.084C16.348 16.4048 16.8593 16.7475 17.6012 16.7475C18.0568 16.7475 18.4456 16.6133 18.7068 16.4247L18.7069 16.4247C18.9674 16.2368 19.0707 16.0226 19.0707 15.837C19.0707 15.6509 18.9673 15.4362 18.7064 15.2484L18.7063 15.2483C18.5261 15.118 18.2844 15.0136 18.0019 14.9615M15.1837 16.5444C15.1263 16.4273 15.1196 16.293 15.1651 16.1712C15.2106 16.0493 15.3045 15.9498 15.4262 15.8946C15.5478 15.8394 15.6873 15.833 15.814 15.8767C15.9406 15.9205 16.0439 16.0109 16.1013 16.128C16.2799 16.4931 16.8338 16.8475 17.6012 16.8475C18.0755 16.8475 18.4854 16.7079 18.7654 16.5058C19.0449 16.3042 19.1707 16.0626 19.1707 15.837C19.1707 15.611 19.0449 15.3689 18.7649 15.1672C18.6087 15.0543 18.4117 14.9609 18.1856 14.9005C18.1282 14.9304 18.0662 14.9511 18.0019 14.9615M18.0019 14.9615C17.97 14.9667 17.9374 14.9694 17.9046 14.9694C17.2124 14.9694 16.5624 14.7597 16.0717 14.3914C15.5813 14.0233 15.2201 13.4686 15.2201 12.8044C15.2201 12.1397 15.5813 11.585 16.0717 11.2169L16.0718 11.2168C16.3564 11.0035 16.6949 10.8433 17.064 10.7465V10.3632C17.064 10.2059 17.1289 10.0559 17.2432 9.94593C17.3574 9.83607 17.5114 9.775 17.6712 9.775C17.8311 9.775 17.9851 9.83607 18.0993 9.94593C18.2135 10.0559 18.2785 10.2059 18.2785 10.3632V10.6603M18.0019 14.9615L18.2785 10.6603M17.2023 17.8003C17.2353 17.8042 17.2685 17.8076 17.3018 17.8106C17.3012 17.8206 17.3009 17.8306 17.3009 17.8406V17.9109L17.2023 17.8003ZM18.3154 17.85V17.8406C18.3154 17.8099 18.3126 17.7794 18.3072 17.7495C18.3399 17.7425 18.3724 17.7349 18.4047 17.7269L18.3154 17.85ZM18.3295 13.9284C18.2427 13.909 18.1541 13.8931 18.0642 13.8807C18.0132 13.8638 17.9593 13.8549 17.9046 13.8549C17.8001 13.8549 17.6988 13.8479 17.6012 13.8347C17.5233 13.8241 17.4477 13.8096 17.375 13.7915L18.3295 13.9284Z" fill="#F69234" stroke="#F69234" stroke-width="0.2"/>
<path d="M4.28125 15.1641H9.96429" stroke="#F69234" stroke-width="1.5" stroke-linecap="round" stroke-linejoin="round" stroke-dasharray="2 2"/>
<path d="M17.752 26.4662L17.752 22.1641" stroke="#F69234" stroke-width="1.5" stroke-linecap="round" stroke-linejoin="round" stroke-dasharray="2 2"/>
</svg>
