<svg width="80" height="80" viewBox="0 0 80 80" fill="none" xmlns="http://www.w3.org/2000/svg">
<path d="M68.5 16.8H11.5C10.4 16.8 9.5 17.7 9.5 18.8V61.2C9.5 62.3 10.4 63.2 11.5 63.2H68.5C69.6 63.2 70.5 62.3 70.5 61.2V18.8C70.5 17.7 69.6 16.8 68.5 16.8ZM67.8 19.6V29.1H12.2V19.6H67.8ZM12.2 59.9V32H67.9V59.9H12.2Z" fill="#808080"/>
<path d="M63.2 26.2C64.2 26.2 65 25.4 65 24.4C65 23.4 64.2 22.6 63.2 22.6C62.2 22.6 61.4 23.4 61.4 24.4C61.4 25.4 62.2 26.2 63.2 26.2Z" fill="#808080"/>
<path d="M58.4 26.2C59.4 26.2 60.2 25.4 60.2 24.4C60.2 23.4 59.4 22.6 58.4 22.6C57.4 22.6 56.6 23.4 56.6 24.4C56.6 25.4 57.4 26.2 58.4 26.2Z" fill="#808080"/>
<path d="M53.5 26.2C54.5 26.2 55.3 25.4 55.3 24.4C55.3 23.4 54.5 22.6 53.5 22.6C52.5 22.6 51.7 23.4 51.7 24.4C51.7 25.4 52.5 26.2 53.5 26.2Z" fill="#808080"/>
<path d="M27.9 44.7L22.6 40.2C21.9 39.6 20.9 39.7 20.3 40.4C19.7 41.1 19.8 42.1 20.5 42.7L24.4 46L20.5 49.3C19.8 49.9 19.7 50.9 20.3 51.6C20.9 52.3 21.9 52.4 22.6 51.8L27.9 47.3C28.7 46.5 28.7 45.4 27.9 44.7Z" fill="#808080"/>
<path d="M41.1 48.8H34.7C33.8 48.8 33.1 49.5 33.1 50.4C33.1 51.3 33.8 52 34.7 52H41.1C42 52 42.7 51.3 42.7 50.4C42.8 49.6 42 48.8 41.1 48.8Z" fill="#808080"/>
<path d="M54.4 48.8H48C47.1 48.8 46.4 49.5 46.4 50.4C46.4 51.3 47.1 52 48 52H54.4C55.3 52 56 51.3 56 50.4C56 49.6 55.3 48.8 54.4 48.8Z" fill="#808080"/>
</svg>
