<svg width="80" height="80" viewBox="0 0 80 80" fill="none" xmlns="http://www.w3.org/2000/svg">
<path d="M73.3 12.8C72.9 11.9 71.8 11.5 70.9 11.9L57.8 17.3C57.4 17.4 57.1 17.7 56.9 18L52.8 24.4H29.9C28.9 24.4 28 25.2 28 26.3V31.9C28 32.9 28.8 33.8 29.9 33.8H31.5L35.7 66.4C35.8 67.3 36.6 68.1 37.6 68.1H59.8C60.8 68.1 61.6 67.4 61.7 66.4L65.9 33.8H67.5C68.5 33.8 69.4 33 69.4 31.9V26.3C69.4 25.3 68.6 24.4 67.5 24.4H59.2L61.1 21.6L72.6 15.3C73.4 14.8 73.8 13.7 73.3 12.8ZM65.5 30H64.2C63.2 30 62.4 30.7 62.3 31.7L58.1 64.3H39.2L35 31.6C34.9 30.7 34.1 29.9 33.1 29.9H31.8V28.1H65.5V30Z" fill="#72573D"/>
<path d="M30.5 52.2001C30.5 51.2001 29.7 50.3 28.6 50.3H8.4C7.4 50.3 6.5 51.1001 6.5 52.2001C6.5 53.2001 7.3 54.1 8.4 54.1H28.7C29.7 54.1 30.5 53.3001 30.5 52.2001Z" fill="#72573D"/>
<path d="M10.8 47.4001H28.4C28.9 47.4001 29.5 47.2 29.8 46.8C30.1 46.4 30.3 45.8 30.3 45.3L29.4 38C29.3 37.1 28.5 36.3 27.5 36.3H17.4C12.7 36.3 8.9 40.1 8.9 44.8V45.6C8.9 46.5 9.7 47.4001 10.8 47.4001ZM17.4 40H25.8L26.3 43.6H12.8C13.3 41.6 15.2 40 17.4 40Z" fill="#72573D"/>
<path d="M31.4 58.8C31.3 57.9 30.5 57.1 29.5 57.1H10.8C9.8 57.1 8.9 57.9 8.9 59V59.8C8.9 64.5 12.7 68.3 17.4 68.3H28.6C29.4 68.3 30.2 68.2 31 68C31.9 67.7 32.5 66.9 32.3 65.9L31.4 58.8ZM17.4 64.5C15.2 64.5 13.4 63 12.9 60.9H27.9L28.4 64.5H17.4Z" fill="#72573D"/>
</svg>
