<svg width="80" height="80" viewBox="0 0 80 80" fill="none" xmlns="http://www.w3.org/2000/svg">
<path d="M52.9 36.1001H46.4V29.6001C46.4 28.9001 45.8 28.3001 45.1 28.3001H34.8C34.1 28.3001 33.5 28.9001 33.5 29.6001V36.1001H27C26.3 36.1001 25.7 36.7001 25.7 37.4001V47.7001C25.7 48.4001 26.3 49.0001 27 49.0001H33.5V55.5001C33.5 56.2001 34.1 56.8001 34.8 56.8001H45.1C45.8 56.8001 46.4 56.2001 46.4 55.5001V49.0001H52.9C53.6 49.0001 54.2 48.4001 54.2 47.7001V37.4001C54.2 36.6001 53.6 36.1001 52.9 36.1001ZM51.6 46.4001H45.1C44.4 46.4001 43.8 47.0001 43.8 47.7001V54.2001H36V47.7001C36 47.0001 35.4 46.4001 34.7 46.4001H28.2V38.6001H34.7C35.4 38.6001 36 38.0001 36 37.3001V30.8001H43.8V37.3001C43.8 38.0001 44.4 38.6001 45.1 38.6001H51.6V46.4001Z" fill="#217DC1"/>
<path d="M63.6 20.6001H50.3V16.9001C50.3 14.0001 47.9 11.6001 44.9 11.6001H34.6C31.7 11.6001 29.6 13.8001 29.6 16.9001V20.6001H16.4C12.3 20.6001 9 23.9001 9 28.0001V57.0001C9 61.1001 12.3 64.4001 16.4 64.4001H63.5C67.6 64.4001 70.9 61.1001 70.9 57.0001V28.0001C71 23.9001 67.7 20.6001 63.6 20.6001ZM32.2 16.9001C32.2 15.5001 32.9 14.1001 34.6 14.1001H44.8C46.4 14.1001 47.7 15.3001 47.7 16.9001V20.6001H32.2V16.9001ZM68.4 57.0001C68.4 59.7001 66.2 61.9001 63.5 61.9001H16.4C13.7 61.9001 11.5 59.7001 11.5 57.0001V28.0001C11.5 25.3001 13.7 23.1001 16.4 23.1001H63.5C66.2 23.1001 68.4 25.3001 68.4 28.0001V57.0001Z" fill="#217DC1"/>
</svg>
