<svg width="32" height="32" viewBox="0 0 32 32" fill="none" xmlns="http://www.w3.org/2000/svg">
<path fill-rule="evenodd" clip-rule="evenodd" d="M10.6773 17.5352C10.3003 17.8178 10.1299 18.1565 10.1299 18.4727C10.1299 18.7895 10.3003 19.1282 10.6773 19.4115C11.055 19.6947 11.6079 19.8904 12.2477 19.8904C12.4291 19.8904 12.6032 19.9625 12.7315 20.0908C12.8598 20.2192 12.9319 20.3932 12.9319 20.5747C12.9319 20.7561 12.8598 20.9302 12.7315 21.0585C12.6032 21.1868 12.4291 21.2589 12.2477 21.2589C11.3404 21.2589 10.4926 20.9839 9.85623 20.5062C9.21988 20.0286 8.76143 19.317 8.76143 18.4733C8.76143 17.629 9.21988 16.9174 9.85623 16.4398C10.4926 15.9628 11.341 15.6878 12.2477 15.6878C13.6524 15.6878 14.9806 16.3604 15.5088 17.4805C15.5471 17.5618 15.569 17.6499 15.5733 17.7397C15.5776 17.8295 15.5642 17.9193 15.5338 18.0039C15.5034 18.0885 15.4566 18.1662 15.3961 18.2328C15.3357 18.2993 15.2627 18.3533 15.1814 18.3916C15.1001 18.4299 15.012 18.4518 14.9222 18.4561C14.8324 18.4604 14.7426 18.447 14.658 18.4166C14.5734 18.3862 14.4956 18.3394 14.4291 18.2789C14.3626 18.2185 14.3086 18.1455 14.2703 18.0642C14.0308 17.553 13.2836 17.0563 12.2484 17.0563C11.6086 17.0563 11.055 17.252 10.6773 17.5352Z" fill="#F69234"/>
<path fill-rule="evenodd" clip-rule="evenodd" d="M13.4088 23.4663C13.7859 23.1944 13.9556 22.8684 13.9556 22.5642C13.9556 22.2593 13.7859 21.9327 13.4082 21.6607C13.0311 21.3881 12.4776 21.1997 11.8385 21.1997C11.657 21.1997 11.483 21.1304 11.3547 21.0069C11.2263 20.8834 11.1543 20.7159 11.1543 20.5412C11.1543 20.3666 11.2263 20.1991 11.3547 20.0756C11.483 19.9521 11.657 19.8827 11.8385 19.8827C12.7458 19.8827 13.5936 20.1474 14.2299 20.6071C14.8663 21.0667 15.3241 21.7516 15.3241 22.5635C15.3241 23.3755 14.8663 24.061 14.2293 24.52C13.5929 24.9796 12.7458 25.2443 11.8385 25.2443C10.4337 25.2443 9.10493 24.597 8.57738 23.5184C8.49998 23.3604 8.49096 23.1793 8.55229 23.0149C8.61363 22.8506 8.7403 22.7164 8.90445 22.6419C9.06859 22.5674 9.25676 22.5587 9.42755 22.6177C9.59835 22.6768 9.73778 22.7987 9.81518 22.9566C10.056 23.4492 10.8032 23.9273 11.8385 23.9273C12.4783 23.9273 13.0311 23.739 13.4088 23.4663ZM11.9329 14.5217C12.1144 14.5217 12.2884 14.5911 12.4168 14.7146C12.5451 14.8381 12.6172 15.0056 12.6172 15.1803V15.8388C12.6172 16.0134 12.5451 16.1809 12.4168 16.3044C12.2884 16.4279 12.1144 16.4973 11.9329 16.4973C11.7515 16.4973 11.5774 16.4279 11.4491 16.3044C11.3208 16.1809 11.2487 16.0134 11.2487 15.8388V15.1803C11.2487 15.0056 11.3208 14.8381 11.4491 14.7146C11.5774 14.5911 11.7515 14.5217 11.9329 14.5217Z" fill="#F69234"/>
<path fill-rule="evenodd" clip-rule="evenodd" d="M12.1176 24.5827C12.2991 24.5827 12.4732 24.6548 12.6015 24.7831C12.7298 24.9114 12.8019 25.0855 12.8019 25.2669V25.9512C12.8019 26.1327 12.7298 26.3067 12.6015 26.435C12.4732 26.5633 12.2991 26.6354 12.1176 26.6354C11.9362 26.6354 11.7621 26.5633 11.6338 26.435C11.5055 26.3067 11.4334 26.1327 11.4334 25.9512V25.2669C11.4334 25.0855 11.5055 24.9114 11.6338 24.7831C11.7621 24.6548 11.9362 24.5827 12.1176 24.5827Z" fill="#F69234"/>
<path d="M21.3135 11.0517L22.1074 11.0517L21.3135 11.0517ZM26.4404 8.52099L26.9514 7.91352L26.4404 8.52099ZM29.1119 11.8059L25.9293 9.12847L26.9514 7.91352L30.134 10.591L29.1119 11.8059ZM25.9301 14.8877L29.1119 12.2109L30.134 13.4258L26.9522 16.1027L25.9301 14.8877ZM22.372 13.2283L24.2349 13.2283L24.2349 14.816L22.372 14.816L22.372 13.2283ZM22.1074 11.0517L22.1074 12.9636L20.5196 12.9636L20.5196 11.0517L22.1074 11.0517ZM24.2354 10.7871L22.372 10.7871L22.372 9.19939L24.2354 9.19939L24.2354 10.7871ZM24.2354 9.19939C24.2576 9.19939 24.2756 9.1814 24.2756 9.15921L25.8633 9.15921C25.8633 10.0583 25.1344 10.7871 24.2354 10.7871L24.2354 9.19939ZM20.5196 11.0517C20.5196 10.0287 21.349 9.19939 22.372 9.19939L22.372 10.7871C22.2258 10.7871 22.1074 10.9056 22.1074 11.0517L20.5196 11.0517ZM22.372 14.816C21.349 14.816 20.5196 13.9867 20.5196 12.9636L22.1074 12.9636C22.1074 13.1098 22.2258 13.2283 22.372 13.2283L22.372 14.816ZM24.2756 14.8566C24.2756 14.8342 24.2574 14.816 24.2349 14.816L24.2349 13.2283C25.1342 13.2283 25.8633 13.9573 25.8633 14.8566L24.2756 14.8566ZM26.9522 16.1027C25.893 16.9937 24.2756 16.2407 24.2756 14.8566L25.8633 14.8566C25.8633 14.8673 25.8647 14.8726 25.8652 14.8742C25.8657 14.8759 25.8663 14.8771 25.8671 14.8783C25.8692 14.8814 25.8752 14.8881 25.8867 14.8934C25.8983 14.8988 25.9073 14.8991 25.9109 14.8987C25.9124 14.8986 25.9137 14.8983 25.9154 14.8975C25.9169 14.8969 25.9219 14.8946 25.9301 14.8877L26.9522 16.1027ZM25.9293 9.12847C25.9211 9.12161 25.9162 9.11934 25.9147 9.11872C25.9131 9.11801 25.9118 9.11772 25.9104 9.11756C25.9069 9.11717 25.898 9.11745 25.8865 9.12279C25.875 9.12813 25.8691 9.13477 25.8671 9.13774C25.8663 9.13894 25.8657 9.14006 25.8652 9.14178C25.8647 9.1433 25.8633 9.14855 25.8633 9.15921L24.2756 9.15921C24.2756 7.77547 25.8925 7.02271 26.9514 7.91352L25.9293 9.12847ZM30.134 10.591C31.0138 11.3311 31.0138 12.6857 30.134 13.4258L29.1119 12.2109C29.2376 12.1052 29.2376 11.9117 29.1119 11.8059L30.134 10.591Z" fill="#F69234"/>
<path d="M13.7928 5.86028L16.9754 3.18284L15.9532 1.96789L12.7707 4.64534L13.7928 5.86028ZM16.9746 8.94208L13.7928 6.26527L12.7707 7.48021L15.9525 10.157L16.9746 8.94208ZM20.5327 7.28264L18.6697 7.28264L18.6697 8.87034L20.5327 8.87034L20.5327 7.28264ZM20.7973 5.10609L20.7973 7.01802L22.385 7.01802L22.385 5.10609L20.7973 5.10609ZM18.6693 4.84147L20.5327 4.84147L20.5327 3.25376L18.6693 3.25376L18.6693 4.84147ZM18.6693 3.25376C18.6471 3.25376 18.6291 3.23577 18.6291 3.21358L17.0414 3.21358C17.0414 4.11264 17.7702 4.84147 18.6693 4.84147L18.6693 3.25376ZM22.385 5.10609C22.385 4.08308 21.5557 3.25376 20.5327 3.25376L20.5327 4.84147C20.6788 4.84147 20.7973 4.95994 20.7973 5.10609L22.385 5.10609ZM20.5327 8.87034C21.5557 8.87034 22.385 8.04103 22.385 7.01802L20.7973 7.01802C20.7973 7.16416 20.6788 7.28264 20.5327 7.28264L20.5327 8.87034ZM18.6291 8.91098C18.6291 8.88854 18.6473 8.87034 18.6697 8.87034L18.6697 7.28264C17.7704 7.28264 17.0414 8.01167 17.0414 8.91098L18.6291 8.91098ZM15.9525 10.157C17.0117 11.0481 18.6291 10.2951 18.6291 8.91098L17.0414 8.91098C17.0414 8.92169 17.0399 8.92699 17.0395 8.92855C17.0389 8.93031 17.0383 8.93147 17.0375 8.9327C17.0355 8.93575 17.0295 8.94244 17.0179 8.94782C17.0064 8.9532 16.9974 8.95349 16.9937 8.95309C16.9923 8.95292 16.991 8.95262 16.9893 8.9519C16.9878 8.95126 16.9828 8.94897 16.9746 8.94208L15.9525 10.157ZM16.9754 3.18284C16.9835 3.17598 16.9885 3.17371 16.9899 3.17309C16.9916 3.17238 16.9928 3.17209 16.9942 3.17193C16.9978 3.17154 17.0067 3.17182 17.0182 3.17716C17.0297 3.1825 17.0356 3.18914 17.0376 3.19211C17.0384 3.19331 17.039 3.19443 17.0395 3.19615C17.0399 3.19767 17.0414 3.20293 17.0414 3.21358L18.6291 3.21358C18.6291 1.82984 17.0121 1.07708 15.9532 1.96789L16.9754 3.18284ZM12.7707 4.64534C11.8909 5.38551 11.8909 6.74004 12.7707 7.48021L13.7928 6.26527C13.6671 6.15953 13.6671 5.96602 13.7928 5.86028L12.7707 4.64534Z" fill="#F69234"/>
<path d="M6.00002 13L20.1667 13C20.6269 13 21 13.3731 21 13.8333L21 18.3856L21 26.3333C21 27.2538 20.2538 28 19.3334 28L9.49085 28L3.50002 28C3.03978 28 2.66669 27.6269 2.66669 27.1667L2.66669 25.0833L2.66669 16.3333C2.66669 14.4924 4.15907 13 6.00002 13Z" stroke="#F69234" stroke-width="1.875" stroke-linecap="round" stroke-linejoin="round"/>
</svg>
