<svg width="20" height="20" viewBox="0 0 20 20" fill="none" xmlns="http://www.w3.org/2000/svg">
<path fill-rule="evenodd" clip-rule="evenodd" d="M6.37216 6.78449H3.7998C3.24752 6.78449 2.7998 7.23221 2.7998 7.78449V11.7845C2.7998 12.3368 3.24752 12.7845 3.7998 12.7845H6.37216L9.40671 15.3329C10.0573 15.8792 11.0498 15.4167 11.0498 14.5671L11.0498 5.00192C11.0498 4.1523 10.0573 3.68975 9.40671 4.23613L6.37216 6.78449Z" fill="#217DC1"/>
<path fill-rule="evenodd" clip-rule="evenodd" d="M16.2828 7.64645C16.478 7.45118 16.7946 7.45118 16.9899 7.64645C17.1851 7.84171 17.1851 8.15829 16.9899 8.35355L15.5253 9.81811L16.9899 11.2828C17.1852 11.478 17.1852 11.7946 16.9899 11.9899C16.7947 12.1851 16.4781 12.1851 16.2828 11.9899L14.8182 10.5252L13.3536 11.9899C13.1583 12.1851 12.8417 12.1851 12.6464 11.9899C12.4512 11.7946 12.4512 11.478 12.6464 11.2828L14.1111 9.81811L12.6465 8.35355C12.4513 8.15829 12.4513 7.84171 12.6465 7.64645C12.8418 7.45118 13.1584 7.45118 13.3536 7.64645L14.8182 9.11101L16.2828 7.64645Z" fill="#217DC1"/>
</svg>
