<svg width="80" height="80" viewBox="0 0 80 80" fill="none" xmlns="http://www.w3.org/2000/svg">
<path d="M60.3 31.6001C59.3 31.6001 58.5 32.4001 58.5 33.4001C58.5 34.4001 59.3 35.2001 60.3 35.2001C61.3 35.2001 62.1 34.4001 62.1 33.4001C62.1 32.4001 61.3 31.6001 60.3 31.6001Z" fill="#72573D"/>
<path d="M60.3 39.0001C59.3 39.0001 58.5 39.8001 58.5 40.8001C58.5 41.8001 59.3 42.6001 60.3 42.6001C61.3 42.6001 62.1 41.8001 62.1 40.8001C62.1 39.8001 61.3 39.0001 60.3 39.0001Z" fill="#72573D"/>
<path d="M60.3 20.6001H42.6L50.5 12.7001C51.2 12.0001 51.2 10.8001 50.5 10.1001C49.8 9.4001 48.6 9.4001 47.9 10.1001L38.1 19.9001L28.4 10.0001C27.7 9.3001 26.5 9.3001 25.8 10.0001C25.1 10.7001 25.1 11.9001 25.8 12.6001L33.7 20.5001H19.7C14.6 20.5001 10.5 24.6001 10.5 29.7001V59.2001C10.5 64.3001 14.6 68.4001 19.7 68.4001H60.3C65.4 68.4001 69.5 64.3001 69.5 59.2001V29.8001C69.5 24.7001 65.4 20.6001 60.3 20.6001ZM51.1 64.8001H19.7C16.7 64.8001 14.2 62.3001 14.2 59.3001V29.8001C14.2 26.8001 16.7 24.3001 19.7 24.3001H51V64.8001H51.1ZM65.8 59.3001C65.8 62.3001 63.3 64.8001 60.3 64.8001H54.8V24.3001H60.3C63.3 24.3001 65.8 26.8001 65.8 29.8001V59.3001Z" fill="#72573D"/>
</svg>
