<svg width="16" height="16" viewBox="0 0 16 16" fill="none" xmlns="http://www.w3.org/2000/svg">
<circle cx="10.7778" cy="9.55512" r="3.77778" stroke="#217DC1" stroke-width="0.6" stroke-linecap="round" stroke-linejoin="round"/>
<path d="M5.11176 9.55556C3.02535 9.55556 1.33398 7.86419 1.33398 5.77778C1.33398 3.69137 3.02535 2 5.11176 2C6.7497 2 8.14418 3.0424 8.66798 4.5" stroke="#217DC1" stroke-width="0.6" stroke-linecap="round" stroke-linejoin="round"/>
<path d="M11.3678 10.8143C11.2065 10.8143 11.1113 10.7158 11.1113 10.5476V8.56527C11.1113 8.3954 11.2065 8.29688 11.3678 8.29688C11.5292 8.29688 11.6243 8.3954 11.6243 8.56527V9.4146H11.6396L12.562 8.40729C12.6333 8.32915 12.6979 8.29688 12.7828 8.29688C12.9187 8.29688 13.024 8.40049 13.024 8.53299C13.024 8.60433 12.9986 8.66039 12.934 8.72834L12.2579 9.43669L12.9935 10.3302C13.0699 10.4253 13.1039 10.4984 13.1039 10.568C13.1039 10.7073 12.9969 10.816 12.8559 10.816C12.7505 10.816 12.6792 10.7769 12.5994 10.675L11.8689 9.77642L11.6243 10.0329V10.5476C11.6243 10.7158 11.5292 10.8143 11.3678 10.8143Z" fill="#217DC1"/>
<path d="M8.83072 10.8143C8.66934 10.8143 8.57422 10.7158 8.57422 10.5476V8.56527C8.57422 8.3954 8.66934 8.29688 8.83072 8.29688C8.99209 8.29688 9.08722 8.3954 9.08722 8.56527V9.32627H10.1914V8.56527C10.1914 8.3954 10.2865 8.29688 10.4479 8.29688C10.6092 8.29688 10.7044 8.3954 10.7044 8.56527V10.5476C10.7044 10.7158 10.6092 10.8143 10.4479 10.8143C10.2865 10.8143 10.1914 10.7158 10.1914 10.5476V9.74924H9.08722V10.5476C9.08722 10.7158 8.99209 10.8143 8.83072 10.8143Z" fill="#217DC1"/>
<path d="M6.24723 7.03805C5.7442 7.03805 5.42179 6.83718 5.32388 6.57047C5.307 6.52658 5.29688 6.47932 5.29688 6.43374C5.29688 6.2987 5.38972 6.20923 5.52138 6.20923C5.62604 6.20923 5.69525 6.24975 5.75602 6.35778C5.83535 6.54346 6.0261 6.62786 6.25904 6.62786C6.5325 6.62786 6.71818 6.4962 6.71818 6.31727C6.71818 6.15691 6.6034 6.06575 6.29787 6.0033L6.0396 5.95266C5.55345 5.85644 5.31544 5.62349 5.31544 5.26057C5.31544 4.81493 5.70369 4.51953 6.24554 4.51953C6.69118 4.51953 7.02709 4.7069 7.13512 5.02425C7.14694 5.05801 7.15369 5.09346 7.15369 5.13734C7.15369 5.25888 7.06591 5.34159 6.93594 5.34159C6.82115 5.34159 6.75026 5.29602 6.69286 5.19136C6.61184 5.00737 6.45485 4.93141 6.24554 4.93141C5.99403 4.93141 5.82691 5.04957 5.82691 5.2285C5.82691 5.37873 5.94338 5.47157 6.23204 5.52896L6.48861 5.58129C7.00515 5.68426 7.22796 5.89189 7.22796 6.26156C7.22796 6.73758 6.85491 7.03805 6.24723 7.03805Z" fill="#217DC1"/>
<path d="M3.92945 7.03742C3.30489 7.03742 2.9082 6.67281 2.9082 6.13602V4.79405C2.9082 4.62525 3.00273 4.52734 3.16309 4.52734C3.32345 4.52734 3.41798 4.62525 3.41798 4.79405V6.08538C3.41798 6.39766 3.60198 6.60191 3.92945 6.60191C4.25524 6.60191 4.43923 6.39766 4.43923 6.08538V4.79405C4.43923 4.62525 4.53376 4.52734 4.69412 4.52734C4.85448 4.52734 4.94901 4.62525 4.94901 4.79405V6.13602C4.94901 6.67281 4.55233 7.03742 3.92945 7.03742Z" fill="#217DC1"/>
</svg>
