<svg width="16" height="16" viewBox="0 0 16 16" fill="none" xmlns="http://www.w3.org/2000/svg">
<path d="M9.33333 3.33333H13C13.5523 3.33333 14 3.78105 14 4.33333V11.6667C14 12.219 13.5523 12.6667 13 12.6667H9.33333V3.33333Z" stroke="#808080" stroke-width="0.666667"/>
<rect x="2.00008" y="3.33333" width="12" height="9.33333" rx="1" stroke="#808080" stroke-width="0.666667"/>
<path d="M8.2357 8.2357C8.36588 8.10553 8.36588 7.89447 8.2357 7.7643L6.11438 5.64298C5.98421 5.5128 5.77315 5.5128 5.64298 5.64298C5.5128 5.77315 5.5128 5.98421 5.64298 6.11438L7.5286 8L5.64298 9.88562C5.5128 10.0158 5.5128 10.2268 5.64298 10.357C5.77315 10.4872 5.98421 10.4872 6.11438 10.357L8.2357 8.2357ZM2 8.33333H8V7.66667H2V8.33333Z" fill="#808080"/>
</svg>
