<svg width="128" height="128" viewBox="0 0 128 128" fill="none" xmlns="http://www.w3.org/2000/svg">
<path fill-rule="evenodd" clip-rule="evenodd" d="M29 21.5146H65C68.3137 21.5146 71 24.2009 71 27.5146V75.2605C72.2733 74.524 73.6101 73.8848 75 73.3532V27.5146C75 21.9918 70.5229 17.5146 65 17.5146H29C23.4772 17.5146 19 21.9918 19 27.5146V95.5146C19 101.037 23.4772 105.515 29 105.515H57.6444C57.3601 104.213 57.1665 102.877 57.0703 101.515H29C25.6863 101.515 23 98.8284 23 95.5146V27.5146C23 24.2009 25.6863 21.5146 29 21.5146Z" fill="#D7E1E8"/>
<rect x="39" y="23.5146" width="16" height="4" rx="2" fill="#D7E1E8"/>
<rect x="31" y="79.5146" width="8" height="2.4" rx="1.2" fill="#9BC4E3"/>
<rect x="43" y="79.5146" width="8" height="2.4" rx="1.2" fill="#9BC4E3"/>
<rect x="55" y="79.5146" width="8" height="2.4" rx="1.2" fill="#9BC4E3"/>
<path fill-rule="evenodd" clip-rule="evenodd" d="M54.4049 52.815V47.9447C54.4049 43.885 51.0922 40.6047 47.065 40.6047H46.9676C42.9079 40.6047 39.6277 43.9174 39.6277 47.9447V52.8163C39.6706 52.7816 39.7137 52.7472 39.7571 52.7131C39.7135 52.7577 39.6703 52.8028 39.6276 52.8483C37.7764 54.6995 36.6396 57.2328 36.6396 60.0583C36.6396 65.7743 41.2839 70.4186 47 70.4186C52.716 70.4186 57.3603 65.7743 57.3603 60.0583C57.3603 57.2652 56.2236 54.6995 54.4373 52.8483C54.4266 52.8372 54.4158 52.8261 54.4049 52.815ZM43.2976 50.3999C44.4578 49.953 45.7132 49.698 47.0325 49.698C48.364 49.698 49.6307 49.9578 50.7999 50.4125C50.7999 50.4125 50.7999 50.4125 50.7999 50.4125V47.9447C50.7999 45.8986 49.1436 44.2422 47.0975 44.2422H47.0001C44.954 44.2422 43.2976 45.8986 43.2976 47.9447V50.3999ZM46.935 55.3815C45.5385 55.414 44.3693 56.5832 44.3368 57.9797C44.3368 58.1421 44.3368 58.3045 44.3693 58.4994C44.4992 59.2464 44.9539 59.8959 45.571 60.2856C45.8308 60.448 45.9607 60.7728 45.8957 61.0651L45.1163 64.8325C45.0838 65.0598 45.2462 65.2872 45.4735 65.2872H48.5264C48.7538 65.2872 48.9162 65.0598 48.8837 64.8325L48.1042 61.0651C48.0393 60.7403 48.1692 60.448 48.429 60.2856C49.0461 59.8959 49.5008 59.2464 49.6307 58.4994C49.6631 58.3695 49.6631 58.2071 49.6631 58.0447V58.0447C49.6631 56.5507 48.429 55.3491 46.935 55.3815Z" fill="#9BC4E3"/>
<path fill-rule="evenodd" clip-rule="evenodd" d="M105.269 112.743C105.272 112.749 105.274 112.756 105.273 112.763C105.258 112.767 105.242 112.767 105.226 112.763C102.416 117.063 98.312 120.332 93.5236 122.086C88.7352 123.839 83.5166 123.983 78.6411 122.496C73.7655 121.009 69.4925 117.971 66.455 113.832C63.4176 109.693 61.7773 104.672 61.7773 99.5147C61.7773 94.357 63.4176 89.3366 66.455 85.1972C69.4925 81.0579 73.7655 78.0198 78.6411 76.5332C83.5166 75.0466 88.7352 75.1905 93.5236 76.9437C98.312 78.6969 102.416 81.966 105.226 86.2666C105.226 86.2794 105.221 86.2916 105.212 86.3006C105.203 86.3096 105.191 86.3146 105.179 86.3146C102.527 83.2413 99.0125 81.0606 95.105 80.0639C91.1974 79.0671 87.0826 79.3017 83.3101 80.7364C79.5377 82.171 76.2871 84.7374 73.9925 88.0928C71.6979 91.4482 70.4685 95.4328 70.4685 99.5147C70.4685 103.596 71.6979 107.581 73.9925 110.937C76.2871 114.292 79.5377 116.858 83.3101 118.293C87.0826 119.728 91.1974 119.962 95.105 118.965C99.0125 117.969 102.527 115.788 105.179 112.715C105.185 112.712 105.192 112.71 105.199 112.71C105.207 112.71 105.214 112.712 105.22 112.715C105.227 112.714 105.234 112.714 105.24 112.716C105.244 112.718 105.248 112.72 105.252 112.722C105.254 112.723 105.256 112.725 105.258 112.726C105.263 112.731 105.267 112.737 105.269 112.743ZM105.219 110.873C103.041 112.919 100.32 114.277 97.3908 114.78C94.4616 115.283 91.4512 114.91 88.7283 113.706C86.0054 112.502 83.6885 110.519 82.0613 108.001C80.4341 105.483 79.5674 102.539 79.5674 99.5296C79.5674 96.5201 80.4341 93.576 82.0613 91.058C83.6885 88.54 86.0054 86.5575 88.7283 85.3535C91.4512 84.1494 94.4616 83.7762 97.3908 84.2794C100.32 84.7826 103.041 86.1405 105.219 88.1866C105.225 88.1893 105.231 88.1907 105.237 88.1907C105.243 88.1907 105.249 88.1893 105.255 88.1866C105.267 88.1866 105.279 88.1816 105.288 88.1726C105.297 88.1636 105.302 88.1514 105.302 88.1386C105.305 88.1268 105.305 88.1145 105.302 88.1026C102.969 85.1412 99.7849 82.9875 96.1903 81.9396C92.5958 80.8916 88.7687 81.0013 85.2384 82.2533C81.7081 83.5053 78.6492 85.8379 76.485 88.9282C74.3208 92.0184 73.1583 95.7137 73.1583 99.5026C73.1583 103.292 74.3208 106.987 76.485 110.077C78.6492 113.167 81.7081 115.5 85.2384 116.752C88.7687 118.004 92.5958 118.114 96.1903 117.066C99.7849 116.018 102.969 113.864 105.302 110.903C105.3 110.894 105.296 110.886 105.29 110.88C105.284 110.873 105.277 110.868 105.268 110.865C105.26 110.862 105.252 110.862 105.243 110.863C105.234 110.864 105.226 110.867 105.219 110.873ZM99.2097 111.424C101.37 111.261 103.444 110.497 105.203 109.216C105.208 109.2 105.22 109.187 105.235 109.18C105.25 109.173 105.267 109.172 105.283 109.177C105.299 109.183 105.311 109.195 105.319 109.21C105.326 109.225 105.327 109.242 105.321 109.258C105.322 109.261 105.323 109.264 105.324 109.266C105.325 109.271 105.325 109.275 105.325 109.279C105.325 109.287 105.324 109.294 105.321 109.3C103.412 111.259 100.972 112.599 98.3092 113.148C95.6468 113.698 92.8831 113.434 90.3694 112.389C87.8558 111.344 85.7057 109.565 84.1925 107.279C82.6793 104.993 81.8713 102.303 81.8713 99.5503C81.8713 96.7979 82.6793 94.1077 84.1925 91.8216C85.7057 89.5355 87.8558 87.7569 90.3694 86.7117C92.8831 85.6666 95.6468 85.4022 98.3092 85.9522C100.972 86.5022 103.412 87.8416 105.321 89.8003C105.325 89.812 105.325 89.8247 105.321 89.8363C105.321 89.8507 105.316 89.8644 105.306 89.8745C105.296 89.8846 105.282 89.8903 105.268 89.8903H105.238C103.484 88.603 101.413 87.8314 99.2534 87.6605C97.0938 87.4896 94.9295 87.9261 92.9992 88.9218C91.0689 89.9176 89.4475 91.4339 88.3137 93.3036C87.1799 95.1733 86.5779 97.3239 86.5738 99.5182C86.5698 101.712 87.164 103.865 88.2908 105.739C89.4177 107.613 91.0336 109.136 92.9602 110.139C94.8869 111.142 97.0495 111.586 99.2097 111.424ZM100.521 102.513C101.218 102.04 101.725 101.33 101.95 100.511H108.199C107.934 103.007 106.735 105.306 104.847 106.934C102.959 108.561 100.528 109.394 98.0523 109.26C95.5769 109.125 93.2466 108.035 91.5413 106.212C89.8359 104.39 88.8854 101.975 88.8854 99.4636C88.8854 96.9526 89.8359 94.5372 91.5413 92.7148C93.2466 90.8924 95.5769 89.8018 98.0523 89.6676C100.528 89.5334 102.959 90.3658 104.847 91.9935C106.735 93.6211 107.934 95.9199 108.199 98.4166H101.891C101.62 97.6116 101.074 96.9317 100.351 96.5002C99.6273 96.0687 98.7752 95.9143 97.9491 96.0651C97.1231 96.2159 96.3778 96.6619 95.8487 97.322C95.3197 97.9822 95.0419 98.8126 95.066 99.6625C95.09 100.512 95.4143 101.325 95.9798 101.954C96.5453 102.582 97.3145 102.984 98.1478 103.087C98.981 103.189 99.8229 102.986 100.521 102.513Z" fill="#B9964B"/>
<path d="M63.6953 4L63.6953 10.741" stroke="#9BC4E3" stroke-width="3.46784"/>
<path d="M90.5002 25.9055L84.1055 25.9055" stroke="#9BC4E3" stroke-width="3.46784"/>
<path d="M75.7838 16.0512L82.3922 8.63241" stroke="#9BC4E3" stroke-width="3.46784"/>
</svg>
