<svg width="20" height="20" viewBox="0 0 20 20" fill="none" xmlns="http://www.w3.org/2000/svg">
<g clip-path="url(#clip0_4246_20632)">
<path d="M0 0H20V20H0V0Z" fill="#003399"/>
<path d="M9.99991 3.18018L9.70361 4.16783L10.1974 4.2666L9.99991 3.18018Z" fill="#FFCC00"/>
<path d="M10.0001 3.18018L10.2964 4.16783L9.80256 4.2666L10.0001 3.18018Z" fill="#FFCC00"/>
<path d="M10.9392 3.86261L9.90834 3.88601L9.96701 4.38619L10.9392 3.86261Z" fill="#FFCC00"/>
<path d="M10.9392 3.86261L10.0914 4.44961L9.84491 4.01047L10.9392 3.86261Z" fill="#FFCC00"/>
<path d="M10.5806 4.96688L10.2398 3.9937L9.78222 4.20406L10.5806 4.96688Z" fill="#FFCC00"/>
<path d="M10.5805 4.96683L9.76029 4.34196L10.1018 3.97179L10.5805 4.96683Z" fill="#FFCC00"/>
<path d="M9.06078 3.86261L10.0917 3.88601L10.033 4.38619L9.06078 3.86261Z" fill="#FFCC00"/>
<path d="M9.06055 3.86261L9.90831 4.44961L10.1548 4.01047L9.06055 3.86261Z" fill="#FFCC00"/>
<path d="M9.4194 4.96688L9.76022 3.9937L10.2178 4.20406L9.4194 4.96688Z" fill="#FFCC00"/>
<path d="M9.41947 4.96683L10.2397 4.34196L9.89825 3.97179L9.41947 4.96683Z" fill="#FFCC00"/>
<path d="M9.99991 15.032L9.70361 16.0196L10.1974 16.1184L9.99991 15.032Z" fill="#FFCC00"/>
<path d="M10.0001 15.032L10.2964 16.0196L9.80256 16.1184L10.0001 15.032Z" fill="#FFCC00"/>
<path d="M10.9392 15.7145L9.90834 15.7379L9.96701 16.2381L10.9392 15.7145Z" fill="#FFCC00"/>
<path d="M10.9392 15.7144L10.0914 16.3014L9.84491 15.8623L10.9392 15.7144Z" fill="#FFCC00"/>
<path d="M10.5806 16.8187L10.2398 15.8455L9.78222 16.0559L10.5806 16.8187Z" fill="#FFCC00"/>
<path d="M10.5805 16.8188L9.76029 16.1939L10.1018 15.8237L10.5805 16.8188Z" fill="#FFCC00"/>
<path d="M9.06078 15.7145L10.0917 15.7379L10.033 16.2381L9.06078 15.7145Z" fill="#FFCC00"/>
<path d="M9.06055 15.7144L9.90831 16.3014L10.1548 15.8623L9.06055 15.7144Z" fill="#FFCC00"/>
<path d="M9.4194 16.8187L9.76022 15.8455L10.2178 16.0559L9.4194 16.8187Z" fill="#FFCC00"/>
<path d="M9.41947 16.8188L10.2397 16.1939L9.89825 15.8237L9.41947 16.8188Z" fill="#FFCC00"/>
<path d="M4.07413 9.10608L3.77783 10.0937L4.27166 10.1925L4.07413 9.10608Z" fill="#FFCC00"/>
<path d="M4.07407 9.10608L4.37036 10.0937L3.87653 10.1925L4.07407 9.10608Z" fill="#FFCC00"/>
<path d="M5.01344 9.78851L3.98256 9.81192L4.04123 10.3121L5.01344 9.78851Z" fill="#FFCC00"/>
<path d="M5.01342 9.78852L4.16567 10.3755L3.91913 9.93638L5.01342 9.78852Z" fill="#FFCC00"/>
<path d="M4.65458 10.8928L4.31376 9.9196L3.85619 10.13L4.65458 10.8928Z" fill="#FFCC00"/>
<path d="M4.6545 10.8927L3.83427 10.2679L4.17573 9.8977L4.6545 10.8927Z" fill="#FFCC00"/>
<path d="M3.13476 9.78851L4.16563 9.81192L4.10696 10.3121L3.13476 9.78851Z" fill="#FFCC00"/>
<path d="M3.13477 9.78852L3.98253 10.3755L4.22906 9.93638L3.13477 9.78852Z" fill="#FFCC00"/>
<path d="M3.49361 10.8928L3.83443 9.9196L4.292 10.13L3.49361 10.8928Z" fill="#FFCC00"/>
<path d="M3.49345 10.8927L4.31368 10.2679L3.97222 9.8977L3.49345 10.8927Z" fill="#FFCC00"/>
<path d="M6.52909 5.80558L7.34933 5.18071L7.00787 4.81054L6.52909 5.80558Z" fill="#FFCC00"/>
<path d="M6.52926 5.80551L6.87008 4.83232L7.32765 5.04268L6.52926 5.80551Z" fill="#FFCC00"/>
<path d="M6.17042 4.70124L7.01817 5.28823L7.2647 4.8491L6.17042 4.70124Z" fill="#FFCC00"/>
<path d="M6.1704 4.70135L7.20128 4.72476L7.14261 5.22494L6.1704 4.70135Z" fill="#FFCC00"/>
<path d="M7.10977 4.0188L6.81348 5.00645L7.3073 5.10522L7.10977 4.0188Z" fill="#FFCC00"/>
<path d="M7.10971 4.0188L7.40601 5.00645L6.91218 5.10522L7.10971 4.0188Z" fill="#FFCC00"/>
<path d="M7.69039 5.80558L6.87015 5.18071L7.21162 4.81054L7.69039 5.80558Z" fill="#FFCC00"/>
<path d="M7.69022 5.80551L7.3494 4.83232L6.89184 5.04268L7.69022 5.80551Z" fill="#FFCC00"/>
<path d="M8.04906 4.70124L7.20131 5.28823L6.95478 4.8491L8.04906 4.70124Z" fill="#FFCC00"/>
<path d="M8.04908 4.70135L7.0182 4.72476L7.07687 5.22494L8.04908 4.70135Z" fill="#FFCC00"/>
<path d="M5.4932 8.00253L5.15238 7.02934L4.69481 7.2397L5.4932 8.00253Z" fill="#FFCC00"/>
<path d="M5.49337 8.00248L4.67313 7.37761L5.0146 7.00744L5.49337 8.00248Z" fill="#FFCC00"/>
<path d="M4.33231 8.00248L5.15255 7.37761L4.81109 7.00744L4.33231 8.00248Z" fill="#FFCC00"/>
<path d="M4.33224 8.00253L4.67306 7.02934L5.13063 7.2397L4.33224 8.00253Z" fill="#FFCC00"/>
<path d="M3.9734 6.89826L4.82115 7.48526L5.06768 7.04612L3.9734 6.89826Z" fill="#FFCC00"/>
<path d="M3.97338 6.89825L5.00426 6.92166L4.94559 7.42183L3.97338 6.89825Z" fill="#FFCC00"/>
<path d="M5.85204 6.89826L5.00429 7.48526L4.75776 7.04612L5.85204 6.89826Z" fill="#FFCC00"/>
<path d="M5.85206 6.89825L4.82118 6.92166L4.87985 7.42183L5.85206 6.89825Z" fill="#FFCC00"/>
<path d="M4.91269 6.21582L5.20898 7.20347L4.71516 7.30224L4.91269 6.21582Z" fill="#FFCC00"/>
<path d="M4.91275 6.21582L4.61646 7.20347L5.11028 7.30224L4.91275 6.21582Z" fill="#FFCC00"/>
<path d="M5.85304 12.8384L4.82216 12.8618L4.88083 13.362L5.85304 12.8384Z" fill="#FFCC00"/>
<path d="M5.85326 12.8384L5.00551 13.4254L4.75898 12.9863L5.85326 12.8384Z" fill="#FFCC00"/>
<path d="M5.49442 13.9426L5.1536 12.9694L4.69603 13.1798L5.49442 13.9426Z" fill="#FFCC00"/>
<path d="M5.49435 13.9427L4.67411 13.3178L5.01557 12.9476L5.49435 13.9427Z" fill="#FFCC00"/>
<path d="M4.33329 13.9427L5.15353 13.3178L4.81207 12.9476L4.33329 13.9427Z" fill="#FFCC00"/>
<path d="M4.33321 13.9427L4.67403 12.9695L5.1316 13.1799L4.33321 13.9427Z" fill="#FFCC00"/>
<path d="M4.91391 12.156L5.21021 13.1437L4.71638 13.2424L4.91391 12.156Z" fill="#FFCC00"/>
<path d="M4.91373 12.156L4.61743 13.1437L5.11126 13.2424L4.91373 12.156Z" fill="#FFCC00"/>
<path d="M3.9746 12.8384L5.00548 12.8618L4.94681 13.362L3.9746 12.8384Z" fill="#FFCC00"/>
<path d="M3.97462 12.8384L4.82237 13.4254L5.0689 12.9863L3.97462 12.8384Z" fill="#FFCC00"/>
<path d="M7.99659 14.8264L6.96571 14.8498L7.02438 15.3499L7.99659 14.8264Z" fill="#FFCC00"/>
<path d="M7.99682 14.8264L7.14906 15.4134L6.90253 14.9742L7.99682 14.8264Z" fill="#FFCC00"/>
<path d="M7.63798 15.9306L7.29716 14.9574L6.83959 15.1678L7.63798 15.9306Z" fill="#FFCC00"/>
<path d="M7.6379 15.9306L6.81766 15.3057L7.15913 14.9355L7.6379 15.9306Z" fill="#FFCC00"/>
<path d="M6.47684 15.9306L7.29708 15.3057L6.95562 14.9355L6.47684 15.9306Z" fill="#FFCC00"/>
<path d="M6.47677 15.9306L6.81759 14.9574L7.27516 15.1678L6.47677 15.9306Z" fill="#FFCC00"/>
<path d="M7.05746 14.1439L7.35376 15.1316L6.85993 15.2303L7.05746 14.1439Z" fill="#FFCC00"/>
<path d="M7.05728 14.1439L6.76099 15.1316L7.25481 15.2303L7.05728 14.1439Z" fill="#FFCC00"/>
<path d="M6.11816 14.8264L7.14903 14.8498L7.09036 15.3499L6.11816 14.8264Z" fill="#FFCC00"/>
<path d="M6.11817 14.8264L6.96593 15.4134L7.21246 14.9742L6.11817 14.8264Z" fill="#FFCC00"/>
<path d="M15.9259 9.10608L16.2222 10.0937L15.7283 10.1925L15.9259 9.10608Z" fill="#FFCC00"/>
<path d="M15.9259 9.10608L15.6296 10.0937L16.1235 10.1925L15.9259 9.10608Z" fill="#FFCC00"/>
<path d="M14.9866 9.78851L16.0174 9.81192L15.9588 10.3121L14.9866 9.78851Z" fill="#FFCC00"/>
<path d="M14.9866 9.78852L15.8343 10.3755L16.0809 9.93638L14.9866 9.78852Z" fill="#FFCC00"/>
<path d="M15.3454 10.8928L15.6862 9.9196L16.1438 10.13L15.3454 10.8928Z" fill="#FFCC00"/>
<path d="M15.3455 10.8927L16.1657 10.2679L15.8243 9.8977L15.3455 10.8927Z" fill="#FFCC00"/>
<path d="M16.8652 9.78851L15.8344 9.81192L15.893 10.3121L16.8652 9.78851Z" fill="#FFCC00"/>
<path d="M16.8652 9.78852L16.0175 10.3755L15.7709 9.93638L16.8652 9.78852Z" fill="#FFCC00"/>
<path d="M16.5064 10.8928L16.1656 9.9196L15.708 10.13L16.5064 10.8928Z" fill="#FFCC00"/>
<path d="M16.5066 10.8927L15.6863 10.2679L16.0278 9.8977L16.5066 10.8927Z" fill="#FFCC00"/>
<path d="M13.4707 5.80558L12.6504 5.18071L12.9919 4.81054L13.4707 5.80558Z" fill="#FFCC00"/>
<path d="M13.4707 5.80551L13.1299 4.83232L12.6724 5.04268L13.4707 5.80551Z" fill="#FFCC00"/>
<path d="M13.8296 4.70124L12.9818 5.28823L12.7353 4.8491L13.8296 4.70124Z" fill="#FFCC00"/>
<path d="M13.8296 4.70135L12.7987 4.72476L12.8574 5.22494L13.8296 4.70135Z" fill="#FFCC00"/>
<path d="M12.8902 4.0188L13.1865 5.00645L12.6927 5.10522L12.8902 4.0188Z" fill="#FFCC00"/>
<path d="M12.8903 4.0188L12.594 5.00645L13.0878 5.10522L12.8903 4.0188Z" fill="#FFCC00"/>
<path d="M12.3096 5.80558L13.1298 5.18071L12.7884 4.81054L12.3096 5.80558Z" fill="#FFCC00"/>
<path d="M12.3098 5.80551L12.6506 4.83232L13.1082 5.04268L12.3098 5.80551Z" fill="#FFCC00"/>
<path d="M11.9509 4.70124L12.7987 5.28823L13.0452 4.8491L11.9509 4.70124Z" fill="#FFCC00"/>
<path d="M11.9509 4.70135L12.9818 4.72476L12.9231 5.22494L11.9509 4.70135Z" fill="#FFCC00"/>
<path d="M14.5068 8.00253L14.8476 7.02934L15.3052 7.2397L14.5068 8.00253Z" fill="#FFCC00"/>
<path d="M14.5066 8.00248L15.3269 7.37761L14.9854 7.00744L14.5066 8.00248Z" fill="#FFCC00"/>
<path d="M15.6677 8.00248L14.8474 7.37761L15.1889 7.00744L15.6677 8.00248Z" fill="#FFCC00"/>
<path d="M15.6678 8.00253L15.3269 7.02934L14.8694 7.2397L15.6678 8.00253Z" fill="#FFCC00"/>
<path d="M16.0266 6.89826L15.1788 7.48526L14.9323 7.04612L16.0266 6.89826Z" fill="#FFCC00"/>
<path d="M16.0266 6.89825L14.9957 6.92166L15.0544 7.42183L16.0266 6.89825Z" fill="#FFCC00"/>
<path d="M14.148 6.89826L14.9957 7.48526L15.2422 7.04612L14.148 6.89826Z" fill="#FFCC00"/>
<path d="M14.1479 6.89825L15.1788 6.92166L15.1201 7.42183L14.1479 6.89825Z" fill="#FFCC00"/>
<path d="M15.0873 6.21582L14.791 7.20347L15.2848 7.30224L15.0873 6.21582Z" fill="#FFCC00"/>
<path d="M15.0872 6.21582L15.3835 7.20347L14.8897 7.30224L15.0872 6.21582Z" fill="#FFCC00"/>
<path d="M14.147 12.8384L15.1778 12.8618L15.1192 13.362L14.147 12.8384Z" fill="#FFCC00"/>
<path d="M14.1467 12.8384L14.9945 13.4254L15.241 12.9863L14.1467 12.8384Z" fill="#FFCC00"/>
<path d="M14.5056 13.9426L14.8464 12.9694L15.304 13.1798L14.5056 13.9426Z" fill="#FFCC00"/>
<path d="M14.5057 13.9427L15.3259 13.3178L14.9844 12.9476L14.5057 13.9427Z" fill="#FFCC00"/>
<path d="M15.6667 13.9427L14.8465 13.3178L15.1879 12.9476L15.6667 13.9427Z" fill="#FFCC00"/>
<path d="M15.6668 13.9427L15.326 12.9695L14.8684 13.1799L15.6668 13.9427Z" fill="#FFCC00"/>
<path d="M15.0861 12.156L14.7898 13.1437L15.2836 13.2424L15.0861 12.156Z" fill="#FFCC00"/>
<path d="M15.0863 12.156L15.3826 13.1437L14.8887 13.2424L15.0863 12.156Z" fill="#FFCC00"/>
<path d="M16.0254 12.8384L14.9945 12.8618L15.0532 13.362L16.0254 12.8384Z" fill="#FFCC00"/>
<path d="M16.0254 12.8384L15.1776 13.4254L14.9311 12.9863L16.0254 12.8384Z" fill="#FFCC00"/>
<path d="M12.0034 14.8264L13.0343 14.8498L12.9756 15.3499L12.0034 14.8264Z" fill="#FFCC00"/>
<path d="M12.0032 14.8264L12.8509 15.4134L13.0975 14.9742L12.0032 14.8264Z" fill="#FFCC00"/>
<path d="M12.362 15.9306L12.7028 14.9574L13.1604 15.1678L12.362 15.9306Z" fill="#FFCC00"/>
<path d="M12.3621 15.9306L13.1823 15.3057L12.8409 14.9355L12.3621 15.9306Z" fill="#FFCC00"/>
<path d="M13.5232 15.9306L12.7029 15.3057L13.0444 14.9355L13.5232 15.9306Z" fill="#FFCC00"/>
<path d="M13.5232 15.9306L13.1824 14.9574L12.7248 15.1678L13.5232 15.9306Z" fill="#FFCC00"/>
<path d="M12.9425 14.1439L12.6462 15.1316L13.1401 15.2303L12.9425 14.1439Z" fill="#FFCC00"/>
<path d="M12.9427 14.1439L13.239 15.1316L12.7452 15.2303L12.9427 14.1439Z" fill="#FFCC00"/>
<path d="M13.8818 14.8264L12.851 14.8498L12.9096 15.3499L13.8818 14.8264Z" fill="#FFCC00"/>
<path d="M13.8818 14.8264L13.0341 15.4134L12.7875 14.9742L13.8818 14.8264Z" fill="#FFCC00"/>
</g>
<defs>
<clipPath id="clip0_4246_20632">
<rect width="20" height="20" rx="10" fill="white"/>
</clipPath>
</defs>
</svg>
