<svg width="24" height="24" viewBox="0 0 24 24" fill="none" xmlns="http://www.w3.org/2000/svg">
<path d="M8.88719 17.9758H14.711C15.7662 17.9758 16.5066 19.0161 16.1609 20.0131V20.0131C15.9468 20.6308 15.3648 21.0451 14.711 21.0451H8.88719L7.29119 22.5797M8.88719 15.9297H6.75919L3.56719 18.9989" stroke="#9B9B9B" stroke-linecap="round" stroke-linejoin="round"/>
<path d="M17.1212 16.4039C17.5656 15.5513 17.8168 14.5819 17.8168 13.5539C17.8168 10.1435 15.0522 7.37891 11.6418 7.37891C8.23144 7.37891 5.4668 10.1435 5.4668 13.5539C5.4668 13.877 5.49161 14.1942 5.53942 14.5039" stroke="#9B9B9B" stroke-linecap="round" stroke-linejoin="round"/>
<path fill-rule="evenodd" clip-rule="evenodd" d="M10.9077 11.3768C10.7049 11.5288 10.6132 11.711 10.6132 11.8811C10.6132 12.0515 10.7049 12.2338 10.9077 12.3862C11.1109 12.5386 11.4084 12.6439 11.7526 12.6439C11.8502 12.6439 11.9438 12.6826 12.0129 12.7517C12.0819 12.8207 12.1207 12.9143 12.1207 13.012C12.1207 13.1096 12.0819 13.2032 12.0129 13.2723C11.9438 13.3413 11.8502 13.3801 11.7526 13.3801C11.2644 13.3801 10.8083 13.2321 10.466 12.9752C10.1236 12.7182 9.87695 12.3354 9.87695 11.8815C9.87695 11.4272 10.1236 11.0443 10.466 10.7874C10.8083 10.5308 11.2648 10.3828 11.7526 10.3828C12.5083 10.3828 13.2229 10.7447 13.5071 11.3473C13.5277 11.3911 13.5395 11.4384 13.5418 11.4868C13.5441 11.5351 13.5369 11.5834 13.5205 11.6289C13.5041 11.6744 13.479 11.7162 13.4465 11.752C13.4139 11.7878 13.3747 11.8169 13.3309 11.8375C13.2872 11.8581 13.2398 11.8699 13.1915 11.8722C13.1432 11.8745 13.0949 11.8673 13.0493 11.8509C13.0038 11.8346 12.962 11.8094 12.9262 11.7769C12.8904 11.7443 12.8614 11.7051 12.8407 11.6613C12.7119 11.3863 12.3099 11.1191 11.7529 11.1191C11.4087 11.1191 11.1109 11.2244 10.9077 11.3768Z" fill="#9B9B9B"/>
<path fill-rule="evenodd" clip-rule="evenodd" d="M12.3767 14.5661C12.5795 14.4198 12.6708 14.2444 12.6708 14.0808C12.6708 13.9167 12.5795 13.741 12.3763 13.5947C12.1735 13.448 11.8757 13.3467 11.5318 13.3467C11.4342 13.3467 11.3406 13.3094 11.2715 13.2429C11.2025 13.1765 11.1637 13.0864 11.1637 12.9924C11.1637 12.8984 11.2025 12.8083 11.2715 12.7419C11.3406 12.6755 11.4342 12.6381 11.5318 12.6381C12.02 12.6381 12.4761 12.7805 12.8185 13.0278C13.1608 13.2751 13.4071 13.6436 13.4071 14.0804C13.4071 14.5172 13.1608 14.8861 12.8181 15.133C12.4757 15.3803 12.02 15.5227 11.5318 15.5227C10.7761 15.5227 10.0612 15.1744 9.77735 14.5941C9.73571 14.5091 9.73085 14.4117 9.76385 14.3233C9.79685 14.2348 9.865 14.1626 9.95331 14.1226C10.0416 14.0825 10.1429 14.0778 10.2347 14.1096C10.3266 14.1413 10.4017 14.2069 10.4433 14.2919C10.5729 14.5569 10.9749 14.8141 11.5318 14.8141C11.876 14.8141 12.1735 14.7128 12.3767 14.5661ZM11.5826 9.75391C11.6803 9.75391 11.7739 9.79123 11.843 9.85767C11.912 9.92411 11.9508 10.0142 11.9508 10.1082V10.4625C11.9508 10.5564 11.912 10.6465 11.843 10.713C11.7739 10.7794 11.6803 10.8168 11.5826 10.8168C11.485 10.8168 11.3914 10.7794 11.3223 10.713C11.2533 10.6465 11.2145 10.5564 11.2145 10.4625V10.1082C11.2145 10.0142 11.2533 9.92411 11.3223 9.85767C11.3914 9.79123 11.485 9.75391 11.5826 9.75391Z" fill="#9B9B9B"/>
<path fill-rule="evenodd" clip-rule="evenodd" d="M11.6826 15.168C11.7802 15.168 11.8738 15.2068 11.9429 15.2758C12.0119 15.3448 12.0507 15.4385 12.0507 15.5361V15.9042C12.0507 16.0019 12.0119 16.0955 11.9429 16.1645C11.8738 16.2336 11.7802 16.2724 11.6826 16.2724C11.5849 16.2724 11.4913 16.2336 11.4223 16.1645C11.3532 16.0955 11.3145 16.0019 11.3145 15.9042V15.5361C11.3145 15.4385 11.3532 15.3448 11.4223 15.2758C11.4913 15.2068 11.5849 15.168 11.6826 15.168Z" fill="#9B9B9B"/>
<path d="M10.6914 5.25045C11.5729 4.47223 12.7309 4 13.9992 4C16.7606 4 18.9992 6.23858 18.9992 9C18.9992 9.61842 18.8869 10.2106 18.6817 10.7573" stroke="#9B9B9B" stroke-linecap="round" stroke-linejoin="round"/>
</svg>
