<svg width="22" height="12" viewBox="0 0 22 12" fill="none" xmlns="http://www.w3.org/2000/svg">
<rect x="0.5" y="0.5" width="21" height="11" rx="5.5" fill="#FDD032"/>
<rect x="0.5" y="0.5" width="21" height="11" rx="5.5" stroke="white"/>
<path d="M6.184 2.856H10.672V3.68H6.184V2.856ZM6.032 4.728H10.776V5.568H6.032V4.728ZM7.04 7.336H9.728V8.048H7.04V7.336ZM7.072 8.6H9.768V9.4H7.072V8.6ZM7.904 2.256H8.856V3.312H7.904V2.256ZM6.816 3.776L7.64 3.64C7.70933 3.78933 7.77333 3.95733 7.832 4.144C7.89067 4.33067 7.93067 4.49333 7.952 4.632L7.096 4.808C7.08 4.66933 7.04267 4.504 6.984 4.312C6.93067 4.11467 6.87467 3.936 6.816 3.776ZM9.144 3.616L10.072 3.784C9.992 3.976 9.91467 4.16267 9.84 4.344C9.76533 4.52533 9.69867 4.68 9.64 4.808L8.832 4.64C8.86933 4.544 8.90667 4.43733 8.944 4.32C8.98667 4.19733 9.024 4.07467 9.056 3.952C9.09333 3.82933 9.12267 3.71733 9.144 3.616ZM6.536 6.032H10.328V9.696H9.408V6.808H7.408V9.704H6.536V6.032ZM3.944 2.688H5.912V8.16H3.944V7.304H5.04V3.544H3.944V2.688ZM4.016 4.976H5.552V5.816H4.016V4.976ZM3.504 2.688H4.376V8.872H3.504V2.688ZM12.976 2.784H17.192V3.536H12.976V2.784ZM11.376 4.504H18.688V5.328H11.376V4.504ZM12.544 2.784H13.488V4.192C13.488 4.496 13.456 4.81867 13.392 5.16C13.328 5.50133 13.2053 5.82933 13.024 6.144C12.8427 6.45333 12.5707 6.72 12.208 6.944C12.1653 6.88533 12.0987 6.81333 12.008 6.728C11.9227 6.63733 11.832 6.54933 11.736 6.464C11.6453 6.37867 11.568 6.31733 11.504 6.28C11.8187 6.08267 12.048 5.86667 12.192 5.632C12.3413 5.392 12.4373 5.14667 12.48 4.896C12.5227 4.64533 12.544 4.40267 12.544 4.168V2.784ZM16.728 2.784H17.688V5.848C17.688 6.05067 17.6613 6.21067 17.608 6.328C17.56 6.44533 17.4613 6.536 17.312 6.6C17.168 6.664 16.992 6.704 16.784 6.72C16.576 6.73067 16.3333 6.736 16.056 6.736C16.0347 6.61867 15.9973 6.48533 15.944 6.336C15.896 6.18133 15.84 6.05067 15.776 5.944C15.936 5.94933 16.096 5.952 16.256 5.952C16.4213 5.952 16.5307 5.952 16.584 5.952C16.68 5.94667 16.728 5.90667 16.728 5.832V2.784ZM14.552 2.136L15.608 2.312C15.528 2.488 15.4507 2.648 15.376 2.792C15.3013 2.936 15.2347 3.06133 15.176 3.168L14.24 2.992C14.2933 2.864 14.352 2.72 14.416 2.56C14.48 2.4 14.5253 2.25867 14.552 2.136ZM14.112 4.072L14.552 3.52C14.7067 3.56267 14.8667 3.62133 15.032 3.696C15.2027 3.77067 15.3627 3.85067 15.512 3.936C15.6667 4.016 15.7947 4.09333 15.896 4.168L15.432 4.776C15.3413 4.70133 15.2213 4.62133 15.072 4.536C14.9227 4.44533 14.7627 4.36 14.592 4.28C14.4267 4.19467 14.2667 4.12533 14.112 4.072ZM14 5.832L14.456 5.272C14.6053 5.32533 14.7653 5.392 14.936 5.472C15.112 5.552 15.2773 5.632 15.432 5.712C15.592 5.792 15.7227 5.86933 15.824 5.944L15.352 6.56C15.256 6.48 15.1307 6.39733 14.976 6.312C14.8213 6.22133 14.6587 6.13333 14.488 6.048C14.3173 5.96267 14.1547 5.89067 14 5.832ZM11.336 8.672H18.664V9.496H11.336V8.672ZM12.2 6.864H17.848V9.08H16.912V7.6H16.216V9.08H15.336V7.6H14.648V9.08H13.776V7.6H13.088V9.08H12.2V6.864Z" fill="#AF741F"/>
</svg>
