<svg width="25" height="24" viewBox="0 0 25 24" fill="none" xmlns="http://www.w3.org/2000/svg">
<path d="M19.16 4.35C18.26 3.96 17.09 3.75 15.86 3.75C13.34 3.75 11.03 4.68 11.03 6.18C11.03 6.54 11.03 9.45 11.03 9.81C10.55 9.66 10.07 9.6 9.56 9.6C8.15 9.6 6.8 10.17 5.81 11.19C4.82 12.21 4.25 13.53 4.25 14.97C4.25 17.91 6.65 20.28 9.56 20.28C10.55 20.28 11.48 20.01 12.29 19.53C13.19 20.01 14.48 20.28 15.86 20.28C17.09 20.28 18.26 20.07 19.16 19.68C20.18 19.23 20.75 18.6 20.75 17.88C20.75 17.58 20.75 6.51 20.75 6.21C20.75 5.46 20.18 4.8 19.16 4.35ZM12.38 15.81L9.92 18.27C9.83 18.36 9.71 18.42 9.59 18.42C9.47 18.42 9.35 18.36 9.26 18.27L6.8 15.81C6.62 15.63 6.62 15.33 6.8 15.15C6.98 14.97 7.28 14.97 7.46 15.15L9.14 16.83V11.88C9.14 11.61 9.35 11.43 9.59 11.43C9.86 11.43 10.04 11.64 10.04 11.88V16.83L11.72 15.15C11.9 14.97 12.2 14.97 12.38 15.15C12.56 15.33 12.56 15.63 12.38 15.81ZM19.79 17.82C19.79 18.42 18.26 19.26 15.89 19.26C14.87 19.26 13.91 19.11 13.19 18.81C13.25 18.75 13.28 18.72 13.34 18.66C13.79 18.24 14.12 17.73 14.39 17.22C14.87 17.28 15.38 17.34 15.89 17.34C17.15 17.34 18.74 17.1 19.79 16.41V17.82ZM19.79 14.94C19.79 15.54 18.26 16.38 15.89 16.38C15.5 16.38 15.11 16.35 14.75 16.32C14.87 15.87 14.93 15.42 14.93 14.94C14.93 14.76 14.93 14.55 14.9 14.37C15.23 14.4 15.56 14.43 15.89 14.43C17.15 14.43 18.74 14.19 19.79 13.5V14.94ZM19.79 12C19.79 12.6 18.26 13.44 15.89 13.44C15.47 13.44 15.08 13.41 14.69 13.35C14.45 12.54 14 11.79 13.37 11.16C14.12 11.37 14.99 11.49 15.89 11.49C17.15 11.49 18.74 11.25 19.79 10.56V12ZM19.79 9.09C19.79 9.69 18.26 10.53 15.89 10.53C14.78 10.53 13.76 10.35 13.01 10.02C12.41 9.75 12.02 9.39 12.02 9.09V7.65C13.07 8.34 14.63 8.58 15.89 8.58C17.15 8.58 18.74 8.34 19.79 7.65V9.09ZM15.89 7.62C13.52 7.62 12.02 6.78 12.02 6.18C12.02 5.58 13.52 4.74 15.89 4.74C18.26 4.74 19.79 5.61 19.79 6.18C19.79 6.75 18.26 7.62 15.89 7.62Z" fill="#217DC1"/>
</svg>
