<svg width="14" height="14" viewBox="0 0 14 14" fill="none" xmlns="http://www.w3.org/2000/svg">
<path d="M3.45 5.11V5.79H6.39V5.11H3.45ZM3.09 3.14V10.76L3.8 10.61V3.14H3.09ZM2.39 10.53L2.64 11.29C3.63 11 5 10.59 6.27 10.2L6.18 9.49C4.77 9.89 3.31 10.3 2.39 10.53ZM4.92 8.49C5.57 9.36 6.27 10.54 6.53 11.3L7.19 10.95C6.91 10.2 6.2 9.05 5.52 8.19L4.92 8.49ZM3.43 3.14V3.84H6.11V7.02H3.43V7.72H6.81V3.14H3.43ZM10.44 3.15V9.24C10.44 9.38 10.4 9.43 10.26 9.43C10.1 9.43 9.62 9.44 9.08 9.42C9.21 9.64 9.33 10.01 9.35 10.24C10.05 10.24 10.53 10.23 10.82 10.08C11.13 9.94 11.21 9.68 11.21 9.25V3.15H10.44ZM7.57 3.15V11.81H8.33V3.9H10.86V3.15H7.57Z" fill="#217DC1"/>
<rect x="0.25" y="0.25" width="13.5" height="13.5" rx="1.75" stroke="#217DC1" stroke-width="0.5"/>
</svg>
