<svg width="160" height="160" viewBox="0 0 160 160" fill="none" xmlns="http://www.w3.org/2000/svg">
<path d="M74.4255 143.66C81.0285 143.66 86.3813 137.992 86.3813 131.001H62.4697C62.4697 137.992 67.8225 143.66 74.4255 143.66Z" fill="#F3F8FB"/>
<circle cx="102.843" cy="42.9349" r="13.6324" stroke="#9BC4E3" stroke-width="2" stroke-dasharray="4 4"/>
<path fill-rule="evenodd" clip-rule="evenodd" d="M109.046 61.9718C107.093 62.6076 105.008 62.9512 102.844 62.9512C91.7887 62.9512 82.8271 53.9896 82.8271 42.9348C82.8271 39.553 83.6657 36.3671 85.1464 33.5737C81.7187 32.4689 78.0589 31.8716 74.2581 31.8716C54.8776 31.8716 39.1667 47.4005 39.1667 66.5565V79.9986C39.1667 84.8934 37.4174 89.6309 34.2275 93.375C22.7209 106.881 32.4345 127.518 50.2982 127.518H98.218C116.082 127.518 125.795 106.881 114.289 93.375C111.099 89.6309 109.349 84.8934 109.349 79.9986V66.5565C109.349 65.0023 109.246 63.4719 109.046 61.9718Z" fill="#F3F8FB"/>
<line y1="-1.5" x2="8.48528" y2="-1.5" transform="matrix(-0.96827 -0.249907 -0.249907 0.96827 130.752 44.7656)" stroke="#9BC4E3" stroke-width="3"/>
<line x1="115.442" y1="16.7149" x2="113.321" y2="24.931" stroke="#9BC4E3" stroke-width="3"/>
<line y1="-1.5" x2="8.48528" y2="-1.5" transform="matrix(0.861381 -0.507959 -0.507959 -0.861381 118.606 31.0312)" stroke="#9BC4E3" stroke-width="3"/>
</svg>
