<svg width="161" height="161" viewBox="0 0 161 161" fill="none" xmlns="http://www.w3.org/2000/svg">
<path d="M74.9255 144.16C81.5285 144.16 86.8813 138.492 86.8813 131.501H62.9697C62.9697 138.492 68.3225 144.16 74.9255 144.16Z" fill="#243037"/>
<circle cx="103.343" cy="43.4349" r="13.6324" stroke="#495E6A" stroke-width="2" stroke-dasharray="4 4"/>
<path fill-rule="evenodd" clip-rule="evenodd" d="M109.546 62.4718C107.593 63.1076 105.508 63.4512 103.344 63.4512C92.2887 63.4512 83.3271 54.4896 83.3271 43.4348C83.3271 40.053 84.1657 36.8671 85.6464 34.0737C82.2187 32.9689 78.5589 32.3716 74.7581 32.3716C55.3776 32.3716 39.6667 47.9005 39.6667 67.0565V80.4986C39.6667 85.3934 37.9174 90.1309 34.7275 93.875C23.2209 107.381 32.9345 128.018 50.7982 128.018H98.718C116.582 128.018 126.295 107.381 114.789 93.875C111.599 90.1309 109.849 85.3934 109.849 80.4986V67.0565C109.849 65.5023 109.746 63.9719 109.546 62.4718Z" fill="#243037"/>
<line y1="-1.5" x2="8.48528" y2="-1.5" transform="matrix(-0.96827 -0.249907 -0.249907 0.96827 131.252 45.2656)" stroke="#495E6A" stroke-width="3"/>
<line x1="115.942" y1="17.2149" x2="113.821" y2="25.431" stroke="#495E6A" stroke-width="3"/>
<line y1="-1.5" x2="8.48528" y2="-1.5" transform="matrix(0.861381 -0.507959 -0.507959 -0.861381 119.106 31.5312)" stroke="#495E6A" stroke-width="3"/>
</svg>
