<svg width="32" height="33" viewBox="0 0 32 33" fill="none" xmlns="http://www.w3.org/2000/svg">
<path d="M6.55554 11.1709C6.55554 8.96176 8.3464 7.1709 10.5555 7.1709H24.37C24.9223 7.1709 25.37 7.61861 25.37 8.1709V21.9854C25.37 24.1945 23.5791 25.9854 21.37 25.9854H7.55554C7.00326 25.9854 6.55554 25.5376 6.55554 24.9854V11.1709Z" stroke="#FF337C" stroke-width="1.5" stroke-linecap="round" stroke-linejoin="round"/>
<path d="M2.82422 23.3005L8.84081 17.2844L14.1788 21.3597L15.7385 22.5505L17.3219 21.3597L23.6651 16.5893L30.6535 11.0163" stroke="#FF337C" stroke-width="1.5" stroke-linecap="round" stroke-linejoin="round"/>
<path d="M27.214 10.7845H30.8203V14.3913" stroke="#FF337C" stroke-width="1.5" stroke-linecap="round" stroke-linejoin="round"/>
<path d="M13.0011 10.137H14.8248C15.7344 10.137 16.4718 10.8744 16.4718 11.784V11.784C16.4718 12.6936 15.7344 13.4309 14.8248 13.4309H13.0011V10.137Z" stroke="#FF337C" stroke-width="1.5" stroke-linecap="round" stroke-linejoin="round"/>
<path d="M13.0011 12.5878V15.232" stroke="#FF337C" stroke-width="1.5" stroke-linecap="round" stroke-linejoin="round"/>
<path d="M10.6394 10.1366L10.6394 15.2322" stroke="#FF337C" stroke-width="1.5" stroke-linecap="round" stroke-linejoin="round"/>
<path d="M18.2216 11.5222V12.4643V13.9545C18.2216 14.8006 18.9074 15.4864 19.7535 15.4864C20.5995 15.4864 21.2854 14.8006 21.2854 13.9545V12.4643V11.5222C21.2854 10.6761 20.5995 9.99023 19.7535 9.99023C18.9074 9.99023 18.2216 10.6761 18.2216 11.5222Z" stroke="#FF337C" stroke-width="1.5" stroke-linecap="round" stroke-linejoin="round"/>
</svg>
