<svg width="16" height="16" viewBox="0 0 16 16" fill="none" xmlns="http://www.w3.org/2000/svg">
<path fill-rule="evenodd" clip-rule="evenodd" d="M7.71716 1.31723L5.17157 3.86281C5.01536 4.01902 5.01536 4.27229 5.17157 4.4285C5.32778 4.58471 5.58105 4.58471 5.73726 4.4285L7.6 2.56576V9.60007C7.6 9.82099 7.77909 10.0001 8 10.0001C8.22091 10.0001 8.4 9.82099 8.4 9.60007V2.56576L10.2627 4.4285C10.419 4.58471 10.6722 4.58471 10.8284 4.4285C10.9846 4.27229 10.9846 4.01902 10.8284 3.86281L8.28284 1.31723C8.12663 1.16102 7.87337 1.16102 7.71716 1.31723ZM4.5 5.53013H6.5V6.33013H4.5C4.1134 6.33013 3.8 6.64353 3.8 7.03013V12.5301C3.8 12.9167 4.1134 13.2301 4.5 13.2301H11.5C11.8866 13.2301 12.2 12.9167 12.2 12.5301V7.03013C12.2 6.64353 11.8866 6.33013 11.5 6.33013H9.5V5.53013H11.5C12.3284 5.53013 13 6.20171 13 7.03013V12.5301C13 13.3586 12.3284 14.0301 11.5 14.0301H4.5C3.67157 14.0301 3 13.3586 3 12.5301V7.03013C3 6.20171 3.67157 5.53013 4.5 5.53013Z" fill="#808080"/>
</svg>
