<svg width="32" height="32" viewBox="0 0 32 32" fill="none" xmlns="http://www.w3.org/2000/svg">
<path d="M20.294 25L25 25C26.1046 25 27 24.1046 27 23L27 13.4627L27 8C27 7.44772 26.5523 7 26 7L18.954 7L13.189 7L9 7C6.79086 7 5 8.79086 5 11L5 20.7043" stroke="#6200EE" stroke-width="1.5" stroke-linecap="round" stroke-linejoin="round"/>
<path d="M10.675 25.965L8.34336 28.207L2.90283 22.9757L7.56614 18.4918C7.56614 18.4918 9.46092 18.4918 10.675 18.4918L13.0611 18.4918C13.8866 18.4918 14.5558 19.1609 14.5558 19.9864V19.9864C14.5558 20.8119 13.8866 21.4811 13.0611 21.4811H9.72293C9.89584 21.4811 12.4505 21.4811 12.6172 21.4811H18.2388C19.477 21.4811 20.4807 22.4848 20.4807 23.723V23.723C20.4807 24.9612 19.477 25.965 18.2388 25.965H10.675Z" stroke="#6200EE" stroke-width="1.5" stroke-linecap="round" stroke-linejoin="round"/>
<path d="M11.7471 17.8586L14.9384 14.6673L17.3318 17.0608L20.253 14.1396" stroke="#6200EE" stroke-width="1.5" stroke-linecap="round" stroke-linejoin="round"/>
</svg>
