<svg width="16" height="16" viewBox="0 0 16 16" fill="none" xmlns="http://www.w3.org/2000/svg">
<path d="M12.1181 14.3963C9.32009 15.2929 2.05941 7.10657 2.00015 4.3938C1.99261 3.71105 2.26442 3.23497 2.81577 2.96481C3.39031 2.70073 3.93117 2.36396 4.4989 2.10356C4.8607 1.92781 5.12699 1.96627 5.37635 2.29218C6.10989 3.22521 6.747 4.05481 7.28767 4.78136C7.52912 5.10764 7.53317 5.37338 7.26541 5.68439C7.02948 5.96467 6.76264 6.24402 6.5488 6.53589C6.09498 7.19582 8.99049 10.2997 9.58528 9.73745C9.84549 9.50152 10.149 9.29118 10.4254 9.0685C10.7697 8.82172 11.0365 8.80074 11.3689 9.07954C11.7557 9.40969 13.9313 11.1088 13.9961 11.542C14.0912 12.1797 12.4245 14.0378 12.1181 14.3963Z" stroke="#217DC1" stroke-linecap="round" stroke-linejoin="round"/>
</svg>
