<svg width="80" height="80" viewBox="0 0 80 80" fill="none" xmlns="http://www.w3.org/2000/svg">
<path d="M65.4003 26.3C65.4003 24.7 65.3003 23.3 65.3003 22C65.3003 19.9 63.6003 18.3 61.6003 18.3C53.6003 18.3 47.6003 16 42.6003 11.2C41.1003 9.80002 38.9003 9.80002 37.4003 11.2C32.4003 16.1 26.3003 18.3 18.4003 18.3C16.3003 18.3 14.7003 20 14.7003 22C14.7003 23.4 14.7003 24.8 14.6003 26.3C14.5003 33.4 14.3003 42.1 17.2003 50.1C18.8003 54.5 21.3003 58.3 24.5003 61.4C28.2003 65 33.0003 67.8 38.8003 69.8C39.2003 69.9 39.6003 70 40.0003 70C40.4003 70 40.8003 69.9 41.2003 69.8C47.0003 67.8 51.8003 65 55.5003 61.4C58.7003 58.3 61.2003 54.5 62.8003 50.1C65.7003 42.1 65.6003 33.3 65.4003 26.3ZM59.5003 48.9C56.4003 57.3 50.0003 63 40.1003 66.5H40.0003C30.0003 63 23.6003 57.3 20.5003 48.9C17.8003 41.6 17.9003 33.5 18.1003 26.4C18.1003 24.9 18.2003 23.4 18.2003 22C18.2003 21.9 18.3003 21.8 18.4003 21.8C27.3003 21.8 34.2003 19.2 39.9003 13.7C39.9003 13.7 40.0003 13.6 40.1003 13.6C40.2003 13.6 40.2003 13.6 40.3003 13.7C46.0003 19.3 52.8003 21.8 61.8003 21.8C61.9003 21.8 62.0003 21.9 62.0003 22C62.0003 23.4 62.0003 24.8 62.1003 26.3V26.4C62.0003 33.5 62.2003 41.5 59.5003 48.9Z" fill="#72573D"/>
<path d="M50.9003 34.2H45.2003V28.5C45.2003 27.5 44.4003 26.7 43.4003 26.7H36.4003C35.4003 26.7 34.6003 27.5 34.6003 28.5V34.2H28.9003C27.9003 34.2 27.1003 35 27.1003 36V43C27.1003 44 27.9003 44.8 28.9003 44.8H34.6003V50.5C34.6003 51.5 35.4003 52.3 36.4003 52.3H43.4003C44.4003 52.3 45.2003 51.5 45.2003 50.5V44.8H50.9003C51.9003 44.8 52.7003 44 52.7003 43V36C52.7003 34.9 51.9003 34.2 50.9003 34.2ZM49.2003 41.2H43.5003C42.5003 41.2 41.7003 42 41.7003 43V48.7H38.2003V43C38.2003 42 37.4003 41.2 36.4003 41.2H30.7003V37.7H36.4003C37.4003 37.7 38.2003 36.9 38.2003 35.9V30.2H41.7003V35.9C41.7003 36.9 42.5003 37.7 43.5003 37.7H49.2003V41.2Z" fill="#72573D"/>
</svg>
