<svg width="80" height="80" viewBox="0 0 80 80" fill="none" xmlns="http://www.w3.org/2000/svg">
<path d="M64.6 17.9L59.6 12.9C59.1 12.4 58.3 12.4 57.8 12.9C57.3 13.4 57.3 14.2 57.8 14.7L61.9 18.8L57.8 22.9C57.6 23.1 57.4 23.5 57.4 23.8V27.6C57.4 30.4 59.6 32.6 62.4 32.6V53.8C62.4 54.5 61.8 55 61.2 55C60.6 55 60 54.4 60 53.8V51.3C60 49.2 58.3 47.5 56.2 47.5H55V15C55 12.2 52.8 10 50 10H25C22.2 10 20 12.2 20 15V60C17.2 60 15 62.2 15 65V68.8C15 69.5 15.6 70 16.2 70H58.7C59.4 70 59.9 69.4 59.9 68.8V65C59.9 62.2 57.7 60 54.9 60V50H56.1C56.8 50 57.3 50.6 57.3 51.2V53.7C57.3 55.8 59 57.5 61.1 57.5C63.2 57.5 64.9 55.8 64.9 53.7V18.7C65 18.4 64.9 18.1 64.6 17.9ZM22.5 15C22.5 13.6 23.6 12.5 25 12.5H50C51.4 12.5 52.5 13.6 52.5 15V60H22.5V15ZM57.5 65V67.5H17.5V65C17.5 63.6 18.6 62.5 20 62.5H55C56.4 62.5 57.5 63.6 57.5 65ZM62.5 30C61.1 30 60 28.9 60 27.5V24.3L62.5 21.8V30Z" fill="#A07A4B"/>
<path d="M48.8 15H26.2C25.5 15 25 15.6 25 16.2V31.2C25 31.9 25.6 32.4 26.2 32.4H48.7C49.4 32.4 49.9 31.8 49.9 31.2V16.2C50 15.6 49.4 15 48.8 15ZM47.5 30H27.5V17.5H47.5V30Z" fill="#A07A4B"/>
<path d="M32.1 49.6C32.1 52.6 34.5 55 37.5 55C40.5 55 42.9 52.6 42.9 49.6C42.9 46.7 38.6 40.8 37.5 39.1C36.6 40.5 32.1 46.6 32.1 49.6ZM39.7 49.6C39.7 50.8 38.7 51.8 37.5 51.8C36.3 51.8 35.3 50.8 35.3 49.6C35.3 48.9 36.3 46.9 37.5 45C38.7 47 39.7 48.9 39.7 49.6Z" fill="#A07A4B"/>
</svg>
