<svg width="32" height="33" viewBox="0 0 32 33" fill="none" xmlns="http://www.w3.org/2000/svg">
<path d="M13.0656 12.7188H9V13.5975L9.00005 27.9994H23.0001L23 15.0379V12.7188H20.0172" stroke="#00AB1B" stroke-width="1.5" stroke-linejoin="round"/>
<rect x="2.875" y="16.9216" width="6.125" height="11.0779" stroke="#00AB1B" stroke-width="1.5" stroke-linejoin="round"/>
<rect x="23" y="19.6859" width="6.125" height="8.3136" stroke="#00AB1B" stroke-width="1.5" stroke-linejoin="round"/>
<path d="M15.4275 6.35904C15.7943 5.61579 16.8541 5.61579 17.221 6.35904L18.0535 8.04598C18.1992 8.34113 18.4807 8.5457 18.8064 8.59302L20.6681 8.86354C21.4883 8.98272 21.8158 9.99069 21.2223 10.5692L19.8752 11.8823C19.6395 12.1121 19.532 12.4431 19.5876 12.7675L19.9056 14.6216C20.0457 15.4385 19.1883 16.0615 18.4547 15.6758L16.7896 14.8004C16.4982 14.6472 16.1502 14.6472 15.8589 14.8004L14.1938 15.6758C13.4601 16.0615 12.6027 15.4385 12.7428 14.6216L13.0608 12.7675C13.1165 12.4431 13.0089 12.1121 12.7732 11.8823L11.4261 10.5692C10.8326 9.99069 11.1601 8.98272 11.9803 8.86354L13.842 8.59302C14.1677 8.5457 14.4493 8.34113 14.5949 8.04598L15.4275 6.35904Z" stroke="#00AB1B" stroke-width="1.5"/>
</svg>
