<svg width="80" height="80" viewBox="0 0 80 80" fill="none" xmlns="http://www.w3.org/2000/svg">
<path d="M32.8 34.2C26.5 34.2 21.4 39.3 21.4 45.6C21.4 51.9 26.5 57 32.8 57C39.1 57 44.2 51.9 44.2 45.6C44.2 39.3 39 34.2 32.8 34.2ZM32.8 53.2C28.6 53.2 25.2 49.8 25.2 45.6C25.2 41.4 28.6 38 32.8 38C37 38 40.4 41.4 40.4 45.6C40.3 49.8 36.9 53.2 32.8 53.2Z" fill="#A07A4B"/>
<path d="M62.2 12.5H41.7L35.2 23.7H20.1L7.5 45.6L20.1 67.5H45.4L56.6 48.1H62.2L72.5 30.3L62.2 12.5ZM43.2 63.7H22.3L11.9 45.6L22.3 27.5H43.2L53.6 45.6L43.2 63.7ZM47.3 27.1C48.3 25.6 50.1 24.7 51.9 24.7C55 24.7 57.5 27.2 57.5 30.3C57.5 33.3 55.2 35.7 52.3 35.9L47.3 27.1ZM60 44.3H57.2L54.4 39.5C58.4 38.4 61.4 34.7 61.4 30.4C61.4 25.2 57.2 20.9 51.9 20.9C49.3 20.9 46.8 22 45.1 23.8H39.6L43.9 16.4H60L68.1 30.4L60 44.3Z" fill="#A07A4B"/>
</svg>
