<svg width="39" height="38" viewBox="0 0 39 38" fill="none" xmlns="http://www.w3.org/2000/svg">
<path fill-rule="evenodd" clip-rule="evenodd" d="M19.4324 12.6488C19.5827 12.1061 19.663 11.5343 19.663 10.9437C19.663 10.6569 19.6441 10.3745 19.6074 10.0978H20.9815C21.4736 10.0978 21.958 10.1307 22.4326 10.1946C23.0959 8.96907 24.3929 8.13672 25.8842 8.13672H27.8453V12.5632C29.5114 13.9392 30.7572 15.8059 31.3614 17.9421H31.7674C32.8505 17.9421 33.7285 18.8201 33.7285 19.9032V22.8448C33.7285 23.9279 32.8505 24.8059 31.7674 24.8059H31.0322C30.7147 25.6187 30.3015 26.3837 29.8064 27.0868V30.6891C29.8064 31.7722 28.9284 32.6502 27.8453 32.6502H24.9037C24.0949 32.6502 23.4004 32.1606 23.1006 31.4615C22.4154 31.598 21.7068 31.6696 20.9815 31.6696H17.0594C16.6517 31.6696 16.2493 31.647 15.8533 31.603C15.5247 32.2257 14.8708 32.6502 14.1177 32.6502H11.1761C10.0931 32.6502 9.21505 31.7722 9.21505 30.6891V28.2867C7.3914 26.355 6.27344 23.7499 6.27344 20.8837C6.27344 18.6078 6.97833 16.4966 8.18171 14.7563C9.34396 16.3109 11.1992 17.3172 13.2895 17.3172C15.8599 17.3172 18.0749 15.7956 19.0829 13.6041C19.764 13.649 20.4318 13.7765 21.0827 13.9807L21.3762 13.0451C20.7434 12.8466 20.0943 12.7128 19.4324 12.6488ZM28.9188 16.9054C28.9188 17.4469 28.4798 17.8859 27.9383 17.8859C27.3967 17.8859 26.9577 17.4469 26.9577 16.9054C26.9577 16.3638 27.3967 15.9248 27.9383 15.9248C28.4798 15.9248 28.9188 16.3638 28.9188 16.9054Z" fill="#36405C"/>
<path d="M18.5867 10.7445C18.5867 7.77227 16.166 5.35156 13.1937 5.35156C10.2215 5.35156 7.80078 7.77227 7.80078 10.7445C7.80078 13.7168 10.2215 16.1375 13.1937 16.1375C16.1966 16.1375 18.5867 13.7168 18.5867 10.7445ZM12.7035 14.2071C12.7035 14.0845 12.7035 13.9619 12.7035 13.87C12.7035 13.6249 12.7035 13.5942 12.4583 13.5636C12.1519 13.5023 11.8455 13.441 11.5391 13.2878C11.3246 13.1652 11.2939 13.1346 11.3552 12.8895C11.4165 12.7056 11.4472 12.5217 11.5084 12.3685C11.5697 12.154 11.631 12.154 11.8149 12.246C12.1213 12.3992 12.4583 12.4911 12.826 12.5524C13.0405 12.583 13.2857 12.5524 13.5002 12.4605C13.8985 12.2766 13.9598 11.817 13.6227 11.5412C13.5002 11.4493 13.3776 11.388 13.255 11.3267C12.918 11.1735 12.5503 11.0509 12.2132 10.8671C11.6923 10.5607 11.3552 10.101 11.3859 9.45757C11.4165 8.72216 11.8455 8.26254 12.5196 8.0174C12.7954 7.92548 12.7954 7.92548 12.7954 7.61906V7.31264C12.7954 7.09815 12.826 7.0675 13.0405 7.03686C13.1018 7.03686 13.1631 7.03686 13.255 7.03686C13.7147 7.03686 13.7147 7.03686 13.7147 7.49649C13.7147 7.83355 13.7147 7.83355 14.0517 7.86419C14.2968 7.89483 14.542 7.98676 14.7565 8.07869C14.879 8.13997 14.9403 8.23189 14.879 8.35446C14.8178 8.56895 14.7565 8.7528 14.6952 8.9673C14.6339 9.15115 14.5726 9.18179 14.3888 9.08987C14.0211 8.90601 13.6534 8.84473 13.255 8.87537C13.1631 8.87537 13.0405 8.90601 12.9486 8.93666C12.6115 9.08987 12.5503 9.45757 12.826 9.7027C12.9793 9.82527 13.1325 9.91719 13.3163 9.97848C13.6227 10.101 13.9291 10.2236 14.2049 10.3768C15.1242 10.8977 15.3693 12.0315 14.7258 12.8282C14.4807 13.1039 14.1743 13.3184 13.8372 13.4104C13.684 13.441 13.6227 13.5329 13.6227 13.6861C13.6227 13.8393 13.6227 13.9926 13.6227 14.1764C13.6227 14.3296 13.5614 14.3909 13.4082 14.3909C13.2244 14.3909 13.0712 14.3909 12.8873 14.3909C12.7648 14.4522 12.7035 14.3603 12.7035 14.2071Z" fill="#36405C"/>
</svg>
