<svg width="39" height="38" viewBox="0 0 39 38" fill="none" xmlns="http://www.w3.org/2000/svg">
<path fill-rule="evenodd" clip-rule="evenodd" d="M19.7683 12.6488C19.9186 12.1061 19.999 11.5343 19.999 10.9437C19.999 10.6569 19.98 10.3745 19.9433 10.0978H21.3175C21.8095 10.0978 22.2939 10.1307 22.7685 10.1946C23.4319 8.96907 24.7288 8.13672 26.2201 8.13672H28.1812V12.5632C29.8473 13.9392 31.0932 15.8059 31.6974 17.9421H32.1034C33.1864 17.9421 34.0645 18.8201 34.0645 19.9032V22.8448C34.0645 23.9279 33.1864 24.8059 32.1034 24.8059H31.3681C31.0506 25.6187 30.6374 26.3837 30.1423 27.0868V30.6891C30.1423 31.7722 29.2643 32.6502 28.1812 32.6502H25.2396C24.4308 32.6502 23.7364 32.1606 23.4365 31.4615C22.7513 31.598 22.0428 31.6696 21.3175 31.6696H17.3953C16.9876 31.6696 16.5852 31.647 16.1893 31.603C15.8607 32.2257 15.2067 32.6502 14.4537 32.6502H11.5121C10.429 32.6502 9.55099 31.7722 9.55099 30.6891V28.2867C7.72734 26.355 6.60938 23.7499 6.60938 20.8837C6.60938 18.6078 7.31427 16.4966 8.51765 14.7563C9.6799 16.3109 11.5352 17.3172 13.6255 17.3172C16.1958 17.3172 18.4108 15.7956 19.4188 13.6041C20.0999 13.649 20.7677 13.7765 21.4186 13.9807L21.7121 13.0451C21.0793 12.8466 20.4302 12.7128 19.7683 12.6488ZM29.2547 16.9054C29.2547 17.4469 28.8157 17.8859 28.2742 17.8859C27.7327 17.8859 27.2937 17.4469 27.2937 16.9054C27.2937 16.3638 27.7327 15.9248 28.2742 15.9248C28.8157 15.9248 29.2547 16.3638 29.2547 16.9054Z" fill="url(#paint0_linear_20242_20966)"/>
<path d="M18.9226 10.7445C18.9226 7.77227 16.5019 5.35156 13.5297 5.35156C10.5574 5.35156 8.13672 7.77227 8.13672 10.7445C8.13672 13.7168 10.5574 16.1375 13.5297 16.1375C16.5326 16.1375 18.9226 13.7168 18.9226 10.7445ZM13.0394 14.2071C13.0394 14.0845 13.0394 13.9619 13.0394 13.87C13.0394 13.6249 13.0394 13.5942 12.7943 13.5636C12.4879 13.5023 12.1814 13.441 11.875 13.2878C11.6605 13.1652 11.6299 13.1346 11.6912 12.8895C11.7525 12.7056 11.7831 12.5217 11.8444 12.3685C11.9057 12.154 11.9669 12.154 12.1508 12.246C12.4572 12.3992 12.7943 12.4911 13.162 12.5524C13.3765 12.583 13.6216 12.5524 13.8361 12.4605C14.2344 12.2766 14.2957 11.817 13.9587 11.5412C13.8361 11.4493 13.7135 11.388 13.591 11.3267C13.2539 11.1735 12.8862 11.0509 12.5491 10.8671C12.0282 10.5607 11.6912 10.101 11.7218 9.45757C11.7525 8.72216 12.1814 8.26254 12.8556 8.0174C13.1313 7.92548 13.1313 7.92548 13.1313 7.61906V7.31264C13.1313 7.09815 13.162 7.0675 13.3765 7.03686C13.4378 7.03686 13.499 7.03686 13.591 7.03686C14.0506 7.03686 14.0506 7.03686 14.0506 7.49649C14.0506 7.83355 14.0506 7.83355 14.3877 7.86419C14.6328 7.89483 14.8779 7.98676 15.0924 8.07869C15.215 8.13997 15.2763 8.23189 15.215 8.35446C15.1537 8.56895 15.0924 8.7528 15.0311 8.9673C14.9698 9.15115 14.9086 9.18179 14.7247 9.08987C14.357 8.90601 13.9893 8.84473 13.591 8.87537C13.499 8.87537 13.3765 8.90601 13.2845 8.93666C12.9475 9.08987 12.8862 9.45757 13.162 9.7027C13.3152 9.82527 13.4684 9.91719 13.6522 9.97848C13.9587 10.101 14.2651 10.2236 14.5409 10.3768C15.4601 10.8977 15.7052 12.0315 15.0618 12.8282C14.8166 13.1039 14.5102 13.3184 14.1732 13.4104C14.0199 13.441 13.9587 13.5329 13.9587 13.6861C13.9587 13.8393 13.9587 13.9926 13.9587 14.1764C13.9587 14.3296 13.8974 14.3909 13.7442 14.3909C13.5603 14.3909 13.4071 14.3909 13.2233 14.3909C13.1007 14.4522 13.0394 14.3603 13.0394 14.2071Z" fill="url(#paint1_linear_20242_20966)"/>
<defs>
<linearGradient id="paint0_linear_20242_20966" x1="6.60938" y1="20.3961" x2="34.0588" y2="20.3961" gradientUnits="userSpaceOnUse">
<stop stop-color="#B59A5B"/>
<stop offset="0.2339" stop-color="#B39759"/>
<stop offset="0.4867" stop-color="#A4834C"/>
<stop offset="0.7688" stop-color="#987342"/>
<stop offset="0.9934" stop-color="#946E3F"/>
</linearGradient>
<linearGradient id="paint1_linear_20242_20966" x1="8.13672" y1="10.7457" x2="18.9204" y2="10.7457" gradientUnits="userSpaceOnUse">
<stop stop-color="#B59A5B"/>
<stop offset="0.2339" stop-color="#B39759"/>
<stop offset="0.4867" stop-color="#A4834C"/>
<stop offset="0.7688" stop-color="#987342"/>
<stop offset="0.9934" stop-color="#946E3F"/>
</linearGradient>
</defs>
</svg>
