<svg width="24" height="24" viewBox="0 0 24 24" fill="none" xmlns="http://www.w3.org/2000/svg">
<path fill-rule="evenodd" clip-rule="evenodd" d="M3 14.2699C3 10.8071 5.80713 8 9.26989 8C12.7327 8 15.5398 10.8071 15.5398 14.2699C15.5398 17.7327 12.7327 20.5398 9.26989 20.5398C5.80713 20.5398 3 17.7327 3 14.2699ZM9.26989 7C5.25484 7 2 10.2548 2 14.2699C2 18.2849 5.25484 21.5398 9.26989 21.5398C13.2849 21.5398 16.5398 18.2849 16.5398 14.2699C16.5398 10.2548 13.2849 7 9.26989 7ZM8.18611 13.1679C8.18611 12.9941 8.27976 12.808 8.487 12.6526C8.69461 12.4969 8.99887 12.3894 9.35053 12.3894C9.91958 12.3894 10.3303 12.6624 10.4619 12.9434C10.483 12.9881 10.5126 13.0282 10.5492 13.0614C10.5858 13.0947 10.6285 13.1204 10.675 13.1371C10.7215 13.1538 10.7709 13.1612 10.8202 13.1588C10.8696 13.1565 10.918 13.1444 10.9627 13.1233C11.0074 13.1023 11.0475 13.0726 11.0807 13.036C11.114 12.9995 11.1397 12.9567 11.1564 12.9102C11.1731 12.8637 11.1805 12.8144 11.1781 12.765C11.1758 12.7157 11.1637 12.6673 11.1427 12.6226C10.8776 12.0606 10.2463 11.7035 9.55091 11.6455C9.55182 11.6349 9.55228 11.6242 9.55228 11.6134V11.2373C9.55228 11.1376 9.51266 11.0419 9.44212 10.9714C9.37159 10.9008 9.27593 10.8612 9.17618 10.8612C9.07643 10.8612 8.98077 10.9008 8.91023 10.9714C8.8397 11.0419 8.80008 11.1376 8.80008 11.2373V11.6134C8.80008 11.6422 8.80338 11.6707 8.80978 11.6983C8.51984 11.7655 8.25486 11.8862 8.03567 12.0505C7.68589 12.313 7.43391 12.7042 7.43391 13.1683C7.43391 13.632 7.68589 14.0232 8.03567 14.2857C8.38545 14.5482 8.85144 14.6994 9.35015 14.6994C9.36463 14.6994 9.37903 14.6986 9.39327 14.6969C9.63033 14.7358 9.83486 14.8242 9.98706 14.9386C10.1947 15.0939 10.2879 15.2804 10.2879 15.4546C10.2879 15.6283 10.1947 15.8145 9.98744 15.9698C9.77983 16.1255 9.47593 16.2331 9.12428 16.2331C8.55523 16.2331 8.14453 15.96 8.01214 15.6787C7.96959 15.5885 7.89295 15.5189 7.79907 15.4852C7.70519 15.4514 7.60177 15.4564 7.51154 15.4989C7.42132 15.5415 7.35169 15.6181 7.31798 15.712C7.28426 15.8059 7.28922 15.9093 7.33177 15.9995C7.59373 16.5561 8.21512 16.9116 8.90202 16.9751V17.2787C8.90202 17.3785 8.94165 17.4741 9.01218 17.5446C9.08272 17.6152 9.17838 17.6548 9.27813 17.6548C9.37788 17.6548 9.47354 17.6152 9.54407 17.5446C9.61461 17.4741 9.65423 17.3785 9.65423 17.2787V16.9266C9.94814 16.8598 10.2166 16.7381 10.4384 16.5716C10.7885 16.3095 11.0402 15.9179 11.0402 15.4542C11.0402 14.9905 10.7885 14.5993 10.4388 14.3368C10.089 14.0743 9.62299 13.9231 9.12428 13.9231C9.10976 13.9231 9.09534 13.9239 9.08106 13.9256C8.84391 13.8867 8.63948 13.7983 8.487 13.6839C8.27976 13.5282 8.18611 13.342 8.18611 13.1679Z" fill="#9B9B9B"/>
<path d="M11 6.5V5.7C11 4.20883 13.2386 3 16 3C18.7614 3 21 4.20883 21 5.7V18.3C21 19.7912 18.7614 21 16 21C15.4774 21 14.9735 20.9567 14.5 20.8764" stroke="#9B9B9B" stroke-linecap="round" stroke-linejoin="round"/>
<path d="M19.8164 17.3633C19.0297 17.8427 17.9367 18.1695 16.7051 18.2519" stroke="#9B9B9B" stroke-linecap="round" stroke-linejoin="round"/>
<path d="M19.8173 13.7266C19.2044 14.1001 18.4055 14.3809 17.5 14.5258" stroke="#9B9B9B" stroke-linecap="round" stroke-linejoin="round"/>
<path d="M19.8173 10.0898C19.0938 10.5308 18.1112 10.8425 17 10.9539" stroke="#9B9B9B" stroke-linecap="round" stroke-linejoin="round"/>
<path d="M12.3633 6.45312C13.2788 7.01108 14.6093 7.36222 16.0901 7.36222C17.571 7.36222 18.9014 7.01108 19.817 6.45312" stroke="#9B9B9B" stroke-linecap="round" stroke-linejoin="round"/>
</svg>
