<svg width="50" height="50" viewBox="0 0 50 50" fill="none" xmlns="http://www.w3.org/2000/svg">
<path d="M25 46.5251C36.8879 46.5251 46.525 36.888 46.525 25.0001C46.525 13.1122 36.8879 3.4751 25 3.4751C13.112 3.4751 3.47498 13.1122 3.47498 25.0001C3.47498 36.888 13.112 46.5251 25 46.5251Z" fill="#4D4D4D"/>
<path d="M31.975 30.9499C31.975 31.2999 31.85 31.5999 31.6 31.8499C31.35 32.0999 31.0499 32.2249 30.6749 32.2249H28.125C27.775 32.2249 27.45 32.0999 27.2 31.8499C26.95 31.5999 26.825 31.2999 26.825 30.9499V19.0499C26.825 18.6999 26.95 18.3999 27.2 18.1499C27.45 17.8999 27.75 17.7749 28.125 17.7749H30.6749C31.0249 17.7749 31.35 17.8999 31.6 18.1499C31.85 18.3999 31.975 18.6999 31.975 19.0499V30.9499Z" fill="#C5C5C4"/>
<path d="M23.15 30.9499C23.15 31.2999 23.025 31.5999 22.775 31.8499C22.525 32.0999 22.225 32.2249 21.85 32.2249H19.3C18.95 32.2249 18.625 32.0999 18.375 31.8499C18.125 31.5999 18 31.2999 18 30.9499V19.0499C18 18.6999 18.125 18.3999 18.375 18.1499C18.625 17.8999 18.925 17.7749 19.3 17.7749H21.85C22.2 17.7749 22.525 17.8999 22.775 18.1499C23.025 18.3999 23.15 18.6999 23.15 19.0499V30.9499Z" fill="#C5C5C4"/>
</svg>
