<svg width="51" height="50" viewBox="0 0 51 50" fill="none" xmlns="http://www.w3.org/2000/svg">
<path d="M25.5 46C37.098 46 46.5 36.598 46.5 25C46.5 13.402 37.098 4 25.5 4C13.902 4 4.5 13.402 4.5 25C4.5 36.598 13.902 46 25.5 46Z" fill="#EDEEEE"/>
<path d="M32.475 30.95C32.475 31.3 32.35 31.6 32.1 31.85C31.85 32.1 31.55 32.225 31.175 32.225H28.625C28.275 32.225 27.95 32.1 27.7 31.85C27.45 31.6 27.325 31.3 27.325 30.95V19.05C27.325 18.7 27.45 18.4 27.7 18.15C27.95 17.9 28.25 17.775 28.625 17.775H31.175C31.525 17.775 31.85 17.9 32.1 18.15C32.35 18.4 32.475 18.7 32.475 19.05V30.95Z" fill="#4D4D4D"/>
<path d="M23.65 30.95C23.65 31.3 23.525 31.6 23.275 31.85C23.025 32.1 22.725 32.225 22.35 32.225H19.8C19.45 32.225 19.125 32.1 18.875 31.85C18.625 31.6 18.5 31.3 18.5 30.95V19.05C18.5 18.7 18.625 18.4 18.875 18.15C19.125 17.9 19.425 17.775 19.8 17.775H22.35C22.7 17.775 23.025 17.9 23.275 18.15C23.525 18.4 23.65 18.7 23.65 19.05V30.95Z" fill="#4D4D4D"/>
</svg>
