<svg width="32" height="32" viewBox="0 0 32 32" fill="none" xmlns="http://www.w3.org/2000/svg">
<path d="M5 9C5 7.45451 5.87649 6.11374 7.1595 5.44765M27 20.2636V6C27 5.44771 26.5523 5 26 5H14.8853M27 22.5059V23C27 24.8782 25.7055 26.454 23.9601 26.884M16.5616 27H6C5.44772 27 5 26.5523 5 26V12.5537" stroke="#00AB1B" stroke-width="1.5" stroke-linecap="round"/>
<path d="M17.7708 11.2321L18.3447 11.7149L17.7708 11.2321ZM17.0055 9.58831L17.0055 10.3383L17.0055 9.58831ZM4.00217 11.2321L4.57608 10.7492L4.00217 11.2321ZM10.6952 18.0228L4.57608 10.7492L3.42825 11.7149L9.54732 18.9884L10.6952 18.0228ZM17.1968 10.7492L11.0778 18.0228L12.2256 18.9884L18.3447 11.7149L17.1968 10.7492ZM15.4748 10.3383L17.0055 10.3383L17.0055 8.83831L15.4748 8.83831L15.4748 10.3383ZM13.7248 3.89881L13.7248 8.58831L15.2248 8.58831L15.2248 3.89881L13.7248 3.89881ZM8.29769 3.64881L13.4748 3.64881L13.4748 2.14881L8.29769 2.14881L8.29769 3.64881ZM8.04769 8.58831L8.04769 3.89881L6.54769 3.89881L6.54769 8.58831L8.04769 8.58831ZM4.76739 10.3383L6.29769 10.3383L6.29769 8.83831L4.76739 8.83831L4.76739 10.3383ZM6.54769 8.58831C6.54769 8.72638 6.43576 8.83831 6.29769 8.83831L6.29769 10.3383C7.26419 10.3383 8.04769 9.55481 8.04769 8.58831L6.54769 8.58831ZM8.29769 2.14881C7.33119 2.14881 6.54769 2.93231 6.54769 3.89881L8.04769 3.89881C8.04769 3.76074 8.15962 3.64881 8.29769 3.64881L8.29769 2.14881ZM15.2248 3.89881C15.2248 2.93231 14.4413 2.14881 13.4748 2.14881L13.4748 3.64881C13.6129 3.64881 13.7248 3.76074 13.7248 3.89881L15.2248 3.89881ZM15.4748 8.83831C15.3367 8.83831 15.2248 8.72638 15.2248 8.58831L13.7248 8.58831C13.7248 9.55481 14.5083 10.3383 15.4748 10.3383L15.4748 8.83831ZM18.3447 11.7149C19.3023 10.5766 18.4931 8.83831 17.0055 8.83831L17.0055 10.3383C17.218 10.3383 17.3336 10.5866 17.1968 10.7492L18.3447 11.7149ZM4.57608 10.7492C4.43928 10.5866 4.55488 10.3383 4.76739 10.3383L4.76739 8.83831C3.27984 8.83831 2.47062 10.5766 3.42825 11.7149L4.57608 10.7492ZM9.54732 18.9884C10.2466 19.8196 11.5263 19.8196 12.2256 18.9884L11.0778 18.0228C10.9779 18.1415 10.795 18.1415 10.6952 18.0228L9.54732 18.9884Z" fill="#00AB1B"/>
<path d="M19.5718 13.4949L18.9979 13.0121L19.5718 13.4949ZM21.1022 13.4949L20.5283 13.9777L21.1022 13.4949ZM20.1457 13.9777L14.0266 21.2512L12.8788 20.2856L18.9979 13.0121L20.1457 13.9777ZM26.6474 21.2512L20.5283 13.9777L21.6762 13.0121L27.7952 20.2856L26.6474 21.2512ZM24.9254 21.6622L26.4561 21.6622L26.4561 23.1622L24.9254 23.1622L24.9254 21.6622ZM23.1754 28.1017L23.1754 23.4122L24.6754 23.4122L24.6754 28.1017L23.1754 28.1017ZM17.7483 28.3517L22.9254 28.3517L22.9254 29.8517L17.7483 29.8517L17.7483 28.3517ZM17.4983 23.4122L17.4983 28.1017L15.9983 28.1017L15.9983 23.4122L17.4983 23.4122ZM14.2179 21.6622L15.7483 21.6622L15.7483 23.1622L14.2179 23.1622L14.2179 21.6622ZM15.9983 23.4122C15.9983 23.2741 15.8863 23.1622 15.7483 23.1622L15.7483 21.6622C16.7148 21.6622 17.4983 22.4457 17.4983 23.4122L15.9983 23.4122ZM17.7483 29.8517C16.7818 29.8517 15.9983 29.0682 15.9983 28.1017L17.4983 28.1017C17.4983 28.2397 17.6102 28.3517 17.7483 28.3517L17.7483 29.8517ZM24.6754 28.1017C24.6754 29.0682 23.8919 29.8517 22.9254 29.8517L22.9254 28.3517C23.0634 28.3517 23.1754 28.2397 23.1754 28.1017L24.6754 28.1017ZM24.9254 23.1622C24.7873 23.1622 24.6754 23.2741 24.6754 23.4122L23.1754 23.4122C23.1754 22.4457 23.9589 21.6622 24.9254 21.6622L24.9254 23.1622ZM27.7952 20.2856C28.7529 21.4239 27.9436 23.1622 26.4561 23.1622L26.4561 21.6622C26.6686 21.6622 26.7842 21.4139 26.6474 21.2512L27.7952 20.2856ZM14.0266 21.2512C13.8898 21.4139 14.0054 21.6622 14.2179 21.6622L14.2179 23.1622C12.7304 23.1622 11.9212 21.4239 12.8788 20.2856L14.0266 21.2512ZM18.9979 13.0121C19.6972 12.1809 20.9769 12.1809 21.6762 13.0121L20.5283 13.9777C20.4284 13.859 20.2456 13.859 20.1457 13.9777L18.9979 13.0121Z" fill="#00AB1B"/>
</svg>
