<svg width="24" height="24" viewBox="0 0 24 24" fill="none" xmlns="http://www.w3.org/2000/svg">
<circle cx="12" cy="12" r="9" stroke="#C5C5C4"/>
<path d="M12 6.5C10.3416 6.5 9 7.94682 9 9.73529C9 9.864 9.04741 9.98744 9.1318 10.0784C9.21619 10.1695 9.33065 10.2206 9.45 10.2206C9.56935 10.2206 9.68381 10.1695 9.7682 10.0784C9.85259 9.98744 9.9 9.864 9.9 9.73529C9.9 8.48259 10.8384 7.47059 12 7.47059C13.1616 7.47059 14.1 8.48259 14.1 9.73529C14.1 10.2866 13.9668 10.6541 13.7826 10.9388C13.5882 11.2384 13.3224 11.4714 13.0014 11.736L12.9186 11.8039C12.3126 12.3009 11.55 12.9259 11.55 14.2647V14.4265C11.55 14.5552 11.5974 14.6786 11.6818 14.7696C11.7662 14.8606 11.8807 14.9118 12 14.9118C12.1193 14.9118 12.2338 14.8606 12.3182 14.7696C12.4026 14.6786 12.45 14.5552 12.45 14.4265V14.2647C12.45 13.4125 12.8784 13.0592 13.521 12.5293L13.5486 12.5066C13.8648 12.2459 14.2368 11.9327 14.5206 11.4946C14.8146 11.0411 15 10.4788 15 9.73529C15 7.94682 13.6584 6.5 12 6.5ZM12 17.5C12.1591 17.5 12.3117 17.4318 12.4243 17.3105C12.5368 17.1891 12.6 17.0246 12.6 16.8529C12.6 16.6813 12.5368 16.5167 12.4243 16.3954C12.3117 16.2741 12.1591 16.2059 12 16.2059C11.8409 16.2059 11.6883 16.2741 11.5757 16.3954C11.4632 16.5167 11.4 16.6813 11.4 16.8529C11.4 17.0246 11.4632 17.1891 11.5757 17.3105C11.6883 17.4318 11.8409 17.5 12 17.5Z" fill="#C5C5C4"/>
</svg>
