<svg width="32" height="33" viewBox="0 0 32 33" fill="none" xmlns="http://www.w3.org/2000/svg">
<path d="M3.61658 10.9273C3.61658 8.71817 5.40744 6.92731 7.61658 6.92731H27.3851C27.9374 6.92731 28.3851 7.37502 28.3851 7.92731V22.9164C28.3851 25.1255 26.5942 26.9164 24.3851 26.9164H4.61658C4.06429 26.9164 3.61658 26.4687 3.61658 25.9164V10.9273Z" stroke="#3FB5BD" stroke-width="1.5" stroke-linecap="round"/>
<path d="M4.10547 11.3641H28.3105" stroke="#3FB5BD" stroke-width="1.5" stroke-linecap="round"/>
<circle cx="6.92578" cy="9.22217" r="0.75" fill="#3FB5BD"/>
<circle cx="8.92578" cy="9.22217" r="0.75" fill="#3FB5BD"/>
<circle cx="10.9258" cy="9.22217" r="0.75" fill="#3FB5BD"/>
<path fill-rule="evenodd" clip-rule="evenodd" d="M19.3978 18.9619C19.3154 19.2592 19.0422 19.4782 18.7187 19.4782C18.3289 19.4782 18.0134 19.1628 18.0134 18.773C18.0134 18.3832 18.3289 18.0677 18.7187 18.0677C19.0281 18.0677 19.2913 18.2686 19.3857 18.5459H20.6536C20.5411 17.5775 19.7193 16.826 18.7207 16.826C17.6457 16.826 16.7737 17.698 16.7737 18.773C16.7737 19.8479 17.6457 20.72 18.7207 20.72C19.7333 20.72 20.5652 19.9484 20.6596 18.9598H19.3978V18.9619Z" fill="#3FB5BD"/>
<path fill-rule="evenodd" clip-rule="evenodd" d="M20.0496 20.6885C20.0476 20.6885 20.0456 20.6885 20.0436 20.6905C20.0436 20.6905 20.0396 20.6925 20.0396 20.6945C19.6518 20.9738 19.1776 21.1386 18.6632 21.1386C17.3592 21.1386 16.3023 20.0817 16.3023 18.7777C16.3023 17.4737 17.3592 16.4168 18.6632 16.4168C19.1796 16.4168 19.6578 16.5835 20.0476 16.8648C20.0476 16.8648 20.0476 16.8648 20.0496 16.8648C20.0516 16.8648 20.0536 16.8669 20.0536 16.8669C20.0597 16.8669 20.0637 16.8628 20.0637 16.8568C20.0637 16.8548 20.0617 16.8508 20.0597 16.8488L20.0576 16.8468C19.5593 16.3404 18.8641 16.025 18.0986 16.025C16.5796 16.025 15.3479 17.2566 15.3479 18.7757C15.3479 20.2947 16.5796 21.5264 18.0986 21.5264C18.8641 21.5264 19.5553 21.2149 20.0536 20.7106C20.0536 20.7106 20.0556 20.7086 20.0576 20.7086C20.0597 20.7066 20.0617 20.7046 20.0617 20.7005C20.0597 20.6945 20.0556 20.6885 20.0496 20.6885Z" fill="#3FB5BD"/>
<path fill-rule="evenodd" clip-rule="evenodd" d="M20.0546 21.0174C20.0526 21.0174 20.0506 21.0174 20.0506 21.0194C20.0506 21.0194 20.0486 21.0214 20.0466 21.0214C19.5001 21.5298 18.7667 21.8412 17.961 21.8412C16.2672 21.8412 14.8948 20.4689 14.8948 18.7751C14.8948 17.0812 16.2672 15.7089 17.961 15.7089C18.7647 15.7089 19.4961 16.0183 20.0426 16.5247C20.0446 16.5267 20.0466 16.5287 20.0486 16.5287C20.0506 16.5307 20.0526 16.5327 20.0567 16.5327C20.0607 16.5327 20.0647 16.5287 20.0647 16.5227C20.0647 16.5207 20.0627 16.5187 20.0627 16.5166L20.0607 16.5146C19.3976 15.6848 18.3769 15.1523 17.2316 15.1523C15.2304 15.1523 13.6089 16.7738 13.6089 18.7751C13.6089 20.7763 15.2304 22.3978 17.2316 22.3978C18.3769 22.3978 19.3976 21.8653 20.0607 21.0355L20.0627 21.0335C20.0647 21.0315 20.0647 21.0295 20.0647 21.0295C20.0647 21.0214 20.0607 21.0174 20.0546 21.0174Z" fill="#3FB5BD"/>
<path fill-rule="evenodd" clip-rule="evenodd" d="M20.0635 21.3935C20.0635 21.3874 20.0594 21.3834 20.0534 21.3834C20.0494 21.3834 20.0474 21.3854 20.0454 21.3874C20.0454 21.3874 20.0434 21.3914 20.0414 21.3935C19.312 22.2253 18.243 22.7517 17.0495 22.7517C14.8534 22.7517 13.0732 20.9715 13.0732 18.7754C13.0732 16.5792 14.8534 14.799 17.0495 14.799C18.2451 14.799 19.318 15.3274 20.0454 16.1633L20.0474 16.1653C20.0494 16.1653 20.0514 16.1673 20.0534 16.1673C20.0594 16.1673 20.0635 16.1633 20.0635 16.1573C20.0635 16.1553 20.0635 16.1533 20.0614 16.1513V16.1492C19.2095 14.8653 17.7528 14.0194 16.0971 14.0194C13.471 14.0194 11.3412 16.1492 11.3412 18.7754C11.3412 21.4015 13.471 23.5313 16.0971 23.5313C17.7528 23.5313 19.2095 22.6854 20.0614 21.4035C20.0614 21.4035 20.0635 21.4015 20.0635 21.3995C20.0635 21.3975 20.0635 21.3955 20.0635 21.3935Z" fill="#3FB5BD"/>
</svg>
