<svg width="24" height="24" viewBox="0 0 24 24" fill="none" xmlns="http://www.w3.org/2000/svg">
<path d="M10.5 20L4 20L4 7C4 5.34315 5.34315 4 7 4L17 4L17 12" stroke="#217DC1" stroke-linecap="round" stroke-linejoin="round"/>
<rect x="12" y="14" width="10" height="7" stroke="#217DC1" stroke-linecap="round" stroke-linejoin="round"/>
<path d="M13.75 16.5H14.75" stroke="#217DC1" stroke-linecap="round" stroke-linejoin="round"/>
<path d="M13.75 18.5H14.75" stroke="#217DC1" stroke-linecap="round" stroke-linejoin="round"/>
<path d="M16.25 16.5H20.25" stroke="#217DC1" stroke-linecap="round" stroke-linejoin="round"/>
<path d="M16.25 18.5H20.25" stroke="#217DC1" stroke-linecap="round" stroke-linejoin="round"/>
<path d="M10.5 15.5C8.29086 15.5 6.5 13.7091 6.5 11.5C6.5 9.29086 8.29086 7.5 10.5 7.5C12.7091 7.5 14.5 9.29086 14.5 11.5C14.5 11.8571 14.4532 12.2033 14.3654 12.5327" stroke="#217DC1" stroke-linecap="round" stroke-linejoin="round"/>
<path fill-rule="evenodd" clip-rule="evenodd" d="M11.0167 12.6543C11.1591 12.5517 11.2231 12.4286 11.2231 12.3137C11.2231 12.1986 11.1591 12.0753 11.0165 11.9726C10.9161 11.9 10.7826 11.8433 10.628 11.8161C10.612 11.8192 10.5956 11.8208 10.579 11.8208C10.2365 11.8208 9.91642 11.717 9.67617 11.5366C9.43592 11.3563 9.26283 11.0877 9.26283 10.7691C9.26283 10.4504 9.43592 10.1817 9.67617 10.0014C9.82503 9.8898 10.0046 9.80749 10.2012 9.76102V9.52596C10.2012 9.46002 10.2284 9.39679 10.2768 9.35016C10.3253 9.30354 10.391 9.27734 10.4595 9.27734C10.528 9.27734 10.5937 9.30354 10.6422 9.35016C10.6906 9.39679 10.7178 9.46002 10.7178 9.52596V9.72327C11.1951 9.76334 11.6283 10.0085 11.8103 10.3943C11.8247 10.425 11.833 10.4582 11.8346 10.4922C11.8363 10.5261 11.8312 10.5599 11.8197 10.5919C11.8082 10.6238 11.7906 10.6532 11.7677 10.6783C11.7449 10.7034 11.7174 10.7238 11.6867 10.7383C11.656 10.7527 11.6227 10.761 11.5888 10.7626C11.5549 10.7643 11.521 10.7592 11.4891 10.7477C11.4571 10.7362 11.4278 10.7186 11.4026 10.6957C11.3775 10.6729 11.3572 10.6454 11.3427 10.6147C11.2523 10.4217 10.9702 10.2341 10.5793 10.2341C10.3378 10.2341 10.1288 10.308 9.98617 10.415C9.84383 10.5217 9.7795 10.6495 9.7795 10.7689C9.7795 10.8885 9.84383 11.0164 9.98617 11.1233C10.1288 11.2303 10.3375 11.3041 10.579 11.3041C10.6073 11.3041 10.6351 11.3088 10.6614 11.3176C10.9128 11.3525 11.1431 11.4422 11.3267 11.5748C11.567 11.7484 11.7398 12.0069 11.7398 12.3135C11.7398 12.62 11.567 12.8788 11.3265 13.0521C11.1731 13.1629 10.9873 13.2437 10.7839 13.2876C10.7867 13.3029 10.7882 13.3185 10.7882 13.3342V13.5925C10.7882 13.661 10.7609 13.7267 10.7125 13.7752C10.664 13.8236 10.5983 13.8508 10.5298 13.8508C10.4613 13.8508 10.3956 13.8236 10.3471 13.7752C10.2987 13.7267 10.2715 13.661 10.2715 13.5925V13.3342C10.2715 13.3291 10.2716 13.324 10.2719 13.3189C9.79984 13.2771 9.37267 13.0421 9.19264 12.674C9.16342 12.6143 9.16001 12.546 9.18317 12.4839C9.20633 12.4218 9.25415 12.3712 9.31613 12.3431C9.3781 12.3149 9.44914 12.3117 9.51362 12.3339C9.57811 12.3562 9.63075 12.4023 9.65997 12.4619C9.7509 12.6479 10.033 12.8284 10.4239 12.8284C10.6654 12.8284 10.8741 12.7573 11.0167 12.6543Z" fill="#217DC1"/>
</svg>
