<svg width="24" height="24" viewBox="0 0 24 24" fill="none" xmlns="http://www.w3.org/2000/svg">
<path d="M10.2 18.03L4.22996 12L10.2 5.96999C10.29 5.87999 10.32 5.78999 10.32 5.66999C10.32 5.54999 10.29 5.45999 10.2 5.36999C10.02 5.18999 9.74996 5.18999 9.59996 5.36999L3.32996 11.7C3.29996 11.73 3.23996 11.79 3.23996 11.85C3.17996 12 3.20996 12.18 3.32996 12.3L9.59996 18.63C9.77996 18.81 10.05 18.81 10.2 18.63C10.35 18.45 10.35 18.18 10.2 18.03Z" fill="white" stroke="white" stroke-width="0.456" stroke-miterlimit="10"/>
<path d="M4.05013 11.55C3.81013 11.55 3.63013 11.73 3.63013 11.97C3.63013 12.09 3.69013 12.21 3.75013 12.27C3.84013 12.36 3.93013 12.39 4.05013 12.39L20.3701 12.45C20.6101 12.45 20.7901 12.27 20.7901 12.03C20.7901 11.79 20.6101 11.61 20.3701 11.61L4.05013 11.55Z" fill="white" stroke="white" stroke-width="0.456" stroke-miterlimit="10"/>
</svg>
