<svg width="80" height="80" viewBox="0 0 80 80" fill="none" xmlns="http://www.w3.org/2000/svg">
<path d="M28.703 48.8H46.303V34.7H28.703V48.8ZM39.203 38.2H42.703V45.3H39.203V38.2ZM32.203 38.2H35.703V45.3H32.203V38.2Z" fill="#808080"/>
<path d="M65.803 52.4V50.6C65.803 46.3 62.803 42.8 58.703 42V33.4C61.403 33.4 64.003 31 63.903 28.2V25.2L37.503 10L11.003 25.1V28.1C10.903 30.8 13.303 33.3 16.203 33.3V62.9H45.903V70H68.303V52.4H65.803ZM62.303 50.6V52.4H51.703V50.6C51.703 47.7 54.103 45.3 57.003 45.3C59.903 45.3 62.303 47.7 62.303 50.6ZM14.503 28.2V27.2L37.503 14.1L60.503 27.2V28.2C60.303 29.8 59.103 30.2 58.003 29.7L37.503 18L17.103 29.6C15.603 30.3 14.603 29.4 14.503 28.2ZM48.203 52.4H45.803V59.5H19.703V32.2L37.503 22L55.303 32.2V42C51.303 42.8 48.203 46.4 48.203 50.6V52.4ZM64.703 66.5H49.403V55.9H64.703V66.5Z" fill="#808080"/>
<path d="M58.803 59.4H55.303V62.9H58.803V59.4Z" fill="#808080"/>
</svg>
