<svg width="33" height="32" viewBox="0 0 33 32" fill="none" xmlns="http://www.w3.org/2000/svg">
<path d="M23.625 8H26.125C26.6773 8 27.125 8.44772 27.125 9V24C27.125 25.1046 26.2296 26 25.125 26H6.125C5.57272 26 5.125 25.5523 5.125 25L5.125 12C5.125 9.79086 6.91586 8 9.125 8L10.125 8M17.875 8H16.625L15.375 8" stroke="#3FB5BD" stroke-width="1.5" stroke-linecap="round" stroke-linejoin="round"/>
<path d="M5.125 13.6953H27.125" stroke="#3FB5BD" stroke-width="1.5" stroke-linecap="round" stroke-linejoin="round"/>
<path d="M13.5744 6.84338C13.4293 6.34736 13.1652 6.01562 12.8635 6.01562C12.4055 6.01562 12.0342 6.78033 12.0342 7.72363C12.0342 8.66694 12.4055 9.43164 12.8635 9.43164C12.9907 9.43164 13.1113 9.37267 13.219 9.26727" stroke="#3FB5BD" stroke-width="1.5" stroke-linecap="round" stroke-linejoin="round"/>
<path d="M21.8952 6.84338C21.7501 6.34736 21.486 6.01562 21.1843 6.01562C20.7263 6.01562 20.355 6.78033 20.355 7.72363C20.355 8.66694 20.7263 9.43164 21.1843 9.43164C21.3115 9.43164 21.4321 9.37267 21.5398 9.26727" stroke="#3FB5BD" stroke-width="1.5" stroke-linecap="round" stroke-linejoin="round"/>
<circle cx="19.6298" cy="22.0316" r="1.2582" fill="#3FB5BD"/>
<circle cx="23.4042" cy="22.0316" r="1.2582" fill="#3FB5BD"/>
<circle cx="23.4042" cy="18.2582" r="1.2582" fill="#3FB5BD"/>
</svg>
