<svg width="38" height="38" viewBox="0 0 38 38" fill="none" xmlns="http://www.w3.org/2000/svg">
<path d="M7.64277 14.0932C7.37677 13.813 6.93027 14.022 6.93027 14.4257V16.416H0.821774C0.437024 16.416 0.118774 16.758 0.118774 17.1807V19.3277C0.118774 19.7505 0.432274 20.0925 0.821774 20.0925H6.93027V22.0827C6.93027 22.4865 7.37677 22.6955 7.64277 22.4152L11.286 18.5867C11.3668 18.5012 11.4143 18.3825 11.4143 18.2542C11.4143 18.1307 11.3668 18.012 11.286 17.9217L7.64277 14.0932Z" fill="#36405C"/>
<path d="M37.0501 10.963H25.4268H13.8083C13.3476 10.963 12.9771 11.362 12.9771 11.856V26.1392C12.9771 26.6332 13.3476 27.0322 13.8083 27.0322H25.4316H37.0501C37.5108 27.0322 37.8813 26.6332 37.8813 26.1392V11.856C37.8813 11.362 37.5108 10.963 37.0501 10.963ZM13.9508 13.2572C13.9508 12.521 14.5493 11.9225 15.2856 11.9225C16.0218 11.9225 16.6203 12.521 16.6203 13.2572C16.6203 13.9935 16.0218 14.592 15.2856 14.592C14.5493 14.592 13.9508 13.9982 13.9508 13.2572ZM33.6158 22.914C33.6158 23.3415 33.3593 23.6977 33.0078 23.8355C32.9128 23.8735 32.8131 23.8925 32.7086 23.8925H18.1498C17.6463 23.8925 17.2378 23.4555 17.2378 22.914C17.2378 22.3725 16.8293 21.9355 16.3258 21.9355C15.8223 21.9355 15.4138 21.4985 15.4138 20.957V17.043C15.4138 16.5015 15.8223 16.0645 16.3258 16.0645C16.8246 16.0645 17.2378 15.6275 17.2378 15.086C17.2378 14.5445 17.6463 14.1075 18.1498 14.1075H25.4268H32.7038C33.2073 14.1075 33.6158 14.5445 33.6158 15.086C33.6158 15.6275 34.0243 16.0645 34.5278 16.0645C35.0313 16.0645 35.4398 16.5015 35.4398 17.043V20.957C35.4398 21.3845 35.1833 21.7407 34.8318 21.8785C34.7368 21.9165 34.637 21.9355 34.5325 21.9355C34.2808 21.9355 34.0528 22.0447 33.8913 22.2205C33.7203 22.401 33.6158 22.6432 33.6158 22.914ZM35.6583 26.1297C34.9221 26.1297 34.3236 25.5312 34.3236 24.795C34.3236 24.0587 34.9221 23.4602 35.6583 23.4602C36.3946 23.4602 36.993 24.0587 36.993 24.795C36.993 25.5312 36.3946 26.1297 35.6583 26.1297Z" fill="#36405C"/>
<path d="M21.071 18.5155H19.2328V22.4152H21.071V18.5155Z" fill="#36405C"/>
<path d="M24.5099 16.4492H22.6716V22.4152H24.5099V16.4492Z" fill="#36405C"/>
<path d="M28.1863 17.366H26.348V22.4152H28.1863V17.366Z" fill="#36405C"/>
<path d="M31.6304 15.2997H29.7921V22.4152H31.6304V15.2997Z" fill="#36405C"/>
</svg>
