<svg width="80" height="80" viewBox="0 0 80 80" fill="none" xmlns="http://www.w3.org/2000/svg">
<path d="M42.76 54.8291C48.4668 54.0525 51.64 50.6965 51.64 46.12C51.64 40.4502 46.264 38.6593 41.7837 37.1668C38.5833 36.1006 35.84 35.1868 35.84 33.12C35.84 30.84 37.88 29.76 40.88 29.76C43.6 29.76 46.04 30.8 48.36 32.72L51.32 29.2C49.022 27.1385 46.4099 25.5339 42.76 25.0856V20H38.84V25.0572C33.5775 25.643 30.2 28.8345 30.2 33.52C30.2 38.9853 35.4073 40.7725 39.843 42.295C43.1338 43.4245 46 44.4082 46 46.64C46 48.96 44.16 50.2 40.12 50.2C37.16 50.2 34.12 49.16 31.64 46.96L29 50.96C31.4005 53.3252 35.5145 54.6623 38.84 54.9438V60H42.76V54.8291Z" fill="#A07A4B"/>
<path fill-rule="evenodd" clip-rule="evenodd" d="M10 40C10 23.4 23.4 10 40 10C56.6 10 70 23.4 70 40C70 56.6 56.6 70 40 70C23.4 70 10 56.6 10 40ZM13.5 40C13.5 54.6 25.4 66.5 40 66.5C54.6 66.5 66.5 54.6 66.5 40C66.5 25.4 54.6 13.5 40 13.5C25.4 13.5 13.5 25.4 13.5 40Z" fill="#A07A4B"/>
</svg>
