<svg width="24" height="24" viewBox="0 0 24 24" fill="none" xmlns="http://www.w3.org/2000/svg">
<path d="M8.02195 16.7766H13.8457C14.9009 16.7766 15.6413 17.8169 15.2957 18.8139V18.8139C15.0816 19.4316 14.4995 19.8459 13.8457 19.8459H8.02195L6.42595 21.3805M8.02195 14.7305H5.89395L2.70195 17.7997" stroke="#217DC1" stroke-linecap="round" stroke-linejoin="round"/>
<path d="M17.9295 11.9804V15.0546C17.9295 15.8609 17.6114 16.593 17.0938 17.1321M12.2052 5.98438H9.26758C7.61072 5.98438 6.26758 7.32752 6.26758 8.98438V13.1096" stroke="#21A2FF" stroke-linecap="round" stroke-linejoin="round"/>
<circle cx="17.6108" cy="6.3042" r="3.68701" stroke="#21A2FF" stroke-linecap="round" stroke-linejoin="round"/>
<path d="M9.74609 10.0898H13.4326" stroke="#21A2FF" stroke-linecap="round" stroke-linejoin="round"/>
<path d="M9.74609 12.8633L15.4443 13.0269" stroke="#21A2FF" stroke-linecap="round" stroke-linejoin="round"/>
<circle cx="16.6377" cy="5.35059" r="0.635742" stroke="#21A2FF" stroke-width="0.7" stroke-linecap="round" stroke-linejoin="round"/>
<circle cx="18.9053" cy="7.25684" r="0.635742" stroke="#21A2FF" stroke-width="0.7" stroke-linecap="round" stroke-linejoin="round"/>
<path d="M16.3164 7.65015L18.9043 5.0625" stroke="#217DC1" stroke-width="0.7" stroke-linecap="round" stroke-linejoin="round"/>
</svg>
