<svg width="14" height="14" viewBox="0 0 14 14" fill="none" xmlns="http://www.w3.org/2000/svg">
<g clip-path="url(#clip0_24164_63205)">
<path d="M0 12.4V1.6C0 0.72 0.72 0 1.6 0H12.4C13.28 0 14 0.72 14 1.6V12.4C14 13.28 13.28 14 12.4 14H1.6C0.72 14 0 13.28 0 12.4ZM13.12 1.6C13.12 1.2 12.8 0.88 12.4 0.88H1.6C1.2 0.88 0.88 1.2 0.88 1.6V12.4C0.88 12.8 1.2 13.12 1.6 13.12H12.4C12.8 13.12 13.12 12.8 13.12 12.4V1.6Z" fill="#808080"/>
<path d="M7 11.22C7 10.98 7.2 10.78 7.44 10.78H10.8V7.44C10.8 7.2 11 7 11.24 7C11.48 7 11.68 7.2 11.68 7.44V11.24C11.68 11.48 11.48 11.68 11.24 11.68H7.44C7.2 11.66 7 11.48 7 11.22Z" fill="#808080"/>
<path d="M5.84003 6.27997C5.84003 6.15997 5.88003 6.05997 5.96003 5.97997C6.14003 5.79997 6.40003 5.79997 6.58003 5.97997L11.54 10.94C11.72 11.12 11.72 11.38 11.54 11.56C11.36 11.74 11.1 11.74 10.92 11.56L5.96003 6.57997C5.88003 6.49997 5.84003 6.37997 5.84003 6.27997Z" fill="#808080"/>
<path d="M0 4.82C0 4.58 0.2 4.38 0.44 4.38H4.38V0.44C4.38 0.2 4.58 0 4.82 0C5.06 0 5.26 0.2 5.26 0.44V4.82C5.26 5.06 5.06 5.26 4.82 5.26H0.44C0.2 5.26 0 5.06 0 4.82Z" fill="#808080"/>
</g>
<defs>
<clipPath id="clip0_24164_63205">
<rect width="14" height="14" fill="white"/>
</clipPath>
</defs>
</svg>
