<svg width="24" height="24" viewBox="0 0 24 24" fill="none" xmlns="http://www.w3.org/2000/svg">
<path d="M17.2804 12.4947C17.5461 13.9342 17.3667 15.4205 16.7662 16.7554C16.1657 18.0903 15.1725 19.2105 13.9191 19.9667C12.6657 20.7228 11.2116 21.0789 9.75066 20.9875C8.28972 20.8962 6.89132 20.3617 5.74187 19.4553C4.59243 18.549 3.74655 17.3138 3.31699 15.9144C2.88743 14.5151 2.89461 13.018 3.33755 11.6229C3.78049 10.2277 4.63816 9.00066 5.79624 8.10535C6.95431 7.21004 8.35776 6.68898 9.81952 6.61162L10.2 13.8016L17.2804 12.4947Z" stroke="#217DC1" stroke-linecap="round" stroke-linejoin="round"/>
<path d="M12.0703 4.54688C13.6886 4.537 15.2588 5.09711 16.5055 6.12902C17.7523 7.16093 18.5959 8.59877 18.8887 10.1905L12.1124 11.4367L12.0703 4.54688Z" stroke="#217DC1" stroke-linecap="round" stroke-linejoin="round"/>
</svg>
