<svg width="80" height="80" viewBox="0 0 80 80" fill="none" xmlns="http://www.w3.org/2000/svg">
<path d="M62.1998 56.7V24.7C62.1998 18.4 58.2998 17.3 47.4998 17.1L49.2998 12.6C52.6998 13.2 54.3998 14 54.5998 14.5C54.5998 15.2 55.1998 15.8 55.8998 15.8C56.5998 15.8 57.1998 15.2 57.1998 14.5C57.1998 10.1 46.3998 9.40002 39.9998 9.40002C34.8998 9.40002 22.8998 9.90002 22.8998 14.5C22.8998 15.2 23.4998 15.8 24.1998 15.8C24.8998 15.8 25.4998 15.2 25.4998 14.5C25.5998 14 27.2998 13.2 30.6998 12.6L32.4998 17.1C21.6998 17.3 17.7998 18.4 17.7998 24.7V56.7C17.7998 60.5 20.6998 64.3 23.8998 65.2L19.5998 68.2C18.9998 68.6 18.8998 69.4 19.2998 70C19.6998 70.6 20.4998 70.7 21.0998 70.3L28.0998 65.4H51.9998L58.9998 70.3C59.5998 70.7 60.3998 70.6 60.7998 70C61.1998 69.4 61.0998 68.6 60.4998 68.2L55.9998 65.1C60.4998 64.1 62.1998 60.3 62.1998 56.7ZM33.1998 12.4C35.3998 12.2 37.6998 12.1 39.8998 12.1C42.1998 12.1 44.4998 12.2 46.6998 12.4L44.7998 17.2C43.2998 17.2 41.6998 17.2 39.8998 17.2C38.0998 17.2 36.5998 17.2 34.9998 17.2L33.1998 12.4ZM53.2998 62.9H25.2998C23.0998 62.9 20.1998 59.9 20.1998 56.8V24.8C20.1998 20.2 21.9998 19.7 39.8998 19.7C57.7998 19.7 59.5998 20.2 59.5998 24.8V56.8C59.6998 59 58.8998 62.9 53.2998 62.9Z" fill="#808080"/>
<path d="M52.8998 24.7H26.9998C24.5998 24.7 22.7998 26.1 22.7998 28.1V42.2C22.7998 44.3 24.7998 46.3 26.9998 46.3H52.8998C55.0998 46.3 57.1998 44.3 57.1998 42.2V28.1C57.1998 25.9 54.9998 24.7 52.8998 24.7ZM54.5998 42.3C54.5998 43 53.5998 43.9 52.8998 43.9H26.9998C26.2998 43.9 25.3998 43.1 25.3998 42.3V28.1C25.3998 27.5 26.3998 27.3 26.9998 27.3H52.8998C53.5998 27.3 54.5998 27.6 54.5998 28.1V42.3Z" fill="#808080"/>
<path d="M52.0998 50.2C49.2998 50.2 46.9998 52.5 46.9998 55.3C46.9998 58.1 49.2998 60.4 52.0998 60.4C54.8998 60.4 57.1998 58.1 57.1998 55.3C57.1998 52.4 54.8998 50.2 52.0998 50.2ZM52.0998 57.8C50.6998 57.8 49.5998 56.7 49.5998 55.3C49.5998 53.9 50.6998 52.8 52.0998 52.8C53.4998 52.8 54.5998 53.9 54.5998 55.3C54.5998 56.7 53.4998 57.8 52.0998 57.8Z" fill="#808080"/>
<path d="M27.8998 50.2C25.0998 50.2 22.7998 52.5 22.7998 55.3C22.7998 58.1 25.0998 60.4 27.8998 60.4C30.6998 60.4 32.9998 58.1 32.9998 55.3C32.9998 52.4 30.6998 50.2 27.8998 50.2ZM27.8998 57.8C26.4998 57.8 25.3998 56.7 25.3998 55.3C25.3998 53.9 26.4998 52.8 27.8998 52.8C29.2998 52.8 30.3998 53.9 30.3998 55.3C30.4998 56.7 29.2998 57.8 27.8998 57.8Z" fill="#808080"/>
</svg>
