<svg width="38" height="38" viewBox="0 0 38 38" fill="none" xmlns="http://www.w3.org/2000/svg">
<path d="M21.2799 11.4475H24.1299L19.8074 6.8875V9.9275C19.8074 10.735 20.4724 11.4475 21.2799 11.4475Z" fill="url(#paint0_linear_21895_62126)"/>
<path d="M16.5301 23.1325H10.5451C10.3076 23.1325 10.1176 22.895 10.1176 22.5625V22.515C10.1176 22.325 10.2126 22.135 10.3551 22.0875C10.4026 22.04 10.4976 22.04 10.5451 22.04H16.9101C17.1951 21.3275 17.5276 20.7575 17.9551 20.1875H10.5451C10.3076 20.1875 10.1176 19.95 10.1176 19.6175C10.1176 19.6175 10.1176 19.6175 10.1176 19.57C10.1176 19.5225 10.1176 19.475 10.1651 19.38V19.4275V19.38C10.2126 19.1425 10.4026 19 10.5926 19H19.0001C20.3776 17.8125 22.1826 17.0525 24.1301 17.0525C24.3201 17.0525 24.4626 17.0525 24.7001 17.1V12.35H21.2326C19.9026 12.35 18.8101 11.2575 18.8101 9.9275V6.175H8.97756C7.83756 6.175 6.93506 7.125 6.93506 8.265V25.8875C6.93506 27.0275 7.83756 27.93 8.97756 27.93H16.9576C16.5776 27.0275 16.3401 25.9825 16.3401 24.89C16.3401 24.32 16.4351 23.7025 16.5301 23.1325ZM10.5451 16.0075H20.5676C20.8051 16.0075 20.9951 16.245 20.9951 16.5775C20.9951 16.91 20.8051 17.1475 20.5676 17.1475H10.5451C10.3076 17.1475 10.1176 16.91 10.1176 16.5775C10.0701 16.245 10.3076 16.0075 10.5451 16.0075Z" fill="url(#paint1_linear_21895_62126)"/>
<path d="M24.1774 18.0025C22.8949 18.0025 21.6599 18.3825 20.6149 19C20.0924 19.3325 19.6174 19.7125 19.1899 20.14C18.6674 20.6625 18.2399 21.3275 17.9074 21.9925C17.7174 22.3725 17.6224 22.7525 17.4799 23.1325C17.3374 23.7025 17.2424 24.32 17.2424 24.89C17.2424 28.69 20.3299 31.7775 24.1299 31.7775C27.9299 31.7775 31.0174 28.69 31.0174 24.89C31.0649 21.09 27.9774 18.0025 24.1774 18.0025ZM24.7949 28.2625V28.69C24.7949 29.165 24.6049 29.4025 24.1774 29.4025H24.1299C23.7024 29.4025 23.5599 29.165 23.5599 28.69V28.31C22.3249 28.1675 21.5649 27.5975 21.5649 27.0275C21.5649 26.6 22.0874 26.2675 22.0874 26.315C22.4674 26.79 23.2274 27.17 24.0824 27.17C24.8424 27.17 25.2224 26.8375 25.2224 26.41C25.2224 25.84 24.5574 25.6975 23.8449 25.5075C22.9424 25.3175 21.7074 24.9375 21.7074 23.56C21.7074 22.5625 22.4199 21.85 23.5599 21.66V21.28C23.5599 20.805 23.7499 20.5675 24.1299 20.5675H24.2249C24.6524 20.5675 24.7949 20.805 24.7949 21.28V21.6125C25.9349 21.755 26.5999 22.23 26.5999 22.8C26.5999 23.275 26.0774 23.6075 26.0299 23.56C25.6499 23.085 24.9374 22.7525 24.2724 22.7525C23.5599 22.7525 23.1324 23.085 23.1324 23.5125C23.1324 24.035 23.7024 24.1775 24.5099 24.3675C25.4599 24.5575 26.7424 24.9375 26.7424 26.315C26.7424 27.3125 26.0299 28.025 24.7949 28.2625Z" fill="url(#paint2_linear_21895_62126)"/>
<defs>
<linearGradient id="paint0_linear_21895_62126" x1="19.8074" y1="9.16799" x2="24.129" y2="9.16799" gradientUnits="userSpaceOnUse">
<stop stop-color="#70C6FC"/>
<stop offset="0.0627815" stop-color="#6CC2FB"/>
<stop offset="0.6801" stop-color="#439CF2"/>
<stop offset="1" stop-color="#348DEF"/>
</linearGradient>
<linearGradient id="paint1_linear_21895_62126" x1="6.93506" y1="17.0549" x2="24.6964" y2="17.0549" gradientUnits="userSpaceOnUse">
<stop stop-color="#70C6FC"/>
<stop offset="0.0627815" stop-color="#6CC2FB"/>
<stop offset="0.6801" stop-color="#439CF2"/>
<stop offset="1" stop-color="#348DEF"/>
</linearGradient>
<linearGradient id="paint2_linear_21895_62126" x1="17.2424" y1="24.8915" x2="31.0151" y2="24.8915" gradientUnits="userSpaceOnUse">
<stop stop-color="#70C6FC"/>
<stop offset="0.0627815" stop-color="#6CC2FB"/>
<stop offset="0.6801" stop-color="#439CF2"/>
<stop offset="1" stop-color="#348DEF"/>
</linearGradient>
</defs>
</svg>
