<svg width="80" height="80" viewBox="0 0 80 80" fill="none" xmlns="http://www.w3.org/2000/svg">
<path d="M52.9 36.1H46.4V29.6C46.4 28.9 45.8 28.3 45.1 28.3H34.8C34.1 28.3 33.5 28.9 33.5 29.6V36.1H27C26.3 36.1 25.7 36.7 25.7 37.4V47.7C25.7 48.4 26.3 49 27 49H33.5V55.5C33.5 56.2 34.1 56.8 34.8 56.8H45.1C45.8 56.8 46.4 56.2 46.4 55.5V49H52.9C53.6 49 54.2 48.4 54.2 47.7V37.4C54.2 36.6 53.6 36.1 52.9 36.1ZM51.6 46.4H45.1C44.4 46.4 43.8 47 43.8 47.7V54.2H36V47.7C36 47 35.4 46.4 34.7 46.4H28.2V38.6H34.7C35.4 38.6 36 38 36 37.3V30.8H43.8V37.3C43.8 38 44.4 38.6 45.1 38.6H51.6V46.4Z" fill="#808080"/>
<path d="M63.6 20.6H50.3V16.9C50.3 14 47.9 11.6 44.9 11.6H34.6C31.7 11.6 29.6 13.8 29.6 16.9V20.6H16.4C12.3 20.6 9 23.9 9 28V57C9 61.1 12.3 64.4 16.4 64.4H63.5C67.6 64.4 70.9 61.1 70.9 57V28C71 23.9 67.7 20.6 63.6 20.6ZM32.2 16.9C32.2 15.5 32.9 14.1 34.6 14.1H44.8C46.4 14.1 47.7 15.3 47.7 16.9V20.6H32.2V16.9ZM68.4 57C68.4 59.7 66.2 61.9 63.5 61.9H16.4C13.7 61.9 11.5 59.7 11.5 57V28C11.5 25.3 13.7 23.1 16.4 23.1H63.5C66.2 23.1 68.4 25.3 68.4 28V57Z" fill="#808080"/>
</svg>
