<svg width="80" height="80" viewBox="0 0 80 80" fill="none" xmlns="http://www.w3.org/2000/svg">
<path d="M63.7 41.9H60.6L59.8 34.4C59.7 33.5 59 32.9 58.1 32.9H53.6C52.7 32.9 52 33.6 51.9 34.4L51.1 41.9H47L46.2 34.4C46.1 33.5 45.4 32.9 44.5 32.9H40C39.1 32.9 38.4 33.6 38.3 34.4L37.5 41.9H35.6L34.4 28.9C34.3 28 33.6 27.4 32.7 27.4H27.3C26.4 27.4 25.7 28.1 25.6 28.9L23.7 49.1C22.5 49.1 14.3 49.1 12.7 49.1C11.8 49.1 11 49.9 11 50.8C11 51.7 11.8 52.5 12.7 52.5H14.7V67.2C14.7 68.1 15.5 68.9 16.4 68.9H63.5C64.4 68.9 65.2 68.1 65.2 67.2V52.2C67.4 51.5 68.9 49.5 68.9 47.1C69 44.3 66.6 41.9 63.7 41.9ZM22.1 65.6H18.1V52.6H23.3L22.1 65.6ZM55.1 36.3H56.6L57.2 42H54.6L55.1 36.3ZM41.5 36.3H43L43.6 42H41L41.5 36.3ZM32.9 65.6C32 65.6 26.4 65.6 25.6 65.6L28.9 30.8H31.2L32.3 42.4C30.5 43.3 29.2 45.1 29.2 47.2C29.2 49.5 30.7 51.5 32.8 52.2V65.6H32.9ZM61.9 65.6C60.8 65.6 37.4 65.6 36.3 65.6V52.6H61.9V65.6ZM63.7 49.2C62.5 49.2 35.8 49.2 34.6 49.2C33.5 49.2 32.7 48.3 32.7 47.3C32.7 46.3 33.6 45.4 34.6 45.4H63.7C64.8 45.4 65.6 46.3 65.6 47.3C65.6 48.3 64.7 49.2 63.7 49.2Z" fill="#808080"/>
<path d="M41.8 61.6C42.7 61.6 43.5 60.8 43.5 59.9V58.1C43.5 57.2 42.7 56.4 41.8 56.4C40.9 56.4 40.1 57.2 40.1 58.1V59.9C40.1 60.9 40.9 61.6 41.8 61.6Z" fill="#808080"/>
<path d="M49.1 61.6C50 61.6 50.8 60.8 50.8 59.9V58.1C50.8 57.2 50 56.4 49.1 56.4C48.2 56.4 47.4 57.2 47.4 58.1V59.9C47.4 60.9 48.1 61.6 49.1 61.6Z" fill="#808080"/>
<path d="M56.3 61.6C57.2 61.6 58 60.8 58 59.9V58.1C58 57.2 57.2 56.4 56.3 56.4C55.4 56.4 54.6 57.2 54.6 58.1V59.9C54.6 60.9 55.4 61.6 56.3 61.6Z" fill="#808080"/>
<path d="M39.4 25C41.5 27.2 44.8 27.8 47.5 26.6C49.1 28.2 51.3 29 53.6 29C58.5 29 62.5 25 62.5 20.1C62.5 17.7 61.6 15.4 59.9 13.7C56.5 10.2 51.1 10.1 47.4 13.6C44.7 12.4 41.4 13 39.3 15.2C35.8 13.7 31.9 16.3 31.9 20.1C32 23.9 35.9 26.4 39.4 25ZM37.3 18.1C37.8 18.1 38.3 18.3 38.6 18.6C39.4 19.4 40.7 19.2 41.3 18.2C42.4 16.2 45 15.7 46.8 17C47.6 17.6 48.6 17.4 49.2 16.7C50.3 15.2 52 14.4 53.6 14.4C56.6 14.4 59.2 17 59.2 20.1C59.2 23.2 56.7 25.7 53.6 25.7C51.8 25.7 50.2 24.9 49.2 23.5C48.6 22.7 47.6 22.6 46.8 23.2C45 24.6 42.4 24 41.3 22C40.8 21 39.5 20.8 38.6 21.6C38.2 21.9 37.8 22.1 37.3 22.1C36.2 22.1 35.4 21.2 35.4 20.2C35.4 19.2 36.2 18.1 37.3 18.1Z" fill="#808080"/>
</svg>
