<svg width="24" height="24" viewBox="0 0 24 24" fill="none" xmlns="http://www.w3.org/2000/svg">
<path fill-rule="evenodd" clip-rule="evenodd" d="M19.6799 20.16V5.28H20.6399V21.12H5.27988C3.9662 21.12 2.87988 20.0337 2.87988 18.72V5.28C2.87988 3.96632 3.9662 2.88 5.27988 2.88H18.7199V18.24H5.27988C4.79988 18.24 4.31988 18.72 4.31988 19.2C4.31988 19.68 4.79988 20.16 5.27988 20.16H19.6799ZM11.2799 16.0789C10.7142 16.0789 10.2791 15.6003 10.2791 15.0781C10.2791 14.5124 10.7577 14.0773 11.2799 14.0773C11.8456 14.0773 12.2807 14.5559 12.2807 15.0781C12.2807 15.6438 11.8456 16.0789 11.2799 16.0789ZM12.1501 11.6405V11.8146C12.1501 12.2932 11.7585 12.6849 11.2799 12.6849C10.8012 12.6849 10.4096 12.2932 10.4096 11.8146V10.9008C10.4096 10.4222 10.8012 10.0305 11.2799 10.0305C12.1066 10.0305 12.7593 9.37783 12.7593 8.55107C12.7593 7.72432 12.1066 7.07161 11.2799 7.07161C10.4531 7.07161 9.80042 7.72432 9.80042 8.55107C9.80042 9.02972 9.4088 9.42134 8.93015 9.42134C8.4515 9.42134 8.05988 9.02972 8.05988 8.55107C8.05988 6.76702 9.49582 5.33107 11.2799 5.33107C13.0639 5.33107 14.4999 6.76702 14.4999 8.55107C14.4999 10.0305 13.4991 11.2489 12.1501 11.6405Z" fill="#B9964B"/>
</svg>
