<svg width="32" height="32" viewBox="0 0 32 32" fill="none" xmlns="http://www.w3.org/2000/svg">
<path d="M7 9V26C7 26.5523 7.44772 27 8 27H13.4627H23C24.1046 27 25 26.1046 25 25V13.189V6C25 5.44772 24.5523 5 24 5H21.5H11C8.79086 5 7 6.79086 7 9Z" stroke="#F69234" stroke-width="1.5" stroke-linecap="round" stroke-linejoin="round"/>
<path d="M10.7764 17.5339L13.555 14.7553L15.639 16.8392L20.7259 11.7524" stroke="#F69234" stroke-width="1.5" stroke-linecap="round" stroke-linejoin="round"/>
<path d="M18.0948 11.2532H21.2252V14.384" stroke="#F69234" stroke-width="1.5" stroke-linecap="round" stroke-linejoin="round"/>
<path d="M10.7764 21.0832L21.2256 21.0832" stroke="#F69234" stroke-width="1.5" stroke-linecap="round" stroke-linejoin="round"/>
<path d="M19.5436 27.0002H24.2204C26.4295 27.0002 28.2204 25.2093 28.2204 23.0002V20.6787C28.2204 20.1264 27.7727 19.6787 27.2204 19.6787H25.0402" stroke="#F69234" stroke-width="1.5" stroke-linecap="round"/>
</svg>
