<svg width="24" height="24" viewBox="0 0 24 24" fill="none" xmlns="http://www.w3.org/2000/svg">
<path fill-rule="evenodd" clip-rule="evenodd" d="M2.99805 14.2699C2.99805 10.8071 5.80517 8 9.26794 8C12.7307 8 15.5378 10.8071 15.5378 14.2699C15.5378 17.7327 12.7307 20.5398 9.26794 20.5398C5.80517 20.5398 2.99805 17.7327 2.99805 14.2699ZM9.26794 7C5.25289 7 1.99805 10.2548 1.99805 14.2699C1.99805 18.2849 5.25289 21.5398 9.26794 21.5398C13.283 21.5398 16.5378 18.2849 16.5378 14.2699C16.5378 10.2548 13.283 7 9.26794 7ZM8.18336 13.1679C8.18336 12.9941 8.27701 12.808 8.48424 12.6526C8.69185 12.4969 8.99612 12.3894 9.34778 12.3894C9.91682 12.3894 10.3275 12.6624 10.4592 12.9434C10.4802 12.9881 10.5099 13.0282 10.5465 13.0614C10.583 13.0946 10.6258 13.1203 10.6723 13.1371C10.7188 13.1538 10.7681 13.1612 10.8175 13.1588C10.8668 13.1564 10.9152 13.1444 10.9599 13.1233C11.0046 13.1023 11.0448 13.0726 11.078 13.036C11.1112 12.9995 11.1369 12.9567 11.1536 12.9102C11.1704 12.8637 11.1777 12.8144 11.1754 12.765C11.173 12.7156 11.161 12.6672 11.1399 12.6225C10.875 12.0608 10.244 11.7038 9.54901 11.6456C9.54992 11.6349 9.55039 11.6242 9.55039 11.6134V11.2373C9.55039 11.1375 9.51076 11.0419 9.44023 10.9713C9.36969 10.9008 9.27403 10.8612 9.17428 10.8612C9.07453 10.8612 8.97887 10.9008 8.90834 10.9713C8.8378 11.0419 8.79818 11.1375 8.79818 11.2373V11.6134C8.79818 11.6421 8.80147 11.6705 8.80784 11.6981C8.51758 11.7653 8.25231 11.8861 8.03292 12.0505C7.68314 12.313 7.43115 12.7042 7.43115 13.1683C7.43115 13.632 7.68314 14.0231 8.03292 14.2857C8.3827 14.5482 8.84869 14.6994 9.3474 14.6994C9.36207 14.6994 9.37664 14.6985 9.39107 14.6968C9.62825 14.7357 9.8329 14.8241 9.98516 14.9385C10.1928 15.0938 10.286 15.2804 10.286 15.4545C10.286 15.6283 10.1928 15.8145 9.98554 15.9698C9.77793 16.1255 9.47404 16.2331 9.12238 16.2331C8.55333 16.2331 8.14263 15.96 8.01024 15.6787C7.9677 15.5885 7.89106 15.5188 7.79718 15.4851C7.7033 15.4514 7.59987 15.4564 7.50965 15.4989C7.41942 15.5415 7.34979 15.6181 7.31608 15.712C7.28237 15.8059 7.28732 15.9093 7.32987 15.9995C7.59186 16.5561 8.21339 16.9116 8.90039 16.9751V17.2786C8.90039 17.3784 8.94002 17.474 9.01055 17.5446C9.08108 17.6151 9.17675 17.6547 9.27649 17.6547C9.37624 17.6547 9.47191 17.6151 9.54244 17.5446C9.61297 17.474 9.6526 17.3784 9.6526 17.2786V16.9265C9.9464 16.8597 10.2147 16.738 10.4365 16.5716C10.7866 16.3094 11.0383 15.9179 11.0383 15.4542C11.0383 14.9904 10.7866 14.5993 10.4369 14.3368C10.0871 14.0742 9.62109 13.923 9.12238 13.923C9.10768 13.923 9.09307 13.9239 9.07862 13.9256C8.84134 13.8867 8.6368 13.7983 8.48424 13.6839C8.27701 13.5282 8.18336 13.342 8.18336 13.1679Z" fill="#217DC1"/>
<path d="M11 6.5V5.7C11 4.20883 13.2386 3 16 3C18.7614 3 21 4.20883 21 5.7V18.3C21 19.7912 18.7614 21 16 21C15.4774 21 14.9735 20.9567 14.5 20.8764" stroke="#217DC1" stroke-linecap="round" stroke-linejoin="round"/>
<path d="M19.8164 17.3633C19.0297 17.8427 17.9367 18.1695 16.7051 18.2519" stroke="#217DC1" stroke-linecap="round" stroke-linejoin="round"/>
<path d="M19.8173 13.7266C19.2044 14.1001 18.4055 14.3809 17.5 14.5258" stroke="#217DC1" stroke-linecap="round" stroke-linejoin="round"/>
<path d="M19.8173 10.0898C19.0938 10.5308 18.1112 10.8425 17 10.9539" stroke="#217DC1" stroke-linecap="round" stroke-linejoin="round"/>
<path d="M12.3633 6.45312C13.2788 7.01108 14.6093 7.36222 16.0901 7.36222C17.571 7.36222 18.9014 7.01108 19.817 6.45312" stroke="#217DC1" stroke-linecap="round" stroke-linejoin="round"/>
</svg>
