<svg width="16" height="16" viewBox="0 0 16 16" fill="none" xmlns="http://www.w3.org/2000/svg">
<path d="M9.33333 3.33333H13C13.5523 3.33333 14 3.78105 14 4.33333V11.6667C14 12.219 13.5523 12.6667 13 12.6667H9.33333V3.33333Z" stroke="#808080" stroke-width="0.666667"/>
<rect x="1.99996" y="3.33333" width="12" height="9.33333" rx="1" stroke="#808080" stroke-width="0.666667"/>
<path d="M3.43092 7.7643C3.30075 7.89447 3.30075 8.10553 3.43092 8.2357L5.55224 10.357C5.68242 10.4872 5.89347 10.4872 6.02365 10.357C6.15382 10.2268 6.15382 10.0158 6.02365 9.88562L4.13803 8L6.02365 6.11438C6.15382 5.98421 6.15382 5.77315 6.02365 5.64298C5.89347 5.5128 5.68242 5.5128 5.55224 5.64298L3.43092 7.7643ZM9.66663 7.66667L3.66663 7.66667L3.66663 8.33333L9.66663 8.33333L9.66663 7.66667Z" fill="#808080"/>
</svg>
