<svg width="20" height="20" viewBox="0 0 20 20" fill="none" xmlns="http://www.w3.org/2000/svg">
<g clip-path="url(#clip0_39140_889)">
<path fill-rule="evenodd" clip-rule="evenodd" d="M10 0C15.5225 0 20 4.47754 20 10C20 15.5225 15.5225 20 10 20C4.47754 20 0 15.5225 0 10C0 4.47754 4.47754 0 10 0Z" fill="#2394E0"/>
<path fill-rule="evenodd" clip-rule="evenodd" d="M3.11597 14.22C2.60584 13.4618 2.22395 12.6125 1.99989 11.7025C2.59534 11.984 3.52464 12.4234 3.52464 12.4234L3.53309 12.8694C3.53309 13.0337 3.24843 13.3817 3.15684 13.5143L3.11597 14.22ZM12.4942 2.24995C15.3999 3.1959 17.5799 5.70231 17.9999 8.75419L17.7251 8.72519C17.6758 8.93233 17.6307 8.93648 17.6307 9.18505C17.6307 9.40462 17.9125 9.551 17.9125 10.0136C17.9125 10.1379 17.6152 10.3851 17.6025 10.4293L17.1614 9.92247V10.5674L17.0952 10.5646L16.9768 9.37424L16.7302 9.45019L16.4371 8.565L15.4718 9.55376L15.4605 10.2774L15.1449 10.4845L14.8095 8.62853L14.6094 8.77214L14.1556 8.17143L13.4778 8.19077L13.2185 7.89939L12.9522 7.9712L12.4293 7.3843L12.3279 7.45196L12.652 8.26396H13.0282V8.08029H13.2157C13.351 8.44762 13.4975 8.22943 13.4975 8.449C13.4975 9.21543 12.5322 9.77885 11.8995 9.92247C11.9333 10.0606 11.9206 10.1987 12.0869 10.1987C12.4406 10.1987 12.2645 10.1379 12.6506 10.1061C12.6323 10.8891 11.7346 11.824 11.3513 12.4054L11.5232 13.6054C11.5683 13.8664 10.9708 14.1413 10.7679 14.4354L10.8651 14.8952L10.5903 15.0043C10.5424 15.4766 10.0746 16 9.54894 16H8.98527C8.98527 15.3537 8.51459 14.4299 8.51459 13.9728C8.51459 13.5847 8.70202 13.5323 8.70202 13.0517C8.70202 12.607 8.23276 11.9704 8.23276 11.8544V11.117H7.8565C7.80013 10.9112 7.83536 10.8408 7.57466 10.8408H7.48025C7.07017 10.8408 7.13922 11.0245 6.72774 11.0245H6.35148C6.01186 11.0245 5.41155 9.95837 5.41155 9.82719V8.72243C5.41155 8.24601 5.85685 7.72677 6.16406 7.52515V7.0653L6.58682 6.64411L6.82215 6.60545C7.32664 6.60545 7.26605 6.32926 7.57466 6.32926H8.42018V6.97416L9.35025 7.36358L9.43762 6.97001C9.85897 7.06668 9.96889 7.25035 10.4875 7.25035H10.6749C11.0314 7.25035 11.0511 6.78635 11.0511 6.42178L10.2986 6.49497L9.97029 5.79621L9.64477 5.88045C9.70395 6.1304 9.73496 6.02683 9.73496 6.23811C9.73496 6.3624 9.63068 6.37621 9.54613 6.42178L9.2206 5.61255L8.52023 5.12231L8.42722 5.21207L9.02331 5.82659C8.9444 6.04754 8.93454 6.68416 8.60619 6.23811L8.9134 6.09312L8.14679 5.30598L7.6874 5.48136L7.23364 5.90669C7.18572 6.24916 7.09131 6.42178 6.72492 6.42178C6.48113 6.42178 6.62768 6.35964 6.25425 6.32926V5.40817H7.09976L6.82497 4.79503L6.72351 4.85579V4.67074L8.09747 4.0507C8.07211 3.85737 8.0397 3.96094 8.0397 3.74965C8.0397 3.73723 8.13129 3.56737 8.13411 3.56461L8.48923 3.78142L8.40468 3.38509L7.8565 3.49556L7.75504 3.01361C8.18907 2.7899 9.14591 2 9.4503 2H9.73214C10.0295 2 10.8243 2.28724 10.9539 2.45985L10.2 2.38528L10.7594 2.83685L10.813 2.64352L11.2301 2.53166L11.2358 2.27619H11.4246V2.55238L12.4942 2.24995Z" fill="#50CFF8"/>
<path d="M1.99989 11.7025C2.59534 11.984 3.52464 12.4234 3.52464 12.4234C3.77883 12.1711 4.21097 11.5567 3.90593 11.117C3.60089 10.6773 4.26302 8.30577 3.38277 8.26396C2.7161 8.23229 1.59989 9.86451 1.99989 11.7025Z" fill="#50CFF8"/>
</g>
<defs>
<clipPath id="clip0_39140_889">
<rect width="20" height="20" fill="white"/>
</clipPath>
</defs>
</svg>
