<svg width="24" height="24" viewBox="0 0 24 24" fill="none" xmlns="http://www.w3.org/2000/svg">
<path fill-rule="evenodd" clip-rule="evenodd" d="M12.1904 20.9998C12.4664 20.9937 12.6854 20.765 12.6793 20.489C12.6733 20.2129 12.4446 19.994 12.1685 20C8.56901 20.0787 5.24608 17.7024 4.27287 14.0703C3.12934 9.80262 5.662 5.41592 9.92973 4.27239C14.1975 3.12885 18.5842 5.66151 19.7277 9.92924C19.9133 10.6219 20.002 11.3169 20.0024 12.0002C20.0026 12.2763 20.2266 12.5001 20.5027 12.4999C20.7788 12.4997 21.0026 12.2757 21.0024 11.9996C21.0019 11.2298 20.902 10.448 20.6936 9.67042C19.4071 4.86922 14.4721 2.01998 9.67091 3.30646C4.86971 4.59294 2.02047 9.52797 3.30695 14.3292C4.40217 18.4166 8.141 21.0883 12.1904 20.9998ZM10.6392 10.6162C10.6392 10.3981 10.7568 10.1643 11.017 9.9693C11.2777 9.7738 11.6597 9.63874 12.1012 9.63874C12.8157 9.63874 13.3314 9.98157 13.4966 10.3343C13.5231 10.3904 13.5603 10.4408 13.6063 10.4825C13.6522 10.5243 13.7058 10.5565 13.7642 10.5775C13.8226 10.5985 13.8846 10.6078 13.9465 10.6048C14.0085 10.6019 14.0693 10.5867 14.1254 10.5603C14.1815 10.5338 14.2319 10.4966 14.2736 10.4507C14.3154 10.4048 14.3476 10.3511 14.3686 10.2927C14.3896 10.2343 14.3989 10.1724 14.3959 10.1104C14.393 10.0484 14.3778 9.98764 14.3514 9.93152C14.0186 9.22589 13.2259 8.77759 12.3528 8.70478C12.354 8.69137 12.3546 8.67787 12.3546 8.6643V8.19208C12.3546 8.06684 12.3048 7.94672 12.2162 7.85817C12.1277 7.76961 12.0076 7.71986 11.8823 7.71986C11.7571 7.71986 11.637 7.76961 11.5484 7.85817C11.4599 7.94672 11.4101 8.06684 11.4101 8.19208V8.6643C11.4101 8.70052 11.4143 8.73631 11.4223 8.77104C11.0583 8.85545 10.7256 9.007 10.4504 9.21327C10.0112 9.54288 9.6948 10.034 9.6948 10.6167C9.6948 11.199 10.0112 11.6901 10.4504 12.0197C10.8895 12.3493 11.4746 12.5391 12.1008 12.5391C12.1192 12.5391 12.1375 12.538 12.1556 12.5359C12.4529 12.5848 12.7095 12.6957 12.9004 12.8392C13.1611 13.0342 13.2782 13.2685 13.2782 13.4871C13.2782 13.7053 13.1611 13.939 12.9009 14.134C12.6402 14.3295 12.2587 14.4646 11.8172 14.4646C11.1027 14.4646 10.587 14.1218 10.4208 13.7685C10.3674 13.6553 10.2712 13.5678 10.1533 13.5255C10.0354 13.4832 9.90556 13.4894 9.79228 13.5428C9.679 13.5962 9.59158 13.6925 9.54925 13.8103C9.50692 13.9282 9.51315 14.0581 9.56656 14.1713C9.89546 14.8701 10.6756 15.3164 11.5381 15.3962V15.7776C11.5381 15.9029 11.5878 16.023 11.6764 16.1115C11.7649 16.2001 11.885 16.2498 12.0103 16.2498C12.1355 16.2498 12.2556 16.2001 12.3442 16.1115C12.4327 16.023 12.4825 15.9029 12.4825 15.7776V15.3353C12.8515 15.2515 13.1886 15.0986 13.4671 14.8896C13.9067 14.5604 14.2227 14.0689 14.2227 13.4866C14.2227 12.9044 13.9067 12.4133 13.4676 12.0836C13.0284 11.754 12.4433 11.5642 11.8172 11.5642C11.7987 11.5642 11.7804 11.5653 11.7623 11.5674C11.4648 11.5185 11.2083 11.4076 11.017 11.2641C10.7568 11.0686 10.6392 10.8349 10.6392 10.6162Z" fill="#217DC1"/>
<circle cx="18" cy="18" r="4" stroke="#217DC1" stroke-linecap="round" stroke-linejoin="round"/>
<path d="M16.5 18H19.5" stroke="#217DC1" stroke-linecap="round" stroke-linejoin="round"/>
<path d="M18 16.5L18 19.5" stroke="#217DC1" stroke-linecap="round" stroke-linejoin="round"/>
</svg>
