<svg width="38" height="38" viewBox="0 0 38 38" fill="none" xmlns="http://www.w3.org/2000/svg">
<path d="M21.28 11.4475H24.13L19.8075 6.8875V9.9275C19.8075 10.735 20.4725 11.4475 21.28 11.4475Z" fill="#A07A4B"/>
<path d="M16.5299 23.1325H10.5449C10.3074 23.1325 10.1174 22.895 10.1174 22.5625V22.515C10.1174 22.325 10.2124 22.135 10.3549 22.0875C10.4024 22.04 10.4974 22.04 10.5449 22.04H16.9099C17.1949 21.3275 17.5274 20.7575 17.9549 20.1875H10.5449C10.3074 20.1875 10.1174 19.95 10.1174 19.6175C10.1174 19.6175 10.1174 19.6175 10.1174 19.57C10.1174 19.5225 10.1174 19.475 10.1649 19.38V19.4275V19.38C10.2124 19.1425 10.4024 19 10.5924 19H18.9999C20.3774 17.8125 22.1824 17.0525 24.1299 17.0525C24.3199 17.0525 24.4624 17.0525 24.6999 17.1V12.35H21.2324C19.9024 12.35 18.8099 11.2575 18.8099 9.9275V6.175H8.97744C7.83744 6.175 6.93494 7.125 6.93494 8.265V25.8875C6.93494 27.0275 7.83744 27.93 8.97744 27.93H16.9574C16.5774 27.0275 16.3399 25.9825 16.3399 24.89C16.3399 24.32 16.4349 23.7025 16.5299 23.1325ZM10.5449 16.0075H20.5674C20.8049 16.0075 20.9949 16.245 20.9949 16.5775C20.9949 16.91 20.8049 17.1475 20.5674 17.1475H10.5449C10.3074 17.1475 10.1174 16.91 10.1174 16.5775C10.0699 16.245 10.3074 16.0075 10.5449 16.0075Z" fill="#A07A4B"/>
<path d="M24.1774 18.0025C22.8949 18.0025 21.6599 18.3825 20.6149 19C20.0924 19.3325 19.6174 19.7125 19.1899 20.14C18.6674 20.6625 18.2399 21.3275 17.9074 21.9925C17.7174 22.3725 17.6224 22.7525 17.4799 23.1325C17.3374 23.7025 17.2424 24.32 17.2424 24.89C17.2424 28.69 20.3299 31.7775 24.1299 31.7775C27.9299 31.7775 31.0174 28.69 31.0174 24.89C31.0649 21.09 27.9774 18.0025 24.1774 18.0025ZM24.7949 28.2625V28.69C24.7949 29.165 24.6049 29.4025 24.1774 29.4025H24.1299C23.7024 29.4025 23.5599 29.165 23.5599 28.69V28.31C22.3249 28.1675 21.5649 27.5975 21.5649 27.0275C21.5649 26.6 22.0874 26.2675 22.0874 26.315C22.4674 26.79 23.2274 27.17 24.0824 27.17C24.8424 27.17 25.2224 26.8375 25.2224 26.41C25.2224 25.84 24.5574 25.6975 23.8449 25.5075C22.9424 25.3175 21.7074 24.9375 21.7074 23.56C21.7074 22.5625 22.4199 21.85 23.5599 21.66V21.28C23.5599 20.805 23.7499 20.5675 24.1299 20.5675H24.2249C24.6524 20.5675 24.7949 20.805 24.7949 21.28V21.6125C25.9349 21.755 26.5999 22.23 26.5999 22.8C26.5999 23.275 26.0774 23.6075 26.0299 23.56C25.6499 23.085 24.9374 22.7525 24.2724 22.7525C23.5599 22.7525 23.1324 23.085 23.1324 23.5125C23.1324 24.035 23.7024 24.1775 24.5099 24.3675C25.4599 24.5575 26.7424 24.9375 26.7424 26.315C26.7424 27.3125 26.0299 28.025 24.7949 28.2625Z" fill="#A07A4B"/>
</svg>
