<svg width="80" height="80" viewBox="0 0 80 80" fill="none" xmlns="http://www.w3.org/2000/svg">
<path d="M69.3001 36L59.1 24.4C58.9 24.1 58.6001 24 58.2001 24H21.8C21.5 24 21.1 24.1 20.9 24.4L10.7 36C10.4 36.3 10.3 36.8 10.5 37.3C10.6 37.5 10.7 37.6 10.8 37.7L39.1 69.6C39.3 69.9 39.6 70 40 70C40.4 70 40.7 69.9 40.9 69.6L69.2 37.7C69.3 37.6 69.4 37.5 69.5 37.3C69.7 36.8 69.6001 36.4 69.3001 36ZM40 27.4L48 35.4H32L40 27.4ZM29.1 34.6L24.1 26.6H37L29.1 34.6ZM42.9001 26.6H55.8L50.8 34.6L42.9001 26.6ZM28 38L37.6 64.4L14.2 38H28ZM51.8 35.7C51.2 35.5 50.5 35.8 50.3 36.4L40 64.1L30.5 38H65.8001L42.4001 64.3L52.4001 37.2C52.7001 36.6 52.4 36 51.8 35.7ZM53.5 35.4L58.5 27.4L65.6 35.4H53.5ZM21.5 27.4L26.5 35.4H14.5L21.5 27.4Z" fill="#02509F"/>
<path d="M40 18.4C40.6 18.4 41.2 17.9 41.2 17.2V11.2C41.2 10.6 40.7 10 40 10C39.3 10 38.8 10.5 38.8 11.2V17.2C38.8 17.9 39.4 18.4 40 18.4Z" fill="#02509F"/>
<path d="M45.6 20.9C45.9 20.9 46.2001 20.8 46.4001 20.6L50.7001 16.3C51.2001 15.8 51.2001 15.1 50.7001 14.6C50.2001 14.1 49.5 14.1 49 14.6L44.7001 18.9C44.2001 19.4 44.2001 20.1 44.7001 20.6C45.0001 20.8 45.3 20.9 45.6 20.9Z" fill="#02509F"/>
<path d="M33.4 20.6C33.6 20.8 33.9 20.9 34.2 20.9C34.5 20.9 34.8 20.8 35 20.6C35.5 20.1 35.5 19.4 35 18.9L30.7 14.6C30.2 14.1 29.5 14.1 29 14.6C28.5 15.1 28.5 15.8 29 16.3L33.4 20.6Z" fill="#02509F"/>
</svg>
