<svg width="28" height="28" viewBox="0 0 28 28" fill="none" xmlns="http://www.w3.org/2000/svg">
<circle cx="14" cy="14" r="12" fill="#F3F8FB"/>
<path d="M6.47461 10.9961C6.47461 9.54635 7.64986 8.37109 9.09961 8.37109H21.5682V18.0954C21.5682 19.5452 20.393 20.7204 18.9432 20.7204H6.47461V10.9961Z" stroke="#217DC1" stroke-width="0.875" stroke-linecap="round" stroke-linejoin="round"/>
<path d="M6.47461 12.4883H9.09959M21.5682 12.4883H18.7245" stroke="#217DC1" stroke-width="0.875" stroke-linecap="round" stroke-linejoin="round"/>
<path d="M10.3711 7V9.7443" stroke="#217DC1" stroke-width="0.875" stroke-linecap="round" stroke-linejoin="round"/>
<path d="M17.2344 7V9.7443" stroke="#217DC1" stroke-width="0.875" stroke-linecap="round" stroke-linejoin="round"/>
<circle cx="13.9121" cy="14.5976" r="3.93747" stroke="#217DC1" stroke-width="0.875" stroke-linecap="round" stroke-linejoin="round"/>
<path fill-rule="evenodd" clip-rule="evenodd" d="M14.4175 15.7344C14.5576 15.6333 14.6207 15.5121 14.6207 15.3991C14.6207 15.2858 14.5576 15.1644 14.4173 15.0633C14.3185 14.9919 14.1871 14.936 14.0349 14.9093C14.019 14.9124 14.0027 14.914 13.9862 14.914C13.649 14.914 13.334 14.8117 13.0975 14.6342C12.861 14.4567 12.6906 14.1923 12.6906 13.8787C12.6906 13.5649 12.861 13.3005 13.0975 13.123C13.2441 13.0131 13.4211 12.932 13.6147 12.8863V12.6549C13.6147 12.59 13.6415 12.5277 13.6892 12.4818C13.7369 12.4359 13.8016 12.4102 13.869 12.4102C13.9365 12.4102 14.0011 12.4359 14.0488 12.4818C14.0965 12.5277 14.1233 12.59 14.1233 12.6549V12.8493C14.5929 12.8888 15.0192 13.1301 15.1982 13.5098C15.2124 13.54 15.2206 13.5727 15.2222 13.6061C15.2238 13.6395 15.2188 13.6728 15.2075 13.7043C15.1962 13.7357 15.1788 13.7646 15.1563 13.7893C15.1339 13.814 15.1067 13.8341 15.0765 13.8483C15.0463 13.8626 15.0136 13.8707 14.9802 13.8723C14.9468 13.8739 14.9135 13.8689 14.882 13.8576C14.8506 13.8463 14.8217 13.829 14.797 13.8065C14.7722 13.784 14.7522 13.7569 14.7379 13.7267C14.6489 13.5367 14.3712 13.3521 13.9865 13.3521C13.7487 13.3521 13.543 13.4248 13.4026 13.5301C13.2625 13.6351 13.1992 13.761 13.1992 13.8785C13.1992 13.9962 13.2625 14.1221 13.4026 14.2274C13.543 14.3327 13.7485 14.4054 13.9862 14.4054C14.0138 14.4054 14.0408 14.4098 14.0665 14.4184C14.3144 14.4526 14.5416 14.5409 14.7227 14.6717C14.9592 14.8425 15.1293 15.0971 15.1293 15.3988C15.1293 15.7006 14.9592 15.9553 14.7224 16.1259C14.5714 16.235 14.3883 16.3146 14.1879 16.3578C14.1907 16.3728 14.1921 16.3882 14.1921 16.4036V16.6579C14.1921 16.7253 14.1653 16.79 14.1176 16.8377C14.0699 16.8854 14.0052 16.9122 13.9378 16.9122C13.8703 16.9122 13.8057 16.8854 13.758 16.8377C13.7103 16.79 13.6835 16.7253 13.6835 16.6579V16.4036C13.6835 16.3986 13.6836 16.3935 13.6839 16.3885C13.2194 16.3473 12.7991 16.1159 12.6219 15.7537C12.5932 15.695 12.5898 15.6277 12.6126 15.5666C12.6354 15.5055 12.6825 15.4556 12.7435 15.4279C12.8045 15.4003 12.8744 15.397 12.9379 15.419C13.0014 15.4409 13.0532 15.4862 13.082 15.5449C13.1715 15.728 13.4492 15.9057 13.8339 15.9057C14.0717 15.9057 14.2772 15.8357 14.4175 15.7344Z" fill="#217DC1"/>
</svg>
