<svg width="32" height="33" viewBox="0 0 32 33" fill="none" xmlns="http://www.w3.org/2000/svg">
<path d="M8.58585 28.7638V26.6358L5.52326 22.4865C4.91719 21.6653 5.01626 20.5216 5.75451 19.817V19.817C6.627 18.9842 8.0293 19.0931 8.76273 20.0506L12.1768 24.5078C12.1768 24.5078 12.1768 26.6343 12.1768 28.7638" stroke="#217DC1" stroke-width="1.33" stroke-linecap="round"/>
<path d="M23.4151 28.7638V26.6358L26.4777 22.4865C27.0838 21.6653 26.9847 20.5216 26.2465 19.817V19.817C25.374 18.9842 23.9717 19.0931 23.2382 20.0506L19.8242 24.5078C19.8242 24.5078 19.8242 26.6343 19.8242 28.7638" stroke="#217DC1" stroke-width="1.33" stroke-linecap="round"/>
<path d="M14.3942 25.6563C14.9181 25.7346 15.4542 25.7752 15.9999 25.7752C16.5455 25.7752 17.0817 25.7346 17.6055 25.6563M5.36385 16.7055C5.27606 16.1518 5.23047 15.5841 5.23047 15.0057C5.23047 9.05796 10.0521 4.23633 15.9999 4.23633C21.9477 4.23633 26.7693 9.05796 26.7693 15.0057C26.7693 15.5841 26.7237 16.1518 26.6359 16.7055" stroke="#217DC1" stroke-width="1.33" stroke-linecap="round" stroke-linejoin="round"/>
<path fill-rule="evenodd" clip-rule="evenodd" d="M14.6109 11.9099C14.2274 12.1974 14.0541 12.5419 14.0541 12.8635C14.0541 13.1857 14.2274 13.5302 14.6109 13.8184C14.9951 14.1065 15.5575 14.3056 16.2083 14.3056C16.3929 14.3056 16.5699 14.3789 16.7004 14.5094C16.831 14.64 16.9043 14.817 16.9043 15.0016C16.9043 15.1862 16.831 15.3632 16.7004 15.4938C16.5699 15.6243 16.3929 15.6976 16.2083 15.6976C15.2854 15.6976 14.423 15.4178 13.7757 14.932C13.1284 14.4462 12.6621 13.7223 12.6621 12.8642C12.6621 12.0053 13.1284 11.2814 13.7757 10.7956C14.423 10.3105 15.2861 10.0307 16.2083 10.0307C17.6372 10.0307 18.9881 10.7149 19.5255 11.8542C19.5644 11.937 19.5868 12.0266 19.5911 12.1179C19.5955 12.2092 19.5818 12.3005 19.5509 12.3866C19.5199 12.4726 19.4724 12.5518 19.4109 12.6194C19.3494 12.6871 19.2751 12.742 19.1924 12.781C19.1097 12.82 19.0201 12.8423 18.9288 12.8466C18.8374 12.851 18.7461 12.8373 18.6601 12.8064C18.574 12.7755 18.4949 12.7279 18.4272 12.6664C18.3596 12.6049 18.3047 12.5307 18.2657 12.4479C18.0221 11.928 17.262 11.4227 16.209 11.4227C15.5582 11.4227 14.9951 11.6218 14.6109 11.9099Z" fill="#217DC1"/>
<path fill-rule="evenodd" clip-rule="evenodd" d="M17.3892 17.9428C17.7727 17.6662 17.9453 17.3346 17.9453 17.0252C17.9453 16.715 17.7727 16.3828 17.3885 16.1062C17.005 15.8288 16.4419 15.6373 15.7919 15.6373C15.6073 15.6373 15.4302 15.5667 15.2997 15.4411C15.1692 15.3155 15.0959 15.1451 15.0959 14.9674C15.0959 14.7898 15.1692 14.6194 15.2997 14.4938C15.4302 14.3682 15.6073 14.2976 15.7919 14.2976C16.7148 14.2976 17.5771 14.5669 18.2244 15.0344C18.8717 15.502 19.3373 16.1986 19.3373 17.0245C19.3373 17.8504 18.8717 18.5477 18.2237 19.0146C17.5764 19.4821 16.7148 19.7514 15.7919 19.7514C14.363 19.7514 13.0113 19.0929 12.4747 17.9958C12.396 17.8351 12.3868 17.6509 12.4492 17.4837C12.5116 17.3165 12.6404 17.18 12.8074 17.1042C12.9743 17.0284 13.1657 17.0196 13.3395 17.0797C13.5132 17.1397 13.655 17.2637 13.7338 17.4244C13.9788 17.9254 14.7388 18.4117 15.7919 18.4117C16.4426 18.4117 17.005 18.2201 17.3892 17.9428ZM15.8879 8.84448C16.0725 8.84448 16.2495 8.91505 16.3801 9.04067C16.5106 9.16629 16.5839 9.33667 16.5839 9.51432V10.1842C16.5839 10.3618 16.5106 10.5322 16.3801 10.6578C16.2495 10.7834 16.0725 10.854 15.8879 10.854C15.7033 10.854 15.5263 10.7834 15.3958 10.6578C15.2652 10.5322 15.1919 10.3618 15.1919 10.1842V9.51432C15.1919 9.33667 15.2652 9.16629 15.3958 9.04067C15.5263 8.91505 15.7033 8.84448 15.8879 8.84448Z" fill="#217DC1"/>
<path fill-rule="evenodd" clip-rule="evenodd" d="M16.0759 19.0782C16.2605 19.0782 16.4375 19.1516 16.568 19.2821C16.6986 19.4126 16.7719 19.5897 16.7719 19.7743V20.4703C16.7719 20.6549 16.6986 20.8319 16.568 20.9624C16.4375 21.0929 16.2605 21.1663 16.0759 21.1663C15.8913 21.1663 15.7143 21.0929 15.5837 20.9624C15.4532 20.8319 15.3799 20.6549 15.3799 20.4703V19.7743C15.3799 19.5897 15.4532 19.4126 15.5837 19.2821C15.7143 19.1516 15.8913 19.0782 16.0759 19.0782Z" fill="#217DC1"/>
</svg>
