<svg width="20" height="20" viewBox="0 0 20 20" fill="none" xmlns="http://www.w3.org/2000/svg">
<line x1="4.5" y1="11.5" x2="15.5" y2="11.5" stroke="#808080" stroke-linecap="round"/>
<line x1="4.5" y1="14.5" x2="15.5" y2="14.5" stroke="#808080" stroke-linecap="round"/>
<line x1="4.5" y1="17.5" x2="11.5" y2="17.5" stroke="#808080" stroke-linecap="round"/>
<path d="M4.14645 4.64645C3.95118 4.84171 3.95118 5.15829 4.14645 5.35355L7.32843 8.53553C7.52369 8.7308 7.84027 8.7308 8.03553 8.53553C8.2308 8.34027 8.2308 8.02369 8.03553 7.82843L5.20711 5L8.03553 2.17157C8.2308 1.97631 8.2308 1.65973 8.03553 1.46447C7.84027 1.2692 7.52369 1.2692 7.32843 1.46447L4.14645 4.64645ZM11 4.5L4.5 4.5V5.5L11 5.5V4.5Z" fill="#808080"/>
<circle cx="13" cy="5" r="2.5" stroke="#808080"/>
</svg>
