<svg width="32" height="33" viewBox="0 0 32 33" fill="none" xmlns="http://www.w3.org/2000/svg">
<path d="M5 24.1562L5 12.1562C5 9.94711 6.79086 8.15625 9 8.15625L26 8.15625C26.5523 8.15625 27 8.60397 27 9.15625L27 14.619L27 21.1562C27 23.3654 25.2091 25.1562 23 25.1562L19.0945 25.1562L17.4039 27.1464C17.0045 27.6165 16.279 27.6165 15.8796 27.1464L14.189 25.1562L6 25.1562C5.44772 25.1562 5 24.7085 5 24.1562Z" stroke="#FF337C" stroke-width="1.5" stroke-linecap="round"/>
<path fill-rule="evenodd" clip-rule="evenodd" d="M12.454 12.5535C11.7082 13.2649 11.6895 13.2994 11.6895 13.9679C11.6895 14.3572 11.805 14.9464 11.9573 15.3325C13.0416 18.0835 16.8974 21.3712 19.0391 21.3712C19.433 21.3712 19.664 21.2666 20.1082 20.8874C21.475 19.7206 21.4929 19.3491 20.241 18.129C19.0191 16.9381 18.8763 16.94 17.8322 18.1606C17.5366 18.506 16.9922 18.4622 16.3269 18.0395C15.2633 17.3637 14.4213 16.1364 14.582 15.4961C14.6221 15.336 14.8594 15.0845 15.1094 14.937C15.6897 14.5946 15.8818 14.1283 15.6372 13.6555C15.5383 13.4643 15.1074 12.9742 14.6796 12.5661C13.666 11.5995 13.4554 11.5983 12.454 12.5535Z" fill="#FF337C"/>
</svg>
