<svg width="24" height="24" viewBox="0 0 24 24" fill="none" xmlns="http://www.w3.org/2000/svg">
<path d="M21 9.5V3H6C4.34315 3 3 4.34315 3 6V21H11" stroke="#9B9B9B" stroke-linecap="round" stroke-linejoin="round"/>
<circle cx="17" cy="16" r="5" stroke="#9B9B9B" stroke-linecap="round" stroke-linejoin="round"/>
<path d="M16.427 14.7896L16.427 14.7896C16.574 14.6793 16.7925 14.6012 17.0477 14.6012C17.4628 14.6012 17.7511 14.8003 17.8399 14.9898L17.8399 14.9899C17.8586 15.0296 17.8849 15.0651 17.9173 15.0946C17.9497 15.124 17.9876 15.1468 18.0288 15.1616C18.0701 15.1764 18.1138 15.183 18.1575 15.1809C18.2013 15.1788 18.2442 15.1681 18.2838 15.1495C18.3235 15.1308 18.359 15.1045 18.3885 15.0721C18.4179 15.0397 18.4407 15.0018 18.4555 14.9606C18.4703 14.9193 18.4769 14.8756 18.4748 14.8318C18.4727 14.7881 18.462 14.7452 18.4434 14.7056L18.4433 14.7056C18.214 14.2193 17.6426 13.9344 17.0474 13.9344C16.6622 13.9344 16.3 14.0512 16.027 14.2558L16.0269 14.2558C15.754 14.4607 15.5535 14.769 15.5535 15.1381C15.5535 15.5069 15.754 15.8152 16.0269 16.0201C16.3 16.225 16.6619 16.3418 17.0474 16.3418C17.1359 16.3418 17.2207 16.3067 17.2832 16.2442C17.3457 16.1816 17.3808 16.0968 17.3808 16.0084C17.3808 15.92 17.3457 15.8352 17.2832 15.7727C17.2207 15.7101 17.1359 15.675 17.0474 15.675C16.7923 15.675 16.5741 15.5969 16.4271 15.4867C16.2804 15.3765 16.2203 15.2499 16.2203 15.1378C16.2203 15.0261 16.2804 14.8994 16.427 14.7896ZM17.9509 15.0576C17.9234 15.0325 17.901 15.0023 17.8852 14.9686L16.057 14.2958C16.3205 14.0983 16.6719 13.9844 17.0474 13.9844C17.6293 13.9844 18.1793 14.263 18.3981 14.7269C18.414 14.7606 18.4231 14.797 18.4249 14.8342C18.4266 14.8714 18.4211 14.9086 18.4085 14.9436C18.3959 14.9787 18.3765 15.0109 18.3515 15.0385C18.3264 15.066 18.2962 15.0884 18.2625 15.1042C18.2288 15.1201 18.1924 15.1292 18.1552 15.131C18.118 15.1327 18.0808 15.1272 18.0458 15.1146C18.0107 15.102 17.9785 15.0826 17.9509 15.0576Z" fill="#9B9B9B" stroke="#9B9B9B" stroke-width="0.1"/>
<path d="M17.4989 17.1641L17.4989 17.1641C17.3518 17.2702 17.1334 17.3456 16.8778 17.3456C16.4617 17.3456 16.1736 17.1534 16.0847 16.9716L16.0846 16.9715C16.0466 16.8939 15.9784 16.8346 15.8955 16.8059C15.8127 16.7773 15.7215 16.7815 15.6419 16.8176C15.5621 16.8538 15.5 16.9193 15.4698 17.0002C15.4396 17.0812 15.4441 17.1704 15.4822 17.2482C15.7116 17.7174 16.2836 17.9911 16.8778 17.9911C17.2629 17.9911 17.6242 17.8788 17.8972 17.6816C18.1703 17.4848 18.3714 17.1872 18.3714 16.8307C18.3714 16.4742 18.1703 16.1769 17.8975 15.9799C17.6245 15.7827 17.2629 15.6704 16.8778 15.6704C16.7899 15.6704 16.7053 15.7039 16.6427 15.7642C16.58 15.8246 16.5444 15.9069 16.5444 15.9931C16.5444 16.0794 16.58 16.1617 16.6427 16.222C16.7053 16.2823 16.7899 16.3159 16.8778 16.3159C17.1331 16.3159 17.3518 16.3912 17.4986 16.4973L17.4987 16.4974C17.6455 16.6031 17.7046 16.7247 17.7046 16.831C17.7046 16.937 17.6456 17.0583 17.4989 17.1641ZM17.1519 13.5439C17.0893 13.4836 17.0047 13.45 16.9169 13.45C16.829 13.45 16.7445 13.4836 16.6818 13.5439C16.6191 13.6042 16.5835 13.6865 16.5835 13.7727V14.0455C16.5835 14.1317 16.6191 14.214 16.6818 14.2744C16.7445 14.3347 16.829 14.3682 16.9169 14.3682C17.0047 14.3682 17.0893 14.3347 17.1519 14.2744C17.2146 14.214 17.2503 14.1317 17.2503 14.0455V13.7727C17.2503 13.6865 17.2146 13.6042 17.1519 13.5439Z" fill="#9B9B9B" stroke="#9B9B9B" stroke-width="0.1"/>
<path d="M17.2281 17.7156C17.1656 17.6531 17.0808 17.618 16.9924 17.618C16.904 17.618 16.8192 17.6531 16.7566 17.7156C16.6941 17.7781 16.659 17.8629 16.659 17.9514V18.2348C16.659 18.3232 16.6941 18.408 16.7566 18.4705C16.8192 18.533 16.904 18.5682 16.9924 18.5682C17.0808 18.5682 17.1656 18.533 17.2281 18.4705C17.2907 18.408 17.3258 18.3232 17.3258 18.2348V17.9514C17.3258 17.8629 17.2907 17.7781 17.2281 17.7156Z" fill="#9B9B9B" stroke="#9B9B9B" stroke-width="0.1"/>
<path d="M3 12H10" stroke="#9B9B9B" stroke-linecap="round" stroke-linejoin="round"/>
<path d="M12 3L12 10.5" stroke="#9B9B9B" stroke-linecap="round" stroke-linejoin="round"/>
<path d="M6 7.75H9.5" stroke="#9B9B9B" stroke-linecap="round" stroke-linejoin="round"/>
<path d="M7.75 6L7.75 9.5" stroke="#9B9B9B" stroke-linecap="round" stroke-linejoin="round"/>
<path d="M6.51172 15.5117L8.98659 17.9866" stroke="#9B9B9B" stroke-linecap="round" stroke-linejoin="round"/>
<path d="M8.98828 15.5117L6.51341 17.9866" stroke="#9B9B9B" stroke-linecap="round" stroke-linejoin="round"/>
<path d="M15 7.75H18.5" stroke="#9B9B9B" stroke-linecap="round" stroke-linejoin="round"/>
</svg>
