<svg width="41" height="40" viewBox="0 0 41 40" fill="none" xmlns="http://www.w3.org/2000/svg">
<circle cx="20" cy="20" r="20" transform="matrix(-1 0 0 1 40.5 0)" fill="#0F75B2"/>
<path d="M40.5 20C40.5 16.0444 39.327 12.1776 37.1294 8.88859C34.9318 5.59961 31.8082 3.03616 28.1537 1.52241C24.4991 0.00865601 20.4778 -0.38741 16.5982 0.384295C12.7186 1.156 9.15491 3.06082 6.35786 5.85787C3.56081 8.65492 1.656 12.2186 0.884293 16.0982C0.112591 19.9778 0.508659 23.9992 2.02241 27.6537C3.53616 31.3082 6.09962 34.4318 9.3886 36.6294C12.6776 38.827 16.5444 40 20.5 40L20.5 20L40.5 20Z" fill="#9FBA62"/>
</svg>
