<svg width="22" height="12" viewBox="0 0 22 12" fill="none" xmlns="http://www.w3.org/2000/svg">
<rect x="0.5" y="0.5" width="21" height="11" rx="5.5" fill="#83BD3F"/>
<rect x="0.5" y="0.5" width="21" height="11" rx="5.5" stroke="white"/>
<path d="M7.76 4.856H10.744V5.744H7.76V4.856ZM3.424 3H7.024V3.784H3.424V3ZM3.344 6.184H7.016V6.992H3.344V6.184ZM3.32 4.784H7.088V5.576H3.32V4.784ZM9.056 5.24H9.984V9.68H9.056V5.24ZM4.76 2.272H5.696V3.352H4.76V2.272ZM4.76 5.528H5.696V9.712H4.76V5.528ZM7.328 2.84L8.448 3.152C8.44 3.232 8.384 3.272 8.24 3.296V5.648C8.24 6.84 8.088 8.608 7 9.736C6.88 9.528 6.528 9.2 6.312 9.08C7.24 8.096 7.328 6.728 7.328 5.632V2.84ZM9.944 2.288L10.712 2.984C9.896 3.352 8.808 3.624 7.872 3.8C7.824 3.592 7.688 3.256 7.576 3.072C8.432 2.88 9.376 2.592 9.944 2.288ZM5.624 7.024C5.872 7.176 6.64 7.776 6.832 7.936L6.28 8.624C6.016 8.304 5.408 7.704 5.112 7.44L5.624 7.024ZM3.824 3.904L4.56 3.728C4.704 4.016 4.816 4.408 4.856 4.672L4.072 4.88C4.056 4.616 3.952 4.208 3.824 3.904ZM5.816 3.712L6.664 3.872C6.512 4.24 6.376 4.584 6.256 4.832L5.496 4.672C5.608 4.4 5.744 3.992 5.816 3.712ZM4.768 6.656L5.448 6.904C5.056 7.784 4.392 8.704 3.752 9.224C3.6 9.016 3.32 8.696 3.12 8.544C3.752 8.136 4.416 7.36 4.768 6.656ZM17.256 2.192L17.952 2.984C16.304 3.408 14 3.608 12.04 3.672C12.016 3.432 11.896 3.04 11.808 2.832C13.736 2.752 15.944 2.544 17.256 2.192ZM11.88 4.464H18.208V5.384H11.88V4.464ZM11.328 6.328H18.68V7.264H11.328V6.328ZM14.512 3.32H15.512V8.576C15.512 9.144 15.368 9.4 14.984 9.544C14.6 9.696 14.016 9.72 13.2 9.712C13.136 9.44 12.952 9.008 12.808 8.76C13.4 8.784 14.072 8.776 14.256 8.776C14.44 8.776 14.512 8.72 14.512 8.56V3.32Z" fill="white"/>
</svg>
