<svg width="50" height="50" viewBox="0 0 50 50" fill="none" xmlns="http://www.w3.org/2000/svg">
<path d="M24.75 46C36.348 46 45.75 36.598 45.75 25C45.75 13.402 36.348 4 24.75 4C13.152 4 3.75 13.402 3.75 25C3.75 36.598 13.152 46 24.75 46Z" fill="#4D4D4D"/>
<path d="M27.4587 18.291L31.5632 22.4178L21.1826 32.8549L17.0781 28.7281L27.4587 18.291ZM34.6654 17.3073L32.8279 15.4598C32.112 14.74 30.9666 14.74 30.2745 15.4598L28.5325 17.2113L32.637 21.3381L34.6892 19.2747C35.2142 18.7469 35.2142 17.8591 34.6654 17.3073ZM14.9304 34.5105C14.8588 34.8464 15.1691 35.1583 15.5031 35.0623L20.061 33.9586L15.9565 29.8318L14.9304 34.5105Z" fill="#C5C5C4"/>
</svg>
