<svg width="51" height="50" viewBox="0 0 51 50" fill="none" xmlns="http://www.w3.org/2000/svg">
<path d="M25 46C36.598 46 46 36.598 46 25C46 13.402 36.598 4 25 4C13.402 4 4 13.402 4 25C4 36.598 13.402 46 25 46Z" fill="#EDEEEE"/>
<path d="M27.7086 18.291L31.8131 22.4179L21.4326 32.855L17.3281 28.7281L27.7086 18.291ZM34.9153 17.3073L33.0778 15.4598C32.3619 14.74 31.2165 14.74 30.5245 15.4598L28.7825 17.2113L32.8869 21.3382L34.9392 19.2748C35.4642 18.7469 35.4642 17.8592 34.9153 17.3073ZM15.1804 34.5105C15.1088 34.8464 15.419 35.1583 15.7531 35.0624L20.311 33.9587L16.2065 29.8318L15.1804 34.5105Z" fill="#4D4D4D"/>
</svg>
