<svg width="80" height="80" viewBox="0 0 80 80" fill="none" xmlns="http://www.w3.org/2000/svg">
<path d="M61.7996 10.5H18.6996C15.8996 10.5 13.5996 12.8 13.5996 15.6V64.4C13.5996 67.2 15.8996 69.5 18.6996 69.5H61.7996C64.5996 69.5 66.8996 67.2 66.8996 64.4V15.6C66.8996 12.8 64.5996 10.5 61.7996 10.5ZM63.4996 64.4C63.4996 65.3 62.6996 66.1 61.7996 66.1H18.6996C17.7996 66.1 16.9996 65.3 16.9996 64.4V25.8H63.4996V64.4ZM63.4996 22.4H16.8996V15.6C16.8996 14.7 17.6996 13.9 18.5996 13.9H61.6996C62.5996 13.9 63.3996 14.7 63.3996 15.6V22.4H63.4996Z" fill="#A07A4B"/>
<path d="M51.5996 16.5H48.1996C47.2996 16.5 46.4996 17.3 46.4996 18.2C46.4996 19.1 47.2996 19.9 48.1996 19.9H51.5996C52.4996 19.9 53.2996 19.1 53.2996 18.2C53.2996 17.2 52.4996 16.5 51.5996 16.5Z" fill="#A07A4B"/>
<path d="M60.5996 16.5H57.1996C56.2996 16.5 55.4996 17.3 55.4996 18.2C55.4996 19.1 56.2996 19.9 57.1996 19.9H60.5996C61.4996 19.9 62.2996 19.1 62.2996 18.2C62.2996 17.2 61.5996 16.5 60.5996 16.5Z" fill="#A07A4B"/>
<path d="M40.1996 62.4C49.2996 62.4 56.6996 55 56.6996 45.9C56.6996 45.5 56.6996 45 56.5996 44.6C55.8996 36.1 48.7996 29.5 40.1996 29.5C31.5996 29.5 24.4996 36.2 23.7996 44.6C23.7996 45 23.6996 45.5 23.6996 45.9C23.7996 55 31.0996 62.4 40.1996 62.4ZM40.1996 32.9C46.4996 32.9 51.7996 37.4 52.9996 43.3C51.7996 43.6 51.0996 44.1 50.3996 44.5C49.5996 45 48.9996 45.4 47.5996 45.4C46.1996 45.4 45.5996 45 44.7996 44.5C43.7996 43.9 42.4996 43.1 40.1996 43.1C37.8996 43.1 36.5996 43.9 35.5996 44.5C34.7996 45 34.1996 45.4 32.7996 45.4C31.3996 45.4 30.7996 45 29.9996 44.5C29.2996 44.1 28.4996 43.6 27.3996 43.3C28.5996 37.4 33.8996 32.9 40.1996 32.9ZM28.2996 47.4C29.2996 48 30.5996 48.8 32.8996 48.8C35.1996 48.8 36.4996 48 37.4996 47.4C38.2996 46.9 38.8996 46.5 40.2996 46.5C41.6996 46.5 42.2996 46.9 43.0996 47.4C44.0996 48 45.3996 48.8 47.6996 48.8C49.9996 48.8 51.2996 48 52.2996 47.4C52.6996 47.2 52.9996 47 53.3996 46.8C52.9996 53.6 47.2996 59 40.3996 59C33.4996 59 27.7996 53.6 27.3996 46.8C27.5996 47 27.8996 47.2 28.2996 47.4Z" fill="#A07A4B"/>
</svg>
