<svg width="32" height="32" viewBox="0 0 32 32" fill="none" xmlns="http://www.w3.org/2000/svg">
<path d="M10.6468 9.11719C8.95743 9.11719 7.58789 10.4867 7.58789 12.1761L7.58789 18.7852L7.58789 22.8825L16.9924 22.8825L22.4121 22.8825C23.5167 22.8825 24.4121 21.987 24.4121 20.8825L24.4121 13.3503L24.4121 9.11719L13.8503 9.11719L10.6468 9.11719Z" stroke="#FF337C" stroke-width="1.5" stroke-linecap="round" stroke-linejoin="round"/>
<path d="M20.2184 23.5767V25.7542C20.2184 26.3057 19.7713 26.7527 19.2198 26.7527H11.1783C10.6268 26.7527 10.1797 27.1998 10.1797 27.7513V28.6479C10.1797 29.4967 9.18781 29.9585 8.53828 29.412L2.60786 24.4229C2.13356 24.0239 2.13356 23.2936 2.60786 22.8946L7.55393 18.7336" stroke="#FF337C" stroke-width="1.5"/>
<path d="M10.26 8.64634V6.46888C10.26 5.91739 10.7071 5.47032 11.2586 5.47032H19.3001C19.8516 5.47032 20.2987 5.02325 20.2987 4.47175V3.57517C20.2987 2.72636 21.2906 2.26461 21.9401 2.81104L27.8705 7.8002C28.3448 8.19922 28.3448 8.92943 27.8705 9.32845L24.4738 12.186" stroke="#FF337C" stroke-width="1.5"/>
<path d="M11.7471 17.8591L14.9384 14.6678L17.3318 17.0613L20.253 14.1401" stroke="#FF337C" stroke-width="1.5" stroke-linecap="round" stroke-linejoin="round"/>
</svg>
