<svg width="32" height="32" viewBox="0 0 32 32" fill="none" xmlns="http://www.w3.org/2000/svg">
<path d="M4 9.18207H7.26942L8.13003 12.0068M8.13003 12.0068L10.821 22.4082H24.9841L28 12.0068H23.0325M8.13003 12.0068H13.0975" stroke="#FF337C" stroke-width="1.5" stroke-linecap="round" stroke-linejoin="round"/>
<path d="M11.4745 24.3323C11.5515 24.5584 11.666 24.7672 11.8106 24.9513C12.1953 25.441 12.7929 25.7555 13.4639 25.7555C14.1349 25.7555 14.7324 25.441 15.1171 24.9513C15.2617 24.7672 15.3762 24.5584 15.4532 24.3323" stroke="#FF337C" stroke-width="1.5" stroke-linecap="round" stroke-linejoin="round"/>
<path d="M20.5884 24.3323C20.6654 24.5584 20.7799 24.7672 20.9245 24.9513C21.3092 25.441 21.9067 25.7555 22.5778 25.7555C23.2488 25.7555 23.8463 25.441 24.231 24.9513C24.3756 24.7672 24.4901 24.5584 24.5671 24.3323" stroke="#FF337C" stroke-width="1.5" stroke-linecap="round" stroke-linejoin="round"/>
<path d="M18.9839 4.41385L19.5578 3.93103L18.9839 4.41385ZM18.0274 4.89668L13.0186 10.8504L11.8708 9.88477L16.8795 3.93103L18.0274 4.89668ZM23.4188 10.8504L18.41 4.89668L19.5578 3.93103L24.5666 9.88477L23.4188 10.8504ZM22.3251 11.2614L23.2275 11.2614L23.2275 12.7614L22.3251 12.7614L22.3251 11.2614ZM20.5751 16.8047L20.5751 13.0114L22.0751 13.0114L22.0751 16.8047L20.5751 16.8047ZM16.1119 17.0547L20.3251 17.0547L20.3251 18.5547L16.1119 18.5547L16.1119 17.0547ZM15.8619 13.0114L15.8619 16.8047L14.3619 16.8047L14.3619 13.0114L15.8619 13.0114ZM13.2099 11.2614L14.1119 11.2614L14.1119 12.7614L13.2099 12.7614L13.2099 11.2614ZM14.3619 13.0114C14.3619 12.8733 14.25 12.7614 14.1119 12.7614L14.1119 11.2614C15.0784 11.2614 15.8619 12.0449 15.8619 13.0114L14.3619 13.0114ZM16.1119 18.5547C15.1454 18.5547 14.3619 17.7712 14.3619 16.8047L15.8619 16.8047C15.8619 16.9427 15.9738 17.0547 16.1119 17.0547L16.1119 18.5547ZM22.0751 16.8047C22.0751 17.7712 21.2916 18.5547 20.3251 18.5547L20.3251 17.0547C20.4632 17.0547 20.5751 16.9427 20.5751 16.8047L22.0751 16.8047ZM22.3251 12.7614C22.187 12.7614 22.0751 12.8733 22.0751 13.0114L20.5751 13.0114C20.5751 12.0449 21.3586 11.2614 22.3251 11.2614L22.3251 12.7614ZM24.5666 9.88477C25.5242 11.0231 24.715 12.7614 23.2275 12.7614L23.2275 11.2614C23.44 11.2614 23.5556 11.013 23.4188 10.8504L24.5666 9.88477ZM13.0186 10.8504C12.8818 11.013 12.9974 11.2614 13.2099 11.2614L13.2099 12.7614C11.7224 12.7614 10.9131 11.0231 11.8708 9.88477L13.0186 10.8504ZM16.8795 3.93103C17.5788 3.09981 18.8585 3.09982 19.5578 3.93103L18.41 4.89668C18.3101 4.77793 18.1273 4.77793 18.0274 4.89668L16.8795 3.93103Z" fill="#FF337C"/>
</svg>
