<svg width="24" height="24" viewBox="0 0 24 24" fill="none" xmlns="http://www.w3.org/2000/svg">
<path d="M16.5 3.90002H7.50002C6.33002 3.90002 5.40002 4.83002 5.40002 6.00002V12.75C5.40002 13.89 6.33002 14.85 7.50002 14.85H9.51002C9.75002 14.85 9.93002 14.67 9.93002 14.43C9.93002 14.19 9.75002 14.01 9.51002 14.01H7.50002C6.81002 14.01 6.24002 13.44 6.24002 12.75V6.00002C6.24002 5.31002 6.81002 4.74002 7.50002 4.74002H16.5C17.19 4.74002 17.76 5.31002 17.76 6.00002V12.75C17.76 13.44 17.19 14.01 16.5 14.01H15.15C14.91 14.01 14.73 14.19 14.73 14.43C14.73 14.67 14.91 14.85 15.15 14.85H16.5C17.64 14.85 18.6 13.92 18.6 12.75V6.00002C18.6 4.83002 17.67 3.90002 16.5 3.90002Z" fill="white"/>
<path d="M8.88001 16.86C8.79001 16.95 8.76001 17.04 8.76001 17.16C8.76001 17.28 8.79001 17.37 8.88001 17.46L11.7 20.28C11.85 20.43 12.12 20.43 12.27 20.28L15.09 17.46C15.24 17.31 15.24 17.04 15.09 16.89C14.94 16.74 14.67 16.74 14.52 16.89L12.39 19.02V11.25C12.39 11.01 12.21 10.83 11.97 10.83C11.73 10.83 11.55 11.01 11.55 11.25V18.99L9.42001 16.86C9.30001 16.71 9.03001 16.71 8.88001 16.86Z" fill="white"/>
</svg>
