<svg width="24" height="24" viewBox="0 0 24 24" fill="none" xmlns="http://www.w3.org/2000/svg">
<path d="M19.6201 18.69L15.7501 14.67C16.7401 13.5 17.2801 12 17.2801 10.44C17.2801 6.80999 14.3401 3.87 10.7101 3.87C7.08014 3.87 4.14014 6.80999 4.14014 10.44C4.14014 14.07 7.08014 17.01 10.7101 17.01C12.0601 17.01 13.3801 16.59 14.4601 15.81L18.3601 19.86C18.5101 20.04 18.7501 20.13 18.9901 20.13C19.2001 20.13 19.4101 20.04 19.5901 19.89C19.9201 19.56 19.9501 19.02 19.6201 18.69ZM10.7101 15.9C7.68014 15.9 5.25014 13.44 5.25014 10.41C5.25014 7.38 7.71014 4.95 10.7101 4.95C13.7401 4.95 16.2001 7.41 16.2001 10.41C16.2001 13.44 13.7401 15.9 10.7101 15.9Z" fill="white"/>
</svg>
