<svg width="32" height="32" viewBox="0 0 32 32" fill="none" xmlns="http://www.w3.org/2000/svg">
<path d="M12.4645 11.7052C12.1093 11.0982 11.9058 10.3918 11.9058 9.63775C11.9058 7.37357 13.7412 5.53809 16.0054 5.53809C18.2696 5.53809 20.1051 7.37357 20.1051 9.63775C20.1051 10.3918 19.9015 11.0982 19.5464 11.7052" stroke="#3FB5BD" stroke-width="1.5" stroke-linecap="round"/>
<path d="M14.6711 15.5361H10.1923C7.98312 15.5361 6.19226 17.327 6.19226 19.5361V25.1885C6.19226 25.7408 6.63998 26.1885 7.19226 26.1885H13.6521M16.8754 15.5361H24.8065C25.3588 15.5361 25.8065 15.9838 25.8065 16.5361V22.1885C25.8065 24.3976 24.0156 26.1885 21.8065 26.1885H18.2987" stroke="#3FB5BD" stroke-width="1.5" stroke-linecap="round"/>
<path d="M13.9668 19.2327C13.9668 18.9953 14.0512 18.7657 14.205 18.5849L15.2433 17.3638C15.6426 16.8942 16.3676 16.8942 16.7669 17.3638L17.8052 18.5849C17.9589 18.7657 18.0434 18.9953 18.0434 19.2327V26.4422C18.0434 26.6622 17.9709 26.876 17.8371 27.0505L16.8459 28.3438C16.4548 28.8541 15.6908 28.868 15.2813 28.3724L14.1959 27.0586C14.0478 26.8794 13.9668 26.6542 13.9668 26.4217L13.9668 19.2327Z" stroke="#3FB5BD" stroke-width="1.5" stroke-linecap="round"/>
<path d="M16.8653 15.5943C16.4804 16.261 15.5181 16.261 15.1332 15.5943L14.822 15.0553C14.4371 14.3886 14.9183 13.5553 15.6881 13.5553L16.3104 13.5553C17.0802 13.5553 17.5614 14.3886 17.1765 15.0553L16.8653 15.5943Z" stroke="#3FB5BD" stroke-width="1.5" stroke-linecap="round" stroke-linejoin="round"/>
</svg>
