<svg width="80" height="80" viewBox="0 0 80 80" fill="none" xmlns="http://www.w3.org/2000/svg">
<path d="M68.5 16.8H11.5C10.4 16.8 9.5 17.7 9.5 18.8V61.2001C9.5 62.3001 10.4 63.2001 11.5 63.2001H68.5C69.6 63.2001 70.5 62.3001 70.5 61.2001V18.8C70.5 17.7 69.6 16.8 68.5 16.8ZM67.8 19.6V29.1H12.2V19.6H67.8ZM12.2 59.9001V32H67.9V59.9001H12.2Z" fill="#02509F"/>
<path d="M63.2 26.2001C64.2 26.2001 65 25.4 65 24.4C65 23.4 64.2 22.6 63.2 22.6C62.2 22.6 61.4 23.4 61.4 24.4C61.4 25.4 62.2 26.2001 63.2 26.2001Z" fill="#02509F"/>
<path d="M58.4 26.2001C59.4 26.2001 60.2 25.4 60.2 24.4C60.2 23.4 59.4 22.6 58.4 22.6C57.4 22.6 56.6 23.4 56.6 24.4C56.6 25.4 57.4 26.2001 58.4 26.2001Z" fill="#02509F"/>
<path d="M53.5 26.2001C54.5 26.2001 55.3 25.4 55.3 24.4C55.3 23.4 54.5 22.6 53.5 22.6C52.5 22.6 51.7 23.4 51.7 24.4C51.7 25.4 52.5 26.2001 53.5 26.2001Z" fill="#02509F"/>
<path d="M27.9 44.7001L22.6 40.2001C21.9 39.6001 20.9 39.7001 20.3 40.4001C19.7 41.1001 19.8 42.1001 20.5 42.7001L24.4 46L20.5 49.3C19.8 49.9 19.7 50.9 20.3 51.6C20.9 52.3 21.9 52.4 22.6 51.8L27.9 47.3C28.7 46.5 28.7 45.4001 27.9 44.7001Z" fill="#02509F"/>
<path d="M41.1 48.8H34.7C33.8 48.8 33.1 49.5001 33.1 50.4001C33.1 51.3001 33.8 52 34.7 52H41.1C42 52 42.7 51.3001 42.7 50.4001C42.8 49.6001 42 48.8 41.1 48.8Z" fill="#02509F"/>
<path d="M54.4 48.8H48C47.1 48.8 46.4 49.5001 46.4 50.4001C46.4 51.3001 47.1 52 48 52H54.4C55.3 52 56 51.3001 56 50.4001C56 49.6001 55.3 48.8 54.4 48.8Z" fill="#02509F"/>
</svg>
