<svg width="32" height="32" viewBox="0 0 32 32" fill="none" xmlns="http://www.w3.org/2000/svg">
<path d="M4.68716 14.3392C4.72756 14.0616 4.89444 13.8203 5.13236 13.6717L7.96443 11.9031C8.24656 11.7269 8.42261 11.4219 8.43413 11.0895L8.54972 7.75409C8.55941 7.47436 8.68447 7.20968 8.90382 7.03581C9.76988 6.34932 10.7377 5.78566 11.7811 5.37118C12.0414 5.26775 12.3335 5.29173 12.5808 5.42331L15.5302 6.99257C15.8239 7.14881 16.176 7.14881 16.4697 6.99257L19.4192 5.42329C19.6665 5.2917 19.9585 5.26773 20.2189 5.37115C21.2622 5.78562 22.23 6.34925 23.0961 7.03572C23.3154 7.20959 23.4405 7.47427 23.4502 7.75401L23.5658 11.0895C23.5773 11.4219 23.7533 11.7269 24.0355 11.9031L26.8676 13.6718C27.1056 13.8203 27.2725 14.0617 27.3128 14.3393C27.3918 14.8815 27.4326 15.4361 27.4326 16.0002C27.4326 16.5641 27.3918 17.1186 27.3129 17.6607C27.2725 17.9383 27.1056 18.1796 26.8677 18.3282L25.4127 19.2369L24.0355 20.0969C23.7533 20.2731 23.5773 20.5781 23.5658 20.9105L23.4502 24.2463C23.4405 24.526 23.3154 24.7907 23.0961 24.9646C22.2301 25.651 21.2624 26.2146 20.2192 26.629C19.9589 26.7325 19.6668 26.7085 19.4195 26.5769L16.4697 25.0074C16.176 24.8512 15.8239 24.8512 15.5302 25.0074L12.5805 26.5769C12.3331 26.7085 12.0411 26.7324 11.7807 26.629C10.7375 26.2145 9.76979 25.6509 8.90383 24.9645C8.68448 24.7906 8.55942 24.526 8.54973 24.2462L8.43413 20.9105C8.42261 20.5781 8.24656 20.2731 7.96443 20.0969L5.13232 18.3283C4.89439 18.1797 4.7275 17.9384 4.68711 17.6608C4.60822 17.1186 4.56738 16.5642 4.56738 16.0002C4.56738 15.436 4.60824 14.8814 4.68716 14.3392Z" stroke="#3FB5BD" stroke-width="1.5" stroke-linecap="round" stroke-linejoin="round"/>
<circle cx="16" cy="16.0004" r="6.21828" stroke="#3FB5BD" stroke-width="1.5" stroke-linecap="round" stroke-linejoin="round"/>
<path d="M12.7012 17.6602L14.4553 15.9061L15.7709 17.2216L18.9822 14.0104" stroke="#3FB5BD" stroke-width="1.5" stroke-linecap="round" stroke-linejoin="round"/>
<path d="M17.3212 13.6954H19.2973V15.6718" stroke="#3FB5BD" stroke-width="1.5" stroke-linecap="round" stroke-linejoin="round"/>
</svg>
