<svg width="16" height="16" viewBox="0 0 16 16" fill="none" xmlns="http://www.w3.org/2000/svg">
<path fill-rule="evenodd" clip-rule="evenodd" d="M10.4694 1.79034C11.0618 1.71497 11.6989 2.05152 12.1521 2.70834C12.4725 3.17269 12.6781 3.77029 12.6877 4.41476L11.7043 3.41343C11.5495 3.25581 11.2963 3.25353 11.1387 3.40832C10.9811 3.56311 10.9788 3.81637 11.1336 3.97398L12.7048 5.5739C12.7812 5.65163 12.8859 5.69486 12.9949 5.6936C13.1038 5.69233 13.2075 5.64669 13.282 5.5672L14.782 3.96725C14.9331 3.80609 14.925 3.55296 14.7638 3.40186C14.6027 3.25077 14.3495 3.25893 14.1984 3.42009L13.4787 4.18781C13.4284 3.46304 13.1817 2.79182 12.8106 2.25399C12.246 1.43575 11.3474 0.872191 10.3685 0.996734C10.1493 1.02462 9.99426 1.22487 10.0221 1.44402C10.05 1.66317 10.2503 1.81822 10.4694 1.79034ZM7.2 1.7898H2.8C2.28147 1.7898 1.85511 2.18446 1.80494 2.6898L8.19506 2.6898C8.14489 2.18446 7.71853 1.7898 7.2 1.7898ZM1 11.1898V3.4898H0.990234V2.6898H1.00273C1.05462 1.7422 1.83944 0.989797 2.8 0.989797H7.2C8.19411 0.989797 9 1.79568 9 2.7898V13.1898C9 14.1839 8.19411 14.9898 7.2 14.9898H2.8C1.80589 14.9898 1 14.1839 1 13.1898V11.9898H0.990234V11.1898H1ZM1.8 11.9898V13.1898C1.8 13.7421 2.24772 14.1898 2.8 14.1898H7.2C7.75228 14.1898 8.2 13.7421 8.2 13.1898V11.9898H1.8ZM8.2 11.1898H1.8V3.4898H8.2V11.1898ZM5 13.4598C5.19882 13.4598 5.36 13.2986 5.36 13.0998C5.36 12.901 5.19882 12.7398 5 12.7398C4.80118 12.7398 4.64 12.901 4.64 13.0998C4.64 13.2986 4.80118 13.4598 5 13.4598ZM5 14.0998C5.55228 14.0998 6 13.6521 6 13.0998C6 12.5475 5.55228 12.0998 5 12.0998C4.44772 12.0998 4 12.5475 4 13.0998C4 13.6521 4.44772 14.0998 5 14.0998ZM14.2892 8.84635C14.2899 8.8641 14.2902 8.88195 14.2902 8.89989V8.9628C14.2902 9.18371 14.4693 9.3628 14.6902 9.3628C14.9111 9.3628 15.0902 9.18371 15.0902 8.9628V8.89989C15.0902 8.87197 15.0897 8.84415 15.0886 8.81644C15.0804 8.59568 14.8947 8.42341 14.674 8.43167C14.4532 8.43993 14.2809 8.62559 14.2892 8.84635ZM15.0902 10.137C15.0902 9.91608 14.9111 9.73699 14.6902 9.73699C14.4693 9.73699 14.2902 9.91608 14.2902 10.137V10.2628C14.2902 10.4837 14.4693 10.6628 14.6902 10.6628C14.9111 10.6628 15.0902 10.4837 15.0902 10.2628V10.137ZM15.0902 11.437C15.0902 11.2161 14.9111 11.037 14.6902 11.037C14.4693 11.037 14.2902 11.2161 14.2902 11.437V11.5628C14.2902 11.7837 14.4693 11.9628 14.6902 11.9628C14.9111 11.9628 15.0902 11.7837 15.0902 11.5628V11.437ZM15.0902 12.737C15.0902 12.5161 14.9111 12.337 14.6902 12.337C14.4693 12.337 14.2902 12.5161 14.2902 12.737V12.7999C14.2902 12.8178 14.2899 12.8357 14.2892 12.8534C14.2809 13.0742 14.4532 13.2599 14.674 13.2681C14.8947 13.2764 15.0804 13.1041 15.0886 12.8833C15.0897 12.8556 15.0902 12.8278 15.0902 12.7999V12.737ZM14.5038 14.2954C14.654 14.1334 14.6444 13.8803 14.4824 13.7301C14.3204 13.5799 14.0673 13.5895 13.9171 13.7514C13.893 13.7775 13.8678 13.8027 13.8417 13.8268C13.6798 13.977 13.6702 14.2301 13.8204 14.3921C13.9706 14.5541 14.2237 14.5637 14.3857 14.4135C14.4265 14.3756 14.4659 14.3362 14.5038 14.2954ZM13.9171 7.94834C14.0673 8.11034 14.3204 8.1199 14.4824 7.9697C14.6444 7.8195 14.654 7.56642 14.5038 7.40442C14.4659 7.36358 14.4265 7.32419 14.3857 7.28633C14.2237 7.13613 13.9706 7.14569 13.8204 7.30769C13.6702 7.46969 13.6798 7.72277 13.8417 7.87297C13.8678 7.89714 13.893 7.92228 13.9171 7.94834ZM12.9437 7.50089C13.1645 7.50915 13.3502 7.33689 13.3584 7.11613C13.3667 6.89537 13.1944 6.70971 12.9736 6.70145C12.9459 6.70042 12.9181 6.69989 12.8902 6.69989H12.8104C12.5894 6.69989 12.4104 6.87898 12.4104 7.09989C12.4104 7.32081 12.5894 7.49989 12.8104 7.49989H12.8902C12.9081 7.49989 12.926 7.50023 12.9437 7.50089ZM12.9736 14.9983C13.1944 14.9901 13.3667 14.8044 13.3584 14.5837C13.3502 14.3629 13.1645 14.1906 12.9437 14.1989C12.926 14.1996 12.9081 14.1999 12.8902 14.1999H12.8104C12.5894 14.1999 12.4104 14.379 12.4104 14.5999C12.4104 14.8208 12.5894 14.9999 12.8104 14.9999H12.8902C12.9181 14.9999 12.9459 14.9994 12.9736 14.9983ZM11.32 7.49989C11.5409 7.49989 11.72 7.32081 11.72 7.09989C11.72 6.87898 11.5409 6.69989 11.32 6.69989H11.1604C10.9394 6.69989 10.7604 6.87898 10.7604 7.09989C10.7604 7.32081 10.9394 7.49989 11.1604 7.49989H11.32ZM11.32 14.9999C11.5409 14.9999 11.72 14.8208 11.72 14.5999C11.72 14.379 11.5409 14.1999 11.32 14.1999H11.1604C10.9394 14.1999 10.7604 14.379 10.7604 14.5999C10.7604 14.8208 10.9394 14.9999 11.1604 14.9999H11.32ZM9.67003 7.49989C9.89095 7.49989 10.07 7.32081 10.07 7.09989C10.07 6.87898 9.89095 6.69989 9.67003 6.69989H9.51035C9.28944 6.69989 9.11035 6.87898 9.11035 7.09989C9.11035 7.32081 9.28944 7.49989 9.51035 7.49989H9.67003ZM9.67003 14.9999C9.89095 14.9999 10.07 14.8208 10.07 14.5999C10.07 14.379 9.89095 14.1999 9.67003 14.1999H9.51035C9.28944 14.1999 9.11035 14.379 9.11035 14.5999C9.11035 14.8208 9.28944 14.9999 9.51035 14.9999H9.67003ZM13.3903 8.19981C13.3903 7.97889 13.2112 7.79981 12.9903 7.79981C12.7694 7.79981 12.5903 7.97889 12.5903 8.19981V8.27203C12.5903 8.49294 12.7694 8.67203 12.9903 8.67203C13.2112 8.67203 13.3903 8.49294 13.3903 8.27203V8.19981ZM13.3903 9.42758C13.3903 9.20667 13.2112 9.02759 12.9903 9.02759C12.7694 9.02759 12.5903 9.20667 12.5903 9.42758V9.57203C12.5903 9.79294 12.7694 9.97203 12.9903 9.97203C13.2112 9.97203 13.3903 9.79294 13.3903 9.57203V9.42758ZM13.3903 10.7276C13.3903 10.5067 13.2112 10.3276 12.9903 10.3276C12.7694 10.3276 12.5903 10.5067 12.5903 10.7276V10.872C12.5903 11.0929 12.7694 11.272 12.9903 11.272C13.2112 11.272 13.3903 11.0929 13.3903 10.872V10.7276ZM13.3903 12.0276C13.3903 11.8067 13.2112 11.6276 12.9903 11.6276C12.7694 11.6276 12.5903 11.8067 12.5903 12.0276V12.172C12.5903 12.3929 12.7694 12.572 12.9903 12.572C13.2112 12.572 13.3903 12.3929 13.3903 12.172V12.0276ZM13.3903 13.3276C13.3903 13.1067 13.2112 12.9276 12.9903 12.9276C12.7694 12.9276 12.5903 13.1067 12.5903 13.3276V13.3998C12.5903 13.6207 12.7694 13.7998 12.9903 13.7998C13.2112 13.7998 13.3903 13.6207 13.3903 13.3998V13.3276Z" fill="#808080"/>
</svg>
