<svg width="32" height="32" viewBox="0 0 32 32" fill="none" xmlns="http://www.w3.org/2000/svg">
<path d="M5.35623 21.0375L4.87341 21.6114L5.35623 21.0375ZM5.83906 20.081L10.6359 16.0455L9.67023 14.8977L4.87341 18.9332L5.83906 20.081ZM10.6359 24.4991L5.83906 20.4636L4.87341 21.6114L9.67023 25.6469L10.6359 24.4991ZM11.0468 23.9551V24.3078H12.5468V23.9551H11.0468ZM18.5674 22.2051L12.7968 22.2051L12.7968 23.7051L18.5674 23.7051V22.2051ZM18.8174 18.5868V21.9551H20.3174V18.5868H18.8174ZM12.7968 18.3368L18.5674 18.3368V16.8368L12.7968 16.8368V18.3368ZM11.0468 16.2368V16.5868H12.5468V16.2368H11.0468ZM12.7968 16.8368C12.6588 16.8368 12.5468 16.7249 12.5468 16.5868H11.0468C11.0468 17.5533 11.8303 18.3368 12.7968 18.3368V16.8368ZM20.3174 18.5868C20.3174 17.6203 19.5339 16.8368 18.5674 16.8368V18.3368C18.7055 18.3368 18.8174 18.4488 18.8174 18.5868H20.3174ZM18.5674 23.7051C19.5339 23.7051 20.3174 22.9216 20.3174 21.9551H18.8174C18.8174 22.0932 18.7055 22.2051 18.5674 22.2051V23.7051ZM12.5468 23.9551C12.5468 23.817 12.6588 23.7051 12.7968 23.7051L12.7968 22.2051C11.8303 22.2051 11.0468 22.9886 11.0468 23.9551H12.5468ZM9.67023 25.6469C10.8085 26.6045 12.5468 25.7953 12.5468 24.3078H11.0468C11.0468 24.5203 10.7985 24.6359 10.6359 24.4991L9.67023 25.6469ZM10.6359 16.0455C10.7985 15.9087 11.0468 16.0243 11.0468 16.2368H12.5468C12.5468 14.7493 10.8085 13.94 9.67023 14.8977L10.6359 16.0455ZM4.87341 18.9332C4.0422 19.6324 4.0422 20.9121 4.87341 21.6114L5.83906 20.4636C5.72031 20.3637 5.72031 20.1809 5.83906 20.081L4.87341 18.9332Z" fill="#FF337C"/>
<path d="M22.8301 7.23673L23.3129 6.66281L22.8301 7.23673ZM27.6269 11.2722L27.1441 11.8461L27.6269 11.2722ZM27.1441 11.8461L22.3473 7.81064L23.3129 6.66281L28.1097 10.6983L27.1441 11.8461ZM22.3473 16.2642L27.1441 12.2287L28.1097 13.3766L23.3129 17.412L22.3473 16.2642ZM21.9363 15.7222V16.0729H20.4363V15.7222H21.9363ZM14.4157 13.9722L20.1863 13.9722V15.4722L14.4157 15.4722V13.9722ZM14.1657 10.354L14.1657 13.7222H12.6657L12.6657 10.354H14.1657ZM20.1863 10.104L14.4157 10.104V8.60396L20.1863 8.60396V10.104ZM21.9363 8.00195V8.35396H20.4363V8.00195H21.9363ZM20.1863 8.60396C20.3244 8.60396 20.4363 8.49203 20.4363 8.35396H21.9363C21.9363 9.32046 21.1528 10.104 20.1863 10.104V8.60396ZM12.6657 10.354C12.6657 9.38747 13.4492 8.60396 14.4157 8.60396V10.104C14.2776 10.104 14.1657 10.2159 14.1657 10.354H12.6657ZM14.4157 15.4722C13.4492 15.4722 12.6657 14.6887 12.6657 13.7222H14.1657C14.1657 13.8603 14.2776 13.9722 14.4157 13.9722V15.4722ZM20.4363 15.7222C20.4363 15.5842 20.3244 15.4722 20.1863 15.4722V13.9722C21.1528 13.9722 21.9363 14.7557 21.9363 15.7222H20.4363ZM23.3129 17.412C22.1746 18.3697 20.4363 17.5605 20.4363 16.0729H21.9363C21.9363 16.2854 22.1847 16.401 22.3473 16.2642L23.3129 17.412ZM22.3473 7.81064C22.1847 7.67384 21.9363 7.78944 21.9363 8.00195H20.4363C20.4363 6.5144 22.1746 5.70518 23.3129 6.66281L22.3473 7.81064ZM28.1097 10.6983C28.941 11.3976 28.941 12.6773 28.1097 13.3766L27.1441 12.2287C27.2628 12.1288 27.2628 11.946 27.1441 11.8461L28.1097 10.6983Z" fill="#FF337C"/>
</svg>
