<svg width="20" height="12" viewBox="0 0 20 12" fill="none" xmlns="http://www.w3.org/2000/svg">
<g clip-path="url(#clip0_417_3800)">
<path d="M16.1644 0.687785C16.0119 0.464146 15.8029 0.283351 15.5578 0.163172C15.3127 0.0429929 15.04 -0.0124346 14.7665 0.00233786H1.74657C1.28335 0.00233786 0.839107 0.183202 0.51156 0.505141C0.184014 0.827081 0 1.26372 0 1.71902V10.2871C0.00164757 10.7413 0.186388 11.1764 0.513756 11.497C0.841124 11.8176 1.28443 11.9977 1.74657 11.9977H14.7665C15.04 12.0124 15.3127 11.957 15.5578 11.8368C15.8029 11.7166 16.0119 11.5359 16.1644 11.3122L20 6.00306L16.1644 0.687785Z" fill="#DF8533"/>
<path d="M3.408 7.104H2.192C2.18667 7.456 2.25067 7.76 2.384 8.016C2.51733 8.272 2.696 8.48267 2.92 8.648C3.14933 8.81333 3.41067 8.93333 3.704 9.008C4.00267 9.088 4.30933 9.128 4.624 9.128C5.01333 9.128 5.35467 9.08267 5.648 8.992C5.94667 8.90133 6.19467 8.776 6.392 8.616C6.59467 8.45067 6.74667 8.256 6.848 8.032C6.94933 7.808 7 7.56533 7 7.304C7 6.984 6.93067 6.72267 6.792 6.52C6.65867 6.312 6.49867 6.14667 6.312 6.024C6.12533 5.90133 5.936 5.81333 5.744 5.76C5.55733 5.70133 5.41067 5.66133 5.304 5.64C4.94667 5.54933 4.656 5.47467 4.432 5.416C4.21333 5.35733 4.04 5.29867 3.912 5.24C3.78933 5.18133 3.70667 5.11733 3.664 5.048C3.62133 4.97867 3.6 4.888 3.6 4.776C3.6 4.65333 3.62667 4.552 3.68 4.472C3.73333 4.392 3.8 4.32533 3.88 4.272C3.96533 4.21867 4.05867 4.18133 4.16 4.16C4.26133 4.13867 4.36267 4.128 4.464 4.128C4.61867 4.128 4.76 4.14133 4.888 4.168C5.02133 4.19467 5.13867 4.24 5.24 4.304C5.34133 4.368 5.42133 4.456 5.48 4.568C5.544 4.68 5.58133 4.82133 5.592 4.992H6.808C6.808 4.66133 6.744 4.38133 6.616 4.152C6.49333 3.91733 6.32533 3.72533 6.112 3.576C5.89867 3.42667 5.65333 3.32 5.376 3.256C5.104 3.18667 4.81867 3.152 4.52 3.152C4.264 3.152 4.008 3.18667 3.752 3.256C3.496 3.32533 3.26667 3.432 3.064 3.576C2.86133 3.72 2.696 3.90133 2.568 4.12C2.44533 4.33333 2.384 4.58667 2.384 4.88C2.384 5.14133 2.432 5.36533 2.528 5.552C2.62933 5.73333 2.76 5.88533 2.92 6.008C3.08 6.13067 3.26133 6.232 3.464 6.312C3.66667 6.38667 3.87467 6.45067 4.088 6.504C4.296 6.56267 4.50133 6.616 4.704 6.664C4.90667 6.712 5.088 6.768 5.248 6.832C5.408 6.896 5.536 6.976 5.632 7.072C5.73333 7.168 5.784 7.29333 5.784 7.448C5.784 7.592 5.74667 7.712 5.672 7.808C5.59733 7.89867 5.504 7.97067 5.392 8.024C5.28 8.07733 5.16 8.11467 5.032 8.136C4.904 8.152 4.784 8.16 4.672 8.16C4.50667 8.16 4.34667 8.14133 4.192 8.104C4.03733 8.06133 3.90133 8 3.784 7.92C3.672 7.83467 3.58133 7.72533 3.512 7.592C3.44267 7.45867 3.408 7.296 3.408 7.104ZM7.74731 3.288V9H9.00331V6.536H11.3153V9H12.5713V3.288H11.3153V5.48H9.00331V3.288H7.74731Z" fill="white"/>
</g>
<defs>
<clipPath id="clip0_417_3800">
<rect width="20" height="12" fill="white"/>
</clipPath>
</defs>
</svg>
