<svg width="80" height="80" viewBox="0 0 80 80" fill="none" xmlns="http://www.w3.org/2000/svg">
<path d="M61.4001 29.9C60.5001 29.9 59.8001 29.2 59.8001 28.3V22.5C59.8001 21.2 58.8001 20.2 57.5001 20.2H51.7001C50.8001 20.2 50.1001 19.5 50.1001 18.6C50.1001 17.7 50.8001 17 51.7001 17H57.5001C60.5001 17 63.0001 19.5 63.0001 22.5V28.3C63.0001 29.2 62.3001 29.9 61.4001 29.9Z" fill="#B9964B"/>
<path d="M18.6 29.9C17.7 29.9 17 29.2 17 28.3V22.5C17 19.5 19.5 17 22.5 17H28.3C29.2 17 29.9 17.7 29.9 18.6C29.9 19.5 29.2 20.2 28.3 20.2H22.5C21.2 20.2 20.2 21.2 20.2 22.5V28.3C20.2 29.2 19.4 29.9 18.6 29.9Z" fill="#B9964B"/>
<path d="M57.5001 63.0001H51.7001C50.8001 63.0001 50.1001 62.3001 50.1001 61.4001C50.1001 60.5001 50.8001 59.8001 51.7001 59.8001H57.5001C58.8001 59.8001 59.8001 58.8001 59.8001 57.5001V51.7001C59.8001 50.8001 60.5001 50.1001 61.4001 50.1001C62.3001 50.1001 63.0001 50.8001 63.0001 51.7001V57.5001C63.0001 60.5001 60.5001 63.0001 57.5001 63.0001Z" fill="#B9964B"/>
<path d="M28.3 63.0001H22.5C19.5 63.0001 17 60.5001 17 57.5001V51.7001C17 50.8001 17.7 50.1001 18.6 50.1001C19.5 50.1001 20.2 50.8001 20.2 51.7001V57.5001C20.2 58.8001 21.2 59.8001 22.5 59.8001H28.3C29.2 59.8001 29.9 60.5001 29.9 61.4001C29.9 62.3001 29.2 63.0001 28.3 63.0001Z" fill="#B9964B"/>
<path d="M58.0999 39H54.0999V29.1C54.0999 28.3 53.3999 27.6 52.5999 27.6H28.4C27.6 27.6 26.9 28.3 26.9 29.1V39H21.7999C20.8999 39 20.2 39.7 20.2 40.5C20.2 41.3 20.8999 42 21.7999 42H26.9V51C26.9 51.8 27.6 52.5 28.4 52.5H52.5999C53.3999 52.5 54.0999 51.8 54.0999 51V42H58.0999C58.9999 42 59.7 41.3 59.7 40.5C59.8 39.6 58.9999 39 58.0999 39Z" fill="#B9964B"/>
</svg>
