<svg width="50" height="50" viewBox="0 0 50 50" fill="none" xmlns="http://www.w3.org/2000/svg">
<path d="M25 46.5251C13.1121 46.5251 3.47502 36.888 3.47502 25.0001C3.47502 13.1122 13.1121 3.4751 25 3.4751C36.888 3.4751 46.525 13.1122 46.525 25.0001C46.525 36.888 36.888 46.5251 25 46.5251Z" fill="#4D4D4D"/>
<path d="M12.25 24.575C12.375 24.4 14.025 22.075 16.875 20.1C16.95 20.05 17 20.025 17.075 19.975C17.425 19.75 17.75 19.55 18.125 19.325C18.45 19.15 18.775 18.9749 19.125 18.7999C19.25 18.7249 19.4 18.675 19.525 18.625C19.875 18.475 20.225 18.3249 20.6 18.1749C20.95 18.0499 21.3 17.95 21.675 17.85H21.7C21.725 17.85 21.775 17.825 21.8 17.825C21.85 17.825 21.9 17.7999 21.95 17.7999C22.075 17.7749 22.2 17.75 22.3 17.725H22.325C22.375 17.725 22.425 17.7 22.5 17.7H22.525C23.325 17.525 24.175 17.45 25.05 17.45C26.925 17.45 28.75 18 30.425 18.825C34.5 20.775 37.525 24.325 37.7 24.525C37.725 24.55 37.725 24.575 37.75 24.6C37.75 24.6 37.75 24.625 37.775 24.625C37.775 24.65 37.8 24.6499 37.8 24.6749C37.8 24.6749 37.8 24.7 37.825 24.7C37.825 24.725 37.825 24.725 37.85 24.75V24.775C37.85 24.8 37.85 24.8 37.85 24.825C37.85 24.85 37.85 24.85 37.85 24.875C37.85 24.9 37.85 24.8999 37.85 24.9249C37.85 24.9499 37.85 24.95 37.85 24.975C37.85 25 37.85 25 37.825 25.025V25.0499C37.825 25.0749 37.8 25.1 37.8 25.125C37.8 25.125 37.8 25.125 37.8 25.15C37.775 25.175 37.775 25.2 37.75 25.225C37.6 25.425 35 28.425 31.4 30.475C31.075 30.65 30.75 30.825 30.4 31C29.575 31.4 28.725 31.725 27.85 31.975C27.825 31.975 27.775 32 27.75 32C27.575 32.05 27.4 32.1 27.225 32.125C27.175 32.125 27.125 32.15 27.05 32.15C26.9 32.175 26.725 32.1999 26.575 32.2249C26.5 32.2249 26.45 32.25 26.375 32.25C26.225 32.275 26.05 32.2999 25.9 32.2999C25.825 32.2999 25.775 32.325 25.7 32.325C25.475 32.35 25.25 32.3499 25.025 32.3499C24.8 32.3499 24.575 32.35 24.35 32.325C24.275 32.325 24.225 32.3249 24.15 32.2999C24 32.2749 23.825 32.275 23.675 32.25C23.6 32.25 23.55 32.2249 23.475 32.2249C23.325 32.1999 23.15 32.175 23 32.15C22.95 32.15 22.9 32.125 22.825 32.125C22.65 32.075 22.475 32.05 22.3 32C22.275 32 22.225 31.975 22.2 31.975C21.325 31.725 20.475 31.4 19.65 31C19.3 30.825 18.975 30.65 18.65 30.475C15.025 28.425 12.45 25.425 12.3 25.225C12.125 25.025 12.125 24.775 12.25 24.575ZM25.025 29.125C27.375 29.125 29.275 27.225 29.275 24.875C29.275 22.525 27.375 20.625 25.025 20.625C22.675 20.625 20.775 22.525 20.775 24.875C20.775 27.225 22.675 29.125 25.025 29.125Z" fill="#C5C5C4"/>
</svg>
