<svg width="38" height="38" viewBox="0 0 38 38" fill="none" xmlns="http://www.w3.org/2000/svg">
<path d="M31.073 4H19.4497H7.83125C7.3705 4 7 4.399 7 4.893V19.1762C7 19.6702 7.3705 20.0693 7.83125 20.0693H19.4545H31.073C31.5338 20.0693 31.9042 19.6702 31.9042 19.1762V4.893C31.9042 4.399 31.5338 4 31.073 4ZM7.97375 6.29425C7.97375 5.558 8.57225 4.9595 9.3085 4.9595C10.0448 4.9595 10.6433 5.558 10.6433 6.29425C10.6433 7.0305 10.0448 7.629 9.3085 7.629C8.57225 7.629 7.97375 7.03525 7.97375 6.29425ZM27.6387 15.951C27.6387 16.3785 27.3822 16.7347 27.0307 16.8725C26.9357 16.9105 26.836 16.9295 26.7315 16.9295H12.1727C11.6692 16.9295 11.2608 16.4925 11.2608 15.951C11.2608 15.4095 10.8522 14.9725 10.3487 14.9725C9.84525 14.9725 9.43675 14.5355 9.43675 13.994V10.08C9.43675 9.5385 9.84525 9.1015 10.3487 9.1015C10.8475 9.1015 11.2608 8.6645 11.2608 8.123C11.2608 7.5815 11.6692 7.1445 12.1727 7.1445H19.4497H26.7267C27.2302 7.1445 27.6387 7.5815 27.6387 8.123C27.6387 8.6645 28.0473 9.1015 28.5508 9.1015C29.0543 9.1015 29.4627 9.5385 29.4627 10.08V13.994C29.4627 14.4215 29.2063 14.7778 28.8548 14.9155C28.7598 14.9535 28.66 14.9725 28.5555 14.9725C28.3037 14.9725 28.0757 15.0817 27.9142 15.2575C27.7432 15.438 27.6387 15.6803 27.6387 15.951ZM29.6812 19.1667C28.945 19.1667 28.3465 18.5682 28.3465 17.832C28.3465 17.0957 28.945 16.4972 29.6812 16.4972C30.4175 16.4972 31.016 17.0957 31.016 17.832C31.016 18.5682 30.4175 19.1667 29.6812 19.1667Z" fill="url(#paint0_linear_14742_26641)"/>
<path fill-rule="evenodd" clip-rule="evenodd" d="M23.8151 8.33674H25.6533V15.4522H23.8151V8.33674ZM16.6946 9.48626H18.5328V15.4523H16.6946V9.48626ZM13.2557 11.5525H15.094V15.4523H13.2557V11.5525ZM22.2092 10.403H20.371V15.4523H22.2092V10.403Z" fill="url(#paint1_linear_14742_26641)"/>
<path d="M29.424 21.8778C28.7335 21.3023 27.6592 21.379 27.0837 22.0696L24.6284 24.6017C24.3214 24.218 23.8227 23.9879 23.3239 23.9879H18.605C17.9528 23.7193 17.2238 23.5658 16.4949 23.5658C14.4615 23.5658 12.6967 24.4866 11.7759 26.2514C11.3923 26.1747 10.9702 26.2898 10.6633 26.5967L8.66832 28.5917C8.51486 28.7452 8.51486 29.0137 8.66832 29.1672L13.3873 33.9245C13.5407 34.078 13.8093 34.078 13.9628 33.9245L15.9961 31.9295C16.3414 31.5842 16.4565 31.0855 16.303 30.6251L16.7251 30.2031C16.9553 29.9729 17.2622 29.8578 17.6075 29.8578H23.1705C24.168 29.8578 25.0887 29.4741 25.8177 28.7835C25.856 28.7452 25.5875 29.0521 29.6159 24.2564C30.1913 23.5275 30.1146 22.4532 29.424 21.8778ZM28.9636 23.6809L25.2038 28.1697C24.6667 28.7068 23.9378 28.9754 23.1705 28.9754H17.6075C17.0704 28.9754 16.5332 29.1672 16.1496 29.5508L15.8043 29.8961L12.5049 26.5967C13.2722 25.1388 14.7301 24.3331 16.4949 24.3331C17.1471 24.3331 17.7609 24.4482 18.3364 24.7168C18.3748 24.7552 18.4515 24.7552 18.4899 24.7552H23.2472C23.7076 24.7552 24.0912 25.1388 24.0912 25.5992C24.0912 26.0596 23.7076 26.4432 23.2472 26.4432H19.8327C19.6025 26.4432 19.4106 26.6351 19.4106 26.8653C19.4106 27.0955 19.6025 27.2873 19.8327 27.2873H23.2472C24.168 27.2873 24.9353 26.52 24.9353 25.5992C24.9353 25.5225 24.9353 25.4457 24.9353 25.369C27.3139 22.9136 27.6592 22.5683 27.6976 22.53C28.0045 22.1847 28.5416 22.1463 28.8869 22.4149C29.2322 22.7985 29.2706 23.3356 28.9636 23.6809Z" fill="url(#paint2_linear_14742_26641)"/>
<defs>
<linearGradient id="paint0_linear_14742_26641" x1="7" y1="12.0364" x2="31.8991" y2="12.0364" gradientUnits="userSpaceOnUse">
<stop stop-color="#B59A5B"/>
<stop offset="0.2339" stop-color="#B39759"/>
<stop offset="0.4867" stop-color="#A4834C"/>
<stop offset="0.7688" stop-color="#987342"/>
<stop offset="0.9934" stop-color="#946E3F"/>
</linearGradient>
<linearGradient id="paint1_linear_14742_26641" x1="13.2557" y1="11.8953" x2="25.6508" y2="11.8953" gradientUnits="userSpaceOnUse">
<stop stop-color="#B59A5B"/>
<stop offset="0.2339" stop-color="#B39759"/>
<stop offset="0.4867" stop-color="#A4834C"/>
<stop offset="0.7688" stop-color="#987342"/>
<stop offset="0.9934" stop-color="#946E3F"/>
</linearGradient>
<linearGradient id="paint2_linear_14742_26641" x1="8.55322" y1="27.768" x2="29.9956" y2="27.768" gradientUnits="userSpaceOnUse">
<stop stop-color="#B59A5B"/>
<stop offset="0.2339" stop-color="#B39759"/>
<stop offset="0.4867" stop-color="#A4834C"/>
<stop offset="0.7688" stop-color="#987342"/>
<stop offset="0.9934" stop-color="#946E3F"/>
</linearGradient>
</defs>
</svg>
