<svg width="50" height="50" viewBox="0 0 50 50" fill="none" xmlns="http://www.w3.org/2000/svg">
<path d="M25 46.5251C36.8879 46.5251 46.525 36.888 46.525 25.0001C46.525 13.1122 36.8879 3.4751 25 3.4751C13.112 3.4751 3.47498 13.1122 3.47498 25.0001C3.47498 36.888 13.112 46.5251 25 46.5251Z" fill="#4D4D4D"/>
<path d="M21.05 26.5499C20.825 26.0249 20.7001 25.4749 20.7001 24.8749C20.7001 22.5249 22.6251 20.5999 24.975 20.5999C25.575 20.5999 26.125 20.7249 26.65 20.9499L29.4 18.1999C28.05 17.7249 26.575 17.3999 24.975 17.3999C18.3751 17.3999 12.525 24.2499 12.275 24.5499C12.1 24.7499 12.1 25.0499 12.275 25.2499C12.425 25.4249 14.575 27.9249 17.7 29.9249L21.05 26.5499Z" fill="#C5C5C4"/>
<path d="M37.75 24.5749C37.625 24.3749 35.35 21.1749 31.525 19.1249L34.475 16.1749C34.675 15.9749 34.675 15.6249 34.475 15.4249C34.275 15.2249 33.925 15.2249 33.725 15.4249L15.55 33.5999C15.35 33.7999 15.35 34.1499 15.55 34.3499C15.65 34.4499 15.8 34.4999 15.925 34.4999C16.05 34.4999 16.2 34.4499 16.3 34.3499L19.65 30.9999C21.3 31.7999 23.125 32.3749 25 32.3749C31.6 32.3749 37.45 25.5249 37.7 25.2249C37.875 25.0249 37.875 24.7749 37.75 24.5749ZM25 29.1499C24.025 29.1499 23.125 28.7999 22.4 28.2499L28.375 22.2499C28.95 22.9749 29.275 23.8749 29.275 24.8499C29.275 27.2249 27.35 29.1499 25 29.1499Z" fill="#C5C5C4"/>
</svg>
