<svg width="14" height="14" viewBox="0 0 14 14" fill="none" xmlns="http://www.w3.org/2000/svg">
<path fill-rule="evenodd" clip-rule="evenodd" d="M7 0C10.8657 0 14 3.13428 14 7C14 10.8657 10.8657 14 7 14C3.13428 14 0 10.8657 0 7C0 3.13428 3.13428 0 7 0Z" fill="#2394E0"/>
<path fill-rule="evenodd" clip-rule="evenodd" d="M2.18125 9.95397C1.82416 9.42327 1.55684 8.82878 1.39999 8.19175C1.81681 8.3888 2.46732 8.69634 2.46732 8.69634L2.47324 9.00858C2.47324 9.12361 2.27398 9.36721 2.20986 9.46001L2.18125 9.95397ZM8.74599 1.57496C10.78 2.23712 12.306 3.99161 12.6 6.12793L12.4076 6.10763C12.3731 6.25263 12.3415 6.25553 12.3415 6.42953C12.3415 6.58323 12.5388 6.68569 12.5388 7.00952C12.5388 7.09652 12.3307 7.26956 12.3218 7.30049L12.0131 6.94572V7.39715L11.9667 7.39522L11.8838 6.56196L11.7112 6.61513L11.506 5.9955L10.8303 6.68762L10.8224 7.19415L10.6015 7.33915L10.3667 6.03996L10.2266 6.1405L9.909 5.72L9.43452 5.73353L9.25302 5.52957L9.06658 5.57983L8.70061 5.169L8.62959 5.21637L8.85647 5.78476H9.11985V5.6562H9.25104C9.34574 5.91333 9.44833 5.7606 9.44833 5.9143C9.44833 6.45079 8.77262 6.84519 8.32971 6.94572C8.35339 7.04239 8.34451 7.13906 8.46091 7.13906C8.7085 7.13906 8.5852 7.09652 8.85548 7.07429C8.84266 7.62239 8.2143 8.27681 7.94599 8.68378L8.06633 9.52381C8.0979 9.7065 7.67965 9.89887 7.5376 10.1048L7.60567 10.4267L7.41331 10.503C7.37977 10.8336 7.05227 11.2 6.68433 11.2H6.28976C6.28976 10.7476 5.96029 10.1009 5.96029 9.78094C5.96029 9.50931 6.09149 9.47257 6.09149 9.13617C6.09149 8.82491 5.763 8.37928 5.763 8.29808V7.78188H5.49962C5.46017 7.63785 5.48483 7.58855 5.30234 7.58855H5.23625C4.94919 7.58855 4.99753 7.71712 4.70949 7.71712H4.44611C4.20838 7.71712 3.78816 6.97086 3.78816 6.87902V6.1057C3.78816 5.7722 4.09987 5.40873 4.31491 5.2676V4.9457L4.61084 4.65087L4.77558 4.62381C5.12872 4.62381 5.08631 4.43047 5.30234 4.43047H5.8942V4.8819L6.54525 5.1545L6.60641 4.879C6.90135 4.94667 6.97829 5.07524 7.3413 5.07524H7.4725C7.72207 5.07524 7.73588 4.75044 7.73588 4.49524L7.20912 4.54647L6.97928 4.05734L6.75141 4.11631C6.79284 4.29127 6.81454 4.21877 6.81454 4.36667C6.81454 4.45367 6.74155 4.46334 6.68236 4.49524L6.45449 3.92878L5.96424 3.58561L5.89913 3.64845L6.31639 4.07861C6.26115 4.23327 6.25425 4.67891 6.02441 4.36667L6.23945 4.26517L5.70283 3.71418L5.38125 3.83694L5.06362 4.13468C5.03008 4.37441 4.96399 4.49524 4.70752 4.49524C4.53686 4.49524 4.63945 4.45174 4.37805 4.43047V3.78571H4.96991L4.77755 3.35651L4.70653 3.39905V3.26951L5.6683 2.83548C5.65055 2.70015 5.62786 2.77265 5.62786 2.62475C5.62786 2.61605 5.69198 2.49715 5.69395 2.49522L5.94253 2.64699L5.88335 2.36955L5.49962 2.44689L5.4286 2.10952C5.73242 1.95292 6.40221 1.39999 6.61528 1.39999H6.81257C7.02071 1.39999 7.57706 1.60106 7.66781 1.72189L7.14007 1.66969L7.53168 1.98579L7.56917 1.85046L7.86115 1.77216L7.8651 1.59333H7.99728V1.78666L8.74599 1.57496Z" fill="#50CFF8"/>
<path d="M1.39999 8.19175C1.81681 8.3888 2.46732 8.69634 2.46732 8.69634C2.64526 8.51977 2.94775 8.08967 2.73423 7.78188C2.5207 7.4741 2.98419 5.81403 2.36801 5.78476C1.90134 5.7626 1.11999 6.90515 1.39999 8.19175Z" fill="#50CFF8"/>
</svg>
