<svg width="23" height="13" viewBox="0 0 23 13" fill="none" xmlns="http://www.w3.org/2000/svg">
<rect x="0.833252" y="0.166626" width="21.9999" height="11.9999" rx="5.99997" fill="#FDD032"/>
<path d="M8.01294 5.17047H6.36841V4.59625C6.36841 4.23427 6.35278 4.00771 6.32153 3.91656C6.29028 3.82542 6.21606 3.77985 6.09888 3.77985C5.99731 3.77985 5.9283 3.81891 5.89185 3.89703C5.85539 3.97516 5.83716 4.17568 5.83716 4.4986V7.53375C5.83716 7.81761 5.85539 8.00511 5.89185 8.09625C5.9283 8.18479 6.00122 8.22906 6.1106 8.22906C6.23039 8.22906 6.31112 8.17828 6.35278 8.07672C6.39705 7.97516 6.41919 7.77724 6.41919 7.48297V6.73297H6.08716V5.77203H8.01294V9.16656H6.97778L6.82544 8.71344C6.71346 8.90875 6.57153 9.05589 6.39966 9.15485C6.23039 9.2512 6.02987 9.29938 5.7981 9.29938C5.52205 9.29938 5.26294 9.23297 5.02075 9.10016C4.78117 8.96474 4.59888 8.79808 4.47388 8.60016C4.34888 8.40224 4.27075 8.19521 4.2395 7.97906C4.20825 7.76031 4.19263 7.43349 4.19263 6.9986V5.11969C4.19263 4.51552 4.22518 4.07672 4.29028 3.80328C4.35539 3.52985 4.54159 3.27985 4.84888 3.05328C5.15877 2.82412 5.55851 2.70953 6.0481 2.70953C6.52987 2.70953 6.92961 2.80849 7.24731 3.00641C7.56502 3.20433 7.77205 3.44 7.86841 3.71344C7.96476 3.98427 8.01294 4.3788 8.01294 4.89703V5.17047ZM8.65356 2.84235H9.81763C10.5937 2.84235 11.1184 2.87229 11.3918 2.93219C11.6679 2.99209 11.8918 3.14573 12.0637 3.39313C12.2382 3.63792 12.3254 4.02985 12.3254 4.56891C12.3254 5.0611 12.2642 5.39183 12.1418 5.5611C12.0194 5.73037 11.7786 5.83193 11.4192 5.86578C11.7447 5.94651 11.9635 6.05459 12.0754 6.19C12.1874 6.32542 12.2564 6.45042 12.2825 6.565C12.3111 6.67698 12.3254 6.98818 12.3254 7.4986V9.16656H10.7981V7.065C10.7981 6.72646 10.7708 6.51683 10.7161 6.4361C10.664 6.35537 10.5247 6.315 10.2981 6.315V9.16656H8.65356V2.84235ZM10.2981 3.92438V5.33063C10.483 5.33063 10.6119 5.30589 10.6848 5.25641C10.7603 5.20433 10.7981 5.03896 10.7981 4.76031V4.41266C10.7981 4.21214 10.7616 4.08063 10.6887 4.01813C10.6184 3.95563 10.4882 3.92438 10.2981 3.92438ZM12.9661 2.84235H15.7083V4.10797H14.6106V5.30719H15.6379V6.51031H14.6106V7.90094H15.8176V9.16656H12.9661V2.84235ZM19.7981 2.84235L18.5989 6.8775V9.16656H17.0754V6.8775L15.9192 2.84235H17.4309C17.6679 4.07412 17.8007 4.90354 17.8293 5.33063C17.9205 4.65615 18.0728 3.82672 18.2864 2.84235H19.7981Z" fill="#754E13"/>
</svg>
