<svg width="24" height="24" viewBox="0 0 24 24" fill="none" xmlns="http://www.w3.org/2000/svg">
<path d="M10.741 6H6.42641C4.8102 6 3.5 7.32279 3.5 8.95455V21.7576H14.2302C15.8464 21.7576 17.1566 20.4348 17.1566 18.803V13.452" stroke="#217DC1" stroke-linecap="round" stroke-linejoin="round"/>
<path d="M6.12695 10.3789H7.17746" stroke="#217DC1" stroke-linecap="round" stroke-linejoin="round"/>
<path d="M9.2793 10.3789H11.3803" stroke="#217DC1" stroke-linecap="round" stroke-linejoin="round"/>
<path d="M6.12695 13.5312H7.17746" stroke="#217DC1" stroke-linecap="round" stroke-linejoin="round"/>
<path d="M9.2793 13.5312H14.5318" stroke="#217DC1" stroke-linecap="round" stroke-linejoin="round"/>
<path d="M6.12695 16.6836H7.17746" stroke="#217DC1" stroke-linecap="round" stroke-linejoin="round"/>
<path d="M9.2793 16.6836H14.5318" stroke="#217DC1" stroke-linecap="round" stroke-linejoin="round"/>
<path d="M15.5872 3.17311C16.0144 2.27563 17.249 2.27563 17.6763 3.17311L18.0724 4.00513C18.242 4.36153 18.57 4.60855 18.9494 4.6657L19.8351 4.79912C20.7905 4.94304 21.172 6.16019 20.4807 6.85878L19.8398 7.50642C19.5652 7.78383 19.44 8.18352 19.5048 8.57523L19.6561 9.48971C19.8193 10.4761 18.8205 11.2284 17.966 10.7627L17.1738 10.3309C16.8344 10.146 16.429 10.146 16.0897 10.3309L15.2974 10.7627C14.4429 11.2284 13.4441 10.4761 13.6073 9.48971L13.7586 8.57523C13.8235 8.18352 13.6982 7.78383 13.4236 7.50642L12.7827 6.85878C12.0914 6.16019 12.4729 4.94304 13.4283 4.79912L14.314 4.6657C14.6934 4.60855 15.0214 4.36153 15.1911 4.00513L15.5872 3.17311Z" stroke="#217DC1" stroke-linecap="round" stroke-linejoin="round"/>
</svg>
