<svg width="40" height="40" viewBox="0 0 40 40" fill="none" xmlns="http://www.w3.org/2000/svg">
<path d="M0 20C0 31.0457 8.95431 40 20 40C31.0457 40 40 31.0457 40 20C40 8.9543 31.0457 0 20 0C8.95431 0 0 8.9543 0 20ZM32 20C32 26.6274 26.6274 32 20 32C13.3726 32 8 26.6274 8 20C8 13.3726 13.3726 8 20 8C26.6274 8 32 13.3726 32 20Z" fill="#0F75B2"/>
<path d="M40 20C40 16.0444 38.827 12.1776 36.6294 8.88859C34.4318 5.59961 31.3082 3.03616 27.6537 1.52241C23.9991 0.00865601 19.9778 -0.38741 16.0982 0.384295C12.2186 1.156 8.65491 3.06082 5.85786 5.85787C3.06081 8.65492 1.156 12.2186 0.384293 16.0982C-0.387409 19.9778 0.00865936 23.9992 1.52241 27.6537C3.03616 31.3082 5.59962 34.4318 8.8886 36.6294C12.1776 38.827 16.0444 40 20 40L20 32C17.6266 32 15.3066 31.2962 13.3332 29.9776C11.3598 28.6591 9.8217 26.7849 8.91345 24.5922C8.00519 22.3995 7.76756 19.9867 8.23058 17.6589C8.6936 15.3311 9.83649 13.193 11.5147 11.5147C13.1929 9.83649 15.3311 8.6936 17.6589 8.23058C19.9867 7.76755 22.3995 8.00519 24.5922 8.91344C26.7849 9.8217 28.6591 11.3598 29.9776 13.3332C31.2962 15.3065 32 17.6266 32 20H40Z" fill="#9FBA62"/>
</svg>
