<svg width="32" height="33" viewBox="0 0 32 33" fill="none" xmlns="http://www.w3.org/2000/svg">
<path d="M5.00146 13.3311C4.58725 13.3311 4.25146 13.6668 4.25146 14.0811C4.25146 14.4953 4.58725 14.8311 5.00146 14.8311V13.3311ZM26 6.75H9V8.25H26V6.75ZM27.75 8.5C27.75 7.5335 26.9665 6.75 26 6.75V8.25C26.1381 8.25 26.25 8.36193 26.25 8.5H27.75ZM27.75 13.9627V8.5H26.25V13.9627H27.75ZM27.75 14.0806V13.9627H26.25V14.0806H27.75ZM24.9121 16.9185C24.9121 15.7656 25.8467 14.8311 26.9995 14.8311V13.3311C25.0182 13.3311 23.4121 14.9372 23.4121 16.9185H24.9121ZM26.9995 19.0059C25.8467 19.0059 24.9121 18.0713 24.9121 16.9185H23.4121C23.4121 18.8997 25.0182 20.5059 26.9995 20.5059V19.0059ZM27.75 23.5V19.7563H26.25V23.5H27.75ZM25 26.25C26.5188 26.25 27.75 25.0188 27.75 23.5H26.25C26.25 24.1904 25.6904 24.75 25 24.75V26.25ZM13.189 26.25H25V24.75H13.189V26.25ZM6 26.25H13.189V24.75H6V26.25ZM4.25 24.5C4.25 25.4665 5.0335 26.25 6 26.25V24.75C5.86193 24.75 5.75 24.6381 5.75 24.5H4.25ZM4.25 22V24.5H5.75V22H4.25ZM4.25 19.7573V22H5.75V19.7573H4.25ZM7.08887 16.9185C7.08887 18.0713 6.15431 19.0059 5.00146 19.0059V20.5059C6.98273 20.5059 8.58887 18.8997 8.58887 16.9185H7.08887ZM5.00146 14.8311C6.15431 14.8311 7.08887 15.7656 7.08887 16.9185H8.58887C8.58887 14.9372 6.98273 13.3311 5.00146 13.3311V14.8311ZM4.25 11.5V14.0796H5.75V11.5H4.25ZM9 6.75C6.37665 6.75 4.25 8.87665 4.25 11.5H5.75C5.75 9.70508 7.20508 8.25 9 8.25V6.75ZM5.75 19.7573C5.75 20.1707 5.41487 20.5059 5.00146 20.5059V19.0059C4.58644 19.0059 4.25 19.3423 4.25 19.7573H5.75ZM26.9995 20.5059C26.5855 20.5059 26.25 20.1703 26.25 19.7563H27.75C27.75 19.3419 27.414 19.0059 26.9995 19.0059V20.5059ZM5.00122 13.3311C5.41475 13.3309 5.75 13.6661 5.75 14.0796H4.25C4.25 14.4947 4.58656 14.8312 5.00171 14.8311L5.00122 13.3311ZM26.25 14.0806C26.25 13.6666 26.5856 13.3311 26.9995 13.3311V14.8311C27.414 14.8311 27.75 14.4951 27.75 14.0806H26.25Z" fill="#FF337C"/>
<path fill-rule="evenodd" clip-rule="evenodd" d="M13.5604 13.2251C13.0874 13.2251 12.7041 13.6084 12.7041 14.0814C12.7041 14.5543 13.0874 14.9376 13.5604 14.9376C14.0333 14.9376 14.4167 14.5543 14.4167 14.0814C14.4167 13.6084 14.0333 13.2251 13.5604 13.2251ZM11.6743 14.0814C11.6743 13.0397 12.5187 12.1953 13.5604 12.1953C14.602 12.1953 15.4464 13.0397 15.4464 14.0814C15.4464 15.123 14.602 15.9674 13.5604 15.9674C12.5187 15.9674 11.6743 15.123 11.6743 14.0814Z" fill="#FF337C" stroke="#FF337C" stroke-width="0.4" stroke-linecap="round" stroke-linejoin="round"/>
<path fill-rule="evenodd" clip-rule="evenodd" d="M18.4398 18.061C17.9668 18.061 17.5835 18.4444 17.5835 18.9173C17.5835 19.3902 17.9668 19.7736 18.4398 19.7736C18.9127 19.7736 19.296 19.3902 19.296 18.9173C19.296 18.4444 18.9127 18.061 18.4398 18.061ZM16.5537 18.9173C16.5537 17.8757 17.3981 17.0312 18.4398 17.0312C19.4814 17.0312 20.3258 17.8757 20.3258 18.9173C20.3258 19.9589 19.4814 20.8033 18.4398 20.8033C17.3981 20.8033 16.5537 19.9589 16.5537 18.9173Z" fill="#FF337C" stroke="#FF337C" stroke-width="0.4" stroke-linecap="round" stroke-linejoin="round"/>
<path fill-rule="evenodd" clip-rule="evenodd" d="M19.3309 12.9477C19.532 13.1488 19.532 13.4748 19.3309 13.6758L13.1524 19.8544C12.9513 20.0555 12.6253 20.0555 12.4242 19.8544C12.2232 19.6533 12.2232 19.3273 12.4242 19.1262L18.6028 12.9477C18.8039 12.7466 19.1299 12.7466 19.3309 12.9477Z" fill="#FF337C" stroke="#FF337C" stroke-width="0.4" stroke-linecap="round" stroke-linejoin="round"/>
</svg>
