<svg width="33" height="32" viewBox="0 0 33 32" fill="none" xmlns="http://www.w3.org/2000/svg">
<path d="M25.625 8.36428V6C25.625 5.44772 25.1773 5 24.625 5H22.125H11.625C9.41586 5 7.625 6.79086 7.625 9V26C7.625 26.5523 8.07272 27 8.625 27H14.0877H23.625C24.7296 27 25.625 26.1046 25.625 25V23.3589" stroke="#8B3BFF" stroke-width="1.5" stroke-linecap="round" stroke-linejoin="round"/>
<path d="M14.9277 24.001H17.9531" stroke="#8B3BFF" stroke-width="1.5" stroke-linecap="round" stroke-linejoin="round"/>
<circle cx="16.4404" cy="7.94824" r="0.5" fill="#8B3BFF"/>
<path d="M18.4124 14.0784C18.4124 10.969 20.9331 8.44824 24.0426 8.44824V8.44824C27.152 8.44824 29.6728 10.969 29.6728 14.0784V18.6608C29.6728 18.6964 29.682 18.7313 29.6997 18.7621L29.8497 19.0246C30.3611 19.9197 29.7148 21.0334 28.6839 21.0334H19.4012C18.3703 21.0334 17.724 19.9197 18.2355 19.0246L18.3855 18.7621C18.4031 18.7313 18.4124 18.6964 18.4124 18.6608V14.0784Z" stroke="#8B3BFF" stroke-width="1.5" stroke-linecap="round" stroke-linejoin="round"/>
<path d="M24.0421 23.5525C24.7776 23.5525 25.4198 23.1528 25.7634 22.5589V21.1284H22.3208V22.5589C22.6644 23.1528 23.3066 23.5525 24.0421 23.5525Z" stroke="#8B3BFF" stroke-width="1.5" stroke-linecap="round"/>
<path d="M24.0426 23.5529C24.7781 23.5529 25.4203 23.1533 25.7639 22.5593V21.1289H22.3213V22.5593C22.6649 23.1533 23.3071 23.5529 24.0426 23.5529Z" stroke="#8B3BFF" stroke-width="1.5" stroke-linecap="round"/>
</svg>
