<svg width="32" height="32" viewBox="0 0 32 32" fill="none" xmlns="http://www.w3.org/2000/svg">
<path d="M25 8.36428V6C25 5.44772 24.5523 5 24 5H21.5H11C8.79086 5 7 6.79086 7 9V26C7 26.5523 7.44772 27 8 27H13.4627H23C24.1046 27 25 26.1046 25 25V23.3589" stroke="#6200EE" stroke-width="1.5" stroke-linecap="round" stroke-linejoin="round"/>
<path d="M14.3027 24.001H17.3281" stroke="#6200EE" stroke-width="1.5" stroke-linecap="round" stroke-linejoin="round"/>
<circle cx="15.8154" cy="7.94824" r="0.5" fill="#6200EE"/>
<path d="M17.7874 14.0784C17.7874 10.969 20.3081 8.44824 23.4176 8.44824V8.44824C26.527 8.44824 29.0478 10.969 29.0478 14.0784V18.6608C29.0478 18.6964 29.057 18.7313 29.0747 18.7621L29.2247 19.0246C29.7361 19.9197 29.0898 21.0334 28.0589 21.0334H18.7762C17.7453 21.0334 17.099 19.9197 17.6105 19.0246L17.7605 18.7621C17.7781 18.7313 17.7874 18.6964 17.7874 18.6608V14.0784Z" stroke="#6200EE" stroke-width="1.5" stroke-linecap="round" stroke-linejoin="round"/>
<path d="M23.4171 23.5525C24.1526 23.5525 24.7948 23.1529 25.1384 22.5589V21.1285H21.6958V22.5589C22.0394 23.1529 22.6816 23.5525 23.4171 23.5525Z" stroke="#6200EE" stroke-width="1.5" stroke-linecap="round"/>
<path d="M23.4176 23.5529C24.1531 23.5529 24.7953 23.1533 25.1389 22.5593V21.1289H21.6963V22.5593C22.0399 23.1533 22.6821 23.5529 23.4176 23.5529Z" stroke="#6200EE" stroke-width="1.5" stroke-linecap="round"/>
</svg>
