<svg width="58" height="71" viewBox="0 0 58 71" fill="none" xmlns="http://www.w3.org/2000/svg">
<path d="M38.2163 70.3405H24.6303C22.6439 70.3405 20.7389 69.5505 19.3343 68.1443C17.9297 66.7381 17.1406 64.8309 17.1406 62.8422C17.1406 60.8535 17.9297 58.9462 19.3343 57.54C20.7389 56.1338 22.6439 55.3438 24.6303 55.3438H38.2163C39.1999 55.3437 40.1738 55.5377 41.0825 55.9145C41.9912 56.2914 42.8168 56.8437 43.5123 57.54C44.2078 58.2363 44.7595 59.0629 45.1358 59.9726C45.5122 60.8824 45.706 61.8574 45.706 62.8422C45.706 63.8269 45.5122 64.8019 45.1358 65.7117C44.7595 66.6214 44.2078 67.448 43.5123 68.1443C42.8168 68.8406 41.9912 69.3929 41.0825 69.7698C40.1738 70.1466 39.1999 70.3405 38.2163 70.3405Z" fill="#243037"/>
<path d="M22.137 49.099C22.1368 49.6992 21.9585 50.2858 21.6249 50.7848C21.2912 51.2837 20.8171 51.6725 20.2625 51.902C19.7079 52.1315 19.0977 52.1914 18.509 52.0741C17.9203 51.9569 17.3797 51.6677 16.9554 51.2432C16.531 50.8187 16.2421 50.2779 16.1251 49.6892C16.0081 49.1005 16.0683 48.4903 16.2981 47.9358C16.5278 47.3813 16.9168 46.9073 17.4159 46.5739C17.915 46.2405 18.5017 46.0625 19.102 46.0625C19.9067 46.0625 20.6784 46.3821 21.2476 46.951C21.8167 47.5198 22.1367 48.2915 22.137 49.0962" fill="#243037"/>
<path d="M46.7788 49.099C46.7785 49.6992 46.5897 50.286 46.2364 50.7849C45.883 51.2839 45.3809 51.6727 44.7936 51.9021C44.2063 52.1316 43.5601 52.1914 42.9368 52.074C42.3135 51.9567 41.741 51.6674 41.2918 51.2427C40.8425 50.818 40.5367 50.2771 40.413 49.6883C40.2893 49.0995 40.3533 48.4893 40.5967 47.9348C40.8402 47.3803 41.2524 46.9065 41.781 46.5732C42.3096 46.24 42.931 46.0622 43.5666 46.0625C44.4185 46.0625 45.2356 46.3821 45.838 46.951C46.4403 47.52 46.7788 48.2916 46.7788 49.0962" fill="#243037"/>
<path d="M5.48488 25.3516C-9.3526 42.3506 6.92196 55.8465 42.1339 30.9551L5.48488 25.3516Z" fill="#243037"/>
<path fill-rule="evenodd" clip-rule="evenodd" d="M31.2083 0.00732578C12.0834 -0.406406 4.42891 16.8211 4.31717 22.0858C4.27191 24.1716 4.02298 25.0445 6.24352 27.416C8.46406 29.7875 15.3803 31.3969 30.429 31.7282C45.4778 32.0595 52.657 30.7444 54.9766 28.471C57.2961 26.1976 57.0854 25.3147 57.1307 23.2275C57.2424 17.9627 50.3333 0.426745 31.2083 0.00732578ZM41.4907 26.4933C39.9196 26.4956 38.3813 26.0412 37.0613 25.1848C35.7412 24.3284 34.6956 23.1066 34.0505 21.6665C33.4054 20.2265 33.1883 18.6297 33.4253 17.0684C33.6624 15.5071 34.3435 14.0481 35.3865 12.867C36.4296 11.686 37.7901 10.8333 39.3042 10.4118C40.8183 9.9902 42.4214 10.0177 43.9203 10.491C45.4192 10.9644 46.7499 11.8633 47.7523 13.0794C48.7546 14.2956 49.3857 15.7772 49.5695 17.3457H44.2699C44.0421 16.6746 43.5824 16.1079 42.9742 15.7486C42.366 15.3894 41.6497 15.2614 40.9556 15.388C40.2616 15.5146 39.6357 15.8874 39.1918 16.4385C38.748 16.9897 38.5156 17.6826 38.5369 18.3914C38.5582 19.1002 38.8317 19.7778 39.3079 20.301C39.784 20.8242 40.4311 21.1583 41.1316 21.2425C41.832 21.3268 42.5392 21.1556 43.1247 20.7601C43.7103 20.3646 44.1352 19.7711 44.3222 19.0873H49.5893C49.3967 21.1131 48.4605 22.9942 46.9633 24.3639C45.4661 25.7336 43.5151 26.4937 41.4907 26.4961" fill="#243037"/>
</svg>
