<svg width="58" height="72" viewBox="0 0 58 72" fill="none" xmlns="http://www.w3.org/2000/svg">
<path d="M39.0845 71.2624H25.4984C23.5121 71.2624 21.607 70.4724 20.2025 69.0662C18.7979 67.66 18.0088 65.7527 18.0088 63.764C18.0088 61.7753 18.7979 59.8681 20.2025 58.4619C21.607 57.0556 23.5121 56.2656 25.4984 56.2656H39.0845C40.068 56.2656 41.042 56.4596 41.9506 56.8364C42.8593 57.2132 43.685 57.7656 44.3805 58.4619C45.0759 59.1581 45.6276 59.9848 46.004 60.8945C46.3804 61.8043 46.5741 62.7793 46.5741 63.764C46.5741 64.7487 46.3804 65.7238 46.004 66.6335C45.6276 67.5433 45.0759 68.3699 44.3805 69.0662C43.685 69.7625 42.8593 70.3148 41.9506 70.6916C41.042 71.0685 40.068 71.2624 39.0845 71.2624Z" fill="#F3F8FB"/>
<path d="M23.0052 50.0208C23.0049 50.621 22.8267 51.2077 22.493 51.7066C22.1594 52.2056 21.6852 52.5944 21.1306 52.8239C20.576 53.0534 19.9658 53.1133 19.3772 52.996C18.7885 52.8788 18.2478 52.5896 17.8235 52.1651C17.3992 51.7405 17.1103 51.1998 16.9933 50.611C16.8763 50.0223 16.9365 49.4122 17.1662 48.8576C17.396 48.3031 17.785 47.8292 18.2841 47.4958C18.7832 47.1623 19.3699 46.9844 19.9701 46.9844C20.7748 46.9844 21.5466 47.3039 22.1157 47.8728C22.6849 48.4417 23.0048 49.2133 23.0052 50.0181" fill="#F3F8FB"/>
<path d="M47.6469 50.0208C47.6466 50.6211 47.4579 51.2078 47.1045 51.7068C46.7512 52.2058 46.2491 52.5945 45.6618 52.824C45.0744 53.0535 44.4283 53.1133 43.8049 52.9959C43.1816 52.8785 42.6092 52.5892 42.1599 52.1646C41.7107 51.7399 41.4049 51.199 41.2812 50.6102C41.1575 50.0214 41.2214 49.4112 41.4649 48.8567C41.7084 48.3022 42.1205 47.8284 42.6492 47.4951C43.1778 47.1618 43.7992 46.9841 44.4348 46.9844C45.2867 46.9844 46.1037 47.304 46.7061 47.8729C47.3085 48.4418 47.6469 49.2135 47.6469 50.0181" fill="#F3F8FB"/>
<path d="M6.35305 26.2734C-8.48444 43.2724 7.79012 56.7683 43.002 31.877L6.35305 26.2734Z" fill="#F3F8FB"/>
<path fill-rule="evenodd" clip-rule="evenodd" d="M32.0765 0.929201C12.9516 0.515469 5.29707 17.7429 5.18533 23.0077C5.14008 25.0934 4.89115 25.9664 7.11169 28.3379C9.33223 30.7094 16.2484 32.3188 31.2972 32.6501C46.3459 32.9814 53.5252 31.6662 55.8448 29.3928C58.1643 27.1194 57.9536 26.2365 57.9988 24.1494C58.1106 18.8846 51.2014 1.34862 32.0765 0.929201ZM42.3589 27.4152C40.7878 27.4175 39.2495 26.9631 37.9294 26.1067C36.6094 25.2503 35.5638 24.0285 34.9187 22.5884C34.2736 21.1484 34.0565 19.5515 34.2935 17.9903C34.5306 16.429 35.2116 14.97 36.2547 13.7889C37.2977 12.6079 38.6583 11.7552 40.1724 11.3336C41.6865 10.9121 43.2896 10.9396 44.7884 11.4129C46.2873 11.8862 47.6181 12.7851 48.6204 14.0013C49.6227 15.2175 50.2538 16.6991 50.4377 18.2676H45.1381C44.9103 17.5964 44.4505 17.0297 43.8423 16.6705C43.2341 16.3113 42.5179 16.1833 41.8238 16.3099C41.1297 16.4365 40.5039 16.8092 40.06 17.3604C39.6161 17.9115 39.3837 18.6045 39.405 19.3133C39.4263 20.022 39.6999 20.6996 40.1761 21.2228C40.6522 21.746 41.2993 22.0801 41.9997 22.1644C42.7001 22.2487 43.4074 22.0775 43.9929 21.682C44.5784 21.2865 45.0033 20.6929 45.1904 20.0092H50.4575C50.2648 22.035 49.3287 23.9161 47.8315 25.2858C46.3342 26.6554 44.3833 27.4156 42.3589 27.418" fill="#F3F8FB"/>
</svg>
