<svg width="22" height="12" viewBox="0 0 22 12" fill="none" xmlns="http://www.w3.org/2000/svg">
<rect x="0.5" y="0.5" width="21" height="11" rx="5.5" fill="#FDD032"/>
<rect x="0.5" y="0.5" width="21" height="11" rx="5.5" stroke="white"/>
<path d="M7.17969 5.00391H5.53516V4.42969C5.53516 4.06771 5.51953 3.84115 5.48828 3.75C5.45703 3.65885 5.38281 3.61328 5.26562 3.61328C5.16406 3.61328 5.09505 3.65234 5.05859 3.73047C5.02214 3.80859 5.00391 4.00911 5.00391 4.33203V7.36719C5.00391 7.65104 5.02214 7.83854 5.05859 7.92969C5.09505 8.01823 5.16797 8.0625 5.27734 8.0625C5.39714 8.0625 5.47786 8.01172 5.51953 7.91016C5.5638 7.80859 5.58594 7.61068 5.58594 7.31641V6.56641H5.25391V5.60547H7.17969V9H6.14453L5.99219 8.54688C5.88021 8.74219 5.73828 8.88932 5.56641 8.98828C5.39714 9.08464 5.19661 9.13281 4.96484 9.13281C4.6888 9.13281 4.42969 9.06641 4.1875 8.93359C3.94792 8.79818 3.76562 8.63151 3.64062 8.43359C3.51562 8.23568 3.4375 8.02865 3.40625 7.8125C3.375 7.59375 3.35938 7.26693 3.35938 6.83203V4.95312C3.35938 4.34896 3.39193 3.91016 3.45703 3.63672C3.52214 3.36328 3.70833 3.11328 4.01562 2.88672C4.32552 2.65755 4.72526 2.54297 5.21484 2.54297C5.69661 2.54297 6.09635 2.64193 6.41406 2.83984C6.73177 3.03776 6.9388 3.27344 7.03516 3.54688C7.13151 3.81771 7.17969 4.21224 7.17969 4.73047V5.00391ZM7.82031 2.67578H8.98438C9.76042 2.67578 10.2852 2.70573 10.5586 2.76562C10.8346 2.82552 11.0586 2.97917 11.2305 3.22656C11.4049 3.47135 11.4922 3.86328 11.4922 4.40234C11.4922 4.89453 11.431 5.22526 11.3086 5.39453C11.1862 5.5638 10.9453 5.66536 10.5859 5.69922C10.9115 5.77995 11.1302 5.88802 11.2422 6.02344C11.3542 6.15885 11.4232 6.28385 11.4492 6.39844C11.4779 6.51042 11.4922 6.82161 11.4922 7.33203V9H9.96484V6.89844C9.96484 6.5599 9.9375 6.35026 9.88281 6.26953C9.83073 6.1888 9.69141 6.14844 9.46484 6.14844V9H7.82031V2.67578ZM9.46484 3.75781V5.16406C9.64974 5.16406 9.77865 5.13932 9.85156 5.08984C9.92708 5.03776 9.96484 4.8724 9.96484 4.59375V4.24609C9.96484 4.04557 9.92839 3.91406 9.85547 3.85156C9.78516 3.78906 9.65495 3.75781 9.46484 3.75781ZM12.1328 2.67578H14.875V3.94141H13.7773V5.14062H14.8047V6.34375H13.7773V7.73438H14.9844V9H12.1328V2.67578ZM18.9648 2.67578L17.7656 6.71094V9H16.2422V6.71094L15.0859 2.67578H16.5977C16.8346 3.90755 16.9674 4.73698 16.9961 5.16406C17.0872 4.48958 17.2396 3.66016 17.4531 2.67578H18.9648Z" fill="#AF741F"/>
</svg>
