<svg width="80" height="80" viewBox="0 0 80 80" fill="none" xmlns="http://www.w3.org/2000/svg">
<path d="M61.8001 10.5H18.7001C15.9001 10.5 13.6001 12.8 13.6001 15.6V64.4C13.6001 67.2 15.9001 69.5 18.7001 69.5H61.8001C64.6001 69.5 66.9001 67.2 66.9001 64.4V15.6C66.9001 12.8 64.6001 10.5 61.8001 10.5ZM63.5001 64.4C63.5001 65.3 62.7001 66.1 61.8001 66.1H18.7001C17.8001 66.1 17.0001 65.3 17.0001 64.4V25.8H63.5001V64.4ZM63.5001 22.4H16.9001V15.6C16.9001 14.7 17.7001 13.9 18.6001 13.9H61.7001C62.6001 13.9 63.4001 14.7 63.4001 15.6V22.4H63.5001Z" fill="#808080"/>
<path d="M51.6001 16.5H48.2001C47.3001 16.5 46.5001 17.3 46.5001 18.2C46.5001 19.1 47.3001 19.9 48.2001 19.9H51.6001C52.5001 19.9 53.3001 19.1 53.3001 18.2C53.3001 17.2 52.5001 16.5 51.6001 16.5Z" fill="#808080"/>
<path d="M60.6001 16.5H57.2001C56.3001 16.5 55.5001 17.3 55.5001 18.2C55.5001 19.1 56.3001 19.9 57.2001 19.9H60.6001C61.5001 19.9 62.3001 19.1 62.3001 18.2C62.3001 17.2 61.6001 16.5 60.6001 16.5Z" fill="#808080"/>
<path d="M40.2001 62.4C49.3001 62.4 56.7001 55 56.7001 45.9C56.7001 45.5 56.7001 45 56.6001 44.6C55.9001 36.1 48.8001 29.5 40.2001 29.5C31.6001 29.5 24.5001 36.2 23.8001 44.6C23.8001 45 23.7001 45.5 23.7001 45.9C23.8001 55 31.1001 62.4 40.2001 62.4ZM40.2001 32.9C46.5001 32.9 51.8001 37.4 53.0001 43.3C51.8001 43.6 51.1001 44.1 50.4001 44.5C49.6001 45 49.0001 45.4 47.6001 45.4C46.2001 45.4 45.6001 45 44.8001 44.5C43.8001 43.9 42.5001 43.1 40.2001 43.1C37.9001 43.1 36.6001 43.9 35.6001 44.5C34.8001 45 34.2001 45.4 32.8001 45.4C31.4001 45.4 30.8001 45 30.0001 44.5C29.3001 44.1 28.5001 43.6 27.4001 43.3C28.6001 37.4 33.9001 32.9 40.2001 32.9ZM28.3001 47.4C29.3001 48 30.6001 48.8 32.9001 48.8C35.2001 48.8 36.5001 48 37.5001 47.4C38.3001 46.9 38.9001 46.5 40.3001 46.5C41.7001 46.5 42.3001 46.9 43.1001 47.4C44.1001 48 45.4001 48.8 47.7001 48.8C50.0001 48.8 51.3001 48 52.3001 47.4C52.7001 47.2 53.0001 47 53.4001 46.8C53.0001 53.6 47.3001 59 40.4001 59C33.5001 59 27.8001 53.6 27.4001 46.8C27.6001 47 27.9001 47.2 28.3001 47.4Z" fill="#808080"/>
</svg>
