<svg width="40" height="40" viewBox="0 0 40 40" fill="none" xmlns="http://www.w3.org/2000/svg">
<circle cx="27.0786" cy="25.788" r="7.92133" stroke="#333333" stroke-width="1.008"/>
<path d="M28.0686 9.94531H32.0293V14.4011L33.5145 12.9158" stroke="#333333" stroke-width="1.008" stroke-linecap="round" stroke-linejoin="round"/>
<path d="M15.6917 29.2534H11.731V24.7977L10.2457 26.2829" stroke="#333333" stroke-width="1.008" stroke-linecap="round" stroke-linejoin="round"/>
<path d="M24.727 14.8959C24.727 11.8025 24.727 6.97461 24.727 6.97461H9.69826C7.47145 6.97461 5.66626 8.7798 5.66626 11.0066V20.8369H17.1769" stroke="#333333" stroke-linecap="round"/>
<path d="M5.66626 17.3711H7.11584C8.22925 17.3711 9.13184 18.2737 9.13184 19.3871V20.8367H5.66626V17.3711Z" fill="#333333"/>
<path d="M5.66626 10.4402C5.66626 8.5262 7.21785 6.97461 9.13184 6.97461V8.42419C9.13184 9.5376 8.22925 10.4402 7.11584 10.4402H5.66626Z" fill="#333333"/>
<path d="M21.2615 6.97461H24.7271V10.4402H23.2775C22.1641 10.4402 21.2615 9.5376 21.2615 8.42419V6.97461Z" fill="#333333"/>
<rect x="11.2356" y="13.9058" width="1.98033" height="2.9705" rx="0.990167" fill="#333333"/>
<rect x="14.2063" y="11.9258" width="1.98033" height="4.95083" rx="0.990167" fill="#333333"/>
<rect x="17.1765" y="9.94531" width="1.98033" height="6.93117" rx="0.990167" fill="#333333"/>
<path fill-rule="evenodd" clip-rule="evenodd" d="M27.9184 27.935C28.1609 27.7533 28.27 27.5354 28.27 27.3321C28.27 27.1284 28.1609 26.9101 27.918 26.7284C27.6755 26.5462 27.3195 26.4203 26.9085 26.4203C26.7917 26.4203 26.6798 26.3739 26.5973 26.2914C26.5749 26.269 26.5552 26.2445 26.5384 26.2183C26.1998 26.1395 25.8906 25.9984 25.6346 25.8062C25.2253 25.499 24.9305 25.0414 24.9305 24.4987C24.9305 23.9557 25.2253 23.498 25.6346 23.1908C25.8882 23.0008 26.1943 22.8605 26.5291 22.7814V22.3976C26.5291 22.2809 26.5755 22.1689 26.658 22.0864C26.7405 22.0039 26.8525 21.9575 26.9692 21.9575C27.0859 21.9575 27.1978 22.0039 27.2804 22.0864C27.3629 22.1689 27.4093 22.2809 27.4093 22.3976V22.7171C28.2222 22.7854 28.9601 23.2031 29.27 23.8602C29.2947 23.9125 29.3088 23.9691 29.3115 24.0269C29.3143 24.0847 29.3056 24.1424 29.2861 24.1968C29.2665 24.2512 29.2365 24.3012 29.1976 24.344C29.1587 24.3868 29.1118 24.4215 29.0595 24.4462C29.0071 24.4708 28.9505 24.4849 28.8928 24.4877C28.835 24.4904 28.7773 24.4818 28.7229 24.4622C28.6684 24.4427 28.6184 24.4126 28.5756 24.3737C28.5328 24.3348 28.4981 24.2879 28.4735 24.2356C28.3195 23.9068 27.8389 23.5874 27.1731 23.5874C26.7616 23.5874 26.4056 23.7132 26.1627 23.8954C25.9202 24.0772 25.8106 24.295 25.8106 24.4983C25.8106 24.7021 25.9202 24.9199 26.1627 25.1021C26.4056 25.2843 26.7612 25.4101 27.1726 25.4101C27.2894 25.4101 27.4013 25.4565 27.4838 25.539C27.5062 25.5614 27.5259 25.5859 27.5427 25.6121C27.8813 25.6909 28.1905 25.8321 28.4465 26.0242C28.8558 26.3314 29.1502 26.7891 29.1502 27.3317C29.1502 27.8743 28.8558 28.3324 28.4461 28.6391C28.1864 28.834 27.8722 28.9765 27.5281 29.0546V29.3083C27.5281 29.425 27.4818 29.5369 27.3992 29.6195C27.3167 29.702 27.2048 29.7483 27.0881 29.7483C26.9713 29.7483 26.8594 29.702 26.7769 29.6195C26.6943 29.5369 26.648 29.425 26.648 29.3083V29.1112C25.8444 29.0368 25.1175 28.6209 24.8111 27.9698C24.7613 27.8642 24.7555 27.7432 24.7949 27.6334C24.8344 27.5235 24.9159 27.4338 25.0214 27.3841C25.127 27.3343 25.248 27.3285 25.3579 27.3679C25.4677 27.4074 25.5574 27.4888 25.6072 27.5944C25.7621 27.9236 26.2426 28.2431 26.9085 28.2431C27.3199 28.2431 27.6755 28.1172 27.9184 27.935Z" fill="#333333"/>
</svg>
