<svg width="80" height="80" viewBox="0 0 80 80" fill="none" xmlns="http://www.w3.org/2000/svg">
<path d="M66.8002 10.5H41.2002C39.6002 10.5 38.3002 11.8 38.3002 13.4V24.2H15.6002C12.9002 24.2 10.7002 26.4 10.7002 29.1V54.7C10.7002 57.4 12.9002 59.6 15.6002 59.6H26.4002V63.5H23.5002C21.9002 63.5 20.5002 64.8 20.5002 66.5C20.5002 68.1 21.8002 69.4 23.5002 69.4H66.8002C68.4002 69.4 69.7002 68.1 69.7002 66.5V13.4C69.7002 11.8 68.4002 10.5 66.8002 10.5ZM14.0002 51.9V29.8C14.0002 28.3 15.2002 27 16.8002 27H49.9002C51.4002 27 52.7002 28.2 52.7002 29.8V51.9H14.0002ZM38.2002 59.7V63.6H28.4002V59.7H38.2002ZM43.2002 67.5H23.5002C23.0002 67.5 22.5002 67.1 22.5002 66.5C22.5002 66 22.9002 65.5 23.5002 65.5H43.2002C43.7002 65.5 44.2002 65.9 44.2002 66.5C44.1002 67.1 43.7002 67.5 43.2002 67.5ZM67.4002 66C67.4002 66.5 67.0002 67 66.4002 67H46.1002C46.4002 66.1 46.3002 65.1 45.7002 64.4C45.2002 63.6 44.3002 63.2 43.4002 63.2H40.5002V59.4H51.1002C53.8002 59.4 55.9002 57.2 55.9002 54.6V29.6C55.9002 26.9 53.7002 24.8 51.1002 24.8H40.5002V14C40.5002 13.5 40.9002 13 41.5002 13H66.5002C67.0002 13 67.5002 13.4 67.5002 14V66H67.4002Z" fill="#808080"/>
<path d="M63.8002 15.4H44.1002C43.0002 15.4 42.1002 16.3 42.1002 17.4V19.4C42.1002 20.5 43.0002 21.4 44.1002 21.4H63.8002C64.9002 21.4 65.8002 20.5 65.8002 19.4V17.4C65.8002 16.3 64.9002 15.4 63.8002 15.4ZM63.8002 19.4H44.1002V17.4H63.8002V19.4Z" fill="#808080"/>
<path d="M61.8002 24.3C60.2002 24.3 58.9002 25.6 58.9002 27.3C58.9002 28.9 60.2002 30.2 61.8002 30.2C63.4002 30.2 64.7002 28.9 64.7002 27.3C64.8002 25.6 63.5002 24.3 61.8002 24.3ZM61.8002 28.2C61.3002 28.2 60.8002 27.8 60.8002 27.2C60.8002 26.7 61.2002 26.2 61.8002 26.2C62.3002 26.2 62.8002 26.6 62.8002 27.2C62.8002 27.8 62.4002 28.2 61.8002 28.2Z" fill="#808080"/>
<path d="M61.8002 32.1C60.2002 32.1 58.9002 33.4 58.9002 35C58.9002 36.6 60.2002 37.9 61.8002 37.9C63.4002 37.9 64.7002 36.6 64.7002 35C64.8002 33.5 63.5002 32.1 61.8002 32.1ZM61.8002 36.1C61.3002 36.1 60.8002 35.7 60.8002 35.1C60.8002 34.6 61.2002 34.1 61.8002 34.1C62.3002 34.1 62.8002 34.5 62.8002 35.1C62.8002 35.6 62.4002 36.1 61.8002 36.1Z" fill="#808080"/>
</svg>
