<svg width="80" height="80" viewBox="0 0 80 80" fill="none" xmlns="http://www.w3.org/2000/svg">
<path d="M10.3001 33.4C10.6001 34.7 11.0001 36 11.7001 37.1C13.8001 40.8 14.7001 44.7 14.7001 48.2V62.7C14.7001 63.3 15.2001 63.9 15.9001 63.9H20.6001C21.2001 63.9 21.8001 63.4 21.8001 62.7V49.5999C21.8001 46.9999 22.4001 44.3 23.6001 41.9L23.7001 41.7C29.2001 46.3 33.7001 52.1999 36.6001 58.7999C37.9001 61.7999 40.9001 63.7999 44.1001 63.7999H53.7001C58.3001 63.7999 62.0001 63.7 64.7001 63.2C66.0001 63 70.1001 62.2999 70.1001 59.0999C70.1001 57.2999 68.6001 54.7 66.3001 52.4C64.7001 50.9 61.5001 48.3 57.0001 47.6C56.7001 47.5 56.3001 47.7 56.0001 47.9C54.8001 48.9 52.6001 49.7 50.6001 49.7C47.8001 49.7 44.8001 48.1 43.7001 46C43.7001 46 43.7001 45.9 43.6001 45.9L35.8001 34.7C31.0001 27.8 25.2001 21.6 18.6001 16.3C18.2001 16 17.6001 16 17.1001 16.3C15.3001 17.8 13.7001 19.5 12.6001 21.5C10.3001 25.4 9.50012 29.8 10.3001 33.4ZM19.4001 49.5999V61.5H17.0001V48.2C17.0001 47.8 17.0001 47.5 17.0001 47.1C16.6001 40.7 13.9001 36.4 13.3001 35.3C16.3001 36.7 19.1001 38.4 21.7001 40.3C20.5001 42.4 19.4001 45.9999 19.4001 49.5999ZM14.6001 22.8C15.5001 21.3 16.6001 20 17.9001 18.9C24.0001 23.9 29.4001 29.8 33.9001 36.2L41.7001 47.3C43.3001 50.1 47.0001 52.2 50.6001 52.2C52.9001 52.2 55.5001 51.4 57.1001 50.2C60.6001 50.9 63.3001 52.9999 64.6001 54.2999C66.6001 56.2999 67.7001 58.2999 67.7001 59.2999C67.7001 60.2999 65.8001 60.7999 64.2001 61.0999C61.7001 61.4999 58.1001 61.5999 53.6001 61.5999H44.0001C41.7001 61.5999 39.6001 60.2 38.6001 58C33.5001 46.5 24.1001 37.3 12.4001 32.4C12.0001 29.5 12.7001 25.9 14.6001 22.8Z" fill="#217DC1"/>
</svg>
