<svg width="32" height="32" viewBox="0 0 32 32" fill="none" xmlns="http://www.w3.org/2000/svg">
<path d="M15.2346 4.31703C15.7247 4.11404 16.2753 4.11404 16.7654 4.31703L22.3057 6.61191C22.7958 6.81489 23.1851 7.20424 23.3881 7.6943L25.683 13.2346C25.886 13.7247 25.886 14.2753 25.683 14.7654L23.3881 20.3057C23.1851 20.7958 22.7958 21.1851 22.3057 21.3881L16.7654 23.683C16.2753 23.886 15.7247 23.886 15.2346 23.683L9.6943 21.3881C9.20424 21.1851 8.81489 20.7958 8.61191 20.3057L6.31703 14.7654C6.11404 14.2753 6.11404 13.7247 6.31703 13.2346L8.61191 7.6943C8.81489 7.20424 9.20424 6.81489 9.6943 6.61191L15.2346 4.31703Z" stroke="#00AB1B" stroke-width="1.5" stroke-linecap="round" stroke-linejoin="round"/>
<path d="M16 24L22 21.5V26C22 26.5523 21.5523 27 21 27H16V24Z" stroke="#00AB1B" stroke-width="1.5" stroke-linecap="round"/>
<path d="M16 24L10 21.5V26C10 26.5523 10.4477 27 11 27H16V24Z" stroke="#00AB1B" stroke-width="1.5" stroke-linecap="round"/>
<path d="M19.3078 17.5585C17.9331 17.5585 17.0166 16.9857 16.7493 16.2029C16.7064 16.0883 16.6825 15.9642 16.6825 15.8496C16.6825 15.506 16.9021 15.2864 17.2266 15.2864C17.4987 15.2864 17.6706 15.3962 17.8042 15.673C18.019 16.2697 18.6109 16.537 19.346 16.537C20.1765 16.537 20.7589 16.1265 20.7589 15.5537C20.7589 15.0573 20.4152 14.7518 19.5178 14.5656L18.778 14.4129C17.3985 14.1313 16.7541 13.4821 16.7541 12.4749C16.7541 11.2625 17.8185 10.4415 19.3126 10.4415C20.5298 10.4415 21.4749 10.9857 21.7565 11.8974C21.7851 11.9737 21.7994 12.0644 21.7994 12.179C21.7994 12.4797 21.5846 12.685 21.2648 12.685C20.9784 12.685 20.8018 12.5609 20.6729 12.2936C20.4391 11.7112 19.9474 11.463 19.303 11.463C18.5393 11.463 17.9951 11.8258 17.9951 12.4033C17.9951 12.8711 18.3388 13.1718 19.198 13.3532L19.9379 13.506C21.3889 13.8067 21.9999 14.389 21.9999 15.4105C21.9999 16.7279 20.9641 17.5585 19.3078 17.5585Z" fill="#00AB1B" stroke="#00AB1B" stroke-width="0.3"/>
<path d="M12.8305 17.559C11.0883 17.559 10 16.5184 10 15.0148V11.1151C10 10.7094 10.2339 10.4755 10.6158 10.4755C11.0024 10.4755 11.2315 10.7094 11.2315 11.1151V14.9051C11.2315 15.8454 11.8091 16.485 12.8305 16.485C13.852 16.485 14.4344 15.8454 14.4344 14.9051V11.1151C14.4344 10.7094 14.6635 10.4755 15.0501 10.4755C15.432 10.4755 15.6611 10.7094 15.6611 11.1151V15.0148C15.6611 16.5184 14.5776 17.559 12.8305 17.559Z" fill="#00AB1B" stroke="#00AB1B" stroke-width="0.3"/>
</svg>
