<svg width="38" height="38" viewBox="0 0 38 38" fill="none" xmlns="http://www.w3.org/2000/svg">
<mask id="path-1-inside-1_14742_26532" fill="white">
<path fill-rule="evenodd" clip-rule="evenodd" d="M6.51326 8.51324C7.15997 7.86653 8.05489 7.4 9.00002 7.4H29C29.9452 7.4 30.8401 7.86653 31.4868 8.51324C32.1335 9.15995 32.6 10.0549 32.6 11V29C32.6 29.3314 32.3314 29.6 32 29.6H12C11.6687 29.6 11.4 29.3314 11.4 29V15.6H6.00002C5.66865 15.6 5.40002 15.3314 5.40002 15V11C5.40002 10.0549 5.86655 9.15995 6.51326 8.51324ZM12.6 11C12.6 10.0964 12.1736 9.23877 11.5711 8.6H29C29.5549 8.6 30.16 8.88347 30.6383 9.36177C31.1166 9.84006 31.4 10.4451 31.4 11V28.4H12.6V15V11ZM27 13H29V25H27V13ZM15 15H17V25H15V15ZM25 16H23V25H25V16ZM19 19H21V25H19V19Z"/>
</mask>
<path fill-rule="evenodd" clip-rule="evenodd" d="M6.51326 8.51324C7.15997 7.86653 8.05489 7.4 9.00002 7.4H29C29.9452 7.4 30.8401 7.86653 31.4868 8.51324C32.1335 9.15995 32.6 10.0549 32.6 11V29C32.6 29.3314 32.3314 29.6 32 29.6H12C11.6687 29.6 11.4 29.3314 11.4 29V15.6H6.00002C5.66865 15.6 5.40002 15.3314 5.40002 15V11C5.40002 10.0549 5.86655 9.15995 6.51326 8.51324ZM12.6 11C12.6 10.0964 12.1736 9.23877 11.5711 8.6H29C29.5549 8.6 30.16 8.88347 30.6383 9.36177C31.1166 9.84006 31.4 10.4451 31.4 11V28.4H12.6V15V11ZM27 13H29V25H27V13ZM15 15H17V25H15V15ZM25 16H23V25H25V16ZM19 19H21V25H19V19Z" fill="url(#paint0_linear_14742_26532)"/>
<path d="M6.51326 8.51324L7.22037 9.22034L7.22037 9.22034L6.51326 8.51324ZM31.4868 8.51324L30.7797 9.22034V9.22034L31.4868 8.51324ZM11.4 15.6H12.4V14.6H11.4V15.6ZM11.5711 8.6V7.6H9.25299L10.8436 9.2862L11.5711 8.6ZM31.4 28.4V29.4H32.4V28.4H31.4ZM12.6 28.4H11.6V29.4H12.6V28.4ZM29 13H30V12H29V13ZM27 13V12H26V13H27ZM29 25V26H30V25H29ZM27 25H26V26H27V25ZM17 15H18V14H17V15ZM15 15V14H14V15H15ZM17 25V26H18V25H17ZM15 25H14V26H15V25ZM23 16V15H22V16H23ZM25 16H26V15H25V16ZM23 25H22V26H23V25ZM25 25V26H26V25H25ZM21 19H22V18H21V19ZM19 19V18H18V19H19ZM21 25V26H22V25H21ZM19 25H18V26H19V25ZM9.00002 6.4C7.72914 6.4 6.59276 7.01953 5.80615 7.80613L7.22037 9.22034C7.72718 8.71353 8.38063 8.4 9.00002 8.4V6.4ZM29 6.4H9.00002V8.4H29V6.4ZM32.1939 7.80613C31.4073 7.01953 30.2709 6.4 29 6.4V8.4C29.6194 8.4 30.2729 8.71353 30.7797 9.22034L32.1939 7.80613ZM33.6 11C33.6 9.72912 32.9805 8.59273 32.1939 7.80613L30.7797 9.22034C31.2865 9.72716 31.6 10.3806 31.6 11H33.6ZM33.6 29V11H31.6V29H33.6ZM32 30.6C32.8837 30.6 33.6 29.8837 33.6 29H31.6C31.6 28.7791 31.7791 28.6 32 28.6V30.6ZM12 30.6H32V28.6H12V30.6ZM10.4 29C10.4 29.8837 11.1164 30.6 12 30.6V28.6C12.2209 28.6 12.4 28.7791 12.4 29H10.4ZM10.4 15.6V29H12.4V15.6H10.4ZM6.00002 16.6H11.4V14.6H6.00002V16.6ZM4.40002 15C4.40002 15.8837 5.11637 16.6 6.00002 16.6V14.6C6.22094 14.6 6.40002 14.7791 6.40002 15H4.40002ZM4.40002 11V15H6.40002V11H4.40002ZM5.80615 7.80613C5.01955 8.59273 4.40002 9.72912 4.40002 11H6.40002C6.40002 10.3806 6.71355 9.72716 7.22037 9.22034L5.80615 7.80613ZM10.8436 9.2862C11.3147 9.78554 11.6 10.4086 11.6 11H13.6C13.6 9.78423 13.0326 8.692 12.2985 7.9138L10.8436 9.2862ZM29 7.6H11.5711V9.6H29V7.6ZM31.3454 8.65466C30.726 8.03534 29.8793 7.6 29 7.6V9.6C29.2304 9.6 29.5939 9.7316 29.9312 10.0689L31.3454 8.65466ZM32.4 11C32.4 10.1207 31.9647 9.27398 31.3454 8.65466L29.9312 10.0689C30.2684 10.4061 30.4 10.7696 30.4 11H32.4ZM32.4 28.4V11H30.4V28.4H32.4ZM12.6 29.4H31.4V27.4H12.6V29.4ZM11.6 15V28.4H13.6V15H11.6ZM11.6 11V15H13.6V11H11.6ZM29 12H27V14H29V12ZM30 25V13H28V25H30ZM27 26H29V24H27V26ZM26 13V25H28V13H26ZM17 14H15V16H17V14ZM18 25V15H16V25H18ZM15 26H17V24H15V26ZM14 15V25H16V15H14ZM23 17H25V15H23V17ZM24 25V16H22V25H24ZM25 24H23V26H25V24ZM24 16V25H26V16H24ZM21 18H19V20H21V18ZM22 25V19H20V25H22ZM19 26H21V24H19V26ZM18 19V25H20V19H18Z" fill="url(#paint1_linear_14742_26532)" mask="url(#path-1-inside-1_14742_26532)"/>
<defs>
<linearGradient id="paint0_linear_14742_26532" x1="5.40002" y1="18.5024" x2="32.5944" y2="18.5024" gradientUnits="userSpaceOnUse">
<stop stop-color="#70C6FC"/>
<stop offset="0.0627815" stop-color="#6CC2FB"/>
<stop offset="0.6801" stop-color="#439CF2"/>
<stop offset="1" stop-color="#348DEF"/>
</linearGradient>
<linearGradient id="paint1_linear_14742_26532" x1="5.40002" y1="18.5024" x2="32.5944" y2="18.5024" gradientUnits="userSpaceOnUse">
<stop stop-color="#70C6FC"/>
<stop offset="0.0627815" stop-color="#6CC2FB"/>
<stop offset="0.6801" stop-color="#439CF2"/>
<stop offset="1" stop-color="#348DEF"/>
</linearGradient>
</defs>
</svg>
