<svg width="18" height="18" viewBox="0 0 18 18" fill="none" xmlns="http://www.w3.org/2000/svg">
<path d="M13.9659 16.0016H4.0387C2.8324 16.0016 1.84814 15.0173 1.84814 13.811V4.19056C1.84814 2.98425 2.8324 2 4.0387 2H13.9659C15.1722 2 16.1564 2.98425 16.1564 4.19056V13.817C16.1564 15.0173 15.1722 16.0016 13.9659 16.0016Z" fill="#FF3042"/>
<path d="M10.03 7.55996H13.76V8.66996H10.03V7.55996ZM4.60998 5.23996H9.10998V6.21996H4.60998V5.23996ZM4.50998 9.21996H9.09998V10.23H4.50998V9.21996ZM4.47998 7.46996H9.18998V8.45996H4.47998V7.46996ZM11.65 8.03996H12.81V13.59H11.65V8.03996ZM6.27998 4.32996H7.44998V5.67996H6.27998V4.32996ZM6.27998 8.39996H7.44998V13.63H6.27998V8.39996ZM9.48998 5.03996L10.89 5.42996C10.88 5.52996 10.81 5.57996 10.63 5.60996V8.54996C10.63 10.04 10.44 12.25 9.07998 13.66C8.92998 13.4 8.48998 12.99 8.21998 12.84C9.37998 11.61 9.48998 9.89996 9.48998 8.52996V5.03996ZM12.76 4.34996L13.72 5.21996C12.7 5.67996 11.34 6.01996 10.17 6.23996C10.11 5.97996 9.93998 5.55996 9.79998 5.32996C10.87 5.08996 12.05 4.72996 12.76 4.34996ZM7.35998 10.27C7.66998 10.46 8.62998 11.21 8.86998 11.41L8.17998 12.27C7.84998 11.87 7.08998 11.12 6.71998 10.79L7.35998 10.27ZM5.10998 6.36996L6.02998 6.14996C6.20998 6.50996 6.34998 6.99996 6.39998 7.32996L5.41998 7.58996C5.39998 7.25996 5.26998 6.74996 5.10998 6.36996ZM7.59998 6.12996L8.65998 6.32996C8.46998 6.78996 8.29998 7.21996 8.14998 7.52996L7.19998 7.32996C7.33998 6.98996 7.50998 6.47996 7.59998 6.12996ZM6.28998 9.80996L7.13998 10.12C6.64998 11.22 5.81998 12.37 5.01998 13.02C4.82998 12.76 4.47998 12.36 4.22998 12.17C5.01998 11.66 5.84998 10.69 6.28998 9.80996Z" fill="white"/>
</svg>
