<svg width="16" height="16" viewBox="0 0 16 16" fill="none" xmlns="http://www.w3.org/2000/svg">
<path fill-rule="evenodd" clip-rule="evenodd" d="M12.5872 8.63902L8.96929 12.2933C8.87207 12.3906 8.87207 12.5656 8.96929 12.6822C9.06652 12.7989 9.24152 12.7989 9.35819 12.6822L13.4222 8.57932C13.5 8.50154 13.5194 8.38487 13.4806 8.28765C13.4806 8.24876 13.4417 8.20987 13.4222 8.19042L9.35819 4.0875C9.26097 3.97083 9.08596 3.97083 8.96929 4.0875C8.91096 4.14584 8.89151 4.20417 8.89151 4.28195C8.89151 4.35973 8.91096 4.41807 8.96929 4.47641L12.5516 8.09469L2.37741 8.13209C2.22185 8.13209 2.10518 8.24876 2.10518 8.40433C2.10518 8.55989 2.22185 8.67656 2.37741 8.67656L12.5872 8.63902Z" fill="#808080"/>
<path d="M8.96929 12.2933L9.13132 12.4538L9.13051 12.4546L8.96929 12.2933ZM12.5872 8.63902L12.5864 8.41102L13.1358 8.409L12.7493 8.79943L12.5872 8.63902ZM9.35819 12.6822L9.52018 12.8427L9.51941 12.8435L9.35819 12.6822ZM13.4222 8.57932L13.2602 8.41887L13.261 8.4181L13.4222 8.57932ZM13.4806 8.28765L13.2689 8.37232L13.2526 8.33155V8.28765H13.4806ZM13.4222 8.19042L13.261 8.35164L13.2602 8.35087L13.4222 8.19042ZM9.35819 4.0875L9.19621 4.24795L9.18931 4.24099L9.18304 4.23347L9.35819 4.0875ZM8.96929 4.47641L9.13051 4.31518L9.13132 4.31599L8.96929 4.47641ZM12.5516 8.09469L12.7136 7.93428L13.0962 8.32069L12.5524 8.32269L12.5516 8.09469ZM2.37741 8.13209L2.37825 8.36009H2.37741V8.13209ZM2.37741 8.67656L2.37825 8.90456H2.37741V8.67656ZM8.80727 12.1329L12.4252 8.47861L12.7493 8.79943L9.13132 12.4537L8.80727 12.1329ZM8.79414 12.8282C8.63366 12.6356 8.6146 12.3256 8.80807 12.1321L9.13051 12.4546C9.13049 12.4546 9.1302 12.4549 9.12972 12.4556C9.12923 12.4564 9.12847 12.4578 9.12767 12.4599C9.126 12.4642 9.12437 12.4712 9.12437 12.4805C9.12437 12.5 9.13144 12.5207 9.14445 12.5363L8.79414 12.8282ZM9.51941 12.8435C9.32268 13.0402 8.99 13.0632 8.79414 12.8282L9.14445 12.5363C9.14689 12.5392 9.14859 12.5401 9.14946 12.5405C9.15056 12.541 9.15274 12.5417 9.15645 12.5417C9.16355 12.5417 9.17928 12.5387 9.19697 12.521L9.51941 12.8435ZM13.5842 8.73977L9.52018 12.8427L9.19621 12.5218L13.2602 8.41887L13.5842 8.73977ZM13.6922 8.20297C13.7631 8.38002 13.7293 8.59465 13.5834 8.74054L13.261 8.4181C13.2658 8.41325 13.2695 8.40668 13.2712 8.39811C13.2729 8.3891 13.2719 8.37986 13.2689 8.37232L13.6922 8.20297ZM13.5834 8.0292C13.5922 8.03799 13.6197 8.06483 13.6442 8.09922C13.6657 8.12928 13.7086 8.19672 13.7086 8.28765H13.2526C13.2526 8.31573 13.2595 8.33635 13.2639 8.34696C13.2684 8.35758 13.2726 8.36345 13.2731 8.36426C13.274 8.3654 13.2736 8.36474 13.2712 8.36208C13.2687 8.35938 13.266 8.35665 13.261 8.35164L13.5834 8.0292ZM9.52018 3.92705L13.5842 8.02997L13.2602 8.35087L9.19621 4.24795L9.52018 3.92705ZM8.80807 3.92628C9.0048 3.72955 9.33749 3.70651 9.53335 3.94154L9.18304 4.23347C9.1806 4.23054 9.1789 4.22964 9.17802 4.22924C9.17693 4.22873 9.17474 4.228 9.17103 4.228C9.16394 4.228 9.1482 4.23103 9.13051 4.24872L8.80807 3.92628ZM8.66351 4.28195C8.66351 4.22403 8.67075 4.16053 8.69572 4.09559C8.72109 4.02964 8.76009 3.97426 8.80807 3.92628L9.13051 4.24872C9.12491 4.25433 9.12246 4.25771 9.12164 4.25892C9.12095 4.25995 9.12109 4.25991 9.12133 4.25928C9.122 4.25754 9.11951 4.2621 9.11951 4.28195H8.66351ZM8.80807 4.63763C8.76009 4.58965 8.72109 4.53427 8.69572 4.46832C8.67075 4.40338 8.66351 4.33988 8.66351 4.28195H9.11951C9.11951 4.30181 9.122 4.30636 9.12133 4.30462C9.12109 4.30399 9.12095 4.30396 9.12164 4.30499C9.12246 4.3062 9.12491 4.30958 9.13051 4.31518L8.80807 4.63763ZM12.3895 8.2551L8.80727 4.63682L9.13132 4.31599L12.7136 7.93428L12.3895 8.2551ZM2.37657 7.9041L12.5507 7.86669L12.5524 8.32269L2.37825 8.36009L2.37657 7.9041ZM1.87718 8.40433C1.87718 8.12284 2.09593 7.90409 2.37741 7.90409V8.36009C2.35817 8.36009 2.34869 8.36659 2.34418 8.3711C2.33967 8.3756 2.33318 8.38508 2.33318 8.40433H1.87718ZM2.37741 8.90456C2.09593 8.90456 1.87718 8.68581 1.87718 8.40433H2.33318C2.33318 8.42357 2.33967 8.43305 2.34418 8.43756C2.34869 8.44207 2.35817 8.44856 2.37741 8.44856V8.90456ZM12.5881 8.86702L2.37825 8.90456L2.37657 8.44856L12.5864 8.41102L12.5881 8.86702Z" fill="#808080"/>
</svg>
