<svg width="16" height="14" viewBox="0 0 16 14" fill="none" xmlns="http://www.w3.org/2000/svg">
<path d="M16 9.47234C16 7.44681 14.4281 5.65957 12.2105 5.1234C12.0702 2.26383 9.37544 0 6.1193 0C2.75088 0 0 2.41277 0 5.33191C0 6.28511 0.280702 7.2383 0.842105 8.04255L0.0280702 10.6638L3.00351 9.94894C3.87368 10.3957 4.82807 10.634 5.8386 10.6936C6.45614 12.6298 8.50526 14 10.8351 14C11.7614 14 12.6596 13.7915 13.4737 13.3745L16 13.9702L15.2982 11.766C15.7474 11.0809 16 10.2766 16 9.47234ZM8.95439 4.40851C9.37544 4.40851 9.74035 4.76596 9.74035 5.24255C9.74035 5.71915 9.40351 6.0766 8.95439 6.0766C8.53333 6.0766 8.16842 5.71915 8.16842 5.24255C8.16842 4.76596 8.53333 4.40851 8.95439 4.40851ZM3.64912 6.0766C3.22807 6.0766 2.86316 5.71915 2.86316 5.24255C2.86316 4.76596 3.2 4.40851 3.64912 4.40851C4.07018 4.40851 4.43509 4.76596 4.43509 5.24255C4.43509 5.71915 4.09825 6.0766 3.64912 6.0766ZM6.31579 6.0766C5.89474 6.0766 5.52982 5.71915 5.52982 5.24255C5.52982 4.76596 5.86667 4.40851 6.31579 4.40851C6.76491 4.40851 7.10175 4.76596 7.10175 5.24255C7.10175 5.71915 6.73684 6.0766 6.31579 6.0766ZM14.6246 12.8085L13.3053 12.4809L13.1368 12.5702C12.4632 12.9574 11.6491 13.166 10.8351 13.166C9.01053 13.166 7.38246 12.1234 6.82105 10.634C9.62807 10.3362 11.8737 8.4 12.1825 5.92766C13.8947 6.43404 15.0737 7.83404 15.0737 9.44255C15.0737 10.1574 14.8491 10.8723 14.4 11.4681L14.2877 11.617L14.6246 12.8085Z" fill="#36405C"/>
</svg>
