<svg width="32" height="32" viewBox="0 0 32 32" fill="none" xmlns="http://www.w3.org/2000/svg">
<path d="M16.1625 14H6C5.44771 14 5 13.5523 5 13V6C5 5.44772 5.44772 5 6 5H16H26C26.5523 5 27 5.44772 27 6V13.3675" stroke="#00AB1B" stroke-width="1.5" stroke-linecap="round" stroke-linejoin="round"/>
<path d="M18.0853 23.398H11.5H6C5.44772 23.398 5 22.9503 5 22.398V18C5 17.4477 5.44772 17 6 17H18.0853" stroke="#00AB1B" stroke-width="1.5" stroke-linecap="round"/>
<path d="M26.1684 16.5288L26.1684 15.7788L26.1684 16.5288ZM27.3438 16.5288L27.3438 15.7788L27.3438 16.5288ZM21.6599 8.83906L16.1674 15.3678L15.0196 14.4022L20.5121 7.87341L21.6599 8.83906ZM27.5351 15.3678L22.0426 8.83906L23.1904 7.87341L28.6829 14.4022L27.5351 15.3678ZM26.1684 15.7788L27.3438 15.7788L27.3438 17.2788L26.1684 17.2788L26.1684 15.7788ZM24.4184 25.1314L24.4184 17.5288L25.9184 17.5288L25.9184 25.1314L24.4184 25.1314ZM19.5352 25.3814L24.1684 25.3814L24.1684 26.8814L19.5352 26.8814L19.5352 25.3814ZM19.2852 17.5288L19.2852 25.1314L17.7852 25.1314L17.7852 17.5288L19.2852 17.5288ZM16.3587 15.7788L17.5352 15.7788L17.5352 17.2788L16.3587 17.2788L16.3587 15.7788ZM17.7852 17.5288C17.7852 17.3907 17.6732 17.2788 17.5352 17.2788L17.5352 15.7788C18.5017 15.7788 19.2852 16.5623 19.2852 17.5288L17.7852 17.5288ZM19.5352 26.8814C18.5687 26.8814 17.7852 26.0978 17.7852 25.1314L19.2852 25.1314C19.2852 25.2694 19.3971 25.3814 19.5352 25.3814L19.5352 26.8814ZM25.9184 25.1314C25.9184 26.0979 25.1349 26.8814 24.1684 26.8814L24.1684 25.3814C24.3064 25.3814 24.4184 25.2694 24.4184 25.1314L25.9184 25.1314ZM26.1684 17.2788C26.0303 17.2788 25.9184 17.3907 25.9184 17.5288L24.4184 17.5288C24.4184 16.5623 25.2019 15.7788 26.1684 15.7788L26.1684 17.2788ZM28.6829 14.4022C29.6406 15.5405 28.8313 17.2788 27.3438 17.2788L27.3438 15.7788C27.5563 15.7788 27.6719 15.5304 27.5351 15.3678L28.6829 14.4022ZM16.1674 15.3678C16.0306 15.5304 16.1462 15.7788 16.3587 15.7788L16.3587 17.2788C14.8712 17.2788 14.0619 15.5405 15.0196 14.4022L16.1674 15.3678ZM20.5121 7.87341C21.2114 7.0422 22.4911 7.0422 23.1904 7.87341L22.0426 8.83906C21.9427 8.72031 21.7598 8.72031 21.6599 8.83906L20.5121 7.87341Z" fill="#00AB1B"/>
</svg>
