<svg width="80" height="80" viewBox="0 0 80 80" fill="none" xmlns="http://www.w3.org/2000/svg">
<path d="M64.7001 25.4H62.1001C59.8001 25.4 57.9001 27.3 57.9001 29.6V62.7C57.9001 65 59.8001 66.9 62.1001 66.9H64.7001C67.0001 66.9 68.9001 65 68.9001 62.7V29.7C68.9001 27.3 67.0001 25.4 64.7001 25.4ZM66.8001 62.8C66.8001 63.9 65.9001 64.9 64.7001 64.9H62.1001C61.0001 64.9 60.0001 64 60.0001 62.8V29.7C60.0001 28.6 60.9001 27.6 62.1001 27.6H64.7001C65.8001 27.6 66.8001 28.5 66.8001 29.7V62.8Z" fill="#02509F"/>
<path d="M16.6001 32.6C18.0001 32.6 19.4001 31.9 20.1001 30.6L28.0001 33V33.1C28.0001 34.3 28.5001 35.4 29.4001 36.2C30.3001 37 31.5001 37.4 32.7001 37.2C33.9001 37 35.0001 36.4 35.6001 35.4C36.3001 34.4 36.5001 33.2 36.1001 32L44.8001 27C46.2001 28.4 48.3001 28.6 49.9001 27.6C51.5001 26.6 52.2001 24.5 51.6001 22.7L60.6001 16.5C62.2001 17.9 64.6001 17.8 66.1001 16.4C67.7001 15 67.9001 12.6 66.7001 10.9C65.5001 9.2 63.2001 8.6 61.3001 9.5C59.4001 10.5 58.6001 12.7 59.3001 14.6L50.3001 20.8C48.9001 19.6 46.9001 19.5 45.4001 20.5C43.9001 21.5 43.1001 23.3 43.6001 25.1L34.9001 30.1C34.0001 29.2 32.7001 28.8 31.5001 28.9C30.2001 29.1 29.1001 29.8 28.5001 30.8L20.6001 28.4V28.3C20.6001 26.6 19.6001 25.1 18.0001 24.5C16.5001 23.9 14.7001 24.2 13.5001 25.4C12.3001 26.6 12.0001 28.4 12.6001 29.9C13.4001 31.6 14.9001 32.6 16.6001 32.6ZM63.4001 11.3C64.1001 11.3 64.7001 11.7 65.1001 12.3C65.5001 12.9 65.5001 13.6 65.2001 14.2C64.9001 14.8 64.3001 15.2 63.6001 15.3C62.9001 15.4 62.2001 15 61.9001 14.4C61.7001 14.1 61.5001 13.7 61.6001 13.3C61.4001 12.1 62.3001 11.3 63.4001 11.3ZM47.8001 22C48.5001 22 49.1001 22.3 49.4001 22.9C49.6001 23.2 49.7001 23.6 49.7001 24C49.7001 24.9 49.1001 25.7 48.2001 25.9C47.3001 26.1 46.4001 25.7 46.0001 25C45.8001 24.7 45.7001 24.4 45.7001 24C45.8001 22.9 46.7001 22 47.8001 22ZM30.3001 32.5C30.6001 31.7 31.3001 31.1 32.2001 31.1C32.9001 31.1 33.6001 31.5 33.9001 32.1C34.1001 32.4 34.2001 32.7 34.2001 33.1C34.1001 34.2 33.3001 35 32.2001 35C31.1001 35 30.3001 34.2 30.2001 33.1C30.2001 32.9 30.2001 32.7 30.3001 32.5ZM16.6001 26.5C17.4001 26.5 18.1001 27 18.4001 27.7C18.7001 28.4 18.5001 29.3 18.0001 29.9C17.4001 30.5 16.6001 30.6 15.8001 30.3C15.1001 30 14.6001 29.3 14.6001 28.5C14.6001 27.3 15.5001 26.5 16.6001 26.5Z" fill="#02509F"/>
<path d="M17.9001 40.6H15.3001C13.0001 40.6 11.1001 42.5 11.1001 44.8V62.7C11.1001 65 13.0001 66.9 15.3001 66.9H17.9001C20.2001 66.9 22.1001 65 22.1001 62.7V44.8C22.1001 42.5 20.2001 40.6 17.9001 40.6ZM20.0001 62.8C20.0001 63.9 19.1001 64.9 17.9001 64.9H15.3001C14.2001 64.9 13.2001 64 13.2001 62.8V44.8C13.2001 43.7 14.1001 42.7 15.3001 42.7H17.9001C19.0001 42.7 20.0001 43.6 20.0001 44.8V62.8Z" fill="#02509F"/>
<path d="M33.5001 45.1H30.9001C28.6001 45.1 26.7001 47 26.7001 49.3V62.7C26.7001 65 28.6001 66.9 30.9001 66.9H33.5001C35.8001 66.9 37.7001 65 37.7001 62.7V49.4C37.7001 47 35.8001 45.1 33.5001 45.1ZM35.6001 62.8C35.6001 63.9 34.7001 64.9 33.5001 64.9H30.9001C29.8001 64.9 28.8001 64 28.8001 62.8V49.4C28.8001 48.3 29.7001 47.3 30.9001 47.3H33.5001C34.6001 47.3 35.6001 48.2 35.6001 49.4V62.8Z" fill="#02509F"/>
<path d="M49.1001 36.7H46.5001C44.2001 36.7 42.3001 38.6 42.3001 40.9V62.7C42.3001 65 44.2001 66.9 46.5001 66.9H49.1001C51.4001 66.9 53.3001 65 53.3001 62.7V41C53.3001 38.6 51.4001 36.7 49.1001 36.7ZM51.2001 62.8C51.2001 63.9 50.3001 64.9 49.1001 64.9H46.5001C45.4001 64.9 44.4001 64 44.4001 62.8V41C44.4001 39.9 45.3001 38.9 46.5001 38.9H49.1001C50.2001 38.9 51.2001 39.8 51.2001 41V62.8Z" fill="#02509F"/>
</svg>
