<svg width="32" height="32" viewBox="0 0 32 32" fill="none" xmlns="http://www.w3.org/2000/svg">
<path fill-rule="evenodd" clip-rule="evenodd" d="M17.6474 23.2324C16.7228 24.1569 15.2238 24.1569 14.2993 23.2324L6.55816 15.4913C5.06674 13.9998 6.12303 11.4498 8.23221 11.4498H9.06222C9.54131 11.4498 9.92968 11.0614 9.92968 10.5823L9.92968 5.34744C9.92968 4.03993 10.9896 2.97998 12.2971 2.97998H19.6495C20.957 2.97998 22.0169 4.03993 22.0169 5.34744V10.5823C22.0169 11.0614 22.4053 11.4497 22.8844 11.4497H23.7144C25.8236 11.4497 26.8799 13.9998 25.3885 15.4913L17.6474 23.2324ZM15.3599 22.1717C15.6987 22.5105 16.2479 22.5105 16.5867 22.1717L24.3278 14.4306C24.8743 13.8841 24.4872 12.9497 23.7144 12.9497H22.8844C21.5769 12.9497 20.5169 11.8898 20.5169 10.5823V5.34744C20.5169 4.86836 20.1286 4.47998 19.6495 4.47998L12.2971 4.47998C11.8181 4.47998 11.4297 4.86836 11.4297 5.34744L11.4297 10.5823C11.4297 11.8898 10.3697 12.9498 9.06222 12.9498H8.23221C7.45938 12.9498 7.07235 13.8841 7.61882 14.4306L15.3599 22.1717ZM6.13075 28.022C6.13075 27.4697 6.57847 27.022 7.13075 27.022H25.1308C25.683 27.022 26.1308 27.4697 26.1308 28.022C26.1308 28.5743 25.683 29.022 25.1308 29.022H7.13075C6.57847 29.022 6.13075 28.5743 6.13075 28.022ZM17.0594 15.8345C17.3747 15.6071 17.5166 15.3344 17.5166 15.08C17.5166 14.825 17.3747 14.5518 17.0588 14.3244C16.8364 14.1636 16.5406 14.0378 16.1981 13.9777C16.1622 13.9847 16.1254 13.9883 16.0882 13.9883C15.3294 13.9883 14.6203 13.7583 14.0881 13.3588C13.5559 12.9594 13.1724 12.3642 13.1724 11.6586C13.1724 10.9524 13.5559 10.3572 14.0881 9.95776C14.4182 9.71031 14.8167 9.52783 15.2527 9.42495V8.90436C15.2527 8.75829 15.313 8.6182 15.4203 8.51491C15.5276 8.41162 15.6732 8.3536 15.825 8.3536C15.9767 8.3536 16.1223 8.41162 16.2296 8.51491C16.3369 8.6182 16.3972 8.75829 16.3972 8.90436V9.34183C17.4539 9.431 18.4129 9.97402 18.8157 10.8282C18.8477 10.8962 18.8661 10.9699 18.8697 11.045C18.8732 11.1201 18.862 11.1952 18.8366 11.2659C18.8111 11.3367 18.772 11.4017 18.7215 11.4574C18.6709 11.513 18.6099 11.5581 18.5418 11.5902C18.4738 11.6222 18.4002 11.6406 18.3251 11.6442C18.25 11.6478 18.1749 11.6365 18.1041 11.6111C18.0334 11.5857 17.9683 11.5465 17.9127 11.496C17.857 11.4454 17.8119 11.3844 17.7799 11.3164C17.5796 10.8889 16.9546 10.4734 16.0888 10.4734C15.5537 10.4734 15.0907 10.6371 14.7748 10.874C14.4595 11.1103 14.317 11.3936 14.317 11.658C14.317 11.923 14.4595 12.2062 14.7748 12.4432C15.0907 12.6801 15.5531 12.8438 16.0882 12.8438C16.15 12.8438 16.2108 12.8538 16.2683 12.8729C16.8266 12.9497 17.3383 13.1486 17.7461 13.4431C18.2783 13.8276 18.6612 14.4004 18.6612 15.0794C18.6612 15.7585 18.2783 16.3319 17.7455 16.7157C17.4055 16.9613 16.9935 17.1404 16.5424 17.2377C16.5486 17.2714 16.5517 17.3058 16.5517 17.3405V17.9128C16.5517 18.0645 16.4914 18.2101 16.3841 18.3174C16.2768 18.4248 16.1312 18.485 15.9794 18.485C15.8277 18.485 15.6821 18.4248 15.5748 18.3174C15.4675 18.2101 15.4072 18.0645 15.4072 17.9128V17.3405C15.4072 17.3292 15.4075 17.3179 15.4082 17.3066C14.3628 17.2137 13.4171 16.6931 13.0185 15.878C12.9538 15.7459 12.9462 15.5945 12.9975 15.457C13.0488 15.3195 13.1548 15.2073 13.292 15.145C13.4293 15.0827 13.5867 15.0754 13.7296 15.1248C13.8724 15.1742 13.989 15.2761 14.0537 15.4082C14.2552 15.8202 14.8801 16.2201 15.746 16.2201C16.2811 16.2201 16.7435 16.0625 17.0594 15.8345Z" fill="#00AB1B"/>
</svg>
