<svg width="24" height="24" viewBox="0 0 24 24" fill="none" xmlns="http://www.w3.org/2000/svg">
<path d="M2.94214 12.8499H2.04004V18.5105H2.94214V18.0529C3.26557 18.2973 3.64859 18.4505 4.05134 18.4967C4.45409 18.5428 4.86185 18.4802 5.23218 18.3153C5.60252 18.1504 5.9219 17.8893 6.15709 17.5591C6.39229 17.2289 6.5347 16.8417 6.5695 16.4379C6.6043 16.034 6.53023 15.6281 6.355 15.2626C6.17976 14.897 5.90976 14.5851 5.57309 14.3593C5.23642 14.1335 4.84538 14.002 4.44068 13.9786C4.03597 13.9552 3.63238 14.0406 3.2719 14.2261V15.3546C3.48063 15.1118 3.7681 14.9501 4.08402 14.8978C4.39994 14.8455 4.72418 14.906 5.00002 15.0686C5.27585 15.2313 5.48572 15.4857 5.59289 15.7875C5.70005 16.0892 5.69771 16.419 5.58625 16.7192C5.47479 17.0194 5.26132 17.2709 4.9832 17.4296C4.70507 17.5882 4.38 17.6441 4.06486 17.5873C3.74972 17.5305 3.46458 17.3647 3.25934 17.1189C3.05409 16.8732 2.94181 16.563 2.94214 16.2428V12.8499Z" fill="#F05A23"/>
<path d="M10.6686 18.5104H11.5707V16.2425C11.5712 15.7474 11.4098 15.2656 11.1111 14.8707C10.8124 14.4758 10.3928 14.1894 9.91626 14.0551C9.43969 13.9208 8.93227 13.946 8.47134 14.1268C8.01041 14.3077 7.62123 14.6342 7.36313 15.0568C7.10502 15.4793 6.99213 15.9746 7.04167 16.4673C7.0912 16.9599 7.30044 17.4229 7.6375 17.7856C7.97456 18.1483 8.42096 18.3909 8.90867 18.4763C9.39638 18.5618 9.89865 18.4854 10.3389 18.2589V17.1304C10.1302 17.3732 9.84277 17.5349 9.52688 17.5872C9.21098 17.6395 8.88676 17.579 8.61095 17.4164C8.33513 17.2537 8.12528 16.9993 8.01811 16.6976C7.91095 16.3959 7.91329 16.0661 8.02473 15.7659C8.13617 15.4657 8.34961 15.2143 8.62771 15.0556C8.90581 14.8969 9.23086 14.841 9.54598 14.8978C9.8611 14.9546 10.1462 15.1203 10.3515 15.3661C10.5567 15.6118 10.669 15.922 10.6687 16.2421L10.6686 18.5104Z" fill="#F05A23"/>
<path d="M14.4986 13.9749C14.1392 13.9747 13.7849 14.0603 13.4653 14.2247V15.351C13.6472 15.1398 13.8893 14.9895 14.1592 14.92C14.429 14.8506 14.7137 14.8654 14.9749 14.9625C15.2361 15.0596 15.4613 15.2343 15.6202 15.4631C15.7792 15.692 15.8643 15.964 15.8641 16.2426V18.5106H16.7662V16.2426C16.7662 15.6412 16.5273 15.0644 16.102 14.6392C15.6768 14.2139 15.1 13.9749 14.4986 13.9749Z" fill="#F05A23"/>
<path d="M13.1358 14.4302L13.1326 14.4324V13.9749H12.2305V18.5106H13.1326V16.2426C13.1326 16.2212 13.1348 16.2004 13.1358 16.1793V14.4302Z" fill="#F05A23"/>
<path d="M18.3376 15.7783H18.3346V12.8499H17.4326V18.5105H18.3346V16.6804H18.3376V15.7783Z" fill="#F05A23"/>
<path d="M21.9534 13.9749H20.671L18.8675 15.7783H18.6675V16.6804H18.8407L20.6709 18.5106H21.9534L19.6856 16.2426L21.9534 13.9749Z" fill="#F05A23"/>
<path d="M11.7036 7.24976L9.69399 12.1785H8.20576L11.0493 5.49643H12.3951L11.7036 7.24976Z" fill="#F05A23"/>
<path d="M2.04004 12.1785H3.50324V5.49643H2.04004V12.1785Z" fill="#F05A23"/>
<path d="M3.892 8.88682H6.37529C6.65208 8.88682 6.91753 8.77686 7.11325 8.58114C7.30897 8.38543 7.41892 8.11997 7.41892 7.84318C7.41892 7.56639 7.30897 7.30094 7.11325 7.10522C6.91753 6.9095 6.65208 6.79955 6.37529 6.79955H3.892V5.49643H6.37529C6.68902 5.49639 6.99958 5.55926 7.28859 5.68134C7.5776 5.80341 7.83919 5.98221 8.05789 6.20715C8.27659 6.43209 8.44796 6.69861 8.56186 6.99093C8.67575 7.28326 8.72987 7.59546 8.721 7.90907C8.68602 9.18734 7.60516 10.1899 6.32637 10.1899H3.892V8.88682Z" fill="#F05A23"/>
<path d="M12.6173 6.02028L12.219 7.02954L11.916 7.77309L13.7123 12.1786H15.2381L12.6173 6.02028Z" fill="#F05A23"/>
<path d="M18.6209 12.1676C17.8507 12.1671 17.1044 11.9004 16.5083 11.4127C15.9122 10.925 15.5031 10.2462 15.3501 9.49138C15.1972 8.73654 15.3099 7.95204 15.6692 7.27078C16.0284 6.58952 16.6121 6.05339 17.3214 5.75321C18.1372 5.40858 19.0565 5.40214 19.8771 5.73532C20.6976 6.06849 21.3522 6.71398 21.6969 7.52979C22.0415 8.3456 22.0479 9.2649 21.7148 10.0855C21.3816 10.906 20.7361 11.5606 19.9203 11.9052C19.5092 12.0792 19.0673 12.1684 18.6209 12.1676ZM18.6209 6.81875C18.2233 6.81875 17.8346 6.93666 17.5039 7.15757C17.1733 7.37848 16.9156 7.69247 16.7635 8.05983C16.6113 8.4272 16.5715 8.83143 16.649 9.22142C16.7266 9.61141 16.9181 9.96965 17.1992 10.2508C17.4804 10.532 17.8386 10.7235 18.2286 10.8011C18.6186 10.8786 19.0228 10.8388 19.3902 10.6867C19.7576 10.5345 20.0716 10.2769 20.2925 9.94625C20.5134 9.61564 20.6313 9.22695 20.6314 8.82932C20.6308 8.29628 20.4188 7.78524 20.0419 7.40832C19.6649 7.0314 19.1539 6.81937 18.6209 6.81875Z" fill="#F05A23"/>
</svg>
