<svg width="80" height="80" viewBox="0 0 80 80" fill="none" xmlns="http://www.w3.org/2000/svg">
<g clip-path="url(#clip0_29137_70399)">
<circle cx="40" cy="40" r="39.5" fill="#4D4D4D" stroke="#4D4D4D"/>
<path d="M47.7705 68.3169H36.8316C35.2323 68.3169 33.6984 67.6809 32.5675 66.5486C31.4366 65.4164 30.8013 63.8808 30.8013 62.2796C30.8013 60.6784 31.4366 59.1427 32.5675 58.0105C33.6984 56.8783 35.2323 56.2422 36.8316 56.2422H47.7705C48.5624 56.2422 49.3465 56.3983 50.0782 56.7018C50.8098 57.0052 51.4746 57.4499 52.0346 58.0105C52.5945 58.5711 53.0387 59.2367 53.3418 59.9692C53.6448 60.7016 53.8008 61.4867 53.8008 62.2796C53.8008 63.0724 53.6448 63.8575 53.3418 64.59C53.0387 65.3225 52.5945 65.988 52.0346 66.5486C51.4746 67.1093 50.8098 67.554 50.0782 67.8574C49.3465 68.1608 48.5624 68.3169 47.7705 68.3169Z" fill="#C5C5C4"/>
<path d="M34.8244 51.2104C34.8242 51.6937 34.6807 52.1661 34.412 52.5678C34.1434 52.9695 33.7616 53.2825 33.3151 53.4673C32.8686 53.6521 32.3772 53.7003 31.9033 53.6059C31.4293 53.5115 30.994 53.2787 30.6524 52.9369C30.3107 52.5951 30.0781 52.1597 29.9839 51.6857C29.8897 51.2117 29.9381 50.7204 30.1231 50.2739C30.3081 49.8274 30.6213 49.4459 31.0232 49.1774C31.425 48.9089 31.8974 48.7656 32.3807 48.7656C33.0286 48.7656 33.65 49.0229 34.1083 49.481C34.5665 49.939 34.8241 50.5603 34.8244 51.2082" fill="#C5C5C4"/>
<path d="M54.6646 51.2104C54.6644 51.6938 54.5124 52.1662 54.2279 52.5679C53.9434 52.9696 53.5392 53.2827 53.0663 53.4674C52.5934 53.6522 52.0731 53.7004 51.5712 53.6059C51.0694 53.5113 50.6085 53.2784 50.2468 52.9365C49.8851 52.5946 49.6388 52.159 49.5392 51.685C49.4396 51.2109 49.4911 50.7196 49.6872 50.2731C49.8832 49.8267 50.215 49.4452 50.6407 49.1768C51.0663 48.9085 51.5666 48.7654 52.0784 48.7656C52.7643 48.7656 53.4221 49.023 53.9071 49.481C54.3922 49.9391 54.6646 50.5604 54.6646 51.2082" fill="#C5C5C4"/>
<path d="M21.4167 32.0938C9.47019 45.7806 22.5737 56.6469 50.9248 36.6055L21.4167 32.0938Z" fill="#C5C5C4"/>
<path fill-rule="evenodd" clip-rule="evenodd" d="M42.1277 11.6856C26.7292 11.3525 20.5661 25.2233 20.4762 29.4622C20.4397 31.1416 20.2393 31.8444 22.0272 33.7538C23.8151 35.6633 29.3837 36.9591 41.5003 37.2258C53.6168 37.4926 59.3973 36.4337 61.2649 34.6032C63.1325 32.7728 62.9628 32.0619 62.9992 30.3814C63.0892 26.1425 57.5263 12.0233 42.1277 11.6856ZM50.4066 33.0109C49.1417 33.0128 47.9031 32.6469 46.8403 31.9574C45.7774 31.2679 44.9355 30.2841 44.4161 29.1246C43.8967 27.9652 43.7219 26.6795 43.9128 25.4224C44.1036 24.1654 44.652 22.9906 45.4918 22.0397C46.3316 21.0887 47.4271 20.4022 48.6462 20.0628C49.8653 19.7233 51.156 19.7455 52.3628 20.1266C53.5697 20.5077 54.6411 21.2315 55.4482 22.2107C56.2552 23.1899 56.7633 24.3828 56.9113 25.6457H52.6443C52.4609 25.1053 52.0907 24.649 51.6011 24.3598C51.1114 24.0705 50.5347 23.9675 49.9758 24.0694C49.417 24.1714 48.9131 24.4715 48.5557 24.9152C48.1983 25.359 48.0112 25.9169 48.0283 26.4876C48.0455 27.0583 48.2658 27.6039 48.6491 28.0251C49.0325 28.4464 49.5535 28.7154 50.1175 28.7832C50.6814 28.8511 51.2509 28.7132 51.7223 28.3948C52.1937 28.0764 52.5358 27.5985 52.6865 27.048H56.9273C56.7722 28.679 56.0184 30.1936 54.8129 31.2964C53.6074 32.3992 52.0366 33.0112 50.4066 33.0132" fill="#C5C5C4"/>
</g>
<defs>
<clipPath id="clip0_29137_70399">
<rect width="80" height="80" fill="white"/>
</clipPath>
</defs>
</svg>
