<svg width="80" height="80" viewBox="0 0 80 80" fill="none" xmlns="http://www.w3.org/2000/svg">
<path d="M65.4004 24.3H43.5004V11.7C43.5004 11.1 43.0004 10.5 42.3004 10.5H14.6004C14.0004 10.5 13.4004 11 13.4004 11.7V68.4C13.4004 69 13.9004 69.6 14.6004 69.6H65.3004C65.9004 69.6 66.5004 69.1 66.5004 68.4V25.5C66.5004 24.8 66.0004 24.3 65.4004 24.3ZM31.9004 67.2H25.0004V58H31.9004V67.2ZM41.2004 67.2H34.3004V56.8C34.3004 56.2 33.8004 55.6 33.1004 55.6H23.9004C23.3004 55.6 22.7004 56.1 22.7004 56.8V67.2H15.8004V12.8H41.2004V67.2ZM64.2004 67.2H43.5004V58H64.2004V67.2ZM64.2004 55.7H43.5004V26.7H64.2004V55.7Z" fill="#A07A4B"/>
<path d="M27.3004 19.7H29.6004C30.2004 19.7 30.8004 19.2 30.8004 18.5V16.2C30.8004 15.6 30.3004 15 29.6004 15H27.3004C26.7004 15 26.1004 15.5 26.1004 16.2V18.5C26.2004 19.2 26.7004 19.7 27.3004 19.7Z" fill="#A07A4B"/>
<path d="M27.3004 27.8H29.6004C30.2004 27.8 30.8004 27.3 30.8004 26.6V24.3C30.8004 23.7 30.3004 23.1 29.6004 23.1H27.3004C26.7004 23.1 26.1004 23.6 26.1004 24.3V26.6C26.2004 27.3 26.7004 27.8 27.3004 27.8Z" fill="#A07A4B"/>
<path d="M27.3004 35.9H29.6004C30.2004 35.9 30.8004 35.4 30.8004 34.7V32.4C30.8004 31.8 30.3004 31.2 29.6004 31.2H27.3004C26.7004 31.2 26.1004 31.7 26.1004 32.4V34.7C26.2004 35.3 26.7004 35.9 27.3004 35.9Z" fill="#A07A4B"/>
<path d="M27.3004 43.9H29.6004C30.2004 43.9 30.8004 43.4 30.8004 42.7V40.4C30.8004 39.8 30.3004 39.2 29.6004 39.2H27.3004C26.7004 39.2 26.1004 39.7 26.1004 40.4V42.7C26.2004 43.4 26.7004 43.9 27.3004 43.9Z" fill="#A07A4B"/>
<path d="M27.3004 52H29.6004C30.2004 52 30.8004 51.5 30.8004 50.8V48.5C30.8004 47.9 30.3004 47.3 29.6004 47.3H27.3004C26.7004 47.3 26.1004 47.8 26.1004 48.5V50.8C26.2004 51.5 26.7004 52 27.3004 52Z" fill="#A07A4B"/>
<path d="M19.3004 19.7H21.6004C22.2004 19.7 22.8004 19.2 22.8004 18.5V16.2C22.8004 15.6 22.3004 15 21.6004 15H19.3004C18.7004 15 18.1004 15.5 18.1004 16.2V18.5C18.1004 19.2 18.6004 19.7 19.3004 19.7Z" fill="#A07A4B"/>
<path d="M19.3004 27.8H21.6004C22.2004 27.8 22.8004 27.3 22.8004 26.6V24.3C22.8004 23.7 22.3004 23.1 21.6004 23.1H19.3004C18.7004 23.1 18.1004 23.6 18.1004 24.3V26.6C18.1004 27.3 18.6004 27.8 19.3004 27.8Z" fill="#A07A4B"/>
<path d="M19.3004 35.9H21.6004C22.2004 35.9 22.8004 35.4 22.8004 34.7V32.4C22.8004 31.8 22.3004 31.2 21.6004 31.2H19.3004C18.7004 31.2 18.1004 31.7 18.1004 32.4V34.7C18.1004 35.3 18.6004 35.9 19.3004 35.9Z" fill="#A07A4B"/>
<path d="M19.3004 43.9H21.6004C22.2004 43.9 22.8004 43.4 22.8004 42.7V40.4C22.8004 39.8 22.3004 39.2 21.6004 39.2H19.3004C18.7004 39.2 18.1004 39.7 18.1004 40.4V42.7C18.1004 43.4 18.6004 43.9 19.3004 43.9Z" fill="#A07A4B"/>
<path d="M19.3004 52H21.6004C22.2004 52 22.8004 51.5 22.8004 50.8V48.5C22.8004 47.9 22.3004 47.3 21.6004 47.3H19.3004C18.7004 47.3 18.1004 47.8 18.1004 48.5V50.8C18.1004 51.5 18.6004 52 19.3004 52Z" fill="#A07A4B"/>
<path d="M35.4004 19.7H37.7004C38.3004 19.7 38.9004 19.2 38.9004 18.5V16.2C38.9004 15.6 38.4004 15 37.7004 15H35.4004C34.8004 15 34.2004 15.5 34.2004 16.2V18.5C34.2004 19.2 34.8004 19.7 35.4004 19.7Z" fill="#A07A4B"/>
<path d="M35.4004 27.8H37.7004C38.3004 27.8 38.9004 27.3 38.9004 26.6V24.3C38.9004 23.7 38.4004 23.1 37.7004 23.1H35.4004C34.8004 23.1 34.2004 23.6 34.2004 24.3V26.6C34.2004 27.3 34.8004 27.8 35.4004 27.8Z" fill="#A07A4B"/>
<path d="M35.4004 35.9H37.7004C38.3004 35.9 38.9004 35.4 38.9004 34.7V32.4C38.9004 31.8 38.4004 31.2 37.7004 31.2H35.4004C34.8004 31.2 34.2004 31.7 34.2004 32.4V34.7C34.2004 35.3 34.8004 35.9 35.4004 35.9Z" fill="#A07A4B"/>
<path d="M35.4004 43.9H37.7004C38.3004 43.9 38.9004 43.4 38.9004 42.7V40.4C38.9004 39.8 38.4004 39.2 37.7004 39.2H35.4004C34.8004 39.2 34.2004 39.7 34.2004 40.4V42.7C34.2004 43.4 34.8004 43.9 35.4004 43.9Z" fill="#A07A4B"/>
<path d="M35.4004 52H37.7004C38.3004 52 38.9004 51.5 38.9004 50.8V48.5C38.9004 47.9 38.4004 47.3 37.7004 47.3H35.4004C34.8004 47.3 34.2004 47.8 34.2004 48.5V50.8C34.2004 51.5 34.8004 52 35.4004 52Z" fill="#A07A4B"/>
<path d="M56.7004 35.9H59.0004C59.6004 35.9 60.2004 35.4 60.2004 34.7V32.4C60.2004 31.8 59.7004 31.2 59.0004 31.2H56.7004C56.1004 31.2 55.5004 31.7 55.5004 32.4V34.7C55.6004 35.3 56.1004 35.9 56.7004 35.9Z" fill="#A07A4B"/>
<path d="M56.7004 43.9H59.0004C59.6004 43.9 60.2004 43.4 60.2004 42.7V40.4C60.2004 39.8 59.7004 39.2 59.0004 39.2H56.7004C56.1004 39.2 55.5004 39.7 55.5004 40.4V42.7C55.6004 43.4 56.1004 43.9 56.7004 43.9Z" fill="#A07A4B"/>
<path d="M56.7004 52H59.0004C59.6004 52 60.2004 51.5 60.2004 50.8V48.5C60.2004 47.9 59.7004 47.3 59.0004 47.3H56.7004C56.1004 47.3 55.5004 47.8 55.5004 48.5V50.8C55.6004 51.5 56.1004 52 56.7004 52Z" fill="#A07A4B"/>
<path d="M48.6004 35.9H50.9004C51.5004 35.9 52.1004 35.4 52.1004 34.7V32.4C52.1004 31.8 51.6004 31.2 50.9004 31.2H48.6004C48.0004 31.2 47.4004 31.7 47.4004 32.4V34.7C47.5004 35.3 48.0004 35.9 48.6004 35.9Z" fill="#A07A4B"/>
<path d="M48.6004 43.9H50.9004C51.5004 43.9 52.1004 43.4 52.1004 42.7V40.4C52.1004 39.8 51.6004 39.2 50.9004 39.2H48.6004C48.0004 39.2 47.4004 39.7 47.4004 40.4V42.7C47.5004 43.4 48.0004 43.9 48.6004 43.9Z" fill="#A07A4B"/>
<path d="M48.6004 52H50.9004C51.5004 52 52.1004 51.5 52.1004 50.8V48.5C52.1004 47.9 51.6004 47.3 50.9004 47.3H48.6004C48.0004 47.3 47.4004 47.8 47.4004 48.5V50.8C47.5004 51.5 48.0004 52 48.6004 52Z" fill="#A07A4B"/>
</svg>
