<svg width="32" height="33" viewBox="0 0 32 33" fill="none" xmlns="http://www.w3.org/2000/svg">
<path d="M25.6557 17.5015C25.6557 19.6005 24.9716 21.6424 23.707 23.3177C22.4425 24.993 20.6664 26.2106 18.6478 26.7859C16.6292 27.3613 14.478 27.2631 12.5202 26.5062C10.5624 25.7493 8.90467 24.375 7.79803 22.5914C6.6914 20.8078 6.1962 18.7122 6.38745 16.6219C6.5787 14.5316 7.44598 12.5606 8.85792 11.0075C10.2699 9.45432 12.1495 8.40365 14.2121 8.01462C16.2748 7.62558 18.408 7.91938 20.2887 8.85151L16.0015 17.5015H25.6557Z" stroke="#3FB5BD" stroke-width="1.5" stroke-linecap="round" stroke-linejoin="round"/>
<path d="M21.7826 5.8569C23.9501 6.93343 25.7742 8.59366 27.0493 10.6507C28.3244 12.7077 29 15.0799 29 17.5L16 17.5L21.7826 5.8569Z" stroke="#3FB5BD" stroke-width="1.5" stroke-linecap="round" stroke-linejoin="round"/>
<path d="M15.9851 17.4778L21.4666 25.0578" stroke="#3FB5BD" stroke-width="1.5" stroke-linecap="round" stroke-linejoin="round"/>
<path fill-rule="evenodd" clip-rule="evenodd" d="M22.2623 11.1589C22.0715 11.3019 21.9853 11.4733 21.9853 11.6333C21.9853 11.7936 22.0715 11.965 22.2623 12.1084C22.4534 12.2518 22.7332 12.3508 23.057 12.3508C23.1488 12.3508 23.2369 12.3873 23.3018 12.4522C23.3668 12.5171 23.4032 12.6052 23.4032 12.6971C23.4032 12.7889 23.3668 12.877 23.3018 12.9419C23.2369 13.0068 23.1488 13.0433 23.057 13.0433C22.5978 13.0433 22.1688 12.9041 21.8468 12.6624C21.5247 12.4207 21.2927 12.0606 21.2927 11.6337C21.2927 11.2064 21.5247 10.8462 21.8468 10.6045C22.1688 10.3632 22.5982 10.224 23.057 10.224C23.7679 10.224 24.44 10.5644 24.7073 11.1312C24.7267 11.1724 24.7378 11.2169 24.7399 11.2624C24.7421 11.3078 24.7353 11.3533 24.7199 11.3961C24.7045 11.4389 24.6809 11.4782 24.6503 11.5119C24.6197 11.5456 24.5827 11.5729 24.5416 11.5923C24.5004 11.6117 24.4559 11.6228 24.4104 11.6249C24.365 11.6271 24.3196 11.6203 24.2768 11.6049C24.2339 11.5895 24.1946 11.5659 24.1609 11.5353C24.1272 11.5047 24.0999 11.4677 24.0805 11.4266C23.9593 11.1679 23.5812 10.9165 23.0573 10.9165C22.7335 10.9165 22.4534 11.0156 22.2623 11.1589Z" fill="#3FB5BD"/>
<path fill-rule="evenodd" clip-rule="evenodd" d="M23.6446 14.1604C23.8354 14.0228 23.9213 13.8578 23.9213 13.7039C23.9213 13.5496 23.8354 13.3843 23.6442 13.2466C23.4534 13.1087 23.1733 13.0134 22.8499 13.0134C22.7581 13.0134 22.67 12.9783 22.605 12.9158C22.5401 12.8533 22.5036 12.7685 22.5036 12.6801C22.5036 12.5917 22.5401 12.507 22.605 12.4445C22.67 12.382 22.7581 12.3469 22.8499 12.3469C23.3091 12.3469 23.7381 12.4808 24.0601 12.7134C24.3821 12.9461 24.6138 13.2926 24.6138 13.7035C24.6138 14.1144 24.3821 14.4613 24.0598 14.6936C23.7377 14.9262 23.3091 15.0602 22.8499 15.0602C22.139 15.0602 21.4666 14.7326 21.1996 14.1867C21.1604 14.1068 21.1558 14.0152 21.1869 13.932C21.2179 13.8488 21.282 13.7809 21.3651 13.7432C21.4482 13.7055 21.5434 13.7011 21.6298 13.731C21.7162 13.7608 21.7868 13.8225 21.826 13.9025C21.9479 14.1517 22.326 14.3937 22.8499 14.3937C23.1737 14.3937 23.4534 14.2984 23.6446 14.1604ZM22.8977 9.63391C22.9895 9.63391 23.0776 9.66902 23.1425 9.73152C23.2075 9.79401 23.244 9.87878 23.244 9.96716V10.3004C23.244 10.3888 23.2075 10.4736 23.1425 10.536C23.0776 10.5985 22.9895 10.6337 22.8977 10.6337C22.8058 10.6337 22.7178 10.5985 22.6528 10.536C22.5879 10.4736 22.5514 10.3888 22.5514 10.3004V9.96716C22.5514 9.87878 22.5879 9.79401 22.6528 9.73152C22.7178 9.66902 22.8058 9.63391 22.8977 9.63391Z" fill="#3FB5BD"/>
<path fill-rule="evenodd" clip-rule="evenodd" d="M22.9912 14.7254C23.083 14.7254 23.1711 14.7618 23.236 14.8268C23.301 14.8917 23.3374 14.9798 23.3374 15.0716V15.4179C23.3374 15.5097 23.301 15.5978 23.236 15.6627C23.1711 15.7277 23.083 15.7642 22.9912 15.7642C22.8993 15.7642 22.8113 15.7277 22.7463 15.6627C22.6814 15.5978 22.6449 15.5097 22.6449 15.4179V15.0716C22.6449 14.9798 22.6814 14.8917 22.7463 14.8268C22.8113 14.7618 22.8993 14.7254 22.9912 14.7254Z" fill="#3FB5BD"/>
<path fill-rule="evenodd" clip-rule="evenodd" d="M22.2623 11.1589C22.0715 11.3019 21.9853 11.4733 21.9853 11.6333C21.9853 11.7936 22.0715 11.965 22.2623 12.1084C22.4534 12.2518 22.7332 12.3508 23.057 12.3508C23.1488 12.3508 23.2369 12.3873 23.3018 12.4522C23.3668 12.5171 23.4032 12.6052 23.4032 12.6971C23.4032 12.7889 23.3668 12.877 23.3018 12.9419C23.2369 13.0068 23.1488 13.0433 23.057 13.0433C22.5978 13.0433 22.1688 12.9041 21.8468 12.6624C21.5247 12.4207 21.2927 12.0606 21.2927 11.6337C21.2927 11.2064 21.5247 10.8462 21.8468 10.6045C22.1688 10.3632 22.5982 10.224 23.057 10.224C23.7679 10.224 24.44 10.5644 24.7073 11.1312C24.7267 11.1724 24.7378 11.2169 24.7399 11.2624C24.7421 11.3078 24.7353 11.3533 24.7199 11.3961C24.7045 11.4389 24.6809 11.4782 24.6503 11.5119C24.6197 11.5456 24.5827 11.5729 24.5416 11.5923C24.5004 11.6117 24.4559 11.6228 24.4104 11.6249C24.365 11.6271 24.3196 11.6203 24.2768 11.6049C24.2339 11.5895 24.1946 11.5659 24.1609 11.5353C24.1272 11.5047 24.0999 11.4677 24.0805 11.4266C23.9593 11.1679 23.5812 10.9165 23.0573 10.9165C22.7335 10.9165 22.4534 11.0156 22.2623 11.1589Z" stroke="#3FB5BD" stroke-width="0.5"/>
<path fill-rule="evenodd" clip-rule="evenodd" d="M23.6446 14.1604C23.8354 14.0228 23.9213 13.8578 23.9213 13.7039C23.9213 13.5496 23.8354 13.3843 23.6442 13.2466C23.4534 13.1087 23.1733 13.0134 22.8499 13.0134C22.7581 13.0134 22.67 12.9783 22.605 12.9158C22.5401 12.8533 22.5036 12.7685 22.5036 12.6801C22.5036 12.5917 22.5401 12.507 22.605 12.4445C22.67 12.382 22.7581 12.3469 22.8499 12.3469C23.3091 12.3469 23.7381 12.4808 24.0601 12.7134C24.3821 12.9461 24.6138 13.2926 24.6138 13.7035C24.6138 14.1144 24.3821 14.4613 24.0598 14.6936C23.7377 14.9262 23.3091 15.0602 22.8499 15.0602C22.139 15.0602 21.4666 14.7326 21.1996 14.1867C21.1604 14.1068 21.1558 14.0152 21.1869 13.932C21.2179 13.8488 21.282 13.7809 21.3651 13.7432C21.4482 13.7055 21.5434 13.7011 21.6298 13.731C21.7162 13.7608 21.7868 13.8225 21.826 13.9025C21.9479 14.1517 22.326 14.3937 22.8499 14.3937C23.1737 14.3937 23.4534 14.2984 23.6446 14.1604ZM22.8977 9.63391C22.9895 9.63391 23.0776 9.66902 23.1425 9.73152C23.2075 9.79401 23.244 9.87878 23.244 9.96716V10.3004C23.244 10.3888 23.2075 10.4736 23.1425 10.536C23.0776 10.5985 22.9895 10.6337 22.8977 10.6337C22.8058 10.6337 22.7178 10.5985 22.6528 10.536C22.5879 10.4736 22.5514 10.3888 22.5514 10.3004V9.96716C22.5514 9.87878 22.5879 9.79401 22.6528 9.73152C22.7178 9.66902 22.8058 9.63391 22.8977 9.63391Z" stroke="#3FB5BD" stroke-width="0.5"/>
<path fill-rule="evenodd" clip-rule="evenodd" d="M22.9912 14.7254C23.083 14.7254 23.1711 14.7618 23.236 14.8268C23.301 14.8917 23.3374 14.9798 23.3374 15.0716V15.4179C23.3374 15.5097 23.301 15.5978 23.236 15.6627C23.1711 15.7277 23.083 15.7642 22.9912 15.7642C22.8993 15.7642 22.8113 15.7277 22.7463 15.6627C22.6814 15.5978 22.6449 15.5097 22.6449 15.4179V15.0716C22.6449 14.9798 22.6814 14.8917 22.7463 14.8268C22.8113 14.7618 22.8993 14.7254 22.9912 14.7254Z" stroke="#3FB5BD" stroke-width="0.5"/>
</svg>
