<svg width="32" height="32" viewBox="0 0 32 32" fill="none" xmlns="http://www.w3.org/2000/svg">
<circle cx="16" cy="16.0779" r="11.4726" stroke="#6200EE" stroke-width="1.5" stroke-linejoin="round"/>
<path d="M23.3322 24.6544L25.0123 26.3345" stroke="#6200EE" stroke-width="1.5" stroke-linejoin="round"/>
<path d="M25.5471 28.2576C25.9376 28.6481 26.5708 28.6481 26.9613 28.2576C27.3518 27.8671 27.3518 27.2339 26.9613 26.8434L25.5471 28.2576ZM23.867 26.5775L25.5471 28.2576L26.9613 26.8434L25.2812 25.1633L23.867 26.5775Z" fill="#6200EE"/>
<path d="M11.4004 20.8547V22.3234" stroke="#6200EE" stroke-width="1.5" stroke-linecap="round" stroke-linejoin="round"/>
<path d="M7.02844 14.3281L10.8077 14.3281" stroke="#6200EE" stroke-width="1.5" stroke-linecap="round" stroke-linejoin="round"/>
<path d="M8.41016 21.5883L9.33459 21.5883" stroke="#6200EE" stroke-width="1.5" stroke-linecap="round" stroke-linejoin="round"/>
<path d="M13.4189 21.5883L23.6565 21.5883" stroke="#6200EE" stroke-width="1.5" stroke-linecap="round" stroke-linejoin="round"/>
<path d="M23.3965 14.3281L25.2034 14.3281" stroke="#6200EE" stroke-width="1.5" stroke-linecap="round" stroke-linejoin="round"/>
<circle cx="17.4086" cy="13.4564" r="5.85973" stroke="#6200EE" stroke-width="1.5" stroke-linecap="round" stroke-linejoin="round"/>
<path d="M16.6429 11.7001L16.6429 11.7001C16.4344 11.8564 16.3525 12.0335 16.3525 12.186C16.3525 12.3389 16.4345 12.516 16.643 12.6727C16.8521 12.8295 17.1643 12.9418 17.5308 12.9418C17.583 12.9418 17.6343 12.9497 17.6832 12.9649C18.0977 13.0233 18.4794 13.1719 18.7859 13.3933C19.1886 13.6841 19.4878 14.1248 19.4878 14.6553C19.4878 15.1858 19.1886 15.6269 18.7855 15.9174C18.55 16.0875 18.2702 16.2146 17.9654 16.2908V16.7002C17.9654 16.8363 17.9113 16.9668 17.8151 17.063C17.7189 17.1592 17.5884 17.2133 17.4523 17.2133C17.3163 17.2133 17.1858 17.1592 17.0896 17.063C16.9934 16.9668 16.9393 16.8363 16.9393 16.7002V16.3526C16.196 16.2618 15.5208 15.8794 15.2255 15.2757C15.2255 15.2757 15.2255 15.2757 15.2255 15.2756L15.3153 15.2317C15.2686 15.1364 15.2632 15.027 15.3002 14.9278C15.3372 14.8286 15.4137 14.7476 15.5128 14.7026C15.6118 14.6577 15.7254 14.6524 15.8285 14.6881C15.9316 14.7237 16.0158 14.7973 16.0625 14.8926L16.6429 11.7001ZM16.6429 11.7001C16.852 11.5433 17.1646 11.431 17.5312 11.431C18.1288 11.431 18.5374 11.7177 18.6612 11.9818L18.6613 11.982C18.69 12.043 18.7305 12.0977 18.7804 12.143C18.8302 12.1884 18.8885 12.2234 18.952 12.2462C19.0154 12.269 19.0827 12.2791 19.15 12.2759C19.2173 12.2727 19.2834 12.2562 19.3443 12.2275C19.4053 12.1988 19.46 12.1583 19.5053 12.1084C19.5507 12.0586 19.5857 12.0002 19.6085 11.9368C19.6313 11.8734 19.6414 11.8061 19.6382 11.7388C19.635 11.6714 19.6185 11.6054 19.5898 11.5445L19.5898 11.5444C19.292 10.913 18.6071 10.5134 17.8539 10.424M16.6429 11.7001L17.8539 10.424M17.8539 10.424V10.1986C17.8539 10.0654 17.7988 9.93844 17.7022 9.84546C17.6058 9.75261 17.4757 9.70109 17.3408 9.70109C17.206 9.70109 17.0759 9.75261 16.9794 9.84546C16.8828 9.93844 16.8278 10.0654 16.8278 10.1986V10.4964C16.5305 10.5762 16.2576 10.7063 16.0273 10.8788L16.0273 10.8789C15.6244 11.1812 15.3264 11.638 15.3264 12.1864C15.3264 12.7344 15.6244 13.1911 16.0273 13.4935C16.4303 13.796 16.9636 13.9678 17.5308 13.9678C17.5575 13.9678 17.5839 13.9658 17.6099 13.9617L17.8539 10.424Z" fill="#6200EE" stroke="#6200EE" stroke-width="0.2"/>
</svg>
