<svg width="33" height="32" viewBox="0 0 33 32" fill="none" xmlns="http://www.w3.org/2000/svg">
<circle cx="16.125" cy="16.0779" r="11.4726" stroke="#8B3BFF" stroke-width="1.5" stroke-linejoin="round"/>
<path d="M23.4572 24.6544L25.1373 26.3345" stroke="#8B3BFF" stroke-width="1.5" stroke-linejoin="round"/>
<path d="M25.6721 28.2576C26.0626 28.6481 26.6958 28.6481 27.0863 28.2576C27.4769 27.8671 27.4769 27.2339 27.0863 26.8434L25.6721 28.2576ZM23.992 26.5775L25.6721 28.2576L27.0863 26.8434L25.4062 25.1633L23.992 26.5775Z" fill="#8B3BFF"/>
<path d="M11.5254 20.8547V22.3234" stroke="#8B3BFF" stroke-width="1.5" stroke-linecap="round" stroke-linejoin="round"/>
<path d="M7.15344 14.3281L10.9327 14.3281" stroke="#8B3BFF" stroke-width="1.5" stroke-linecap="round" stroke-linejoin="round"/>
<path d="M8.53516 21.5883L9.45959 21.5883" stroke="#8B3BFF" stroke-width="1.5" stroke-linecap="round" stroke-linejoin="round"/>
<path d="M13.5439 21.5883L23.7815 21.5883" stroke="#8B3BFF" stroke-width="1.5" stroke-linecap="round" stroke-linejoin="round"/>
<path d="M23.5215 14.3281L25.3284 14.3281" stroke="#8B3BFF" stroke-width="1.5" stroke-linecap="round" stroke-linejoin="round"/>
<circle cx="17.5336" cy="13.4564" r="5.85973" stroke="#8B3BFF" stroke-width="1.5" stroke-linecap="round" stroke-linejoin="round"/>
<path d="M16.7679 11.7001L16.7679 11.7002C16.5595 11.8564 16.4775 12.0335 16.4775 12.186C16.4775 12.3389 16.5595 12.516 16.768 12.6727C16.9772 12.8295 17.2893 12.9418 17.6559 12.9418C17.708 12.9418 17.7593 12.9497 17.8082 12.9649C18.2227 13.0233 18.6044 13.1719 18.911 13.3933C19.3136 13.6841 19.6128 14.1249 19.6128 14.6553C19.6128 15.1858 19.3136 15.627 18.9105 15.9175C18.6749 16.0875 18.3952 16.2146 18.0904 16.2909V16.7002C18.0904 16.8363 18.0363 16.9668 17.9401 17.063C17.8439 17.1592 17.7134 17.2133 17.5774 17.2133C17.4413 17.2133 17.3108 17.1592 17.2146 17.063C17.1184 16.9668 17.0643 16.8363 17.0643 16.7002V16.3526C16.321 16.2618 15.6459 15.8795 15.3506 15.2757L16.7679 11.7001ZM16.7679 11.7001C16.9771 11.5433 17.2897 11.431 17.6563 11.431C18.2538 11.431 18.6625 11.7177 18.7862 11.9818L18.7863 11.982C18.8151 12.043 18.8555 12.0977 18.9054 12.1431C18.9553 12.1884 19.0136 12.2234 19.077 12.2462C19.1404 12.269 19.2077 12.2791 19.275 12.2759C19.3424 12.2727 19.4084 12.2562 19.4694 12.2275C19.5303 12.1988 19.585 12.1583 19.6304 12.1084C19.6757 12.0586 19.7108 12.0002 19.7336 11.9368C19.7563 11.8734 19.7664 11.8061 19.7632 11.7388C19.76 11.6715 19.7436 11.6054 19.7148 11.5445L19.7148 11.5444C19.417 10.913 18.7321 10.5134 17.9789 10.424M16.7679 11.7001L17.9789 10.424M17.9789 10.424V10.1986C17.9789 10.0654 17.9239 9.93845 17.8273 9.84547C17.7308 9.75262 17.6007 9.7011 17.4659 9.7011C17.331 9.7011 17.2009 9.75262 17.1045 9.84547C17.0079 9.93845 16.9528 10.0654 16.9528 10.1986V10.4964C16.6555 10.5762 16.3826 10.7063 16.1523 10.8789L16.1523 10.8789C15.7494 11.1812 15.4515 11.638 15.4515 12.1864C15.4515 12.7344 15.7495 13.1912 16.1523 13.4935C16.5553 13.796 17.0886 13.9679 17.6559 13.9679C17.6825 13.9679 17.7089 13.9658 17.7349 13.9617C17.961 14.0038 18.1541 14.0875 18.2978 14.1914L18.2979 14.1915C18.5068 14.3419 18.5868 14.5116 18.5868 14.6557C18.5868 14.7995 18.5068 14.9688 18.2983 15.1192L18.2982 15.1192C18.089 15.2702 17.7763 15.3786 17.4089 15.3786C16.8095 15.3786 16.401 15.1017 16.2774 14.8487L16.2773 14.8487C16.2186 14.7289 16.1135 14.6376 15.9862 14.5936C15.859 14.5496 15.7189 14.556 15.5965 14.6116C15.4739 14.6672 15.3781 14.768 15.3315 14.8929C15.2849 15.0179 15.2918 15.1557 15.3505 15.2757L17.9789 10.424Z" fill="#8B3BFF" stroke="#8B3BFF" stroke-width="0.2"/>
</svg>
