<svg width="24" height="24" viewBox="0 0 24 24" fill="none" xmlns="http://www.w3.org/2000/svg">
<g clip-path="url(#clip0_29137_66698)">
<path d="M2.35566 14.4631C1.97153 13.7977 2.15219 12.9497 2.77414 12.4987L6.19593 10.0175L8.86488 5.97518C9.27448 5.35482 10.1937 5.38238 10.5654 6.02617L15.8831 15.2366C16.2548 15.8804 15.819 16.6903 15.077 16.7348L10.2418 17.0251L9.44089 17.4874L10.8858 19.9901L8.0828 21.6085L6.49336 18.8555L5.89272 19.2023V19.2023C5.56099 19.3938 5.13681 19.2801 4.94528 18.9484L2.35566 14.4631Z" stroke="#F69234" stroke-linejoin="round"/>
<path d="M12.9147 5.47091L13.761 2.3128" stroke="#F69234" stroke-linecap="round" stroke-linejoin="round"/>
<path d="M16.9603 12.4822L20.1184 13.3284" stroke="#F69234" stroke-linecap="round" stroke-linejoin="round"/>
<path d="M16.439 8.10938L19.4422 6.37545" stroke="#F69234" stroke-linecap="round" stroke-linejoin="round"/>
</g>
<defs>
<clipPath id="clip0_29137_66698">
<rect width="24" height="24" fill="white"/>
</clipPath>
</defs>
</svg>
