<svg width="80" height="80" viewBox="0 0 80 80" fill="none" xmlns="http://www.w3.org/2000/svg">
<path d="M21.1001 67.1H34.0001C35.0001 67.1 35.8001 66.3 35.8001 65.3C35.8001 64.3 35.0001 63.5 34.0001 63.5H21.1001C19.1001 63.5 17.4001 61.8 17.4001 59.8V26.6H21.1001V28.4C21.1001 29.4 21.9001 30.2 22.9001 30.2C23.9001 30.2 24.7001 29.4 24.7001 28.4V26.6H39.5001V28.4C39.5001 29.4 40.3001 30.2 41.3001 30.2C42.3001 30.2 43.1001 29.4 43.1001 28.4V26.6H46.8001V28.4C46.8001 29.4 47.6001 30.2 48.6001 30.2C49.6001 30.2 50.4001 29.4 50.4001 28.4V24.7C50.4001 23.7 49.6001 22.9 48.6001 22.9H43.1001V19.2C43.1001 13.1 38.1001 8.09998 32.0001 8.09998C25.9001 8.09998 20.9001 13.1 20.9001 19.2V22.9H15.4001C14.4001 22.9 13.6001 23.7 13.6001 24.7V59.7C13.7001 63.8 17.0001 67.1 21.1001 67.1ZM24.8001 19.2C24.8001 15.1 28.1001 11.8 32.2001 11.8C36.3001 11.8 39.6001 15.1 39.6001 19.2V22.9H24.8001V19.2Z" fill="#808080"/>
<path d="M70.9001 37.6H65.2001C64.3001 33.4 60.6001 30.2 56.2001 30.2C51.8001 30.2 48.0001 33.4 47.2001 37.6H41.5001C40.5001 37.6 39.7001 38.4 39.7001 39.4V59.7C39.7001 63.8 43.0001 67.1 47.1001 67.1H65.5001C69.6001 67.1 72.9001 63.8 72.9001 59.7V39.5C72.7001 38.4 71.9001 37.6 70.9001 37.6ZM56.1001 33.9C58.5001 33.9 60.5001 35.4 61.3001 37.6H50.9001C51.7001 35.5 53.7001 33.9 56.1001 33.9ZM69.0001 59.7C69.0001 61.7 67.3001 63.4 65.3001 63.4H46.9001C44.9001 63.4 43.2001 61.7 43.2001 59.7V41.3H46.9001V43.1C46.9001 44.1 47.7001 44.9 48.7001 44.9C49.7001 44.9 50.5001 44.1 50.5001 43.1V41.3H61.6001V43.1C61.6001 44.1 62.4001 44.9 63.4001 44.9C64.4001 44.9 65.2001 44.1 65.2001 43.1V41.3H69.0001V59.7Z" fill="#808080"/>
</svg>
