<svg width="160" height="160" viewBox="0 0 160 160" fill="none" xmlns="http://www.w3.org/2000/svg">
<rect x="64" y="32" width="75" height="32" rx="7" stroke="#9BC4E3" stroke-width="2" stroke-dasharray="4 4"/>
<path fill-rule="evenodd" clip-rule="evenodd" d="M57 40.5C38.9156 40.5 24.2554 54.9905 24.2554 72.8654V85.4085C24.2554 89.976 22.623 94.3967 19.6465 97.8904C8.90938 110.493 17.9734 129.75 34.6424 129.75H79.3576C96.0266 129.75 105.091 110.493 94.3535 97.8904C91.377 94.3967 89.7446 89.976 89.7446 85.4085V72.8654C89.7446 71.8998 89.7019 70.9441 89.6181 70.0001H65C60.5817 70.0001 57 66.4183 57 62.0001V40.5Z" fill="#F3F8FB"/>
<path d="M57.1562 144.812C63.3177 144.812 68.3125 139.524 68.3125 133H46C46 139.524 50.9948 144.812 57.1562 144.812Z" fill="#F3F8FB"/>
<rect x="70" y="37" width="13" height="13" rx="4" fill="#D7E1E8"/>
<rect x="86" y="39" width="42" height="8" rx="4" fill="#D7E1E8"/>
<rect x="86" y="49" width="17" height="8" rx="4" fill="#D7E1E8"/>
<line y1="-1.5" x2="8.48528" y2="-1.5" transform="matrix(-0.91562 0.402045 0.402045 0.91562 153.747 26.984)" stroke="#9BC4E3" stroke-width="3"/>
<line x1="124.373" y1="14.3969" x2="127.785" y2="22.1662" stroke="#9BC4E3" stroke-width="3"/>
<line y1="-1.5" x2="8.48528" y2="-1.5" transform="matrix(0.363152 -0.93173 -0.93173 -0.363152 135.71 23.6946)" stroke="#9BC4E3" stroke-width="3"/>
</svg>
